solid Tent guy line cinch
facet normal 0.0 0.0 -1.0
  outer loop
    vertex 0.007566999999999999 0.26730906370441215 0.0
    vertex 0.007566999999999999 0.22637093629558772 0.0
    vertex 0.004872196640038615 0.24683999999999984 0.0
  endloop
endfacet
facet normal 0.0 0.0 -1.0
  outer loop
    vertex 0.007566999999999999 0.22637093629558772 0.0
    vertex 0.007566999999999999 0.26730906370441215 0.0
    vertex 0.013283065678844963 0.3107268930931061 0.0
  endloop
endfacet
facet normal 0.0 0.0 -1.0
  outer loop
    vertex 0.007566999999999999 0.22637093629558772 0.0
    vertex 0.013283065678844963 0.3107268930931061 0.0
    vertex 0.013283065678845019 0.18295310690689368 0.0
  endloop
endfacet
facet normal 0.0 0.0 -1.0
  outer loop
    vertex 0.013283065678845019 0.18295310690689368 0.0
    vertex 0.013283065678844963 0.3107268930931061 0.0
    vertex 0.03794248596988775 0.3702599999999998 0.0
  endloop
endfacet
facet normal 0.0 0.0 -1.0
  outer loop
    vertex 0.013283065678845019 0.18295310690689368 0.0
    vertex 0.03794248596988775 0.3702599999999998 0.0
    vertex 0.03794248596988781 0.12341999999999993 0.0
  endloop
endfacet
facet normal 0.0 0.0 -1.0
  outer loop
    vertex 0.03794248596988781 0.12341999999999993 0.0
    vertex 0.03794248596988775 0.3702599999999998 0.0
    vertex 0.07716995877195115 0.42138223786808726 0.0
  endloop
endfacet
facet normal 0.0 0.0 -1.0
  outer loop
    vertex 0.03794248596988781 0.12341999999999993 0.0
    vertex 0.07716995877195115 0.42138223786808726 0.0
    vertex 0.07716995877195124 0.07229776213191255 0.0
  endloop
endfacet
facet normal 0.0 0.0 -1.0
  outer loop
    vertex 0.07716995877195124 0.07229776213191255 0.0
    vertex 0.07716995877195115 0.42138223786808726 0.0
    vertex 0.12829219664003855 0.4606097106701508 0.0
  endloop
endfacet
facet normal 0.0 0.0 -1.0
  outer loop
    vertex 0.07716995877195124 0.07229776213191255 0.0
    vertex 0.12829219664003855 0.4606097106701508 0.0
    vertex 0.1282921966400386 0.03307028932984915 0.0
  endloop
endfacet
facet normal 0.0 0.0 -1.0
  outer loop
    vertex 0.1282921966400386 0.03307028932984915 0.0
    vertex 0.12829219664003855 0.4606097106701508 0.0
    vertex 0.18782530354693236 0.4852691309611935 0.0
  endloop
endfacet
facet normal 0.0 0.0 -1.0
  outer loop
    vertex 0.1282921966400386 0.03307028932984915 0.0
    vertex 0.18782530354693236 0.4852691309611935 0.0
    vertex 0.18782530354693236 0.00841086903880639 0.0
  endloop
endfacet
facet normal 0.0 0.0 -1.0
  outer loop
    vertex 0.18782530354693236 0.00841086903880639 0.0
    vertex 0.18782530354693236 0.4852691309611935 0.0
    vertex 0.21907722329455004 0.2523937099722415 0.0
  endloop
endfacet
facet normal 0.0 0.0 -1.0
  outer loop
    vertex 0.21907722329455004 0.2523937099722415 0.0
    vertex 0.18782530354693236 0.4852691309611935 0.0
    vertex 0.22229184899078677 0.27681121632530353 0.0
  endloop
endfacet
facet normal 0.0 0.0 -1.0
  outer loop
    vertex 0.22229184899078677 0.27681121632530353 0.0
    vertex 0.18782530354693236 0.4852691309611935 0.0
    vertex 0.25171219664003863 0.4936799999999999 0.0
  endloop
endfacet
facet normal 0.0 0.0 -1.0
  outer loop
    vertex 0.22229184899078677 0.27681121632530353 0.0
    vertex 0.25171219664003863 0.4936799999999999 0.0
    vertex 0.23171665465071856 0.29956470997224155 0.0
  endloop
endfacet
facet normal 0.0 0.0 -1.0
  outer loop
    vertex 0.23171665465071856 0.29956470997224155 0.0
    vertex 0.25171219664003863 0.4936799999999999 0.0
    vertex 0.2467093553438488 0.31910357792294275 0.0
  endloop
endfacet
facet normal 0.0 0.0 -1.0
  outer loop
    vertex 0.2467093553438488 0.31910357792294275 0.0
    vertex 0.25171219664003863 0.4936799999999999 0.0
    vertex 0.26624822329455006 0.33409627861607305 0.0
  endloop
endfacet
facet normal 0.0 0.0 -1.0
  outer loop
    vertex 0.26624822329455006 0.33409627861607305 0.0
    vertex 0.25171219664003863 0.4936799999999999 0.0
    vertex 0.2890017169414881 0.3435210842760048 0.0
  endloop
endfacet
facet normal 0.0 0.0 -1.0
  outer loop
    vertex 0.2890017169414881 0.3435210842760048 0.0
    vertex 0.25171219664003863 0.4936799999999999 0.0
    vertex 0.3134192232945501 0.3467357099722415 0.0
  endloop
endfacet
facet normal 0.0 0.0 -1.0
  outer loop
    vertex 0.3134192232945501 0.3467357099722415 0.0
    vertex 0.25171219664003863 0.4936799999999999 0.0
    vertex 1.486501066055515 0.4936799999999999 0.0
  endloop
endfacet
facet normal 0.0 0.0 -1.0
  outer loop
    vertex 0.3134192232945501 0.3467357099722415 0.0
    vertex 1.486501066055515 0.4936799999999999 0.0
    vertex 0.33783672964761213 0.3435210842760048 0.0
  endloop
endfacet
facet normal 0.0 0.0 -1.0
  outer loop
    vertex 0.33783672964761213 0.3435210842760048 0.0
    vertex 1.486501066055515 0.4936799999999999 0.0
    vertex 0.3605902232945501 0.334096278616073 0.0
  endloop
endfacet
facet normal 0.0 0.0 -1.0
  outer loop
    vertex 0.3605902232945501 0.334096278616073 0.0
    vertex 1.486501066055515 0.4936799999999999 0.0
    vertex 0.3801290912452514 0.31910357792294275 0.0
  endloop
endfacet
facet normal 0.0 0.0 -1.0
  outer loop
    vertex 0.3801290912452514 0.31910357792294275 0.0
    vertex 1.486501066055515 0.4936799999999999 0.0
    vertex 0.3951217919383816 0.2995647099722415 0.0
  endloop
endfacet
facet normal 0.0 0.0 -1.0
  outer loop
    vertex 0.3951217919383816 0.2995647099722415 0.0
    vertex 1.486501066055515 0.4936799999999999 0.0
    vertex 0.4045465975983134 0.2768112163253035 0.0
  endloop
endfacet
facet normal 0.0 0.0 -1.0
  outer loop
    vertex 0.4045465975983134 0.2768112163253035 0.0
    vertex 1.486501066055515 0.4936799999999999 0.0
    vertex 0.4077612232945501 0.2523937099722415 0.0
  endloop
endfacet
facet normal 0.0 0.0 -1.0
  outer loop
    vertex 0.4077612232945501 0.2523937099722415 0.0
    vertex 1.486501066055515 0.4936799999999999 0.0
    vertex 0.8527046966735093 0.34344343943426714 0.0
  endloop
endfacet
facet normal 0.0 0.0 -1.0
  outer loop
    vertex 0.4077612232945501 0.2523937099722415 0.0
    vertex 0.8527046966735093 0.34344343943426714 0.0
    vertex 0.8299705900815226 0.33402666415543064 0.0
  endloop
endfacet
facet normal 0.0 0.0 -1.0
  outer loop
    vertex 0.4077612232945501 0.2523937099722415 0.0
    vertex 0.8299705900815226 0.33402666415543064 0.0
    vertex 0.8104483701723276 0.31904673795384514 0.0
  endloop
endfacet
facet normal 0.0 0.0 -1.0
  outer loop
    vertex 0.4077612232945501 0.2523937099722415 0.0
    vertex 0.8104483701723276 0.31904673795384514 0.0
    vertex 0.7954684439707421 0.2995245180446502 0.0
  endloop
endfacet
facet normal 0.0 0.0 -1.0
  outer loop
    vertex 0.4077612232945501 0.2523937099722415 0.0
    vertex 0.7954684439707421 0.2995245180446502 0.0
    vertex 0.7860516686919057 0.2767904114526635 0.0
  endloop
endfacet
facet normal 0.0 0.0 -1.0
  outer loop
    vertex 0.4077612232945501 0.2523937099722415 0.0
    vertex 0.7860516686919057 0.2767904114526635 0.0
    vertex 0.782839782009114 0.2523937099722415 0.0
  endloop
endfacet
facet normal 0.0 0.0 -1.0
  outer loop
    vertex 0.8527046966735093 0.34344343943426714 0.0
    vertex 1.486501066055515 0.4936799999999999 0.0
    vertex 0.8771013981539313 0.3466553261170588 0.0
  endloop
endfacet
facet normal 0.0 0.0 -1.0
  outer loop
    vertex 0.8771013981539313 0.3466553261170588 0.0
    vertex 1.486501066055515 0.4936799999999999 0.0
    vertex 0.9014980996343532 0.34344343943426714 0.0
  endloop
endfacet
facet normal 0.0 0.0 -1.0
  outer loop
    vertex 0.9014980996343532 0.34344343943426714 0.0
    vertex 1.486501066055515 0.4936799999999999 0.0
    vertex 0.92423220622634 0.33402666415543064 0.0
  endloop
endfacet
facet normal 0.0 0.0 -1.0
  outer loop
    vertex 0.92423220622634 0.33402666415543064 0.0
    vertex 1.486501066055515 0.4936799999999999 0.0
    vertex 0.943754426135535 0.31904673795384514 0.0
  endloop
endfacet
facet normal 0.0 0.0 -1.0
  outer loop
    vertex 0.943754426135535 0.31904673795384514 0.0
    vertex 1.486501066055515 0.4936799999999999 0.0
    vertex 0.9587343523371205 0.29952451804465013 0.0
  endloop
endfacet
facet normal 0.0 0.0 -1.0
  outer loop
    vertex 0.9587343523371205 0.29952451804465013 0.0
    vertex 1.486501066055515 0.4936799999999999 0.0
    vertex 0.9681511276159569 0.2767904114526634 0.0
  endloop
endfacet
facet normal 0.0 0.0 -1.0
  outer loop
    vertex 0.9681511276159569 0.2767904114526634 0.0
    vertex 1.486501066055515 0.4936799999999999 0.0
    vertex 0.9713630142987486 0.2523937099722415 0.0
  endloop
endfacet
facet normal 0.0 0.0 -1.0
  outer loop
    vertex 0.9713630142987486 0.2523937099722415 0.0
    vertex 1.486501066055515 0.4936799999999999 0.0
    vertex 1.3567950804136313 0.2994476404137406 0.0
  endloop
endfacet
facet normal 0.0 0.0 -1.0
  outer loop
    vertex 0.9713630142987486 0.2523937099722415 0.0
    vertex 1.3567950804136313 0.2994476404137406 0.0
    vertex 1.3473936653504128 0.27675061666261996 0.0
  endloop
endfacet
facet normal 0.0 0.0 -1.0
  outer loop
    vertex 0.9713630142987486 0.2523937099722415 0.0
    vertex 1.3473936653504128 0.27675061666261996 0.0
    vertex 1.3441870177511213 0.2523937099722415 0.0
  endloop
endfacet
facet normal 0.0 0.0 -1.0
  outer loop
    vertex 1.3567950804136313 0.2994476404137406 0.0
    vertex 1.486501066055515 0.4936799999999999 0.0
    vertex 1.3717505720407912 0.31893801656556975 0.0
  endloop
endfacet
facet normal 0.0 0.0 -1.0
  outer loop
    vertex 1.3717505720407912 0.31893801656556975 0.0
    vertex 1.486501066055515 0.4936799999999999 0.0
    vertex 1.3912409481926205 0.3338935081927297 0.0
  endloop
endfacet
facet normal 0.0 0.0 -1.0
  outer loop
    vertex 1.3912409481926205 0.3338935081927297 0.0
    vertex 1.486501066055515 0.4936799999999999 0.0
    vertex 1.413937971943741 0.3432949232559482 0.0
  endloop
endfacet
facet normal 0.0 0.0 -1.0
  outer loop
    vertex 1.413937971943741 0.3432949232559482 0.0
    vertex 1.486501066055515 0.4936799999999999 0.0
    vertex 1.4382948786341194 0.34650157085523964 0.0
  endloop
endfacet
facet normal 0.0 0.0 -1.0
  outer loop
    vertex 1.4382948786341194 0.34650157085523964 0.0
    vertex 1.486501066055515 0.4936799999999999 0.0
    vertex 1.4626517853244978 0.3432949232559481 0.0
  endloop
endfacet
facet normal 0.0 0.0 -1.0
  outer loop
    vertex 1.4626517853244978 0.3432949232559481 0.0
    vertex 1.486501066055515 0.4936799999999999 0.0
    vertex 1.4853488090756186 0.3338935081927297 0.0
  endloop
endfacet
facet normal 0.0 0.0 -1.0
  outer loop
    vertex 1.4853488090756186 0.3338935081927297 0.0
    vertex 1.486501066055515 0.4936799999999999 0.0
    vertex 1.5048391852274476 0.3189380165655697 0.0
  endloop
endfacet
facet normal 0.0 0.0 -1.0
  outer loop
    vertex 1.5048391852274476 0.3189380165655697 0.0
    vertex 1.486501066055515 0.4936799999999999 0.0
    vertex 1.5503879591486207 0.4852691309611935 0.0
  endloop
endfacet
facet normal 0.0 0.0 -1.0
  outer loop
    vertex 1.5048391852274476 0.3189380165655697 0.0
    vertex 1.5503879591486207 0.4852691309611935 0.0
    vertex 1.5197946768546076 0.29944764041374056 0.0
  endloop
endfacet
facet normal 0.0 0.0 -1.0
  outer loop
    vertex 1.5197946768546076 0.29944764041374056 0.0
    vertex 1.5503879591486207 0.4852691309611935 0.0
    vertex 1.529196091917826 0.2767506166626199 0.0
  endloop
endfacet
facet normal 0.0 0.0 -1.0
  outer loop
    vertex 1.529196091917826 0.2767506166626199 0.0
    vertex 1.5503879591486207 0.4852691309611935 0.0
    vertex 1.5324027395171176 0.2523937099722415 0.0
  endloop
endfacet
facet normal 0.0 0.0 -1.0
  outer loop
    vertex 0.21907722329455004 0.2523937099722415 0.0
    vertex 0.2517121966400386 0.0 0.0
    vertex 0.18782530354693236 0.00841086903880639 0.0
  endloop
endfacet
facet normal 0.0 0.0 -1.0
  outer loop
    vertex 0.2517121966400386 0.0 0.0
    vertex 0.21907722329455004 0.2523937099722415 0.0
    vertex 0.22229184899078674 0.2279762036191795 0.0
  endloop
endfacet
facet normal 0.0 0.0 -1.0
  outer loop
    vertex 0.2517121966400386 0.0 0.0
    vertex 0.22229184899078674 0.2279762036191795 0.0
    vertex 0.2317166546507185 0.20522270997224148 0.0
  endloop
endfacet
facet normal 0.0 0.0 -1.0
  outer loop
    vertex 0.2517121966400386 0.0 0.0
    vertex 0.2317166546507185 0.20522270997224148 0.0
    vertex 0.24670935534384875 0.1856838420215402 0.0
  endloop
endfacet
facet normal 0.0 0.0 -1.0
  outer loop
    vertex 0.2517121966400386 0.0 0.0
    vertex 0.24670935534384875 0.1856838420215402 0.0
    vertex 0.26624822329455 0.17069114132840996 0.0
  endloop
endfacet
facet normal 0.0 0.0 -1.0
  outer loop
    vertex 0.2517121966400386 0.0 0.0
    vertex 0.26624822329455 0.17069114132840996 0.0
    vertex 0.28900171694148796 0.16126633566847817 0.0
  endloop
endfacet
facet normal 0.0 0.0 -1.0
  outer loop
    vertex 0.2517121966400386 0.0 0.0
    vertex 0.28900171694148796 0.16126633566847817 0.0
    vertex 1.486501066055515 0.0 0.0
  endloop
endfacet
facet normal 0.0 0.0 -1.0
  outer loop
    vertex 1.486501066055515 0.0 0.0
    vertex 0.28900171694148796 0.16126633566847817 0.0
    vertex 0.3134192232945501 0.15805170997224144 0.0
  endloop
endfacet
facet normal 0.0 0.0 -1.0
  outer loop
    vertex 1.486501066055515 0.0 0.0
    vertex 0.3134192232945501 0.15805170997224144 0.0
    vertex 0.3378367296476121 0.16126633566847814 0.0
  endloop
endfacet
facet normal 0.0 0.0 -1.0
  outer loop
    vertex 1.486501066055515 0.0 0.0
    vertex 0.3378367296476121 0.16126633566847814 0.0
    vertex 0.36059022329455004 0.1706911413284099 0.0
  endloop
endfacet
facet normal 0.0 0.0 -1.0
  outer loop
    vertex 1.486501066055515 0.0 0.0
    vertex 0.36059022329455004 0.1706911413284099 0.0
    vertex 0.38012909124525135 0.18568384202154017 0.0
  endloop
endfacet
facet normal 0.0 0.0 -1.0
  outer loop
    vertex 1.486501066055515 0.0 0.0
    vertex 0.38012909124525135 0.18568384202154017 0.0
    vertex 0.3951217919383816 0.2052227099722414 0.0
  endloop
endfacet
facet normal 0.0 0.0 -1.0
  outer loop
    vertex 1.486501066055515 0.0 0.0
    vertex 0.3951217919383816 0.2052227099722414 0.0
    vertex 0.40454659759831335 0.22797620361917936 0.0
  endloop
endfacet
facet normal 0.0 0.0 -1.0
  outer loop
    vertex 1.486501066055515 0.0 0.0
    vertex 0.40454659759831335 0.22797620361917936 0.0
    vertex 0.4077612232945501 0.2523937099722415 0.0
  endloop
endfacet
facet normal 0.0 0.0 -1.0
  outer loop
    vertex 1.486501066055515 0.0 0.0
    vertex 0.4077612232945501 0.2523937099722415 0.0
    vertex 0.8527046966735092 0.16134398051021587 0.0
  endloop
endfacet
facet normal 0.0 0.0 -1.0
  outer loop
    vertex 0.8527046966735092 0.16134398051021587 0.0
    vertex 0.4077612232945501 0.2523937099722415 0.0
    vertex 0.8299705900815226 0.1707607557890523 0.0
  endloop
endfacet
facet normal 0.0 0.0 -1.0
  outer loop
    vertex 0.8299705900815226 0.1707607557890523 0.0
    vertex 0.4077612232945501 0.2523937099722415 0.0
    vertex 0.8104483701723276 0.18574068199063784 0.0
  endloop
endfacet
facet normal 0.0 0.0 -1.0
  outer loop
    vertex 0.8104483701723276 0.18574068199063784 0.0
    vertex 0.4077612232945501 0.2523937099722415 0.0
    vertex 0.7954684439707421 0.20526290189983284 0.0
  endloop
endfacet
facet normal 0.0 0.0 -1.0
  outer loop
    vertex 0.7954684439707421 0.20526290189983284 0.0
    vertex 0.4077612232945501 0.2523937099722415 0.0
    vertex 0.7860516686919057 0.22799700849181953 0.0
  endloop
endfacet
facet normal 0.0 0.0 -1.0
  outer loop
    vertex 0.7860516686919057 0.22799700849181953 0.0
    vertex 0.4077612232945501 0.2523937099722415 0.0
    vertex 0.782839782009114 0.2523937099722415 0.0
  endloop
endfacet
facet normal 0.0 0.0 -1.0
  outer loop
    vertex 1.486501066055515 0.0 0.0
    vertex 0.8527046966735092 0.16134398051021587 0.0
    vertex 0.8771013981539313 0.15813209382742416 0.0
  endloop
endfacet
facet normal 0.0 0.0 -1.0
  outer loop
    vertex 1.486501066055515 0.0 0.0
    vertex 0.8771013981539313 0.15813209382742416 0.0
    vertex 0.9014980996343532 0.1613439805102158 0.0
  endloop
endfacet
facet normal 0.0 0.0 -1.0
  outer loop
    vertex 1.486501066055515 0.0 0.0
    vertex 0.9014980996343532 0.1613439805102158 0.0
    vertex 0.9242322062263398 0.17076075578905225 0.0
  endloop
endfacet
facet normal 0.0 0.0 -1.0
  outer loop
    vertex 1.486501066055515 0.0 0.0
    vertex 0.9242322062263398 0.17076075578905225 0.0
    vertex 0.943754426135535 0.18574068199063778 0.0
  endloop
endfacet
facet normal 0.0 0.0 -1.0
  outer loop
    vertex 1.486501066055515 0.0 0.0
    vertex 0.943754426135535 0.18574068199063778 0.0
    vertex 0.9587343523371205 0.20526290189983276 0.0
  endloop
endfacet
facet normal 0.0 0.0 -1.0
  outer loop
    vertex 1.486501066055515 0.0 0.0
    vertex 0.9587343523371205 0.20526290189983276 0.0
    vertex 0.9681511276159569 0.22799700849181942 0.0
  endloop
endfacet
facet normal 0.0 0.0 -1.0
  outer loop
    vertex 1.486501066055515 0.0 0.0
    vertex 0.9681511276159569 0.22799700849181942 0.0
    vertex 0.9713630142987486 0.2523937099722415 0.0
  endloop
endfacet
facet normal 0.0 0.0 -1.0
  outer loop
    vertex 1.486501066055515 0.0 0.0
    vertex 0.9713630142987486 0.2523937099722415 0.0
    vertex 1.356795080413631 0.20533977953074242 0.0
  endloop
endfacet
facet normal 0.0 0.0 -1.0
  outer loop
    vertex 1.356795080413631 0.20533977953074242 0.0
    vertex 0.9713630142987486 0.2523937099722415 0.0
    vertex 1.3473936653504128 0.22803680328186307 0.0
  endloop
endfacet
facet normal 0.0 0.0 -1.0
  outer loop
    vertex 1.3473936653504128 0.22803680328186307 0.0
    vertex 0.9713630142987486 0.2523937099722415 0.0
    vertex 1.3441870177511213 0.2523937099722415 0.0
  endloop
endfacet
facet normal 0.0 0.0 -1.0
  outer loop
    vertex 1.486501066055515 0.0 0.0
    vertex 1.356795080413631 0.20533977953074242 0.0
    vertex 1.3717505720407912 0.18584940337891326 0.0
  endloop
endfacet
facet normal 0.0 0.0 -1.0
  outer loop
    vertex 1.486501066055515 0.0 0.0
    vertex 1.3717505720407912 0.18584940337891326 0.0
    vertex 1.3912409481926202 0.17089391175175322 0.0
  endloop
endfacet
facet normal 0.0 0.0 -1.0
  outer loop
    vertex 1.486501066055515 0.0 0.0
    vertex 1.3912409481926202 0.17089391175175322 0.0
    vertex 1.4139379719437408 0.16149249668853483 0.0
  endloop
endfacet
facet normal 0.0 0.0 -1.0
  outer loop
    vertex 1.486501066055515 0.0 0.0
    vertex 1.4139379719437408 0.16149249668853483 0.0
    vertex 1.4382948786341194 0.1582858490892433 0.0
  endloop
endfacet
facet normal 0.0 0.0 -1.0
  outer loop
    vertex 1.486501066055515 0.0 0.0
    vertex 1.4382948786341194 0.1582858490892433 0.0
    vertex 1.4626517853244978 0.16149249668853477 0.0
  endloop
endfacet
facet normal 0.0 0.0 -1.0
  outer loop
    vertex 1.486501066055515 0.0 0.0
    vertex 1.4626517853244978 0.16149249668853477 0.0
    vertex 1.4853488090756184 0.17089391175175317 0.0
  endloop
endfacet
facet normal 0.0 0.0 -1.0
  outer loop
    vertex 1.486501066055515 0.0 0.0
    vertex 1.4853488090756184 0.17089391175175317 0.0
    vertex 1.5048391852274476 0.18584940337891323 0.0
  endloop
endfacet
facet normal 0.0 0.0 -1.0
  outer loop
    vertex 1.486501066055515 0.0 0.0
    vertex 1.5048391852274476 0.18584940337891323 0.0
    vertex 1.5503879591486207 0.00841086903880639 0.0
  endloop
endfacet
facet normal 0.0 0.0 -1.0
  outer loop
    vertex 1.5503879591486207 0.00841086903880639 0.0
    vertex 1.5048391852274476 0.18584940337891323 0.0
    vertex 1.5197946768546076 0.20533977953074234 0.0
  endloop
endfacet
facet normal 0.0 0.0 -1.0
  outer loop
    vertex 1.5503879591486207 0.00841086903880639 0.0
    vertex 1.5197946768546076 0.20533977953074234 0.0
    vertex 1.529196091917826 0.22803680328186296 0.0
  endloop
endfacet
facet normal 0.0 0.0 -1.0
  outer loop
    vertex 1.5503879591486207 0.00841086903880639 0.0
    vertex 1.529196091917826 0.22803680328186296 0.0
    vertex 1.5324027395171176 0.2523937099722415 0.0
  endloop
endfacet
facet normal 0.0 0.0 -1.0
  outer loop
    vertex 1.5503879591486207 0.00841086903880639 0.0
    vertex 1.5324027395171176 0.2523937099722415 0.0
    vertex 1.5503879591486207 0.4852691309611935 0.0
  endloop
endfacet
facet normal 0.0 0.0 -1.0
  outer loop
    vertex 1.5503879591486207 0.00841086903880639 0.0
    vertex 1.5503879591486207 0.4852691309611935 0.0
    vertex 1.6099210660555148 0.4606097106701508 0.0
  endloop
endfacet
facet normal 0.0 0.0 -1.0
  outer loop
    vertex 1.5503879591486207 0.00841086903880639 0.0
    vertex 1.6099210660555148 0.4606097106701508 0.0
    vertex 1.6099210660555148 0.03307028932984915 0.0
  endloop
endfacet
facet normal 0.0 0.0 -1.0
  outer loop
    vertex 1.6099210660555148 0.03307028932984915 0.0
    vertex 1.6099210660555148 0.4606097106701508 0.0
    vertex 1.661043303923602 0.4213822378680874 0.0
  endloop
endfacet
facet normal 0.0 0.0 -1.0
  outer loop
    vertex 1.6099210660555148 0.03307028932984915 0.0
    vertex 1.661043303923602 0.4213822378680874 0.0
    vertex 1.661043303923602 0.07229776213191261 0.0
  endloop
endfacet
facet normal 0.0 0.0 -1.0
  outer loop
    vertex 1.661043303923602 0.07229776213191261 0.0
    vertex 1.661043303923602 0.4213822378680874 0.0
    vertex 1.7002707767256653 0.3702599999999999 0.0
  endloop
endfacet
facet normal 0.0 0.0 -1.0
  outer loop
    vertex 1.661043303923602 0.07229776213191261 0.0
    vertex 1.7002707767256653 0.3702599999999999 0.0
    vertex 1.7002707767256653 0.12342000000000004 0.0
  endloop
endfacet
facet normal 0.0 0.0 -1.0
  outer loop
    vertex 1.7002707767256653 0.12342000000000004 0.0
    vertex 1.7002707767256653 0.3702599999999999 0.0
    vertex 1.7249301970167084 0.3107268930931062 0.0
  endloop
endfacet
facet normal 0.0 0.0 -1.0
  outer loop
    vertex 1.7002707767256653 0.12342000000000004 0.0
    vertex 1.7249301970167084 0.3107268930931062 0.0
    vertex 1.7249301970167084 0.18295310690689384 0.0
  endloop
endfacet
facet normal 0.0 0.0 -1.0
  outer loop
    vertex 1.7249301970167084 0.18295310690689384 0.0
    vertex 1.7249301970167084 0.3107268930931062 0.0
    vertex 1.7333410660555146 0.24684000000000006 0.0
  endloop
endfacet
facet normal 0.0 0.0 1.0
  outer loop
    vertex 0.007566999999999999 0.22637093629558772 0.125912
    vertex 0.007566999999999999 0.26730906370441215 0.125912
    vertex 0.004872196640038615 0.24683999999999984 0.125912
  endloop
endfacet
facet normal 0.0 0.0 1.0
  outer loop
    vertex 0.007566999999999999 0.26730906370441215 0.125912
    vertex 0.007566999999999999 0.22637093629558772 0.125912
    vertex 0.013283065678845019 0.18295310690689368 0.125912
  endloop
endfacet
facet normal 0.0 0.0 1.0
  outer loop
    vertex 0.007566999999999999 0.26730906370441215 0.125912
    vertex 0.013283065678845019 0.18295310690689368 0.125912
    vertex 0.013283065678844963 0.3107268930931061 0.125912
  endloop
endfacet
facet normal 0.0 0.0 1.0
  outer loop
    vertex 0.013283065678844963 0.3107268930931061 0.125912
    vertex 0.013283065678845019 0.18295310690689368 0.125912
    vertex 0.03794248596988775 0.3702599999999998 0.125912
  endloop
endfacet
facet normal 0.0 0.0 1.0
  outer loop
    vertex 0.03794248596988775 0.3702599999999998 0.125912
    vertex 0.013283065678845019 0.18295310690689368 0.125912
    vertex 0.03794248596988781 0.12341999999999993 0.125912
  endloop
endfacet
facet normal 0.0 0.0 1.0
  outer loop
    vertex 0.03794248596988775 0.3702599999999998 0.125912
    vertex 0.03794248596988781 0.12341999999999993 0.125912
    vertex 0.07716995877195115 0.42138223786808726 0.125912
  endloop
endfacet
facet normal 0.0 0.0 1.0
  outer loop
    vertex 0.07716995877195115 0.42138223786808726 0.125912
    vertex 0.03794248596988781 0.12341999999999993 0.125912
    vertex 0.07716995877195124 0.07229776213191255 0.125912
  endloop
endfacet
facet normal 0.0 0.0 1.0
  outer loop
    vertex 0.07716995877195115 0.42138223786808726 0.125912
    vertex 0.07716995877195124 0.07229776213191255 0.125912
    vertex 0.12829219664003855 0.4606097106701508 0.125912
  endloop
endfacet
facet normal 0.0 0.0 1.0
  outer loop
    vertex 0.12829219664003855 0.4606097106701508 0.125912
    vertex 0.07716995877195124 0.07229776213191255 0.125912
    vertex 0.1282921966400386 0.03307028932984915 0.125912
  endloop
endfacet
facet normal 0.0 0.0 1.0
  outer loop
    vertex 0.12829219664003855 0.4606097106701508 0.125912
    vertex 0.1282921966400386 0.03307028932984915 0.125912
    vertex 0.18782530354693236 0.4852691309611935 0.125912
  endloop
endfacet
facet normal 0.0 0.0 1.0
  outer loop
    vertex 0.18782530354693236 0.4852691309611935 0.125912
    vertex 0.1282921966400386 0.03307028932984915 0.125912
    vertex 0.18782530354693236 0.00841086903880639 0.125912
  endloop
endfacet
facet normal 0.0 0.0 1.0
  outer loop
    vertex 0.18782530354693236 0.4852691309611935 0.125912
    vertex 0.18782530354693236 0.00841086903880639 0.125912
    vertex 0.2517121966400386 0.0 0.125912
  endloop
endfacet
facet normal 0.0 0.0 1.0
  outer loop
    vertex 0.18782530354693236 0.4852691309611935 0.125912
    vertex 0.2517121966400386 0.0 0.125912
    vertex 0.21907722329455004 0.2523937099722415 0.125912
  endloop
endfacet
facet normal 0.0 0.0 1.0
  outer loop
    vertex 0.21907722329455004 0.2523937099722415 0.125912
    vertex 0.2517121966400386 0.0 0.125912
    vertex 0.22229184899078674 0.2279762036191795 0.125912
  endloop
endfacet
facet normal 0.0 0.0 1.0
  outer loop
    vertex 0.22229184899078674 0.2279762036191795 0.125912
    vertex 0.2517121966400386 0.0 0.125912
    vertex 0.2317166546507185 0.20522270997224148 0.125912
  endloop
endfacet
facet normal 0.0 0.0 1.0
  outer loop
    vertex 0.2317166546507185 0.20522270997224148 0.125912
    vertex 0.2517121966400386 0.0 0.125912
    vertex 0.24670935534384875 0.1856838420215402 0.125912
  endloop
endfacet
facet normal 0.0 0.0 1.0
  outer loop
    vertex 0.24670935534384875 0.1856838420215402 0.125912
    vertex 0.2517121966400386 0.0 0.125912
    vertex 0.26624822329455 0.17069114132840996 0.125912
  endloop
endfacet
facet normal 0.0 0.0 1.0
  outer loop
    vertex 0.26624822329455 0.17069114132840996 0.125912
    vertex 0.2517121966400386 0.0 0.125912
    vertex 0.28900171694148796 0.16126633566847817 0.125912
  endloop
endfacet
facet normal 0.0 0.0 1.0
  outer loop
    vertex 0.28900171694148796 0.16126633566847817 0.125912
    vertex 0.2517121966400386 0.0 0.125912
    vertex 1.486501066055515 0.0 0.125912
  endloop
endfacet
facet normal 0.0 0.0 1.0
  outer loop
    vertex 0.28900171694148796 0.16126633566847817 0.125912
    vertex 1.486501066055515 0.0 0.125912
    vertex 0.3134192232945501 0.15805170997224144 0.125912
  endloop
endfacet
facet normal 0.0 0.0 1.0
  outer loop
    vertex 0.3134192232945501 0.15805170997224144 0.125912
    vertex 1.486501066055515 0.0 0.125912
    vertex 0.3378367296476121 0.16126633566847814 0.125912
  endloop
endfacet
facet normal 0.0 0.0 1.0
  outer loop
    vertex 0.3378367296476121 0.16126633566847814 0.125912
    vertex 1.486501066055515 0.0 0.125912
    vertex 0.36059022329455004 0.1706911413284099 0.125912
  endloop
endfacet
facet normal 0.0 0.0 1.0
  outer loop
    vertex 0.36059022329455004 0.1706911413284099 0.125912
    vertex 1.486501066055515 0.0 0.125912
    vertex 0.38012909124525135 0.18568384202154017 0.125912
  endloop
endfacet
facet normal 0.0 0.0 1.0
  outer loop
    vertex 0.38012909124525135 0.18568384202154017 0.125912
    vertex 1.486501066055515 0.0 0.125912
    vertex 0.3951217919383816 0.2052227099722414 0.125912
  endloop
endfacet
facet normal 0.0 0.0 1.0
  outer loop
    vertex 0.3951217919383816 0.2052227099722414 0.125912
    vertex 1.486501066055515 0.0 0.125912
    vertex 0.40454659759831335 0.22797620361917936 0.125912
  endloop
endfacet
facet normal 0.0 0.0 1.0
  outer loop
    vertex 0.40454659759831335 0.22797620361917936 0.125912
    vertex 1.486501066055515 0.0 0.125912
    vertex 0.4077612232945501 0.2523937099722415 0.125912
  endloop
endfacet
facet normal 0.0 0.0 1.0
  outer loop
    vertex 0.4077612232945501 0.2523937099722415 0.125912
    vertex 1.486501066055515 0.0 0.125912
    vertex 0.8527046966735092 0.16134398051021587 0.125912
  endloop
endfacet
facet normal 0.0 0.0 1.0
  outer loop
    vertex 0.4077612232945501 0.2523937099722415 0.125912
    vertex 0.8527046966735092 0.16134398051021587 0.125912
    vertex 0.8299705900815226 0.1707607557890523 0.125912
  endloop
endfacet
facet normal 0.0 0.0 1.0
  outer loop
    vertex 0.4077612232945501 0.2523937099722415 0.125912
    vertex 0.8299705900815226 0.1707607557890523 0.125912
    vertex 0.8104483701723276 0.18574068199063784 0.125912
  endloop
endfacet
facet normal 0.0 0.0 1.0
  outer loop
    vertex 0.4077612232945501 0.2523937099722415 0.125912
    vertex 0.8104483701723276 0.18574068199063784 0.125912
    vertex 0.7954684439707421 0.20526290189983284 0.125912
  endloop
endfacet
facet normal 0.0 0.0 1.0
  outer loop
    vertex 0.4077612232945501 0.2523937099722415 0.125912
    vertex 0.7954684439707421 0.20526290189983284 0.125912
    vertex 0.7860516686919057 0.22799700849181953 0.125912
  endloop
endfacet
facet normal 0.0 0.0 1.0
  outer loop
    vertex 0.4077612232945501 0.2523937099722415 0.125912
    vertex 0.7860516686919057 0.22799700849181953 0.125912
    vertex 0.782839782009114 0.2523937099722415 0.125912
  endloop
endfacet
facet normal 0.0 0.0 1.0
  outer loop
    vertex 0.8527046966735092 0.16134398051021587 0.125912
    vertex 1.486501066055515 0.0 0.125912
    vertex 0.8771013981539313 0.15813209382742416 0.125912
  endloop
endfacet
facet normal 0.0 0.0 1.0
  outer loop
    vertex 0.8771013981539313 0.15813209382742416 0.125912
    vertex 1.486501066055515 0.0 0.125912
    vertex 0.9014980996343532 0.1613439805102158 0.125912
  endloop
endfacet
facet normal 0.0 0.0 1.0
  outer loop
    vertex 0.9014980996343532 0.1613439805102158 0.125912
    vertex 1.486501066055515 0.0 0.125912
    vertex 0.9242322062263398 0.17076075578905225 0.125912
  endloop
endfacet
facet normal 0.0 0.0 1.0
  outer loop
    vertex 0.9242322062263398 0.17076075578905225 0.125912
    vertex 1.486501066055515 0.0 0.125912
    vertex 0.943754426135535 0.18574068199063778 0.125912
  endloop
endfacet
facet normal 0.0 0.0 1.0
  outer loop
    vertex 0.943754426135535 0.18574068199063778 0.125912
    vertex 1.486501066055515 0.0 0.125912
    vertex 0.9587343523371205 0.20526290189983276 0.125912
  endloop
endfacet
facet normal 0.0 0.0 1.0
  outer loop
    vertex 0.9587343523371205 0.20526290189983276 0.125912
    vertex 1.486501066055515 0.0 0.125912
    vertex 0.9681511276159569 0.22799700849181942 0.125912
  endloop
endfacet
facet normal 0.0 0.0 1.0
  outer loop
    vertex 0.9681511276159569 0.22799700849181942 0.125912
    vertex 1.486501066055515 0.0 0.125912
    vertex 0.9713630142987486 0.2523937099722415 0.125912
  endloop
endfacet
facet normal 0.0 0.0 1.0
  outer loop
    vertex 0.9713630142987486 0.2523937099722415 0.125912
    vertex 1.486501066055515 0.0 0.125912
    vertex 1.356795080413631 0.20533977953074242 0.125912
  endloop
endfacet
facet normal 0.0 0.0 1.0
  outer loop
    vertex 0.9713630142987486 0.2523937099722415 0.125912
    vertex 1.356795080413631 0.20533977953074242 0.125912
    vertex 1.3473936653504128 0.22803680328186307 0.125912
  endloop
endfacet
facet normal 0.0 0.0 1.0
  outer loop
    vertex 0.9713630142987486 0.2523937099722415 0.125912
    vertex 1.3473936653504128 0.22803680328186307 0.125912
    vertex 1.3441870177511213 0.2523937099722415 0.125912
  endloop
endfacet
facet normal 0.0 0.0 1.0
  outer loop
    vertex 1.356795080413631 0.20533977953074242 0.125912
    vertex 1.486501066055515 0.0 0.125912
    vertex 1.3717505720407912 0.18584940337891326 0.125912
  endloop
endfacet
facet normal 0.0 0.0 1.0
  outer loop
    vertex 1.3717505720407912 0.18584940337891326 0.125912
    vertex 1.486501066055515 0.0 0.125912
    vertex 1.3912409481926202 0.17089391175175322 0.125912
  endloop
endfacet
facet normal 0.0 0.0 1.0
  outer loop
    vertex 1.3912409481926202 0.17089391175175322 0.125912
    vertex 1.486501066055515 0.0 0.125912
    vertex 1.4139379719437408 0.16149249668853483 0.125912
  endloop
endfacet
facet normal 0.0 0.0 1.0
  outer loop
    vertex 1.4139379719437408 0.16149249668853483 0.125912
    vertex 1.486501066055515 0.0 0.125912
    vertex 1.4382948786341194 0.1582858490892433 0.125912
  endloop
endfacet
facet normal 0.0 0.0 1.0
  outer loop
    vertex 1.4382948786341194 0.1582858490892433 0.125912
    vertex 1.486501066055515 0.0 0.125912
    vertex 1.4626517853244978 0.16149249668853477 0.125912
  endloop
endfacet
facet normal 0.0 0.0 1.0
  outer loop
    vertex 1.4626517853244978 0.16149249668853477 0.125912
    vertex 1.486501066055515 0.0 0.125912
    vertex 1.4853488090756184 0.17089391175175317 0.125912
  endloop
endfacet
facet normal 0.0 0.0 1.0
  outer loop
    vertex 1.4853488090756184 0.17089391175175317 0.125912
    vertex 1.486501066055515 0.0 0.125912
    vertex 1.5048391852274476 0.18584940337891323 0.125912
  endloop
endfacet
facet normal 0.0 0.0 1.0
  outer loop
    vertex 1.5048391852274476 0.18584940337891323 0.125912
    vertex 1.486501066055515 0.0 0.125912
    vertex 1.5503879591486207 0.00841086903880639 0.125912
  endloop
endfacet
facet normal 0.0 0.0 1.0
  outer loop
    vertex 1.5048391852274476 0.18584940337891323 0.125912
    vertex 1.5503879591486207 0.00841086903880639 0.125912
    vertex 1.5197946768546076 0.20533977953074234 0.125912
  endloop
endfacet
facet normal 0.0 0.0 1.0
  outer loop
    vertex 1.5197946768546076 0.20533977953074234 0.125912
    vertex 1.5503879591486207 0.00841086903880639 0.125912
    vertex 1.529196091917826 0.22803680328186296 0.125912
  endloop
endfacet
facet normal 0.0 0.0 1.0
  outer loop
    vertex 1.529196091917826 0.22803680328186296 0.125912
    vertex 1.5503879591486207 0.00841086903880639 0.125912
    vertex 1.5324027395171176 0.2523937099722415 0.125912
  endloop
endfacet
facet normal 0.0 0.0 1.0
  outer loop
    vertex 0.18782530354693236 0.4852691309611935 0.125912
    vertex 0.22229184899078677 0.27681121632530353 0.125912
    vertex 0.25171219664003863 0.4936799999999999 0.125912
  endloop
endfacet
facet normal 0.0 0.0 1.0
  outer loop
    vertex 0.22229184899078677 0.27681121632530353 0.125912
    vertex 0.18782530354693236 0.4852691309611935 0.125912
    vertex 0.21907722329455004 0.2523937099722415 0.125912
  endloop
endfacet
facet normal 0.0 0.0 1.0
  outer loop
    vertex 0.25171219664003863 0.4936799999999999 0.125912
    vertex 0.22229184899078677 0.27681121632530353 0.125912
    vertex 0.23171665465071856 0.29956470997224155 0.125912
  endloop
endfacet
facet normal 0.0 0.0 1.0
  outer loop
    vertex 0.25171219664003863 0.4936799999999999 0.125912
    vertex 0.23171665465071856 0.29956470997224155 0.125912
    vertex 0.2467093553438488 0.31910357792294275 0.125912
  endloop
endfacet
facet normal 0.0 0.0 1.0
  outer loop
    vertex 0.25171219664003863 0.4936799999999999 0.125912
    vertex 0.2467093553438488 0.31910357792294275 0.125912
    vertex 0.26624822329455006 0.33409627861607305 0.125912
  endloop
endfacet
facet normal 0.0 0.0 1.0
  outer loop
    vertex 0.25171219664003863 0.4936799999999999 0.125912
    vertex 0.26624822329455006 0.33409627861607305 0.125912
    vertex 0.2890017169414881 0.3435210842760048 0.125912
  endloop
endfacet
facet normal 0.0 0.0 1.0
  outer loop
    vertex 0.25171219664003863 0.4936799999999999 0.125912
    vertex 0.2890017169414881 0.3435210842760048 0.125912
    vertex 0.3134192232945501 0.3467357099722415 0.125912
  endloop
endfacet
facet normal 0.0 0.0 1.0
  outer loop
    vertex 0.25171219664003863 0.4936799999999999 0.125912
    vertex 0.3134192232945501 0.3467357099722415 0.125912
    vertex 1.486501066055515 0.4936799999999999 0.125912
  endloop
endfacet
facet normal 0.0 0.0 1.0
  outer loop
    vertex 1.486501066055515 0.4936799999999999 0.125912
    vertex 0.3134192232945501 0.3467357099722415 0.125912
    vertex 0.33783672964761213 0.3435210842760048 0.125912
  endloop
endfacet
facet normal 0.0 0.0 1.0
  outer loop
    vertex 1.486501066055515 0.4936799999999999 0.125912
    vertex 0.33783672964761213 0.3435210842760048 0.125912
    vertex 0.3605902232945501 0.334096278616073 0.125912
  endloop
endfacet
facet normal 0.0 0.0 1.0
  outer loop
    vertex 1.486501066055515 0.4936799999999999 0.125912
    vertex 0.3605902232945501 0.334096278616073 0.125912
    vertex 0.3801290912452514 0.31910357792294275 0.125912
  endloop
endfacet
facet normal 0.0 0.0 1.0
  outer loop
    vertex 1.486501066055515 0.4936799999999999 0.125912
    vertex 0.3801290912452514 0.31910357792294275 0.125912
    vertex 0.3951217919383816 0.2995647099722415 0.125912
  endloop
endfacet
facet normal 0.0 0.0 1.0
  outer loop
    vertex 1.486501066055515 0.4936799999999999 0.125912
    vertex 0.3951217919383816 0.2995647099722415 0.125912
    vertex 0.4045465975983134 0.2768112163253035 0.125912
  endloop
endfacet
facet normal 0.0 0.0 1.0
  outer loop
    vertex 1.486501066055515 0.4936799999999999 0.125912
    vertex 0.4045465975983134 0.2768112163253035 0.125912
    vertex 0.4077612232945501 0.2523937099722415 0.125912
  endloop
endfacet
facet normal 0.0 0.0 1.0
  outer loop
    vertex 1.486501066055515 0.4936799999999999 0.125912
    vertex 0.4077612232945501 0.2523937099722415 0.125912
    vertex 0.8527046966735093 0.34344343943426714 0.125912
  endloop
endfacet
facet normal 0.0 0.0 1.0
  outer loop
    vertex 0.8527046966735093 0.34344343943426714 0.125912
    vertex 0.4077612232945501 0.2523937099722415 0.125912
    vertex 0.8299705900815226 0.33402666415543064 0.125912
  endloop
endfacet
facet normal 0.0 0.0 1.0
  outer loop
    vertex 0.8299705900815226 0.33402666415543064 0.125912
    vertex 0.4077612232945501 0.2523937099722415 0.125912
    vertex 0.8104483701723276 0.31904673795384514 0.125912
  endloop
endfacet
facet normal 0.0 0.0 1.0
  outer loop
    vertex 0.8104483701723276 0.31904673795384514 0.125912
    vertex 0.4077612232945501 0.2523937099722415 0.125912
    vertex 0.7954684439707421 0.2995245180446502 0.125912
  endloop
endfacet
facet normal 0.0 0.0 1.0
  outer loop
    vertex 0.7954684439707421 0.2995245180446502 0.125912
    vertex 0.4077612232945501 0.2523937099722415 0.125912
    vertex 0.7860516686919057 0.2767904114526635 0.125912
  endloop
endfacet
facet normal 0.0 0.0 1.0
  outer loop
    vertex 0.7860516686919057 0.2767904114526635 0.125912
    vertex 0.4077612232945501 0.2523937099722415 0.125912
    vertex 0.782839782009114 0.2523937099722415 0.125912
  endloop
endfacet
facet normal 0.0 0.0 1.0
  outer loop
    vertex 1.486501066055515 0.4936799999999999 0.125912
    vertex 0.8527046966735093 0.34344343943426714 0.125912
    vertex 0.8771013981539313 0.3466553261170588 0.125912
  endloop
endfacet
facet normal 0.0 0.0 1.0
  outer loop
    vertex 1.486501066055515 0.4936799999999999 0.125912
    vertex 0.8771013981539313 0.3466553261170588 0.125912
    vertex 0.9014980996343532 0.34344343943426714 0.125912
  endloop
endfacet
facet normal 0.0 0.0 1.0
  outer loop
    vertex 1.486501066055515 0.4936799999999999 0.125912
    vertex 0.9014980996343532 0.34344343943426714 0.125912
    vertex 0.92423220622634 0.33402666415543064 0.125912
  endloop
endfacet
facet normal 0.0 0.0 1.0
  outer loop
    vertex 1.486501066055515 0.4936799999999999 0.125912
    vertex 0.92423220622634 0.33402666415543064 0.125912
    vertex 0.943754426135535 0.31904673795384514 0.125912
  endloop
endfacet
facet normal 0.0 0.0 1.0
  outer loop
    vertex 1.486501066055515 0.4936799999999999 0.125912
    vertex 0.943754426135535 0.31904673795384514 0.125912
    vertex 0.9587343523371205 0.29952451804465013 0.125912
  endloop
endfacet
facet normal 0.0 0.0 1.0
  outer loop
    vertex 1.486501066055515 0.4936799999999999 0.125912
    vertex 0.9587343523371205 0.29952451804465013 0.125912
    vertex 0.9681511276159569 0.2767904114526634 0.125912
  endloop
endfacet
facet normal 0.0 0.0 1.0
  outer loop
    vertex 1.486501066055515 0.4936799999999999 0.125912
    vertex 0.9681511276159569 0.2767904114526634 0.125912
    vertex 0.9713630142987486 0.2523937099722415 0.125912
  endloop
endfacet
facet normal 0.0 0.0 1.0
  outer loop
    vertex 1.486501066055515 0.4936799999999999 0.125912
    vertex 0.9713630142987486 0.2523937099722415 0.125912
    vertex 1.3567950804136313 0.2994476404137406 0.125912
  endloop
endfacet
facet normal 0.0 0.0 1.0
  outer loop
    vertex 1.3567950804136313 0.2994476404137406 0.125912
    vertex 0.9713630142987486 0.2523937099722415 0.125912
    vertex 1.3473936653504128 0.27675061666261996 0.125912
  endloop
endfacet
facet normal 0.0 0.0 1.0
  outer loop
    vertex 1.3473936653504128 0.27675061666261996 0.125912
    vertex 0.9713630142987486 0.2523937099722415 0.125912
    vertex 1.3441870177511213 0.2523937099722415 0.125912
  endloop
endfacet
facet normal 0.0 0.0 1.0
  outer loop
    vertex 1.486501066055515 0.4936799999999999 0.125912
    vertex 1.3567950804136313 0.2994476404137406 0.125912
    vertex 1.3717505720407912 0.31893801656556975 0.125912
  endloop
endfacet
facet normal 0.0 0.0 1.0
  outer loop
    vertex 1.486501066055515 0.4936799999999999 0.125912
    vertex 1.3717505720407912 0.31893801656556975 0.125912
    vertex 1.3912409481926205 0.3338935081927297 0.125912
  endloop
endfacet
facet normal 0.0 0.0 1.0
  outer loop
    vertex 1.486501066055515 0.4936799999999999 0.125912
    vertex 1.3912409481926205 0.3338935081927297 0.125912
    vertex 1.413937971943741 0.3432949232559482 0.125912
  endloop
endfacet
facet normal 0.0 0.0 1.0
  outer loop
    vertex 1.486501066055515 0.4936799999999999 0.125912
    vertex 1.413937971943741 0.3432949232559482 0.125912
    vertex 1.4382948786341194 0.34650157085523964 0.125912
  endloop
endfacet
facet normal 0.0 0.0 1.0
  outer loop
    vertex 1.486501066055515 0.4936799999999999 0.125912
    vertex 1.4382948786341194 0.34650157085523964 0.125912
    vertex 1.4626517853244978 0.3432949232559481 0.125912
  endloop
endfacet
facet normal 0.0 0.0 1.0
  outer loop
    vertex 1.486501066055515 0.4936799999999999 0.125912
    vertex 1.4626517853244978 0.3432949232559481 0.125912
    vertex 1.4853488090756186 0.3338935081927297 0.125912
  endloop
endfacet
facet normal 0.0 0.0 1.0
  outer loop
    vertex 1.486501066055515 0.4936799999999999 0.125912
    vertex 1.4853488090756186 0.3338935081927297 0.125912
    vertex 1.5048391852274476 0.3189380165655697 0.125912
  endloop
endfacet
facet normal 0.0 0.0 1.0
  outer loop
    vertex 1.486501066055515 0.4936799999999999 0.125912
    vertex 1.5048391852274476 0.3189380165655697 0.125912
    vertex 1.5503879591486207 0.4852691309611935 0.125912
  endloop
endfacet
facet normal 0.0 0.0 1.0
  outer loop
    vertex 1.5503879591486207 0.4852691309611935 0.125912
    vertex 1.5048391852274476 0.3189380165655697 0.125912
    vertex 1.5197946768546076 0.29944764041374056 0.125912
  endloop
endfacet
facet normal 0.0 0.0 1.0
  outer loop
    vertex 1.5503879591486207 0.4852691309611935 0.125912
    vertex 1.5197946768546076 0.29944764041374056 0.125912
    vertex 1.529196091917826 0.2767506166626199 0.125912
  endloop
endfacet
facet normal 0.0 0.0 1.0
  outer loop
    vertex 1.5503879591486207 0.4852691309611935 0.125912
    vertex 1.529196091917826 0.2767506166626199 0.125912
    vertex 1.5324027395171176 0.2523937099722415 0.125912
  endloop
endfacet
facet normal 0.0 0.0 1.0
  outer loop
    vertex 1.5503879591486207 0.4852691309611935 0.125912
    vertex 1.5324027395171176 0.2523937099722415 0.125912
    vertex 1.5503879591486207 0.00841086903880639 0.125912
  endloop
endfacet
facet normal 0.0 0.0 1.0
  outer loop
    vertex 1.5503879591486207 0.4852691309611935 0.125912
    vertex 1.5503879591486207 0.00841086903880639 0.125912
    vertex 1.6099210660555148 0.03307028932984915 0.125912
  endloop
endfacet
facet normal 0.0 0.0 1.0
  outer loop
    vertex 1.5503879591486207 0.4852691309611935 0.125912
    vertex 1.6099210660555148 0.03307028932984915 0.125912
    vertex 1.6099210660555148 0.4606097106701508 0.125912
  endloop
endfacet
facet normal 0.0 0.0 1.0
  outer loop
    vertex 1.6099210660555148 0.4606097106701508 0.125912
    vertex 1.6099210660555148 0.03307028932984915 0.125912
    vertex 1.661043303923602 0.07229776213191261 0.125912
  endloop
endfacet
facet normal 0.0 0.0 1.0
  outer loop
    vertex 1.6099210660555148 0.4606097106701508 0.125912
    vertex 1.661043303923602 0.07229776213191261 0.125912
    vertex 1.661043303923602 0.4213822378680874 0.125912
  endloop
endfacet
facet normal 0.0 0.0 1.0
  outer loop
    vertex 1.661043303923602 0.4213822378680874 0.125912
    vertex 1.661043303923602 0.07229776213191261 0.125912
    vertex 1.7002707767256653 0.12342000000000004 0.125912
  endloop
endfacet
facet normal 0.0 0.0 1.0
  outer loop
    vertex 1.661043303923602 0.4213822378680874 0.125912
    vertex 1.7002707767256653 0.12342000000000004 0.125912
    vertex 1.7002707767256653 0.3702599999999999 0.125912
  endloop
endfacet
facet normal 0.0 0.0 1.0
  outer loop
    vertex 1.7002707767256653 0.3702599999999999 0.125912
    vertex 1.7002707767256653 0.12342000000000004 0.125912
    vertex 1.7249301970167084 0.18295310690689384 0.125912
  endloop
endfacet
facet normal 0.0 0.0 1.0
  outer loop
    vertex 1.7002707767256653 0.3702599999999999 0.125912
    vertex 1.7249301970167084 0.18295310690689384 0.125912
    vertex 1.7249301970167084 0.3107268930931062 0.125912
  endloop
endfacet
facet normal 0.0 0.0 1.0
  outer loop
    vertex 1.7249301970167084 0.3107268930931062 0.125912
    vertex 1.7249301970167084 0.18295310690689384 0.125912
    vertex 1.7333410660555146 0.24684000000000006 0.125912
  endloop
endfacet
facet normal -0.9914448613738104 -0.13052619222005188 -0.0
  outer loop
    vertex 0.007566999999999999 0.22637093629558772 0.125912
    vertex 0.013283065678845019 0.18295310690689368 0.0
    vertex 0.013283065678845019 0.18295310690689368 0.125912
  endloop
endfacet
facet normal -0.9659258262890682 -0.258819045102521 0.0
  outer loop
    vertex 0.013283065678845019 0.18295310690689368 0.0
    vertex 0.007566999999999999 0.22637093629558772 0.125912
    vertex 0.007566999999999999 0.22637093629558772 0.0
  endloop
endfacet
facet normal -1.0 -6.237776926952833e-16 0.0
  outer loop
    vertex 0.004872196640038615 0.24683999999999984 0.125912
    vertex 0.007566999999999999 0.22637093629558772 0.0
    vertex 0.007566999999999999 0.22637093629558772 0.125912
  endloop
endfacet
facet normal -0.9914448613738104 -0.13052619222005235 -0.0
  outer loop
    vertex 0.007566999999999999 0.22637093629558772 0.0
    vertex 0.004872196640038615 0.24683999999999984 0.125912
    vertex 0.004872196640038615 0.24683999999999984 0.0
  endloop
endfacet
facet normal -0.9914448613738106 0.13052619222005113 0.0
  outer loop
    vertex 0.007566999999999999 0.26730906370441215 0.125912
    vertex 0.004872196640038615 0.24683999999999984 0.0
    vertex 0.004872196640038615 0.24683999999999984 0.125912
  endloop
endfacet
facet normal -1.0 -6.237776926952833e-16 0.0
  outer loop
    vertex 0.004872196640038615 0.24683999999999984 0.0
    vertex 0.007566999999999999 0.26730906370441215 0.125912
    vertex 0.007566999999999999 0.26730906370441215 0.0
  endloop
endfacet
facet normal -0.9659258262890682 0.2588190451025206 0.0
  outer loop
    vertex 0.013283065678844963 0.3107268930931061 0.125912
    vertex 0.007566999999999999 0.26730906370441215 0.0
    vertex 0.007566999999999999 0.26730906370441215 0.125912
  endloop
endfacet
facet normal -0.9914448613738105 0.13052619222005096 0.0
  outer loop
    vertex 0.007566999999999999 0.26730906370441215 0.0
    vertex 0.013283065678844963 0.3107268930931061 0.125912
    vertex 0.013283065678844963 0.3107268930931061 0.0
  endloop
endfacet
facet normal -0.8660254037844388 0.49999999999999967 0.0
  outer loop
    vertex 0.03794248596988775 0.3702599999999998 0.125912
    vertex 0.013283065678844963 0.3107268930931061 0.0
    vertex 0.013283065678844963 0.3107268930931061 0.125912
  endloop
endfacet
facet normal -0.9659258262890682 0.2588190451025206 0.0
  outer loop
    vertex 0.013283065678844963 0.3107268930931061 0.0
    vertex 0.03794248596988775 0.3702599999999998 0.125912
    vertex 0.03794248596988775 0.3702599999999998 0.0
  endloop
endfacet
facet normal -0.7071067811865481 0.7071067811865468 0.0
  outer loop
    vertex 0.07716995877195115 0.42138223786808726 0.125912
    vertex 0.03794248596988775 0.3702599999999998 0.0
    vertex 0.03794248596988775 0.3702599999999998 0.125912
  endloop
endfacet
facet normal -0.8660254037844388 0.49999999999999967 0.0
  outer loop
    vertex 0.03794248596988775 0.3702599999999998 0.0
    vertex 0.07716995877195115 0.42138223786808726 0.125912
    vertex 0.07716995877195115 0.42138223786808726 0.0
  endloop
endfacet
facet normal -0.7071067811865481 0.7071067811865468 0.0
  outer loop
    vertex 0.07716995877195115 0.42138223786808726 0.125912
    vertex 0.12829219664003855 0.4606097106701508 0.0
    vertex 0.07716995877195115 0.42138223786808726 0.0
  endloop
endfacet
facet normal -0.49999999999999994 0.8660254037844387 0.0
  outer loop
    vertex 0.12829219664003855 0.4606097106701508 0.0
    vertex 0.07716995877195115 0.42138223786808726 0.125912
    vertex 0.12829219664003855 0.4606097106701508 0.125912
  endloop
endfacet
facet normal -0.49999999999999994 0.8660254037844387 0.0
  outer loop
    vertex 0.12829219664003855 0.4606097106701508 0.125912
    vertex 0.18782530354693236 0.4852691309611935 0.0
    vertex 0.12829219664003855 0.4606097106701508 0.0
  endloop
endfacet
facet normal -0.25881904510252035 0.9659258262890684 0.0
  outer loop
    vertex 0.18782530354693236 0.4852691309611935 0.0
    vertex 0.12829219664003855 0.4606097106701508 0.125912
    vertex 0.18782530354693236 0.4852691309611935 0.125912
  endloop
endfacet
facet normal -0.25881904510252035 0.9659258262890684 0.0
  outer loop
    vertex 0.18782530354693236 0.4852691309611935 0.125912
    vertex 0.25171219664003863 0.4936799999999999 0.0
    vertex 0.18782530354693236 0.4852691309611935 0.0
  endloop
endfacet
facet normal -0.1305261922200516 0.9914448613738104 0.0
  outer loop
    vertex 0.25171219664003863 0.4936799999999999 0.0
    vertex 0.18782530354693236 0.4852691309611935 0.125912
    vertex 0.25171219664003863 0.4936799999999999 0.125912
  endloop
endfacet
facet normal -0.0 1.0 0.0
  outer loop
    vertex 0.25171219664003863 0.4936799999999999 0.125912
    vertex 1.486501066055515 0.4936799999999999 0.0
    vertex 0.25171219664003863 0.4936799999999999 0.0
  endloop
endfacet
facet normal -0.0 1.0 0.0
  outer loop
    vertex 1.486501066055515 0.4936799999999999 0.0
    vertex 0.25171219664003863 0.4936799999999999 0.125912
    vertex 1.486501066055515 0.4936799999999999 0.125912
  endloop
endfacet
facet normal 0.13052619222005254 0.9914448613738104 0.0
  outer loop
    vertex 1.486501066055515 0.4936799999999999 0.125912
    vertex 1.5503879591486207 0.4852691309611935 0.0
    vertex 1.486501066055515 0.4936799999999999 0.0
  endloop
endfacet
facet normal 0.25881904510252 0.9659258262890685 0.0
  outer loop
    vertex 1.5503879591486207 0.4852691309611935 0.0
    vertex 1.486501066055515 0.4936799999999999 0.125912
    vertex 1.5503879591486207 0.4852691309611935 0.125912
  endloop
endfacet
facet normal 0.25881904510252 0.9659258262890685 0.0
  outer loop
    vertex 1.5503879591486207 0.4852691309611935 0.125912
    vertex 1.6099210660555148 0.4606097106701508 0.0
    vertex 1.5503879591486207 0.4852691309611935 0.0
  endloop
endfacet
facet normal 0.499999999999999 0.8660254037844393 0.0
  outer loop
    vertex 1.6099210660555148 0.4606097106701508 0.0
    vertex 1.5503879591486207 0.4852691309611935 0.125912
    vertex 1.6099210660555148 0.4606097106701508 0.125912
  endloop
endfacet
facet normal 0.499999999999999 0.8660254037844393 0.0
  outer loop
    vertex 1.6099210660555148 0.4606097106701508 0.125912
    vertex 1.661043303923602 0.4213822378680874 0.0
    vertex 1.6099210660555148 0.4606097106701508 0.0
  endloop
endfacet
facet normal 0.707106781186549 0.7071067811865462 0.0
  outer loop
    vertex 1.661043303923602 0.4213822378680874 0.0
    vertex 1.6099210660555148 0.4606097106701508 0.125912
    vertex 1.661043303923602 0.4213822378680874 0.125912
  endloop
endfacet
facet normal 0.707106781186549 0.7071067811865462 0.0
  outer loop
    vertex 1.661043303923602 0.4213822378680874 0.0
    vertex 1.7002707767256653 0.3702599999999999 0.125912
    vertex 1.7002707767256653 0.3702599999999999 0.0
  endloop
endfacet
facet normal 0.8660254037844385 0.5000000000000002 0.0
  outer loop
    vertex 1.7002707767256653 0.3702599999999999 0.125912
    vertex 1.661043303923602 0.4213822378680874 0.0
    vertex 1.661043303923602 0.4213822378680874 0.125912
  endloop
endfacet
facet normal 0.8660254037844385 0.5000000000000002 0.0
  outer loop
    vertex 1.7002707767256653 0.3702599999999999 0.0
    vertex 1.7249301970167084 0.3107268930931062 0.125912
    vertex 1.7249301970167084 0.3107268930931062 0.0
  endloop
endfacet
facet normal 0.9659258262890679 0.2588190451025222 0.0
  outer loop
    vertex 1.7249301970167084 0.3107268930931062 0.125912
    vertex 1.7002707767256653 0.3702599999999999 0.0
    vertex 1.7002707767256653 0.3702599999999999 0.125912
  endloop
endfacet
facet normal 0.9659258262890679 0.2588190451025222 0.0
  outer loop
    vertex 1.7249301970167084 0.3107268930931062 0.0
    vertex 1.7333410660555146 0.24684000000000006 0.125912
    vertex 1.7333410660555146 0.24684000000000006 0.0
  endloop
endfacet
facet normal 1.0 9.802220885211595e-17 0.0
  outer loop
    vertex 1.7333410660555146 0.24684000000000006 0.125912
    vertex 1.7249301970167084 0.3107268930931062 0.0
    vertex 1.7249301970167084 0.3107268930931062 0.125912
  endloop
endfacet
facet normal 1.0 9.802220885211595e-17 0.0
  outer loop
    vertex 1.7333410660555146 0.24684000000000006 0.0
    vertex 1.7249301970167084 0.18295310690689384 0.125912
    vertex 1.7249301970167084 0.18295310690689384 0.0
  endloop
endfacet
facet normal 0.9659258262890681 -0.2588190451025219 0.0
  outer loop
    vertex 1.7249301970167084 0.18295310690689384 0.125912
    vertex 1.7333410660555146 0.24684000000000006 0.0
    vertex 1.7333410660555146 0.24684000000000006 0.125912
  endloop
endfacet
facet normal 0.9659258262890681 -0.2588190451025219 0.0
  outer loop
    vertex 1.7249301970167084 0.18295310690689384 0.0
    vertex 1.7002707767256653 0.12342000000000004 0.125912
    vertex 1.7002707767256653 0.12342000000000004 0.0
  endloop
endfacet
facet normal 0.8660254037844387 -0.5000000000000001 0.0
  outer loop
    vertex 1.7002707767256653 0.12342000000000004 0.125912
    vertex 1.7249301970167084 0.18295310690689384 0.0
    vertex 1.7249301970167084 0.18295310690689384 0.125912
  endloop
endfacet
facet normal 0.8660254037844387 -0.5000000000000001 0.0
  outer loop
    vertex 1.7002707767256653 0.12342000000000004 0.0
    vertex 1.661043303923602 0.07229776213191261 0.125912
    vertex 1.661043303923602 0.07229776213191261 0.0
  endloop
endfacet
facet normal 0.707106781186549 -0.707106781186546 0.0
  outer loop
    vertex 1.661043303923602 0.07229776213191261 0.125912
    vertex 1.7002707767256653 0.12342000000000004 0.0
    vertex 1.7002707767256653 0.12342000000000004 0.125912
  endloop
endfacet
facet normal 0.707106781186549 -0.707106781186546 0.0
  outer loop
    vertex 1.661043303923602 0.07229776213191261 0.125912
    vertex 1.6099210660555148 0.03307028932984915 0.0
    vertex 1.661043303923602 0.07229776213191261 0.0
  endloop
endfacet
facet normal 0.49999999999999944 -0.8660254037844389 0.0
  outer loop
    vertex 1.6099210660555148 0.03307028932984915 0.0
    vertex 1.661043303923602 0.07229776213191261 0.125912
    vertex 1.6099210660555148 0.03307028932984915 0.125912
  endloop
endfacet
facet normal 0.49999999999999944 -0.8660254037844389 0.0
  outer loop
    vertex 1.6099210660555148 0.03307028932984915 0.125912
    vertex 1.5503879591486207 0.00841086903880639 0.0
    vertex 1.6099210660555148 0.03307028932984915 0.0
  endloop
endfacet
facet normal 0.2588190451025203 -0.9659258262890685 0.0
  outer loop
    vertex 1.5503879591486207 0.00841086903880639 0.0
    vertex 1.6099210660555148 0.03307028932984915 0.125912
    vertex 1.5503879591486207 0.00841086903880639 0.125912
  endloop
endfacet
facet normal -0.1305261922200517 -0.9914448613738105 -0.0
  outer loop
    vertex 0.2517121966400386 0.0 0.125912
    vertex 0.18782530354693236 0.00841086903880639 0.0
    vertex 0.2517121966400386 0.0 0.0
  endloop
endfacet
facet normal -0.25881904510252063 -0.9659258262890682 0.0
  outer loop
    vertex 0.18782530354693236 0.00841086903880639 0.0
    vertex 0.2517121966400386 0.0 0.125912
    vertex 0.18782530354693236 0.00841086903880639 0.125912
  endloop
endfacet
facet normal -0.25881904510252063 -0.9659258262890682 0.0
  outer loop
    vertex 0.18782530354693236 0.00841086903880639 0.125912
    vertex 0.1282921966400386 0.03307028932984915 0.0
    vertex 0.18782530354693236 0.00841086903880639 0.0
  endloop
endfacet
facet normal -0.4999999999999999 -0.8660254037844388 0.0
  outer loop
    vertex 0.1282921966400386 0.03307028932984915 0.0
    vertex 0.18782530354693236 0.00841086903880639 0.125912
    vertex 0.1282921966400386 0.03307028932984915 0.125912
  endloop
endfacet
facet normal -0.4999999999999999 -0.8660254037844388 0.0
  outer loop
    vertex 0.1282921966400386 0.03307028932984915 0.125912
    vertex 0.07716995877195124 0.07229776213191255 0.0
    vertex 0.1282921966400386 0.03307028932984915 0.0
  endloop
endfacet
facet normal -0.7071067811865475 -0.7071067811865477 0.0
  outer loop
    vertex 0.07716995877195124 0.07229776213191255 0.0
    vertex 0.1282921966400386 0.03307028932984915 0.125912
    vertex 0.07716995877195124 0.07229776213191255 0.125912
  endloop
endfacet
facet normal -0.8660254037844386 -0.5 0.0
  outer loop
    vertex 0.03794248596988781 0.12341999999999993 0.125912
    vertex 0.07716995877195124 0.07229776213191255 0.0
    vertex 0.07716995877195124 0.07229776213191255 0.125912
  endloop
endfacet
facet normal -0.7071067811865475 -0.7071067811865477 0.0
  outer loop
    vertex 0.07716995877195124 0.07229776213191255 0.0
    vertex 0.03794248596988781 0.12341999999999993 0.125912
    vertex 0.03794248596988781 0.12341999999999993 0.0
  endloop
endfacet
facet normal -0.9659258262890682 -0.258819045102521 0.0
  outer loop
    vertex 0.013283065678845019 0.18295310690689368 0.125912
    vertex 0.03794248596988781 0.12341999999999993 0.0
    vertex 0.03794248596988781 0.12341999999999993 0.125912
  endloop
endfacet
facet normal -0.8660254037844386 -0.5 0.0
  outer loop
    vertex 0.03794248596988781 0.12341999999999993 0.0
    vertex 0.013283065678845019 0.18295310690689368 0.125912
    vertex 0.013283065678845019 0.18295310690689368 0.0
  endloop
endfacet
facet normal 0.25881904510252 -0.9659258262890684 0.0
  outer loop
    vertex 0.2890017169414881 0.3435210842760048 0.125912
    vertex 0.26624822329455006 0.33409627861607305 0.0
    vertex 0.2890017169414881 0.3435210842760048 0.0
  endloop
endfacet
facet normal 0.5000000000000004 -0.8660254037844383 0.0
  outer loop
    vertex 0.26624822329455006 0.33409627861607305 0.0
    vertex 0.2890017169414881 0.3435210842760048 0.125912
    vertex 0.26624822329455006 0.33409627861607305 0.125912
  endloop
endfacet
facet normal 0.5000000000000004 -0.8660254037844383 0.0
  outer loop
    vertex 0.26624822329455006 0.33409627861607305 0.125912
    vertex 0.2467093553438488 0.31910357792294275 0.0
    vertex 0.26624822329455006 0.33409627861607305 0.0
  endloop
endfacet
facet normal 0.7071067811865477 -0.7071067811865475 0.0
  outer loop
    vertex 0.2467093553438488 0.31910357792294275 0.0
    vertex 0.26624822329455006 0.33409627861607305 0.125912
    vertex 0.2467093553438488 0.31910357792294275 0.125912
  endloop
endfacet
facet normal 0.7071067811865477 -0.7071067811865475 0.0
  outer loop
    vertex 0.2467093553438488 0.31910357792294275 0.0
    vertex 0.23171665465071856 0.29956470997224155 0.125912
    vertex 0.23171665465071856 0.29956470997224155 0.0
  endloop
endfacet
facet normal 0.8660254037844382 -0.5000000000000007 0.0
  outer loop
    vertex 0.23171665465071856 0.29956470997224155 0.125912
    vertex 0.2467093553438488 0.31910357792294275 0.0
    vertex 0.2467093553438488 0.31910357792294275 0.125912
  endloop
endfacet
facet normal 0.8660254037844382 -0.5000000000000007 0.0
  outer loop
    vertex 0.23171665465071856 0.29956470997224155 0.0
    vertex 0.22229184899078677 0.27681121632530353 0.125912
    vertex 0.22229184899078677 0.27681121632530353 0.0
  endloop
endfacet
facet normal 0.9659258262890682 -0.2588190451025209 0.0
  outer loop
    vertex 0.22229184899078677 0.27681121632530353 0.125912
    vertex 0.23171665465071856 0.29956470997224155 0.0
    vertex 0.23171665465071856 0.29956470997224155 0.125912
  endloop
endfacet
facet normal 0.9659258262890682 -0.2588190451025209 0.0
  outer loop
    vertex 0.22229184899078677 0.27681121632530353 0.0
    vertex 0.21907722329455004 0.2523937099722415 0.125912
    vertex 0.21907722329455004 0.2523937099722415 0.0
  endloop
endfacet
facet normal 1.0 -3.297110661389355e-16 0.0
  outer loop
    vertex 0.21907722329455004 0.2523937099722415 0.125912
    vertex 0.22229184899078677 0.27681121632530353 0.0
    vertex 0.22229184899078677 0.27681121632530353 0.125912
  endloop
endfacet
facet normal 1.0 -3.297110661389355e-16 0.0
  outer loop
    vertex 0.21907722329455004 0.2523937099722415 0.0
    vertex 0.22229184899078674 0.2279762036191795 0.125912
    vertex 0.22229184899078674 0.2279762036191795 0.0
  endloop
endfacet
facet normal 0.9659258262890684 0.25881904510252013 0.0
  outer loop
    vertex 0.22229184899078674 0.2279762036191795 0.125912
    vertex 0.21907722329455004 0.2523937099722415 0.0
    vertex 0.21907722329455004 0.2523937099722415 0.125912
  endloop
endfacet
facet normal 0.9659258262890684 0.25881904510252013 0.0
  outer loop
    vertex 0.22229184899078674 0.2279762036191795 0.0
    vertex 0.2317166546507185 0.20522270997224148 0.125912
    vertex 0.2317166546507185 0.20522270997224148 0.0
  endloop
endfacet
facet normal 0.8660254037844389 0.49999999999999944 0.0
  outer loop
    vertex 0.2317166546507185 0.20522270997224148 0.125912
    vertex 0.22229184899078674 0.2279762036191795 0.0
    vertex 0.22229184899078674 0.2279762036191795 0.125912
  endloop
endfacet
facet normal 0.8660254037844389 0.49999999999999944 0.0
  outer loop
    vertex 0.2317166546507185 0.20522270997224148 0.0
    vertex 0.24670935534384875 0.1856838420215402 0.125912
    vertex 0.24670935534384875 0.1856838420215402 0.0
  endloop
endfacet
facet normal 0.7071067811865477 0.7071067811865472 0.0
  outer loop
    vertex 0.24670935534384875 0.1856838420215402 0.125912
    vertex 0.2317166546507185 0.20522270997224148 0.0
    vertex 0.2317166546507185 0.20522270997224148 0.125912
  endloop
endfacet
facet normal 0.7071067811865477 0.7071067811865472 0.0
  outer loop
    vertex 0.24670935534384875 0.1856838420215402 0.125912
    vertex 0.26624822329455 0.17069114132840996 0.0
    vertex 0.24670935534384875 0.1856838420215402 0.0
  endloop
endfacet
facet normal 0.5000000000000006 0.8660254037844384 0.0
  outer loop
    vertex 0.26624822329455 0.17069114132840996 0.0
    vertex 0.24670935534384875 0.1856838420215402 0.125912
    vertex 0.26624822329455 0.17069114132840996 0.125912
  endloop
endfacet
facet normal 0.5000000000000006 0.8660254037844384 0.0
  outer loop
    vertex 0.26624822329455 0.17069114132840996 0.125912
    vertex 0.28900171694148796 0.16126633566847817 0.0
    vertex 0.26624822329455 0.17069114132840996 0.0
  endloop
endfacet
facet normal 0.2588190451025212 0.9659258262890682 0.0
  outer loop
    vertex 0.28900171694148796 0.16126633566847817 0.0
    vertex 0.26624822329455 0.17069114132840996 0.125912
    vertex 0.28900171694148796 0.16126633566847817 0.125912
  endloop
endfacet
facet normal 0.2588190451025212 0.9659258262890682 0.0
  outer loop
    vertex 0.28900171694148796 0.16126633566847817 0.125912
    vertex 0.3134192232945501 0.15805170997224144 0.0
    vertex 0.28900171694148796 0.16126633566847817 0.0
  endloop
endfacet
facet normal 2.6733329686940717e-16 1.0 0.0
  outer loop
    vertex 0.3134192232945501 0.15805170997224144 0.0
    vertex 0.28900171694148796 0.16126633566847817 0.125912
    vertex 0.3134192232945501 0.15805170997224144 0.125912
  endloop
endfacet
facet normal 2.6733329686940717e-16 1.0 0.0
  outer loop
    vertex 0.3134192232945501 0.15805170997224144 0.125912
    vertex 0.3378367296476121 0.16126633566847814 0.0
    vertex 0.3134192232945501 0.15805170997224144 0.0
  endloop
endfacet
facet normal -0.25881904510252046 0.9659258262890684 0.0
  outer loop
    vertex 0.3378367296476121 0.16126633566847814 0.0
    vertex 0.3134192232945501 0.15805170997224144 0.125912
    vertex 0.3378367296476121 0.16126633566847814 0.125912
  endloop
endfacet
facet normal -0.25881904510252046 0.9659258262890684 0.0
  outer loop
    vertex 0.3378367296476121 0.16126633566847814 0.125912
    vertex 0.36059022329455004 0.1706911413284099 0.0
    vertex 0.3378367296476121 0.16126633566847814 0.0
  endloop
endfacet
facet normal -0.49999999999999994 0.8660254037844387 0.0
  outer loop
    vertex 0.36059022329455004 0.1706911413284099 0.0
    vertex 0.3378367296476121 0.16126633566847814 0.125912
    vertex 0.36059022329455004 0.1706911413284099 0.125912
  endloop
endfacet
facet normal -0.49999999999999994 0.8660254037844387 0.0
  outer loop
    vertex 0.36059022329455004 0.1706911413284099 0.125912
    vertex 0.38012909124525135 0.18568384202154017 0.0
    vertex 0.36059022329455004 0.1706911413284099 0.0
  endloop
endfacet
facet normal -0.7071067811865471 0.707106781186548 0.0
  outer loop
    vertex 0.38012909124525135 0.18568384202154017 0.0
    vertex 0.36059022329455004 0.1706911413284099 0.125912
    vertex 0.38012909124525135 0.18568384202154017 0.125912
  endloop
endfacet
facet normal -0.8660254037844384 0.5000000000000004 0.0
  outer loop
    vertex 0.3951217919383816 0.2052227099722414 0.125912
    vertex 0.38012909124525135 0.18568384202154017 0.0
    vertex 0.38012909124525135 0.18568384202154017 0.125912
  endloop
endfacet
facet normal -0.7071067811865471 0.707106781186548 0.0
  outer loop
    vertex 0.38012909124525135 0.18568384202154017 0.0
    vertex 0.3951217919383816 0.2052227099722414 0.125912
    vertex 0.3951217919383816 0.2052227099722414 0.0
  endloop
endfacet
facet normal -0.9659258262890682 0.2588190451025212 0.0
  outer loop
    vertex 0.40454659759831335 0.22797620361917936 0.125912
    vertex 0.3951217919383816 0.2052227099722414 0.0
    vertex 0.3951217919383816 0.2052227099722414 0.125912
  endloop
endfacet
facet normal -0.8660254037844384 0.5000000000000004 0.0
  outer loop
    vertex 0.3951217919383816 0.2052227099722414 0.0
    vertex 0.40454659759831335 0.22797620361917936 0.125912
    vertex 0.40454659759831335 0.22797620361917936 0.0
  endloop
endfacet
facet normal -1.0 8.287332202951622e-16 0.0
  outer loop
    vertex 0.4077612232945501 0.2523937099722415 0.125912
    vertex 0.40454659759831335 0.22797620361917936 0.0
    vertex 0.40454659759831335 0.22797620361917936 0.125912
  endloop
endfacet
facet normal -0.9659258262890682 0.2588190451025212 0.0
  outer loop
    vertex 0.40454659759831335 0.22797620361917936 0.0
    vertex 0.4077612232945501 0.2523937099722415 0.125912
    vertex 0.4077612232945501 0.2523937099722415 0.0
  endloop
endfacet
facet normal -0.9659258262890681 -0.2588190451025211 0.0
  outer loop
    vertex 0.4045465975983134 0.2768112163253035 0.125912
    vertex 0.4077612232945501 0.2523937099722415 0.0
    vertex 0.4077612232945501 0.2523937099722415 0.125912
  endloop
endfacet
facet normal -1.0 8.287332202951622e-16 0.0
  outer loop
    vertex 0.4077612232945501 0.2523937099722415 0.0
    vertex 0.4045465975983134 0.2768112163253035 0.125912
    vertex 0.4045465975983134 0.2768112163253035 0.0
  endloop
endfacet
facet normal -0.8660254037844388 -0.4999999999999999 0.0
  outer loop
    vertex 0.3951217919383816 0.2995647099722415 0.125912
    vertex 0.4045465975983134 0.2768112163253035 0.0
    vertex 0.4045465975983134 0.2768112163253035 0.125912
  endloop
endfacet
facet normal -0.9659258262890681 -0.2588190451025211 0.0
  outer loop
    vertex 0.4045465975983134 0.2768112163253035 0.0
    vertex 0.3951217919383816 0.2995647099722415 0.125912
    vertex 0.3951217919383816 0.2995647099722415 0.0
  endloop
endfacet
facet normal -0.7071067811865477 -0.7071067811865472 0.0
  outer loop
    vertex 0.3801290912452514 0.31910357792294275 0.125912
    vertex 0.3951217919383816 0.2995647099722415 0.0
    vertex 0.3951217919383816 0.2995647099722415 0.125912
  endloop
endfacet
facet normal -0.8660254037844388 -0.4999999999999999 0.0
  outer loop
    vertex 0.3951217919383816 0.2995647099722415 0.0
    vertex 0.3801290912452514 0.31910357792294275 0.125912
    vertex 0.3801290912452514 0.31910357792294275 0.0
  endloop
endfacet
facet normal -0.7071067811865477 -0.7071067811865472 0.0
  outer loop
    vertex 0.3801290912452514 0.31910357792294275 0.125912
    vertex 0.3605902232945501 0.334096278616073 0.0
    vertex 0.3801290912452514 0.31910357792294275 0.0
  endloop
endfacet
facet normal -0.5000000000000004 -0.8660254037844384 0.0
  outer loop
    vertex 0.3605902232945501 0.334096278616073 0.0
    vertex 0.3801290912452514 0.31910357792294275 0.125912
    vertex 0.3605902232945501 0.334096278616073 0.125912
  endloop
endfacet
facet normal -0.5000000000000004 -0.8660254037844384 0.0
  outer loop
    vertex 0.3605902232945501 0.334096278616073 0.125912
    vertex 0.33783672964761213 0.3435210842760048 0.0
    vertex 0.3605902232945501 0.334096278616073 0.0
  endloop
endfacet
facet normal -0.25881904510252135 -0.9659258262890681 0.0
  outer loop
    vertex 0.33783672964761213 0.3435210842760048 0.0
    vertex 0.3605902232945501 0.334096278616073 0.125912
    vertex 0.33783672964761213 0.3435210842760048 0.125912
  endloop
endfacet
facet normal -0.25881904510252135 -0.9659258262890681 0.0
  outer loop
    vertex 0.33783672964761213 0.3435210842760048 0.125912
    vertex 0.3134192232945501 0.3467357099722415 0.0
    vertex 0.33783672964761213 0.3435210842760048 0.0
  endloop
endfacet
facet normal 1.4257775833035045e-16 -1.0 0.0
  outer loop
    vertex 0.3134192232945501 0.3467357099722415 0.0
    vertex 0.33783672964761213 0.3435210842760048 0.125912
    vertex 0.3134192232945501 0.3467357099722415 0.125912
  endloop
endfacet
facet normal 1.4257775833035045e-16 -1.0 0.0
  outer loop
    vertex 0.3134192232945501 0.3467357099722415 0.125912
    vertex 0.2890017169414881 0.3435210842760048 0.0
    vertex 0.3134192232945501 0.3467357099722415 0.0
  endloop
endfacet
facet normal 0.25881904510252 -0.9659258262890684 0.0
  outer loop
    vertex 0.2890017169414881 0.3435210842760048 0.0
    vertex 0.3134192232945501 0.3467357099722415 0.125912
    vertex 0.2890017169414881 0.3435210842760048 0.125912
  endloop
endfacet
facet normal 0.9659258262890676 -0.25881904510252285 0.0
  outer loop
    vertex 1.3473936653504128 0.27675061666261996 0.0
    vertex 1.3441870177511213 0.2523937099722415 0.125912
    vertex 1.3441870177511213 0.2523937099722415 0.0
  endloop
endfacet
facet normal 1.0 2.227777473911727e-16 0.0
  outer loop
    vertex 1.3441870177511213 0.2523937099722415 0.125912
    vertex 1.3473936653504128 0.27675061666261996 0.0
    vertex 1.3473936653504128 0.27675061666261996 0.125912
  endloop
endfacet
facet normal 1.0 2.227777473911727e-16 0.0
  outer loop
    vertex 1.3441870177511213 0.2523937099722415 0.0
    vertex 1.3473936653504128 0.22803680328186307 0.125912
    vertex 1.3473936653504128 0.22803680328186307 0.0
  endloop
endfacet
facet normal 0.9659258262890688 0.2588190451025191 0.0
  outer loop
    vertex 1.3473936653504128 0.22803680328186307 0.125912
    vertex 1.3441870177511213 0.2523937099722415 0.0
    vertex 1.3441870177511213 0.2523937099722415 0.125912
  endloop
endfacet
facet normal 0.9659258262890688 0.2588190451025191 0.0
  outer loop
    vertex 1.3473936653504128 0.22803680328186307 0.0
    vertex 1.356795080413631 0.20533977953074242 0.125912
    vertex 1.356795080413631 0.20533977953074242 0.0
  endloop
endfacet
facet normal 0.8660254037844397 0.49999999999999817 0.0
  outer loop
    vertex 1.356795080413631 0.20533977953074242 0.125912
    vertex 1.3473936653504128 0.22803680328186307 0.0
    vertex 1.3473936653504128 0.22803680328186307 0.125912
  endloop
endfacet
facet normal 0.8660254037844397 0.49999999999999817 0.0
  outer loop
    vertex 1.356795080413631 0.20533977953074242 0.0
    vertex 1.3717505720407912 0.18584940337891326 0.125912
    vertex 1.3717505720407912 0.18584940337891326 0.0
  endloop
endfacet
facet normal 0.7071067811865476 0.7071067811865476 0.0
  outer loop
    vertex 1.3717505720407912 0.18584940337891326 0.125912
    vertex 1.356795080413631 0.20533977953074242 0.0
    vertex 1.356795080413631 0.20533977953074242 0.125912
  endloop
endfacet
facet normal 0.7071067811865476 0.7071067811865476 0.0
  outer loop
    vertex 1.3717505720407912 0.18584940337891326 0.125912
    vertex 1.3912409481926202 0.17089391175175322 0.0
    vertex 1.3717505720407912 0.18584940337891326 0.0
  endloop
endfacet
facet normal 0.5000000000000012 0.8660254037844378 0.0
  outer loop
    vertex 1.3912409481926202 0.17089391175175322 0.0
    vertex 1.3717505720407912 0.18584940337891326 0.125912
    vertex 1.3912409481926202 0.17089391175175322 0.125912
  endloop
endfacet
facet normal 0.5000000000000012 0.8660254037844378 0.0
  outer loop
    vertex 1.3912409481926202 0.17089391175175322 0.125912
    vertex 1.4139379719437408 0.16149249668853483 0.0
    vertex 1.3912409481926202 0.17089391175175322 0.0
  endloop
endfacet
facet normal 0.2588190451025209 0.9659258262890682 0.0
  outer loop
    vertex 1.4139379719437408 0.16149249668853483 0.0
    vertex 1.3912409481926202 0.17089391175175322 0.125912
    vertex 1.4139379719437408 0.16149249668853483 0.125912
  endloop
endfacet
facet normal 0.2588190451025209 0.9659258262890682 0.0
  outer loop
    vertex 1.4139379719437408 0.16149249668853483 0.125912
    vertex 1.4382948786341194 0.1582858490892433 0.0
    vertex 1.4139379719437408 0.16149249668853483 0.0
  endloop
endfacet
facet normal 5.346665937388143e-16 1.0 0.0
  outer loop
    vertex 1.4382948786341194 0.1582858490892433 0.0
    vertex 1.4139379719437408 0.16149249668853483 0.125912
    vertex 1.4382948786341194 0.1582858490892433 0.125912
  endloop
endfacet
facet normal 5.346665937388143e-16 1.0 0.0
  outer loop
    vertex 1.4382948786341194 0.1582858490892433 0.125912
    vertex 1.4626517853244978 0.16149249668853477 0.0
    vertex 1.4382948786341194 0.1582858490892433 0.0
  endloop
endfacet
facet normal -0.2588190451025204 0.9659258262890684 0.0
  outer loop
    vertex 1.4626517853244978 0.16149249668853477 0.0
    vertex 1.4382948786341194 0.1582858490892433 0.125912
    vertex 1.4626517853244978 0.16149249668853477 0.125912
  endloop
endfacet
facet normal -0.2588190451025204 0.9659258262890684 0.0
  outer loop
    vertex 1.4626517853244978 0.16149249668853477 0.125912
    vertex 1.4853488090756184 0.17089391175175317 0.0
    vertex 1.4626517853244978 0.16149249668853477 0.0
  endloop
endfacet
facet normal -0.49999999999999944 0.866025403784439 0.0
  outer loop
    vertex 1.4853488090756184 0.17089391175175317 0.0
    vertex 1.4626517853244978 0.16149249668853477 0.125912
    vertex 1.4853488090756184 0.17089391175175317 0.125912
  endloop
endfacet
facet normal -0.49999999999999944 0.866025403784439 0.0
  outer loop
    vertex 1.4853488090756184 0.17089391175175317 0.125912
    vertex 1.5048391852274476 0.18584940337891323 0.0
    vertex 1.4853488090756184 0.17089391175175317 0.0
  endloop
endfacet
facet normal -0.7071067811865478 0.7071067811865471 0.0
  outer loop
    vertex 1.5048391852274476 0.18584940337891323 0.0
    vertex 1.4853488090756184 0.17089391175175317 0.125912
    vertex 1.5048391852274476 0.18584940337891323 0.125912
  endloop
endfacet
facet normal -0.8660254037844389 0.49999999999999956 0.0
  outer loop
    vertex 1.5197946768546076 0.20533977953074234 0.125912
    vertex 1.5048391852274476 0.18584940337891323 0.0
    vertex 1.5048391852274476 0.18584940337891323 0.125912
  endloop
endfacet
facet normal -0.7071067811865478 0.7071067811865471 0.0
  outer loop
    vertex 1.5048391852274476 0.18584940337891323 0.0
    vertex 1.5197946768546076 0.20533977953074234 0.125912
    vertex 1.5197946768546076 0.20533977953074234 0.0
  endloop
endfacet
facet normal -0.9659258262890676 0.258819045102523 0.0
  outer loop
    vertex 1.529196091917826 0.22803680328186296 0.125912
    vertex 1.5197946768546076 0.20533977953074234 0.0
    vertex 1.5197946768546076 0.20533977953074234 0.125912
  endloop
endfacet
facet normal -0.8660254037844389 0.49999999999999956 0.0
  outer loop
    vertex 1.5197946768546076 0.20533977953074234 0.0
    vertex 1.529196091917826 0.22803680328186296 0.125912
    vertex 1.529196091917826 0.22803680328186296 0.0
  endloop
endfacet
facet normal -1.0 -2.227777473911727e-16 0.0
  outer loop
    vertex 1.5324027395171176 0.2523937099722415 0.125912
    vertex 1.529196091917826 0.22803680328186296 0.0
    vertex 1.529196091917826 0.22803680328186296 0.125912
  endloop
endfacet
facet normal -0.9659258262890676 0.258819045102523 0.0
  outer loop
    vertex 1.529196091917826 0.22803680328186296 0.0
    vertex 1.5324027395171176 0.2523937099722415 0.125912
    vertex 1.5324027395171176 0.2523937099722415 0.0
  endloop
endfacet
facet normal -0.9659258262890676 -0.25881904510252307 0.0
  outer loop
    vertex 1.529196091917826 0.2767506166626199 0.125912
    vertex 1.5324027395171176 0.2523937099722415 0.0
    vertex 1.5324027395171176 0.2523937099722415 0.125912
  endloop
endfacet
facet normal -1.0 -2.227777473911727e-16 0.0
  outer loop
    vertex 1.5324027395171176 0.2523937099722415 0.0
    vertex 1.529196091917826 0.2767506166626199 0.125912
    vertex 1.529196091917826 0.2767506166626199 0.0
  endloop
endfacet
facet normal -0.8660254037844392 -0.49999999999999906 0.0
  outer loop
    vertex 1.5197946768546076 0.29944764041374056 0.125912
    vertex 1.529196091917826 0.2767506166626199 0.0
    vertex 1.529196091917826 0.2767506166626199 0.125912
  endloop
endfacet
facet normal -0.9659258262890676 -0.25881904510252307 0.0
  outer loop
    vertex 1.529196091917826 0.2767506166626199 0.0
    vertex 1.5197946768546076 0.29944764041374056 0.125912
    vertex 1.5197946768546076 0.29944764041374056 0.0
  endloop
endfacet
facet normal -0.7071067811865497 -0.7071067811865454 0.0
  outer loop
    vertex 1.5048391852274476 0.3189380165655697 0.125912
    vertex 1.5197946768546076 0.29944764041374056 0.0
    vertex 1.5197946768546076 0.29944764041374056 0.125912
  endloop
endfacet
facet normal -0.8660254037844392 -0.49999999999999906 0.0
  outer loop
    vertex 1.5197946768546076 0.29944764041374056 0.0
    vertex 1.5048391852274476 0.3189380165655697 0.125912
    vertex 1.5048391852274476 0.3189380165655697 0.0
  endloop
endfacet
facet normal -0.7071067811865497 -0.7071067811865454 0.0
  outer loop
    vertex 1.5048391852274476 0.3189380165655697 0.125912
    vertex 1.4853488090756186 0.3338935081927297 0.0
    vertex 1.5048391852274476 0.3189380165655697 0.0
  endloop
endfacet
facet normal -0.49999999999999994 -0.8660254037844388 0.0
  outer loop
    vertex 1.4853488090756186 0.3338935081927297 0.0
    vertex 1.5048391852274476 0.3189380165655697 0.125912
    vertex 1.4853488090756186 0.3338935081927297 0.125912
  endloop
endfacet
facet normal -0.49999999999999994 -0.8660254037844388 0.0
  outer loop
    vertex 1.4853488090756186 0.3338935081927297 0.125912
    vertex 1.4626517853244978 0.3432949232559481 0.0
    vertex 1.4853488090756186 0.3338935081927297 0.0
  endloop
endfacet
facet normal -0.2588190451025198 -0.9659258262890685 0.0
  outer loop
    vertex 1.4626517853244978 0.3432949232559481 0.0
    vertex 1.4853488090756186 0.3338935081927297 0.125912
    vertex 1.4626517853244978 0.3432949232559481 0.125912
  endloop
endfacet
facet normal -0.2588190451025198 -0.9659258262890685 0.0
  outer loop
    vertex 1.4626517853244978 0.3432949232559481 0.125912
    vertex 1.4382948786341194 0.34650157085523964 0.0
    vertex 1.4626517853244978 0.3432949232559481 0.0
  endloop
endfacet
facet normal -1.1227998468515102e-15 -1.0 0.0
  outer loop
    vertex 1.4382948786341194 0.34650157085523964 0.0
    vertex 1.4626517853244978 0.3432949232559481 0.125912
    vertex 1.4382948786341194 0.34650157085523964 0.125912
  endloop
endfacet
facet normal -1.1227998468515102e-15 -1.0 0.0
  outer loop
    vertex 1.4382948786341194 0.34650157085523964 0.125912
    vertex 1.413937971943741 0.3432949232559482 0.0
    vertex 1.4382948786341194 0.34650157085523964 0.0
  endloop
endfacet
facet normal 0.2588190451025214 -0.9659258262890681 0.0
  outer loop
    vertex 1.413937971943741 0.3432949232559482 0.0
    vertex 1.4382948786341194 0.34650157085523964 0.125912
    vertex 1.413937971943741 0.3432949232559482 0.125912
  endloop
endfacet
facet normal 0.2588190451025214 -0.9659258262890681 0.0
  outer loop
    vertex 1.413937971943741 0.3432949232559482 0.125912
    vertex 1.3912409481926205 0.3338935081927297 0.0
    vertex 1.413937971943741 0.3432949232559482 0.0
  endloop
endfacet
facet normal 0.49999999999999917 -0.8660254037844392 0.0
  outer loop
    vertex 1.3912409481926205 0.3338935081927297 0.0
    vertex 1.413937971943741 0.3432949232559482 0.125912
    vertex 1.3912409481926205 0.3338935081927297 0.125912
  endloop
endfacet
facet normal 0.49999999999999917 -0.8660254037844392 0.0
  outer loop
    vertex 1.3912409481926205 0.3338935081927297 0.125912
    vertex 1.3717505720407912 0.31893801656556975 0.0
    vertex 1.3912409481926205 0.3338935081927297 0.0
  endloop
endfacet
facet normal 0.7071067811865471 -0.7071067811865479 0.0
  outer loop
    vertex 1.3717505720407912 0.31893801656556975 0.0
    vertex 1.3912409481926205 0.3338935081927297 0.125912
    vertex 1.3717505720407912 0.31893801656556975 0.125912
  endloop
endfacet
facet normal 0.7071067811865471 -0.7071067811865479 0.0
  outer loop
    vertex 1.3717505720407912 0.31893801656556975 0.0
    vertex 1.3567950804136313 0.2994476404137406 0.125912
    vertex 1.3567950804136313 0.2994476404137406 0.0
  endloop
endfacet
facet normal 0.8660254037844392 -0.49999999999999906 0.0
  outer loop
    vertex 1.3567950804136313 0.2994476404137406 0.125912
    vertex 1.3717505720407912 0.31893801656556975 0.0
    vertex 1.3717505720407912 0.31893801656556975 0.125912
  endloop
endfacet
facet normal 0.8660254037844392 -0.49999999999999906 0.0
  outer loop
    vertex 1.3567950804136313 0.2994476404137406 0.0
    vertex 1.3473936653504128 0.27675061666261996 0.125912
    vertex 1.3473936653504128 0.27675061666261996 0.0
  endloop
endfacet
facet normal 0.9659258262890676 -0.25881904510252285 0.0
  outer loop
    vertex 1.3473936653504128 0.27675061666261996 0.125912
    vertex 1.3567950804136313 0.2994476404137406 0.0
    vertex 1.3567950804136313 0.2994476404137406 0.125912
  endloop
endfacet
facet normal 0.5000000000000004 -0.8660254037844384 0.0
  outer loop
    vertex 0.8299705900815226 0.33402666415543064 0.125912
    vertex 0.8104483701723276 0.31904673795384514 0.0
    vertex 0.8299705900815226 0.33402666415543064 0.0
  endloop
endfacet
facet normal 0.707106781186547 -0.707106781186548 0.0
  outer loop
    vertex 0.8104483701723276 0.31904673795384514 0.0
    vertex 0.8299705900815226 0.33402666415543064 0.125912
    vertex 0.8104483701723276 0.31904673795384514 0.125912
  endloop
endfacet
facet normal 0.707106781186547 -0.707106781186548 0.0
  outer loop
    vertex 0.8104483701723276 0.31904673795384514 0.0
    vertex 0.7954684439707421 0.2995245180446502 0.125912
    vertex 0.7954684439707421 0.2995245180446502 0.0
  endloop
endfacet
facet normal 0.8660254037844386 -0.5000000000000001 0.0
  outer loop
    vertex 0.7954684439707421 0.2995245180446502 0.125912
    vertex 0.8104483701723276 0.31904673795384514 0.0
    vertex 0.8104483701723276 0.31904673795384514 0.125912
  endloop
endfacet
facet normal 0.8660254037844386 -0.5000000000000001 0.0
  outer loop
    vertex 0.7954684439707421 0.2995245180446502 0.0
    vertex 0.7860516686919057 0.2767904114526635 0.125912
    vertex 0.7860516686919057 0.2767904114526635 0.0
  endloop
endfacet
facet normal 0.9659258262890682 -0.2588190451025208 0.0
  outer loop
    vertex 0.7860516686919057 0.2767904114526635 0.125912
    vertex 0.7954684439707421 0.2995245180446502 0.0
    vertex 0.7954684439707421 0.2995245180446502 0.125912
  endloop
endfacet
facet normal 0.9659258262890682 -0.2588190451025208 0.0
  outer loop
    vertex 0.7860516686919057 0.2767904114526635 0.0
    vertex 0.782839782009114 0.2523937099722415 0.125912
    vertex 0.782839782009114 0.2523937099722415 0.0
  endloop
endfacet
facet normal 1.0 1.336666484347036e-16 0.0
  outer loop
    vertex 0.782839782009114 0.2523937099722415 0.125912
    vertex 0.7860516686919057 0.2767904114526635 0.0
    vertex 0.7860516686919057 0.2767904114526635 0.125912
  endloop
endfacet
facet normal 1.0 1.336666484347036e-16 0.0
  outer loop
    vertex 0.782839782009114 0.2523937099722415 0.0
    vertex 0.7860516686919057 0.22799700849181953 0.125912
    vertex 0.7860516686919057 0.22799700849181953 0.0
  endloop
endfacet
facet normal 0.9659258262890682 0.2588190451025211 0.0
  outer loop
    vertex 0.7860516686919057 0.22799700849181953 0.125912
    vertex 0.782839782009114 0.2523937099722415 0.0
    vertex 0.782839782009114 0.2523937099722415 0.125912
  endloop
endfacet
facet normal 0.9659258262890682 0.2588190451025211 0.0
  outer loop
    vertex 0.7860516686919057 0.22799700849181953 0.0
    vertex 0.7954684439707421 0.20526290189983284 0.125912
    vertex 0.7954684439707421 0.20526290189983284 0.0
  endloop
endfacet
facet normal 0.8660254037844388 0.49999999999999967 0.0
  outer loop
    vertex 0.7954684439707421 0.20526290189983284 0.125912
    vertex 0.7860516686919057 0.22799700849181953 0.0
    vertex 0.7860516686919057 0.22799700849181953 0.125912
  endloop
endfacet
facet normal 0.8660254037844388 0.49999999999999967 0.0
  outer loop
    vertex 0.7954684439707421 0.20526290189983284 0.0
    vertex 0.8104483701723276 0.18574068199063784 0.125912
    vertex 0.8104483701723276 0.18574068199063784 0.0
  endloop
endfacet
facet normal 0.7071067811865479 0.7071067811865471 0.0
  outer loop
    vertex 0.8104483701723276 0.18574068199063784 0.125912
    vertex 0.7954684439707421 0.20526290189983284 0.0
    vertex 0.7954684439707421 0.20526290189983284 0.125912
  endloop
endfacet
facet normal 0.7071067811865479 0.7071067811865471 0.0
  outer loop
    vertex 0.8104483701723276 0.18574068199063784 0.125912
    vertex 0.8299705900815226 0.1707607557890523 0.0
    vertex 0.8104483701723276 0.18574068199063784 0.0
  endloop
endfacet
facet normal 0.5000000000000007 0.8660254037844383 0.0
  outer loop
    vertex 0.8299705900815226 0.1707607557890523 0.0
    vertex 0.8104483701723276 0.18574068199063784 0.125912
    vertex 0.8299705900815226 0.1707607557890523 0.125912
  endloop
endfacet
facet normal 0.5000000000000007 0.8660254037844383 0.0
  outer loop
    vertex 0.8299705900815226 0.1707607557890523 0.125912
    vertex 0.8527046966735092 0.16134398051021587 0.0
    vertex 0.8299705900815226 0.1707607557890523 0.0
  endloop
endfacet
facet normal 0.25881904510252146 0.9659258262890681 0.0
  outer loop
    vertex 0.8527046966735092 0.16134398051021587 0.0
    vertex 0.8299705900815226 0.1707607557890523 0.125912
    vertex 0.8527046966735092 0.16134398051021587 0.125912
  endloop
endfacet
facet normal 0.25881904510252146 0.9659258262890681 0.0
  outer loop
    vertex 0.8527046966735092 0.16134398051021587 0.125912
    vertex 0.8771013981539313 0.15813209382742416 0.0
    vertex 0.8527046966735092 0.16134398051021587 0.0
  endloop
endfacet
facet normal 8.1091100050386845e-16 1.0 0.0
  outer loop
    vertex 0.8771013981539313 0.15813209382742416 0.0
    vertex 0.8527046966735092 0.16134398051021587 0.125912
    vertex 0.8771013981539313 0.15813209382742416 0.125912
  endloop
endfacet
facet normal 8.1091100050386845e-16 1.0 0.0
  outer loop
    vertex 0.8771013981539313 0.15813209382742416 0.125912
    vertex 0.9014980996343532 0.1613439805102158 0.0
    vertex 0.8771013981539313 0.15813209382742416 0.0
  endloop
endfacet
facet normal -0.25881904510252063 0.9659258262890682 0.0
  outer loop
    vertex 0.9014980996343532 0.1613439805102158 0.0
    vertex 0.8771013981539313 0.15813209382742416 0.125912
    vertex 0.9014980996343532 0.1613439805102158 0.125912
  endloop
endfacet
facet normal -0.25881904510252063 0.9659258262890682 0.0
  outer loop
    vertex 0.9014980996343532 0.1613439805102158 0.125912
    vertex 0.9242322062263398 0.17076075578905225 0.0
    vertex 0.9014980996343532 0.1613439805102158 0.0
  endloop
endfacet
facet normal -0.49999999999999944 0.8660254037844392 0.0
  outer loop
    vertex 0.9242322062263398 0.17076075578905225 0.0
    vertex 0.9014980996343532 0.1613439805102158 0.125912
    vertex 0.9242322062263398 0.17076075578905225 0.125912
  endloop
endfacet
facet normal -0.49999999999999944 0.8660254037844392 0.0
  outer loop
    vertex 0.9242322062263398 0.17076075578905225 0.125912
    vertex 0.943754426135535 0.18574068199063778 0.0
    vertex 0.9242322062263398 0.17076075578905225 0.0
  endloop
endfacet
facet normal -0.7071067811865466 0.7071067811865485 0.0
  outer loop
    vertex 0.943754426135535 0.18574068199063778 0.0
    vertex 0.9242322062263398 0.17076075578905225 0.125912
    vertex 0.943754426135535 0.18574068199063778 0.125912
  endloop
endfacet
facet normal -0.8660254037844386 0.5000000000000001 0.0
  outer loop
    vertex 0.9587343523371205 0.20526290189983276 0.125912
    vertex 0.943754426135535 0.18574068199063778 0.0
    vertex 0.943754426135535 0.18574068199063778 0.125912
  endloop
endfacet
facet normal -0.7071067811865466 0.7071067811865485 0.0
  outer loop
    vertex 0.943754426135535 0.18574068199063778 0.0
    vertex 0.9587343523371205 0.20526290189983276 0.125912
    vertex 0.9587343523371205 0.20526290189983276 0.0
  endloop
endfacet
facet normal -0.9659258262890682 0.258819045102521 0.0
  outer loop
    vertex 0.9681511276159569 0.22799700849181942 0.125912
    vertex 0.9587343523371205 0.20526290189983276 0.0
    vertex 0.9587343523371205 0.20526290189983276 0.125912
  endloop
endfacet
facet normal -0.8660254037844386 0.5000000000000001 0.0
  outer loop
    vertex 0.9587343523371205 0.20526290189983276 0.0
    vertex 0.9681511276159569 0.22799700849181942 0.125912
    vertex 0.9681511276159569 0.22799700849181942 0.0
  endloop
endfacet
facet normal -1.0 -2.9406662655634795e-16 0.0
  outer loop
    vertex 0.9713630142987486 0.2523937099722415 0.125912
    vertex 0.9681511276159569 0.22799700849181942 0.0
    vertex 0.9681511276159569 0.22799700849181942 0.125912
  endloop
endfacet
facet normal -0.9659258262890682 0.258819045102521 0.0
  outer loop
    vertex 0.9681511276159569 0.22799700849181942 0.0
    vertex 0.9713630142987486 0.2523937099722415 0.125912
    vertex 0.9713630142987486 0.2523937099722415 0.0
  endloop
endfacet
facet normal -0.9659258262890682 -0.2588190451025209 0.0
  outer loop
    vertex 0.9681511276159569 0.2767904114526634 0.125912
    vertex 0.9713630142987486 0.2523937099722415 0.0
    vertex 0.9713630142987486 0.2523937099722415 0.125912
  endloop
endfacet
facet normal -1.0 -2.9406662655634795e-16 0.0
  outer loop
    vertex 0.9713630142987486 0.2523937099722415 0.0
    vertex 0.9681511276159569 0.2767904114526634 0.125912
    vertex 0.9681511276159569 0.2767904114526634 0.0
  endloop
endfacet
facet normal -0.866025403784439 -0.49999999999999956 0.0
  outer loop
    vertex 0.9587343523371205 0.29952451804465013 0.125912
    vertex 0.9681511276159569 0.2767904114526634 0.0
    vertex 0.9681511276159569 0.2767904114526634 0.125912
  endloop
endfacet
facet normal -0.9659258262890682 -0.2588190451025209 0.0
  outer loop
    vertex 0.9681511276159569 0.2767904114526634 0.0
    vertex 0.9587343523371205 0.29952451804465013 0.125912
    vertex 0.9587343523371205 0.29952451804465013 0.0
  endloop
endfacet
facet normal -0.7071067811865475 -0.7071067811865475 0.0
  outer loop
    vertex 0.943754426135535 0.31904673795384514 0.125912
    vertex 0.9587343523371205 0.29952451804465013 0.0
    vertex 0.9587343523371205 0.29952451804465013 0.125912
  endloop
endfacet
facet normal -0.866025403784439 -0.49999999999999956 0.0
  outer loop
    vertex 0.9587343523371205 0.29952451804465013 0.0
    vertex 0.943754426135535 0.31904673795384514 0.125912
    vertex 0.943754426135535 0.31904673795384514 0.0
  endloop
endfacet
facet normal -0.7071067811865475 -0.7071067811865475 0.0
  outer loop
    vertex 0.943754426135535 0.31904673795384514 0.125912
    vertex 0.92423220622634 0.33402666415543064 0.0
    vertex 0.943754426135535 0.31904673795384514 0.0
  endloop
endfacet
facet normal -0.5000000000000004 -0.8660254037844384 0.0
  outer loop
    vertex 0.92423220622634 0.33402666415543064 0.0
    vertex 0.943754426135535 0.31904673795384514 0.125912
    vertex 0.92423220622634 0.33402666415543064 0.125912
  endloop
endfacet
facet normal -0.5000000000000004 -0.8660254037844384 0.0
  outer loop
    vertex 0.92423220622634 0.33402666415543064 0.125912
    vertex 0.9014980996343532 0.34344343943426714 0.0
    vertex 0.92423220622634 0.33402666415543064 0.0
  endloop
endfacet
facet normal -0.2588190451025208 -0.9659258262890682 0.0
  outer loop
    vertex 0.9014980996343532 0.34344343943426714 0.0
    vertex 0.92423220622634 0.33402666415543064 0.125912
    vertex 0.9014980996343532 0.34344343943426714 0.125912
  endloop
endfacet
facet normal -0.2588190451025208 -0.9659258262890682 0.0
  outer loop
    vertex 0.9014980996343532 0.34344343943426714 0.125912
    vertex 0.8771013981539313 0.3466553261170588 0.0
    vertex 0.9014980996343532 0.34344343943426714 0.0
  endloop
endfacet
facet normal 0.0 -1.0 0.0
  outer loop
    vertex 0.8771013981539313 0.3466553261170588 0.0
    vertex 0.9014980996343532 0.34344343943426714 0.125912
    vertex 0.8771013981539313 0.3466553261170588 0.125912
  endloop
endfacet
facet normal 0.0 -1.0 0.0
  outer loop
    vertex 0.8771013981539313 0.3466553261170588 0.125912
    vertex 0.8527046966735093 0.34344343943426714 0.0
    vertex 0.8771013981539313 0.3466553261170588 0.0
  endloop
endfacet
facet normal 0.2588190451025208 -0.9659258262890682 0.0
  outer loop
    vertex 0.8527046966735093 0.34344343943426714 0.0
    vertex 0.8771013981539313 0.3466553261170588 0.125912
    vertex 0.8527046966735093 0.34344343943426714 0.125912
  endloop
endfacet
facet normal 0.2588190451025208 -0.9659258262890682 0.0
  outer loop
    vertex 0.8527046966735093 0.34344343943426714 0.125912
    vertex 0.8299705900815226 0.33402666415543064 0.0
    vertex 0.8527046966735093 0.34344343943426714 0.0
  endloop
endfacet
facet normal 0.5000000000000004 -0.8660254037844384 0.0
  outer loop
    vertex 0.8299705900815226 0.33402666415543064 0.0
    vertex 0.8527046966735093 0.34344343943426714 0.125912
    vertex 0.8299705900815226 0.33402666415543064 0.125912
  endloop
endfacet
facet normal -0.0 -1.0 -0.0
  outer loop
    vertex 1.486501066055515 0.0 0.125912
    vertex 0.2517121966400386 0.0 0.0
    vertex 1.486501066055515 0.0 0.0
  endloop
endfacet
facet normal -0.0 -1.0 -0.0
  outer loop
    vertex 0.2517121966400386 0.0 0.0
    vertex 1.486501066055515 0.0 0.125912
    vertex 0.2517121966400386 0.0 0.125912
  endloop
endfacet
facet normal 0.2588190451025203 -0.9659258262890685 0.0
  outer loop
    vertex 1.5503879591486207 0.00841086903880639 0.125912
    vertex 1.486501066055515 0.0 0.0
    vertex 1.5503879591486207 0.00841086903880639 0.0
  endloop
endfacet
facet normal 0.13052619222005254 -0.9914448613738104 0.0
  outer loop
    vertex 1.486501066055515 0.0 0.0
    vertex 1.5503879591486207 0.00841086903880639 0.125912
    vertex 1.486501066055515 0.0 0.125912
  endloop
endfacet
endsolid Tent guy line cinch
