solid 2_5boxtubingcap
facet normal 0.0 0.0 -1.0
  outer loop
    vertex 79.31945680262366 85.73641565852407 0.0
    vertex 79.24708344500831 26.36148008990473 0.0
    vertex 79.24708344500831 85.36148008990473 0.0
  endloop
endfacet
facet normal 0.0 0.0 -1.0
  outer loop
    vertex 79.24708344500831 26.36148008990473 0.0
    vertex 79.31945680262366 85.73641565852407 0.0
    vertex 79.31945680262368 25.986544521285396 0.0
  endloop
endfacet
facet normal 0.0 0.0 -1.0
  outer loop
    vertex 79.31945680262368 25.986544521285396 0.0
    vertex 79.31945680262366 85.73641565852407 0.0
    vertex 79.45419022619485 86.09371313693836 0.0
  endloop
endfacet
facet normal 0.0 0.0 -1.0
  outer loop
    vertex 79.31945680262368 25.986544521285396 0.0
    vertex 79.45419022619485 86.09371313693836 0.0
    vertex 79.45419022619485 25.629247042871103 0.0
  endloop
endfacet
facet normal 0.0 0.0 -1.0
  outer loop
    vertex 79.45419022619485 25.629247042871103 0.0
    vertex 79.45419022619485 86.09371313693836 0.0
    vertex 79.64740300499737 86.42308132850494 0.0
  endloop
endfacet
facet normal 0.0 0.0 -1.0
  outer loop
    vertex 79.45419022619485 25.629247042871103 0.0
    vertex 79.64740300499737 86.42308132850494 0.0
    vertex 79.64740300499739 25.29987885130453 0.0
  endloop
endfacet
facet normal 0.0 0.0 -1.0
  outer loop
    vertex 79.64740300499739 25.29987885130453 0.0
    vertex 79.64740300499737 86.42308132850494 0.0
    vertex 79.89353005441504 86.71503348049801 0.0
  endloop
endfacet
facet normal 0.0 0.0 -1.0
  outer loop
    vertex 79.64740300499739 25.29987885130453 0.0
    vertex 79.89353005441504 86.71503348049801 0.0
    vertex 79.89353005441504 25.007926699311458 0.0
  endloop
endfacet
facet normal 0.0 0.0 -1.0
  outer loop
    vertex 79.89353005441504 25.007926699311458 0.0
    vertex 79.89353005441504 86.71503348049801 0.0
    vertex 80.18548220640811 86.96116052991566 0.0
  endloop
endfacet
facet normal 0.0 0.0 -1.0
  outer loop
    vertex 79.89353005441504 25.007926699311458 0.0
    vertex 80.18548220640811 86.96116052991566 0.0
    vertex 80.18548220640811 24.761799649893806 0.0
  endloop
endfacet
facet normal 0.0 0.0 -1.0
  outer loop
    vertex 80.18548220640811 24.761799649893806 0.0
    vertex 80.18548220640811 86.96116052991566 0.0
    vertex 80.51485039797467 87.15437330871819 0.0
  endloop
endfacet
facet normal 0.0 0.0 -1.0
  outer loop
    vertex 80.18548220640811 24.761799649893806 0.0
    vertex 80.51485039797467 87.15437330871819 0.0
    vertex 80.51485039797467 24.568586871091277 0.0
  endloop
endfacet
facet normal 0.0 0.0 -1.0
  outer loop
    vertex 80.51485039797467 24.568586871091277 0.0
    vertex 80.51485039797467 87.15437330871819 0.0
    vertex 80.87214787638896 87.28910673228937 0.0
  endloop
endfacet
facet normal 0.0 0.0 -1.0
  outer loop
    vertex 80.51485039797467 24.568586871091277 0.0
    vertex 80.87214787638896 87.28910673228937 0.0
    vertex 80.87214787638896 24.433853447520093 0.0
  endloop
endfacet
facet normal 0.0 0.0 -1.0
  outer loop
    vertex 80.87214787638896 24.433853447520093 0.0
    vertex 80.87214787638896 87.28910673228937 0.0
    vertex 81.2470834450083 87.36148008990473 0.0
  endloop
endfacet
facet normal 0.0 0.0 -1.0
  outer loop
    vertex 80.87214787638896 24.433853447520093 0.0
    vertex 81.2470834450083 87.36148008990473 0.0
    vertex 81.2470834450083 24.36148008990473 0.0
  endloop
endfacet
facet normal 0.0 0.0 -1.0
  outer loop
    vertex 81.2470834450083 24.36148008990473 0.0
    vertex 81.2470834450083 87.36148008990473 0.0
    vertex 140.24708344500831 87.36148008990473 0.0
  endloop
endfacet
facet normal 0.0 0.0 -1.0
  outer loop
    vertex 81.2470834450083 24.36148008990473 0.0
    vertex 140.24708344500831 87.36148008990473 0.0
    vertex 140.24708344500831 24.36148008990473 0.0
  endloop
endfacet
facet normal 0.0 0.0 -1.0
  outer loop
    vertex 140.24708344500831 24.36148008990473 0.0
    vertex 140.24708344500831 87.36148008990473 0.0
    vertex 140.62201901362764 87.28910673228937 0.0
  endloop
endfacet
facet normal 0.0 0.0 -1.0
  outer loop
    vertex 140.24708344500831 24.36148008990473 0.0
    vertex 140.62201901362764 87.28910673228937 0.0
    vertex 140.62201901362764 24.43385344752009 0.0
  endloop
endfacet
facet normal 0.0 0.0 -1.0
  outer loop
    vertex 140.62201901362764 24.43385344752009 0.0
    vertex 140.62201901362764 87.28910673228937 0.0
    vertex 140.97931649204193 87.15437330871819 0.0
  endloop
endfacet
facet normal 0.0 0.0 -1.0
  outer loop
    vertex 140.62201901362764 24.43385344752009 0.0
    vertex 140.97931649204193 87.15437330871819 0.0
    vertex 140.97931649204193 24.568586871091277 0.0
  endloop
endfacet
facet normal 0.0 0.0 -1.0
  outer loop
    vertex 140.97931649204193 24.568586871091277 0.0
    vertex 140.97931649204193 87.15437330871819 0.0
    vertex 141.3086846836085 86.96116052991566 0.0
  endloop
endfacet
facet normal 0.0 0.0 -1.0
  outer loop
    vertex 140.97931649204193 24.568586871091277 0.0
    vertex 141.3086846836085 86.96116052991566 0.0
    vertex 141.3086846836085 24.761799649893803 0.0
  endloop
endfacet
facet normal 0.0 0.0 -1.0
  outer loop
    vertex 141.3086846836085 24.761799649893803 0.0
    vertex 141.3086846836085 86.96116052991566 0.0
    vertex 141.6006368356016 86.71503348049801 0.0
  endloop
endfacet
facet normal 0.0 0.0 -1.0
  outer loop
    vertex 141.3086846836085 24.761799649893803 0.0
    vertex 141.6006368356016 86.71503348049801 0.0
    vertex 141.6006368356016 25.007926699311454 0.0
  endloop
endfacet
facet normal 0.0 0.0 -1.0
  outer loop
    vertex 141.6006368356016 25.007926699311454 0.0
    vertex 141.6006368356016 86.71503348049801 0.0
    vertex 141.84676388501924 86.42308132850494 0.0
  endloop
endfacet
facet normal 0.0 0.0 -1.0
  outer loop
    vertex 141.6006368356016 25.007926699311454 0.0
    vertex 141.84676388501924 86.42308132850494 0.0
    vertex 141.84676388501924 25.29987885130453 0.0
  endloop
endfacet
facet normal 0.0 0.0 -1.0
  outer loop
    vertex 141.84676388501924 25.29987885130453 0.0
    vertex 141.84676388501924 86.42308132850494 0.0
    vertex 142.03997666382176 86.09371313693836 0.0
  endloop
endfacet
facet normal 0.0 0.0 -1.0
  outer loop
    vertex 141.84676388501924 25.29987885130453 0.0
    vertex 142.03997666382176 86.09371313693836 0.0
    vertex 142.03997666382176 25.629247042871096 0.0
  endloop
endfacet
facet normal 0.0 0.0 -1.0
  outer loop
    vertex 142.03997666382176 25.629247042871096 0.0
    vertex 142.03997666382176 86.09371313693836 0.0
    vertex 142.17471008739295 85.73641565852407 0.0
  endloop
endfacet
facet normal 0.0 0.0 -1.0
  outer loop
    vertex 142.03997666382176 25.629247042871096 0.0
    vertex 142.17471008739295 85.73641565852407 0.0
    vertex 142.17471008739295 25.986544521285392 0.0
  endloop
endfacet
facet normal 0.0 0.0 -1.0
  outer loop
    vertex 142.17471008739295 25.986544521285392 0.0
    vertex 142.17471008739295 85.73641565852407 0.0
    vertex 142.24708344500831 85.36148008990473 0.0
  endloop
endfacet
facet normal 0.0 0.0 -1.0
  outer loop
    vertex 142.17471008739295 25.986544521285392 0.0
    vertex 142.24708344500831 85.36148008990473 0.0
    vertex 142.24708344500831 26.36148008990473 0.0
  endloop
endfacet
facet normal 1.2646222957369392e-32 2.9273664253169875e-32 1.0
  outer loop
    vertex 81.2470834450083 24.36148008990473 6.0
    vertex 83.2470834450083 26.36148008990473 6.0
    vertex 81.2470834450083 28.36148008990473 6.0
  endloop
endfacet
facet normal 1.2646222957369392e-32 2.9273664253169875e-32 1.0
  outer loop
    vertex 83.2470834450083 26.36148008990473 6.0
    vertex 81.2470834450083 24.36148008990473 6.0
    vertex 140.24708344500831 24.36148008990473 6.0
  endloop
endfacet
facet normal 1.2646222957369392e-32 2.9273664253169875e-32 1.0
  outer loop
    vertex 83.2470834450083 26.36148008990473 6.0
    vertex 140.24708344500831 24.36148008990473 6.0
    vertex 89.2470834450083 26.36148008990473 6.0
  endloop
endfacet
facet normal 1.2646222957369392e-32 2.9273664253169875e-32 1.0
  outer loop
    vertex 89.2470834450083 26.36148008990473 6.0
    vertex 140.24708344500831 24.36148008990473 6.0
    vertex 94.2470834450083 26.36148008990473 6.0
  endloop
endfacet
facet normal 1.2646222957369392e-32 2.9273664253169875e-32 1.0
  outer loop
    vertex 89.2470834450083 26.36148008990473 6.0
    vertex 94.2470834450083 26.36148008990473 6.0
    vertex 89.2470834450083 27.361480089904727 6.0
  endloop
endfacet
facet normal 1.2646222957369392e-32 2.9273664253169875e-32 1.0
  outer loop
    vertex 89.2470834450083 27.361480089904727 6.0
    vertex 94.2470834450083 26.36148008990473 6.0
    vertex 89.2470834450083 84.36148008990473 6.0
  endloop
endfacet
facet normal 1.2646222957369392e-32 2.9273664253169875e-32 1.0
  outer loop
    vertex 89.2470834450083 84.36148008990473 6.0
    vertex 94.2470834450083 26.36148008990473 6.0
    vertex 89.2470834450083 85.36148008990473 6.0
  endloop
endfacet
facet normal 1.2646222957369392e-32 2.9273664253169875e-32 1.0
  outer loop
    vertex 94.2470834450083 26.36148008990473 6.0
    vertex 140.24708344500831 24.36148008990473 6.0
    vertex 127.24708344500831 26.36148008990473 6.0
  endloop
endfacet
facet normal 1.2646222957369392e-32 2.9273664253169875e-32 1.0
  outer loop
    vertex 127.24708344500831 26.36148008990473 6.0
    vertex 140.24708344500831 24.36148008990473 6.0
    vertex 127.24708344500831 27.361480089904727 6.0
  endloop
endfacet
facet normal 1.2646222957369392e-32 2.9273664253169875e-32 1.0
  outer loop
    vertex 127.24708344500831 27.361480089904727 6.0
    vertex 140.24708344500831 24.36148008990473 6.0
    vertex 132.24708344500831 26.36148008990473 6.0
  endloop
endfacet
facet normal 1.2646222957369392e-32 2.9273664253169875e-32 1.0
  outer loop
    vertex 127.24708344500831 27.361480089904727 6.0
    vertex 132.24708344500831 26.36148008990473 6.0
    vertex 127.24708344500831 84.36148008990473 6.0
  endloop
endfacet
facet normal 1.2646222957369392e-32 2.9273664253169875e-32 1.0
  outer loop
    vertex 127.24708344500831 84.36148008990473 6.0
    vertex 132.24708344500831 26.36148008990473 6.0
    vertex 127.24708344500831 85.36148008990473 6.0
  endloop
endfacet
facet normal 1.2646222957369392e-32 2.9273664253169875e-32 1.0
  outer loop
    vertex 132.24708344500831 26.36148008990473 6.0
    vertex 140.24708344500831 24.36148008990473 6.0
    vertex 138.24708344500831 26.36148008990473 6.0
  endloop
endfacet
facet normal 1.2646222957369392e-32 2.9273664253169875e-32 1.0
  outer loop
    vertex 138.24708344500831 26.36148008990473 6.0
    vertex 140.24708344500831 24.36148008990473 6.0
    vertex 140.24708344500831 28.36148008990473 6.0
  endloop
endfacet
facet normal 1.2646222957369392e-32 2.9273664253169875e-32 1.0
  outer loop
    vertex 140.24708344500831 28.36148008990473 6.0
    vertex 140.24708344500831 24.36148008990473 6.0
    vertex 140.62201901362764 24.43385344752009 6.0
  endloop
endfacet
facet normal 1.2646222957369392e-32 2.9273664253169875e-32 1.0
  outer loop
    vertex 140.24708344500831 28.36148008990473 6.0
    vertex 140.62201901362764 24.43385344752009 6.0
    vertex 140.24708344500831 34.36148008990473 6.0
  endloop
endfacet
facet normal 1.2646222957369392e-32 2.9273664253169875e-32 1.0
  outer loop
    vertex 140.24708344500831 34.36148008990473 6.0
    vertex 140.62201901362764 24.43385344752009 6.0
    vertex 140.24708344500831 39.36148008990474 6.0
  endloop
endfacet
facet normal 1.2646222957369392e-32 2.9273664253169875e-32 1.0
  outer loop
    vertex 140.24708344500831 39.36148008990474 6.0
    vertex 140.62201901362764 24.43385344752009 6.0
    vertex 140.24708344500831 72.36148008990473 6.0
  endloop
endfacet
facet normal 1.2646222957369392e-32 2.9273664253169875e-32 1.0
  outer loop
    vertex 140.24708344500831 72.36148008990473 6.0
    vertex 140.62201901362764 24.43385344752009 6.0
    vertex 140.24708344500831 77.36148008990473 6.0
  endloop
endfacet
facet normal 1.2646222957369392e-32 2.9273664253169875e-32 1.0
  outer loop
    vertex 140.24708344500831 77.36148008990473 6.0
    vertex 140.62201901362764 24.43385344752009 6.0
    vertex 140.24708344500831 83.36148008990473 6.0
  endloop
endfacet
facet normal 1.2646222957369392e-32 2.9273664253169875e-32 1.0
  outer loop
    vertex 140.24708344500831 83.36148008990473 6.0
    vertex 140.62201901362764 24.43385344752009 6.0
    vertex 140.24708344500831 87.36148008990473 6.0
  endloop
endfacet
facet normal 1.2646222957369392e-32 2.9273664253169875e-32 1.0
  outer loop
    vertex 140.24708344500831 87.36148008990473 6.0
    vertex 140.62201901362764 24.43385344752009 6.0
    vertex 140.62201901362764 87.28910673228937 6.0
  endloop
endfacet
facet normal 1.2646222957369392e-32 2.9273664253169875e-32 1.0
  outer loop
    vertex 140.62201901362764 87.28910673228937 6.0
    vertex 140.62201901362764 24.43385344752009 6.0
    vertex 140.97931649204193 24.568586871091277 6.0
  endloop
endfacet
facet normal 1.2646222957369392e-32 2.9273664253169875e-32 1.0
  outer loop
    vertex 140.62201901362764 87.28910673228937 6.0
    vertex 140.97931649204193 24.568586871091277 6.0
    vertex 140.97931649204193 87.15437330871819 6.0
  endloop
endfacet
facet normal 1.2646222957369392e-32 2.9273664253169875e-32 1.0
  outer loop
    vertex 140.97931649204193 87.15437330871819 6.0
    vertex 140.97931649204193 24.568586871091277 6.0
    vertex 141.3086846836085 24.761799649893803 6.0
  endloop
endfacet
facet normal 1.2646222957369392e-32 2.9273664253169875e-32 1.0
  outer loop
    vertex 140.97931649204193 87.15437330871819 6.0
    vertex 141.3086846836085 24.761799649893803 6.0
    vertex 141.3086846836085 86.96116052991566 6.0
  endloop
endfacet
facet normal 1.2646222957369392e-32 2.9273664253169875e-32 1.0
  outer loop
    vertex 141.3086846836085 86.96116052991566 6.0
    vertex 141.3086846836085 24.761799649893803 6.0
    vertex 141.6006368356016 25.007926699311454 6.0
  endloop
endfacet
facet normal 1.2646222957369392e-32 2.9273664253169875e-32 1.0
  outer loop
    vertex 141.3086846836085 86.96116052991566 6.0
    vertex 141.6006368356016 25.007926699311454 6.0
    vertex 141.6006368356016 86.71503348049801 6.0
  endloop
endfacet
facet normal 1.2646222957369392e-32 2.9273664253169875e-32 1.0
  outer loop
    vertex 141.6006368356016 86.71503348049801 6.0
    vertex 141.6006368356016 25.007926699311454 6.0
    vertex 141.84676388501924 25.29987885130453 6.0
  endloop
endfacet
facet normal 1.2646222957369392e-32 2.9273664253169875e-32 1.0
  outer loop
    vertex 141.6006368356016 86.71503348049801 6.0
    vertex 141.84676388501924 25.29987885130453 6.0
    vertex 141.84676388501924 86.42308132850494 6.0
  endloop
endfacet
facet normal 1.2646222957369392e-32 2.9273664253169875e-32 1.0
  outer loop
    vertex 141.84676388501924 86.42308132850494 6.0
    vertex 141.84676388501924 25.29987885130453 6.0
    vertex 142.03997666382176 25.629247042871096 6.0
  endloop
endfacet
facet normal 1.2646222957369392e-32 2.9273664253169875e-32 1.0
  outer loop
    vertex 141.84676388501924 86.42308132850494 6.0
    vertex 142.03997666382176 25.629247042871096 6.0
    vertex 142.03997666382176 86.09371313693836 6.0
  endloop
endfacet
facet normal 1.2646222957369392e-32 2.9273664253169875e-32 1.0
  outer loop
    vertex 142.03997666382176 86.09371313693836 6.0
    vertex 142.03997666382176 25.629247042871096 6.0
    vertex 142.17471008739295 25.986544521285392 6.0
  endloop
endfacet
facet normal 1.2646222957369392e-32 2.9273664253169875e-32 1.0
  outer loop
    vertex 142.03997666382176 86.09371313693836 6.0
    vertex 142.17471008739295 25.986544521285392 6.0
    vertex 142.17471008739295 85.73641565852407 6.0
  endloop
endfacet
facet normal 1.2646222957369392e-32 2.9273664253169875e-32 1.0
  outer loop
    vertex 142.17471008739295 85.73641565852407 6.0
    vertex 142.17471008739295 25.986544521285392 6.0
    vertex 142.24708344500831 26.36148008990473 6.0
  endloop
endfacet
facet normal 1.2646222957369392e-32 2.9273664253169875e-32 1.0
  outer loop
    vertex 142.17471008739295 85.73641565852407 6.0
    vertex 142.24708344500831 26.36148008990473 6.0
    vertex 142.24708344500831 85.36148008990473 6.0
  endloop
endfacet
facet normal 1.2646222957369392e-32 2.9273664253169875e-32 1.0
  outer loop
    vertex 79.31945680262368 25.986544521285396 6.0
    vertex 79.24708344500831 85.36148008990473 6.0
    vertex 79.24708344500831 26.36148008990473 6.0
  endloop
endfacet
facet normal 1.2646222957369392e-32 2.9273664253169875e-32 1.0
  outer loop
    vertex 79.24708344500831 85.36148008990473 6.0
    vertex 79.31945680262368 25.986544521285396 6.0
    vertex 79.31945680262366 85.73641565852407 6.0
  endloop
endfacet
facet normal 1.2646222957369392e-32 2.9273664253169875e-32 1.0
  outer loop
    vertex 79.31945680262366 85.73641565852407 6.0
    vertex 79.31945680262368 25.986544521285396 6.0
    vertex 79.45419022619485 86.09371313693836 6.0
  endloop
endfacet
facet normal 1.2646222957369392e-32 2.9273664253169875e-32 1.0
  outer loop
    vertex 79.45419022619485 86.09371313693836 6.0
    vertex 79.31945680262368 25.986544521285396 6.0
    vertex 79.45419022619485 25.629247042871103 6.0
  endloop
endfacet
facet normal 1.2646222957369392e-32 2.9273664253169875e-32 1.0
  outer loop
    vertex 79.45419022619485 86.09371313693836 6.0
    vertex 79.45419022619485 25.629247042871103 6.0
    vertex 79.64740300499737 86.42308132850494 6.0
  endloop
endfacet
facet normal 1.2646222957369392e-32 2.9273664253169875e-32 1.0
  outer loop
    vertex 79.64740300499737 86.42308132850494 6.0
    vertex 79.45419022619485 25.629247042871103 6.0
    vertex 79.64740300499739 25.29987885130453 6.0
  endloop
endfacet
facet normal 1.2646222957369392e-32 2.9273664253169875e-32 1.0
  outer loop
    vertex 79.64740300499737 86.42308132850494 6.0
    vertex 79.64740300499739 25.29987885130453 6.0
    vertex 79.89353005441504 86.71503348049801 6.0
  endloop
endfacet
facet normal 1.2646222957369392e-32 2.9273664253169875e-32 1.0
  outer loop
    vertex 79.89353005441504 86.71503348049801 6.0
    vertex 79.64740300499739 25.29987885130453 6.0
    vertex 79.89353005441504 25.007926699311458 6.0
  endloop
endfacet
facet normal 1.2646222957369392e-32 2.9273664253169875e-32 1.0
  outer loop
    vertex 79.89353005441504 86.71503348049801 6.0
    vertex 79.89353005441504 25.007926699311458 6.0
    vertex 80.18548220640811 24.761799649893806 6.0
  endloop
endfacet
facet normal 1.2646222957369392e-32 2.9273664253169875e-32 1.0
  outer loop
    vertex 79.89353005441504 86.71503348049801 6.0
    vertex 80.18548220640811 24.761799649893806 6.0
    vertex 80.18548220640811 86.96116052991566 6.0
  endloop
endfacet
facet normal 1.2646222957369392e-32 2.9273664253169875e-32 1.0
  outer loop
    vertex 80.18548220640811 86.96116052991566 6.0
    vertex 80.18548220640811 24.761799649893806 6.0
    vertex 80.51485039797467 24.568586871091277 6.0
  endloop
endfacet
facet normal 1.2646222957369392e-32 2.9273664253169875e-32 1.0
  outer loop
    vertex 80.18548220640811 86.96116052991566 6.0
    vertex 80.51485039797467 24.568586871091277 6.0
    vertex 80.51485039797467 87.15437330871819 6.0
  endloop
endfacet
facet normal 1.2646222957369392e-32 2.9273664253169875e-32 1.0
  outer loop
    vertex 80.51485039797467 87.15437330871819 6.0
    vertex 80.51485039797467 24.568586871091277 6.0
    vertex 80.87214787638896 24.433853447520093 6.0
  endloop
endfacet
facet normal 1.2646222957369392e-32 2.9273664253169875e-32 1.0
  outer loop
    vertex 80.51485039797467 87.15437330871819 6.0
    vertex 80.87214787638896 24.433853447520093 6.0
    vertex 80.87214787638896 87.28910673228937 6.0
  endloop
endfacet
facet normal 1.2646222957369392e-32 2.9273664253169875e-32 1.0
  outer loop
    vertex 80.87214787638896 87.28910673228937 6.0
    vertex 80.87214787638896 24.433853447520093 6.0
    vertex 81.2470834450083 24.36148008990473 6.0
  endloop
endfacet
facet normal 1.2646222957369392e-32 2.9273664253169875e-32 1.0
  outer loop
    vertex 80.87214787638896 87.28910673228937 6.0
    vertex 81.2470834450083 24.36148008990473 6.0
    vertex 81.2470834450083 87.36148008990473 6.0
  endloop
endfacet
facet normal 1.2646222957369392e-32 2.9273664253169875e-32 1.0
  outer loop
    vertex 81.2470834450083 87.36148008990473 6.0
    vertex 81.2470834450083 24.36148008990473 6.0
    vertex 81.2470834450083 28.36148008990473 6.0
  endloop
endfacet
facet normal 1.2646222957369392e-32 2.9273664253169875e-32 1.0
  outer loop
    vertex 81.2470834450083 87.36148008990473 6.0
    vertex 81.2470834450083 28.36148008990473 6.0
    vertex 81.2470834450083 34.36148008990473 6.0
  endloop
endfacet
facet normal 1.2646222957369392e-32 2.9273664253169875e-32 1.0
  outer loop
    vertex 81.2470834450083 87.36148008990473 6.0
    vertex 81.2470834450083 34.36148008990473 6.0
    vertex 81.2470834450083 39.36148008990474 6.0
  endloop
endfacet
facet normal 1.2646222957369392e-32 2.9273664253169875e-32 1.0
  outer loop
    vertex 81.2470834450083 87.36148008990473 6.0
    vertex 81.2470834450083 39.36148008990474 6.0
    vertex 81.2470834450083 72.36148008990473 6.0
  endloop
endfacet
facet normal 1.2646222957369392e-32 2.9273664253169875e-32 1.0
  outer loop
    vertex 81.2470834450083 87.36148008990473 6.0
    vertex 81.2470834450083 72.36148008990473 6.0
    vertex 81.2470834450083 77.36148008990473 6.0
  endloop
endfacet
facet normal 1.2646222957369392e-32 2.9273664253169875e-32 1.0
  outer loop
    vertex 81.2470834450083 87.36148008990473 6.0
    vertex 81.2470834450083 77.36148008990473 6.0
    vertex 81.2470834450083 83.36148008990473 6.0
  endloop
endfacet
facet normal 1.2646222957369392e-32 2.9273664253169875e-32 1.0
  outer loop
    vertex 81.2470834450083 87.36148008990473 6.0
    vertex 81.2470834450083 83.36148008990473 6.0
    vertex 83.2470834450083 85.36148008990473 6.0
  endloop
endfacet
facet normal 1.2646222957369392e-32 2.9273664253169875e-32 1.0
  outer loop
    vertex 81.2470834450083 87.36148008990473 6.0
    vertex 83.2470834450083 85.36148008990473 6.0
    vertex 140.24708344500831 87.36148008990473 6.0
  endloop
endfacet
facet normal 1.2646222957369392e-32 2.9273664253169875e-32 1.0
  outer loop
    vertex 140.24708344500831 87.36148008990473 6.0
    vertex 83.2470834450083 85.36148008990473 6.0
    vertex 89.2470834450083 85.36148008990473 6.0
  endloop
endfacet
facet normal 1.2646222957369392e-32 2.9273664253169875e-32 1.0
  outer loop
    vertex 140.24708344500831 87.36148008990473 6.0
    vertex 89.2470834450083 85.36148008990473 6.0
    vertex 94.2470834450083 85.36148008990473 6.0
  endloop
endfacet
facet normal 1.2646222957369392e-32 2.9273664253169875e-32 1.0
  outer loop
    vertex 94.2470834450083 85.36148008990473 6.0
    vertex 89.2470834450083 85.36148008990473 6.0
    vertex 94.2470834450083 26.36148008990473 6.0
  endloop
endfacet
facet normal 1.2646222957369392e-32 2.9273664253169875e-32 1.0
  outer loop
    vertex 94.2470834450083 85.36148008990473 6.0
    vertex 94.2470834450083 26.36148008990473 6.0
    vertex 94.2470834450083 27.361480089904727 6.0
  endloop
endfacet
facet normal 1.2646222957369392e-32 2.9273664253169875e-32 1.0
  outer loop
    vertex 94.2470834450083 85.36148008990473 6.0
    vertex 94.2470834450083 27.361480089904727 6.0
    vertex 94.2470834450083 84.36148008990473 6.0
  endloop
endfacet
facet normal 1.2646222957369392e-32 2.9273664253169875e-32 1.0
  outer loop
    vertex 140.24708344500831 87.36148008990473 6.0
    vertex 94.2470834450083 85.36148008990473 6.0
    vertex 127.24708344500831 85.36148008990473 6.0
  endloop
endfacet
facet normal 1.2646222957369392e-32 2.9273664253169875e-32 1.0
  outer loop
    vertex 140.24708344500831 87.36148008990473 6.0
    vertex 127.24708344500831 85.36148008990473 6.0
    vertex 132.24708344500831 85.36148008990473 6.0
  endloop
endfacet
facet normal 1.2646222957369392e-32 2.9273664253169875e-32 1.0
  outer loop
    vertex 132.24708344500831 85.36148008990473 6.0
    vertex 127.24708344500831 85.36148008990473 6.0
    vertex 132.24708344500831 26.36148008990473 6.0
  endloop
endfacet
facet normal 1.2646222957369392e-32 2.9273664253169875e-32 1.0
  outer loop
    vertex 132.24708344500831 85.36148008990473 6.0
    vertex 132.24708344500831 26.36148008990473 6.0
    vertex 132.24708344500831 27.361480089904727 6.0
  endloop
endfacet
facet normal 1.2646222957369392e-32 2.9273664253169875e-32 1.0
  outer loop
    vertex 132.24708344500831 85.36148008990473 6.0
    vertex 132.24708344500831 27.361480089904727 6.0
    vertex 132.24708344500831 84.36148008990473 6.0
  endloop
endfacet
facet normal 1.2646222957369392e-32 2.9273664253169875e-32 1.0
  outer loop
    vertex 140.24708344500831 87.36148008990473 6.0
    vertex 132.24708344500831 85.36148008990473 6.0
    vertex 138.24708344500831 85.36148008990473 6.0
  endloop
endfacet
facet normal 1.2646222957369392e-32 2.9273664253169875e-32 1.0
  outer loop
    vertex 140.24708344500831 87.36148008990473 6.0
    vertex 138.24708344500831 85.36148008990473 6.0
    vertex 140.24708344500831 83.36148008990473 6.0
  endloop
endfacet
facet normal 1.2646222957369392e-32 2.9273664253169875e-32 1.0
  outer loop
    vertex 140.24708344500831 72.36148008990473 6.0
    vertex 139.2470834450083 77.36148008990473 6.0
    vertex 139.2470834450083 72.36148008990473 6.0
  endloop
endfacet
facet normal 1.2646222957369392e-32 2.9273664253169875e-32 1.0
  outer loop
    vertex 139.2470834450083 77.36148008990473 6.0
    vertex 140.24708344500831 72.36148008990473 6.0
    vertex 140.24708344500831 77.36148008990473 6.0
  endloop
endfacet
facet normal 1.2646222957369392e-32 2.9273664253169875e-32 1.0
  outer loop
    vertex 140.24708344500831 34.36148008990473 6.0
    vertex 139.2470834450083 39.36148008990474 6.0
    vertex 139.2470834450083 34.36148008990473 6.0
  endloop
endfacet
facet normal 1.2646222957369392e-32 2.9273664253169875e-32 1.0
  outer loop
    vertex 139.2470834450083 39.36148008990474 6.0
    vertex 140.24708344500831 34.36148008990473 6.0
    vertex 140.24708344500831 39.36148008990474 6.0
  endloop
endfacet
facet normal 1.2646222957369392e-32 2.9273664253169875e-32 1.0
  outer loop
    vertex 137.2470834450083 27.361480089904727 6.0
    vertex 132.24708344500831 84.36148008990473 6.0
    vertex 132.24708344500831 27.361480089904727 6.0
  endloop
endfacet
facet normal 1.2646222957369392e-32 2.9273664253169875e-32 1.0
  outer loop
    vertex 132.24708344500831 84.36148008990473 6.0
    vertex 137.2470834450083 27.361480089904727 6.0
    vertex 137.2470834450083 84.36148008990473 6.0
  endloop
endfacet
facet normal 1.2646222957369392e-32 2.9273664253169875e-32 1.0
  outer loop
    vertex 137.2470834450083 84.36148008990473 6.0
    vertex 137.2470834450083 27.361480089904727 6.0
    vertex 139.2470834450083 29.36148008990473 6.0
  endloop
endfacet
facet normal 1.2646222957369392e-32 2.9273664253169875e-32 1.0
  outer loop
    vertex 137.2470834450083 84.36148008990473 6.0
    vertex 139.2470834450083 29.36148008990473 6.0
    vertex 139.2470834450083 82.36148008990473 6.0
  endloop
endfacet
facet normal 1.2646222957369392e-32 2.9273664253169875e-32 1.0
  outer loop
    vertex 139.2470834450083 82.36148008990473 6.0
    vertex 139.2470834450083 29.36148008990473 6.0
    vertex 139.2470834450083 34.36148008990473 6.0
  endloop
endfacet
facet normal 1.2646222957369392e-32 2.9273664253169875e-32 1.0
  outer loop
    vertex 139.2470834450083 82.36148008990473 6.0
    vertex 139.2470834450083 34.36148008990473 6.0
    vertex 139.2470834450083 39.36148008990474 6.0
  endloop
endfacet
facet normal 1.2646222957369392e-32 2.9273664253169875e-32 1.0
  outer loop
    vertex 139.2470834450083 82.36148008990473 6.0
    vertex 139.2470834450083 39.36148008990474 6.0
    vertex 139.2470834450083 72.36148008990473 6.0
  endloop
endfacet
facet normal 1.2646222957369392e-32 2.9273664253169875e-32 1.0
  outer loop
    vertex 139.2470834450083 82.36148008990473 6.0
    vertex 139.2470834450083 72.36148008990473 6.0
    vertex 139.2470834450083 77.36148008990473 6.0
  endloop
endfacet
facet normal 1.2646222957369392e-32 2.9273664253169875e-32 1.0
  outer loop
    vertex 127.24708344500831 27.361480089904727 6.0
    vertex 94.2470834450083 84.36148008990473 6.0
    vertex 94.2470834450083 27.361480089904727 6.0
  endloop
endfacet
facet normal 1.2646222957369392e-32 2.9273664253169875e-32 1.0
  outer loop
    vertex 94.2470834450083 84.36148008990473 6.0
    vertex 127.24708344500831 27.361480089904727 6.0
    vertex 127.24708344500831 84.36148008990473 6.0
  endloop
endfacet
facet normal 1.2646222957369392e-32 2.9273664253169875e-32 1.0
  outer loop
    vertex 84.2470834450083 27.361480089904727 6.0
    vertex 82.2470834450083 34.36148008990473 6.0
    vertex 82.2470834450083 29.36148008990473 6.0
  endloop
endfacet
facet normal 1.2646222957369392e-32 2.9273664253169875e-32 1.0
  outer loop
    vertex 82.2470834450083 34.36148008990473 6.0
    vertex 84.2470834450083 27.361480089904727 6.0
    vertex 82.2470834450083 39.36148008990474 6.0
  endloop
endfacet
facet normal 1.2646222957369392e-32 2.9273664253169875e-32 1.0
  outer loop
    vertex 82.2470834450083 39.36148008990474 6.0
    vertex 84.2470834450083 27.361480089904727 6.0
    vertex 82.2470834450083 72.36148008990473 6.0
  endloop
endfacet
facet normal 1.2646222957369392e-32 2.9273664253169875e-32 1.0
  outer loop
    vertex 82.2470834450083 72.36148008990473 6.0
    vertex 84.2470834450083 27.361480089904727 6.0
    vertex 82.2470834450083 77.36148008990473 6.0
  endloop
endfacet
facet normal 1.2646222957369392e-32 2.9273664253169875e-32 1.0
  outer loop
    vertex 82.2470834450083 77.36148008990473 6.0
    vertex 84.2470834450083 27.361480089904727 6.0
    vertex 82.2470834450083 82.36148008990473 6.0
  endloop
endfacet
facet normal 1.2646222957369392e-32 2.9273664253169875e-32 1.0
  outer loop
    vertex 82.2470834450083 82.36148008990473 6.0
    vertex 84.2470834450083 27.361480089904727 6.0
    vertex 84.2470834450083 84.36148008990473 6.0
  endloop
endfacet
facet normal 1.2646222957369392e-32 2.9273664253169875e-32 1.0
  outer loop
    vertex 84.2470834450083 84.36148008990473 6.0
    vertex 84.2470834450083 27.361480089904727 6.0
    vertex 89.2470834450083 27.361480089904727 6.0
  endloop
endfacet
facet normal 1.2646222957369392e-32 2.9273664253169875e-32 1.0
  outer loop
    vertex 84.2470834450083 84.36148008990473 6.0
    vertex 89.2470834450083 27.361480089904727 6.0
    vertex 89.2470834450083 84.36148008990473 6.0
  endloop
endfacet
facet normal 1.2646222957369392e-32 2.9273664253169875e-32 1.0
  outer loop
    vertex 82.2470834450083 72.36148008990473 6.0
    vertex 81.2470834450083 77.36148008990473 6.0
    vertex 81.2470834450083 72.36148008990473 6.0
  endloop
endfacet
facet normal 1.2646222957369392e-32 2.9273664253169875e-32 1.0
  outer loop
    vertex 81.2470834450083 77.36148008990473 6.0
    vertex 82.2470834450083 72.36148008990473 6.0
    vertex 82.2470834450083 77.36148008990473 6.0
  endloop
endfacet
facet normal 1.2646222957369392e-32 2.9273664253169875e-32 1.0
  outer loop
    vertex 82.2470834450083 34.36148008990473 6.0
    vertex 81.2470834450083 39.36148008990474 6.0
    vertex 81.2470834450083 34.36148008990473 6.0
  endloop
endfacet
facet normal 1.2646222957369392e-32 2.9273664253169875e-32 1.0
  outer loop
    vertex 81.2470834450083 39.36148008990474 6.0
    vertex 82.2470834450083 34.36148008990473 6.0
    vertex 82.2470834450083 39.36148008990474 6.0
  endloop
endfacet
facet normal 0.0 -1.0 0.0
  outer loop
    vertex 140.24708344500831 24.36148008990473 6.0
    vertex 81.2470834450083 24.36148008990473 0.0
    vertex 140.24708344500831 24.36148008990473 0.0
  endloop
endfacet
facet normal 0.0 -1.0 0.0
  outer loop
    vertex 81.2470834450083 24.36148008990473 0.0
    vertex 140.24708344500831 24.36148008990473 6.0
    vertex 81.2470834450083 24.36148008990473 6.0
  endloop
endfacet
facet normal -1.0 0.0 0.0
  outer loop
    vertex 79.24708344500831 85.36148008990473 6.0
    vertex 79.24708344500831 26.36148008990473 0.0
    vertex 79.24708344500831 26.36148008990473 6.0
  endloop
endfacet
facet normal -1.0 0.0 0.0
  outer loop
    vertex 79.24708344500831 26.36148008990473 0.0
    vertex 79.24708344500831 85.36148008990473 6.0
    vertex 79.24708344500831 85.36148008990473 0.0
  endloop
endfacet
facet normal -0.0 1.0 -0.0
  outer loop
    vertex 81.2470834450083 87.36148008990473 6.0
    vertex 140.24708344500831 87.36148008990473 0.0
    vertex 81.2470834450083 87.36148008990473 0.0
  endloop
endfacet
facet normal -0.0 1.0 -0.0
  outer loop
    vertex 140.24708344500831 87.36148008990473 0.0
    vertex 81.2470834450083 87.36148008990473 6.0
    vertex 140.24708344500831 87.36148008990473 6.0
  endloop
endfacet
facet normal 1.0 -0.0 -0.0
  outer loop
    vertex 142.24708344500831 85.36148008990473 0.0
    vertex 142.24708344500831 26.36148008990473 6.0
    vertex 142.24708344500831 26.36148008990473 0.0
  endloop
endfacet
facet normal 1.0 -0.0 -0.0
  outer loop
    vertex 142.24708344500831 26.36148008990473 6.0
    vertex 142.24708344500831 85.36148008990473 0.0
    vertex 142.24708344500831 85.36148008990473 6.0
  endloop
endfacet
facet normal 0.0 -1.0 0.0
  outer loop
    vertex 89.2470834450083 26.36148008990473 22.0
    vertex 83.2470834450083 26.36148008990473 6.0
    vertex 89.2470834450083 26.36148008990473 6.0
  endloop
endfacet
facet normal 0.0 -1.0 0.0
  outer loop
    vertex 83.2470834450083 26.36148008990473 6.0
    vertex 89.2470834450083 26.36148008990473 22.0
    vertex 83.2470834450083 26.36148008990473 22.0
  endloop
endfacet
facet normal 0.7071067811865486 -0.7071067811865466 0.0
  outer loop
    vertex 140.24708344500831 28.36148008990473 6.0
    vertex 138.24708344500831 26.36148008990473 22.0
    vertex 138.24708344500831 26.36148008990473 6.0
  endloop
endfacet
facet normal 0.7071067811865486 -0.7071067811865466 0.0
  outer loop
    vertex 138.24708344500831 26.36148008990473 22.0
    vertex 140.24708344500831 28.36148008990473 6.0
    vertex 140.24708344500831 28.36148008990473 22.0
  endloop
endfacet
facet normal 1.0 -0.0 -0.0
  outer loop
    vertex 140.24708344500831 34.36148008990473 6.0
    vertex 140.24708344500831 28.36148008990473 22.0
    vertex 140.24708344500831 28.36148008990473 6.0
  endloop
endfacet
facet normal 1.0 -0.0 -0.0
  outer loop
    vertex 140.24708344500831 28.36148008990473 22.0
    vertex 140.24708344500831 34.36148008990473 6.0
    vertex 140.24708344500831 34.36148008990473 22.0
  endloop
endfacet
facet normal 0.7071067811865476 0.7071067811865476 0.0
  outer loop
    vertex 138.24708344500831 85.36148008990473 6.0
    vertex 140.24708344500831 83.36148008990473 22.0
    vertex 140.24708344500831 83.36148008990473 6.0
  endloop
endfacet
facet normal 0.7071067811865476 0.7071067811865476 0.0
  outer loop
    vertex 140.24708344500831 83.36148008990473 22.0
    vertex 138.24708344500831 85.36148008990473 6.0
    vertex 138.24708344500831 85.36148008990473 22.0
  endloop
endfacet
facet normal -0.0 1.0 -0.0
  outer loop
    vertex 132.24708344500831 85.36148008990473 22.0
    vertex 138.24708344500831 85.36148008990473 6.0
    vertex 132.24708344500831 85.36148008990473 6.0
  endloop
endfacet
facet normal -0.0 1.0 -0.0
  outer loop
    vertex 138.24708344500831 85.36148008990473 6.0
    vertex 132.24708344500831 85.36148008990473 22.0
    vertex 138.24708344500831 85.36148008990473 22.0
  endloop
endfacet
facet normal -0.7071067811865476 0.7071067811865476 0.0
  outer loop
    vertex 83.2470834450083 85.36148008990473 22.0
    vertex 81.2470834450083 83.36148008990473 6.0
    vertex 81.2470834450083 83.36148008990473 22.0
  endloop
endfacet
facet normal -0.7071067811865476 0.7071067811865476 0.0
  outer loop
    vertex 81.2470834450083 83.36148008990473 6.0
    vertex 83.2470834450083 85.36148008990473 22.0
    vertex 83.2470834450083 85.36148008990473 6.0
  endloop
endfacet
facet normal -1.0 0.0 0.0
  outer loop
    vertex 81.2470834450083 83.36148008990473 22.0
    vertex 81.2470834450083 77.36148008990473 6.0
    vertex 81.2470834450083 77.36148008990473 22.0
  endloop
endfacet
facet normal -1.0 0.0 0.0
  outer loop
    vertex 81.2470834450083 77.36148008990473 6.0
    vertex 81.2470834450083 83.36148008990473 22.0
    vertex 81.2470834450083 83.36148008990473 6.0
  endloop
endfacet
facet normal -0.7071067811865486 -0.7071067811865466 -0.0
  outer loop
    vertex 81.2470834450083 28.36148008990473 22.0
    vertex 83.2470834450083 26.36148008990473 6.0
    vertex 83.2470834450083 26.36148008990473 22.0
  endloop
endfacet
facet normal -0.7071067811865486 -0.7071067811865466 -0.0
  outer loop
    vertex 83.2470834450083 26.36148008990473 6.0
    vertex 81.2470834450083 28.36148008990473 22.0
    vertex 81.2470834450083 28.36148008990473 6.0
  endloop
endfacet
facet normal -1.0 0.0 0.0
  outer loop
    vertex 139.2470834450083 82.36148008990473 22.0
    vertex 139.2470834450083 77.36148008990473 6.0
    vertex 139.2470834450083 77.36148008990473 22.0
  endloop
endfacet
facet normal -1.0 0.0 0.0
  outer loop
    vertex 139.2470834450083 77.36148008990473 6.0
    vertex 139.2470834450083 82.36148008990473 22.0
    vertex 139.2470834450083 82.36148008990473 6.0
  endloop
endfacet
facet normal -0.7071067811865486 0.7071067811865466 0.0
  outer loop
    vertex 139.2470834450083 29.36148008990473 22.0
    vertex 137.2470834450083 27.361480089904727 6.0
    vertex 137.2470834450083 27.361480089904727 22.0
  endloop
endfacet
facet normal -0.7071067811865486 0.7071067811865466 0.0
  outer loop
    vertex 137.2470834450083 27.361480089904727 6.0
    vertex 139.2470834450083 29.36148008990473 22.0
    vertex 139.2470834450083 29.36148008990473 6.0
  endloop
endfacet
facet normal -0.0 1.0 -0.0
  outer loop
    vertex 132.24708344500831 27.361480089904727 22.0
    vertex 137.2470834450083 27.361480089904727 6.0
    vertex 132.24708344500831 27.361480089904727 6.0
  endloop
endfacet
facet normal -0.0 1.0 -0.0
  outer loop
    vertex 137.2470834450083 27.361480089904727 6.0
    vertex 132.24708344500831 27.361480089904727 22.0
    vertex 137.2470834450083 27.361480089904727 22.0
  endloop
endfacet
facet normal 0.7071067811865486 0.7071067811865466 0.0
  outer loop
    vertex 82.2470834450083 29.36148008990473 6.0
    vertex 84.2470834450083 27.361480089904727 22.0
    vertex 84.2470834450083 27.361480089904727 6.0
  endloop
endfacet
facet normal 0.7071067811865486 0.7071067811865466 0.0
  outer loop
    vertex 84.2470834450083 27.361480089904727 22.0
    vertex 82.2470834450083 29.36148008990473 6.0
    vertex 82.2470834450083 29.36148008990473 22.0
  endloop
endfacet
facet normal 1.0 -0.0 -0.0
  outer loop
    vertex 82.2470834450083 34.36148008990473 6.0
    vertex 82.2470834450083 29.36148008990473 22.0
    vertex 82.2470834450083 29.36148008990473 6.0
  endloop
endfacet
facet normal 1.0 -0.0 -0.0
  outer loop
    vertex 82.2470834450083 29.36148008990473 22.0
    vertex 82.2470834450083 34.36148008990473 6.0
    vertex 82.2470834450083 34.36148008990473 22.0
  endloop
endfacet
facet normal 0.7071067811865476 -0.7071067811865476 0.0
  outer loop
    vertex 84.2470834450083 84.36148008990473 6.0
    vertex 82.2470834450083 82.36148008990473 22.0
    vertex 82.2470834450083 82.36148008990473 6.0
  endloop
endfacet
facet normal 0.7071067811865476 -0.7071067811865476 0.0
  outer loop
    vertex 82.2470834450083 82.36148008990473 22.0
    vertex 84.2470834450083 84.36148008990473 6.0
    vertex 84.2470834450083 84.36148008990473 22.0
  endloop
endfacet
facet normal 0.0 -1.0 0.0
  outer loop
    vertex 89.2470834450083 84.36148008990473 22.0
    vertex 84.2470834450083 84.36148008990473 6.0
    vertex 89.2470834450083 84.36148008990473 6.0
  endloop
endfacet
facet normal 0.0 -1.0 0.0
  outer loop
    vertex 84.2470834450083 84.36148008990473 6.0
    vertex 89.2470834450083 84.36148008990473 22.0
    vertex 84.2470834450083 84.36148008990473 22.0
  endloop
endfacet
facet normal -0.7071067811865476 -0.7071067811865476 -0.0
  outer loop
    vertex 137.2470834450083 84.36148008990473 22.0
    vertex 139.2470834450083 82.36148008990473 6.0
    vertex 139.2470834450083 82.36148008990473 22.0
  endloop
endfacet
facet normal -0.7071067811865476 -0.7071067811865476 -0.0
  outer loop
    vertex 139.2470834450083 82.36148008990473 6.0
    vertex 137.2470834450083 84.36148008990473 22.0
    vertex 137.2470834450083 84.36148008990473 6.0
  endloop
endfacet
facet normal 0.9818749070717936 -0.18953012125452964 -0.0
  outer loop
    vertex 142.24708344500831 26.36148008990473 0.0
    vertex 142.17471008739295 25.986544521285392 6.0
    vertex 142.17471008739295 25.986544521285392 0.0
  endloop
endfacet
facet normal 0.9818749070717936 -0.18953012125452964 -0.0
  outer loop
    vertex 142.17471008739295 25.986544521285392 6.0
    vertex 142.24708344500831 26.36148008990473 0.0
    vertex 142.24708344500831 26.36148008990473 6.0
  endloop
endfacet
facet normal 0.9356845756375898 -0.35283760416642623 -0.0
  outer loop
    vertex 142.17471008739295 25.986544521285392 0.0
    vertex 142.03997666382176 25.629247042871096 6.0
    vertex 142.03997666382176 25.629247042871096 0.0
  endloop
endfacet
facet normal 0.9356845756375898 -0.35283760416642623 -0.0
  outer loop
    vertex 142.03997666382176 25.629247042871096 6.0
    vertex 142.17471008739295 25.986544521285392 0.0
    vertex 142.17471008739295 25.986544521285392 6.0
  endloop
endfacet
facet normal 0.8625438330050059 -0.50598234766149 -0.0
  outer loop
    vertex 142.03997666382176 25.629247042871096 0.0
    vertex 141.84676388501924 25.29987885130453 6.0
    vertex 141.84676388501924 25.29987885130453 0.0
  endloop
endfacet
facet normal 0.8625438330050059 -0.50598234766149 -0.0
  outer loop
    vertex 141.84676388501924 25.29987885130453 6.0
    vertex 142.03997666382176 25.629247042871096 0.0
    vertex 142.03997666382176 25.629247042871096 6.0
  endloop
endfacet
facet normal 0.7645593432578487 -0.644553341964129 -0.0
  outer loop
    vertex 141.84676388501924 25.29987885130453 0.0
    vertex 141.6006368356016 25.007926699311454 6.0
    vertex 141.6006368356016 25.007926699311454 0.0
  endloop
endfacet
facet normal 0.7645593432578487 -0.644553341964129 -0.0
  outer loop
    vertex 141.6006368356016 25.007926699311454 6.0
    vertex 141.84676388501924 25.29987885130453 0.0
    vertex 141.84676388501924 25.29987885130453 6.0
  endloop
endfacet
facet normal 0.6445533419641246 -0.7645593432578522 -0.0
  outer loop
    vertex 141.6006368356016 25.007926699311454 6.0
    vertex 141.3086846836085 24.761799649893803 0.0
    vertex 141.6006368356016 25.007926699311454 0.0
  endloop
endfacet
facet normal 0.6445533419641246 -0.7645593432578522 -0.0
  outer loop
    vertex 141.3086846836085 24.761799649893803 0.0
    vertex 141.6006368356016 25.007926699311454 6.0
    vertex 141.3086846836085 24.761799649893803 6.0
  endloop
endfacet
facet normal 0.5059823476614967 -0.8625438330050019 -0.0
  outer loop
    vertex 141.3086846836085 24.761799649893803 6.0
    vertex 140.97931649204193 24.568586871091277 0.0
    vertex 141.3086846836085 24.761799649893803 0.0
  endloop
endfacet
facet normal 0.5059823476614967 -0.8625438330050019 -0.0
  outer loop
    vertex 140.97931649204193 24.568586871091277 0.0
    vertex 141.3086846836085 24.761799649893803 6.0
    vertex 140.97931649204193 24.568586871091277 6.0
  endloop
endfacet
facet normal 0.35283760416643106 -0.935684575637588 -0.0
  outer loop
    vertex 140.97931649204193 24.568586871091277 6.0
    vertex 140.62201901362764 24.43385344752009 0.0
    vertex 140.97931649204193 24.568586871091277 0.0
  endloop
endfacet
facet normal 0.35283760416643106 -0.935684575637588 -0.0
  outer loop
    vertex 140.62201901362764 24.43385344752009 0.0
    vertex 140.97931649204193 24.568586871091277 6.0
    vertex 140.62201901362764 24.43385344752009 6.0
  endloop
endfacet
facet normal 0.1895301212545182 -0.9818749070717959 0.0
  outer loop
    vertex 140.62201901362764 24.43385344752009 6.0
    vertex 140.24708344500831 24.36148008990473 0.0
    vertex 140.62201901362764 24.43385344752009 0.0
  endloop
endfacet
facet normal 0.1895301212545182 -0.9818749070717959 0.0
  outer loop
    vertex 140.24708344500831 24.36148008990473 0.0
    vertex 140.62201901362764 24.43385344752009 6.0
    vertex 140.24708344500831 24.36148008990473 6.0
  endloop
endfacet
facet normal 0.18953012125450402 0.9818749070717987 -0.0
  outer loop
    vertex 140.24708344500831 87.36148008990473 6.0
    vertex 140.62201901362764 87.28910673228937 0.0
    vertex 140.24708344500831 87.36148008990473 0.0
  endloop
endfacet
facet normal 0.18953012125450402 0.9818749070717987 -0.0
  outer loop
    vertex 140.62201901362764 87.28910673228937 0.0
    vertex 140.24708344500831 87.36148008990473 6.0
    vertex 140.62201901362764 87.28910673228937 6.0
  endloop
endfacet
facet normal 0.35283760416643106 0.935684575637588 0.0
  outer loop
    vertex 140.62201901362764 87.28910673228937 6.0
    vertex 140.97931649204193 87.15437330871819 0.0
    vertex 140.62201901362764 87.28910673228937 0.0
  endloop
endfacet
facet normal 0.35283760416643106 0.935684575637588 0.0
  outer loop
    vertex 140.97931649204193 87.15437330871819 0.0
    vertex 140.62201901362764 87.28910673228937 6.0
    vertex 140.97931649204193 87.15437330871819 6.0
  endloop
endfacet
facet normal 0.5059823476615022 0.8625438330049986 0.0
  outer loop
    vertex 140.97931649204193 87.15437330871819 6.0
    vertex 141.3086846836085 86.96116052991566 0.0
    vertex 140.97931649204193 87.15437330871819 0.0
  endloop
endfacet
facet normal 0.5059823476615022 0.8625438330049986 0.0
  outer loop
    vertex 141.3086846836085 86.96116052991566 0.0
    vertex 140.97931649204193 87.15437330871819 6.0
    vertex 141.3086846836085 86.96116052991566 6.0
  endloop
endfacet
facet normal 0.644553341964129 0.7645593432578487 0.0
  outer loop
    vertex 141.3086846836085 86.96116052991566 6.0
    vertex 141.6006368356016 86.71503348049801 0.0
    vertex 141.3086846836085 86.96116052991566 0.0
  endloop
endfacet
facet normal 0.644553341964129 0.7645593432578487 0.0
  outer loop
    vertex 141.6006368356016 86.71503348049801 0.0
    vertex 141.3086846836085 86.96116052991566 6.0
    vertex 141.6006368356016 86.71503348049801 6.0
  endloop
endfacet
facet normal 0.7645593432578487 0.644553341964129 0.0
  outer loop
    vertex 141.6006368356016 86.71503348049801 0.0
    vertex 141.84676388501924 86.42308132850494 6.0
    vertex 141.84676388501924 86.42308132850494 0.0
  endloop
endfacet
facet normal 0.7645593432578487 0.644553341964129 0.0
  outer loop
    vertex 141.84676388501924 86.42308132850494 6.0
    vertex 141.6006368356016 86.71503348049801 0.0
    vertex 141.6006368356016 86.71503348049801 6.0
  endloop
endfacet
facet normal 0.8625438330050039 0.5059823476614931 0.0
  outer loop
    vertex 141.84676388501924 86.42308132850494 0.0
    vertex 142.03997666382176 86.09371313693836 6.0
    vertex 142.03997666382176 86.09371313693836 0.0
  endloop
endfacet
facet normal 0.8625438330050039 0.5059823476614931 0.0
  outer loop
    vertex 142.03997666382176 86.09371313693836 6.0
    vertex 141.84676388501924 86.42308132850494 0.0
    vertex 141.84676388501924 86.42308132850494 6.0
  endloop
endfacet
facet normal 0.9356845756375916 0.3528376041664213 0.0
  outer loop
    vertex 142.03997666382176 86.09371313693836 0.0
    vertex 142.17471008739295 85.73641565852407 6.0
    vertex 142.17471008739295 85.73641565852407 0.0
  endloop
endfacet
facet normal 0.9356845756375916 0.3528376041664213 0.0
  outer loop
    vertex 142.17471008739295 85.73641565852407 6.0
    vertex 142.03997666382176 86.09371313693836 0.0
    vertex 142.03997666382176 86.09371313693836 6.0
  endloop
endfacet
facet normal 0.9818749070717931 0.18953012125453245 -0.0
  outer loop
    vertex 142.17471008739295 85.73641565852407 0.0
    vertex 142.24708344500831 85.36148008990473 6.0
    vertex 142.24708344500831 85.36148008990473 0.0
  endloop
endfacet
facet normal 0.9818749070717931 0.18953012125453245 -0.0
  outer loop
    vertex 142.24708344500831 85.36148008990473 6.0
    vertex 142.17471008739295 85.73641565852407 0.0
    vertex 142.17471008739295 85.73641565852407 6.0
  endloop
endfacet
facet normal -0.9818749070717987 0.18953012125450402 0.0
  outer loop
    vertex 79.31945680262366 85.73641565852407 6.0
    vertex 79.24708344500831 85.36148008990473 0.0
    vertex 79.24708344500831 85.36148008990473 6.0
  endloop
endfacet
facet normal -0.9818749070717987 0.18953012125450402 0.0
  outer loop
    vertex 79.24708344500831 85.36148008990473 0.0
    vertex 79.31945680262366 85.73641565852407 6.0
    vertex 79.31945680262366 85.73641565852407 0.0
  endloop
endfacet
facet normal -0.9356845756375916 0.3528376041664213 -0.0
  outer loop
    vertex 79.45419022619485 86.09371313693836 6.0
    vertex 79.31945680262366 85.73641565852407 0.0
    vertex 79.31945680262366 85.73641565852407 6.0
  endloop
endfacet
facet normal -0.9356845756375916 0.3528376041664213 -0.0
  outer loop
    vertex 79.31945680262366 85.73641565852407 0.0
    vertex 79.45419022619485 86.09371313693836 6.0
    vertex 79.45419022619485 86.09371313693836 0.0
  endloop
endfacet
facet normal -0.8625438330049909 0.5059823476615151 -0.0
  outer loop
    vertex 79.64740300499737 86.42308132850494 6.0
    vertex 79.45419022619485 86.09371313693836 0.0
    vertex 79.45419022619485 86.09371313693836 6.0
  endloop
endfacet
facet normal -0.8625438330049909 0.5059823476615151 -0.0
  outer loop
    vertex 79.45419022619485 86.09371313693836 0.0
    vertex 79.64740300499737 86.42308132850494 6.0
    vertex 79.64740300499737 86.42308132850494 0.0
  endloop
endfacet
facet normal -0.7645593432578487 0.644553341964129 -0.0
  outer loop
    vertex 79.89353005441504 86.71503348049801 6.0
    vertex 79.64740300499737 86.42308132850494 0.0
    vertex 79.64740300499737 86.42308132850494 6.0
  endloop
endfacet
facet normal -0.7645593432578487 0.644553341964129 -0.0
  outer loop
    vertex 79.64740300499737 86.42308132850494 0.0
    vertex 79.89353005441504 86.71503348049801 6.0
    vertex 79.89353005441504 86.71503348049801 0.0
  endloop
endfacet
facet normal -0.644553341964129 0.7645593432578487 -0.0
  outer loop
    vertex 79.89353005441504 86.71503348049801 6.0
    vertex 80.18548220640811 86.96116052991566 0.0
    vertex 79.89353005441504 86.71503348049801 0.0
  endloop
endfacet
facet normal -0.644553341964129 0.7645593432578487 -0.0
  outer loop
    vertex 80.18548220640811 86.96116052991566 0.0
    vertex 79.89353005441504 86.71503348049801 6.0
    vertex 80.18548220640811 86.96116052991566 6.0
  endloop
endfacet
facet normal -0.5059823476615151 0.8625438330049909 -0.0
  outer loop
    vertex 80.18548220640811 86.96116052991566 6.0
    vertex 80.51485039797467 87.15437330871819 0.0
    vertex 80.18548220640811 86.96116052991566 0.0
  endloop
endfacet
facet normal -0.5059823476615151 0.8625438330049909 -0.0
  outer loop
    vertex 80.51485039797467 87.15437330871819 0.0
    vertex 80.18548220640811 86.96116052991566 6.0
    vertex 80.51485039797467 87.15437330871819 6.0
  endloop
endfacet
facet normal -0.3528376041664213 0.9356845756375916 -0.0
  outer loop
    vertex 80.51485039797467 87.15437330871819 6.0
    vertex 80.87214787638896 87.28910673228937 0.0
    vertex 80.51485039797467 87.15437330871819 0.0
  endloop
endfacet
facet normal -0.3528376041664213 0.9356845756375916 -0.0
  outer loop
    vertex 80.87214787638896 87.28910673228937 0.0
    vertex 80.51485039797467 87.15437330871819 6.0
    vertex 80.87214787638896 87.28910673228937 6.0
  endloop
endfacet
facet normal -0.18953012125450402 0.9818749070717987 -0.0
  outer loop
    vertex 80.87214787638896 87.28910673228937 6.0
    vertex 81.2470834450083 87.36148008990473 0.0
    vertex 80.87214787638896 87.28910673228937 0.0
  endloop
endfacet
facet normal -0.18953012125450402 0.9818749070717987 -0.0
  outer loop
    vertex 81.2470834450083 87.36148008990473 0.0
    vertex 80.87214787638896 87.28910673228937 6.0
    vertex 81.2470834450083 87.36148008990473 6.0
  endloop
endfacet
facet normal -0.18953012125452529 -0.9818749070717945 0.0
  outer loop
    vertex 81.2470834450083 24.36148008990473 6.0
    vertex 80.87214787638896 24.433853447520093 0.0
    vertex 81.2470834450083 24.36148008990473 0.0
  endloop
endfacet
facet normal -0.18953012125452529 -0.9818749070717945 0.0
  outer loop
    vertex 80.87214787638896 24.433853447520093 0.0
    vertex 81.2470834450083 24.36148008990473 6.0
    vertex 80.87214787638896 24.433853447520093 6.0
  endloop
endfacet
facet normal -0.3528376041664213 -0.9356845756375916 -0.0
  outer loop
    vertex 80.87214787638896 24.433853447520093 6.0
    vertex 80.51485039797467 24.568586871091277 0.0
    vertex 80.87214787638896 24.433853447520093 0.0
  endloop
endfacet
facet normal -0.3528376041664213 -0.9356845756375916 -0.0
  outer loop
    vertex 80.51485039797467 24.568586871091277 0.0
    vertex 80.87214787638896 24.433853447520093 6.0
    vertex 80.51485039797467 24.568586871091277 6.0
  endloop
endfacet
facet normal -0.5059823476615151 -0.8625438330049909 -0.0
  outer loop
    vertex 80.51485039797467 24.568586871091277 6.0
    vertex 80.18548220640811 24.761799649893806 0.0
    vertex 80.51485039797467 24.568586871091277 0.0
  endloop
endfacet
facet normal -0.5059823476615151 -0.8625438330049909 -0.0
  outer loop
    vertex 80.18548220640811 24.761799649893806 0.0
    vertex 80.51485039797467 24.568586871091277 6.0
    vertex 80.18548220640811 24.761799649893806 6.0
  endloop
endfacet
facet normal -0.6445533419641203 -0.7645593432578558 -0.0
  outer loop
    vertex 80.18548220640811 24.761799649893806 6.0
    vertex 79.89353005441504 25.007926699311458 0.0
    vertex 80.18548220640811 24.761799649893806 0.0
  endloop
endfacet
facet normal -0.6445533419641203 -0.7645593432578558 -0.0
  outer loop
    vertex 79.89353005441504 25.007926699311458 0.0
    vertex 80.18548220640811 24.761799649893806 6.0
    vertex 79.89353005441504 25.007926699311458 6.0
  endloop
endfacet
facet normal -0.7645593432578631 -0.6445533419641116 -0.0
  outer loop
    vertex 79.64740300499739 25.29987885130453 6.0
    vertex 79.89353005441504 25.007926699311458 0.0
    vertex 79.89353005441504 25.007926699311458 6.0
  endloop
endfacet
facet normal -0.7645593432578631 -0.6445533419641116 -0.0
  outer loop
    vertex 79.89353005441504 25.007926699311458 0.0
    vertex 79.64740300499739 25.29987885130453 6.0
    vertex 79.64740300499739 25.29987885130453 0.0
  endloop
endfacet
facet normal -0.8625438330049947 -0.5059823476615086 -0.0
  outer loop
    vertex 79.45419022619485 25.629247042871103 6.0
    vertex 79.64740300499739 25.29987885130453 0.0
    vertex 79.64740300499739 25.29987885130453 6.0
  endloop
endfacet
facet normal -0.8625438330049947 -0.5059823476615086 -0.0
  outer loop
    vertex 79.64740300499739 25.29987885130453 0.0
    vertex 79.45419022619485 25.629247042871103 6.0
    vertex 79.45419022619485 25.629247042871103 0.0
  endloop
endfacet
facet normal -0.9356845756375898 -0.35283760416642623 -0.0
  outer loop
    vertex 79.31945680262368 25.986544521285396 6.0
    vertex 79.45419022619485 25.629247042871103 0.0
    vertex 79.45419022619485 25.629247042871103 6.0
  endloop
endfacet
facet normal -0.9356845756375898 -0.35283760416642623 -0.0
  outer loop
    vertex 79.45419022619485 25.629247042871103 0.0
    vertex 79.31945680262368 25.986544521285396 6.0
    vertex 79.31945680262368 25.986544521285396 0.0
  endloop
endfacet
facet normal -0.9818749070717931 -0.1895301212545324 0.0
  outer loop
    vertex 79.24708344500831 26.36148008990473 6.0
    vertex 79.31945680262368 25.986544521285396 0.0
    vertex 79.31945680262368 25.986544521285396 6.0
  endloop
endfacet
facet normal -0.9818749070717931 -0.1895301212545324 0.0
  outer loop
    vertex 79.31945680262368 25.986544521285396 0.0
    vertex 79.24708344500831 26.36148008990473 6.0
    vertex 79.24708344500831 26.36148008990473 0.0
  endloop
endfacet
facet normal -0.0 -0.0 1.0
  outer loop
    vertex 140.24708344500831 77.36148008990473 22.0
    vertex 139.2470834450083 82.36148008990473 22.0
    vertex 139.2470834450083 77.36148008990473 22.0
  endloop
endfacet
facet normal -0.0 -0.0 1.0
  outer loop
    vertex 137.2470834450083 84.36148008990473 22.0
    vertex 132.24708344500831 85.36148008990473 22.0
    vertex 132.24708344500831 84.36148008990473 22.0
  endloop
endfacet
facet normal -0.0 -0.0 1.0
  outer loop
    vertex 132.24708344500831 85.36148008990473 22.0
    vertex 137.2470834450083 84.36148008990473 22.0
    vertex 138.24708344500831 85.36148008990473 22.0
  endloop
endfacet
facet normal -0.0 -0.0 1.0
  outer loop
    vertex 138.24708344500831 85.36148008990473 22.0
    vertex 137.2470834450083 84.36148008990473 22.0
    vertex 139.2470834450083 82.36148008990473 22.0
  endloop
endfacet
facet normal -0.0 -0.0 1.0
  outer loop
    vertex 138.24708344500831 85.36148008990473 22.0
    vertex 139.2470834450083 82.36148008990473 22.0
    vertex 140.24708344500831 83.36148008990473 22.0
  endloop
endfacet
facet normal -0.0 -0.0 1.0
  outer loop
    vertex 140.24708344500831 83.36148008990473 22.0
    vertex 139.2470834450083 82.36148008990473 22.0
    vertex 140.24708344500831 77.36148008990473 22.0
  endloop
endfacet
facet normal -1.0 0.0 0.0
  outer loop
    vertex 132.24708344500831 85.36148008990473 22.0
    vertex 132.24708344500831 84.36148008990473 6.0
    vertex 132.24708344500831 84.36148008990473 22.0
  endloop
endfacet
facet normal -1.0 0.0 0.0
  outer loop
    vertex 132.24708344500831 84.36148008990473 6.0
    vertex 132.24708344500831 85.36148008990473 22.0
    vertex 132.24708344500831 85.36148008990473 6.0
  endloop
endfacet
facet normal 1.0 -0.0 -0.0
  outer loop
    vertex 127.24708344500831 85.36148008990473 6.0
    vertex 127.24708344500831 84.36148008990473 22.0
    vertex 127.24708344500831 84.36148008990473 6.0
  endloop
endfacet
facet normal 1.0 -0.0 -0.0
  outer loop
    vertex 127.24708344500831 84.36148008990473 22.0
    vertex 127.24708344500831 85.36148008990473 6.0
    vertex 127.24708344500831 85.36148008990473 22.0
  endloop
endfacet
facet normal 0.0 -1.0 0.0
  outer loop
    vertex 137.2470834450083 84.36148008990473 22.0
    vertex 132.24708344500831 84.36148008990473 6.0
    vertex 137.2470834450083 84.36148008990473 6.0
  endloop
endfacet
facet normal 0.0 -1.0 0.0
  outer loop
    vertex 132.24708344500831 84.36148008990473 6.0
    vertex 137.2470834450083 84.36148008990473 22.0
    vertex 132.24708344500831 84.36148008990473 22.0
  endloop
endfacet
facet normal -0.0 1.0 -0.0
  outer loop
    vertex 94.2470834450083 85.36148008990473 22.0
    vertex 127.24708344500831 85.36148008990473 6.0
    vertex 94.2470834450083 85.36148008990473 6.0
  endloop
endfacet
facet normal -0.0 1.0 -0.0
  outer loop
    vertex 127.24708344500831 85.36148008990473 6.0
    vertex 94.2470834450083 85.36148008990473 22.0
    vertex 127.24708344500831 85.36148008990473 22.0
  endloop
endfacet
facet normal -0.0 -0.0 1.0
  outer loop
    vertex 127.24708344500831 84.36148008990473 22.0
    vertex 94.2470834450083 85.36148008990473 22.0
    vertex 94.2470834450083 84.36148008990473 22.0
  endloop
endfacet
facet normal -0.0 -0.0 1.0
  outer loop
    vertex 94.2470834450083 85.36148008990473 22.0
    vertex 127.24708344500831 84.36148008990473 22.0
    vertex 127.24708344500831 85.36148008990473 22.0
  endloop
endfacet
facet normal 1.0 -0.0 -0.0
  outer loop
    vertex 89.2470834450083 85.36148008990473 6.0
    vertex 89.2470834450083 84.36148008990473 22.0
    vertex 89.2470834450083 84.36148008990473 6.0
  endloop
endfacet
facet normal 1.0 -0.0 -0.0
  outer loop
    vertex 89.2470834450083 84.36148008990473 22.0
    vertex 89.2470834450083 85.36148008990473 6.0
    vertex 89.2470834450083 85.36148008990473 22.0
  endloop
endfacet
facet normal -1.0 0.0 0.0
  outer loop
    vertex 94.2470834450083 85.36148008990473 22.0
    vertex 94.2470834450083 84.36148008990473 6.0
    vertex 94.2470834450083 84.36148008990473 22.0
  endloop
endfacet
facet normal -1.0 0.0 0.0
  outer loop
    vertex 94.2470834450083 84.36148008990473 6.0
    vertex 94.2470834450083 85.36148008990473 22.0
    vertex 94.2470834450083 85.36148008990473 6.0
  endloop
endfacet
facet normal 0.0 -1.0 0.0
  outer loop
    vertex 127.24708344500831 84.36148008990473 22.0
    vertex 94.2470834450083 84.36148008990473 6.0
    vertex 127.24708344500831 84.36148008990473 6.0
  endloop
endfacet
facet normal 0.0 -1.0 0.0
  outer loop
    vertex 94.2470834450083 84.36148008990473 6.0
    vertex 127.24708344500831 84.36148008990473 22.0
    vertex 94.2470834450083 84.36148008990473 22.0
  endloop
endfacet
facet normal -0.0 1.0 -0.0
  outer loop
    vertex 83.2470834450083 85.36148008990473 22.0
    vertex 89.2470834450083 85.36148008990473 6.0
    vertex 83.2470834450083 85.36148008990473 6.0
  endloop
endfacet
facet normal -0.0 1.0 -0.0
  outer loop
    vertex 89.2470834450083 85.36148008990473 6.0
    vertex 83.2470834450083 85.36148008990473 22.0
    vertex 89.2470834450083 85.36148008990473 22.0
  endloop
endfacet
facet normal -0.0 -0.0 1.0
  outer loop
    vertex 138.24708344500831 26.36148008990473 22.0
    vertex 132.24708344500831 27.361480089904727 22.0
    vertex 132.24708344500831 26.36148008990473 22.0
  endloop
endfacet
facet normal -0.0 -0.0 1.0
  outer loop
    vertex 132.24708344500831 27.361480089904727 22.0
    vertex 138.24708344500831 26.36148008990473 22.0
    vertex 137.2470834450083 27.361480089904727 22.0
  endloop
endfacet
facet normal -0.0 -0.0 1.0
  outer loop
    vertex 137.2470834450083 27.361480089904727 22.0
    vertex 138.24708344500831 26.36148008990473 22.0
    vertex 139.2470834450083 29.36148008990473 22.0
  endloop
endfacet
facet normal -0.0 -0.0 1.0
  outer loop
    vertex 139.2470834450083 29.36148008990473 22.0
    vertex 138.24708344500831 26.36148008990473 22.0
    vertex 140.24708344500831 28.36148008990473 22.0
  endloop
endfacet
facet normal -0.0 -0.0 1.0
  outer loop
    vertex 139.2470834450083 29.36148008990473 22.0
    vertex 140.24708344500831 28.36148008990473 22.0
    vertex 139.2470834450083 34.36148008990473 22.0
  endloop
endfacet
facet normal -0.0 -0.0 1.0
  outer loop
    vertex 139.2470834450083 34.36148008990473 22.0
    vertex 140.24708344500831 28.36148008990473 22.0
    vertex 140.24708344500831 34.36148008990473 22.0
  endloop
endfacet
facet normal -0.0 -0.0 1.0
  outer loop
    vertex 140.24708344500831 39.36148008990474 22.0
    vertex 139.2470834450083 72.36148008990473 22.0
    vertex 139.2470834450083 39.36148008990474 22.0
  endloop
endfacet
facet normal -0.0 -0.0 1.0
  outer loop
    vertex 139.2470834450083 72.36148008990473 22.0
    vertex 140.24708344500831 39.36148008990474 22.0
    vertex 140.24708344500831 72.36148008990473 22.0
  endloop
endfacet
facet normal -0.0 1.0 -0.0
  outer loop
    vertex 139.2470834450083 72.36148008990473 22.0
    vertex 140.24708344500831 72.36148008990473 6.0
    vertex 139.2470834450083 72.36148008990473 6.0
  endloop
endfacet
facet normal -0.0 1.0 -0.0
  outer loop
    vertex 140.24708344500831 72.36148008990473 6.0
    vertex 139.2470834450083 72.36148008990473 22.0
    vertex 140.24708344500831 72.36148008990473 22.0
  endloop
endfacet
facet normal 0.0 -1.0 0.0
  outer loop
    vertex 140.24708344500831 77.36148008990473 22.0
    vertex 139.2470834450083 77.36148008990473 6.0
    vertex 140.24708344500831 77.36148008990473 6.0
  endloop
endfacet
facet normal 0.0 -1.0 0.0
  outer loop
    vertex 139.2470834450083 77.36148008990473 6.0
    vertex 140.24708344500831 77.36148008990473 22.0
    vertex 139.2470834450083 77.36148008990473 22.0
  endloop
endfacet
facet normal -1.0 0.0 0.0
  outer loop
    vertex 139.2470834450083 72.36148008990473 22.0
    vertex 139.2470834450083 39.36148008990474 6.0
    vertex 139.2470834450083 39.36148008990474 22.0
  endloop
endfacet
facet normal -1.0 0.0 0.0
  outer loop
    vertex 139.2470834450083 39.36148008990474 6.0
    vertex 139.2470834450083 72.36148008990473 22.0
    vertex 139.2470834450083 72.36148008990473 6.0
  endloop
endfacet
facet normal 1.0 -0.0 -0.0
  outer loop
    vertex 140.24708344500831 83.36148008990473 6.0
    vertex 140.24708344500831 77.36148008990473 22.0
    vertex 140.24708344500831 77.36148008990473 6.0
  endloop
endfacet
facet normal 1.0 -0.0 -0.0
  outer loop
    vertex 140.24708344500831 77.36148008990473 22.0
    vertex 140.24708344500831 83.36148008990473 6.0
    vertex 140.24708344500831 83.36148008990473 22.0
  endloop
endfacet
facet normal 0.0 -1.0 0.0
  outer loop
    vertex 140.24708344500831 39.36148008990474 22.0
    vertex 139.2470834450083 39.36148008990474 6.0
    vertex 140.24708344500831 39.36148008990474 6.0
  endloop
endfacet
facet normal 0.0 -1.0 0.0
  outer loop
    vertex 139.2470834450083 39.36148008990474 6.0
    vertex 140.24708344500831 39.36148008990474 22.0
    vertex 139.2470834450083 39.36148008990474 22.0
  endloop
endfacet
facet normal -0.0 1.0 -0.0
  outer loop
    vertex 139.2470834450083 34.36148008990473 22.0
    vertex 140.24708344500831 34.36148008990473 6.0
    vertex 139.2470834450083 34.36148008990473 6.0
  endloop
endfacet
facet normal -0.0 1.0 -0.0
  outer loop
    vertex 140.24708344500831 34.36148008990473 6.0
    vertex 139.2470834450083 34.36148008990473 22.0
    vertex 140.24708344500831 34.36148008990473 22.0
  endloop
endfacet
facet normal -1.0 0.0 0.0
  outer loop
    vertex 139.2470834450083 34.36148008990473 22.0
    vertex 139.2470834450083 29.36148008990473 6.0
    vertex 139.2470834450083 29.36148008990473 22.0
  endloop
endfacet
facet normal -1.0 0.0 0.0
  outer loop
    vertex 139.2470834450083 29.36148008990473 6.0
    vertex 139.2470834450083 34.36148008990473 22.0
    vertex 139.2470834450083 34.36148008990473 6.0
  endloop
endfacet
facet normal 1.0 -0.0 -0.0
  outer loop
    vertex 140.24708344500831 72.36148008990473 6.0
    vertex 140.24708344500831 39.36148008990474 22.0
    vertex 140.24708344500831 39.36148008990474 6.0
  endloop
endfacet
facet normal 1.0 -0.0 -0.0
  outer loop
    vertex 140.24708344500831 39.36148008990474 22.0
    vertex 140.24708344500831 72.36148008990473 6.0
    vertex 140.24708344500831 72.36148008990473 22.0
  endloop
endfacet
facet normal -0.0 -0.0 1.0
  outer loop
    vertex 82.2470834450083 34.36148008990473 22.0
    vertex 81.2470834450083 34.36148008990473 22.0
    vertex 82.2470834450083 29.36148008990473 22.0
  endloop
endfacet
facet normal -0.0 -0.0 1.0
  outer loop
    vertex 81.2470834450083 28.36148008990473 22.0
    vertex 82.2470834450083 29.36148008990473 22.0
    vertex 81.2470834450083 34.36148008990473 22.0
  endloop
endfacet
facet normal -0.0 -0.0 1.0
  outer loop
    vertex 82.2470834450083 29.36148008990473 22.0
    vertex 81.2470834450083 28.36148008990473 22.0
    vertex 83.2470834450083 26.36148008990473 22.0
  endloop
endfacet
facet normal -0.0 -0.0 1.0
  outer loop
    vertex 82.2470834450083 29.36148008990473 22.0
    vertex 83.2470834450083 26.36148008990473 22.0
    vertex 84.2470834450083 27.361480089904727 22.0
  endloop
endfacet
facet normal -0.0 -0.0 1.0
  outer loop
    vertex 84.2470834450083 27.361480089904727 22.0
    vertex 83.2470834450083 26.36148008990473 22.0
    vertex 89.2470834450083 26.36148008990473 22.0
  endloop
endfacet
facet normal -0.0 -0.0 1.0
  outer loop
    vertex 84.2470834450083 27.361480089904727 22.0
    vertex 89.2470834450083 26.36148008990473 22.0
    vertex 89.2470834450083 27.361480089904727 22.0
  endloop
endfacet
facet normal -0.0 -0.0 1.0
  outer loop
    vertex 127.24708344500831 26.36148008990473 22.0
    vertex 94.2470834450083 27.361480089904727 22.0
    vertex 94.2470834450083 26.36148008990473 22.0
  endloop
endfacet
facet normal -0.0 -0.0 1.0
  outer loop
    vertex 94.2470834450083 27.361480089904727 22.0
    vertex 127.24708344500831 26.36148008990473 22.0
    vertex 127.24708344500831 27.361480089904727 22.0
  endloop
endfacet
facet normal 1.0 -0.0 -0.0
  outer loop
    vertex 89.2470834450083 27.361480089904727 6.0
    vertex 89.2470834450083 26.36148008990473 22.0
    vertex 89.2470834450083 26.36148008990473 6.0
  endloop
endfacet
facet normal 1.0 -0.0 -0.0
  outer loop
    vertex 89.2470834450083 26.36148008990473 22.0
    vertex 89.2470834450083 27.361480089904727 6.0
    vertex 89.2470834450083 27.361480089904727 22.0
  endloop
endfacet
facet normal -1.0 0.0 0.0
  outer loop
    vertex 94.2470834450083 27.361480089904727 22.0
    vertex 94.2470834450083 26.36148008990473 6.0
    vertex 94.2470834450083 26.36148008990473 22.0
  endloop
endfacet
facet normal -1.0 0.0 0.0
  outer loop
    vertex 94.2470834450083 26.36148008990473 6.0
    vertex 94.2470834450083 27.361480089904727 22.0
    vertex 94.2470834450083 27.361480089904727 6.0
  endloop
endfacet
facet normal -0.0 1.0 -0.0
  outer loop
    vertex 84.2470834450083 27.361480089904727 22.0
    vertex 89.2470834450083 27.361480089904727 6.0
    vertex 84.2470834450083 27.361480089904727 6.0
  endloop
endfacet
facet normal -0.0 1.0 -0.0
  outer loop
    vertex 89.2470834450083 27.361480089904727 6.0
    vertex 84.2470834450083 27.361480089904727 22.0
    vertex 89.2470834450083 27.361480089904727 22.0
  endloop
endfacet
facet normal 0.0 -1.0 0.0
  outer loop
    vertex 127.24708344500831 26.36148008990473 22.0
    vertex 94.2470834450083 26.36148008990473 6.0
    vertex 127.24708344500831 26.36148008990473 6.0
  endloop
endfacet
facet normal 0.0 -1.0 0.0
  outer loop
    vertex 94.2470834450083 26.36148008990473 6.0
    vertex 127.24708344500831 26.36148008990473 22.0
    vertex 94.2470834450083 26.36148008990473 22.0
  endloop
endfacet
facet normal -1.0 0.0 0.0
  outer loop
    vertex 132.24708344500831 27.361480089904727 22.0
    vertex 132.24708344500831 26.36148008990473 6.0
    vertex 132.24708344500831 26.36148008990473 22.0
  endloop
endfacet
facet normal -1.0 0.0 0.0
  outer loop
    vertex 132.24708344500831 26.36148008990473 6.0
    vertex 132.24708344500831 27.361480089904727 22.0
    vertex 132.24708344500831 27.361480089904727 6.0
  endloop
endfacet
facet normal 1.0 -0.0 -0.0
  outer loop
    vertex 127.24708344500831 27.361480089904727 6.0
    vertex 127.24708344500831 26.36148008990473 22.0
    vertex 127.24708344500831 26.36148008990473 6.0
  endloop
endfacet
facet normal 1.0 -0.0 -0.0
  outer loop
    vertex 127.24708344500831 26.36148008990473 22.0
    vertex 127.24708344500831 27.361480089904727 6.0
    vertex 127.24708344500831 27.361480089904727 22.0
  endloop
endfacet
facet normal -0.0 1.0 -0.0
  outer loop
    vertex 94.2470834450083 27.361480089904727 22.0
    vertex 127.24708344500831 27.361480089904727 6.0
    vertex 94.2470834450083 27.361480089904727 6.0
  endloop
endfacet
facet normal -0.0 1.0 -0.0
  outer loop
    vertex 127.24708344500831 27.361480089904727 6.0
    vertex 94.2470834450083 27.361480089904727 22.0
    vertex 127.24708344500831 27.361480089904727 22.0
  endloop
endfacet
facet normal 0.0 -1.0 0.0
  outer loop
    vertex 138.24708344500831 26.36148008990473 22.0
    vertex 132.24708344500831 26.36148008990473 6.0
    vertex 138.24708344500831 26.36148008990473 6.0
  endloop
endfacet
facet normal 0.0 -1.0 0.0
  outer loop
    vertex 132.24708344500831 26.36148008990473 6.0
    vertex 138.24708344500831 26.36148008990473 22.0
    vertex 132.24708344500831 26.36148008990473 22.0
  endloop
endfacet
facet normal -0.0 -0.0 1.0
  outer loop
    vertex 82.2470834450083 77.36148008990473 22.0
    vertex 81.2470834450083 83.36148008990473 22.0
    vertex 81.2470834450083 77.36148008990473 22.0
  endloop
endfacet
facet normal -0.0 -0.0 1.0
  outer loop
    vertex 81.2470834450083 83.36148008990473 22.0
    vertex 82.2470834450083 77.36148008990473 22.0
    vertex 82.2470834450083 82.36148008990473 22.0
  endloop
endfacet
facet normal -0.0 -0.0 1.0
  outer loop
    vertex 81.2470834450083 83.36148008990473 22.0
    vertex 82.2470834450083 82.36148008990473 22.0
    vertex 83.2470834450083 85.36148008990473 22.0
  endloop
endfacet
facet normal -0.0 -0.0 1.0
  outer loop
    vertex 83.2470834450083 85.36148008990473 22.0
    vertex 82.2470834450083 82.36148008990473 22.0
    vertex 84.2470834450083 84.36148008990473 22.0
  endloop
endfacet
facet normal -0.0 -0.0 1.0
  outer loop
    vertex 83.2470834450083 85.36148008990473 22.0
    vertex 84.2470834450083 84.36148008990473 22.0
    vertex 89.2470834450083 85.36148008990473 22.0
  endloop
endfacet
facet normal -0.0 -0.0 1.0
  outer loop
    vertex 89.2470834450083 85.36148008990473 22.0
    vertex 84.2470834450083 84.36148008990473 22.0
    vertex 89.2470834450083 84.36148008990473 22.0
  endloop
endfacet
facet normal -0.0 -0.0 1.0
  outer loop
    vertex 82.2470834450083 39.36148008990474 22.0
    vertex 81.2470834450083 72.36148008990473 22.0
    vertex 81.2470834450083 39.36148008990474 22.0
  endloop
endfacet
facet normal -0.0 -0.0 1.0
  outer loop
    vertex 81.2470834450083 72.36148008990473 22.0
    vertex 82.2470834450083 39.36148008990474 22.0
    vertex 82.2470834450083 72.36148008990473 22.0
  endloop
endfacet
facet normal 0.0 -1.0 0.0
  outer loop
    vertex 82.2470834450083 39.36148008990474 22.0
    vertex 81.2470834450083 39.36148008990474 6.0
    vertex 82.2470834450083 39.36148008990474 6.0
  endloop
endfacet
facet normal 0.0 -1.0 0.0
  outer loop
    vertex 81.2470834450083 39.36148008990474 6.0
    vertex 82.2470834450083 39.36148008990474 22.0
    vertex 81.2470834450083 39.36148008990474 22.0
  endloop
endfacet
facet normal -0.0 1.0 -0.0
  outer loop
    vertex 81.2470834450083 34.36148008990473 22.0
    vertex 82.2470834450083 34.36148008990473 6.0
    vertex 81.2470834450083 34.36148008990473 6.0
  endloop
endfacet
facet normal -0.0 1.0 -0.0
  outer loop
    vertex 82.2470834450083 34.36148008990473 6.0
    vertex 81.2470834450083 34.36148008990473 22.0
    vertex 82.2470834450083 34.36148008990473 22.0
  endloop
endfacet
facet normal 1.0 -0.0 -0.0
  outer loop
    vertex 82.2470834450083 72.36148008990473 6.0
    vertex 82.2470834450083 39.36148008990474 22.0
    vertex 82.2470834450083 39.36148008990474 6.0
  endloop
endfacet
facet normal 1.0 -0.0 -0.0
  outer loop
    vertex 82.2470834450083 39.36148008990474 22.0
    vertex 82.2470834450083 72.36148008990473 6.0
    vertex 82.2470834450083 72.36148008990473 22.0
  endloop
endfacet
facet normal -1.0 0.0 0.0
  outer loop
    vertex 81.2470834450083 34.36148008990473 22.0
    vertex 81.2470834450083 28.36148008990473 6.0
    vertex 81.2470834450083 28.36148008990473 22.0
  endloop
endfacet
facet normal -1.0 0.0 0.0
  outer loop
    vertex 81.2470834450083 28.36148008990473 6.0
    vertex 81.2470834450083 34.36148008990473 22.0
    vertex 81.2470834450083 34.36148008990473 6.0
  endloop
endfacet
facet normal -0.0 1.0 -0.0
  outer loop
    vertex 81.2470834450083 72.36148008990473 22.0
    vertex 82.2470834450083 72.36148008990473 6.0
    vertex 81.2470834450083 72.36148008990473 6.0
  endloop
endfacet
facet normal -0.0 1.0 -0.0
  outer loop
    vertex 82.2470834450083 72.36148008990473 6.0
    vertex 81.2470834450083 72.36148008990473 22.0
    vertex 82.2470834450083 72.36148008990473 22.0
  endloop
endfacet
facet normal 0.0 -1.0 0.0
  outer loop
    vertex 82.2470834450083 77.36148008990473 22.0
    vertex 81.2470834450083 77.36148008990473 6.0
    vertex 82.2470834450083 77.36148008990473 6.0
  endloop
endfacet
facet normal 0.0 -1.0 0.0
  outer loop
    vertex 81.2470834450083 77.36148008990473 6.0
    vertex 82.2470834450083 77.36148008990473 22.0
    vertex 81.2470834450083 77.36148008990473 22.0
  endloop
endfacet
facet normal 1.0 -0.0 -0.0
  outer loop
    vertex 82.2470834450083 82.36148008990473 6.0
    vertex 82.2470834450083 77.36148008990473 22.0
    vertex 82.2470834450083 77.36148008990473 6.0
  endloop
endfacet
facet normal 1.0 -0.0 -0.0
  outer loop
    vertex 82.2470834450083 77.36148008990473 22.0
    vertex 82.2470834450083 82.36148008990473 6.0
    vertex 82.2470834450083 82.36148008990473 22.0
  endloop
endfacet
facet normal -1.0 0.0 0.0
  outer loop
    vertex 81.2470834450083 72.36148008990473 22.0
    vertex 81.2470834450083 39.36148008990474 6.0
    vertex 81.2470834450083 39.36148008990474 22.0
  endloop
endfacet
facet normal -1.0 0.0 0.0
  outer loop
    vertex 81.2470834450083 39.36148008990474 6.0
    vertex 81.2470834450083 72.36148008990473 22.0
    vertex 81.2470834450083 72.36148008990473 6.0
  endloop
endfacet
endsolid 2_5boxtubingcap
