solid
  facet normal -0.000000 0.000000 -1.000000
    outer loop
      vertex -10.000000 0.000000 -7.500000
      vertex -9.921147 1.253332 -7.500000
      vertex -9.921147 -1.253332 -7.500000
    endloop
  endfacet
  facet normal 0.000000 -0.000000 -1.000000
    outer loop
      vertex -9.921147 -1.253332 -7.500000
      vertex -9.921147 1.253332 -7.500000
      vertex -9.685832 2.486899 -7.500000
    endloop
  endfacet
  facet normal 0.000000 0.000000 -1.000000
    outer loop
      vertex -9.921147 -1.253332 -7.500000
      vertex -9.685832 2.486899 -7.500000
      vertex -9.297765 3.681246 -7.500000
    endloop
  endfacet
  facet normal 0.000000 0.000000 -1.000000
    outer loop
      vertex -9.921147 -1.253332 -7.500000
      vertex -9.297765 3.681246 -7.500000
      vertex -8.763067 4.817537 -7.500000
    endloop
  endfacet
  facet normal 0.000000 0.000000 -1.000000
    outer loop
      vertex -9.921147 -1.253332 -7.500000
      vertex -8.763067 4.817537 -7.500000
      vertex -8.090170 5.877853 -7.500000
    endloop
  endfacet
  facet normal 0.000000 0.000000 -1.000000
    outer loop
      vertex -9.921147 -1.253332 -7.500000
      vertex -8.090170 5.877853 -7.500000
      vertex -7.289686 6.845471 -7.500000
    endloop
  endfacet
  facet normal 0.000000 0.000000 -1.000000
    outer loop
      vertex -9.921147 -1.253332 -7.500000
      vertex -7.289686 6.845471 -7.500000
      vertex -6.374240 7.705132 -7.500000
    endloop
  endfacet
  facet normal 0.000000 0.000000 -1.000000
    outer loop
      vertex -9.921147 -1.253332 -7.500000
      vertex -6.374240 7.705132 -7.500000
      vertex -5.358268 8.443279 -7.500000
    endloop
  endfacet
  facet normal 0.000000 0.000000 -1.000000
    outer loop
      vertex -9.921147 -1.253332 -7.500000
      vertex -5.358268 8.443279 -7.500000
      vertex -4.257793 9.048271 -7.500000
    endloop
  endfacet
  facet normal 0.000000 0.000000 -1.000000
    outer loop
      vertex -9.921147 -1.253332 -7.500000
      vertex -4.257793 9.048271 -7.500000
      vertex -3.090170 9.510565 -7.500000
    endloop
  endfacet
  facet normal 0.000000 0.000000 -1.000000
    outer loop
      vertex -9.921147 -1.253332 -7.500000
      vertex -3.090170 9.510565 -7.500000
      vertex -1.873813 9.822873 -7.500000
    endloop
  endfacet
  facet normal 0.000000 0.000000 -1.000000
    outer loop
      vertex -9.921147 -1.253332 -7.500000
      vertex -1.873813 9.822873 -7.500000
      vertex -0.627905 9.980267 -7.500000
    endloop
  endfacet
  facet normal 0.000000 0.000000 -1.000000
    outer loop
      vertex -9.921147 -1.253332 -7.500000
      vertex -0.627905 9.980267 -7.500000
      vertex 0.627905 9.980267 -7.500000
    endloop
  endfacet
  facet normal 0.000000 0.000000 -1.000000
    outer loop
      vertex -9.921147 -1.253332 -7.500000
      vertex 0.627905 9.980267 -7.500000
      vertex 1.873813 9.822873 -7.500000
    endloop
  endfacet
  facet normal 0.000000 0.000000 -1.000000
    outer loop
      vertex -9.921147 -1.253332 -7.500000
      vertex 1.873813 9.822873 -7.500000
      vertex 3.090170 9.510565 -7.500000
    endloop
  endfacet
  facet normal 0.000000 0.000000 -1.000000
    outer loop
      vertex -2.128896 4.524135 -7.500000
      vertex 3.090170 9.510565 -7.500000
      vertex 4.257793 9.048271 -7.500000
    endloop
  endfacet
  facet normal 0.000000 0.000000 -1.000000
    outer loop
      vertex -0.313953 4.990134 -7.500000
      vertex 4.257793 9.048271 -7.500000
      vertex 5.358268 8.443279 -7.500000
    endloop
  endfacet
  facet normal 0.000000 0.000000 -1.000000
    outer loop
      vertex 0.936907 4.911436 -7.500000
      vertex 5.358268 8.443279 -7.500000
      vertex 6.374240 7.705132 -7.500000
    endloop
  endfacet
  facet normal 0.000000 0.000000 -1.000000
    outer loop
      vertex 2.128896 4.524135 -7.500000
      vertex 6.374240 7.705132 -7.500000
      vertex 7.289686 6.845471 -7.500000
    endloop
  endfacet
  facet normal 0.000000 0.000000 -1.000000
    outer loop
      vertex 2.679134 4.221640 -7.500000
      vertex 7.289686 6.845471 -7.500000
      vertex 8.090170 5.877853 -7.500000
    endloop
  endfacet
  facet normal 0.000000 0.000000 -1.000000
    outer loop
      vertex 3.644843 3.422736 -7.500000
      vertex 8.090170 5.877853 -7.500000
      vertex 8.763067 4.817537 -7.500000
    endloop
  endfacet
  facet normal 0.000000 0.000000 -1.000000
    outer loop
      vertex 4.045085 2.938926 -7.500000
      vertex 8.763067 4.817537 -7.500000
      vertex 9.297765 3.681246 -7.500000
    endloop
  endfacet
  facet normal 0.000000 0.000000 -1.000000
    outer loop
      vertex 4.648882 1.840623 -7.500000
      vertex 9.297765 3.681246 -7.500000
      vertex 9.685832 2.486899 -7.500000
    endloop
  endfacet
  facet normal 0.000000 0.000000 -1.000000
    outer loop
      vertex 4.842916 1.243449 -7.500000
      vertex 9.685832 2.486899 -7.500000
      vertex 9.921147 1.253332 -7.500000
    endloop
  endfacet
  facet normal -0.000000 0.000000 -1.000000
    outer loop
      vertex 5.000000 0.000000 -7.500000
      vertex 9.921147 1.253332 -7.500000
      vertex 10.000000 0.000000 -7.500000
    endloop
  endfacet
  facet normal -0.000000 0.000000 -1.000000
    outer loop
      vertex 4.842916 -1.243449 -7.500000
      vertex 10.000000 0.000000 -7.500000
      vertex 9.921147 -1.253332 -7.500000
    endloop
  endfacet
  facet normal -0.000000 0.000000 -1.000000
    outer loop
      vertex 4.648882 -1.840623 -7.500000
      vertex 9.921147 -1.253332 -7.500000
      vertex 9.685832 -2.486899 -7.500000
    endloop
  endfacet
  facet normal -0.000000 0.000000 -1.000000
    outer loop
      vertex 4.045085 -2.938926 -7.500000
      vertex 9.685832 -2.486899 -7.500000
      vertex 9.297765 -3.681246 -7.500000
    endloop
  endfacet
  facet normal 0.000000 0.000000 -1.000000
    outer loop
      vertex 3.644843 -3.422736 -7.500000
      vertex 9.297765 -3.681246 -7.500000
      vertex 8.763067 -4.817537 -7.500000
    endloop
  endfacet
  facet normal 0.000000 0.000000 -1.000000
    outer loop
      vertex 2.679134 -4.221640 -7.500000
      vertex 8.763067 -4.817537 -7.500000
      vertex 8.090170 -5.877853 -7.500000
    endloop
  endfacet
  facet normal 0.000000 0.000000 -1.000000
    outer loop
      vertex 1.545085 -4.755283 -7.500000
      vertex 8.090170 -5.877853 -7.500000
      vertex 7.289686 -6.845471 -7.500000
    endloop
  endfacet
  facet normal 0.000000 0.000000 -1.000000
    outer loop
      vertex 0.313953 -4.990134 -7.500000
      vertex 7.289686 -6.845471 -7.500000
      vertex 6.374240 -7.705132 -7.500000
    endloop
  endfacet
  facet normal 0.000000 0.000000 -1.000000
    outer loop
      vertex -1.545085 -4.755283 -7.500000
      vertex 6.374240 -7.705132 -7.500000
      vertex 5.358268 -8.443279 -7.500000
    endloop
  endfacet
  facet normal 0.000000 0.000000 -1.000000
    outer loop
      vertex -9.921147 -1.253332 -7.500000
      vertex 5.358268 -8.443279 -7.500000
      vertex 4.257793 -9.048271 -7.500000
    endloop
  endfacet
  facet normal 0.000000 0.000000 -1.000000
    outer loop
      vertex -9.921147 -1.253332 -7.500000
      vertex 4.257793 -9.048271 -7.500000
      vertex 3.090170 -9.510565 -7.500000
    endloop
  endfacet
  facet normal 0.000000 0.000000 -1.000000
    outer loop
      vertex -9.921147 -1.253332 -7.500000
      vertex 3.090170 -9.510565 -7.500000
      vertex 1.873813 -9.822873 -7.500000
    endloop
  endfacet
  facet normal 0.000000 0.000000 -1.000000
    outer loop
      vertex -9.921147 -1.253332 -7.500000
      vertex 1.873813 -9.822873 -7.500000
      vertex 0.627905 -9.980267 -7.500000
    endloop
  endfacet
  facet normal 0.000000 0.000000 -1.000000
    outer loop
      vertex -9.921147 -1.253332 -7.500000
      vertex 0.627905 -9.980267 -7.500000
      vertex -0.627905 -9.980267 -7.500000
    endloop
  endfacet
  facet normal 0.000000 0.000000 -1.000000
    outer loop
      vertex -9.921147 -1.253332 -7.500000
      vertex -0.627905 -9.980267 -7.500000
      vertex -1.873813 -9.822873 -7.500000
    endloop
  endfacet
  facet normal 0.000000 0.000000 -1.000000
    outer loop
      vertex -9.921147 -1.253332 -7.500000
      vertex -1.873813 -9.822873 -7.500000
      vertex -3.090170 -9.510565 -7.500000
    endloop
  endfacet
  facet normal 0.000000 0.000000 -1.000000
    outer loop
      vertex -9.921147 -1.253332 -7.500000
      vertex -3.090170 -9.510565 -7.500000
      vertex -4.257793 -9.048271 -7.500000
    endloop
  endfacet
  facet normal 0.000000 0.000000 -1.000000
    outer loop
      vertex -9.921147 -1.253332 -7.500000
      vertex -4.257793 -9.048271 -7.500000
      vertex -5.358268 -8.443279 -7.500000
    endloop
  endfacet
  facet normal 0.000000 0.000000 -1.000000
    outer loop
      vertex -9.921147 -1.253332 -7.500000
      vertex -5.358268 -8.443279 -7.500000
      vertex -6.374240 -7.705132 -7.500000
    endloop
  endfacet
  facet normal 0.000000 0.000000 -1.000000
    outer loop
      vertex -9.921147 -1.253332 -7.500000
      vertex -6.374240 -7.705132 -7.500000
      vertex -7.289686 -6.845471 -7.500000
    endloop
  endfacet
  facet normal 0.000000 0.000000 -1.000000
    outer loop
      vertex -9.921147 -1.253332 -7.500000
      vertex -7.289686 -6.845471 -7.500000
      vertex -8.090170 -5.877853 -7.500000
    endloop
  endfacet
  facet normal 0.000000 0.000000 -1.000000
    outer loop
      vertex -9.921147 -1.253332 -7.500000
      vertex -8.090170 -5.877853 -7.500000
      vertex -8.763067 -4.817537 -7.500000
    endloop
  endfacet
  facet normal 0.000000 0.000000 -1.000000
    outer loop
      vertex -9.921147 -1.253332 -7.500000
      vertex -8.763067 -4.817537 -7.500000
      vertex -9.297765 -3.681246 -7.500000
    endloop
  endfacet
  facet normal 0.000000 0.000000 -1.000000
    outer loop
      vertex -9.921147 -1.253332 -7.500000
      vertex -9.297765 -3.681246 -7.500000
      vertex -9.685832 -2.486899 -7.500000
    endloop
  endfacet
  facet normal 0.000000 0.000000 -1.000000
    outer loop
      vertex -4.960574 -0.626666 -7.500000
      vertex -9.921147 -1.253332 -7.500000
      vertex -5.000000 0.000000 -7.500000
    endloop
  endfacet
  facet normal 0.000000 0.000000 -1.000000
    outer loop
      vertex -4.842916 -1.243449 -7.500000
      vertex -9.921147 -1.253332 -7.500000
      vertex -4.960574 -0.626666 -7.500000
    endloop
  endfacet
  facet normal 0.000000 0.000000 -1.000000
    outer loop
      vertex -4.648882 -1.840623 -7.500000
      vertex -9.921147 -1.253332 -7.500000
      vertex -4.842916 -1.243449 -7.500000
    endloop
  endfacet
  facet normal 0.000000 0.000000 -1.000000
    outer loop
      vertex -4.381533 -2.408768 -7.500000
      vertex -9.921147 -1.253332 -7.500000
      vertex -4.648882 -1.840623 -7.500000
    endloop
  endfacet
  facet normal 0.000000 0.000000 -1.000000
    outer loop
      vertex -4.045085 -2.938926 -7.500000
      vertex -9.921147 -1.253332 -7.500000
      vertex -4.381533 -2.408768 -7.500000
    endloop
  endfacet
  facet normal 0.000000 0.000000 -1.000000
    outer loop
      vertex -3.644843 -3.422736 -7.500000
      vertex -9.921147 -1.253332 -7.500000
      vertex -4.045085 -2.938926 -7.500000
    endloop
  endfacet
  facet normal 0.000000 0.000000 -1.000000
    outer loop
      vertex -2.679134 -4.221640 -7.500000
      vertex -9.921147 -1.253332 -7.500000
      vertex -3.187120 -3.852566 -7.500000
    endloop
  endfacet
  facet normal 0.000000 0.000000 -1.000000
    outer loop
      vertex -9.921147 -1.253332 -7.500000
      vertex -3.644843 -3.422736 -7.500000
      vertex -3.187120 -3.852566 -7.500000
    endloop
  endfacet
  facet normal 0.000000 0.000000 -1.000000
    outer loop
      vertex -1.545085 -4.755283 -7.500000
      vertex 5.358268 -8.443279 -7.500000
      vertex -2.128896 -4.524135 -7.500000
    endloop
  endfacet
  facet normal 0.000000 0.000000 -1.000000
    outer loop
      vertex -9.921147 -1.253332 -7.500000
      vertex -2.679134 -4.221640 -7.500000
      vertex -2.128896 -4.524135 -7.500000
    endloop
  endfacet
  facet normal 0.000000 0.000000 -1.000000
    outer loop
      vertex -9.921147 -1.253332 -7.500000
      vertex -2.128896 -4.524135 -7.500000
      vertex 5.358268 -8.443279 -7.500000
    endloop
  endfacet
  facet normal 0.000000 0.000000 -1.000000
    outer loop
      vertex -0.936907 -4.911436 -7.500000
      vertex 6.374240 -7.705132 -7.500000
      vertex -1.545085 -4.755283 -7.500000
    endloop
  endfacet
  facet normal 0.000000 0.000000 -1.000000
    outer loop
      vertex -0.313953 -4.990134 -7.500000
      vertex 6.374240 -7.705132 -7.500000
      vertex -0.936907 -4.911436 -7.500000
    endloop
  endfacet
  facet normal 0.000000 0.000000 -1.000000
    outer loop
      vertex 0.313953 -4.990134 -7.500000
      vertex 6.374240 -7.705132 -7.500000
      vertex -0.313953 -4.990134 -7.500000
    endloop
  endfacet
  facet normal 0.000000 0.000000 -1.000000
    outer loop
      vertex 0.936907 -4.911436 -7.500000
      vertex 7.289686 -6.845471 -7.500000
      vertex 0.313953 -4.990134 -7.500000
    endloop
  endfacet
  facet normal 0.000000 0.000000 -1.000000
    outer loop
      vertex 1.545085 -4.755283 -7.500000
      vertex 7.289686 -6.845471 -7.500000
      vertex 0.936907 -4.911436 -7.500000
    endloop
  endfacet
  facet normal 0.000000 0.000000 -1.000000
    outer loop
      vertex 2.128896 -4.524135 -7.500000
      vertex 8.090170 -5.877853 -7.500000
      vertex 1.545085 -4.755283 -7.500000
    endloop
  endfacet
  facet normal 0.000000 0.000000 -1.000000
    outer loop
      vertex 2.679134 -4.221640 -7.500000
      vertex 8.090170 -5.877853 -7.500000
      vertex 2.128896 -4.524135 -7.500000
    endloop
  endfacet
  facet normal 0.000000 0.000000 -1.000000
    outer loop
      vertex 3.187120 -3.852566 -7.500000
      vertex 8.763067 -4.817537 -7.500000
      vertex 2.679134 -4.221640 -7.500000
    endloop
  endfacet
  facet normal 0.000000 0.000000 -1.000000
    outer loop
      vertex 3.644843 -3.422736 -7.500000
      vertex 8.763067 -4.817537 -7.500000
      vertex 3.187120 -3.852566 -7.500000
    endloop
  endfacet
  facet normal 0.000000 0.000000 -1.000000
    outer loop
      vertex 4.381533 -2.408768 -7.500000
      vertex 9.685832 -2.486899 -7.500000
      vertex 4.045085 -2.938926 -7.500000
    endloop
  endfacet
  facet normal 0.000000 0.000000 -1.000000
    outer loop
      vertex 4.648882 -1.840623 -7.500000
      vertex 9.685832 -2.486899 -7.500000
      vertex 4.381533 -2.408768 -7.500000
    endloop
  endfacet
  facet normal 0.000000 0.000000 -1.000000
    outer loop
      vertex 4.045085 -2.938926 -7.500000
      vertex 9.297765 -3.681246 -7.500000
      vertex 3.644843 -3.422736 -7.500000
    endloop
  endfacet
  facet normal -0.000000 0.000000 -1.000000
    outer loop
      vertex 4.960574 -0.626666 -7.500000
      vertex 10.000000 0.000000 -7.500000
      vertex 4.842916 -1.243449 -7.500000
    endloop
  endfacet
  facet normal 0.000000 0.000000 -1.000000
    outer loop
      vertex 5.000000 0.000000 -7.500000
      vertex 10.000000 0.000000 -7.500000
      vertex 4.960574 -0.626666 -7.500000
    endloop
  endfacet
  facet normal -0.000000 0.000000 -1.000000
    outer loop
      vertex 4.960574 0.626666 -7.500000
      vertex 9.921147 1.253332 -7.500000
      vertex 5.000000 0.000000 -7.500000
    endloop
  endfacet
  facet normal 0.000000 0.000000 -1.000000
    outer loop
      vertex 4.842916 -1.243449 -7.500000
      vertex 9.921147 -1.253332 -7.500000
      vertex 4.648882 -1.840623 -7.500000
    endloop
  endfacet
  facet normal -0.000000 0.000000 -1.000000
    outer loop
      vertex 4.648882 1.840623 -7.500000
      vertex 9.685832 2.486899 -7.500000
      vertex 4.842916 1.243449 -7.500000
    endloop
  endfacet
  facet normal -0.000000 0.000000 -1.000000
    outer loop
      vertex 4.381533 2.408768 -7.500000
      vertex 9.297765 3.681246 -7.500000
      vertex 4.648882 1.840623 -7.500000
    endloop
  endfacet
  facet normal -0.000000 0.000000 -1.000000
    outer loop
      vertex 4.045085 2.938926 -7.500000
      vertex 9.297765 3.681246 -7.500000
      vertex 4.381533 2.408768 -7.500000
    endloop
  endfacet
  facet normal -0.000000 0.000000 -1.000000
    outer loop
      vertex 3.187120 3.852566 -7.500000
      vertex 8.090170 5.877853 -7.500000
      vertex 3.644843 3.422736 -7.500000
    endloop
  endfacet
  facet normal -0.000000 0.000000 -1.000000
    outer loop
      vertex 4.842916 1.243449 -7.500000
      vertex 9.921147 1.253332 -7.500000
      vertex 4.960574 0.626666 -7.500000
    endloop
  endfacet
  facet normal -0.000000 0.000000 -1.000000
    outer loop
      vertex 2.128896 4.524135 -7.500000
      vertex 7.289686 6.845471 -7.500000
      vertex 2.679134 4.221640 -7.500000
    endloop
  endfacet
  facet normal -0.000000 0.000000 -1.000000
    outer loop
      vertex 1.545085 4.755283 -7.500000
      vertex 6.374240 7.705132 -7.500000
      vertex 2.128896 4.524135 -7.500000
    endloop
  endfacet
  facet normal -0.000000 0.000000 -1.000000
    outer loop
      vertex 0.936907 4.911436 -7.500000
      vertex 6.374240 7.705132 -7.500000
      vertex 1.545085 4.755283 -7.500000
    endloop
  endfacet
  facet normal -0.000000 0.000000 -1.000000
    outer loop
      vertex 0.313953 4.990134 -7.500000
      vertex 5.358268 8.443279 -7.500000
      vertex 0.936907 4.911436 -7.500000
    endloop
  endfacet
  facet normal -0.000000 0.000000 -1.000000
    outer loop
      vertex -0.313953 4.990134 -7.500000
      vertex 5.358268 8.443279 -7.500000
      vertex 0.313953 4.990134 -7.500000
    endloop
  endfacet
  facet normal 0.000000 0.000000 -1.000000
    outer loop
      vertex -0.936907 4.911436 -7.500000
      vertex 4.257793 9.048271 -7.500000
      vertex -0.313953 4.990134 -7.500000
    endloop
  endfacet
  facet normal 0.000000 0.000000 -1.000000
    outer loop
      vertex -2.128896 4.524135 -7.500000
      vertex 4.257793 9.048271 -7.500000
      vertex -1.545085 4.755283 -7.500000
    endloop
  endfacet
  facet normal 0.000000 0.000000 -1.000000
    outer loop
      vertex -1.545085 4.755283 -7.500000
      vertex 4.257793 9.048271 -7.500000
      vertex -0.936907 4.911436 -7.500000
    endloop
  endfacet
  facet normal 0.000000 0.000000 -1.000000
    outer loop
      vertex -2.679134 4.221640 -7.500000
      vertex 3.090170 9.510565 -7.500000
      vertex -2.128896 4.524135 -7.500000
    endloop
  endfacet
  facet normal 0.000000 -0.000000 -1.000000
    outer loop
      vertex -3.644843 3.422736 -7.500000
      vertex -9.921147 -1.253332 -7.500000
      vertex -3.187120 3.852566 -7.500000
    endloop
  endfacet
  facet normal 0.000000 0.000000 -1.000000
    outer loop
      vertex -3.187120 3.852566 -7.500000
      vertex 3.090170 9.510565 -7.500000
      vertex -2.679134 4.221640 -7.500000
    endloop
  endfacet
  facet normal 0.000000 0.000000 -1.000000
    outer loop
      vertex -9.921147 -1.253332 -7.500000
      vertex 3.090170 9.510565 -7.500000
      vertex -3.187120 3.852566 -7.500000
    endloop
  endfacet
  facet normal 0.000000 -0.000000 -1.000000
    outer loop
      vertex -4.045085 2.938926 -7.500000
      vertex -9.921147 -1.253332 -7.500000
      vertex -3.644843 3.422736 -7.500000
    endloop
  endfacet
  facet normal 0.000000 -0.000000 -1.000000
    outer loop
      vertex -4.381533 2.408768 -7.500000
      vertex -9.921147 -1.253332 -7.500000
      vertex -4.045085 2.938926 -7.500000
    endloop
  endfacet
  facet normal 0.000000 -0.000000 -1.000000
    outer loop
      vertex -4.648882 1.840623 -7.500000
      vertex -9.921147 -1.253332 -7.500000
      vertex -4.381533 2.408768 -7.500000
    endloop
  endfacet
  facet normal 0.000000 -0.000000 -1.000000
    outer loop
      vertex -4.842916 1.243449 -7.500000
      vertex -9.921147 -1.253332 -7.500000
      vertex -4.648882 1.840623 -7.500000
    endloop
  endfacet
  facet normal 0.000000 -0.000000 -1.000000
    outer loop
      vertex -4.960574 0.626666 -7.500000
      vertex -9.921147 -1.253332 -7.500000
      vertex -4.842916 1.243449 -7.500000
    endloop
  endfacet
  facet normal 0.000000 -0.000000 -1.000000
    outer loop
      vertex -5.000000 0.000000 -7.500000
      vertex -9.921147 -1.253332 -7.500000
      vertex -4.960574 0.626666 -7.500000
    endloop
  endfacet
  facet normal -0.000000 0.000000 -1.000000
    outer loop
      vertex 2.679134 4.221640 -7.500000
      vertex 8.090170 5.877853 -7.500000
      vertex 3.187120 3.852566 -7.500000
    endloop
  endfacet
  facet normal -0.000000 0.000000 -1.000000
    outer loop
      vertex 3.644843 3.422736 -7.500000
      vertex 8.763067 4.817537 -7.500000
      vertex 4.045085 2.938926 -7.500000
    endloop
  endfacet
  facet normal -0.998027 0.062791 0.000000
    outer loop
      vertex -10.000000 0.000000 -7.500000
      vertex -10.000000 0.000000 7.500000
      vertex -9.921147 1.253332 -7.500000
    endloop
  endfacet
  facet normal -0.998027 0.062791 0.000000
    outer loop
      vertex -9.921147 1.253332 -7.500000
      vertex -10.000000 0.000000 7.500000
      vertex -9.921147 1.253332 7.500000
    endloop
  endfacet
  facet normal -0.998027 -0.062791 -0.000000
    outer loop
      vertex -10.000000 0.000000 -7.500000
      vertex -9.921147 -1.253332 -7.500000
      vertex -10.000000 0.000000 7.500000
    endloop
  endfacet
  facet normal -0.998027 -0.062791 0.000000
    outer loop
      vertex -10.000000 0.000000 7.500000
      vertex -9.921147 -1.253332 -7.500000
      vertex -9.921147 -1.253332 7.500000
    endloop
  endfacet
  facet normal -0.982287 -0.187381 -0.000000
    outer loop
      vertex -9.921147 -1.253332 -7.500000
      vertex -9.685832 -2.486899 -7.500000
      vertex -9.921147 -1.253332 7.500000
    endloop
  endfacet
  facet normal -0.982287 -0.187381 0.000000
    outer loop
      vertex -9.921147 -1.253332 7.500000
      vertex -9.685832 -2.486899 -7.500000
      vertex -9.685832 -2.486899 7.500000
    endloop
  endfacet
  facet normal -0.951056 -0.309017 -0.000000
    outer loop
      vertex -9.685832 -2.486899 -7.500000
      vertex -9.297765 -3.681246 -7.500000
      vertex -9.685832 -2.486899 7.500000
    endloop
  endfacet
  facet normal -0.951056 -0.309017 0.000000
    outer loop
      vertex -9.685832 -2.486899 7.500000
      vertex -9.297765 -3.681246 -7.500000
      vertex -9.297765 -3.681246 7.500000
    endloop
  endfacet
  facet normal -0.904827 -0.425779 -0.000000
    outer loop
      vertex -9.297765 -3.681246 -7.500000
      vertex -8.763067 -4.817537 -7.500000
      vertex -9.297765 -3.681246 7.500000
    endloop
  endfacet
  facet normal -0.904827 -0.425779 0.000000
    outer loop
      vertex -9.297765 -3.681246 7.500000
      vertex -8.763067 -4.817537 -7.500000
      vertex -8.763067 -4.817537 7.500000
    endloop
  endfacet
  facet normal -0.844328 -0.535827 -0.000000
    outer loop
      vertex -8.763067 -4.817537 -7.500000
      vertex -8.090170 -5.877853 -7.500000
      vertex -8.763067 -4.817537 7.500000
    endloop
  endfacet
  facet normal -0.844328 -0.535827 0.000000
    outer loop
      vertex -8.763067 -4.817537 7.500000
      vertex -8.090170 -5.877853 -7.500000
      vertex -8.090170 -5.877853 7.500000
    endloop
  endfacet
  facet normal -0.770513 -0.637424 -0.000000
    outer loop
      vertex -8.090170 -5.877853 -7.500000
      vertex -7.289686 -6.845471 -7.500000
      vertex -8.090170 -5.877853 7.500000
    endloop
  endfacet
  facet normal -0.770513 -0.637424 0.000000
    outer loop
      vertex -8.090170 -5.877853 7.500000
      vertex -7.289686 -6.845471 -7.500000
      vertex -7.289686 -6.845471 7.500000
    endloop
  endfacet
  facet normal -0.684547 -0.728969 0.000000
    outer loop
      vertex -7.289686 -6.845471 7.500000
      vertex -7.289686 -6.845471 -7.500000
      vertex -6.374240 -7.705132 -7.500000
    endloop
  endfacet
  facet normal -0.684547 -0.728969 0.000000
    outer loop
      vertex -6.374240 -7.705132 7.500000
      vertex -7.289686 -6.845471 7.500000
      vertex -6.374240 -7.705132 -7.500000
    endloop
  endfacet
  facet normal -0.587785 -0.809017 0.000000
    outer loop
      vertex -6.374240 -7.705132 7.500000
      vertex -6.374240 -7.705132 -7.500000
      vertex -5.358268 -8.443279 -7.500000
    endloop
  endfacet
  facet normal -0.587785 -0.809017 0.000000
    outer loop
      vertex -5.358268 -8.443279 7.500000
      vertex -6.374240 -7.705132 7.500000
      vertex -5.358268 -8.443279 -7.500000
    endloop
  endfacet
  facet normal -0.481754 -0.876306 0.000000
    outer loop
      vertex -5.358268 -8.443279 7.500000
      vertex -5.358268 -8.443279 -7.500000
      vertex -4.257793 -9.048271 -7.500000
    endloop
  endfacet
  facet normal -0.481754 -0.876306 0.000000
    outer loop
      vertex -4.257793 -9.048271 7.500000
      vertex -5.358268 -8.443279 7.500000
      vertex -4.257793 -9.048271 -7.500000
    endloop
  endfacet
  facet normal -0.368124 -0.929777 0.000000
    outer loop
      vertex -4.257793 -9.048271 7.500000
      vertex -4.257793 -9.048271 -7.500000
      vertex -3.090170 -9.510565 -7.500000
    endloop
  endfacet
  facet normal -0.368124 -0.929777 0.000000
    outer loop
      vertex -3.090170 -9.510565 7.500000
      vertex -4.257793 -9.048271 7.500000
      vertex -3.090170 -9.510565 -7.500000
    endloop
  endfacet
  facet normal -0.248690 -0.968583 0.000000
    outer loop
      vertex -3.090170 -9.510565 7.500000
      vertex -3.090170 -9.510565 -7.500000
      vertex -1.873813 -9.822873 -7.500000
    endloop
  endfacet
  facet normal -0.248690 -0.968583 0.000000
    outer loop
      vertex -1.873813 -9.822873 7.500000
      vertex -3.090170 -9.510565 7.500000
      vertex -1.873813 -9.822873 -7.500000
    endloop
  endfacet
  facet normal -0.125333 -0.992115 0.000000
    outer loop
      vertex -1.873813 -9.822873 7.500000
      vertex -1.873813 -9.822873 -7.500000
      vertex -0.627905 -9.980267 -7.500000
    endloop
  endfacet
  facet normal -0.125333 -0.992115 0.000000
    outer loop
      vertex -0.627905 -9.980267 7.500000
      vertex -1.873813 -9.822873 7.500000
      vertex -0.627905 -9.980267 -7.500000
    endloop
  endfacet
  facet normal 0.000000 -1.000000 0.000000
    outer loop
      vertex -0.627905 -9.980267 7.500000
      vertex -0.627905 -9.980267 -7.500000
      vertex 0.627905 -9.980267 -7.500000
    endloop
  endfacet
  facet normal 0.000000 -1.000000 0.000000
    outer loop
      vertex 0.627905 -9.980267 7.500000
      vertex -0.627905 -9.980267 7.500000
      vertex 0.627905 -9.980267 -7.500000
    endloop
  endfacet
  facet normal 0.125333 -0.992115 0.000000
    outer loop
      vertex 0.627905 -9.980267 7.500000
      vertex 0.627905 -9.980267 -7.500000
      vertex 1.873813 -9.822873 -7.500000
    endloop
  endfacet
  facet normal 0.125333 -0.992115 0.000000
    outer loop
      vertex 1.873813 -9.822873 7.500000
      vertex 0.627905 -9.980267 7.500000
      vertex 1.873813 -9.822873 -7.500000
    endloop
  endfacet
  facet normal 0.248690 -0.968583 0.000000
    outer loop
      vertex 1.873813 -9.822873 7.500000
      vertex 1.873813 -9.822873 -7.500000
      vertex 3.090170 -9.510565 -7.500000
    endloop
  endfacet
  facet normal 0.248690 -0.968583 0.000000
    outer loop
      vertex 3.090170 -9.510565 7.500000
      vertex 1.873813 -9.822873 7.500000
      vertex 3.090170 -9.510565 -7.500000
    endloop
  endfacet
  facet normal 0.368124 -0.929777 0.000000
    outer loop
      vertex 3.090170 -9.510565 7.500000
      vertex 3.090170 -9.510565 -7.500000
      vertex 4.257793 -9.048271 -7.500000
    endloop
  endfacet
  facet normal 0.368124 -0.929777 0.000000
    outer loop
      vertex 4.257793 -9.048271 7.500000
      vertex 3.090170 -9.510565 7.500000
      vertex 4.257793 -9.048271 -7.500000
    endloop
  endfacet
  facet normal 0.481754 -0.876306 0.000000
    outer loop
      vertex 4.257793 -9.048271 7.500000
      vertex 4.257793 -9.048271 -7.500000
      vertex 5.358268 -8.443279 -7.500000
    endloop
  endfacet
  facet normal 0.481754 -0.876306 0.000000
    outer loop
      vertex 5.358268 -8.443279 7.500000
      vertex 4.257793 -9.048271 7.500000
      vertex 5.358268 -8.443279 -7.500000
    endloop
  endfacet
  facet normal 0.587785 -0.809017 0.000000
    outer loop
      vertex 5.358268 -8.443279 7.500000
      vertex 5.358268 -8.443279 -7.500000
      vertex 6.374240 -7.705132 -7.500000
    endloop
  endfacet
  facet normal 0.587785 -0.809017 0.000000
    outer loop
      vertex 6.374240 -7.705132 7.500000
      vertex 5.358268 -8.443279 7.500000
      vertex 6.374240 -7.705132 -7.500000
    endloop
  endfacet
  facet normal 0.684547 -0.728969 0.000000
    outer loop
      vertex 6.374240 -7.705132 7.500000
      vertex 6.374240 -7.705132 -7.500000
      vertex 7.289686 -6.845471 -7.500000
    endloop
  endfacet
  facet normal 0.684547 -0.728969 0.000000
    outer loop
      vertex 7.289686 -6.845471 7.500000
      vertex 6.374240 -7.705132 7.500000
      vertex 7.289686 -6.845471 -7.500000
    endloop
  endfacet
  facet normal 0.770513 -0.637424 0.000000
    outer loop
      vertex 7.289686 -6.845471 7.500000
      vertex 7.289686 -6.845471 -7.500000
      vertex 8.090170 -5.877853 -7.500000
    endloop
  endfacet
  facet normal 0.770513 -0.637424 0.000000
    outer loop
      vertex 8.090170 -5.877853 7.500000
      vertex 7.289686 -6.845471 7.500000
      vertex 8.090170 -5.877853 -7.500000
    endloop
  endfacet
  facet normal 0.844328 -0.535827 0.000000
    outer loop
      vertex 8.090170 -5.877853 7.500000
      vertex 8.090170 -5.877853 -7.500000
      vertex 8.763067 -4.817537 -7.500000
    endloop
  endfacet
  facet normal 0.844328 -0.535827 0.000000
    outer loop
      vertex 8.763067 -4.817537 7.500000
      vertex 8.090170 -5.877853 7.500000
      vertex 8.763067 -4.817537 -7.500000
    endloop
  endfacet
  facet normal 0.904827 -0.425779 0.000000
    outer loop
      vertex 8.763067 -4.817537 7.500000
      vertex 8.763067 -4.817537 -7.500000
      vertex 9.297765 -3.681246 -7.500000
    endloop
  endfacet
  facet normal 0.904827 -0.425779 0.000000
    outer loop
      vertex 9.297765 -3.681246 7.500000
      vertex 8.763067 -4.817537 7.500000
      vertex 9.297765 -3.681246 -7.500000
    endloop
  endfacet
  facet normal 0.951056 -0.309017 0.000000
    outer loop
      vertex 9.297765 -3.681246 7.500000
      vertex 9.297765 -3.681246 -7.500000
      vertex 9.685832 -2.486899 -7.500000
    endloop
  endfacet
  facet normal 0.951056 -0.309017 0.000000
    outer loop
      vertex 9.685832 -2.486899 7.500000
      vertex 9.297765 -3.681246 7.500000
      vertex 9.685832 -2.486899 -7.500000
    endloop
  endfacet
  facet normal 0.982287 -0.187381 0.000000
    outer loop
      vertex 9.685832 -2.486899 7.500000
      vertex 9.685832 -2.486899 -7.500000
      vertex 9.921147 -1.253332 -7.500000
    endloop
  endfacet
  facet normal 0.982287 -0.187381 0.000000
    outer loop
      vertex 9.921147 -1.253332 7.500000
      vertex 9.685832 -2.486899 7.500000
      vertex 9.921147 -1.253332 -7.500000
    endloop
  endfacet
  facet normal 0.998027 -0.062791 0.000000
    outer loop
      vertex 9.921147 -1.253332 7.500000
      vertex 9.921147 -1.253332 -7.500000
      vertex 10.000000 0.000000 -7.500000
    endloop
  endfacet
  facet normal 0.998027 -0.062791 0.000000
    outer loop
      vertex 10.000000 0.000000 7.500000
      vertex 9.921147 -1.253332 7.500000
      vertex 10.000000 0.000000 -7.500000
    endloop
  endfacet
  facet normal 0.998027 0.062791 0.000000
    outer loop
      vertex 10.000000 0.000000 -7.500000
      vertex 9.921147 1.253332 -7.500000
      vertex 9.921147 1.253332 7.500000
    endloop
  endfacet
  facet normal 0.998027 0.062791 -0.000000
    outer loop
      vertex 10.000000 0.000000 7.500000
      vertex 10.000000 0.000000 -7.500000
      vertex 9.921147 1.253332 7.500000
    endloop
  endfacet
  facet normal 0.982287 0.187381 0.000000
    outer loop
      vertex 9.921147 1.253332 -7.500000
      vertex 9.685832 2.486899 -7.500000
      vertex 9.685832 2.486899 7.500000
    endloop
  endfacet
  facet normal 0.982287 0.187381 -0.000000
    outer loop
      vertex 9.921147 1.253332 7.500000
      vertex 9.921147 1.253332 -7.500000
      vertex 9.685832 2.486899 7.500000
    endloop
  endfacet
  facet normal 0.951056 0.309017 0.000000
    outer loop
      vertex 9.685832 2.486899 -7.500000
      vertex 9.297765 3.681246 -7.500000
      vertex 9.297765 3.681246 7.500000
    endloop
  endfacet
  facet normal 0.951056 0.309017 -0.000000
    outer loop
      vertex 9.685832 2.486899 7.500000
      vertex 9.685832 2.486899 -7.500000
      vertex 9.297765 3.681246 7.500000
    endloop
  endfacet
  facet normal 0.904827 0.425779 0.000000
    outer loop
      vertex 9.297765 3.681246 -7.500000
      vertex 8.763067 4.817537 -7.500000
      vertex 8.763067 4.817537 7.500000
    endloop
  endfacet
  facet normal 0.904827 0.425779 -0.000000
    outer loop
      vertex 9.297765 3.681246 7.500000
      vertex 9.297765 3.681246 -7.500000
      vertex 8.763067 4.817537 7.500000
    endloop
  endfacet
  facet normal 0.844328 0.535827 0.000000
    outer loop
      vertex 8.763067 4.817537 -7.500000
      vertex 8.090170 5.877853 -7.500000
      vertex 8.090170 5.877853 7.500000
    endloop
  endfacet
  facet normal 0.844328 0.535827 -0.000000
    outer loop
      vertex 8.763067 4.817537 7.500000
      vertex 8.763067 4.817537 -7.500000
      vertex 8.090170 5.877853 7.500000
    endloop
  endfacet
  facet normal 0.770513 0.637424 0.000000
    outer loop
      vertex 8.090170 5.877853 -7.500000
      vertex 7.289686 6.845471 -7.500000
      vertex 7.289686 6.845471 7.500000
    endloop
  endfacet
  facet normal 0.770513 0.637424 -0.000000
    outer loop
      vertex 8.090170 5.877853 7.500000
      vertex 8.090170 5.877853 -7.500000
      vertex 7.289686 6.845471 7.500000
    endloop
  endfacet
  facet normal 0.684547 0.728969 0.000000
    outer loop
      vertex 6.374240 7.705132 -7.500000
      vertex 6.374240 7.705132 7.500000
      vertex 7.289686 6.845471 -7.500000
    endloop
  endfacet
  facet normal 0.684547 0.728969 0.000000
    outer loop
      vertex 7.289686 6.845471 -7.500000
      vertex 6.374240 7.705132 7.500000
      vertex 7.289686 6.845471 7.500000
    endloop
  endfacet
  facet normal 0.587785 0.809017 0.000000
    outer loop
      vertex 5.358268 8.443279 -7.500000
      vertex 5.358268 8.443279 7.500000
      vertex 6.374240 7.705132 -7.500000
    endloop
  endfacet
  facet normal 0.587785 0.809017 0.000000
    outer loop
      vertex 6.374240 7.705132 -7.500000
      vertex 5.358268 8.443279 7.500000
      vertex 6.374240 7.705132 7.500000
    endloop
  endfacet
  facet normal 0.481754 0.876306 0.000000
    outer loop
      vertex 4.257793 9.048271 -7.500000
      vertex 4.257793 9.048271 7.500000
      vertex 5.358268 8.443279 -7.500000
    endloop
  endfacet
  facet normal 0.481754 0.876306 0.000000
    outer loop
      vertex 5.358268 8.443279 -7.500000
      vertex 4.257793 9.048271 7.500000
      vertex 5.358268 8.443279 7.500000
    endloop
  endfacet
  facet normal 0.368124 0.929777 0.000000
    outer loop
      vertex 3.090170 9.510565 -7.500000
      vertex 3.090170 9.510565 7.500000
      vertex 4.257793 9.048271 -7.500000
    endloop
  endfacet
  facet normal 0.368124 0.929777 0.000000
    outer loop
      vertex 4.257793 9.048271 -7.500000
      vertex 3.090170 9.510565 7.500000
      vertex 4.257793 9.048271 7.500000
    endloop
  endfacet
  facet normal 0.248690 0.968583 0.000000
    outer loop
      vertex 1.873813 9.822873 -7.500000
      vertex 1.873813 9.822873 7.500000
      vertex 3.090170 9.510565 -7.500000
    endloop
  endfacet
  facet normal 0.248690 0.968583 0.000000
    outer loop
      vertex 3.090170 9.510565 -7.500000
      vertex 1.873813 9.822873 7.500000
      vertex 3.090170 9.510565 7.500000
    endloop
  endfacet
  facet normal 0.125333 0.992115 0.000000
    outer loop
      vertex 0.627905 9.980267 -7.500000
      vertex 0.627905 9.980267 7.500000
      vertex 1.873813 9.822873 -7.500000
    endloop
  endfacet
  facet normal 0.125333 0.992115 0.000000
    outer loop
      vertex 1.873813 9.822873 -7.500000
      vertex 0.627905 9.980267 7.500000
      vertex 1.873813 9.822873 7.500000
    endloop
  endfacet
  facet normal 0.000000 1.000000 0.000000
    outer loop
      vertex -0.627905 9.980267 -7.500000
      vertex -0.627905 9.980267 7.500000
      vertex 0.627905 9.980267 -7.500000
    endloop
  endfacet
  facet normal 0.000000 1.000000 0.000000
    outer loop
      vertex 0.627905 9.980267 -7.500000
      vertex -0.627905 9.980267 7.500000
      vertex 0.627905 9.980267 7.500000
    endloop
  endfacet
  facet normal -0.125333 0.992115 0.000000
    outer loop
      vertex -1.873813 9.822873 -7.500000
      vertex -1.873813 9.822873 7.500000
      vertex -0.627905 9.980267 -7.500000
    endloop
  endfacet
  facet normal -0.125333 0.992115 0.000000
    outer loop
      vertex -0.627905 9.980267 -7.500000
      vertex -1.873813 9.822873 7.500000
      vertex -0.627905 9.980267 7.500000
    endloop
  endfacet
  facet normal -0.248690 0.968583 0.000000
    outer loop
      vertex -3.090170 9.510565 -7.500000
      vertex -3.090170 9.510565 7.500000
      vertex -1.873813 9.822873 -7.500000
    endloop
  endfacet
  facet normal -0.248690 0.968583 0.000000
    outer loop
      vertex -1.873813 9.822873 -7.500000
      vertex -3.090170 9.510565 7.500000
      vertex -1.873813 9.822873 7.500000
    endloop
  endfacet
  facet normal -0.368124 0.929777 0.000000
    outer loop
      vertex -4.257793 9.048271 -7.500000
      vertex -4.257793 9.048271 7.500000
      vertex -3.090170 9.510565 -7.500000
    endloop
  endfacet
  facet normal -0.368124 0.929777 0.000000
    outer loop
      vertex -3.090170 9.510565 -7.500000
      vertex -4.257793 9.048271 7.500000
      vertex -3.090170 9.510565 7.500000
    endloop
  endfacet
  facet normal -0.481754 0.876306 0.000000
    outer loop
      vertex -5.358268 8.443279 -7.500000
      vertex -5.358268 8.443279 7.500000
      vertex -4.257793 9.048271 -7.500000
    endloop
  endfacet
  facet normal -0.481754 0.876306 0.000000
    outer loop
      vertex -4.257793 9.048271 -7.500000
      vertex -5.358268 8.443279 7.500000
      vertex -4.257793 9.048271 7.500000
    endloop
  endfacet
  facet normal -0.587785 0.809017 0.000000
    outer loop
      vertex -6.374240 7.705132 -7.500000
      vertex -6.374240 7.705132 7.500000
      vertex -5.358268 8.443279 -7.500000
    endloop
  endfacet
  facet normal -0.587785 0.809017 0.000000
    outer loop
      vertex -5.358268 8.443279 -7.500000
      vertex -6.374240 7.705132 7.500000
      vertex -5.358268 8.443279 7.500000
    endloop
  endfacet
  facet normal -0.684547 0.728969 0.000000
    outer loop
      vertex -7.289686 6.845471 -7.500000
      vertex -7.289686 6.845471 7.500000
      vertex -6.374240 7.705132 -7.500000
    endloop
  endfacet
  facet normal -0.684547 0.728969 0.000000
    outer loop
      vertex -6.374240 7.705132 -7.500000
      vertex -7.289686 6.845471 7.500000
      vertex -6.374240 7.705132 7.500000
    endloop
  endfacet
  facet normal -0.770513 0.637424 0.000000
    outer loop
      vertex -8.090170 5.877853 -7.500000
      vertex -8.090170 5.877853 7.500000
      vertex -7.289686 6.845471 -7.500000
    endloop
  endfacet
  facet normal -0.770513 0.637424 0.000000
    outer loop
      vertex -7.289686 6.845471 -7.500000
      vertex -8.090170 5.877853 7.500000
      vertex -7.289686 6.845471 7.500000
    endloop
  endfacet
  facet normal -0.844328 0.535827 0.000000
    outer loop
      vertex -8.763067 4.817537 -7.500000
      vertex -8.763067 4.817537 7.500000
      vertex -8.090170 5.877853 -7.500000
    endloop
  endfacet
  facet normal -0.844328 0.535827 0.000000
    outer loop
      vertex -8.090170 5.877853 -7.500000
      vertex -8.763067 4.817537 7.500000
      vertex -8.090170 5.877853 7.500000
    endloop
  endfacet
  facet normal -0.904827 0.425779 0.000000
    outer loop
      vertex -9.297765 3.681246 -7.500000
      vertex -9.297765 3.681246 7.500000
      vertex -8.763067 4.817537 -7.500000
    endloop
  endfacet
  facet normal -0.904827 0.425779 0.000000
    outer loop
      vertex -8.763067 4.817537 -7.500000
      vertex -9.297765 3.681246 7.500000
      vertex -8.763067 4.817537 7.500000
    endloop
  endfacet
  facet normal -0.951056 0.309017 0.000000
    outer loop
      vertex -9.685832 2.486899 -7.500000
      vertex -9.685832 2.486899 7.500000
      vertex -9.297765 3.681246 -7.500000
    endloop
  endfacet
  facet normal -0.951056 0.309017 0.000000
    outer loop
      vertex -9.297765 3.681246 -7.500000
      vertex -9.685832 2.486899 7.500000
      vertex -9.297765 3.681246 7.500000
    endloop
  endfacet
  facet normal -0.982287 0.187381 0.000000
    outer loop
      vertex -9.921147 1.253332 -7.500000
      vertex -9.921147 1.253332 7.500000
      vertex -9.685832 2.486899 -7.500000
    endloop
  endfacet
  facet normal -0.982287 0.187381 0.000000
    outer loop
      vertex -9.685832 2.486899 -7.500000
      vertex -9.921147 1.253332 7.500000
      vertex -9.685832 2.486899 7.500000
    endloop
  endfacet
  facet normal 0.998027 -0.062790 0.000000
    outer loop
      vertex -4.960574 0.626666 -7.500000
      vertex -4.960574 0.626666 7.500000
      vertex -5.000000 0.000000 7.500000
    endloop
  endfacet
  facet normal 0.998027 -0.062790 0.000000
    outer loop
      vertex -5.000000 0.000000 -7.500000
      vertex -4.960574 0.626666 -7.500000
      vertex -5.000000 0.000000 7.500000
    endloop
  endfacet
  facet normal 0.998027 0.062790 0.000000
    outer loop
      vertex -5.000000 0.000000 7.500000
      vertex -4.960574 -0.626666 7.500000
      vertex -4.960574 -0.626666 -7.500000
    endloop
  endfacet
  facet normal 0.998027 0.062790 0.000000
    outer loop
      vertex -5.000000 0.000000 -7.500000
      vertex -5.000000 0.000000 7.500000
      vertex -4.960574 -0.626666 -7.500000
    endloop
  endfacet
  facet normal 0.982287 -0.187382 0.000000
    outer loop
      vertex -4.842916 1.243449 -7.500000
      vertex -4.842916 1.243449 7.500000
      vertex -4.960574 0.626666 7.500000
    endloop
  endfacet
  facet normal 0.982287 -0.187382 0.000000
    outer loop
      vertex -4.960574 0.626666 -7.500000
      vertex -4.842916 1.243449 -7.500000
      vertex -4.960574 0.626666 7.500000
    endloop
  endfacet
  facet normal 0.951056 -0.309018 0.000000
    outer loop
      vertex -4.648882 1.840623 -7.500000
      vertex -4.648882 1.840623 7.500000
      vertex -4.842916 1.243449 7.500000
    endloop
  endfacet
  facet normal 0.951056 -0.309018 0.000000
    outer loop
      vertex -4.842916 1.243449 -7.500000
      vertex -4.648882 1.840623 -7.500000
      vertex -4.842916 1.243449 7.500000
    endloop
  endfacet
  facet normal 0.904827 -0.425780 0.000000
    outer loop
      vertex -4.381533 2.408768 -7.500000
      vertex -4.381533 2.408768 7.500000
      vertex -4.648882 1.840623 7.500000
    endloop
  endfacet
  facet normal 0.904827 -0.425780 0.000000
    outer loop
      vertex -4.648882 1.840623 -7.500000
      vertex -4.381533 2.408768 -7.500000
      vertex -4.648882 1.840623 7.500000
    endloop
  endfacet
  facet normal 0.844328 -0.535826 0.000000
    outer loop
      vertex -4.045085 2.938926 -7.500000
      vertex -4.045085 2.938926 7.500000
      vertex -4.381533 2.408768 7.500000
    endloop
  endfacet
  facet normal 0.844328 -0.535826 0.000000
    outer loop
      vertex -4.381533 2.408768 -7.500000
      vertex -4.045085 2.938926 -7.500000
      vertex -4.381533 2.408768 7.500000
    endloop
  endfacet
  facet normal 0.770514 -0.637424 0.000000
    outer loop
      vertex -3.644843 3.422736 -7.500000
      vertex -3.644843 3.422736 7.500000
      vertex -4.045085 2.938926 7.500000
    endloop
  endfacet
  facet normal 0.770514 -0.637424 0.000000
    outer loop
      vertex -4.045085 2.938926 -7.500000
      vertex -3.644843 3.422736 -7.500000
      vertex -4.045085 2.938926 7.500000
    endloop
  endfacet
  facet normal 0.684547 -0.728969 0.000000
    outer loop
      vertex -3.187120 3.852566 -7.500000
      vertex -3.187120 3.852566 7.500000
      vertex -3.644843 3.422736 7.500000
    endloop
  endfacet
  facet normal 0.684547 -0.728969 0.000000
    outer loop
      vertex -3.644843 3.422736 -7.500000
      vertex -3.187120 3.852566 -7.500000
      vertex -3.644843 3.422736 7.500000
    endloop
  endfacet
  facet normal 0.587786 -0.809017 0.000000
    outer loop
      vertex -2.679134 4.221640 -7.500000
      vertex -2.679134 4.221640 7.500000
      vertex -3.187120 3.852566 7.500000
    endloop
  endfacet
  facet normal 0.587786 -0.809017 0.000000
    outer loop
      vertex -3.187120 3.852566 -7.500000
      vertex -2.679134 4.221640 -7.500000
      vertex -3.187120 3.852566 7.500000
    endloop
  endfacet
  facet normal 0.481753 -0.876307 0.000000
    outer loop
      vertex -2.128896 4.524135 -7.500000
      vertex -2.128896 4.524135 7.500000
      vertex -2.679134 4.221640 7.500000
    endloop
  endfacet
  facet normal 0.481753 -0.876307 0.000000
    outer loop
      vertex -2.679134 4.221640 -7.500000
      vertex -2.128896 4.524135 -7.500000
      vertex -2.679134 4.221640 7.500000
    endloop
  endfacet
  facet normal 0.368126 -0.929776 0.000000
    outer loop
      vertex -1.545085 4.755283 -7.500000
      vertex -1.545085 4.755283 7.500000
      vertex -2.128896 4.524135 7.500000
    endloop
  endfacet
  facet normal 0.368126 -0.929776 0.000000
    outer loop
      vertex -2.128896 4.524135 -7.500000
      vertex -1.545085 4.755283 -7.500000
      vertex -2.128896 4.524135 7.500000
    endloop
  endfacet
  facet normal 0.248689 -0.968583 0.000000
    outer loop
      vertex -0.936907 4.911436 -7.500000
      vertex -0.936907 4.911436 7.500000
      vertex -1.545085 4.755283 7.500000
    endloop
  endfacet
  facet normal 0.248689 -0.968583 0.000000
    outer loop
      vertex -1.545085 4.755283 -7.500000
      vertex -0.936907 4.911436 -7.500000
      vertex -1.545085 4.755283 7.500000
    endloop
  endfacet
  facet normal 0.125334 -0.992115 0.000000
    outer loop
      vertex -0.313953 4.990134 -7.500000
      vertex -0.313953 4.990134 7.500000
      vertex -0.936907 4.911436 7.500000
    endloop
  endfacet
  facet normal 0.125334 -0.992115 0.000000
    outer loop
      vertex -0.936907 4.911436 -7.500000
      vertex -0.313953 4.990134 -7.500000
      vertex -0.936907 4.911436 7.500000
    endloop
  endfacet
  facet normal 0.000000 -1.000000 0.000000
    outer loop
      vertex 0.313953 4.990134 -7.500000
      vertex 0.313953 4.990134 7.500000
      vertex -0.313953 4.990134 7.500000
    endloop
  endfacet
  facet normal -0.000000 -1.000000 -0.000000
    outer loop
      vertex -0.313953 4.990134 -7.500000
      vertex 0.313953 4.990134 -7.500000
      vertex -0.313953 4.990134 7.500000
    endloop
  endfacet
  facet normal -0.125334 -0.992115 -0.000000
    outer loop
      vertex 0.936907 4.911436 -7.500000
      vertex 0.936907 4.911436 7.500000
      vertex 0.313953 4.990134 7.500000
    endloop
  endfacet
  facet normal -0.125334 -0.992115 -0.000000
    outer loop
      vertex 0.313953 4.990134 -7.500000
      vertex 0.936907 4.911436 -7.500000
      vertex 0.313953 4.990134 7.500000
    endloop
  endfacet
  facet normal -0.248689 -0.968583 -0.000000
    outer loop
      vertex 1.545085 4.755283 -7.500000
      vertex 1.545085 4.755283 7.500000
      vertex 0.936907 4.911436 7.500000
    endloop
  endfacet
  facet normal -0.248689 -0.968583 -0.000000
    outer loop
      vertex 0.936907 4.911436 -7.500000
      vertex 1.545085 4.755283 -7.500000
      vertex 0.936907 4.911436 7.500000
    endloop
  endfacet
  facet normal -0.368126 -0.929776 -0.000000
    outer loop
      vertex 2.128896 4.524135 -7.500000
      vertex 2.128896 4.524135 7.500000
      vertex 1.545085 4.755283 7.500000
    endloop
  endfacet
  facet normal -0.368126 -0.929776 -0.000000
    outer loop
      vertex 1.545085 4.755283 -7.500000
      vertex 2.128896 4.524135 -7.500000
      vertex 1.545085 4.755283 7.500000
    endloop
  endfacet
  facet normal -0.481753 -0.876307 -0.000000
    outer loop
      vertex 2.679134 4.221640 -7.500000
      vertex 2.679134 4.221640 7.500000
      vertex 2.128896 4.524135 7.500000
    endloop
  endfacet
  facet normal -0.481753 -0.876307 -0.000000
    outer loop
      vertex 2.128896 4.524135 -7.500000
      vertex 2.679134 4.221640 -7.500000
      vertex 2.128896 4.524135 7.500000
    endloop
  endfacet
  facet normal -0.587786 -0.809017 -0.000000
    outer loop
      vertex 3.187120 3.852566 -7.500000
      vertex 3.187120 3.852566 7.500000
      vertex 2.679134 4.221640 7.500000
    endloop
  endfacet
  facet normal -0.587786 -0.809017 -0.000000
    outer loop
      vertex 2.679134 4.221640 -7.500000
      vertex 3.187120 3.852566 -7.500000
      vertex 2.679134 4.221640 7.500000
    endloop
  endfacet
  facet normal -0.684547 -0.728969 -0.000000
    outer loop
      vertex 3.644843 3.422736 -7.500000
      vertex 3.644843 3.422736 7.500000
      vertex 3.187120 3.852566 7.500000
    endloop
  endfacet
  facet normal -0.684547 -0.728969 -0.000000
    outer loop
      vertex 3.187120 3.852566 -7.500000
      vertex 3.644843 3.422736 -7.500000
      vertex 3.187120 3.852566 7.500000
    endloop
  endfacet
  facet normal -0.770514 -0.637424 0.000000
    outer loop
      vertex 4.045085 2.938926 7.500000
      vertex 3.644843 3.422736 7.500000
      vertex 4.045085 2.938926 -7.500000
    endloop
  endfacet
  facet normal -0.770514 -0.637424 0.000000
    outer loop
      vertex 4.045085 2.938926 -7.500000
      vertex 3.644843 3.422736 7.500000
      vertex 3.644843 3.422736 -7.500000
    endloop
  endfacet
  facet normal -0.844328 -0.535826 0.000000
    outer loop
      vertex 4.381533 2.408768 7.500000
      vertex 4.045085 2.938926 7.500000
      vertex 4.381533 2.408768 -7.500000
    endloop
  endfacet
  facet normal -0.844328 -0.535826 0.000000
    outer loop
      vertex 4.381533 2.408768 -7.500000
      vertex 4.045085 2.938926 7.500000
      vertex 4.045085 2.938926 -7.500000
    endloop
  endfacet
  facet normal -0.904827 -0.425780 0.000000
    outer loop
      vertex 4.648882 1.840623 7.500000
      vertex 4.381533 2.408768 7.500000
      vertex 4.648882 1.840623 -7.500000
    endloop
  endfacet
  facet normal -0.904827 -0.425780 0.000000
    outer loop
      vertex 4.648882 1.840623 -7.500000
      vertex 4.381533 2.408768 7.500000
      vertex 4.381533 2.408768 -7.500000
    endloop
  endfacet
  facet normal -0.951056 -0.309018 0.000000
    outer loop
      vertex 4.842916 1.243449 7.500000
      vertex 4.648882 1.840623 7.500000
      vertex 4.842916 1.243449 -7.500000
    endloop
  endfacet
  facet normal -0.951056 -0.309018 0.000000
    outer loop
      vertex 4.842916 1.243449 -7.500000
      vertex 4.648882 1.840623 7.500000
      vertex 4.648882 1.840623 -7.500000
    endloop
  endfacet
  facet normal -0.982287 -0.187382 0.000000
    outer loop
      vertex 4.960574 0.626666 7.500000
      vertex 4.842916 1.243449 7.500000
      vertex 4.960574 0.626666 -7.500000
    endloop
  endfacet
  facet normal -0.982287 -0.187382 0.000000
    outer loop
      vertex 4.960574 0.626666 -7.500000
      vertex 4.842916 1.243449 7.500000
      vertex 4.842916 1.243449 -7.500000
    endloop
  endfacet
  facet normal -0.998027 -0.062790 0.000000
    outer loop
      vertex 5.000000 0.000000 7.500000
      vertex 4.960574 0.626666 7.500000
      vertex 5.000000 0.000000 -7.500000
    endloop
  endfacet
  facet normal -0.998027 -0.062790 0.000000
    outer loop
      vertex 5.000000 0.000000 -7.500000
      vertex 4.960574 0.626666 7.500000
      vertex 4.960574 0.626666 -7.500000
    endloop
  endfacet
  facet normal -0.998027 0.062790 0.000000
    outer loop
      vertex 5.000000 0.000000 7.500000
      vertex 5.000000 0.000000 -7.500000
      vertex 4.960574 -0.626666 7.500000
    endloop
  endfacet
  facet normal -0.998027 0.062790 0.000000
    outer loop
      vertex 4.960574 -0.626666 7.500000
      vertex 5.000000 0.000000 -7.500000
      vertex 4.960574 -0.626666 -7.500000
    endloop
  endfacet
  facet normal -0.982287 0.187382 0.000000
    outer loop
      vertex 4.960574 -0.626666 7.500000
      vertex 4.960574 -0.626666 -7.500000
      vertex 4.842916 -1.243449 7.500000
    endloop
  endfacet
  facet normal -0.982287 0.187382 0.000000
    outer loop
      vertex 4.842916 -1.243449 7.500000
      vertex 4.960574 -0.626666 -7.500000
      vertex 4.842916 -1.243449 -7.500000
    endloop
  endfacet
  facet normal -0.951056 0.309018 0.000000
    outer loop
      vertex 4.842916 -1.243449 7.500000
      vertex 4.842916 -1.243449 -7.500000
      vertex 4.648882 -1.840623 7.500000
    endloop
  endfacet
  facet normal -0.951056 0.309018 0.000000
    outer loop
      vertex 4.648882 -1.840623 7.500000
      vertex 4.842916 -1.243449 -7.500000
      vertex 4.648882 -1.840623 -7.500000
    endloop
  endfacet
  facet normal -0.904827 0.425780 0.000000
    outer loop
      vertex 4.648882 -1.840623 7.500000
      vertex 4.648882 -1.840623 -7.500000
      vertex 4.381533 -2.408768 7.500000
    endloop
  endfacet
  facet normal -0.904827 0.425780 0.000000
    outer loop
      vertex 4.381533 -2.408768 7.500000
      vertex 4.648882 -1.840623 -7.500000
      vertex 4.381533 -2.408768 -7.500000
    endloop
  endfacet
  facet normal -0.844328 0.535826 0.000000
    outer loop
      vertex 4.381533 -2.408768 7.500000
      vertex 4.381533 -2.408768 -7.500000
      vertex 4.045085 -2.938926 7.500000
    endloop
  endfacet
  facet normal -0.844328 0.535826 0.000000
    outer loop
      vertex 4.045085 -2.938926 7.500000
      vertex 4.381533 -2.408768 -7.500000
      vertex 4.045085 -2.938926 -7.500000
    endloop
  endfacet
  facet normal -0.770514 0.637424 0.000000
    outer loop
      vertex 4.045085 -2.938926 7.500000
      vertex 4.045085 -2.938926 -7.500000
      vertex 3.644843 -3.422736 7.500000
    endloop
  endfacet
  facet normal -0.770514 0.637424 0.000000
    outer loop
      vertex 3.644843 -3.422736 7.500000
      vertex 4.045085 -2.938926 -7.500000
      vertex 3.644843 -3.422736 -7.500000
    endloop
  endfacet
  facet normal -0.684547 0.728969 0.000000
    outer loop
      vertex 3.644843 -3.422736 7.500000
      vertex 3.644843 -3.422736 -7.500000
      vertex 3.187120 -3.852566 7.500000
    endloop
  endfacet
  facet normal -0.684547 0.728969 0.000000
    outer loop
      vertex 3.187120 -3.852566 7.500000
      vertex 3.644843 -3.422736 -7.500000
      vertex 3.187120 -3.852566 -7.500000
    endloop
  endfacet
  facet normal -0.587786 0.809017 0.000000
    outer loop
      vertex 3.187120 -3.852566 7.500000
      vertex 3.187120 -3.852566 -7.500000
      vertex 2.679134 -4.221640 7.500000
    endloop
  endfacet
  facet normal -0.587786 0.809017 0.000000
    outer loop
      vertex 2.679134 -4.221640 7.500000
      vertex 3.187120 -3.852566 -7.500000
      vertex 2.679134 -4.221640 -7.500000
    endloop
  endfacet
  facet normal -0.481753 0.876307 0.000000
    outer loop
      vertex 2.679134 -4.221640 7.500000
      vertex 2.679134 -4.221640 -7.500000
      vertex 2.128896 -4.524135 7.500000
    endloop
  endfacet
  facet normal -0.481753 0.876307 0.000000
    outer loop
      vertex 2.128896 -4.524135 7.500000
      vertex 2.679134 -4.221640 -7.500000
      vertex 2.128896 -4.524135 -7.500000
    endloop
  endfacet
  facet normal -0.368126 0.929776 0.000000
    outer loop
      vertex 2.128896 -4.524135 7.500000
      vertex 2.128896 -4.524135 -7.500000
      vertex 1.545085 -4.755283 7.500000
    endloop
  endfacet
  facet normal -0.368126 0.929776 0.000000
    outer loop
      vertex 1.545085 -4.755283 7.500000
      vertex 2.128896 -4.524135 -7.500000
      vertex 1.545085 -4.755283 -7.500000
    endloop
  endfacet
  facet normal -0.248689 0.968583 0.000000
    outer loop
      vertex 1.545085 -4.755283 7.500000
      vertex 1.545085 -4.755283 -7.500000
      vertex 0.936907 -4.911436 7.500000
    endloop
  endfacet
  facet normal -0.248689 0.968583 0.000000
    outer loop
      vertex 0.936907 -4.911436 7.500000
      vertex 1.545085 -4.755283 -7.500000
      vertex 0.936907 -4.911436 -7.500000
    endloop
  endfacet
  facet normal -0.125334 0.992115 0.000000
    outer loop
      vertex 0.936907 -4.911436 7.500000
      vertex 0.936907 -4.911436 -7.500000
      vertex 0.313953 -4.990134 7.500000
    endloop
  endfacet
  facet normal -0.125334 0.992115 0.000000
    outer loop
      vertex 0.313953 -4.990134 7.500000
      vertex 0.936907 -4.911436 -7.500000
      vertex 0.313953 -4.990134 -7.500000
    endloop
  endfacet
  facet normal 0.000000 1.000000 0.000000
    outer loop
      vertex 0.313953 -4.990134 7.500000
      vertex 0.313953 -4.990134 -7.500000
      vertex -0.313953 -4.990134 7.500000
    endloop
  endfacet
  facet normal 0.000000 1.000000 -0.000000
    outer loop
      vertex -0.313953 -4.990134 7.500000
      vertex 0.313953 -4.990134 -7.500000
      vertex -0.313953 -4.990134 -7.500000
    endloop
  endfacet
  facet normal 0.125334 0.992115 -0.000000
    outer loop
      vertex -0.313953 -4.990134 7.500000
      vertex -0.313953 -4.990134 -7.500000
      vertex -0.936907 -4.911436 7.500000
    endloop
  endfacet
  facet normal 0.125334 0.992115 -0.000000
    outer loop
      vertex -0.936907 -4.911436 7.500000
      vertex -0.313953 -4.990134 -7.500000
      vertex -0.936907 -4.911436 -7.500000
    endloop
  endfacet
  facet normal 0.248689 0.968583 -0.000000
    outer loop
      vertex -0.936907 -4.911436 7.500000
      vertex -0.936907 -4.911436 -7.500000
      vertex -1.545085 -4.755283 7.500000
    endloop
  endfacet
  facet normal 0.248689 0.968583 -0.000000
    outer loop
      vertex -1.545085 -4.755283 7.500000
      vertex -0.936907 -4.911436 -7.500000
      vertex -1.545085 -4.755283 -7.500000
    endloop
  endfacet
  facet normal 0.368126 0.929776 -0.000000
    outer loop
      vertex -1.545085 -4.755283 7.500000
      vertex -1.545085 -4.755283 -7.500000
      vertex -2.128896 -4.524135 7.500000
    endloop
  endfacet
  facet normal 0.368126 0.929776 -0.000000
    outer loop
      vertex -2.128896 -4.524135 7.500000
      vertex -1.545085 -4.755283 -7.500000
      vertex -2.128896 -4.524135 -7.500000
    endloop
  endfacet
  facet normal 0.481753 0.876307 -0.000000
    outer loop
      vertex -2.128896 -4.524135 7.500000
      vertex -2.128896 -4.524135 -7.500000
      vertex -2.679134 -4.221640 7.500000
    endloop
  endfacet
  facet normal 0.481753 0.876307 -0.000000
    outer loop
      vertex -2.679134 -4.221640 7.500000
      vertex -2.128896 -4.524135 -7.500000
      vertex -2.679134 -4.221640 -7.500000
    endloop
  endfacet
  facet normal 0.587786 0.809017 -0.000000
    outer loop
      vertex -2.679134 -4.221640 7.500000
      vertex -2.679134 -4.221640 -7.500000
      vertex -3.187120 -3.852566 7.500000
    endloop
  endfacet
  facet normal 0.587786 0.809017 -0.000000
    outer loop
      vertex -3.187120 -3.852566 7.500000
      vertex -2.679134 -4.221640 -7.500000
      vertex -3.187120 -3.852566 -7.500000
    endloop
  endfacet
  facet normal 0.684547 0.728969 -0.000000
    outer loop
      vertex -3.187120 -3.852566 7.500000
      vertex -3.187120 -3.852566 -7.500000
      vertex -3.644843 -3.422736 7.500000
    endloop
  endfacet
  facet normal 0.684547 0.728969 -0.000000
    outer loop
      vertex -3.644843 -3.422736 7.500000
      vertex -3.187120 -3.852566 -7.500000
      vertex -3.644843 -3.422736 -7.500000
    endloop
  endfacet
  facet normal 0.770514 0.637424 0.000000
    outer loop
      vertex -4.045085 -2.938926 7.500000
      vertex -3.644843 -3.422736 7.500000
      vertex -3.644843 -3.422736 -7.500000
    endloop
  endfacet
  facet normal 0.770514 0.637424 0.000000
    outer loop
      vertex -4.045085 -2.938926 -7.500000
      vertex -4.045085 -2.938926 7.500000
      vertex -3.644843 -3.422736 -7.500000
    endloop
  endfacet
  facet normal 0.844328 0.535826 0.000000
    outer loop
      vertex -4.381533 -2.408768 7.500000
      vertex -4.045085 -2.938926 7.500000
      vertex -4.045085 -2.938926 -7.500000
    endloop
  endfacet
  facet normal 0.844328 0.535826 0.000000
    outer loop
      vertex -4.381533 -2.408768 -7.500000
      vertex -4.381533 -2.408768 7.500000
      vertex -4.045085 -2.938926 -7.500000
    endloop
  endfacet
  facet normal 0.904827 0.425780 0.000000
    outer loop
      vertex -4.648882 -1.840623 7.500000
      vertex -4.381533 -2.408768 7.500000
      vertex -4.381533 -2.408768 -7.500000
    endloop
  endfacet
  facet normal 0.904827 0.425780 0.000000
    outer loop
      vertex -4.648882 -1.840623 -7.500000
      vertex -4.648882 -1.840623 7.500000
      vertex -4.381533 -2.408768 -7.500000
    endloop
  endfacet
  facet normal 0.951056 0.309018 0.000000
    outer loop
      vertex -4.842916 -1.243449 7.500000
      vertex -4.648882 -1.840623 7.500000
      vertex -4.648882 -1.840623 -7.500000
    endloop
  endfacet
  facet normal 0.951056 0.309018 0.000000
    outer loop
      vertex -4.842916 -1.243449 -7.500000
      vertex -4.842916 -1.243449 7.500000
      vertex -4.648882 -1.840623 -7.500000
    endloop
  endfacet
  facet normal 0.982287 0.187382 0.000000
    outer loop
      vertex -4.960574 -0.626666 7.500000
      vertex -4.842916 -1.243449 7.500000
      vertex -4.842916 -1.243449 -7.500000
    endloop
  endfacet
  facet normal 0.982287 0.187382 0.000000
    outer loop
      vertex -4.960574 -0.626666 -7.500000
      vertex -4.960574 -0.626666 7.500000
      vertex -4.842916 -1.243449 -7.500000
    endloop
  endfacet
  facet normal 0.000000 0.000000 1.000000
    outer loop
      vertex -9.921147 1.253332 7.500000
      vertex -10.000000 0.000000 7.500000
      vertex -9.921147 -1.253332 7.500000
    endloop
  endfacet
  facet normal 0.000000 0.000000 1.000000
    outer loop
      vertex -9.297765 -3.681246 7.500000
      vertex -9.921147 1.253332 7.500000
      vertex -9.685832 -2.486899 7.500000
    endloop
  endfacet
  facet normal 0.000000 0.000000 1.000000
    outer loop
      vertex -9.685832 -2.486899 7.500000
      vertex -9.921147 1.253332 7.500000
      vertex -9.921147 -1.253332 7.500000
    endloop
  endfacet
  facet normal 0.000000 0.000000 1.000000
    outer loop
      vertex -8.763067 -4.817537 7.500000
      vertex -9.921147 1.253332 7.500000
      vertex -9.297765 -3.681246 7.500000
    endloop
  endfacet
  facet normal 0.000000 0.000000 1.000000
    outer loop
      vertex -8.090170 -5.877853 7.500000
      vertex -9.921147 1.253332 7.500000
      vertex -8.763067 -4.817537 7.500000
    endloop
  endfacet
  facet normal 0.000000 0.000000 1.000000
    outer loop
      vertex -7.289686 -6.845471 7.500000
      vertex -9.921147 1.253332 7.500000
      vertex -8.090170 -5.877853 7.500000
    endloop
  endfacet
  facet normal 0.000000 0.000000 1.000000
    outer loop
      vertex -6.374240 -7.705132 7.500000
      vertex -9.921147 1.253332 7.500000
      vertex -7.289686 -6.845471 7.500000
    endloop
  endfacet
  facet normal 0.000000 0.000000 1.000000
    outer loop
      vertex -5.358268 -8.443279 7.500000
      vertex -9.921147 1.253332 7.500000
      vertex -6.374240 -7.705132 7.500000
    endloop
  endfacet
  facet normal 0.000000 0.000000 1.000000
    outer loop
      vertex -4.257793 -9.048271 7.500000
      vertex -9.921147 1.253332 7.500000
      vertex -5.358268 -8.443279 7.500000
    endloop
  endfacet
  facet normal 0.000000 0.000000 1.000000
    outer loop
      vertex -3.090170 -9.510565 7.500000
      vertex -9.921147 1.253332 7.500000
      vertex -4.257793 -9.048271 7.500000
    endloop
  endfacet
  facet normal 0.000000 0.000000 1.000000
    outer loop
      vertex -1.873813 -9.822873 7.500000
      vertex -9.921147 1.253332 7.500000
      vertex -3.090170 -9.510565 7.500000
    endloop
  endfacet
  facet normal 0.000000 0.000000 1.000000
    outer loop
      vertex -0.627905 -9.980267 7.500000
      vertex -9.921147 1.253332 7.500000
      vertex -1.873813 -9.822873 7.500000
    endloop
  endfacet
  facet normal -0.000000 0.000000 1.000000
    outer loop
      vertex 0.627905 -9.980267 7.500000
      vertex -9.921147 1.253332 7.500000
      vertex -0.627905 -9.980267 7.500000
    endloop
  endfacet
  facet normal -0.000000 0.000000 1.000000
    outer loop
      vertex 1.873813 -9.822873 7.500000
      vertex -9.921147 1.253332 7.500000
      vertex 0.627905 -9.980267 7.500000
    endloop
  endfacet
  facet normal -0.000000 0.000000 1.000000
    outer loop
      vertex 3.090170 -9.510565 7.500000
      vertex -9.921147 1.253332 7.500000
      vertex 1.873813 -9.822873 7.500000
    endloop
  endfacet
  facet normal -0.000000 -0.000000 1.000000
    outer loop
      vertex -3.187120 -3.852566 7.500000
      vertex -9.921147 1.253332 7.500000
      vertex 3.090170 -9.510565 7.500000
    endloop
  endfacet
  facet normal 0.000000 0.000000 1.000000
    outer loop
      vertex -3.187120 -3.852566 7.500000
      vertex -3.644843 -3.422736 7.500000
      vertex -9.921147 1.253332 7.500000
    endloop
  endfacet
  facet normal -0.000000 -0.000000 1.000000
    outer loop
      vertex -1.545085 -4.755283 7.500000
      vertex -2.128896 -4.524135 7.500000
      vertex 4.257793 -9.048271 7.500000
    endloop
  endfacet
  facet normal 0.000000 -0.000000 1.000000
    outer loop
      vertex 0.313953 -4.990134 7.500000
      vertex -0.313953 -4.990134 7.500000
      vertex 5.358268 -8.443279 7.500000
    endloop
  endfacet
  facet normal 0.000000 -0.000000 1.000000
    outer loop
      vertex 3.187120 -3.852566 7.500000
      vertex 2.679134 -4.221640 7.500000
      vertex 8.090170 -5.877853 7.500000
    endloop
  endfacet
  facet normal 0.000000 -0.000000 1.000000
    outer loop
      vertex 4.381533 -2.408768 7.500000
      vertex 4.045085 -2.938926 7.500000
      vertex 9.297765 -3.681246 7.500000
    endloop
  endfacet
  facet normal 0.000000 0.000000 1.000000
    outer loop
      vertex -4.842916 1.243449 7.500000
      vertex -4.648882 1.840623 7.500000
      vertex -9.921147 1.253332 7.500000
    endloop
  endfacet
  facet normal 0.000000 0.000000 1.000000
    outer loop
      vertex 4.381533 2.408768 7.500000
      vertex 4.648882 1.840623 7.500000
      vertex 9.685832 2.486899 7.500000
    endloop
  endfacet
  facet normal 0.000000 0.000000 1.000000
    outer loop
      vertex -0.936907 4.911436 7.500000
      vertex -0.313953 4.990134 7.500000
      vertex 6.374240 7.705132 7.500000
    endloop
  endfacet
  facet normal 0.000000 0.000000 1.000000
    outer loop
      vertex 3.187120 3.852566 7.500000
      vertex 3.644843 3.422736 7.500000
      vertex 8.763067 4.817537 7.500000
    endloop
  endfacet
  facet normal 0.000000 0.000000 1.000000
    outer loop
      vertex -0.313953 4.990134 7.500000
      vertex 0.313953 4.990134 7.500000
      vertex 6.374240 7.705132 7.500000
    endloop
  endfacet
  facet normal 0.000000 -0.000000 1.000000
    outer loop
      vertex 4.257793 9.048271 7.500000
      vertex -9.921147 1.253332 7.500000
      vertex 5.358268 8.443279 7.500000
    endloop
  endfacet
  facet normal 0.000000 -0.000000 1.000000
    outer loop
      vertex 3.090170 9.510565 7.500000
      vertex -9.921147 1.253332 7.500000
      vertex 4.257793 9.048271 7.500000
    endloop
  endfacet
  facet normal 0.000000 -0.000000 1.000000
    outer loop
      vertex 1.873813 9.822873 7.500000
      vertex -9.921147 1.253332 7.500000
      vertex 3.090170 9.510565 7.500000
    endloop
  endfacet
  facet normal 0.000000 -0.000000 1.000000
    outer loop
      vertex 0.627905 9.980267 7.500000
      vertex -9.921147 1.253332 7.500000
      vertex 1.873813 9.822873 7.500000
    endloop
  endfacet
  facet normal 0.000000 -0.000000 1.000000
    outer loop
      vertex -0.627905 9.980267 7.500000
      vertex -9.921147 1.253332 7.500000
      vertex 0.627905 9.980267 7.500000
    endloop
  endfacet
  facet normal 0.000000 -0.000000 1.000000
    outer loop
      vertex -1.873813 9.822873 7.500000
      vertex -9.921147 1.253332 7.500000
      vertex -0.627905 9.980267 7.500000
    endloop
  endfacet
  facet normal 0.000000 -0.000000 1.000000
    outer loop
      vertex -3.090170 9.510565 7.500000
      vertex -9.921147 1.253332 7.500000
      vertex -1.873813 9.822873 7.500000
    endloop
  endfacet
  facet normal 0.000000 -0.000000 1.000000
    outer loop
      vertex -4.257793 9.048271 7.500000
      vertex -9.921147 1.253332 7.500000
      vertex -3.090170 9.510565 7.500000
    endloop
  endfacet
  facet normal 0.000000 -0.000000 1.000000
    outer loop
      vertex -5.358268 8.443279 7.500000
      vertex -9.921147 1.253332 7.500000
      vertex -4.257793 9.048271 7.500000
    endloop
  endfacet
  facet normal 0.000000 -0.000000 1.000000
    outer loop
      vertex -6.374240 7.705132 7.500000
      vertex -9.921147 1.253332 7.500000
      vertex -5.358268 8.443279 7.500000
    endloop
  endfacet
  facet normal 0.000000 -0.000000 1.000000
    outer loop
      vertex -7.289686 6.845471 7.500000
      vertex -9.921147 1.253332 7.500000
      vertex -6.374240 7.705132 7.500000
    endloop
  endfacet
  facet normal 0.000000 -0.000000 1.000000
    outer loop
      vertex -8.090170 5.877853 7.500000
      vertex -9.921147 1.253332 7.500000
      vertex -7.289686 6.845471 7.500000
    endloop
  endfacet
  facet normal 0.000000 -0.000000 1.000000
    outer loop
      vertex -8.763067 4.817537 7.500000
      vertex -9.921147 1.253332 7.500000
      vertex -8.090170 5.877853 7.500000
    endloop
  endfacet
  facet normal 0.000000 -0.000000 1.000000
    outer loop
      vertex -9.297765 3.681246 7.500000
      vertex -9.921147 1.253332 7.500000
      vertex -8.763067 4.817537 7.500000
    endloop
  endfacet
  facet normal 0.000000 -0.000000 1.000000
    outer loop
      vertex -9.685832 2.486899 7.500000
      vertex -9.921147 1.253332 7.500000
      vertex -9.297765 3.681246 7.500000
    endloop
  endfacet
  facet normal 0.000000 -0.000000 1.000000
    outer loop
      vertex 2.679134 -4.221640 7.500000
      vertex 2.128896 -4.524135 7.500000
      vertex 7.289686 -6.845471 7.500000
    endloop
  endfacet
  facet normal 0.000000 -0.000000 1.000000
    outer loop
      vertex 4.045085 -2.938926 7.500000
      vertex 3.644843 -3.422736 7.500000
      vertex 8.763067 -4.817537 7.500000
    endloop
  endfacet
  facet normal 0.000000 -0.000000 1.000000
    outer loop
      vertex 4.960574 -0.626666 7.500000
      vertex 4.842916 -1.243449 7.500000
      vertex 9.921147 -1.253332 7.500000
    endloop
  endfacet
  facet normal -0.000000 0.000000 1.000000
    outer loop
      vertex -4.648882 1.840623 7.500000
      vertex -4.381533 2.408768 7.500000
      vertex -9.921147 1.253332 7.500000
    endloop
  endfacet
  facet normal -0.000000 0.000000 1.000000
    outer loop
      vertex -4.045085 2.938926 7.500000
      vertex -3.644843 3.422736 7.500000
      vertex -9.921147 1.253332 7.500000
    endloop
  endfacet
  facet normal 0.000000 0.000000 1.000000
    outer loop
      vertex 3.644843 3.422736 7.500000
      vertex 4.045085 2.938926 7.500000
      vertex 9.297765 3.681246 7.500000
    endloop
  endfacet
  facet normal -0.000000 0.000000 1.000000
    outer loop
      vertex -3.187120 3.852566 7.500000
      vertex -2.679134 4.221640 7.500000
      vertex -9.921147 1.253332 7.500000
    endloop
  endfacet
  facet normal 0.000000 0.000000 1.000000
    outer loop
      vertex 2.128896 4.524135 7.500000
      vertex 2.679134 4.221640 7.500000
      vertex 8.090170 5.877853 7.500000
    endloop
  endfacet
  facet normal 0.000000 0.000000 1.000000
    outer loop
      vertex -3.187120 3.852566 7.500000
      vertex -9.921147 1.253332 7.500000
      vertex -3.644843 3.422736 7.500000
    endloop
  endfacet
  facet normal 0.000000 0.000000 1.000000
    outer loop
      vertex -2.128896 4.524135 7.500000
      vertex -1.545085 4.755283 7.500000
      vertex 5.358268 8.443279 7.500000
    endloop
  endfacet
  facet normal 0.000000 0.000000 1.000000
    outer loop
      vertex 0.936907 4.911436 7.500000
      vertex 1.545085 4.755283 7.500000
      vertex 7.289686 6.845471 7.500000
    endloop
  endfacet
  facet normal 0.000000 0.000000 1.000000
    outer loop
      vertex -2.128896 4.524135 7.500000
      vertex -9.921147 1.253332 7.500000
      vertex -2.679134 4.221640 7.500000
    endloop
  endfacet
  facet normal 0.000000 0.000000 1.000000
    outer loop
      vertex 5.358268 8.443279 7.500000
      vertex -9.921147 1.253332 7.500000
      vertex -2.128896 4.524135 7.500000
    endloop
  endfacet
  facet normal 0.000000 -0.000000 1.000000
    outer loop
      vertex 5.358268 8.443279 7.500000
      vertex -1.545085 4.755283 7.500000
      vertex 6.374240 7.705132 7.500000
    endloop
  endfacet
  facet normal 0.000000 0.000000 1.000000
    outer loop
      vertex -1.545085 4.755283 7.500000
      vertex -0.936907 4.911436 7.500000
      vertex 6.374240 7.705132 7.500000
    endloop
  endfacet
  facet normal 0.000000 -0.000000 1.000000
    outer loop
      vertex 6.374240 7.705132 7.500000
      vertex 0.313953 4.990134 7.500000
      vertex 7.289686 6.845471 7.500000
    endloop
  endfacet
  facet normal 0.000000 0.000000 1.000000
    outer loop
      vertex 0.313953 4.990134 7.500000
      vertex 0.936907 4.911436 7.500000
      vertex 7.289686 6.845471 7.500000
    endloop
  endfacet
  facet normal 0.000000 -0.000000 1.000000
    outer loop
      vertex 7.289686 6.845471 7.500000
      vertex 1.545085 4.755283 7.500000
      vertex 8.090170 5.877853 7.500000
    endloop
  endfacet
  facet normal 0.000000 0.000000 1.000000
    outer loop
      vertex 1.545085 4.755283 7.500000
      vertex 2.128896 4.524135 7.500000
      vertex 8.090170 5.877853 7.500000
    endloop
  endfacet
  facet normal 0.000000 -0.000000 1.000000
    outer loop
      vertex 8.090170 5.877853 7.500000
      vertex 2.679134 4.221640 7.500000
      vertex 8.763067 4.817537 7.500000
    endloop
  endfacet
  facet normal 0.000000 0.000000 1.000000
    outer loop
      vertex 2.679134 4.221640 7.500000
      vertex 3.187120 3.852566 7.500000
      vertex 8.763067 4.817537 7.500000
    endloop
  endfacet
  facet normal 0.000000 -0.000000 1.000000
    outer loop
      vertex 8.763067 4.817537 7.500000
      vertex 3.644843 3.422736 7.500000
      vertex 9.297765 3.681246 7.500000
    endloop
  endfacet
  facet normal -0.000000 0.000000 1.000000
    outer loop
      vertex -4.381533 2.408768 7.500000
      vertex -4.045085 2.938926 7.500000
      vertex -9.921147 1.253332 7.500000
    endloop
  endfacet
  facet normal 0.000000 -0.000000 1.000000
    outer loop
      vertex 9.297765 3.681246 7.500000
      vertex 4.045085 2.938926 7.500000
      vertex 9.685832 2.486899 7.500000
    endloop
  endfacet
  facet normal 0.000000 0.000000 1.000000
    outer loop
      vertex 4.045085 2.938926 7.500000
      vertex 4.381533 2.408768 7.500000
      vertex 9.685832 2.486899 7.500000
    endloop
  endfacet
  facet normal 0.000000 -0.000000 1.000000
    outer loop
      vertex 9.685832 2.486899 7.500000
      vertex 4.648882 1.840623 7.500000
      vertex 9.921147 1.253332 7.500000
    endloop
  endfacet
  facet normal 0.000000 0.000000 1.000000
    outer loop
      vertex 4.648882 1.840623 7.500000
      vertex 4.842916 1.243449 7.500000
      vertex 9.921147 1.253332 7.500000
    endloop
  endfacet
  facet normal 0.000000 -0.000000 1.000000
    outer loop
      vertex 9.921147 1.253332 7.500000
      vertex 4.842916 1.243449 7.500000
      vertex 10.000000 0.000000 7.500000
    endloop
  endfacet
  facet normal 0.000000 0.000000 1.000000
    outer loop
      vertex 4.842916 1.243449 7.500000
      vertex 4.960574 0.626666 7.500000
      vertex 10.000000 0.000000 7.500000
    endloop
  endfacet
  facet normal 0.000000 0.000000 1.000000
    outer loop
      vertex 10.000000 0.000000 7.500000
      vertex 5.000000 0.000000 7.500000
      vertex 9.921147 -1.253332 7.500000
    endloop
  endfacet
  facet normal 0.000000 -0.000000 1.000000
    outer loop
      vertex 4.842916 -1.243449 7.500000
      vertex 4.648882 -1.840623 7.500000
      vertex 9.685832 -2.486899 7.500000
    endloop
  endfacet
  facet normal 0.000000 -0.000000 1.000000
    outer loop
      vertex 5.000000 0.000000 7.500000
      vertex 4.960574 -0.626666 7.500000
      vertex 9.921147 -1.253332 7.500000
    endloop
  endfacet
  facet normal 0.000000 0.000000 1.000000
    outer loop
      vertex 4.960574 0.626666 7.500000
      vertex 5.000000 0.000000 7.500000
      vertex 10.000000 0.000000 7.500000
    endloop
  endfacet
  facet normal -0.000000 0.000000 1.000000
    outer loop
      vertex 9.921147 -1.253332 7.500000
      vertex 4.842916 -1.243449 7.500000
      vertex 9.685832 -2.486899 7.500000
    endloop
  endfacet
  facet normal -0.000000 0.000000 1.000000
    outer loop
      vertex 9.685832 -2.486899 7.500000
      vertex 4.648882 -1.840623 7.500000
      vertex 9.297765 -3.681246 7.500000
    endloop
  endfacet
  facet normal 0.000000 -0.000000 1.000000
    outer loop
      vertex 4.648882 -1.840623 7.500000
      vertex 4.381533 -2.408768 7.500000
      vertex 9.297765 -3.681246 7.500000
    endloop
  endfacet
  facet normal -0.000000 0.000000 1.000000
    outer loop
      vertex 9.297765 -3.681246 7.500000
      vertex 4.045085 -2.938926 7.500000
      vertex 8.763067 -4.817537 7.500000
    endloop
  endfacet
  facet normal 0.000000 0.000000 1.000000
    outer loop
      vertex -5.000000 0.000000 7.500000
      vertex -4.960574 0.626666 7.500000
      vertex -9.921147 1.253332 7.500000
    endloop
  endfacet
  facet normal -0.000000 0.000000 1.000000
    outer loop
      vertex 8.763067 -4.817537 7.500000
      vertex 3.644843 -3.422736 7.500000
      vertex 8.090170 -5.877853 7.500000
    endloop
  endfacet
  facet normal 0.000000 -0.000000 1.000000
    outer loop
      vertex 3.644843 -3.422736 7.500000
      vertex 3.187120 -3.852566 7.500000
      vertex 8.090170 -5.877853 7.500000
    endloop
  endfacet
  facet normal -0.000000 0.000000 1.000000
    outer loop
      vertex 8.090170 -5.877853 7.500000
      vertex 2.679134 -4.221640 7.500000
      vertex 7.289686 -6.845471 7.500000
    endloop
  endfacet
  facet normal 0.000000 0.000000 1.000000
    outer loop
      vertex -3.644843 -3.422736 7.500000
      vertex -4.045085 -2.938926 7.500000
      vertex -9.921147 1.253332 7.500000
    endloop
  endfacet
  facet normal -0.000000 0.000000 1.000000
    outer loop
      vertex 7.289686 -6.845471 7.500000
      vertex 2.128896 -4.524135 7.500000
      vertex 6.374240 -7.705132 7.500000
    endloop
  endfacet
  facet normal 0.000000 0.000000 1.000000
    outer loop
      vertex -4.960574 -0.626666 7.500000
      vertex -5.000000 0.000000 7.500000
      vertex -9.921147 1.253332 7.500000
    endloop
  endfacet
  facet normal 0.000000 -0.000000 1.000000
    outer loop
      vertex 2.128896 -4.524135 7.500000
      vertex 1.545085 -4.755283 7.500000
      vertex 6.374240 -7.705132 7.500000
    endloop
  endfacet
  facet normal -0.000000 0.000000 1.000000
    outer loop
      vertex 6.374240 -7.705132 7.500000
      vertex 0.936907 -4.911436 7.500000
      vertex 5.358268 -8.443279 7.500000
    endloop
  endfacet
  facet normal 0.000000 -0.000000 1.000000
    outer loop
      vertex 0.936907 -4.911436 7.500000
      vertex 0.313953 -4.990134 7.500000
      vertex 5.358268 -8.443279 7.500000
    endloop
  endfacet
  facet normal -0.000000 0.000000 1.000000
    outer loop
      vertex 5.358268 -8.443279 7.500000
      vertex -0.313953 -4.990134 7.500000
      vertex 4.257793 -9.048271 7.500000
    endloop
  endfacet
  facet normal 0.000000 0.000000 1.000000
    outer loop
      vertex -4.045085 -2.938926 7.500000
      vertex -4.381533 -2.408768 7.500000
      vertex -9.921147 1.253332 7.500000
    endloop
  endfacet
  facet normal -0.000000 -0.000000 1.000000
    outer loop
      vertex -0.313953 -4.990134 7.500000
      vertex -0.936907 -4.911436 7.500000
      vertex 4.257793 -9.048271 7.500000
    endloop
  endfacet
  facet normal -0.000000 -0.000000 1.000000
    outer loop
      vertex -0.936907 -4.911436 7.500000
      vertex -1.545085 -4.755283 7.500000
      vertex 4.257793 -9.048271 7.500000
    endloop
  endfacet
  facet normal -0.000000 0.000000 1.000000
    outer loop
      vertex 4.257793 -9.048271 7.500000
      vertex -2.128896 -4.524135 7.500000
      vertex 3.090170 -9.510565 7.500000
    endloop
  endfacet
  facet normal -0.000000 -0.000000 1.000000
    outer loop
      vertex -2.128896 -4.524135 7.500000
      vertex -2.679134 -4.221640 7.500000
      vertex 3.090170 -9.510565 7.500000
    endloop
  endfacet
  facet normal -0.000000 -0.000000 1.000000
    outer loop
      vertex -2.679134 -4.221640 7.500000
      vertex -3.187120 -3.852566 7.500000
      vertex 3.090170 -9.510565 7.500000
    endloop
  endfacet
  facet normal 0.000000 0.000000 1.000000
    outer loop
      vertex -4.381533 -2.408768 7.500000
      vertex -4.648882 -1.840623 7.500000
      vertex -9.921147 1.253332 7.500000
    endloop
  endfacet
  facet normal 0.000000 0.000000 1.000000
    outer loop
      vertex -4.648882 -1.840623 7.500000
      vertex -4.842916 -1.243449 7.500000
      vertex -9.921147 1.253332 7.500000
    endloop
  endfacet
  facet normal 0.000000 0.000000 1.000000
    outer loop
      vertex -4.960574 0.626666 7.500000
      vertex -4.842916 1.243449 7.500000
      vertex -9.921147 1.253332 7.500000
    endloop
  endfacet
  facet normal 0.000000 -0.000000 1.000000
    outer loop
      vertex 1.545085 -4.755283 7.500000
      vertex 0.936907 -4.911436 7.500000
      vertex 6.374240 -7.705132 7.500000
    endloop
  endfacet
  facet normal 0.000000 0.000000 1.000000
    outer loop
      vertex -4.842916 -1.243449 7.500000
      vertex -4.960574 -0.626666 7.500000
      vertex -9.921147 1.253332 7.500000
    endloop
  endfacet
endsolid
