solid OpenSCAD_Model
  facet normal 1 -0 0
    outer loop
      vertex 135.25 -0.5 0.5
      vertex 135.25 0 0
      vertex 135.25 0 0.5
    endloop
  endfacet
  facet normal 1 0 0
    outer loop
      vertex 135.25 0 0
      vertex 135.25 -0.5 0.5
      vertex 135.25 -0.5 0
    endloop
  endfacet
  facet normal -0 0 1
    outer loop
      vertex 0 0 5
      vertex 125 -2.5 5
      vertex 125 0 5
    endloop
  endfacet
  facet normal 0 0 1
    outer loop
      vertex 125 -2.5 5
      vertex 0 0 5
      vertex 0 -2.5 5
    endloop
  endfacet
  facet normal 0 -1 0
    outer loop
      vertex 0 -5 0
      vertex 125 -5 2.5
      vertex 0 -5 2.5
    endloop
  endfacet
  facet normal 0 -1 -0
    outer loop
      vertex 125 -5 2.5
      vertex 0 -5 0
      vertex 125 -5 0
    endloop
  endfacet
  facet normal 0 1 -0
    outer loop
      vertex 14.8386 0 0
      vertex 8.41334 0 3
      vertex 14.8386 0 3
    endloop
  endfacet
  facet normal 0 1 0
    outer loop
      vertex 8.41334 0 3
      vertex 14.8386 0 0
      vertex 8.41334 0 0
    endloop
  endfacet
  facet normal 0 1 -0
    outer loop
      vertex 22.7473 0 0
      vertex 18.7155 0 3
      vertex 22.7473 0 3
    endloop
  endfacet
  facet normal 0 1 0
    outer loop
      vertex 18.7155 0 3
      vertex 22.7473 0 0
      vertex 18.7155 0 0
    endloop
  endfacet
  facet normal 0 1 -0
    outer loop
      vertex 29.0783 0 0
      vertex 25.0803 0 3
      vertex 29.0783 0 3
    endloop
  endfacet
  facet normal 0 1 0
    outer loop
      vertex 25.0803 0 3
      vertex 29.0783 0 0
      vertex 25.0803 0 0
    endloop
  endfacet
  facet normal 0 1 -0
    outer loop
      vertex 34.7943 0 0
      vertex 31.4113 0 3
      vertex 34.7943 0 3
    endloop
  endfacet
  facet normal 0 1 0
    outer loop
      vertex 31.4113 0 3
      vertex 34.7943 0 0
      vertex 31.4113 0 0
    endloop
  endfacet
  facet normal 0 1 0
    outer loop
      vertex 125 0 5
      vertex 37.1283 0 3
      vertex 0 0 5
    endloop
  endfacet
  facet normal 0 1 -0
    outer loop
      vertex 135.25 0 0
      vertex 125 0 5
      vertex 135.25 0 0.5
    endloop
  endfacet
  facet normal 0 1 0
    outer loop
      vertex 125 0 5
      vertex 135.25 0 0
      vertex 37.1283 0 0
    endloop
  endfacet
  facet normal 0 1 0
    outer loop
      vertex 125 0 5
      vertex 37.1283 0 0
      vertex 37.1283 0 3
    endloop
  endfacet
  facet normal 0 1 -0
    outer loop
      vertex 34.7943 0 3
      vertex 0 0 5
      vertex 37.1283 0 3
    endloop
  endfacet
  facet normal 0 1 -0
    outer loop
      vertex 31.4113 0 3
      vertex 0 0 5
      vertex 34.7943 0 3
    endloop
  endfacet
  facet normal 0 1 -0
    outer loop
      vertex 29.0783 0 3
      vertex 0 0 5
      vertex 31.4113 0 3
    endloop
  endfacet
  facet normal 0 1 -0
    outer loop
      vertex 25.0803 0 3
      vertex 0 0 5
      vertex 29.0783 0 3
    endloop
  endfacet
  facet normal 0 1 -0
    outer loop
      vertex 22.7473 0 3
      vertex 0 0 5
      vertex 25.0803 0 3
    endloop
  endfacet
  facet normal 0 1 -0
    outer loop
      vertex 18.7155 0 3
      vertex 0 0 5
      vertex 22.7473 0 3
    endloop
  endfacet
  facet normal 0 1 -0
    outer loop
      vertex 14.8386 0 3
      vertex 0 0 5
      vertex 18.7155 0 3
    endloop
  endfacet
  facet normal 0 1 -0
    outer loop
      vertex 8.41334 0 3
      vertex 0 0 5
      vertex 14.8386 0 3
    endloop
  endfacet
  facet normal 0 1 -0
    outer loop
      vertex 4.25432 0 3
      vertex 0 0 5
      vertex 8.41334 0 3
    endloop
  endfacet
  facet normal 0 1 0
    outer loop
      vertex 0 0 0
      vertex 4.25432 0 3
      vertex 4.25432 0 0
    endloop
  endfacet
  facet normal 0 1 0
    outer loop
      vertex 4.25432 0 3
      vertex 0 0 0
      vertex 0 0 5
    endloop
  endfacet
  facet normal -1 0 0
    outer loop
      vertex 0 0 0
      vertex 0 -2.5 2.5
      vertex 0 0 5
    endloop
  endfacet
  facet normal -1 0 0
    outer loop
      vertex 0 -5 0
      vertex 0 -2.5 2.5
      vertex 0 0 0
    endloop
  endfacet
  facet normal -1 -0 0
    outer loop
      vertex 0 -2.5 2.5
      vertex 0 -5 0
      vertex 0 -5 2.5
    endloop
  endfacet
  facet normal -1 -0 0
    outer loop
      vertex 0 0 5
      vertex 0 -2.5 2.5
      vertex 0 -2.5 5
    endloop
  endfacet
  facet normal 0.402016 -0.915632 0
    outer loop
      vertex 125 -5 0
      vertex 130.694 -2.5 2.5
      vertex 125 -5 2.5
    endloop
  endfacet
  facet normal 0.40199 -0.915644 7.14649e-05
    outer loop
      vertex 135.25 -0.5 0
      vertex 130.694 -2.5 2.5
      vertex 125 -5 0
    endloop
  endfacet
  facet normal 0.401957 -0.915658 0
    outer loop
      vertex 130.694 -2.5 2.5
      vertex 135.25 -0.5 0
      vertex 135.25 -0.5 0.5
    endloop
  endfacet
  facet normal 0 0 -1
    outer loop
      vertex 8.71846 3.11536 0
      vertex 10.9671 2.26706 0
      vertex 9.89961 0.838989 0
    endloop
  endfacet
  facet normal 0 -0 -1
    outer loop
      vertex 8.98299 4.14999 0
      vertex 10.9671 2.26706 0
      vertex 8.71846 3.11536 0
    endloop
  endfacet
  facet normal 0 0 -1
    outer loop
      vertex 10.9671 2.26706 0
      vertex 8.98299 4.14999 0
      vertex 11.416 4.14999 0
    endloop
  endfacet
  facet normal 0 0 -1
    outer loop
      vertex 8.16649 2.35136 0
      vertex 9.89961 0.838989 0
      vertex 8.41334 0 0
    endloop
  endfacet
  facet normal 0 0 -1
    outer loop
      vertex 9.89961 0.838989 0
      vertex 8.16649 2.35136 0
      vertex 8.71846 3.11536 0
    endloop
  endfacet
  facet normal 0 0 -1
    outer loop
      vertex 3.94641 0.0597534 0
      vertex 5.00487 2.00226 0
      vertex 4.25432 0 0
    endloop
  endfacet
  facet normal -0 0 -1
    outer loop
      vertex 5.00487 2.00226 0
      vertex 3.94641 0.0597534 0
      vertex 4.04124 2.83087 0
    endloop
  endfacet
  facet normal 0 0 -1
    outer loop
      vertex 2.21437 1.32861 0
      vertex 4.04124 2.83087 0
      vertex 3.94641 0.0597534 0
    endloop
  endfacet
  facet normal 0 0 -1
    outer loop
      vertex 0.732986 5.967 0
      vertex 3.23299 5.93399 0
      vertex 3.44025 4.15654 0
    endloop
  endfacet
  facet normal 0 0 -1
    outer loop
      vertex 1.11664 3.32892 0
      vertex 4.04124 2.83087 0
      vertex 2.21437 1.32861 0
    endloop
  endfacet
  facet normal 0 0 -1
    outer loop
      vertex 4.04124 2.83087 0
      vertex 1.11664 3.32892 0
      vertex 3.44025 4.15654 0
    endloop
  endfacet
  facet normal 0 0 -1
    outer loop
      vertex 3.23299 5.93399 0
      vertex 0.732986 5.967 0
      vertex 1.11993 8.6243 0
    endloop
  endfacet
  facet normal -0 0 -1
    outer loop
      vertex 3.44025 4.15654 0
      vertex 1.11664 3.32892 0
      vertex 0.732986 5.967 0
    endloop
  endfacet
  facet normal 0 0 -1
    outer loop
      vertex 3.23299 5.93399 0
      vertex 1.11993 8.6243 0
      vertex 2.22874 10.6347 0
    endloop
  endfacet
  facet normal 0 0 -1
    outer loop
      vertex 8.98299 8.034 0
      vertex 11.276 8.75635 0
      vertex 11.366 8.034 0
    endloop
  endfacet
  facet normal 0 0 -1
    outer loop
      vertex 8.87132 8.46452 0
      vertex 11.276 8.75635 0
      vertex 8.98299 8.034 0
    endloop
  endfacet
  facet normal 0 0 -1
    outer loop
      vertex 8.75186 8.80299 0
      vertex 11.1204 9.37212 0
      vertex 8.87132 8.46452 0
    endloop
  endfacet
  facet normal -0 0 -1
    outer loop
      vertex 11.1204 9.37212 0
      vertex 8.75186 8.80299 0
      vertex 10.8835 9.91907 0
    endloop
  endfacet
  facet normal -0 0 -1
    outer loop
      vertex 11.276 8.75635 0
      vertex 8.87132 8.46452 0
      vertex 11.1204 9.37212 0
    endloop
  endfacet
  facet normal 0 0 -1
    outer loop
      vertex 8.61047 9.08221 0
      vertex 10.8835 9.91907 0
      vertex 8.75186 8.80299 0
    endloop
  endfacet
  facet normal -0 0 -1
    outer loop
      vertex 10.8835 9.91907 0
      vertex 8.61047 9.08221 0
      vertex 10.55 10.435 0
    endloop
  endfacet
  facet normal 0 0 -1
    outer loop
      vertex 8.433 9.33499 0
      vertex 10.55 10.435 0
      vertex 8.61047 9.08221 0
    endloop
  endfacet
  facet normal -0 0 -1
    outer loop
      vertex 10.55 10.435 0
      vertex 8.433 9.33499 0
      vertex 9.74727 11.2547 0
    endloop
  endfacet
  facet normal 0 0 -1
    outer loop
      vertex 8.03758 9.71892 0
      vertex 9.74727 11.2547 0
      vertex 8.433 9.33499 0
    endloop
  endfacet
  facet normal -0 0 -1
    outer loop
      vertex 9.74727 11.2547 0
      vertex 8.03758 9.71892 0
      vertex 8.75574 11.8559 0
    endloop
  endfacet
  facet normal 0 0 -1
    outer loop
      vertex 7.558 9.99512 0
      vertex 8.75574 11.8559 0
      vertex 8.03758 9.71892 0
    endloop
  endfacet
  facet normal -0 0 -1
    outer loop
      vertex 8.75574 11.8559 0
      vertex 7.558 9.99512 0
      vertex 7.59883 12.2258 0
    endloop
  endfacet
  facet normal 0 0 -1
    outer loop
      vertex 7.0034 10.162 0
      vertex 7.59883 12.2258 0
      vertex 7.558 9.99512 0
    endloop
  endfacet
  facet normal 0 0 -1
    outer loop
      vertex 6.29999 12.352 0
      vertex 7.0034 10.162 0
      vertex 6.383 10.218 0
    endloop
  endfacet
  facet normal 0 0 -1
    outer loop
      vertex 7.0034 10.162 0
      vertex 6.29999 12.352 0
      vertex 7.59883 12.2258 0
    endloop
  endfacet
  facet normal 0 0 -1
    outer loop
      vertex 5.06097 9.92606 0
      vertex 6.29999 12.352 0
      vertex 6.383 10.218 0
    endloop
  endfacet
  facet normal 0 0 -1
    outer loop
      vertex 3.98143 11.9076 0
      vertex 5.06097 9.92606 0
      vertex 4.07037 9.08249 0
    endloop
  endfacet
  facet normal 0 0 -1
    outer loop
      vertex 5.06097 9.92606 0
      vertex 3.98143 11.9076 0
      vertex 6.29999 12.352 0
    endloop
  endfacet
  facet normal 0 0 -1
    outer loop
      vertex 2.22874 10.6347 0
      vertex 4.07037 9.08249 0
      vertex 3.44858 7.73569 0
    endloop
  endfacet
  facet normal 0 0 -1
    outer loop
      vertex 4.07037 9.08249 0
      vertex 2.22874 10.6347 0
      vertex 3.98143 11.9076 0
    endloop
  endfacet
  facet normal 0 0 -1
    outer loop
      vertex 2.22874 10.6347 0
      vertex 3.44858 7.73569 0
      vertex 3.23299 5.93399 0
    endloop
  endfacet
  facet normal 0 0 -1
    outer loop
      vertex 125 -5 0
      vertex 135.25 0 0
      vertex 135.25 -0.5 0
    endloop
  endfacet
  facet normal 0 0 -1
    outer loop
      vertex 125 -5 0
      vertex 37.1283 0 0
      vertex 135.25 0 0
    endloop
  endfacet
  facet normal 0 0 -1
    outer loop
      vertex 34.7943 5.55099 0
      vertex 37.1283 6.03499 0
      vertex 37.1283 0 0
    endloop
  endfacet
  facet normal 0 0 -1
    outer loop
      vertex 34.7006 6.25378 0
      vertex 37.1283 6.03499 0
      vertex 34.7943 5.55099 0
    endloop
  endfacet
  facet normal 0 0 -1
    outer loop
      vertex 37.1283 6.03499 0
      vertex 34.7006 6.25378 0
      vertex 36.9265 7.3586 0
    endloop
  endfacet
  facet normal 0 0 -1
    outer loop
      vertex 34.7943 5.55099 0
      vertex 37.1283 0 0
      vertex 34.7943 0 0
    endloop
  endfacet
  facet normal 0 0 -1
    outer loop
      vertex 0 -5 0
      vertex 37.1283 0 0
      vertex 125 -5 0
    endloop
  endfacet
  facet normal -0 0 -1
    outer loop
      vertex 37.1283 0 0
      vertex 0 -5 0
      vertex 34.7943 0 0
    endloop
  endfacet
  facet normal 0 0 -1
    outer loop
      vertex 29.0783 0 0
      vertex 31.4113 5.41399 0
      vertex 31.4113 0 0
    endloop
  endfacet
  facet normal 0 0 -1
    outer loop
      vertex 29.0783 9.02399 0
      vertex 31.4113 5.41399 0
      vertex 29.0783 0 0
    endloop
  endfacet
  facet normal 0 0 -1
    outer loop
      vertex 31.4113 5.41399 0
      vertex 29.0783 9.02399 0
      vertex 31.4113 7.70099 0
    endloop
  endfacet
  facet normal -0 0 -1
    outer loop
      vertex 34.7943 0 0
      vertex 0 -5 0
      vertex 31.4113 0 0
    endloop
  endfacet
  facet normal -0 0 -1
    outer loop
      vertex 31.4113 0 0
      vertex 0 -5 0
      vertex 29.0783 0 0
    endloop
  endfacet
  facet normal 0 0 -1
    outer loop
      vertex 22.7473 0 0
      vertex 25.0803 4.79599 0
      vertex 25.0803 0 0
    endloop
  endfacet
  facet normal 0 0 -1
    outer loop
      vertex 22.7473 9.02399 0
      vertex 25.0803 4.79599 0
      vertex 22.7473 0 0
    endloop
  endfacet
  facet normal 0 0 -1
    outer loop
      vertex 25.0803 4.79599 0
      vertex 22.7473 9.02399 0
      vertex 25.0803 7.23499 0
    endloop
  endfacet
  facet normal -0 0 -1
    outer loop
      vertex 29.0783 0 0
      vertex 0 -5 0
      vertex 25.0803 0 0
    endloop
  endfacet
  facet normal -0 0 -1
    outer loop
      vertex 25.0803 0 0
      vertex 0 -5 0
      vertex 22.7473 0 0
    endloop
  endfacet
  facet normal 0 0 -1
    outer loop
      vertex 18.7155 0 0
      vertex 17.6431 1.70764 0
      vertex 18.3122 2.293 0
    endloop
  endfacet
  facet normal 0 0 -1
    outer loop
      vertex 18.7155 0 0
      vertex 16.7849 1.49899 0
      vertex 17.6431 1.70764 0
    endloop
  endfacet
  facet normal 0 0 -1
    outer loop
      vertex 14.8386 0 0
      vertex 16.7849 1.49899 0
      vertex 18.7155 0 0
    endloop
  endfacet
  facet normal -0 0 -1
    outer loop
      vertex 15.9196 1.70816 0
      vertex 14.8386 0 0
      vertex 15.2513 2.29712 0
    endloop
  endfacet
  facet normal -0 0 -1
    outer loop
      vertex 16.7849 1.49899 0
      vertex 14.8386 0 0
      vertex 15.9196 1.70816 0
    endloop
  endfacet
  facet normal -0 0 -1
    outer loop
      vertex 22.7473 0 0
      vertex 0 -5 0
      vertex 18.7155 0 0
    endloop
  endfacet
  facet normal -0 0 -1
    outer loop
      vertex 18.7155 0 0
      vertex 0 -5 0
      vertex 14.8386 0 0
    endloop
  endfacet
  facet normal 0 0 -1
    outer loop
      vertex 8.41334 0 0
      vertex 7.35202 1.87819 0
      vertex 8.16649 2.35136 0
    endloop
  endfacet
  facet normal 0 0 -1
    outer loop
      vertex 8.41334 0 0
      vertex 6.29999 1.71599 0
      vertex 7.35202 1.87819 0
    endloop
  endfacet
  facet normal 0 0 -1
    outer loop
      vertex 4.25432 0 0
      vertex 6.29999 1.71599 0
      vertex 8.41334 0 0
    endloop
  endfacet
  facet normal -0 0 -1
    outer loop
      vertex 6.29999 1.71599 0
      vertex 4.25432 0 0
      vertex 5.00487 2.00226 0
    endloop
  endfacet
  facet normal -0 0 -1
    outer loop
      vertex 14.8386 0 0
      vertex 0 -5 0
      vertex 8.41334 0 0
    endloop
  endfacet
  facet normal -0 0 -1
    outer loop
      vertex 8.41334 0 0
      vertex 0 -5 0
      vertex 4.25432 0 0
    endloop
  endfacet
  facet normal -0 0 -1
    outer loop
      vertex 4.25432 0 0
      vertex 0 -5 0
      vertex 0 0 0
    endloop
  endfacet
  facet normal 0 0 -1
    outer loop
      vertex 34.4193 6.75961 0
      vertex 36.9265 7.3586 0
      vertex 34.7006 6.25378 0
    endloop
  endfacet
  facet normal -0 0 -1
    outer loop
      vertex 36.9265 7.3586 0
      vertex 34.4193 6.75961 0
      vertex 36.3387 8.33711 0
    endloop
  endfacet
  facet normal -0 0 -1
    outer loop
      vertex 36.3387 8.33711 0
      vertex 34.4193 6.75961 0
      vertex 35.3914 8.94382 0
    endloop
  endfacet
  facet normal 0 0 -1
    outer loop
      vertex 33.9506 7.06538 0
      vertex 35.3914 8.94382 0
      vertex 34.4193 6.75961 0
    endloop
  endfacet
  facet normal -0 0 -1
    outer loop
      vertex 35.3914 8.94382 0
      vertex 33.9506 7.06538 0
      vertex 34.1113 9.15199 0
    endloop
  endfacet
  facet normal 0 0 -1
    outer loop
      vertex 33.2698 9.0659 0
      vertex 33.9506 7.06538 0
      vertex 33.2943 7.168 0
    endloop
  endfacet
  facet normal 0 0 -1
    outer loop
      vertex 33.9506 7.06538 0
      vertex 33.2698 9.0659 0
      vertex 34.1113 9.15199 0
    endloop
  endfacet
  facet normal 0 0 -1
    outer loop
      vertex 33.2943 7.168 0
      vertex 32.5551 8.8015 0
      vertex 33.2698 9.0659 0
    endloop
  endfacet
  facet normal 0 0 -1
    outer loop
      vertex 32.5221 7.04214 0
      vertex 32.5551 8.8015 0
      vertex 33.2943 7.168 0
    endloop
  endfacet
  facet normal 0 0 -1
    outer loop
      vertex 32.5221 7.04214 0
      vertex 31.9434 8.34958 0
      vertex 32.5551 8.8015 0
    endloop
  endfacet
  facet normal 0 0 -1
    outer loop
      vertex 31.4113 7.70099 0
      vertex 32.5221 7.04214 0
      vertex 31.9279 6.68625 0
    endloop
  endfacet
  facet normal 0 0 -1
    outer loop
      vertex 31.4113 7.70099 0
      vertex 31.9279 6.68625 0
      vertex 31.5462 6.13271 0
    endloop
  endfacet
  facet normal 0 0 -1
    outer loop
      vertex 31.4113 7.70099 0
      vertex 31.5462 6.13271 0
      vertex 31.4113 5.41399 0
    endloop
  endfacet
  facet normal 0 0 -1
    outer loop
      vertex 32.5221 7.04214 0
      vertex 31.4113 7.70099 0
      vertex 31.9434 8.34958 0
    endloop
  endfacet
  facet normal 0 0 -1
    outer loop
      vertex 31.4113 7.70099 0
      vertex 29.0783 9.02399 0
      vertex 31.4113 9.02399 0
    endloop
  endfacet
  facet normal 0 0 -1
    outer loop
      vertex 27.6506 6.79956 0
      vertex 27.8633 9.13499 0
      vertex 27.8633 6.76799 0
    endloop
  endfacet
  facet normal -0 0 -1
    outer loop
      vertex 27.8633 9.13499 0
      vertex 27.6506 6.79956 0
      vertex 27.7724 9.14482 0
    endloop
  endfacet
  facet normal 0 0 -1
    outer loop
      vertex 27.472 6.82024 0
      vertex 27.7724 9.14482 0
      vertex 27.6506 6.79956 0
    endloop
  endfacet
  facet normal -0 0 -1
    outer loop
      vertex 27.7724 9.14482 0
      vertex 27.472 6.82024 0
      vertex 27.697 9.14987 0
    endloop
  endfacet
  facet normal -0 0 -1
    outer loop
      vertex 27.697 9.14987 0
      vertex 27.472 6.82024 0
      vertex 27.634 9.15173 0
    endloop
  endfacet
  facet normal -0 0 -1
    outer loop
      vertex 27.634 9.15173 0
      vertex 27.472 6.82024 0
      vertex 27.5803 9.15199 0
    endloop
  endfacet
  facet normal 0 0 -1
    outer loop
      vertex 27.3058 6.83156 0
      vertex 27.5803 9.15199 0
      vertex 27.472 6.82024 0
    endloop
  endfacet
  facet normal 0 0 -1
    outer loop
      vertex 26.8098 9.02347 0
      vertex 27.3058 6.83156 0
      vertex 27.1303 6.83499 0
    endloop
  endfacet
  facet normal 0 0 -1
    outer loop
      vertex 27.3058 6.83156 0
      vertex 26.8098 9.02347 0
      vertex 27.5803 9.15199 0
    endloop
  endfacet
  facet normal 0 0 -1
    outer loop
      vertex 26.1176 8.64949 0
      vertex 27.1303 6.83499 0
      vertex 26.2332 6.70694 0
    endloop
  endfacet
  facet normal 0 0 -1
    outer loop
      vertex 27.1303 6.83499 0
      vertex 26.1176 8.64949 0
      vertex 26.8098 9.02347 0
    endloop
  endfacet
  facet normal 0 0 -1
    outer loop
      vertex 25.0803 7.23499 0
      vertex 26.2332 6.70694 0
      vertex 25.5926 6.32362 0
    endloop
  endfacet
  facet normal 0 0 -1
    outer loop
      vertex 26.2332 6.70694 0
      vertex 25.5318 8.04753 0
      vertex 26.1176 8.64949 0
    endloop
  endfacet
  facet normal 0 0 -1
    outer loop
      vertex 25.0803 7.23499 0
      vertex 25.5926 6.32362 0
      vertex 25.2083 5.68623 0
    endloop
  endfacet
  facet normal 0 0 -1
    outer loop
      vertex 25.0803 7.23499 0
      vertex 25.2083 5.68623 0
      vertex 25.0803 4.79599 0
    endloop
  endfacet
  facet normal 0 0 -1
    outer loop
      vertex 26.2332 6.70694 0
      vertex 25.0803 7.23499 0
      vertex 25.5318 8.04753 0
    endloop
  endfacet
  facet normal 0 0 -1
    outer loop
      vertex 25.0803 7.23499 0
      vertex 22.7473 9.02399 0
      vertex 25.0803 9.02399 0
    endloop
  endfacet
  facet normal -0 0 -1
    outer loop
      vertex 21.2349 4.31699 0
      vertex 18.7469 3.19409 0
      vertex 18.9019 4.34999 0
    endloop
  endfacet
  facet normal 0 0 -1
    outer loop
      vertex 18.3122 2.293 0
      vertex 20.0348 0.884613 0
      vertex 18.7155 0 0
    endloop
  endfacet
  facet normal -0 0 -1
    outer loop
      vertex 20.924 2.36536 0
      vertex 18.3122 2.293 0
      vertex 18.7469 3.19409 0
    endloop
  endfacet
  facet normal 0 0 -1
    outer loop
      vertex 18.7469 3.19409 0
      vertex 21.2349 4.31699 0
      vertex 20.924 2.36536 0
    endloop
  endfacet
  facet normal 0 0 -1
    outer loop
      vertex 18.7516 5.5518 0
      vertex 21.2349 4.31699 0
      vertex 18.9019 4.34999 0
    endloop
  endfacet
  facet normal 0 0 -1
    outer loop
      vertex 18.3122 2.293 0
      vertex 20.924 2.36536 0
      vertex 20.0348 0.884613 0
    endloop
  endfacet
  facet normal 0 0 -1
    outer loop
      vertex 21.2349 4.31699 0
      vertex 18.7516 5.5518 0
      vertex 20.9331 6.3596 0
    endloop
  endfacet
  facet normal 0 0 -1
    outer loop
      vertex 18.3246 6.47198 0
      vertex 20.9331 6.3596 0
      vertex 18.7516 5.5518 0
    endloop
  endfacet
  facet normal 0 0 -1
    outer loop
      vertex 20.9331 6.3596 0
      vertex 18.3246 6.47198 0
      vertex 20.0578 7.87862 0
    endloop
  endfacet
  facet normal -0 0 -1
    outer loop
      vertex 20.0578 7.87862 0
      vertex 18.3246 6.47198 0
      vertex 18.6543 8.82558 0
    endloop
  endfacet
  facet normal 0 0 -1
    outer loop
      vertex 17.657 7.06068 0
      vertex 18.6543 8.82558 0
      vertex 18.3246 6.47198 0
    endloop
  endfacet
  facet normal 0 0 -1
    outer loop
      vertex 16.7679 9.15199 0
      vertex 17.657 7.06068 0
      vertex 16.7849 7.26799 0
    endloop
  endfacet
  facet normal 0 0 -1
    outer loop
      vertex 17.657 7.06068 0
      vertex 16.7679 9.15199 0
      vertex 18.6543 8.82558 0
    endloop
  endfacet
  facet normal 0 0 -1
    outer loop
      vertex 15.9196 7.05881 0
      vertex 16.7679 9.15199 0
      vertex 16.7849 7.26799 0
    endloop
  endfacet
  facet normal 0 0 -1
    outer loop
      vertex 14.9151 8.82196 0
      vertex 15.9196 7.05881 0
      vertex 15.2513 6.46974 0
    endloop
  endfacet
  facet normal 0 0 -1
    outer loop
      vertex 15.9196 7.05881 0
      vertex 14.9151 8.82196 0
      vertex 16.7679 9.15199 0
    endloop
  endfacet
  facet normal 0 0 -1
    outer loop
      vertex 12.6409 6.37352 0
      vertex 15.2513 6.46974 0
      vertex 14.8206 5.55855 0
    endloop
  endfacet
  facet normal 0 0 -1
    outer loop
      vertex 12.3349 4.383 0
      vertex 14.8206 5.55855 0
      vertex 14.6679 4.383 0
    endloop
  endfacet
  facet normal 0 0 -1
    outer loop
      vertex 12.3349 4.383 0
      vertex 14.8206 3.20801 0
      vertex 12.6411 2.38644 0
    endloop
  endfacet
  facet normal -0 0 -1
    outer loop
      vertex 14.8206 5.55855 0
      vertex 12.3349 4.383 0
      vertex 12.6409 6.37352 0
    endloop
  endfacet
  facet normal 0 0 -1
    outer loop
      vertex 14.8206 3.20801 0
      vertex 12.3349 4.383 0
      vertex 14.6679 4.383 0
    endloop
  endfacet
  facet normal -0 0 -1
    outer loop
      vertex 15.2513 6.46974 0
      vertex 12.6409 6.37352 0
      vertex 13.5202 7.8745 0
    endloop
  endfacet
  facet normal 0 0 -1
    outer loop
      vertex 15.2513 6.46974 0
      vertex 13.5202 7.8745 0
      vertex 14.9151 8.82196 0
    endloop
  endfacet
  facet normal 0 0 -1
    outer loop
      vertex 13.5223 0.886871 0
      vertex 15.2513 2.29712 0
      vertex 14.8386 0 0
    endloop
  endfacet
  facet normal 0 0 -1
    outer loop
      vertex 12.6411 2.38644 0
      vertex 15.2513 2.29712 0
      vertex 13.5223 0.886871 0
    endloop
  endfacet
  facet normal 0 0 -1
    outer loop
      vertex 15.2513 2.29712 0
      vertex 12.6411 2.38644 0
      vertex 14.8206 3.20801 0
    endloop
  endfacet
  facet normal 0.401957 0 0.915658
    outer loop
      vertex 135.25 0 0.5
      vertex 130.694 -2.5 2.5
      vertex 135.25 -0.5 0.5
    endloop
  endfacet
  facet normal 0.40199 -7.14649e-05 0.915644
    outer loop
      vertex 125 0 5
      vertex 130.694 -2.5 2.5
      vertex 135.25 0 0.5
    endloop
  endfacet
  facet normal 0.402016 0 0.915632
    outer loop
      vertex 130.694 -2.5 2.5
      vertex 125 0 5
      vertex 125 -2.5 5
    endloop
  endfacet
  facet normal -0 0 1
    outer loop
      vertex 0 -2.5 2.5
      vertex 125 -5 2.5
      vertex 130.694 -2.5 2.5
    endloop
  endfacet
  facet normal 0 0 1
    outer loop
      vertex 125 -5 2.5
      vertex 0 -2.5 2.5
      vertex 0 -5 2.5
    endloop
  endfacet
  facet normal 0 -1 0
    outer loop
      vertex 0 -2.5 2.5
      vertex 125 -2.5 5
      vertex 0 -2.5 5
    endloop
  endfacet
  facet normal 0 -1 -0
    outer loop
      vertex 125 -2.5 5
      vertex 0 -2.5 2.5
      vertex 130.694 -2.5 2.5
    endloop
  endfacet
  facet normal 0 0 1
    outer loop
      vertex 8.87132 8.46452 3
      vertex 11.276 8.75635 3
      vertex 11.1204 9.37212 3
    endloop
  endfacet
  facet normal 0 0 1
    outer loop
      vertex 8.75186 8.80299 3
      vertex 11.1204 9.37212 3
      vertex 10.8835 9.91907 3
    endloop
  endfacet
  facet normal 0 0 1
    outer loop
      vertex 8.61047 9.08221 3
      vertex 10.8835 9.91907 3
      vertex 10.55 10.435 3
    endloop
  endfacet
  facet normal 0 0 1
    outer loop
      vertex 8.433 9.33499 3
      vertex 10.55 10.435 3
      vertex 9.74727 11.2547 3
    endloop
  endfacet
  facet normal 0 0 1
    outer loop
      vertex 11.1204 9.37212 3
      vertex 8.75186 8.80299 3
      vertex 8.87132 8.46452 3
    endloop
  endfacet
  facet normal 0 0 1
    outer loop
      vertex 11.276 8.75635 3
      vertex 8.98299 8.034 3
      vertex 11.366 8.034 3
    endloop
  endfacet
  facet normal 0 0 1
    outer loop
      vertex 8.03758 9.71892 3
      vertex 9.74727 11.2547 3
      vertex 8.75574 11.8559 3
    endloop
  endfacet
  facet normal 0 0 1
    outer loop
      vertex 11.276 8.75635 3
      vertex 8.87132 8.46452 3
      vertex 8.98299 8.034 3
    endloop
  endfacet
  facet normal 0 0 1
    outer loop
      vertex 10.8835 9.91907 3
      vertex 8.61047 9.08221 3
      vertex 8.75186 8.80299 3
    endloop
  endfacet
  facet normal 0 0 1
    outer loop
      vertex 10.55 10.435 3
      vertex 8.433 9.33499 3
      vertex 8.61047 9.08221 3
    endloop
  endfacet
  facet normal 0 0 1
    outer loop
      vertex 9.74727 11.2547 3
      vertex 8.03758 9.71892 3
      vertex 8.433 9.33499 3
    endloop
  endfacet
  facet normal 0 0 1
    outer loop
      vertex 7.558 9.99512 3
      vertex 8.75574 11.8559 3
      vertex 7.59883 12.2258 3
    endloop
  endfacet
  facet normal 0 0 1
    outer loop
      vertex 8.75574 11.8559 3
      vertex 7.558 9.99512 3
      vertex 8.03758 9.71892 3
    endloop
  endfacet
  facet normal 0 0 1
    outer loop
      vertex 7.59883 12.2258 3
      vertex 7.0034 10.162 3
      vertex 7.558 9.99512 3
    endloop
  endfacet
  facet normal 0 0 1
    outer loop
      vertex 6.29999 12.352 3
      vertex 7.0034 10.162 3
      vertex 7.59883 12.2258 3
    endloop
  endfacet
  facet normal 0 0 1
    outer loop
      vertex 7.0034 10.162 3
      vertex 6.29999 12.352 3
      vertex 6.383 10.218 3
    endloop
  endfacet
  facet normal 0 0 1
    outer loop
      vertex 6.29999 12.352 3
      vertex 5.06097 9.92606 3
      vertex 6.383 10.218 3
    endloop
  endfacet
  facet normal -0 0 1
    outer loop
      vertex 3.98143 11.9076 3
      vertex 5.06097 9.92606 3
      vertex 6.29999 12.352 3
    endloop
  endfacet
  facet normal 0 0 1
    outer loop
      vertex 5.06097 9.92606 3
      vertex 3.98143 11.9076 3
      vertex 4.07037 9.08249 3
    endloop
  endfacet
  facet normal -0 0 1
    outer loop
      vertex 2.22874 10.6347 3
      vertex 4.07037 9.08249 3
      vertex 3.98143 11.9076 3
    endloop
  endfacet
  facet normal 0 0 1
    outer loop
      vertex 4.07037 9.08249 3
      vertex 1.11993 8.6243 3
      vertex 3.44858 7.73569 3
    endloop
  endfacet
  facet normal 0 0 1
    outer loop
      vertex 1.11993 8.6243 3
      vertex 4.07037 9.08249 3
      vertex 2.22874 10.6347 3
    endloop
  endfacet
  facet normal -0 0 1
    outer loop
      vertex 8.98299 4.14999 3
      vertex 10.9671 2.26706 3
      vertex 11.416 4.14999 3
    endloop
  endfacet
  facet normal 0 0 1
    outer loop
      vertex 10.9671 2.26706 3
      vertex 8.98299 4.14999 3
      vertex 8.71846 3.11536 3
    endloop
  endfacet
  facet normal 0 0 1
    outer loop
      vertex 10.9671 2.26706 3
      vertex 8.71846 3.11536 3
      vertex 9.89961 0.838989 3
    endloop
  endfacet
  facet normal -0 0 1
    outer loop
      vertex 8.16649 2.35136 3
      vertex 9.89961 0.838989 3
      vertex 8.71846 3.11536 3
    endloop
  endfacet
  facet normal 0 0 1
    outer loop
      vertex 9.89961 0.838989 3
      vertex 8.16649 2.35136 3
      vertex 8.41334 0 3
    endloop
  endfacet
  facet normal -0 0 1
    outer loop
      vertex 7.35202 1.87819 3
      vertex 8.41334 0 3
      vertex 8.16649 2.35136 3
    endloop
  endfacet
  facet normal -0 0 1
    outer loop
      vertex 6.29999 1.71599 3
      vertex 8.41334 0 3
      vertex 7.35202 1.87819 3
    endloop
  endfacet
  facet normal 0 0 1
    outer loop
      vertex 4.25432 0 3
      vertex 6.29999 1.71599 3
      vertex 5.00487 2.00226 3
    endloop
  endfacet
  facet normal 0 0 1
    outer loop
      vertex 6.29999 1.71599 3
      vertex 4.25432 0 3
      vertex 8.41334 0 3
    endloop
  endfacet
  facet normal 0 0 1
    outer loop
      vertex 3.94641 0.0597534 3
      vertex 5.00487 2.00226 3
      vertex 4.04124 2.83087 3
    endloop
  endfacet
  facet normal 0 0 1
    outer loop
      vertex 5.00487 2.00226 3
      vertex 3.94641 0.0597534 3
      vertex 4.25432 0 3
    endloop
  endfacet
  facet normal -0 0 1
    outer loop
      vertex 1.11664 3.32892 3
      vertex 4.04124 2.83087 3
      vertex 3.44025 4.15654 3
    endloop
  endfacet
  facet normal 0 0 1
    outer loop
      vertex 0.732986 5.967 3
      vertex 3.44858 7.73569 3
      vertex 1.11993 8.6243 3
    endloop
  endfacet
  facet normal 0 0 1
    outer loop
      vertex 3.44858 7.73569 3
      vertex 0.732986 5.967 3
      vertex 3.23299 5.93399 3
    endloop
  endfacet
  facet normal 0 -0 1
    outer loop
      vertex 1.11664 3.32892 3
      vertex 3.44025 4.15654 3
      vertex 0.732986 5.967 3
    endloop
  endfacet
  facet normal 0 0 1
    outer loop
      vertex 3.23299 5.93399 3
      vertex 0.732986 5.967 3
      vertex 3.44025 4.15654 3
    endloop
  endfacet
  facet normal 0 0 1
    outer loop
      vertex 4.04124 2.83087 3
      vertex 1.11664 3.32892 3
      vertex 2.21437 1.32861 3
    endloop
  endfacet
  facet normal 0 0 1
    outer loop
      vertex 4.04124 2.83087 3
      vertex 2.21437 1.32861 3
      vertex 3.94641 0.0597534 3
    endloop
  endfacet
  facet normal -0 0 1
    outer loop
      vertex 22.7473 9.02399 3
      vertex 25.0803 7.23499 3
      vertex 25.0803 9.02399 3
    endloop
  endfacet
  facet normal 0 0 1
    outer loop
      vertex 25.0803 7.23499 3
      vertex 22.7473 9.02399 3
      vertex 25.0803 4.79599 3
    endloop
  endfacet
  facet normal 0 0 1
    outer loop
      vertex 22.7473 0 3
      vertex 25.0803 4.79599 3
      vertex 22.7473 9.02399 3
    endloop
  endfacet
  facet normal 0 0 1
    outer loop
      vertex 25.0803 4.79599 3
      vertex 22.7473 0 3
      vertex 25.0803 0 3
    endloop
  endfacet
  facet normal 0 0 1
    outer loop
      vertex 27.6506 6.79956 3
      vertex 27.8633 9.13499 3
      vertex 27.7724 9.14482 3
    endloop
  endfacet
  facet normal 0 0 1
    outer loop
      vertex 27.472 6.82024 3
      vertex 27.7724 9.14482 3
      vertex 27.697 9.14987 3
    endloop
  endfacet
  facet normal 0 0 1
    outer loop
      vertex 27.8633 9.13499 3
      vertex 27.6506 6.79956 3
      vertex 27.8633 6.76799 3
    endloop
  endfacet
  facet normal 0 0 1
    outer loop
      vertex 27.472 6.82024 3
      vertex 27.697 9.14987 3
      vertex 27.634 9.15173 3
    endloop
  endfacet
  facet normal 0 0 1
    outer loop
      vertex 27.472 6.82024 3
      vertex 27.634 9.15173 3
      vertex 27.5803 9.15199 3
    endloop
  endfacet
  facet normal 0 0 1
    outer loop
      vertex 27.7724 9.14482 3
      vertex 27.472 6.82024 3
      vertex 27.6506 6.79956 3
    endloop
  endfacet
  facet normal 0 0 1
    outer loop
      vertex 27.5803 9.15199 3
      vertex 27.3058 6.83156 3
      vertex 27.472 6.82024 3
    endloop
  endfacet
  facet normal -0 0 1
    outer loop
      vertex 26.8098 9.02347 3
      vertex 27.3058 6.83156 3
      vertex 27.5803 9.15199 3
    endloop
  endfacet
  facet normal 0 0 1
    outer loop
      vertex 27.3058 6.83156 3
      vertex 26.8098 9.02347 3
      vertex 27.1303 6.83499 3
    endloop
  endfacet
  facet normal -0 0 1
    outer loop
      vertex 26.1176 8.64949 3
      vertex 27.1303 6.83499 3
      vertex 26.8098 9.02347 3
    endloop
  endfacet
  facet normal 0 0 1
    outer loop
      vertex 27.1303 6.83499 3
      vertex 26.1176 8.64949 3
      vertex 26.2332 6.70694 3
    endloop
  endfacet
  facet normal -0 0 1
    outer loop
      vertex 25.5318 8.04753 3
      vertex 26.2332 6.70694 3
      vertex 26.1176 8.64949 3
    endloop
  endfacet
  facet normal -0 0 1
    outer loop
      vertex 25.0803 7.23499 3
      vertex 26.2332 6.70694 3
      vertex 25.5318 8.04753 3
    endloop
  endfacet
  facet normal 0 0 1
    outer loop
      vertex 26.2332 6.70694 3
      vertex 25.0803 7.23499 3
      vertex 25.5926 6.32362 3
    endloop
  endfacet
  facet normal 0 0 1
    outer loop
      vertex 25.5926 6.32362 3
      vertex 25.0803 7.23499 3
      vertex 25.2083 5.68623 3
    endloop
  endfacet
  facet normal 0 0 1
    outer loop
      vertex 25.2083 5.68623 3
      vertex 25.0803 7.23499 3
      vertex 25.0803 4.79599 3
    endloop
  endfacet
  facet normal -0 0 1
    outer loop
      vertex 18.7516 5.5518 3
      vertex 21.2349 4.31699 3
      vertex 20.9331 6.3596 3
    endloop
  endfacet
  facet normal -0 0 1
    outer loop
      vertex 18.3246 6.47198 3
      vertex 20.9331 6.3596 3
      vertex 20.0578 7.87862 3
    endloop
  endfacet
  facet normal 0 0 1
    outer loop
      vertex 18.7469 3.19409 3
      vertex 21.2349 4.31699 3
      vertex 18.9019 4.34999 3
    endloop
  endfacet
  facet normal 0 0 1
    outer loop
      vertex 21.2349 4.31699 3
      vertex 18.7469 3.19409 3
      vertex 20.924 2.36536 3
    endloop
  endfacet
  facet normal 0 0 1
    outer loop
      vertex 21.2349 4.31699 3
      vertex 18.7516 5.5518 3
      vertex 18.9019 4.34999 3
    endloop
  endfacet
  facet normal 0 0 1
    outer loop
      vertex 18.3246 6.47198 3
      vertex 20.0578 7.87862 3
      vertex 18.6543 8.82558 3
    endloop
  endfacet
  facet normal 0 0 1
    outer loop
      vertex 20.9331 6.3596 3
      vertex 18.3246 6.47198 3
      vertex 18.7516 5.5518 3
    endloop
  endfacet
  facet normal 0 0 1
    outer loop
      vertex 18.6543 8.82558 3
      vertex 17.657 7.06068 3
      vertex 18.3246 6.47198 3
    endloop
  endfacet
  facet normal 0 0 1
    outer loop
      vertex 16.7679 9.15199 3
      vertex 17.657 7.06068 3
      vertex 18.6543 8.82558 3
    endloop
  endfacet
  facet normal 0 0 1
    outer loop
      vertex 17.657 7.06068 3
      vertex 16.7679 9.15199 3
      vertex 16.7849 7.26799 3
    endloop
  endfacet
  facet normal 0 0 1
    outer loop
      vertex 16.7679 9.15199 3
      vertex 15.9196 7.05881 3
      vertex 16.7849 7.26799 3
    endloop
  endfacet
  facet normal -0 0 1
    outer loop
      vertex 14.9151 8.82196 3
      vertex 15.9196 7.05881 3
      vertex 16.7679 9.15199 3
    endloop
  endfacet
  facet normal 0 0 1
    outer loop
      vertex 15.9196 7.05881 3
      vertex 14.9151 8.82196 3
      vertex 15.2513 6.46974 3
    endloop
  endfacet
  facet normal -0 0 1
    outer loop
      vertex 13.5202 7.8745 3
      vertex 15.2513 6.46974 3
      vertex 14.9151 8.82196 3
    endloop
  endfacet
  facet normal 0 0 1
    outer loop
      vertex 12.6409 6.37352 3
      vertex 15.2513 6.46974 3
      vertex 13.5202 7.8745 3
    endloop
  endfacet
  facet normal 0 0 1
    outer loop
      vertex 15.2513 6.46974 3
      vertex 12.6409 6.37352 3
      vertex 14.8206 5.55855 3
    endloop
  endfacet
  facet normal 0 0 1
    outer loop
      vertex 12.3349 4.383 3
      vertex 14.8206 5.55855 3
      vertex 12.6409 6.37352 3
    endloop
  endfacet
  facet normal 0 -0 1
    outer loop
      vertex 12.6411 2.38644 3
      vertex 14.6679 4.383 3
      vertex 12.3349 4.383 3
    endloop
  endfacet
  facet normal 0 0 1
    outer loop
      vertex 14.8206 5.55855 3
      vertex 12.3349 4.383 3
      vertex 14.6679 4.383 3
    endloop
  endfacet
  facet normal 0 0 1
    outer loop
      vertex 14.6679 4.383 3
      vertex 12.6411 2.38644 3
      vertex 13.5223 0.886871 3
    endloop
  endfacet
  facet normal 0 0 1
    outer loop
      vertex 18.3122 2.293 3
      vertex 20.924 2.36536 3
      vertex 18.7469 3.19409 3
    endloop
  endfacet
  facet normal 0 0 1
    outer loop
      vertex 20.924 2.36536 3
      vertex 18.3122 2.293 3
      vertex 20.0348 0.884613 3
    endloop
  endfacet
  facet normal 0 0 1
    outer loop
      vertex 20.0348 0.884613 3
      vertex 18.3122 2.293 3
      vertex 18.7155 0 3
    endloop
  endfacet
  facet normal -0 0 1
    outer loop
      vertex 17.6431 1.70764 3
      vertex 18.7155 0 3
      vertex 18.3122 2.293 3
    endloop
  endfacet
  facet normal -0 0 1
    outer loop
      vertex 16.7849 1.49899 3
      vertex 18.7155 0 3
      vertex 17.6431 1.70764 3
    endloop
  endfacet
  facet normal 0 0 1
    outer loop
      vertex 14.8386 0 3
      vertex 16.7849 1.49899 3
      vertex 15.9196 1.70816 3
    endloop
  endfacet
  facet normal 0 0 1
    outer loop
      vertex 16.7849 1.49899 3
      vertex 14.8386 0 3
      vertex 18.7155 0 3
    endloop
  endfacet
  facet normal 0 0 1
    outer loop
      vertex 15.2513 2.29712 3
      vertex 14.8386 0 3
      vertex 15.9196 1.70816 3
    endloop
  endfacet
  facet normal 0 0 1
    outer loop
      vertex 13.5223 0.886871 3
      vertex 15.2513 2.29712 3
      vertex 14.8206 3.20801 3
    endloop
  endfacet
  facet normal 0 0 1
    outer loop
      vertex 13.5223 0.886871 3
      vertex 14.8206 3.20801 3
      vertex 14.6679 4.383 3
    endloop
  endfacet
  facet normal 0 0 1
    outer loop
      vertex 15.2513 2.29712 3
      vertex 13.5223 0.886871 3
      vertex 14.8386 0 3
    endloop
  endfacet
  facet normal -0 0 1
    outer loop
      vertex 29.0783 9.02399 3
      vertex 31.4113 7.70099 3
      vertex 31.4113 9.02399 3
    endloop
  endfacet
  facet normal 0 0 1
    outer loop
      vertex 31.4113 7.70099 3
      vertex 29.0783 9.02399 3
      vertex 31.4113 5.41399 3
    endloop
  endfacet
  facet normal 0 0 1
    outer loop
      vertex 29.0783 0 3
      vertex 31.4113 5.41399 3
      vertex 29.0783 9.02399 3
    endloop
  endfacet
  facet normal 0 0 1
    outer loop
      vertex 31.4113 5.41399 3
      vertex 29.0783 0 3
      vertex 31.4113 0 3
    endloop
  endfacet
  facet normal 0 0 1
    outer loop
      vertex 37.1283 6.03499 3
      vertex 34.7006 6.25378 3
      vertex 34.7943 5.55099 3
    endloop
  endfacet
  facet normal 0 0 1
    outer loop
      vertex 36.3387 8.33711 3
      vertex 34.4193 6.75961 3
      vertex 34.7006 6.25378 3
    endloop
  endfacet
  facet normal 0 0 1
    outer loop
      vertex 33.9506 7.06538 3
      vertex 35.3914 8.94382 3
      vertex 34.1113 9.15199 3
    endloop
  endfacet
  facet normal 0 0 1
    outer loop
      vertex 35.3914 8.94382 3
      vertex 33.9506 7.06538 3
      vertex 34.4193 6.75961 3
    endloop
  endfacet
  facet normal -0 0 1
    outer loop
      vertex 33.2698 9.0659 3
      vertex 33.9506 7.06538 3
      vertex 34.1113 9.15199 3
    endloop
  endfacet
  facet normal 0 0 1
    outer loop
      vertex 33.9506 7.06538 3
      vertex 33.2698 9.0659 3
      vertex 33.2943 7.168 3
    endloop
  endfacet
  facet normal -0 0 1
    outer loop
      vertex 32.5551 8.8015 3
      vertex 33.2943 7.168 3
      vertex 33.2698 9.0659 3
    endloop
  endfacet
  facet normal 0 0 1
    outer loop
      vertex 32.5551 8.8015 3
      vertex 32.5221 7.04214 3
      vertex 33.2943 7.168 3
    endloop
  endfacet
  facet normal -0 0 1
    outer loop
      vertex 31.9434 8.34958 3
      vertex 32.5221 7.04214 3
      vertex 32.5551 8.8015 3
    endloop
  endfacet
  facet normal -0 0 1
    outer loop
      vertex 31.4113 7.70099 3
      vertex 32.5221 7.04214 3
      vertex 31.9434 8.34958 3
    endloop
  endfacet
  facet normal 0 0 1
    outer loop
      vertex 32.5221 7.04214 3
      vertex 31.4113 7.70099 3
      vertex 31.9279 6.68625 3
    endloop
  endfacet
  facet normal 0 0 1
    outer loop
      vertex 31.9279 6.68625 3
      vertex 31.4113 7.70099 3
      vertex 31.5462 6.13271 3
    endloop
  endfacet
  facet normal 0 0 1
    outer loop
      vertex 31.5462 6.13271 3
      vertex 31.4113 7.70099 3
      vertex 31.4113 5.41399 3
    endloop
  endfacet
  facet normal -0 0 1
    outer loop
      vertex 34.7006 6.25378 3
      vertex 37.1283 6.03499 3
      vertex 36.9265 7.3586 3
    endloop
  endfacet
  facet normal 0 0 1
    outer loop
      vertex 34.7006 6.25378 3
      vertex 36.9265 7.3586 3
      vertex 36.3387 8.33711 3
    endloop
  endfacet
  facet normal 0 0 1
    outer loop
      vertex 34.4193 6.75961 3
      vertex 36.3387 8.33711 3
      vertex 35.3914 8.94382 3
    endloop
  endfacet
  facet normal 0 0 1
    outer loop
      vertex 37.1283 6.03499 3
      vertex 34.7943 5.55099 3
      vertex 37.1283 0 3
    endloop
  endfacet
  facet normal 0 0 1
    outer loop
      vertex 37.1283 0 3
      vertex 34.7943 5.55099 3
      vertex 34.7943 0 3
    endloop
  endfacet
  facet normal 0.491579 -0.870833 0
    outer loop
      vertex 8.41334 0 0
      vertex 9.89961 0.838989 3
      vertex 8.41334 0 3
    endloop
  endfacet
  facet normal 0.491579 -0.870833 0
    outer loop
      vertex 9.89961 0.838989 3
      vertex 8.41334 0 0
      vertex 9.89961 0.838989 0
    endloop
  endfacet
  facet normal 0.800958 -0.59872 0
    outer loop
      vertex 9.89961 0.838989 3
      vertex 10.9671 2.26706 0
      vertex 10.9671 2.26706 3
    endloop
  endfacet
  facet normal 0.800958 -0.59872 0
    outer loop
      vertex 10.9671 2.26706 0
      vertex 9.89961 0.838989 3
      vertex 9.89961 0.838989 0
    endloop
  endfacet
  facet normal 0.972738 -0.231906 0
    outer loop
      vertex 10.9671 2.26706 3
      vertex 11.416 4.14999 0
      vertex 11.416 4.14999 3
    endloop
  endfacet
  facet normal 0.972738 -0.231906 0
    outer loop
      vertex 11.416 4.14999 0
      vertex 10.9671 2.26706 3
      vertex 10.9671 2.26706 0
    endloop
  endfacet
  facet normal 0 1 -0
    outer loop
      vertex 11.416 4.14999 0
      vertex 8.98299 4.14999 3
      vertex 11.416 4.14999 3
    endloop
  endfacet
  facet normal 0 1 0
    outer loop
      vertex 8.98299 4.14999 3
      vertex 11.416 4.14999 0
      vertex 8.98299 4.14999 0
    endloop
  endfacet
  facet normal -0.968835 0.247708 0
    outer loop
      vertex 8.71846 3.11536 0
      vertex 8.98299 4.14999 3
      vertex 8.98299 4.14999 0
    endloop
  endfacet
  facet normal -0.968835 0.247708 0
    outer loop
      vertex 8.98299 4.14999 3
      vertex 8.71846 3.11536 0
      vertex 8.71846 3.11536 3
    endloop
  endfacet
  facet normal -0.810582 0.585625 0
    outer loop
      vertex 8.16649 2.35136 0
      vertex 8.71846 3.11536 3
      vertex 8.71846 3.11536 0
    endloop
  endfacet
  facet normal -0.810582 0.585625 0
    outer loop
      vertex 8.71846 3.11536 3
      vertex 8.16649 2.35136 0
      vertex 8.16649 2.35136 3
    endloop
  endfacet
  facet normal -0.502336 0.864673 0
    outer loop
      vertex 8.16649 2.35136 0
      vertex 7.35202 1.87819 3
      vertex 8.16649 2.35136 3
    endloop
  endfacet
  facet normal -0.502336 0.864673 0
    outer loop
      vertex 7.35202 1.87819 3
      vertex 8.16649 2.35136 0
      vertex 7.35202 1.87819 0
    endloop
  endfacet
  facet normal -0.152378 0.988322 0
    outer loop
      vertex 7.35202 1.87819 0
      vertex 6.29999 1.71599 3
      vertex 7.35202 1.87819 3
    endloop
  endfacet
  facet normal -0.152378 0.988322 0
    outer loop
      vertex 6.29999 1.71599 3
      vertex 7.35202 1.87819 0
      vertex 6.29999 1.71599 0
    endloop
  endfacet
  facet normal 0.215828 0.976431 -0
    outer loop
      vertex 6.29999 1.71599 0
      vertex 5.00487 2.00226 3
      vertex 6.29999 1.71599 3
    endloop
  endfacet
  facet normal 0.215828 0.976431 0
    outer loop
      vertex 5.00487 2.00226 3
      vertex 6.29999 1.71599 0
      vertex 5.00487 2.00226 0
    endloop
  endfacet
  facet normal 0.651989 0.758229 -0
    outer loop
      vertex 5.00487 2.00226 0
      vertex 4.04124 2.83087 3
      vertex 5.00487 2.00226 3
    endloop
  endfacet
  facet normal 0.651989 0.758229 0
    outer loop
      vertex 4.04124 2.83087 3
      vertex 5.00487 2.00226 0
      vertex 4.04124 2.83087 0
    endloop
  endfacet
  facet normal 0.910777 0.412899 0
    outer loop
      vertex 4.04124 2.83087 3
      vertex 3.44025 4.15654 0
      vertex 3.44025 4.15654 3
    endloop
  endfacet
  facet normal 0.910777 0.412899 0
    outer loop
      vertex 3.44025 4.15654 0
      vertex 4.04124 2.83087 3
      vertex 4.04124 2.83087 0
    endloop
  endfacet
  facet normal 0.99327 0.115821 0
    outer loop
      vertex 3.44025 4.15654 3
      vertex 3.23299 5.93399 0
      vertex 3.23299 5.93399 3
    endloop
  endfacet
  facet normal 0.99327 0.115821 0
    outer loop
      vertex 3.23299 5.93399 0
      vertex 3.44025 4.15654 3
      vertex 3.44025 4.15654 0
    endloop
  endfacet
  facet normal 0.992917 -0.118812 0
    outer loop
      vertex 3.23299 5.93399 3
      vertex 3.44858 7.73569 0
      vertex 3.44858 7.73569 3
    endloop
  endfacet
  facet normal 0.992917 -0.118812 0
    outer loop
      vertex 3.44858 7.73569 0
      vertex 3.23299 5.93399 3
      vertex 3.23299 5.93399 0
    endloop
  endfacet
  facet normal 0.907911 -0.419164 0
    outer loop
      vertex 3.44858 7.73569 3
      vertex 4.07037 9.08249 0
      vertex 4.07037 9.08249 3
    endloop
  endfacet
  facet normal 0.907911 -0.419164 0
    outer loop
      vertex 4.07037 9.08249 0
      vertex 3.44858 7.73569 3
      vertex 3.44858 7.73569 0
    endloop
  endfacet
  facet normal 0.648344 -0.761347 0
    outer loop
      vertex 4.07037 9.08249 0
      vertex 5.06097 9.92606 3
      vertex 4.07037 9.08249 3
    endloop
  endfacet
  facet normal 0.648344 -0.761347 0
    outer loop
      vertex 5.06097 9.92606 3
      vertex 4.07037 9.08249 0
      vertex 5.06097 9.92606 0
    endloop
  endfacet
  facet normal 0.215632 -0.976475 0
    outer loop
      vertex 5.06097 9.92606 0
      vertex 6.383 10.218 3
      vertex 5.06097 9.92606 3
    endloop
  endfacet
  facet normal 0.215632 -0.976475 0
    outer loop
      vertex 6.383 10.218 3
      vertex 5.06097 9.92606 0
      vertex 6.383 10.218 0
    endloop
  endfacet
  facet normal -0.0898989 -0.995951 0
    outer loop
      vertex 6.383 10.218 0
      vertex 7.0034 10.162 3
      vertex 6.383 10.218 3
    endloop
  endfacet
  facet normal -0.0898989 -0.995951 -0
    outer loop
      vertex 7.0034 10.162 3
      vertex 6.383 10.218 0
      vertex 7.0034 10.162 0
    endloop
  endfacet
  facet normal -0.28814 -0.957588 0
    outer loop
      vertex 7.0034 10.162 0
      vertex 7.558 9.99512 3
      vertex 7.0034 10.162 3
    endloop
  endfacet
  facet normal -0.28814 -0.957588 -0
    outer loop
      vertex 7.558 9.99512 3
      vertex 7.0034 10.162 0
      vertex 7.558 9.99512 0
    endloop
  endfacet
  facet normal -0.499071 -0.866561 0
    outer loop
      vertex 7.558 9.99512 0
      vertex 8.03758 9.71892 3
      vertex 7.558 9.99512 3
    endloop
  endfacet
  facet normal -0.499071 -0.866561 -0
    outer loop
      vertex 8.03758 9.71892 3
      vertex 7.558 9.99512 0
      vertex 8.03758 9.71892 0
    endloop
  endfacet
  facet normal -0.696606 -0.717454 0
    outer loop
      vertex 8.03758 9.71892 0
      vertex 8.433 9.33499 3
      vertex 8.03758 9.71892 3
    endloop
  endfacet
  facet normal -0.696606 -0.717454 -0
    outer loop
      vertex 8.433 9.33499 3
      vertex 8.03758 9.71892 0
      vertex 8.433 9.33499 0
    endloop
  endfacet
  facet normal -0.818434 -0.5746 0
    outer loop
      vertex 8.61047 9.08221 0
      vertex 8.433 9.33499 3
      vertex 8.433 9.33499 0
    endloop
  endfacet
  facet normal -0.818434 -0.5746 0
    outer loop
      vertex 8.433 9.33499 3
      vertex 8.61047 9.08221 0
      vertex 8.61047 9.08221 3
    endloop
  endfacet
  facet normal -0.892141 -0.451758 0
    outer loop
      vertex 8.75186 8.80299 0
      vertex 8.61047 9.08221 3
      vertex 8.61047 9.08221 0
    endloop
  endfacet
  facet normal -0.892141 -0.451758 0
    outer loop
      vertex 8.61047 9.08221 3
      vertex 8.75186 8.80299 0
      vertex 8.75186 8.80299 3
    endloop
  endfacet
  facet normal -0.94299 -0.33282 0
    outer loop
      vertex 8.87132 8.46452 0
      vertex 8.75186 8.80299 3
      vertex 8.75186 8.80299 0
    endloop
  endfacet
  facet normal -0.94299 -0.33282 0
    outer loop
      vertex 8.75186 8.80299 3
      vertex 8.87132 8.46452 0
      vertex 8.87132 8.46452 3
    endloop
  endfacet
  facet normal -0.967968 -0.251075 0
    outer loop
      vertex 8.98299 8.034 0
      vertex 8.87132 8.46452 3
      vertex 8.87132 8.46452 0
    endloop
  endfacet
  facet normal -0.967968 -0.251075 0
    outer loop
      vertex 8.87132 8.46452 3
      vertex 8.98299 8.034 0
      vertex 8.98299 8.034 3
    endloop
  endfacet
  facet normal 0 -1 0
    outer loop
      vertex 8.98299 8.034 0
      vertex 11.366 8.034 3
      vertex 8.98299 8.034 3
    endloop
  endfacet
  facet normal 0 -1 -0
    outer loop
      vertex 11.366 8.034 3
      vertex 8.98299 8.034 0
      vertex 11.366 8.034 0
    endloop
  endfacet
  facet normal 0.992327 0.123637 0
    outer loop
      vertex 11.366 8.034 3
      vertex 11.276 8.75635 0
      vertex 11.276 8.75635 3
    endloop
  endfacet
  facet normal 0.992327 0.123637 0
    outer loop
      vertex 11.276 8.75635 0
      vertex 11.366 8.034 3
      vertex 11.366 8.034 0
    endloop
  endfacet
  facet normal 0.969525 0.244991 0
    outer loop
      vertex 11.276 8.75635 3
      vertex 11.1204 9.37212 0
      vertex 11.1204 9.37212 3
    endloop
  endfacet
  facet normal 0.969525 0.244991 0
    outer loop
      vertex 11.1204 9.37212 0
      vertex 11.276 8.75635 3
      vertex 11.276 8.75635 0
    endloop
  endfacet
  facet normal 0.917624 0.39745 0
    outer loop
      vertex 11.1204 9.37212 3
      vertex 10.8835 9.91907 0
      vertex 10.8835 9.91907 3
    endloop
  endfacet
  facet normal 0.917624 0.39745 0
    outer loop
      vertex 10.8835 9.91907 0
      vertex 11.1204 9.37212 3
      vertex 11.1204 9.37212 0
    endloop
  endfacet
  facet normal 0.83982 0.542864 0
    outer loop
      vertex 10.8835 9.91907 3
      vertex 10.55 10.435 0
      vertex 10.55 10.435 3
    endloop
  endfacet
  facet normal 0.83982 0.542864 0
    outer loop
      vertex 10.55 10.435 0
      vertex 10.8835 9.91907 3
      vertex 10.8835 9.91907 0
    endloop
  endfacet
  facet normal 0.714464 0.699672 0
    outer loop
      vertex 10.55 10.435 3
      vertex 9.74727 11.2547 0
      vertex 9.74727 11.2547 3
    endloop
  endfacet
  facet normal 0.714464 0.699672 0
    outer loop
      vertex 9.74727 11.2547 0
      vertex 10.55 10.435 3
      vertex 10.55 10.435 0
    endloop
  endfacet
  facet normal 0.518474 0.855094 -0
    outer loop
      vertex 9.74727 11.2547 0
      vertex 8.75574 11.8559 3
      vertex 9.74727 11.2547 3
    endloop
  endfacet
  facet normal 0.518474 0.855094 0
    outer loop
      vertex 8.75574 11.8559 3
      vertex 9.74727 11.2547 0
      vertex 8.75574 11.8559 0
    endloop
  endfacet
  facet normal 0.304543 0.952498 -0
    outer loop
      vertex 8.75574 11.8559 0
      vertex 7.59883 12.2258 3
      vertex 8.75574 11.8559 3
    endloop
  endfacet
  facet normal 0.304543 0.952498 0
    outer loop
      vertex 7.59883 12.2258 3
      vertex 8.75574 11.8559 0
      vertex 7.59883 12.2258 0
    endloop
  endfacet
  facet normal 0.0967082 0.995313 -0
    outer loop
      vertex 7.59883 12.2258 0
      vertex 6.29999 12.352 3
      vertex 7.59883 12.2258 3
    endloop
  endfacet
  facet normal 0.0967082 0.995313 0
    outer loop
      vertex 6.29999 12.352 3
      vertex 7.59883 12.2258 0
      vertex 6.29999 12.352 0
    endloop
  endfacet
  facet normal -0.188244 0.982122 0
    outer loop
      vertex 6.29999 12.352 0
      vertex 3.98143 11.9076 3
      vertex 6.29999 12.352 3
    endloop
  endfacet
  facet normal -0.188244 0.982122 0
    outer loop
      vertex 3.98143 11.9076 3
      vertex 6.29999 12.352 0
      vertex 3.98143 11.9076 0
    endloop
  endfacet
  facet normal -0.587633 0.809128 0
    outer loop
      vertex 3.98143 11.9076 0
      vertex 2.22874 10.6347 3
      vertex 3.98143 11.9076 3
    endloop
  endfacet
  facet normal -0.587633 0.809128 0
    outer loop
      vertex 2.22874 10.6347 3
      vertex 3.98143 11.9076 0
      vertex 2.22874 10.6347 0
    endloop
  endfacet
  facet normal -0.875647 0.482952 0
    outer loop
      vertex 1.11993 8.6243 0
      vertex 2.22874 10.6347 3
      vertex 2.22874 10.6347 0
    endloop
  endfacet
  facet normal -0.875647 0.482952 0
    outer loop
      vertex 2.22874 10.6347 3
      vertex 1.11993 8.6243 0
      vertex 1.11993 8.6243 3
    endloop
  endfacet
  facet normal -0.989564 0.144096 0
    outer loop
      vertex 0.732986 5.967 0
      vertex 1.11993 8.6243 3
      vertex 1.11993 8.6243 0
    endloop
  endfacet
  facet normal -0.989564 0.144096 0
    outer loop
      vertex 1.11993 8.6243 3
      vertex 0.732986 5.967 0
      vertex 0.732986 5.967 3
    endloop
  endfacet
  facet normal -0.98959 -0.143915 0
    outer loop
      vertex 1.11664 3.32892 0
      vertex 0.732986 5.967 3
      vertex 0.732986 5.967 0
    endloop
  endfacet
  facet normal -0.98959 -0.143915 0
    outer loop
      vertex 0.732986 5.967 3
      vertex 1.11664 3.32892 0
      vertex 1.11664 3.32892 3
    endloop
  endfacet
  facet normal -0.876667 -0.481097 0
    outer loop
      vertex 2.21437 1.32861 0
      vertex 1.11664 3.32892 3
      vertex 1.11664 3.32892 0
    endloop
  endfacet
  facet normal -0.876667 -0.481097 0
    outer loop
      vertex 1.11664 3.32892 3
      vertex 2.21437 1.32861 0
      vertex 2.21437 1.32861 3
    endloop
  endfacet
  facet normal -0.590968 -0.806695 0
    outer loop
      vertex 2.21437 1.32861 0
      vertex 3.94641 0.0597534 3
      vertex 2.21437 1.32861 3
    endloop
  endfacet
  facet normal -0.590968 -0.806695 -0
    outer loop
      vertex 3.94641 0.0597534 3
      vertex 2.21437 1.32861 0
      vertex 3.94641 0.0597534 0
    endloop
  endfacet
  facet normal -0.190507 -0.981686 0
    outer loop
      vertex 3.94641 0.0597534 0
      vertex 4.25432 0 3
      vertex 3.94641 0.0597534 3
    endloop
  endfacet
  facet normal -0.190507 -0.981686 -0
    outer loop
      vertex 4.25432 0 3
      vertex 3.94641 0.0597534 0
      vertex 4.25432 0 0
    endloop
  endfacet
  facet normal 0.556912 -0.830571 0
    outer loop
      vertex 18.7155 0 0
      vertex 20.0348 0.884613 3
      vertex 18.7155 0 3
    endloop
  endfacet
  facet normal 0.556912 -0.830571 0
    outer loop
      vertex 20.0348 0.884613 3
      vertex 18.7155 0 0
      vertex 20.0348 0.884613 0
    endloop
  endfacet
  facet normal 0.857301 -0.514816 0
    outer loop
      vertex 20.0348 0.884613 3
      vertex 20.924 2.36536 0
      vertex 20.924 2.36536 3
    endloop
  endfacet
  facet normal 0.857301 -0.514816 0
    outer loop
      vertex 20.924 2.36536 0
      vertex 20.0348 0.884613 3
      vertex 20.0348 0.884613 0
    endloop
  endfacet
  facet normal 0.987548 -0.157319 0
    outer loop
      vertex 20.924 2.36536 3
      vertex 21.2349 4.31699 0
      vertex 21.2349 4.31699 3
    endloop
  endfacet
  facet normal 0.987548 -0.157319 0
    outer loop
      vertex 21.2349 4.31699 0
      vertex 20.924 2.36536 3
      vertex 20.924 2.36536 0
    endloop
  endfacet
  facet normal 0.98926 0.146165 0
    outer loop
      vertex 21.2349 4.31699 3
      vertex 20.9331 6.3596 0
      vertex 20.9331 6.3596 3
    endloop
  endfacet
  facet normal 0.98926 0.146165 0
    outer loop
      vertex 20.9331 6.3596 0
      vertex 21.2349 4.31699 3
      vertex 21.2349 4.31699 0
    endloop
  endfacet
  facet normal 0.866447 0.49927 0
    outer loop
      vertex 20.9331 6.3596 3
      vertex 20.0578 7.87862 0
      vertex 20.0578 7.87862 3
    endloop
  endfacet
  facet normal 0.866447 0.49927 0
    outer loop
      vertex 20.0578 7.87862 0
      vertex 20.9331 6.3596 3
      vertex 20.9331 6.3596 0
    endloop
  endfacet
  facet normal 0.55931 0.828959 -0
    outer loop
      vertex 20.0578 7.87862 0
      vertex 18.6543 8.82558 3
      vertex 20.0578 7.87862 3
    endloop
  endfacet
  facet normal 0.55931 0.828959 0
    outer loop
      vertex 18.6543 8.82558 3
      vertex 20.0578 7.87862 0
      vertex 18.6543 8.82558 0
    endloop
  endfacet
  facet normal 0.1705 0.985358 -0
    outer loop
      vertex 18.6543 8.82558 0
      vertex 16.7679 9.15199 3
      vertex 18.6543 8.82558 3
    endloop
  endfacet
  facet normal 0.1705 0.985358 0
    outer loop
      vertex 16.7679 9.15199 3
      vertex 18.6543 8.82558 0
      vertex 16.7679 9.15199 0
    endloop
  endfacet
  facet normal -0.175365 0.984504 0
    outer loop
      vertex 16.7679 9.15199 0
      vertex 14.9151 8.82196 3
      vertex 16.7679 9.15199 3
    endloop
  endfacet
  facet normal -0.175365 0.984504 0
    outer loop
      vertex 14.9151 8.82196 3
      vertex 16.7679 9.15199 0
      vertex 14.9151 8.82196 0
    endloop
  endfacet
  facet normal -0.561875 0.827222 0
    outer loop
      vertex 14.9151 8.82196 0
      vertex 13.5202 7.8745 3
      vertex 14.9151 8.82196 3
    endloop
  endfacet
  facet normal -0.561875 0.827222 0
    outer loop
      vertex 13.5202 7.8745 3
      vertex 14.9151 8.82196 0
      vertex 13.5202 7.8745 0
    endloop
  endfacet
  facet normal -0.862845 0.505469 0
    outer loop
      vertex 12.6409 6.37352 0
      vertex 13.5202 7.8745 3
      vertex 13.5202 7.8745 0
    endloop
  endfacet
  facet normal -0.862845 0.505469 0
    outer loop
      vertex 13.5202 7.8745 3
      vertex 12.6409 6.37352 0
      vertex 12.6409 6.37352 3
    endloop
  endfacet
  facet normal -0.988389 0.151944 0
    outer loop
      vertex 12.3349 4.383 0
      vertex 12.6409 6.37352 3
      vertex 12.6409 6.37352 0
    endloop
  endfacet
  facet normal -0.988389 0.151944 0
    outer loop
      vertex 12.6409 6.37352 3
      vertex 12.3349 4.383 0
      vertex 12.3349 4.383 3
    endloop
  endfacet
  facet normal -0.988443 -0.151591 0
    outer loop
      vertex 12.6411 2.38644 0
      vertex 12.3349 4.383 3
      vertex 12.3349 4.383 0
    endloop
  endfacet
  facet normal -0.988443 -0.151591 0
    outer loop
      vertex 12.3349 4.383 3
      vertex 12.6411 2.38644 0
      vertex 12.6411 2.38644 3
    endloop
  endfacet
  facet normal -0.86216 -0.506636 0
    outer loop
      vertex 13.5223 0.886871 0
      vertex 12.6411 2.38644 3
      vertex 12.6411 2.38644 0
    endloop
  endfacet
  facet normal -0.86216 -0.506636 0
    outer loop
      vertex 12.6411 2.38644 3
      vertex 13.5223 0.886871 0
      vertex 13.5223 0.886871 3
    endloop
  endfacet
  facet normal -0.558766 -0.829325 0
    outer loop
      vertex 13.5223 0.886871 0
      vertex 14.8386 0 3
      vertex 13.5223 0.886871 3
    endloop
  endfacet
  facet normal -0.558766 -0.829325 -0
    outer loop
      vertex 14.8386 0 3
      vertex 13.5223 0.886871 0
      vertex 14.8386 0 0
    endloop
  endfacet
  facet normal 0.661169 0.750237 -0
    outer loop
      vertex 15.9196 1.70816 0
      vertex 15.2513 2.29712 3
      vertex 15.9196 1.70816 3
    endloop
  endfacet
  facet normal 0.661169 0.750237 0
    outer loop
      vertex 15.2513 2.29712 3
      vertex 15.9196 1.70816 0
      vertex 15.2513 2.29712 0
    endloop
  endfacet
  facet normal 0.904035 0.427459 0
    outer loop
      vertex 15.2513 2.29712 3
      vertex 14.8206 3.20801 0
      vertex 14.8206 3.20801 3
    endloop
  endfacet
  facet normal 0.904035 0.427459 0
    outer loop
      vertex 14.8206 3.20801 0
      vertex 15.2513 2.29712 3
      vertex 15.2513 2.29712 0
    endloop
  endfacet
  facet normal 0.991661 0.128875 0
    outer loop
      vertex 14.8206 3.20801 3
      vertex 14.6679 4.383 0
      vertex 14.6679 4.383 3
    endloop
  endfacet
  facet normal 0.991661 0.128875 0
    outer loop
      vertex 14.6679 4.383 0
      vertex 14.8206 3.20801 3
      vertex 14.8206 3.20801 0
    endloop
  endfacet
  facet normal 0.991669 -0.128814 0
    outer loop
      vertex 14.6679 4.383 3
      vertex 14.8206 5.55855 0
      vertex 14.8206 5.55855 3
    endloop
  endfacet
  facet normal 0.991669 -0.128814 0
    outer loop
      vertex 14.8206 5.55855 0
      vertex 14.6679 4.383 3
      vertex 14.6679 4.383 0
    endloop
  endfacet
  facet normal 0.904089 -0.427344 0
    outer loop
      vertex 14.8206 5.55855 3
      vertex 15.2513 6.46974 0
      vertex 15.2513 6.46974 3
    endloop
  endfacet
  facet normal 0.904089 -0.427344 0
    outer loop
      vertex 15.2513 6.46974 0
      vertex 14.8206 5.55855 3
      vertex 14.8206 5.55855 0
    endloop
  endfacet
  facet normal 0.661239 -0.750175 0
    outer loop
      vertex 15.2513 6.46974 0
      vertex 15.9196 7.05881 3
      vertex 15.2513 6.46974 3
    endloop
  endfacet
  facet normal 0.661239 -0.750175 0
    outer loop
      vertex 15.9196 7.05881 3
      vertex 15.2513 6.46974 0
      vertex 15.9196 7.05881 0
    endloop
  endfacet
  facet normal 0.234974 -0.972002 0
    outer loop
      vertex 15.9196 7.05881 0
      vertex 16.7849 7.26799 3
      vertex 15.9196 7.05881 3
    endloop
  endfacet
  facet normal 0.234974 -0.972002 0
    outer loop
      vertex 16.7849 7.26799 3
      vertex 15.9196 7.05881 0
      vertex 16.7849 7.26799 0
    endloop
  endfacet
  facet normal -0.231269 -0.97289 0
    outer loop
      vertex 16.7849 7.26799 0
      vertex 17.657 7.06068 3
      vertex 16.7849 7.26799 3
    endloop
  endfacet
  facet normal -0.231269 -0.97289 -0
    outer loop
      vertex 17.657 7.06068 3
      vertex 16.7849 7.26799 0
      vertex 17.657 7.06068 0
    endloop
  endfacet
  facet normal -0.661395 -0.750038 0
    outer loop
      vertex 17.657 7.06068 0
      vertex 18.3246 6.47198 3
      vertex 17.657 7.06068 3
    endloop
  endfacet
  facet normal -0.661395 -0.750038 -0
    outer loop
      vertex 18.3246 6.47198 3
      vertex 17.657 7.06068 0
      vertex 18.3246 6.47198 0
    endloop
  endfacet
  facet normal -0.907094 -0.420928 0
    outer loop
      vertex 18.7516 5.5518 0
      vertex 18.3246 6.47198 3
      vertex 18.3246 6.47198 0
    endloop
  endfacet
  facet normal -0.907094 -0.420928 0
    outer loop
      vertex 18.3246 6.47198 3
      vertex 18.7516 5.5518 0
      vertex 18.7516 5.5518 3
    endloop
  endfacet
  facet normal -0.99227 -0.124095 0
    outer loop
      vertex 18.9019 4.34999 0
      vertex 18.7516 5.5518 3
      vertex 18.7516 5.5518 0
    endloop
  endfacet
  facet normal -0.99227 -0.124095 0
    outer loop
      vertex 18.7516 5.5518 3
      vertex 18.9019 4.34999 0
      vertex 18.9019 4.34999 3
    endloop
  endfacet
  facet normal -0.991129 0.132905 0
    outer loop
      vertex 18.7469 3.19409 0
      vertex 18.9019 4.34999 3
      vertex 18.9019 4.34999 0
    endloop
  endfacet
  facet normal -0.991129 0.132905 0
    outer loop
      vertex 18.9019 4.34999 3
      vertex 18.7469 3.19409 0
      vertex 18.7469 3.19409 3
    endloop
  endfacet
  facet normal -0.900673 0.434499 0
    outer loop
      vertex 18.3122 2.293 0
      vertex 18.7469 3.19409 3
      vertex 18.7469 3.19409 0
    endloop
  endfacet
  facet normal -0.900673 0.434499 0
    outer loop
      vertex 18.7469 3.19409 3
      vertex 18.3122 2.293 0
      vertex 18.3122 2.293 3
    endloop
  endfacet
  facet normal -0.658439 0.752634 0
    outer loop
      vertex 18.3122 2.293 0
      vertex 17.6431 1.70764 3
      vertex 18.3122 2.293 3
    endloop
  endfacet
  facet normal -0.658439 0.752634 0
    outer loop
      vertex 17.6431 1.70764 3
      vertex 18.3122 2.293 0
      vertex 17.6431 1.70764 0
    endloop
  endfacet
  facet normal -0.236243 0.971694 0
    outer loop
      vertex 17.6431 1.70764 0
      vertex 16.7849 1.49899 3
      vertex 17.6431 1.70764 3
    endloop
  endfacet
  facet normal -0.236243 0.971694 0
    outer loop
      vertex 16.7849 1.49899 3
      vertex 17.6431 1.70764 0
      vertex 16.7849 1.49899 0
    endloop
  endfacet
  facet normal 0.234964 0.972004 -0
    outer loop
      vertex 16.7849 1.49899 0
      vertex 15.9196 1.70816 3
      vertex 16.7849 1.49899 3
    endloop
  endfacet
  facet normal 0.234964 0.972004 0
    outer loop
      vertex 15.9196 1.70816 3
      vertex 16.7849 1.49899 0
      vertex 15.9196 1.70816 0
    endloop
  endfacet
  facet normal 0.989821 -0.142318 0
    outer loop
      vertex 25.0803 4.79599 3
      vertex 25.2083 5.68623 0
      vertex 25.2083 5.68623 3
    endloop
  endfacet
  facet normal 0.989821 -0.142318 0
    outer loop
      vertex 25.2083 5.68623 0
      vertex 25.0803 4.79599 3
      vertex 25.0803 4.79599 0
    endloop
  endfacet
  facet normal 0.856385 -0.516338 0
    outer loop
      vertex 25.2083 5.68623 3
      vertex 25.5926 6.32362 0
      vertex 25.5926 6.32362 3
    endloop
  endfacet
  facet normal 0.856385 -0.516338 0
    outer loop
      vertex 25.5926 6.32362 0
      vertex 25.2083 5.68623 3
      vertex 25.2083 5.68623 0
    endloop
  endfacet
  facet normal 0.513471 -0.858107 0
    outer loop
      vertex 25.5926 6.32362 0
      vertex 26.2332 6.70694 3
      vertex 25.5926 6.32362 3
    endloop
  endfacet
  facet normal 0.513471 -0.858107 0
    outer loop
      vertex 26.2332 6.70694 3
      vertex 25.5926 6.32362 0
      vertex 26.2332 6.70694 0
    endloop
  endfacet
  facet normal 0.141305 -0.989966 0
    outer loop
      vertex 26.2332 6.70694 0
      vertex 27.1303 6.83499 3
      vertex 26.2332 6.70694 3
    endloop
  endfacet
  facet normal 0.141305 -0.989966 0
    outer loop
      vertex 27.1303 6.83499 3
      vertex 26.2332 6.70694 0
      vertex 27.1303 6.83499 0
    endloop
  endfacet
  facet normal -0.0195404 -0.999809 0
    outer loop
      vertex 27.1303 6.83499 0
      vertex 27.3058 6.83156 3
      vertex 27.1303 6.83499 3
    endloop
  endfacet
  facet normal -0.0195404 -0.999809 -0
    outer loop
      vertex 27.3058 6.83156 3
      vertex 27.1303 6.83499 0
      vertex 27.3058 6.83156 0
    endloop
  endfacet
  facet normal -0.0679533 -0.997689 0
    outer loop
      vertex 27.3058 6.83156 0
      vertex 27.472 6.82024 3
      vertex 27.3058 6.83156 3
    endloop
  endfacet
  facet normal -0.0679533 -0.997689 -0
    outer loop
      vertex 27.472 6.82024 3
      vertex 27.3058 6.83156 0
      vertex 27.472 6.82024 0
    endloop
  endfacet
  facet normal -0.115021 -0.993363 0
    outer loop
      vertex 27.472 6.82024 0
      vertex 27.6506 6.79956 3
      vertex 27.472 6.82024 3
    endloop
  endfacet
  facet normal -0.115021 -0.993363 -0
    outer loop
      vertex 27.6506 6.79956 3
      vertex 27.472 6.82024 0
      vertex 27.6506 6.79956 0
    endloop
  endfacet
  facet normal -0.146817 -0.989164 0
    outer loop
      vertex 27.6506 6.79956 0
      vertex 27.8633 6.76799 3
      vertex 27.6506 6.79956 3
    endloop
  endfacet
  facet normal -0.146817 -0.989164 -0
    outer loop
      vertex 27.8633 6.76799 3
      vertex 27.6506 6.79956 0
      vertex 27.8633 6.76799 0
    endloop
  endfacet
  facet normal 1 -0 0
    outer loop
      vertex 27.8633 6.76799 3
      vertex 27.8633 9.13499 0
      vertex 27.8633 9.13499 3
    endloop
  endfacet
  facet normal 1 0 0
    outer loop
      vertex 27.8633 9.13499 0
      vertex 27.8633 6.76799 3
      vertex 27.8633 6.76799 0
    endloop
  endfacet
  facet normal 0.107514 0.994204 -0
    outer loop
      vertex 27.8633 9.13499 0
      vertex 27.7724 9.14482 3
      vertex 27.8633 9.13499 3
    endloop
  endfacet
  facet normal 0.107514 0.994204 0
    outer loop
      vertex 27.7724 9.14482 3
      vertex 27.8633 9.13499 0
      vertex 27.7724 9.14482 0
    endloop
  endfacet
  facet normal 0.0668264 0.997765 -0
    outer loop
      vertex 27.7724 9.14482 0
      vertex 27.697 9.14987 3
      vertex 27.7724 9.14482 3
    endloop
  endfacet
  facet normal 0.0668264 0.997765 0
    outer loop
      vertex 27.697 9.14987 3
      vertex 27.7724 9.14482 0
      vertex 27.697 9.14987 0
    endloop
  endfacet
  facet normal 0.029511 0.999564 -0
    outer loop
      vertex 27.697 9.14987 0
      vertex 27.634 9.15173 3
      vertex 27.697 9.14987 3
    endloop
  endfacet
  facet normal 0.029511 0.999564 0
    outer loop
      vertex 27.634 9.15173 3
      vertex 27.697 9.14987 0
      vertex 27.634 9.15173 0
    endloop
  endfacet
  facet normal 0.00484166 0.999988 -0
    outer loop
      vertex 27.634 9.15173 0
      vertex 27.5803 9.15199 3
      vertex 27.634 9.15173 3
    endloop
  endfacet
  facet normal 0.00484166 0.999988 0
    outer loop
      vertex 27.5803 9.15199 3
      vertex 27.634 9.15173 0
      vertex 27.5803 9.15199 0
    endloop
  endfacet
  facet normal -0.164528 0.986372 0
    outer loop
      vertex 27.5803 9.15199 0
      vertex 26.8098 9.02347 3
      vertex 27.5803 9.15199 3
    endloop
  endfacet
  facet normal -0.164528 0.986372 0
    outer loop
      vertex 26.8098 9.02347 3
      vertex 27.5803 9.15199 0
      vertex 26.8098 9.02347 0
    endloop
  endfacet
  facet normal -0.475338 0.879803 0
    outer loop
      vertex 26.8098 9.02347 0
      vertex 26.1176 8.64949 3
      vertex 26.8098 9.02347 3
    endloop
  endfacet
  facet normal -0.475338 0.879803 0
    outer loop
      vertex 26.1176 8.64949 3
      vertex 26.8098 9.02347 0
      vertex 26.1176 8.64949 0
    endloop
  endfacet
  facet normal -0.716661 0.697422 0
    outer loop
      vertex 25.5318 8.04753 0
      vertex 26.1176 8.64949 3
      vertex 26.1176 8.64949 0
    endloop
  endfacet
  facet normal -0.716661 0.697422 0
    outer loop
      vertex 26.1176 8.64949 3
      vertex 25.5318 8.04753 0
      vertex 25.5318 8.04753 3
    endloop
  endfacet
  facet normal -0.874117 0.485716 0
    outer loop
      vertex 25.0803 7.23499 0
      vertex 25.5318 8.04753 3
      vertex 25.5318 8.04753 0
    endloop
  endfacet
  facet normal -0.874117 0.485716 0
    outer loop
      vertex 25.5318 8.04753 3
      vertex 25.0803 7.23499 0
      vertex 25.0803 7.23499 3
    endloop
  endfacet
  facet normal 1 -0 0
    outer loop
      vertex 25.0803 7.23499 3
      vertex 25.0803 9.02399 0
      vertex 25.0803 9.02399 3
    endloop
  endfacet
  facet normal 1 0 0
    outer loop
      vertex 25.0803 9.02399 0
      vertex 25.0803 7.23499 3
      vertex 25.0803 7.23499 0
    endloop
  endfacet
  facet normal 0 1 -0
    outer loop
      vertex 25.0803 9.02399 0
      vertex 22.7473 9.02399 3
      vertex 25.0803 9.02399 3
    endloop
  endfacet
  facet normal 0 1 0
    outer loop
      vertex 22.7473 9.02399 3
      vertex 25.0803 9.02399 0
      vertex 22.7473 9.02399 0
    endloop
  endfacet
  facet normal -1 0 0
    outer loop
      vertex 22.7473 0 0
      vertex 22.7473 9.02399 3
      vertex 22.7473 9.02399 0
    endloop
  endfacet
  facet normal -1 -0 0
    outer loop
      vertex 22.7473 9.02399 3
      vertex 22.7473 0 0
      vertex 22.7473 0 3
    endloop
  endfacet
  facet normal 1 -0 0
    outer loop
      vertex 25.0803 0 3
      vertex 25.0803 4.79599 0
      vertex 25.0803 4.79599 3
    endloop
  endfacet
  facet normal 1 0 0
    outer loop
      vertex 25.0803 4.79599 0
      vertex 25.0803 0 3
      vertex 25.0803 0 0
    endloop
  endfacet
  facet normal 0.982837 -0.184473 0
    outer loop
      vertex 31.4113 5.41399 3
      vertex 31.5462 6.13271 0
      vertex 31.5462 6.13271 3
    endloop
  endfacet
  facet normal 0.982837 -0.184473 0
    outer loop
      vertex 31.5462 6.13271 0
      vertex 31.4113 5.41399 3
      vertex 31.4113 5.41399 0
    endloop
  endfacet
  facet normal 0.823249 -0.567681 0
    outer loop
      vertex 31.5462 6.13271 3
      vertex 31.9279 6.68625 0
      vertex 31.9279 6.68625 3
    endloop
  endfacet
  facet normal 0.823249 -0.567681 0
    outer loop
      vertex 31.9279 6.68625 0
      vertex 31.5462 6.13271 3
      vertex 31.5462 6.13271 0
    endloop
  endfacet
  facet normal 0.513827 -0.857894 0
    outer loop
      vertex 31.9279 6.68625 0
      vertex 32.5221 7.04214 3
      vertex 31.9279 6.68625 3
    endloop
  endfacet
  facet normal 0.513827 -0.857894 0
    outer loop
      vertex 32.5221 7.04214 3
      vertex 31.9279 6.68625 0
      vertex 32.5221 7.04214 0
    endloop
  endfacet
  facet normal 0.160866 -0.986976 0
    outer loop
      vertex 32.5221 7.04214 0
      vertex 33.2943 7.168 3
      vertex 32.5221 7.04214 3
    endloop
  endfacet
  facet normal 0.160866 -0.986976 0
    outer loop
      vertex 33.2943 7.168 3
      vertex 32.5221 7.04214 0
      vertex 33.2943 7.168 0
    endloop
  endfacet
  facet normal -0.154484 -0.987995 0
    outer loop
      vertex 33.2943 7.168 0
      vertex 33.9506 7.06538 3
      vertex 33.2943 7.168 3
    endloop
  endfacet
  facet normal -0.154484 -0.987995 -0
    outer loop
      vertex 33.9506 7.06538 3
      vertex 33.2943 7.168 0
      vertex 33.9506 7.06538 0
    endloop
  endfacet
  facet normal -0.546388 -0.837532 0
    outer loop
      vertex 33.9506 7.06538 0
      vertex 34.4193 6.75961 3
      vertex 33.9506 7.06538 3
    endloop
  endfacet
  facet normal -0.546388 -0.837532 -0
    outer loop
      vertex 34.4193 6.75961 3
      vertex 33.9506 7.06538 0
      vertex 34.4193 6.75961 0
    endloop
  endfacet
  facet normal -0.873949 -0.486017 0
    outer loop
      vertex 34.7006 6.25378 0
      vertex 34.4193 6.75961 3
      vertex 34.4193 6.75961 0
    endloop
  endfacet
  facet normal -0.873949 -0.486017 0
    outer loop
      vertex 34.4193 6.75961 3
      vertex 34.7006 6.25378 0
      vertex 34.7006 6.25378 3
    endloop
  endfacet
  facet normal -0.991229 -0.132156 0
    outer loop
      vertex 34.7943 5.55099 0
      vertex 34.7006 6.25378 3
      vertex 34.7006 6.25378 0
    endloop
  endfacet
  facet normal -0.991229 -0.132156 0
    outer loop
      vertex 34.7006 6.25378 3
      vertex 34.7943 5.55099 0
      vertex 34.7943 5.55099 3
    endloop
  endfacet
  facet normal -1 0 0
    outer loop
      vertex 34.7943 0 0
      vertex 34.7943 5.55099 3
      vertex 34.7943 5.55099 0
    endloop
  endfacet
  facet normal -1 -0 0
    outer loop
      vertex 34.7943 5.55099 3
      vertex 34.7943 0 0
      vertex 34.7943 0 3
    endloop
  endfacet
  facet normal 1 -0 0
    outer loop
      vertex 37.1283 0 3
      vertex 37.1283 6.03499 0
      vertex 37.1283 6.03499 3
    endloop
  endfacet
  facet normal 1 0 0
    outer loop
      vertex 37.1283 6.03499 0
      vertex 37.1283 0 3
      vertex 37.1283 0 0
    endloop
  endfacet
  facet normal 0.988576 0.15072 0
    outer loop
      vertex 37.1283 6.03499 3
      vertex 36.9265 7.3586 0
      vertex 36.9265 7.3586 3
    endloop
  endfacet
  facet normal 0.988576 0.15072 0
    outer loop
      vertex 36.9265 7.3586 0
      vertex 37.1283 6.03499 3
      vertex 37.1283 6.03499 0
    endloop
  endfacet
  facet normal 0.857225 0.514943 0
    outer loop
      vertex 36.9265 7.3586 3
      vertex 36.3387 8.33711 0
      vertex 36.3387 8.33711 3
    endloop
  endfacet
  facet normal 0.857225 0.514943 0
    outer loop
      vertex 36.3387 8.33711 0
      vertex 36.9265 7.3586 3
      vertex 36.9265 7.3586 0
    endloop
  endfacet
  facet normal 0.53933 0.842095 -0
    outer loop
      vertex 36.3387 8.33711 0
      vertex 35.3914 8.94382 3
      vertex 36.3387 8.33711 3
    endloop
  endfacet
  facet normal 0.53933 0.842095 0
    outer loop
      vertex 35.3914 8.94382 3
      vertex 36.3387 8.33711 0
      vertex 35.3914 8.94382 0
    endloop
  endfacet
  facet normal 0.160512 0.987034 -0
    outer loop
      vertex 35.3914 8.94382 0
      vertex 34.1113 9.15199 3
      vertex 35.3914 8.94382 3
    endloop
  endfacet
  facet normal 0.160512 0.987034 0
    outer loop
      vertex 34.1113 9.15199 3
      vertex 35.3914 8.94382 0
      vertex 34.1113 9.15199 0
    endloop
  endfacet
  facet normal -0.101774 0.994808 0
    outer loop
      vertex 34.1113 9.15199 0
      vertex 33.2698 9.0659 3
      vertex 34.1113 9.15199 3
    endloop
  endfacet
  facet normal -0.101774 0.994808 0
    outer loop
      vertex 33.2698 9.0659 3
      vertex 34.1113 9.15199 0
      vertex 33.2698 9.0659 0
    endloop
  endfacet
  facet normal -0.346964 0.937878 0
    outer loop
      vertex 33.2698 9.0659 0
      vertex 32.5551 8.8015 3
      vertex 33.2698 9.0659 3
    endloop
  endfacet
  facet normal -0.346964 0.937878 0
    outer loop
      vertex 32.5551 8.8015 3
      vertex 33.2698 9.0659 0
      vertex 32.5551 8.8015 0
    endloop
  endfacet
  facet normal -0.594216 0.804306 0
    outer loop
      vertex 32.5551 8.8015 0
      vertex 31.9434 8.34958 3
      vertex 32.5551 8.8015 3
    endloop
  endfacet
  facet normal -0.594216 0.804306 0
    outer loop
      vertex 31.9434 8.34958 3
      vertex 32.5551 8.8015 0
      vertex 31.9434 8.34958 0
    endloop
  endfacet
  facet normal -0.773118 0.634262 0
    outer loop
      vertex 31.4113 7.70099 0
      vertex 31.9434 8.34958 3
      vertex 31.9434 8.34958 0
    endloop
  endfacet
  facet normal -0.773118 0.634262 0
    outer loop
      vertex 31.9434 8.34958 3
      vertex 31.4113 7.70099 0
      vertex 31.4113 7.70099 3
    endloop
  endfacet
  facet normal 1 -0 0
    outer loop
      vertex 31.4113 7.70099 3
      vertex 31.4113 9.02399 0
      vertex 31.4113 9.02399 3
    endloop
  endfacet
  facet normal 1 0 0
    outer loop
      vertex 31.4113 9.02399 0
      vertex 31.4113 7.70099 3
      vertex 31.4113 7.70099 0
    endloop
  endfacet
  facet normal 0 1 -0
    outer loop
      vertex 31.4113 9.02399 0
      vertex 29.0783 9.02399 3
      vertex 31.4113 9.02399 3
    endloop
  endfacet
  facet normal 0 1 0
    outer loop
      vertex 29.0783 9.02399 3
      vertex 31.4113 9.02399 0
      vertex 29.0783 9.02399 0
    endloop
  endfacet
  facet normal -1 0 0
    outer loop
      vertex 29.0783 0 0
      vertex 29.0783 9.02399 3
      vertex 29.0783 9.02399 0
    endloop
  endfacet
  facet normal -1 -0 0
    outer loop
      vertex 29.0783 9.02399 3
      vertex 29.0783 0 0
      vertex 29.0783 0 3
    endloop
  endfacet
  facet normal 1 -0 0
    outer loop
      vertex 31.4113 0 3
      vertex 31.4113 5.41399 0
      vertex 31.4113 5.41399 3
    endloop
  endfacet
  facet normal 1 0 0
    outer loop
      vertex 31.4113 5.41399 0
      vertex 31.4113 0 3
      vertex 31.4113 0 0
    endloop
  endfacet
endsolid OpenSCAD_Model
