solid OpenSCAD_Model
  facet normal 1 -0 0
    outer loop
      vertex 135.25 -0.5 0.5
      vertex 135.25 0 0
      vertex 135.25 0 0.5
    endloop
  endfacet
  facet normal 1 0 0
    outer loop
      vertex 135.25 0 0
      vertex 135.25 -0.5 0.5
      vertex 135.25 -0.5 0
    endloop
  endfacet
  facet normal -0 0 1
    outer loop
      vertex 0 0 5
      vertex 125 -2.5 5
      vertex 125 0 5
    endloop
  endfacet
  facet normal 0 0 1
    outer loop
      vertex 125 -2.5 5
      vertex 0 0 5
      vertex 0 -2.5 5
    endloop
  endfacet
  facet normal 0 -1 0
    outer loop
      vertex 0 -5 0
      vertex 125 -5 2.5
      vertex 0 -5 2.5
    endloop
  endfacet
  facet normal 0 -1 -0
    outer loop
      vertex 125 -5 2.5
      vertex 0 -5 0
      vertex 125 -5 0
    endloop
  endfacet
  facet normal 0 1 -0
    outer loop
      vertex 14.1802 0 0
      vertex 8.41334 0 3
      vertex 14.1802 0 3
    endloop
  endfacet
  facet normal 0 1 0
    outer loop
      vertex 8.41334 0 3
      vertex 14.1802 0 0
      vertex 8.41334 0 0
    endloop
  endfacet
  facet normal 0 1 -0
    outer loop
      vertex 18.435 0 0
      vertex 17.3372 0 3
      vertex 18.435 0 3
    endloop
  endfacet
  facet normal 0 1 0
    outer loop
      vertex 17.3372 0 3
      vertex 18.435 0 0
      vertex 17.3372 0 0
    endloop
  endfacet
  facet normal 0 1 -0
    outer loop
      vertex 22.7473 0 0
      vertex 20.7679 0 3
      vertex 22.7473 0 3
    endloop
  endfacet
  facet normal 0 1 0
    outer loop
      vertex 20.7679 0 3
      vertex 22.7473 0 0
      vertex 20.7679 0 0
    endloop
  endfacet
  facet normal 0 1 -0
    outer loop
      vertex 29.0783 0 0
      vertex 25.0803 0 3
      vertex 29.0783 0 3
    endloop
  endfacet
  facet normal 0 1 0
    outer loop
      vertex 25.0803 0 3
      vertex 29.0783 0 0
      vertex 25.0803 0 0
    endloop
  endfacet
  facet normal 0 1 -0
    outer loop
      vertex 37.7302 0 0
      vertex 31.4113 0 3
      vertex 37.7302 0 3
    endloop
  endfacet
  facet normal 0 1 0
    outer loop
      vertex 31.4113 0 3
      vertex 37.7302 0 0
      vertex 31.4113 0 0
    endloop
  endfacet
  facet normal 0 1 0
    outer loop
      vertex 125 0 5
      vertex 40.1967 0 3
      vertex 0 0 5
    endloop
  endfacet
  facet normal 0 1 -0
    outer loop
      vertex 135.25 0 0
      vertex 125 0 5
      vertex 135.25 0 0.5
    endloop
  endfacet
  facet normal 0 1 0
    outer loop
      vertex 125 0 5
      vertex 135.25 0 0
      vertex 40.1967 0 0
    endloop
  endfacet
  facet normal 0 1 0
    outer loop
      vertex 125 0 5
      vertex 40.1967 0 0
      vertex 40.1967 0 3
    endloop
  endfacet
  facet normal 0 1 -0
    outer loop
      vertex 37.7302 0 3
      vertex 0 0 5
      vertex 40.1967 0 3
    endloop
  endfacet
  facet normal 0 1 -0
    outer loop
      vertex 31.4113 0 3
      vertex 0 0 5
      vertex 37.7302 0 3
    endloop
  endfacet
  facet normal 0 1 -0
    outer loop
      vertex 29.0783 0 3
      vertex 0 0 5
      vertex 31.4113 0 3
    endloop
  endfacet
  facet normal 0 1 -0
    outer loop
      vertex 25.0803 0 3
      vertex 0 0 5
      vertex 29.0783 0 3
    endloop
  endfacet
  facet normal 0 1 -0
    outer loop
      vertex 22.7473 0 3
      vertex 0 0 5
      vertex 25.0803 0 3
    endloop
  endfacet
  facet normal 0 1 -0
    outer loop
      vertex 20.7679 0 3
      vertex 0 0 5
      vertex 22.7473 0 3
    endloop
  endfacet
  facet normal 0 1 -0
    outer loop
      vertex 18.435 0 3
      vertex 0 0 5
      vertex 20.7679 0 3
    endloop
  endfacet
  facet normal 0 1 -0
    outer loop
      vertex 17.3372 0 3
      vertex 0 0 5
      vertex 18.435 0 3
    endloop
  endfacet
  facet normal 0 1 -0
    outer loop
      vertex 14.1802 0 3
      vertex 0 0 5
      vertex 17.3372 0 3
    endloop
  endfacet
  facet normal 0 1 -0
    outer loop
      vertex 8.41334 0 3
      vertex 0 0 5
      vertex 14.1802 0 3
    endloop
  endfacet
  facet normal 0 1 -0
    outer loop
      vertex 4.25432 0 3
      vertex 0 0 5
      vertex 8.41334 0 3
    endloop
  endfacet
  facet normal 0 1 0
    outer loop
      vertex 0 0 0
      vertex 4.25432 0 3
      vertex 4.25432 0 0
    endloop
  endfacet
  facet normal 0 1 0
    outer loop
      vertex 4.25432 0 3
      vertex 0 0 0
      vertex 0 0 5
    endloop
  endfacet
  facet normal -1 0 0
    outer loop
      vertex 0 0 0
      vertex 0 -2.5 2.5
      vertex 0 0 5
    endloop
  endfacet
  facet normal -1 0 0
    outer loop
      vertex 0 -5 0
      vertex 0 -2.5 2.5
      vertex 0 0 0
    endloop
  endfacet
  facet normal -1 -0 0
    outer loop
      vertex 0 -2.5 2.5
      vertex 0 -5 0
      vertex 0 -5 2.5
    endloop
  endfacet
  facet normal -1 -0 0
    outer loop
      vertex 0 0 5
      vertex 0 -2.5 2.5
      vertex 0 -2.5 5
    endloop
  endfacet
  facet normal 0.402016 -0.915632 0
    outer loop
      vertex 125 -5 0
      vertex 130.694 -2.5 2.5
      vertex 125 -5 2.5
    endloop
  endfacet
  facet normal 0.40199 -0.915644 7.14649e-05
    outer loop
      vertex 135.25 -0.5 0
      vertex 130.694 -2.5 2.5
      vertex 125 -5 0
    endloop
  endfacet
  facet normal 0.401957 -0.915658 0
    outer loop
      vertex 130.694 -2.5 2.5
      vertex 135.25 -0.5 0
      vertex 135.25 -0.5 0.5
    endloop
  endfacet
  facet normal 0 0 -1
    outer loop
      vertex 20.7679 0 0
      vertex 18.3 2.64313 0
      vertex 18.435 3.37199 0
    endloop
  endfacet
  facet normal 0 0 -1
    outer loop
      vertex 18.435 1.06599 0
      vertex 17.9183 2.08386 0
      vertex 18.3 2.64313 0
    endloop
  endfacet
  facet normal 0 0 -1
    outer loop
      vertex 17.3241 1.72542 0
      vertex 18.435 1.06599 0
      vertex 17.9028 0.417557 0
    endloop
  endfacet
  facet normal 0 0 -1
    outer loop
      vertex 17.3241 1.72542 0
      vertex 17.9028 0.417557 0
      vertex 17.3372 0 0
    endloop
  endfacet
  facet normal 0 0 -1
    outer loop
      vertex 18.435 1.06599 0
      vertex 17.3241 1.72542 0
      vertex 17.9183 2.08386 0
    endloop
  endfacet
  facet normal 0 0 -1
    outer loop
      vertex 125 -5 0
      vertex 135.25 0 0
      vertex 135.25 -0.5 0
    endloop
  endfacet
  facet normal 0 0 -1
    outer loop
      vertex 125 -5 0
      vertex 40.1967 0 0
      vertex 135.25 0 0
    endloop
  endfacet
  facet normal 0 0 -1
    outer loop
      vertex 40.1967 0 0
      vertex 37.7302 0 0
      vertex 39.0594 2.461 0
    endloop
  endfacet
  facet normal 0 0 -1
    outer loop
      vertex 0 -5 0
      vertex 40.1967 0 0
      vertex 125 -5 0
    endloop
  endfacet
  facet normal -0 0 -1
    outer loop
      vertex 40.1967 0 0
      vertex 0 -5 0
      vertex 37.7302 0 0
    endloop
  endfacet
  facet normal 0 0 -1
    outer loop
      vertex 29.0783 0 0
      vertex 31.4113 4.79599 0
      vertex 31.4113 0 0
    endloop
  endfacet
  facet normal 0 0 -1
    outer loop
      vertex 29.0783 9.02399 0
      vertex 31.4113 4.79599 0
      vertex 29.0783 0 0
    endloop
  endfacet
  facet normal 0 0 -1
    outer loop
      vertex 31.4113 4.79599 0
      vertex 29.0783 9.02399 0
      vertex 31.4113 7.23499 0
    endloop
  endfacet
  facet normal -0 0 -1
    outer loop
      vertex 37.7302 0 0
      vertex 0 -5 0
      vertex 31.4113 0 0
    endloop
  endfacet
  facet normal -0 0 -1
    outer loop
      vertex 31.4113 0 0
      vertex 0 -5 0
      vertex 29.0783 0 0
    endloop
  endfacet
  facet normal 0 0 -1
    outer loop
      vertex 22.7473 0 0
      vertex 25.0803 4.79599 0
      vertex 25.0803 0 0
    endloop
  endfacet
  facet normal 0 0 -1
    outer loop
      vertex 22.7473 9.02399 0
      vertex 25.0803 4.79599 0
      vertex 22.7473 0 0
    endloop
  endfacet
  facet normal 0 0 -1
    outer loop
      vertex 25.0803 4.79599 0
      vertex 22.7473 9.02399 0
      vertex 25.0803 7.23499 0
    endloop
  endfacet
  facet normal -0 0 -1
    outer loop
      vertex 29.0783 0 0
      vertex 0 -5 0
      vertex 25.0803 0 0
    endloop
  endfacet
  facet normal -0 0 -1
    outer loop
      vertex 25.0803 0 0
      vertex 0 -5 0
      vertex 22.7473 0 0
    endloop
  endfacet
  facet normal 0 0 -1
    outer loop
      vertex 18.435 1.06599 0
      vertex 20.7679 0 0
      vertex 18.435 0 0
    endloop
  endfacet
  facet normal -0 0 -1
    outer loop
      vertex 22.7473 0 0
      vertex 0 -5 0
      vertex 20.7679 0 0
    endloop
  endfacet
  facet normal -0 0 -1
    outer loop
      vertex 20.7679 0 0
      vertex 0 -5 0
      vertex 18.435 0 0
    endloop
  endfacet
  facet normal 0 0 -1
    outer loop
      vertex 17.3372 0 0
      vertex 16.5519 1.599 0
      vertex 17.3241 1.72542 0
    endloop
  endfacet
  facet normal 0 0 -1
    outer loop
      vertex 17.3372 0 0
      vertex 15.8957 1.69957 0
      vertex 16.5519 1.599 0
    endloop
  endfacet
  facet normal 0 0 -1
    outer loop
      vertex 14.1802 0 0
      vertex 15.8957 1.69957 0
      vertex 17.3372 0 0
    endloop
  endfacet
  facet normal -0 0 -1
    outer loop
      vertex 15.4269 2.00237 0
      vertex 12.9198 1.41023 0
      vertex 15.1457 2.50897 0
    endloop
  endfacet
  facet normal 0 0 -1
    outer loop
      vertex 12.9198 1.41023 0
      vertex 15.4269 2.00237 0
      vertex 13.5076 0.430862 0
    endloop
  endfacet
  facet normal 0 0 -1
    outer loop
      vertex 13.5076 0.430862 0
      vertex 15.4269 2.00237 0
      vertex 14.1802 0 0
    endloop
  endfacet
  facet normal -0 0 -1
    outer loop
      vertex 15.8957 1.69957 0
      vertex 14.1802 0 0
      vertex 15.4269 2.00237 0
    endloop
  endfacet
  facet normal -0 0 -1
    outer loop
      vertex 18.435 0 0
      vertex 0 -5 0
      vertex 17.3372 0 0
    endloop
  endfacet
  facet normal -0 0 -1
    outer loop
      vertex 17.3372 0 0
      vertex 0 -5 0
      vertex 14.1802 0 0
    endloop
  endfacet
  facet normal 0 0 -1
    outer loop
      vertex 8.41334 0 0
      vertex 7.35202 1.87819 0
      vertex 8.16649 2.35136 0
    endloop
  endfacet
  facet normal 0 0 -1
    outer loop
      vertex 8.41334 0 0
      vertex 6.29999 1.71599 0
      vertex 7.35202 1.87819 0
    endloop
  endfacet
  facet normal 0 0 -1
    outer loop
      vertex 4.25432 0 0
      vertex 6.29999 1.71599 0
      vertex 8.41334 0 0
    endloop
  endfacet
  facet normal -0 0 -1
    outer loop
      vertex 6.29999 1.71599 0
      vertex 4.25432 0 0
      vertex 5.00487 2.00226 0
    endloop
  endfacet
  facet normal -0 0 -1
    outer loop
      vertex 14.1802 0 0
      vertex 0 -5 0
      vertex 8.41334 0 0
    endloop
  endfacet
  facet normal -0 0 -1
    outer loop
      vertex 8.41334 0 0
      vertex 0 -5 0
      vertex 4.25432 0 0
    endloop
  endfacet
  facet normal -0 0 -1
    outer loop
      vertex 4.25432 0 0
      vertex 0 -5 0
      vertex 0 0 0
    endloop
  endfacet
  facet normal 0 0 -1
    outer loop
      vertex 39.0594 2.461 0
      vertex 43.3254 9.02399 0
      vertex 40.1967 0 0
    endloop
  endfacet
  facet normal -0 0 -1
    outer loop
      vertex 43.3254 9.02399 0
      vertex 39.0594 2.461 0
      vertex 40.9254 9.02399 0
    endloop
  endfacet
  facet normal 0 0 -1
    outer loop
      vertex 34.5094 9.02399 0
      vertex 39.0594 2.461 0
      vertex 37.7302 0 0
    endloop
  endfacet
  facet normal 0 0 -1
    outer loop
      vertex 39.0594 2.461 0
      vertex 34.5094 9.02399 0
      vertex 37.0754 9.02399 0
    endloop
  endfacet
  facet normal 0 0 -1
    outer loop
      vertex 33.9816 6.79956 0
      vertex 34.1943 9.13499 0
      vertex 34.1943 6.76799 0
    endloop
  endfacet
  facet normal -0 0 -1
    outer loop
      vertex 34.1943 9.13499 0
      vertex 33.9816 6.79956 0
      vertex 34.1034 9.14482 0
    endloop
  endfacet
  facet normal 0 0 -1
    outer loop
      vertex 33.8031 6.82024 0
      vertex 34.1034 9.14482 0
      vertex 33.9816 6.79956 0
    endloop
  endfacet
  facet normal -0 0 -1
    outer loop
      vertex 34.1034 9.14482 0
      vertex 33.8031 6.82024 0
      vertex 34.0281 9.14987 0
    endloop
  endfacet
  facet normal -0 0 -1
    outer loop
      vertex 34.0281 9.14987 0
      vertex 33.8031 6.82024 0
      vertex 33.9651 9.15173 0
    endloop
  endfacet
  facet normal -0 0 -1
    outer loop
      vertex 33.9651 9.15173 0
      vertex 33.8031 6.82024 0
      vertex 33.9113 9.15199 0
    endloop
  endfacet
  facet normal 0 0 -1
    outer loop
      vertex 33.6369 6.83156 0
      vertex 33.9113 9.15199 0
      vertex 33.8031 6.82024 0
    endloop
  endfacet
  facet normal 0 0 -1
    outer loop
      vertex 33.1409 9.02347 0
      vertex 33.6369 6.83156 0
      vertex 33.4613 6.83499 0
    endloop
  endfacet
  facet normal 0 0 -1
    outer loop
      vertex 33.6369 6.83156 0
      vertex 33.1409 9.02347 0
      vertex 33.9113 9.15199 0
    endloop
  endfacet
  facet normal 0 0 -1
    outer loop
      vertex 32.4487 8.64949 0
      vertex 33.4613 6.83499 0
      vertex 32.5643 6.70694 0
    endloop
  endfacet
  facet normal 0 0 -1
    outer loop
      vertex 33.4613 6.83499 0
      vertex 32.4487 8.64949 0
      vertex 33.1409 9.02347 0
    endloop
  endfacet
  facet normal 0 0 -1
    outer loop
      vertex 31.4113 7.23499 0
      vertex 32.5643 6.70694 0
      vertex 31.9237 6.32362 0
    endloop
  endfacet
  facet normal 0 0 -1
    outer loop
      vertex 32.5643 6.70694 0
      vertex 31.8628 8.04753 0
      vertex 32.4487 8.64949 0
    endloop
  endfacet
  facet normal 0 0 -1
    outer loop
      vertex 31.4113 7.23499 0
      vertex 31.9237 6.32362 0
      vertex 31.5394 5.68623 0
    endloop
  endfacet
  facet normal 0 0 -1
    outer loop
      vertex 31.4113 7.23499 0
      vertex 31.5394 5.68623 0
      vertex 31.4113 4.79599 0
    endloop
  endfacet
  facet normal 0 0 -1
    outer loop
      vertex 32.5643 6.70694 0
      vertex 31.4113 7.23499 0
      vertex 31.8628 8.04753 0
    endloop
  endfacet
  facet normal 0 0 -1
    outer loop
      vertex 31.4113 7.23499 0
      vertex 29.0783 9.02399 0
      vertex 31.4113 9.02399 0
    endloop
  endfacet
  facet normal 0 0 -1
    outer loop
      vertex 27.6506 6.79956 0
      vertex 27.8633 9.13499 0
      vertex 27.8633 6.76799 0
    endloop
  endfacet
  facet normal -0 0 -1
    outer loop
      vertex 27.8633 9.13499 0
      vertex 27.6506 6.79956 0
      vertex 27.7724 9.14482 0
    endloop
  endfacet
  facet normal 0 0 -1
    outer loop
      vertex 27.472 6.82024 0
      vertex 27.7724 9.14482 0
      vertex 27.6506 6.79956 0
    endloop
  endfacet
  facet normal -0 0 -1
    outer loop
      vertex 27.7724 9.14482 0
      vertex 27.472 6.82024 0
      vertex 27.697 9.14987 0
    endloop
  endfacet
  facet normal -0 0 -1
    outer loop
      vertex 27.697 9.14987 0
      vertex 27.472 6.82024 0
      vertex 27.634 9.15173 0
    endloop
  endfacet
  facet normal -0 0 -1
    outer loop
      vertex 27.634 9.15173 0
      vertex 27.472 6.82024 0
      vertex 27.5803 9.15199 0
    endloop
  endfacet
  facet normal 0 0 -1
    outer loop
      vertex 27.3058 6.83156 0
      vertex 27.5803 9.15199 0
      vertex 27.472 6.82024 0
    endloop
  endfacet
  facet normal 0 0 -1
    outer loop
      vertex 26.8098 9.02347 0
      vertex 27.3058 6.83156 0
      vertex 27.1303 6.83499 0
    endloop
  endfacet
  facet normal 0 0 -1
    outer loop
      vertex 27.3058 6.83156 0
      vertex 26.8098 9.02347 0
      vertex 27.5803 9.15199 0
    endloop
  endfacet
  facet normal 0 0 -1
    outer loop
      vertex 26.1176 8.64949 0
      vertex 27.1303 6.83499 0
      vertex 26.2332 6.70694 0
    endloop
  endfacet
  facet normal 0 0 -1
    outer loop
      vertex 27.1303 6.83499 0
      vertex 26.1176 8.64949 0
      vertex 26.8098 9.02347 0
    endloop
  endfacet
  facet normal 0 0 -1
    outer loop
      vertex 25.0803 7.23499 0
      vertex 26.2332 6.70694 0
      vertex 25.5926 6.32362 0
    endloop
  endfacet
  facet normal 0 0 -1
    outer loop
      vertex 26.2332 6.70694 0
      vertex 25.5318 8.04753 0
      vertex 26.1176 8.64949 0
    endloop
  endfacet
  facet normal 0 0 -1
    outer loop
      vertex 25.0803 7.23499 0
      vertex 25.5926 6.32362 0
      vertex 25.2083 5.68623 0
    endloop
  endfacet
  facet normal 0 0 -1
    outer loop
      vertex 25.0803 7.23499 0
      vertex 25.2083 5.68623 0
      vertex 25.0803 4.79599 0
    endloop
  endfacet
  facet normal 0 0 -1
    outer loop
      vertex 26.2332 6.70694 0
      vertex 25.0803 7.23499 0
      vertex 25.5318 8.04753 0
    endloop
  endfacet
  facet normal 0 0 -1
    outer loop
      vertex 25.0803 7.23499 0
      vertex 22.7473 9.02399 0
      vertex 25.0803 9.02399 0
    endloop
  endfacet
  facet normal 0 0 -1
    outer loop
      vertex 18.3 2.64313 0
      vertex 20.7679 0 0
      vertex 18.435 1.06599 0
    endloop
  endfacet
  facet normal 0 0 -1
    outer loop
      vertex 20.7679 0 0
      vertex 18.435 3.37199 0
      vertex 20.7679 9.02399 0
    endloop
  endfacet
  facet normal -0 0 -1
    outer loop
      vertex 20.7679 9.02399 0
      vertex 18.435 3.37199 0
      vertex 18.435 9.02399 0
    endloop
  endfacet
  facet normal 0 0 -1
    outer loop
      vertex 12.7179 2.73599 0
      vertex 15.1457 2.50897 0
      vertex 12.9198 1.41023 0
    endloop
  endfacet
  facet normal 0 0 -1
    outer loop
      vertex 15.1457 2.50897 0
      vertex 12.7179 2.73599 0
      vertex 15.0519 3.22099 0
    endloop
  endfacet
  facet normal 0 0 -1
    outer loop
      vertex 12.7179 9.02399 0
      vertex 15.0519 3.22099 0
      vertex 12.7179 2.73599 0
    endloop
  endfacet
  facet normal 0 0 -1
    outer loop
      vertex 15.0519 3.22099 0
      vertex 12.7179 9.02399 0
      vertex 15.0519 9.02399 0
    endloop
  endfacet
  facet normal 0 0 -1
    outer loop
      vertex 8.71846 3.11536 0
      vertex 10.9671 2.26706 0
      vertex 9.89961 0.838989 0
    endloop
  endfacet
  facet normal 0 -0 -1
    outer loop
      vertex 8.98299 4.14999 0
      vertex 10.9671 2.26706 0
      vertex 8.71846 3.11536 0
    endloop
  endfacet
  facet normal 0 0 -1
    outer loop
      vertex 10.9671 2.26706 0
      vertex 8.98299 4.14999 0
      vertex 11.416 4.14999 0
    endloop
  endfacet
  facet normal 0 0 -1
    outer loop
      vertex 8.16649 2.35136 0
      vertex 9.89961 0.838989 0
      vertex 8.41334 0 0
    endloop
  endfacet
  facet normal 0 0 -1
    outer loop
      vertex 9.89961 0.838989 0
      vertex 8.16649 2.35136 0
      vertex 8.71846 3.11536 0
    endloop
  endfacet
  facet normal 0 0 -1
    outer loop
      vertex 3.94641 0.0597534 0
      vertex 5.00487 2.00226 0
      vertex 4.25432 0 0
    endloop
  endfacet
  facet normal -0 0 -1
    outer loop
      vertex 5.00487 2.00226 0
      vertex 3.94641 0.0597534 0
      vertex 4.04124 2.83087 0
    endloop
  endfacet
  facet normal 0 0 -1
    outer loop
      vertex 2.21437 1.32861 0
      vertex 4.04124 2.83087 0
      vertex 3.94641 0.0597534 0
    endloop
  endfacet
  facet normal 0 0 -1
    outer loop
      vertex 0.732986 5.967 0
      vertex 3.23299 5.93399 0
      vertex 3.44025 4.15654 0
    endloop
  endfacet
  facet normal 0 0 -1
    outer loop
      vertex 1.11664 3.32892 0
      vertex 4.04124 2.83087 0
      vertex 2.21437 1.32861 0
    endloop
  endfacet
  facet normal 0 0 -1
    outer loop
      vertex 4.04124 2.83087 0
      vertex 1.11664 3.32892 0
      vertex 3.44025 4.15654 0
    endloop
  endfacet
  facet normal 0 0 -1
    outer loop
      vertex 3.23299 5.93399 0
      vertex 0.732986 5.967 0
      vertex 1.11993 8.6243 0
    endloop
  endfacet
  facet normal -0 0 -1
    outer loop
      vertex 3.44025 4.15654 0
      vertex 1.11664 3.32892 0
      vertex 0.732986 5.967 0
    endloop
  endfacet
  facet normal 0 0 -1
    outer loop
      vertex 3.23299 5.93399 0
      vertex 1.11993 8.6243 0
      vertex 2.22874 10.6347 0
    endloop
  endfacet
  facet normal 0 0 -1
    outer loop
      vertex 8.98299 8.034 0
      vertex 11.276 8.75635 0
      vertex 11.366 8.034 0
    endloop
  endfacet
  facet normal 0 0 -1
    outer loop
      vertex 8.87132 8.46452 0
      vertex 11.276 8.75635 0
      vertex 8.98299 8.034 0
    endloop
  endfacet
  facet normal 0 0 -1
    outer loop
      vertex 8.75186 8.80299 0
      vertex 11.1204 9.37212 0
      vertex 8.87132 8.46452 0
    endloop
  endfacet
  facet normal -0 0 -1
    outer loop
      vertex 11.1204 9.37212 0
      vertex 8.75186 8.80299 0
      vertex 10.8835 9.91907 0
    endloop
  endfacet
  facet normal -0 0 -1
    outer loop
      vertex 11.276 8.75635 0
      vertex 8.87132 8.46452 0
      vertex 11.1204 9.37212 0
    endloop
  endfacet
  facet normal 0 0 -1
    outer loop
      vertex 8.61047 9.08221 0
      vertex 10.8835 9.91907 0
      vertex 8.75186 8.80299 0
    endloop
  endfacet
  facet normal -0 0 -1
    outer loop
      vertex 10.8835 9.91907 0
      vertex 8.61047 9.08221 0
      vertex 10.55 10.435 0
    endloop
  endfacet
  facet normal 0 0 -1
    outer loop
      vertex 8.433 9.33499 0
      vertex 10.55 10.435 0
      vertex 8.61047 9.08221 0
    endloop
  endfacet
  facet normal -0 0 -1
    outer loop
      vertex 10.55 10.435 0
      vertex 8.433 9.33499 0
      vertex 9.74727 11.2547 0
    endloop
  endfacet
  facet normal 0 0 -1
    outer loop
      vertex 8.03758 9.71892 0
      vertex 9.74727 11.2547 0
      vertex 8.433 9.33499 0
    endloop
  endfacet
  facet normal -0 0 -1
    outer loop
      vertex 9.74727 11.2547 0
      vertex 8.03758 9.71892 0
      vertex 8.75574 11.8559 0
    endloop
  endfacet
  facet normal 0 0 -1
    outer loop
      vertex 7.558 9.99512 0
      vertex 8.75574 11.8559 0
      vertex 8.03758 9.71892 0
    endloop
  endfacet
  facet normal -0 0 -1
    outer loop
      vertex 8.75574 11.8559 0
      vertex 7.558 9.99512 0
      vertex 7.59883 12.2258 0
    endloop
  endfacet
  facet normal 0 0 -1
    outer loop
      vertex 7.0034 10.162 0
      vertex 7.59883 12.2258 0
      vertex 7.558 9.99512 0
    endloop
  endfacet
  facet normal 0 0 -1
    outer loop
      vertex 6.29999 12.352 0
      vertex 7.0034 10.162 0
      vertex 6.383 10.218 0
    endloop
  endfacet
  facet normal 0 0 -1
    outer loop
      vertex 7.0034 10.162 0
      vertex 6.29999 12.352 0
      vertex 7.59883 12.2258 0
    endloop
  endfacet
  facet normal 0 0 -1
    outer loop
      vertex 5.06097 9.92606 0
      vertex 6.29999 12.352 0
      vertex 6.383 10.218 0
    endloop
  endfacet
  facet normal 0 0 -1
    outer loop
      vertex 3.98143 11.9076 0
      vertex 5.06097 9.92606 0
      vertex 4.07037 9.08249 0
    endloop
  endfacet
  facet normal 0 0 -1
    outer loop
      vertex 5.06097 9.92606 0
      vertex 3.98143 11.9076 0
      vertex 6.29999 12.352 0
    endloop
  endfacet
  facet normal 0 0 -1
    outer loop
      vertex 2.22874 10.6347 0
      vertex 4.07037 9.08249 0
      vertex 3.44858 7.73569 0
    endloop
  endfacet
  facet normal 0 0 -1
    outer loop
      vertex 4.07037 9.08249 0
      vertex 2.22874 10.6347 0
      vertex 3.98143 11.9076 0
    endloop
  endfacet
  facet normal 0 0 -1
    outer loop
      vertex 2.22874 10.6347 0
      vertex 3.44858 7.73569 0
      vertex 3.23299 5.93399 0
    endloop
  endfacet
  facet normal 0.401957 0 0.915658
    outer loop
      vertex 135.25 0 0.5
      vertex 130.694 -2.5 2.5
      vertex 135.25 -0.5 0.5
    endloop
  endfacet
  facet normal 0.40199 -7.14649e-05 0.915644
    outer loop
      vertex 125 0 5
      vertex 130.694 -2.5 2.5
      vertex 135.25 0 0.5
    endloop
  endfacet
  facet normal 0.402016 0 0.915632
    outer loop
      vertex 130.694 -2.5 2.5
      vertex 125 0 5
      vertex 125 -2.5 5
    endloop
  endfacet
  facet normal 0 0 1
    outer loop
      vertex 35.7924 -2.5 2.5
      vertex 0 -2.5 2.5
      vertex 35.7924 -3.58199 2.5
    endloop
  endfacet
  facet normal -0 0 1
    outer loop
      vertex 39.2485 -2.5 2.5
      vertex 125 -5 2.5
      vertex 130.694 -2.5 2.5
    endloop
  endfacet
  facet normal -0 0 1
    outer loop
      vertex 39.0675 -2.80649 2.5
      vertex 125 -5 2.5
      vertex 39.2485 -2.5 2.5
    endloop
  endfacet
  facet normal -0 0 1
    outer loop
      vertex 38.7354 -3.13412 2.5
      vertex 125 -5 2.5
      vertex 39.0675 -2.80649 2.5
    endloop
  endfacet
  facet normal -0 0 1
    outer loop
      vertex 38.3094 -3.36499 2.5
      vertex 125 -5 2.5
      vertex 38.7354 -3.13412 2.5
    endloop
  endfacet
  facet normal -0 0 1
    outer loop
      vertex 37.9596 -3.47966 2.5
      vertex 125 -5 2.5
      vertex 38.3094 -3.36499 2.5
    endloop
  endfacet
  facet normal -0 0 1
    outer loop
      vertex 37.5364 -3.56912 2.5
      vertex 125 -5 2.5
      vertex 37.9596 -3.47966 2.5
    endloop
  endfacet
  facet normal -0 0 1
    outer loop
      vertex 37.0786 -3.62726 2.5
      vertex 125 -5 2.5
      vertex 37.5364 -3.56912 2.5
    endloop
  endfacet
  facet normal -0 0 1
    outer loop
      vertex 36.6254 -3.64799 2.5
      vertex 125 -5 2.5
      vertex 37.0786 -3.62726 2.5
    endloop
  endfacet
  facet normal 0 0 1
    outer loop
      vertex 0 -5 2.5
      vertex 35.7924 -3.58199 2.5
      vertex 0 -2.5 2.5
    endloop
  endfacet
  facet normal 0 0 1
    outer loop
      vertex 35.7924 -3.58199 2.5
      vertex 0 -5 2.5
      vertex 36.0304 -3.6134 2.5
    endloop
  endfacet
  facet normal 0 0 1
    outer loop
      vertex 36.0304 -3.6134 2.5
      vertex 0 -5 2.5
      vertex 36.234 -3.63374 2.5
    endloop
  endfacet
  facet normal 0 0 1
    outer loop
      vertex 36.6254 -3.64799 2.5
      vertex 0 -5 2.5
      vertex 125 -5 2.5
    endloop
  endfacet
  facet normal 0 0 1
    outer loop
      vertex 36.425 -3.64471 2.5
      vertex 0 -5 2.5
      vertex 36.6254 -3.64799 2.5
    endloop
  endfacet
  facet normal 0 0 1
    outer loop
      vertex 36.234 -3.63374 2.5
      vertex 0 -5 2.5
      vertex 36.425 -3.64471 2.5
    endloop
  endfacet
  facet normal 0 -1 0
    outer loop
      vertex 39.2485 -2.5 3
      vertex 0 -2.5 5
      vertex 35.7924 -2.5 3
    endloop
  endfacet
  facet normal 0 -1 0
    outer loop
      vertex 0 -2.5 2.5
      vertex 35.7924 -2.5 3
      vertex 0 -2.5 5
    endloop
  endfacet
  facet normal 0 -1 -0
    outer loop
      vertex 35.7924 -2.5 3
      vertex 0 -2.5 2.5
      vertex 35.7924 -2.5 2.5
    endloop
  endfacet
  facet normal 0 -1 0
    outer loop
      vertex 0 -2.5 5
      vertex 39.2485 -2.5 3
      vertex 125 -2.5 5
    endloop
  endfacet
  facet normal 0 -1 0
    outer loop
      vertex 39.2485 -2.5 2.5
      vertex 125 -2.5 5
      vertex 39.2485 -2.5 3
    endloop
  endfacet
  facet normal 0 -1 -0
    outer loop
      vertex 125 -2.5 5
      vertex 39.2485 -2.5 2.5
      vertex 130.694 -2.5 2.5
    endloop
  endfacet
  facet normal 0 0 1
    outer loop
      vertex 8.87132 8.46452 3
      vertex 11.276 8.75635 3
      vertex 11.1204 9.37212 3
    endloop
  endfacet
  facet normal 0 0 1
    outer loop
      vertex 8.75186 8.80299 3
      vertex 11.1204 9.37212 3
      vertex 10.8835 9.91907 3
    endloop
  endfacet
  facet normal 0 0 1
    outer loop
      vertex 8.61047 9.08221 3
      vertex 10.8835 9.91907 3
      vertex 10.55 10.435 3
    endloop
  endfacet
  facet normal 0 0 1
    outer loop
      vertex 8.433 9.33499 3
      vertex 10.55 10.435 3
      vertex 9.74727 11.2547 3
    endloop
  endfacet
  facet normal 0 0 1
    outer loop
      vertex 11.1204 9.37212 3
      vertex 8.75186 8.80299 3
      vertex 8.87132 8.46452 3
    endloop
  endfacet
  facet normal 0 0 1
    outer loop
      vertex 11.276 8.75635 3
      vertex 8.98299 8.034 3
      vertex 11.366 8.034 3
    endloop
  endfacet
  facet normal 0 0 1
    outer loop
      vertex 8.03758 9.71892 3
      vertex 9.74727 11.2547 3
      vertex 8.75574 11.8559 3
    endloop
  endfacet
  facet normal 0 0 1
    outer loop
      vertex 11.276 8.75635 3
      vertex 8.87132 8.46452 3
      vertex 8.98299 8.034 3
    endloop
  endfacet
  facet normal 0 0 1
    outer loop
      vertex 10.8835 9.91907 3
      vertex 8.61047 9.08221 3
      vertex 8.75186 8.80299 3
    endloop
  endfacet
  facet normal 0 0 1
    outer loop
      vertex 10.55 10.435 3
      vertex 8.433 9.33499 3
      vertex 8.61047 9.08221 3
    endloop
  endfacet
  facet normal 0 0 1
    outer loop
      vertex 9.74727 11.2547 3
      vertex 8.03758 9.71892 3
      vertex 8.433 9.33499 3
    endloop
  endfacet
  facet normal 0 0 1
    outer loop
      vertex 7.558 9.99512 3
      vertex 8.75574 11.8559 3
      vertex 7.59883 12.2258 3
    endloop
  endfacet
  facet normal 0 0 1
    outer loop
      vertex 8.75574 11.8559 3
      vertex 7.558 9.99512 3
      vertex 8.03758 9.71892 3
    endloop
  endfacet
  facet normal 0 0 1
    outer loop
      vertex 7.59883 12.2258 3
      vertex 7.0034 10.162 3
      vertex 7.558 9.99512 3
    endloop
  endfacet
  facet normal 0 0 1
    outer loop
      vertex 6.29999 12.352 3
      vertex 7.0034 10.162 3
      vertex 7.59883 12.2258 3
    endloop
  endfacet
  facet normal 0 0 1
    outer loop
      vertex 7.0034 10.162 3
      vertex 6.29999 12.352 3
      vertex 6.383 10.218 3
    endloop
  endfacet
  facet normal 0 0 1
    outer loop
      vertex 6.29999 12.352 3
      vertex 5.06097 9.92606 3
      vertex 6.383 10.218 3
    endloop
  endfacet
  facet normal -0 0 1
    outer loop
      vertex 3.98143 11.9076 3
      vertex 5.06097 9.92606 3
      vertex 6.29999 12.352 3
    endloop
  endfacet
  facet normal 0 0 1
    outer loop
      vertex 5.06097 9.92606 3
      vertex 3.98143 11.9076 3
      vertex 4.07037 9.08249 3
    endloop
  endfacet
  facet normal -0 0 1
    outer loop
      vertex 2.22874 10.6347 3
      vertex 4.07037 9.08249 3
      vertex 3.98143 11.9076 3
    endloop
  endfacet
  facet normal 0 0 1
    outer loop
      vertex 4.07037 9.08249 3
      vertex 1.11993 8.6243 3
      vertex 3.44858 7.73569 3
    endloop
  endfacet
  facet normal 0 0 1
    outer loop
      vertex 1.11993 8.6243 3
      vertex 4.07037 9.08249 3
      vertex 2.22874 10.6347 3
    endloop
  endfacet
  facet normal -0 0 1
    outer loop
      vertex 8.98299 4.14999 3
      vertex 10.9671 2.26706 3
      vertex 11.416 4.14999 3
    endloop
  endfacet
  facet normal 0 0 1
    outer loop
      vertex 10.9671 2.26706 3
      vertex 8.98299 4.14999 3
      vertex 8.71846 3.11536 3
    endloop
  endfacet
  facet normal 0 0 1
    outer loop
      vertex 10.9671 2.26706 3
      vertex 8.71846 3.11536 3
      vertex 9.89961 0.838989 3
    endloop
  endfacet
  facet normal -0 0 1
    outer loop
      vertex 8.16649 2.35136 3
      vertex 9.89961 0.838989 3
      vertex 8.71846 3.11536 3
    endloop
  endfacet
  facet normal 0 0 1
    outer loop
      vertex 9.89961 0.838989 3
      vertex 8.16649 2.35136 3
      vertex 8.41334 0 3
    endloop
  endfacet
  facet normal -0 0 1
    outer loop
      vertex 7.35202 1.87819 3
      vertex 8.41334 0 3
      vertex 8.16649 2.35136 3
    endloop
  endfacet
  facet normal -0 0 1
    outer loop
      vertex 6.29999 1.71599 3
      vertex 8.41334 0 3
      vertex 7.35202 1.87819 3
    endloop
  endfacet
  facet normal 0 0 1
    outer loop
      vertex 4.25432 0 3
      vertex 6.29999 1.71599 3
      vertex 5.00487 2.00226 3
    endloop
  endfacet
  facet normal 0 0 1
    outer loop
      vertex 6.29999 1.71599 3
      vertex 4.25432 0 3
      vertex 8.41334 0 3
    endloop
  endfacet
  facet normal 0 0 1
    outer loop
      vertex 3.94641 0.0597534 3
      vertex 5.00487 2.00226 3
      vertex 4.04124 2.83087 3
    endloop
  endfacet
  facet normal 0 0 1
    outer loop
      vertex 5.00487 2.00226 3
      vertex 3.94641 0.0597534 3
      vertex 4.25432 0 3
    endloop
  endfacet
  facet normal -0 0 1
    outer loop
      vertex 1.11664 3.32892 3
      vertex 4.04124 2.83087 3
      vertex 3.44025 4.15654 3
    endloop
  endfacet
  facet normal 0 0 1
    outer loop
      vertex 0.732986 5.967 3
      vertex 3.44858 7.73569 3
      vertex 1.11993 8.6243 3
    endloop
  endfacet
  facet normal 0 0 1
    outer loop
      vertex 3.44858 7.73569 3
      vertex 0.732986 5.967 3
      vertex 3.23299 5.93399 3
    endloop
  endfacet
  facet normal 0 -0 1
    outer loop
      vertex 1.11664 3.32892 3
      vertex 3.44025 4.15654 3
      vertex 0.732986 5.967 3
    endloop
  endfacet
  facet normal 0 0 1
    outer loop
      vertex 3.23299 5.93399 3
      vertex 0.732986 5.967 3
      vertex 3.44025 4.15654 3
    endloop
  endfacet
  facet normal 0 0 1
    outer loop
      vertex 4.04124 2.83087 3
      vertex 1.11664 3.32892 3
      vertex 2.21437 1.32861 3
    endloop
  endfacet
  facet normal 0 0 1
    outer loop
      vertex 4.04124 2.83087 3
      vertex 2.21437 1.32861 3
      vertex 3.94641 0.0597534 3
    endloop
  endfacet
  facet normal -0 0 1
    outer loop
      vertex 22.7473 9.02399 3
      vertex 25.0803 7.23499 3
      vertex 25.0803 9.02399 3
    endloop
  endfacet
  facet normal 0 0 1
    outer loop
      vertex 25.0803 7.23499 3
      vertex 22.7473 9.02399 3
      vertex 25.0803 4.79599 3
    endloop
  endfacet
  facet normal 0 0 1
    outer loop
      vertex 22.7473 0 3
      vertex 25.0803 4.79599 3
      vertex 22.7473 9.02399 3
    endloop
  endfacet
  facet normal 0 0 1
    outer loop
      vertex 25.0803 4.79599 3
      vertex 22.7473 0 3
      vertex 25.0803 0 3
    endloop
  endfacet
  facet normal 0 0 1
    outer loop
      vertex 27.6506 6.79956 3
      vertex 27.8633 9.13499 3
      vertex 27.7724 9.14482 3
    endloop
  endfacet
  facet normal 0 0 1
    outer loop
      vertex 27.472 6.82024 3
      vertex 27.7724 9.14482 3
      vertex 27.697 9.14987 3
    endloop
  endfacet
  facet normal 0 0 1
    outer loop
      vertex 27.8633 9.13499 3
      vertex 27.6506 6.79956 3
      vertex 27.8633 6.76799 3
    endloop
  endfacet
  facet normal 0 0 1
    outer loop
      vertex 27.472 6.82024 3
      vertex 27.697 9.14987 3
      vertex 27.634 9.15173 3
    endloop
  endfacet
  facet normal 0 0 1
    outer loop
      vertex 27.472 6.82024 3
      vertex 27.634 9.15173 3
      vertex 27.5803 9.15199 3
    endloop
  endfacet
  facet normal 0 0 1
    outer loop
      vertex 27.7724 9.14482 3
      vertex 27.472 6.82024 3
      vertex 27.6506 6.79956 3
    endloop
  endfacet
  facet normal 0 0 1
    outer loop
      vertex 27.5803 9.15199 3
      vertex 27.3058 6.83156 3
      vertex 27.472 6.82024 3
    endloop
  endfacet
  facet normal -0 0 1
    outer loop
      vertex 26.8098 9.02347 3
      vertex 27.3058 6.83156 3
      vertex 27.5803 9.15199 3
    endloop
  endfacet
  facet normal 0 0 1
    outer loop
      vertex 27.3058 6.83156 3
      vertex 26.8098 9.02347 3
      vertex 27.1303 6.83499 3
    endloop
  endfacet
  facet normal -0 0 1
    outer loop
      vertex 26.1176 8.64949 3
      vertex 27.1303 6.83499 3
      vertex 26.8098 9.02347 3
    endloop
  endfacet
  facet normal 0 0 1
    outer loop
      vertex 27.1303 6.83499 3
      vertex 26.1176 8.64949 3
      vertex 26.2332 6.70694 3
    endloop
  endfacet
  facet normal -0 0 1
    outer loop
      vertex 25.5318 8.04753 3
      vertex 26.2332 6.70694 3
      vertex 26.1176 8.64949 3
    endloop
  endfacet
  facet normal -0 0 1
    outer loop
      vertex 25.0803 7.23499 3
      vertex 26.2332 6.70694 3
      vertex 25.5318 8.04753 3
    endloop
  endfacet
  facet normal 0 0 1
    outer loop
      vertex 26.2332 6.70694 3
      vertex 25.0803 7.23499 3
      vertex 25.5926 6.32362 3
    endloop
  endfacet
  facet normal 0 0 1
    outer loop
      vertex 25.5926 6.32362 3
      vertex 25.0803 7.23499 3
      vertex 25.2083 5.68623 3
    endloop
  endfacet
  facet normal 0 0 1
    outer loop
      vertex 25.2083 5.68623 3
      vertex 25.0803 7.23499 3
      vertex 25.0803 4.79599 3
    endloop
  endfacet
  facet normal -0 0 1
    outer loop
      vertex 29.0783 9.02399 3
      vertex 31.4113 7.23499 3
      vertex 31.4113 9.02399 3
    endloop
  endfacet
  facet normal 0 0 1
    outer loop
      vertex 31.4113 7.23499 3
      vertex 29.0783 9.02399 3
      vertex 31.4113 4.79599 3
    endloop
  endfacet
  facet normal 0 0 1
    outer loop
      vertex 29.0783 0 3
      vertex 31.4113 4.79599 3
      vertex 29.0783 9.02399 3
    endloop
  endfacet
  facet normal 0 0 1
    outer loop
      vertex 31.4113 4.79599 3
      vertex 29.0783 0 3
      vertex 31.4113 0 3
    endloop
  endfacet
  facet normal 0 0 1
    outer loop
      vertex 33.9816 6.79956 3
      vertex 34.1943 9.13499 3
      vertex 34.1034 9.14482 3
    endloop
  endfacet
  facet normal 0 0 1
    outer loop
      vertex 33.8031 6.82024 3
      vertex 34.1034 9.14482 3
      vertex 34.0281 9.14987 3
    endloop
  endfacet
  facet normal 0 0 1
    outer loop
      vertex 34.1943 9.13499 3
      vertex 33.9816 6.79956 3
      vertex 34.1943 6.76799 3
    endloop
  endfacet
  facet normal 0 0 1
    outer loop
      vertex 33.8031 6.82024 3
      vertex 34.0281 9.14987 3
      vertex 33.9651 9.15173 3
    endloop
  endfacet
  facet normal 0 0 1
    outer loop
      vertex 33.8031 6.82024 3
      vertex 33.9651 9.15173 3
      vertex 33.9113 9.15199 3
    endloop
  endfacet
  facet normal 0 0 1
    outer loop
      vertex 34.1034 9.14482 3
      vertex 33.8031 6.82024 3
      vertex 33.9816 6.79956 3
    endloop
  endfacet
  facet normal 0 0 1
    outer loop
      vertex 33.9113 9.15199 3
      vertex 33.6369 6.83156 3
      vertex 33.8031 6.82024 3
    endloop
  endfacet
  facet normal -0 0 1
    outer loop
      vertex 33.1409 9.02347 3
      vertex 33.6369 6.83156 3
      vertex 33.9113 9.15199 3
    endloop
  endfacet
  facet normal 0 0 1
    outer loop
      vertex 33.6369 6.83156 3
      vertex 33.1409 9.02347 3
      vertex 33.4613 6.83499 3
    endloop
  endfacet
  facet normal -0 0 1
    outer loop
      vertex 32.4487 8.64949 3
      vertex 33.4613 6.83499 3
      vertex 33.1409 9.02347 3
    endloop
  endfacet
  facet normal 0 0 1
    outer loop
      vertex 33.4613 6.83499 3
      vertex 32.4487 8.64949 3
      vertex 32.5643 6.70694 3
    endloop
  endfacet
  facet normal -0 0 1
    outer loop
      vertex 31.8628 8.04753 3
      vertex 32.5643 6.70694 3
      vertex 32.4487 8.64949 3
    endloop
  endfacet
  facet normal -0 0 1
    outer loop
      vertex 31.4113 7.23499 3
      vertex 32.5643 6.70694 3
      vertex 31.8628 8.04753 3
    endloop
  endfacet
  facet normal 0 0 1
    outer loop
      vertex 32.5643 6.70694 3
      vertex 31.4113 7.23499 3
      vertex 31.9237 6.32362 3
    endloop
  endfacet
  facet normal 0 0 1
    outer loop
      vertex 31.9237 6.32362 3
      vertex 31.4113 7.23499 3
      vertex 31.5394 5.68623 3
    endloop
  endfacet
  facet normal 0 0 1
    outer loop
      vertex 31.5394 5.68623 3
      vertex 31.4113 7.23499 3
      vertex 31.4113 4.79599 3
    endloop
  endfacet
  facet normal -0 0 1
    outer loop
      vertex 12.7179 9.02399 3
      vertex 15.0519 3.22099 3
      vertex 15.0519 9.02399 3
    endloop
  endfacet
  facet normal 0 -0 1
    outer loop
      vertex 12.9198 1.41023 3
      vertex 15.0519 3.22099 3
      vertex 12.7179 2.73599 3
    endloop
  endfacet
  facet normal 0 -0 1
    outer loop
      vertex 13.5076 0.430862 3
      vertex 15.0519 3.22099 3
      vertex 12.9198 1.41023 3
    endloop
  endfacet
  facet normal 0 0 1
    outer loop
      vertex 15.0519 3.22099 3
      vertex 12.7179 9.02399 3
      vertex 12.7179 2.73599 3
    endloop
  endfacet
  facet normal 0 0 1
    outer loop
      vertex 15.0519 3.22099 3
      vertex 13.5076 0.430862 3
      vertex 14.1802 0 3
    endloop
  endfacet
  facet normal 0 0 1
    outer loop
      vertex 20.7679 0 3
      vertex 18.3 2.64313 3
      vertex 18.435 1.06599 3
    endloop
  endfacet
  facet normal -0 0 1
    outer loop
      vertex 17.9183 2.08386 3
      vertex 18.435 1.06599 3
      vertex 18.3 2.64313 3
    endloop
  endfacet
  facet normal -0 0 1
    outer loop
      vertex 17.3241 1.72542 3
      vertex 18.435 1.06599 3
      vertex 17.9183 2.08386 3
    endloop
  endfacet
  facet normal 0 0 1
    outer loop
      vertex 18.435 1.06599 3
      vertex 17.3241 1.72542 3
      vertex 17.9028 0.417557 3
    endloop
  endfacet
  facet normal 0 0 1
    outer loop
      vertex 17.9028 0.417557 3
      vertex 17.3241 1.72542 3
      vertex 17.3372 0 3
    endloop
  endfacet
  facet normal -0 0 1
    outer loop
      vertex 16.5519 1.599 3
      vertex 17.3372 0 3
      vertex 17.3241 1.72542 3
    endloop
  endfacet
  facet normal 0 0 1
    outer loop
      vertex 15.8957 1.69957 3
      vertex 17.3372 0 3
      vertex 16.5519 1.599 3
    endloop
  endfacet
  facet normal 0 0 1
    outer loop
      vertex 14.1802 0 3
      vertex 15.8957 1.69957 3
      vertex 15.4269 2.00237 3
    endloop
  endfacet
  facet normal 0 0 1
    outer loop
      vertex 15.8957 1.69957 3
      vertex 14.1802 0 3
      vertex 17.3372 0 3
    endloop
  endfacet
  facet normal 0 0 1
    outer loop
      vertex 15.1457 2.50897 3
      vertex 14.1802 0 3
      vertex 15.4269 2.00237 3
    endloop
  endfacet
  facet normal 0 0 1
    outer loop
      vertex 14.1802 0 3
      vertex 15.1457 2.50897 3
      vertex 15.0519 3.22099 3
    endloop
  endfacet
  facet normal 0 0 1
    outer loop
      vertex 18.435 3.37199 3
      vertex 20.7679 9.02399 3
      vertex 18.435 9.02399 3
    endloop
  endfacet
  facet normal 0 0 1
    outer loop
      vertex 20.7679 9.02399 3
      vertex 18.435 3.37199 3
      vertex 20.7679 0 3
    endloop
  endfacet
  facet normal -0 0 1
    outer loop
      vertex 18.3 2.64313 3
      vertex 20.7679 0 3
      vertex 18.435 3.37199 3
    endloop
  endfacet
  facet normal 0 0 1
    outer loop
      vertex 20.7679 0 3
      vertex 18.435 1.06599 3
      vertex 18.435 0 3
    endloop
  endfacet
  facet normal 0 0 1
    outer loop
      vertex 39.2485 -2.5 3
      vertex 38.7354 -3.13412 3
      vertex 39.0675 -2.80649 3
    endloop
  endfacet
  facet normal 0 0 1
    outer loop
      vertex 39.2485 -2.5 3
      vertex 38.3094 -3.36499 3
      vertex 38.7354 -3.13412 3
    endloop
  endfacet
  facet normal 0 0 1
    outer loop
      vertex 39.2485 -2.5 3
      vertex 37.9596 -3.47966 3
      vertex 38.3094 -3.36499 3
    endloop
  endfacet
  facet normal -0 0 1
    outer loop
      vertex 35.7924 -2.5 3
      vertex 37.9596 -3.47966 3
      vertex 39.2485 -2.5 3
    endloop
  endfacet
  facet normal 0 0 1
    outer loop
      vertex 37.9596 -3.47966 3
      vertex 35.7924 -2.5 3
      vertex 37.5364 -3.56912 3
    endloop
  endfacet
  facet normal 0 0 1
    outer loop
      vertex 37.5364 -3.56912 3
      vertex 35.7924 -2.5 3
      vertex 37.0786 -3.62726 3
    endloop
  endfacet
  facet normal 0 0 1
    outer loop
      vertex 37.0786 -3.62726 3
      vertex 35.7924 -2.5 3
      vertex 36.6254 -3.64799 3
    endloop
  endfacet
  facet normal 0 0 1
    outer loop
      vertex 36.6254 -3.64799 3
      vertex 35.7924 -2.5 3
      vertex 36.425 -3.64471 3
    endloop
  endfacet
  facet normal 0 0 1
    outer loop
      vertex 36.425 -3.64471 3
      vertex 35.7924 -2.5 3
      vertex 36.234 -3.63374 3
    endloop
  endfacet
  facet normal 0 0 1
    outer loop
      vertex 36.234 -3.63374 3
      vertex 35.7924 -2.5 3
      vertex 36.0304 -3.6134 3
    endloop
  endfacet
  facet normal 0 0 1
    outer loop
      vertex 36.0304 -3.6134 3
      vertex 35.7924 -2.5 3
      vertex 35.7924 -3.58199 3
    endloop
  endfacet
  facet normal 0 0 1
    outer loop
      vertex 39.0594 2.461 3
      vertex 43.3254 9.02399 3
      vertex 40.9254 9.02399 3
    endloop
  endfacet
  facet normal 0 0 1
    outer loop
      vertex 43.3254 9.02399 3
      vertex 39.0594 2.461 3
      vertex 40.1967 0 3
    endloop
  endfacet
  facet normal 0 0 1
    outer loop
      vertex 39.0594 2.461 3
      vertex 37.7302 0 3
      vertex 40.1967 0 3
    endloop
  endfacet
  facet normal -0 0 1
    outer loop
      vertex 34.5094 9.02399 3
      vertex 39.0594 2.461 3
      vertex 37.0754 9.02399 3
    endloop
  endfacet
  facet normal 0 0 1
    outer loop
      vertex 39.0594 2.461 3
      vertex 34.5094 9.02399 3
      vertex 37.7302 0 3
    endloop
  endfacet
  facet normal 0.491579 -0.870833 0
    outer loop
      vertex 8.41334 0 0
      vertex 9.89961 0.838989 3
      vertex 8.41334 0 3
    endloop
  endfacet
  facet normal 0.491579 -0.870833 0
    outer loop
      vertex 9.89961 0.838989 3
      vertex 8.41334 0 0
      vertex 9.89961 0.838989 0
    endloop
  endfacet
  facet normal 0.800958 -0.59872 0
    outer loop
      vertex 9.89961 0.838989 3
      vertex 10.9671 2.26706 0
      vertex 10.9671 2.26706 3
    endloop
  endfacet
  facet normal 0.800958 -0.59872 0
    outer loop
      vertex 10.9671 2.26706 0
      vertex 9.89961 0.838989 3
      vertex 9.89961 0.838989 0
    endloop
  endfacet
  facet normal 0.972738 -0.231906 0
    outer loop
      vertex 10.9671 2.26706 3
      vertex 11.416 4.14999 0
      vertex 11.416 4.14999 3
    endloop
  endfacet
  facet normal 0.972738 -0.231906 0
    outer loop
      vertex 11.416 4.14999 0
      vertex 10.9671 2.26706 3
      vertex 10.9671 2.26706 0
    endloop
  endfacet
  facet normal 0 1 -0
    outer loop
      vertex 11.416 4.14999 0
      vertex 8.98299 4.14999 3
      vertex 11.416 4.14999 3
    endloop
  endfacet
  facet normal 0 1 0
    outer loop
      vertex 8.98299 4.14999 3
      vertex 11.416 4.14999 0
      vertex 8.98299 4.14999 0
    endloop
  endfacet
  facet normal -0.968835 0.247708 0
    outer loop
      vertex 8.71846 3.11536 0
      vertex 8.98299 4.14999 3
      vertex 8.98299 4.14999 0
    endloop
  endfacet
  facet normal -0.968835 0.247708 0
    outer loop
      vertex 8.98299 4.14999 3
      vertex 8.71846 3.11536 0
      vertex 8.71846 3.11536 3
    endloop
  endfacet
  facet normal -0.810582 0.585625 0
    outer loop
      vertex 8.16649 2.35136 0
      vertex 8.71846 3.11536 3
      vertex 8.71846 3.11536 0
    endloop
  endfacet
  facet normal -0.810582 0.585625 0
    outer loop
      vertex 8.71846 3.11536 3
      vertex 8.16649 2.35136 0
      vertex 8.16649 2.35136 3
    endloop
  endfacet
  facet normal -0.502336 0.864673 0
    outer loop
      vertex 8.16649 2.35136 0
      vertex 7.35202 1.87819 3
      vertex 8.16649 2.35136 3
    endloop
  endfacet
  facet normal -0.502336 0.864673 0
    outer loop
      vertex 7.35202 1.87819 3
      vertex 8.16649 2.35136 0
      vertex 7.35202 1.87819 0
    endloop
  endfacet
  facet normal -0.152378 0.988322 0
    outer loop
      vertex 7.35202 1.87819 0
      vertex 6.29999 1.71599 3
      vertex 7.35202 1.87819 3
    endloop
  endfacet
  facet normal -0.152378 0.988322 0
    outer loop
      vertex 6.29999 1.71599 3
      vertex 7.35202 1.87819 0
      vertex 6.29999 1.71599 0
    endloop
  endfacet
  facet normal 0.215828 0.976431 -0
    outer loop
      vertex 6.29999 1.71599 0
      vertex 5.00487 2.00226 3
      vertex 6.29999 1.71599 3
    endloop
  endfacet
  facet normal 0.215828 0.976431 0
    outer loop
      vertex 5.00487 2.00226 3
      vertex 6.29999 1.71599 0
      vertex 5.00487 2.00226 0
    endloop
  endfacet
  facet normal 0.651989 0.758229 -0
    outer loop
      vertex 5.00487 2.00226 0
      vertex 4.04124 2.83087 3
      vertex 5.00487 2.00226 3
    endloop
  endfacet
  facet normal 0.651989 0.758229 0
    outer loop
      vertex 4.04124 2.83087 3
      vertex 5.00487 2.00226 0
      vertex 4.04124 2.83087 0
    endloop
  endfacet
  facet normal 0.910777 0.412899 0
    outer loop
      vertex 4.04124 2.83087 3
      vertex 3.44025 4.15654 0
      vertex 3.44025 4.15654 3
    endloop
  endfacet
  facet normal 0.910777 0.412899 0
    outer loop
      vertex 3.44025 4.15654 0
      vertex 4.04124 2.83087 3
      vertex 4.04124 2.83087 0
    endloop
  endfacet
  facet normal 0.99327 0.115821 0
    outer loop
      vertex 3.44025 4.15654 3
      vertex 3.23299 5.93399 0
      vertex 3.23299 5.93399 3
    endloop
  endfacet
  facet normal 0.99327 0.115821 0
    outer loop
      vertex 3.23299 5.93399 0
      vertex 3.44025 4.15654 3
      vertex 3.44025 4.15654 0
    endloop
  endfacet
  facet normal 0.992917 -0.118812 0
    outer loop
      vertex 3.23299 5.93399 3
      vertex 3.44858 7.73569 0
      vertex 3.44858 7.73569 3
    endloop
  endfacet
  facet normal 0.992917 -0.118812 0
    outer loop
      vertex 3.44858 7.73569 0
      vertex 3.23299 5.93399 3
      vertex 3.23299 5.93399 0
    endloop
  endfacet
  facet normal 0.907911 -0.419164 0
    outer loop
      vertex 3.44858 7.73569 3
      vertex 4.07037 9.08249 0
      vertex 4.07037 9.08249 3
    endloop
  endfacet
  facet normal 0.907911 -0.419164 0
    outer loop
      vertex 4.07037 9.08249 0
      vertex 3.44858 7.73569 3
      vertex 3.44858 7.73569 0
    endloop
  endfacet
  facet normal 0.648344 -0.761347 0
    outer loop
      vertex 4.07037 9.08249 0
      vertex 5.06097 9.92606 3
      vertex 4.07037 9.08249 3
    endloop
  endfacet
  facet normal 0.648344 -0.761347 0
    outer loop
      vertex 5.06097 9.92606 3
      vertex 4.07037 9.08249 0
      vertex 5.06097 9.92606 0
    endloop
  endfacet
  facet normal 0.215632 -0.976475 0
    outer loop
      vertex 5.06097 9.92606 0
      vertex 6.383 10.218 3
      vertex 5.06097 9.92606 3
    endloop
  endfacet
  facet normal 0.215632 -0.976475 0
    outer loop
      vertex 6.383 10.218 3
      vertex 5.06097 9.92606 0
      vertex 6.383 10.218 0
    endloop
  endfacet
  facet normal -0.0898989 -0.995951 0
    outer loop
      vertex 6.383 10.218 0
      vertex 7.0034 10.162 3
      vertex 6.383 10.218 3
    endloop
  endfacet
  facet normal -0.0898989 -0.995951 -0
    outer loop
      vertex 7.0034 10.162 3
      vertex 6.383 10.218 0
      vertex 7.0034 10.162 0
    endloop
  endfacet
  facet normal -0.28814 -0.957588 0
    outer loop
      vertex 7.0034 10.162 0
      vertex 7.558 9.99512 3
      vertex 7.0034 10.162 3
    endloop
  endfacet
  facet normal -0.28814 -0.957588 -0
    outer loop
      vertex 7.558 9.99512 3
      vertex 7.0034 10.162 0
      vertex 7.558 9.99512 0
    endloop
  endfacet
  facet normal -0.499071 -0.866561 0
    outer loop
      vertex 7.558 9.99512 0
      vertex 8.03758 9.71892 3
      vertex 7.558 9.99512 3
    endloop
  endfacet
  facet normal -0.499071 -0.866561 -0
    outer loop
      vertex 8.03758 9.71892 3
      vertex 7.558 9.99512 0
      vertex 8.03758 9.71892 0
    endloop
  endfacet
  facet normal -0.696606 -0.717454 0
    outer loop
      vertex 8.03758 9.71892 0
      vertex 8.433 9.33499 3
      vertex 8.03758 9.71892 3
    endloop
  endfacet
  facet normal -0.696606 -0.717454 -0
    outer loop
      vertex 8.433 9.33499 3
      vertex 8.03758 9.71892 0
      vertex 8.433 9.33499 0
    endloop
  endfacet
  facet normal -0.818434 -0.5746 0
    outer loop
      vertex 8.61047 9.08221 0
      vertex 8.433 9.33499 3
      vertex 8.433 9.33499 0
    endloop
  endfacet
  facet normal -0.818434 -0.5746 0
    outer loop
      vertex 8.433 9.33499 3
      vertex 8.61047 9.08221 0
      vertex 8.61047 9.08221 3
    endloop
  endfacet
  facet normal -0.892141 -0.451758 0
    outer loop
      vertex 8.75186 8.80299 0
      vertex 8.61047 9.08221 3
      vertex 8.61047 9.08221 0
    endloop
  endfacet
  facet normal -0.892141 -0.451758 0
    outer loop
      vertex 8.61047 9.08221 3
      vertex 8.75186 8.80299 0
      vertex 8.75186 8.80299 3
    endloop
  endfacet
  facet normal -0.94299 -0.33282 0
    outer loop
      vertex 8.87132 8.46452 0
      vertex 8.75186 8.80299 3
      vertex 8.75186 8.80299 0
    endloop
  endfacet
  facet normal -0.94299 -0.33282 0
    outer loop
      vertex 8.75186 8.80299 3
      vertex 8.87132 8.46452 0
      vertex 8.87132 8.46452 3
    endloop
  endfacet
  facet normal -0.967968 -0.251075 0
    outer loop
      vertex 8.98299 8.034 0
      vertex 8.87132 8.46452 3
      vertex 8.87132 8.46452 0
    endloop
  endfacet
  facet normal -0.967968 -0.251075 0
    outer loop
      vertex 8.87132 8.46452 3
      vertex 8.98299 8.034 0
      vertex 8.98299 8.034 3
    endloop
  endfacet
  facet normal 0 -1 0
    outer loop
      vertex 8.98299 8.034 0
      vertex 11.366 8.034 3
      vertex 8.98299 8.034 3
    endloop
  endfacet
  facet normal 0 -1 -0
    outer loop
      vertex 11.366 8.034 3
      vertex 8.98299 8.034 0
      vertex 11.366 8.034 0
    endloop
  endfacet
  facet normal 0.992327 0.123637 0
    outer loop
      vertex 11.366 8.034 3
      vertex 11.276 8.75635 0
      vertex 11.276 8.75635 3
    endloop
  endfacet
  facet normal 0.992327 0.123637 0
    outer loop
      vertex 11.276 8.75635 0
      vertex 11.366 8.034 3
      vertex 11.366 8.034 0
    endloop
  endfacet
  facet normal 0.969525 0.244991 0
    outer loop
      vertex 11.276 8.75635 3
      vertex 11.1204 9.37212 0
      vertex 11.1204 9.37212 3
    endloop
  endfacet
  facet normal 0.969525 0.244991 0
    outer loop
      vertex 11.1204 9.37212 0
      vertex 11.276 8.75635 3
      vertex 11.276 8.75635 0
    endloop
  endfacet
  facet normal 0.917624 0.39745 0
    outer loop
      vertex 11.1204 9.37212 3
      vertex 10.8835 9.91907 0
      vertex 10.8835 9.91907 3
    endloop
  endfacet
  facet normal 0.917624 0.39745 0
    outer loop
      vertex 10.8835 9.91907 0
      vertex 11.1204 9.37212 3
      vertex 11.1204 9.37212 0
    endloop
  endfacet
  facet normal 0.83982 0.542864 0
    outer loop
      vertex 10.8835 9.91907 3
      vertex 10.55 10.435 0
      vertex 10.55 10.435 3
    endloop
  endfacet
  facet normal 0.83982 0.542864 0
    outer loop
      vertex 10.55 10.435 0
      vertex 10.8835 9.91907 3
      vertex 10.8835 9.91907 0
    endloop
  endfacet
  facet normal 0.714464 0.699672 0
    outer loop
      vertex 10.55 10.435 3
      vertex 9.74727 11.2547 0
      vertex 9.74727 11.2547 3
    endloop
  endfacet
  facet normal 0.714464 0.699672 0
    outer loop
      vertex 9.74727 11.2547 0
      vertex 10.55 10.435 3
      vertex 10.55 10.435 0
    endloop
  endfacet
  facet normal 0.518474 0.855094 -0
    outer loop
      vertex 9.74727 11.2547 0
      vertex 8.75574 11.8559 3
      vertex 9.74727 11.2547 3
    endloop
  endfacet
  facet normal 0.518474 0.855094 0
    outer loop
      vertex 8.75574 11.8559 3
      vertex 9.74727 11.2547 0
      vertex 8.75574 11.8559 0
    endloop
  endfacet
  facet normal 0.304543 0.952498 -0
    outer loop
      vertex 8.75574 11.8559 0
      vertex 7.59883 12.2258 3
      vertex 8.75574 11.8559 3
    endloop
  endfacet
  facet normal 0.304543 0.952498 0
    outer loop
      vertex 7.59883 12.2258 3
      vertex 8.75574 11.8559 0
      vertex 7.59883 12.2258 0
    endloop
  endfacet
  facet normal 0.0967082 0.995313 -0
    outer loop
      vertex 7.59883 12.2258 0
      vertex 6.29999 12.352 3
      vertex 7.59883 12.2258 3
    endloop
  endfacet
  facet normal 0.0967082 0.995313 0
    outer loop
      vertex 6.29999 12.352 3
      vertex 7.59883 12.2258 0
      vertex 6.29999 12.352 0
    endloop
  endfacet
  facet normal -0.188244 0.982122 0
    outer loop
      vertex 6.29999 12.352 0
      vertex 3.98143 11.9076 3
      vertex 6.29999 12.352 3
    endloop
  endfacet
  facet normal -0.188244 0.982122 0
    outer loop
      vertex 3.98143 11.9076 3
      vertex 6.29999 12.352 0
      vertex 3.98143 11.9076 0
    endloop
  endfacet
  facet normal -0.587633 0.809128 0
    outer loop
      vertex 3.98143 11.9076 0
      vertex 2.22874 10.6347 3
      vertex 3.98143 11.9076 3
    endloop
  endfacet
  facet normal -0.587633 0.809128 0
    outer loop
      vertex 2.22874 10.6347 3
      vertex 3.98143 11.9076 0
      vertex 2.22874 10.6347 0
    endloop
  endfacet
  facet normal -0.875647 0.482952 0
    outer loop
      vertex 1.11993 8.6243 0
      vertex 2.22874 10.6347 3
      vertex 2.22874 10.6347 0
    endloop
  endfacet
  facet normal -0.875647 0.482952 0
    outer loop
      vertex 2.22874 10.6347 3
      vertex 1.11993 8.6243 0
      vertex 1.11993 8.6243 3
    endloop
  endfacet
  facet normal -0.989564 0.144096 0
    outer loop
      vertex 0.732986 5.967 0
      vertex 1.11993 8.6243 3
      vertex 1.11993 8.6243 0
    endloop
  endfacet
  facet normal -0.989564 0.144096 0
    outer loop
      vertex 1.11993 8.6243 3
      vertex 0.732986 5.967 0
      vertex 0.732986 5.967 3
    endloop
  endfacet
  facet normal -0.98959 -0.143915 0
    outer loop
      vertex 1.11664 3.32892 0
      vertex 0.732986 5.967 3
      vertex 0.732986 5.967 0
    endloop
  endfacet
  facet normal -0.98959 -0.143915 0
    outer loop
      vertex 0.732986 5.967 3
      vertex 1.11664 3.32892 0
      vertex 1.11664 3.32892 3
    endloop
  endfacet
  facet normal -0.876667 -0.481097 0
    outer loop
      vertex 2.21437 1.32861 0
      vertex 1.11664 3.32892 3
      vertex 1.11664 3.32892 0
    endloop
  endfacet
  facet normal -0.876667 -0.481097 0
    outer loop
      vertex 1.11664 3.32892 3
      vertex 2.21437 1.32861 0
      vertex 2.21437 1.32861 3
    endloop
  endfacet
  facet normal -0.590968 -0.806695 0
    outer loop
      vertex 2.21437 1.32861 0
      vertex 3.94641 0.0597534 3
      vertex 2.21437 1.32861 3
    endloop
  endfacet
  facet normal -0.590968 -0.806695 -0
    outer loop
      vertex 3.94641 0.0597534 3
      vertex 2.21437 1.32861 0
      vertex 3.94641 0.0597534 0
    endloop
  endfacet
  facet normal -0.190507 -0.981686 0
    outer loop
      vertex 3.94641 0.0597534 0
      vertex 4.25432 0 3
      vertex 3.94641 0.0597534 3
    endloop
  endfacet
  facet normal -0.190507 -0.981686 -0
    outer loop
      vertex 4.25432 0 3
      vertex 3.94641 0.0597534 0
      vertex 4.25432 0 0
    endloop
  endfacet
  facet normal 0.989821 -0.142318 0
    outer loop
      vertex 25.0803 4.79599 3
      vertex 25.2083 5.68623 0
      vertex 25.2083 5.68623 3
    endloop
  endfacet
  facet normal 0.989821 -0.142318 0
    outer loop
      vertex 25.2083 5.68623 0
      vertex 25.0803 4.79599 3
      vertex 25.0803 4.79599 0
    endloop
  endfacet
  facet normal 0.856385 -0.516338 0
    outer loop
      vertex 25.2083 5.68623 3
      vertex 25.5926 6.32362 0
      vertex 25.5926 6.32362 3
    endloop
  endfacet
  facet normal 0.856385 -0.516338 0
    outer loop
      vertex 25.5926 6.32362 0
      vertex 25.2083 5.68623 3
      vertex 25.2083 5.68623 0
    endloop
  endfacet
  facet normal 0.513471 -0.858107 0
    outer loop
      vertex 25.5926 6.32362 0
      vertex 26.2332 6.70694 3
      vertex 25.5926 6.32362 3
    endloop
  endfacet
  facet normal 0.513471 -0.858107 0
    outer loop
      vertex 26.2332 6.70694 3
      vertex 25.5926 6.32362 0
      vertex 26.2332 6.70694 0
    endloop
  endfacet
  facet normal 0.141305 -0.989966 0
    outer loop
      vertex 26.2332 6.70694 0
      vertex 27.1303 6.83499 3
      vertex 26.2332 6.70694 3
    endloop
  endfacet
  facet normal 0.141305 -0.989966 0
    outer loop
      vertex 27.1303 6.83499 3
      vertex 26.2332 6.70694 0
      vertex 27.1303 6.83499 0
    endloop
  endfacet
  facet normal -0.0195404 -0.999809 0
    outer loop
      vertex 27.1303 6.83499 0
      vertex 27.3058 6.83156 3
      vertex 27.1303 6.83499 3
    endloop
  endfacet
  facet normal -0.0195404 -0.999809 -0
    outer loop
      vertex 27.3058 6.83156 3
      vertex 27.1303 6.83499 0
      vertex 27.3058 6.83156 0
    endloop
  endfacet
  facet normal -0.0679533 -0.997689 0
    outer loop
      vertex 27.3058 6.83156 0
      vertex 27.472 6.82024 3
      vertex 27.3058 6.83156 3
    endloop
  endfacet
  facet normal -0.0679533 -0.997689 -0
    outer loop
      vertex 27.472 6.82024 3
      vertex 27.3058 6.83156 0
      vertex 27.472 6.82024 0
    endloop
  endfacet
  facet normal -0.115021 -0.993363 0
    outer loop
      vertex 27.472 6.82024 0
      vertex 27.6506 6.79956 3
      vertex 27.472 6.82024 3
    endloop
  endfacet
  facet normal -0.115021 -0.993363 -0
    outer loop
      vertex 27.6506 6.79956 3
      vertex 27.472 6.82024 0
      vertex 27.6506 6.79956 0
    endloop
  endfacet
  facet normal -0.146817 -0.989164 0
    outer loop
      vertex 27.6506 6.79956 0
      vertex 27.8633 6.76799 3
      vertex 27.6506 6.79956 3
    endloop
  endfacet
  facet normal -0.146817 -0.989164 -0
    outer loop
      vertex 27.8633 6.76799 3
      vertex 27.6506 6.79956 0
      vertex 27.8633 6.76799 0
    endloop
  endfacet
  facet normal 1 -0 0
    outer loop
      vertex 27.8633 6.76799 3
      vertex 27.8633 9.13499 0
      vertex 27.8633 9.13499 3
    endloop
  endfacet
  facet normal 1 0 0
    outer loop
      vertex 27.8633 9.13499 0
      vertex 27.8633 6.76799 3
      vertex 27.8633 6.76799 0
    endloop
  endfacet
  facet normal 0.107514 0.994204 -0
    outer loop
      vertex 27.8633 9.13499 0
      vertex 27.7724 9.14482 3
      vertex 27.8633 9.13499 3
    endloop
  endfacet
  facet normal 0.107514 0.994204 0
    outer loop
      vertex 27.7724 9.14482 3
      vertex 27.8633 9.13499 0
      vertex 27.7724 9.14482 0
    endloop
  endfacet
  facet normal 0.0668264 0.997765 -0
    outer loop
      vertex 27.7724 9.14482 0
      vertex 27.697 9.14987 3
      vertex 27.7724 9.14482 3
    endloop
  endfacet
  facet normal 0.0668264 0.997765 0
    outer loop
      vertex 27.697 9.14987 3
      vertex 27.7724 9.14482 0
      vertex 27.697 9.14987 0
    endloop
  endfacet
  facet normal 0.029511 0.999564 -0
    outer loop
      vertex 27.697 9.14987 0
      vertex 27.634 9.15173 3
      vertex 27.697 9.14987 3
    endloop
  endfacet
  facet normal 0.029511 0.999564 0
    outer loop
      vertex 27.634 9.15173 3
      vertex 27.697 9.14987 0
      vertex 27.634 9.15173 0
    endloop
  endfacet
  facet normal 0.00484166 0.999988 -0
    outer loop
      vertex 27.634 9.15173 0
      vertex 27.5803 9.15199 3
      vertex 27.634 9.15173 3
    endloop
  endfacet
  facet normal 0.00484166 0.999988 0
    outer loop
      vertex 27.5803 9.15199 3
      vertex 27.634 9.15173 0
      vertex 27.5803 9.15199 0
    endloop
  endfacet
  facet normal -0.164528 0.986372 0
    outer loop
      vertex 27.5803 9.15199 0
      vertex 26.8098 9.02347 3
      vertex 27.5803 9.15199 3
    endloop
  endfacet
  facet normal -0.164528 0.986372 0
    outer loop
      vertex 26.8098 9.02347 3
      vertex 27.5803 9.15199 0
      vertex 26.8098 9.02347 0
    endloop
  endfacet
  facet normal -0.475338 0.879803 0
    outer loop
      vertex 26.8098 9.02347 0
      vertex 26.1176 8.64949 3
      vertex 26.8098 9.02347 3
    endloop
  endfacet
  facet normal -0.475338 0.879803 0
    outer loop
      vertex 26.1176 8.64949 3
      vertex 26.8098 9.02347 0
      vertex 26.1176 8.64949 0
    endloop
  endfacet
  facet normal -0.716661 0.697422 0
    outer loop
      vertex 25.5318 8.04753 0
      vertex 26.1176 8.64949 3
      vertex 26.1176 8.64949 0
    endloop
  endfacet
  facet normal -0.716661 0.697422 0
    outer loop
      vertex 26.1176 8.64949 3
      vertex 25.5318 8.04753 0
      vertex 25.5318 8.04753 3
    endloop
  endfacet
  facet normal -0.874117 0.485716 0
    outer loop
      vertex 25.0803 7.23499 0
      vertex 25.5318 8.04753 3
      vertex 25.5318 8.04753 0
    endloop
  endfacet
  facet normal -0.874117 0.485716 0
    outer loop
      vertex 25.5318 8.04753 3
      vertex 25.0803 7.23499 0
      vertex 25.0803 7.23499 3
    endloop
  endfacet
  facet normal 1 -0 0
    outer loop
      vertex 25.0803 7.23499 3
      vertex 25.0803 9.02399 0
      vertex 25.0803 9.02399 3
    endloop
  endfacet
  facet normal 1 0 0
    outer loop
      vertex 25.0803 9.02399 0
      vertex 25.0803 7.23499 3
      vertex 25.0803 7.23499 0
    endloop
  endfacet
  facet normal 0 1 -0
    outer loop
      vertex 25.0803 9.02399 0
      vertex 22.7473 9.02399 3
      vertex 25.0803 9.02399 3
    endloop
  endfacet
  facet normal 0 1 0
    outer loop
      vertex 22.7473 9.02399 3
      vertex 25.0803 9.02399 0
      vertex 22.7473 9.02399 0
    endloop
  endfacet
  facet normal -1 0 0
    outer loop
      vertex 22.7473 0 0
      vertex 22.7473 9.02399 3
      vertex 22.7473 9.02399 0
    endloop
  endfacet
  facet normal -1 -0 0
    outer loop
      vertex 22.7473 9.02399 3
      vertex 22.7473 0 0
      vertex 22.7473 0 3
    endloop
  endfacet
  facet normal 1 -0 0
    outer loop
      vertex 25.0803 0 3
      vertex 25.0803 4.79599 0
      vertex 25.0803 4.79599 3
    endloop
  endfacet
  facet normal 1 0 0
    outer loop
      vertex 25.0803 4.79599 0
      vertex 25.0803 0 3
      vertex 25.0803 0 0
    endloop
  endfacet
  facet normal 0.989805 -0.142427 0
    outer loop
      vertex 31.4113 4.79599 3
      vertex 31.5394 5.68623 0
      vertex 31.5394 5.68623 3
    endloop
  endfacet
  facet normal 0.989805 -0.142427 0
    outer loop
      vertex 31.5394 5.68623 0
      vertex 31.4113 4.79599 3
      vertex 31.4113 4.79599 0
    endloop
  endfacet
  facet normal 0.856385 -0.516338 0
    outer loop
      vertex 31.5394 5.68623 3
      vertex 31.9237 6.32362 0
      vertex 31.9237 6.32362 3
    endloop
  endfacet
  facet normal 0.856385 -0.516338 0
    outer loop
      vertex 31.9237 6.32362 0
      vertex 31.5394 5.68623 3
      vertex 31.5394 5.68623 0
    endloop
  endfacet
  facet normal 0.513471 -0.858107 0
    outer loop
      vertex 31.9237 6.32362 0
      vertex 32.5643 6.70694 3
      vertex 31.9237 6.32362 3
    endloop
  endfacet
  facet normal 0.513471 -0.858107 0
    outer loop
      vertex 32.5643 6.70694 3
      vertex 31.9237 6.32362 0
      vertex 32.5643 6.70694 0
    endloop
  endfacet
  facet normal 0.141321 -0.989964 0
    outer loop
      vertex 32.5643 6.70694 0
      vertex 33.4613 6.83499 3
      vertex 32.5643 6.70694 3
    endloop
  endfacet
  facet normal 0.141321 -0.989964 0
    outer loop
      vertex 33.4613 6.83499 3
      vertex 32.5643 6.70694 0
      vertex 33.4613 6.83499 0
    endloop
  endfacet
  facet normal -0.0195293 -0.999809 0
    outer loop
      vertex 33.4613 6.83499 0
      vertex 33.6369 6.83156 3
      vertex 33.4613 6.83499 3
    endloop
  endfacet
  facet normal -0.0195293 -0.999809 -0
    outer loop
      vertex 33.6369 6.83156 3
      vertex 33.4613 6.83499 0
      vertex 33.6369 6.83156 0
    endloop
  endfacet
  facet normal -0.0679533 -0.997689 0
    outer loop
      vertex 33.6369 6.83156 0
      vertex 33.8031 6.82024 3
      vertex 33.6369 6.83156 3
    endloop
  endfacet
  facet normal -0.0679533 -0.997689 -0
    outer loop
      vertex 33.8031 6.82024 3
      vertex 33.6369 6.83156 0
      vertex 33.8031 6.82024 0
    endloop
  endfacet
  facet normal -0.115085 -0.993356 0
    outer loop
      vertex 33.8031 6.82024 0
      vertex 33.9816 6.79956 3
      vertex 33.8031 6.82024 3
    endloop
  endfacet
  facet normal -0.115085 -0.993356 -0
    outer loop
      vertex 33.9816 6.79956 3
      vertex 33.8031 6.82024 0
      vertex 33.9816 6.79956 0
    endloop
  endfacet
  facet normal -0.146817 -0.989164 0
    outer loop
      vertex 33.9816 6.79956 0
      vertex 34.1943 6.76799 3
      vertex 33.9816 6.79956 3
    endloop
  endfacet
  facet normal -0.146817 -0.989164 -0
    outer loop
      vertex 34.1943 6.76799 3
      vertex 33.9816 6.79956 0
      vertex 34.1943 6.76799 0
    endloop
  endfacet
  facet normal 1 -0 0
    outer loop
      vertex 34.1943 6.76799 3
      vertex 34.1943 9.13499 0
      vertex 34.1943 9.13499 3
    endloop
  endfacet
  facet normal 1 0 0
    outer loop
      vertex 34.1943 9.13499 0
      vertex 34.1943 6.76799 3
      vertex 34.1943 6.76799 0
    endloop
  endfacet
  facet normal 0.107514 0.994204 -0
    outer loop
      vertex 34.1943 9.13499 0
      vertex 34.1034 9.14482 3
      vertex 34.1943 9.13499 3
    endloop
  endfacet
  facet normal 0.107514 0.994204 0
    outer loop
      vertex 34.1034 9.14482 3
      vertex 34.1943 9.13499 0
      vertex 34.1034 9.14482 0
    endloop
  endfacet
  facet normal 0.0669148 0.997759 -0
    outer loop
      vertex 34.1034 9.14482 0
      vertex 34.0281 9.14987 3
      vertex 34.1034 9.14482 3
    endloop
  endfacet
  facet normal 0.0669148 0.997759 0
    outer loop
      vertex 34.0281 9.14987 3
      vertex 34.1034 9.14482 0
      vertex 34.0281 9.14987 0
    endloop
  endfacet
  facet normal 0.029511 0.999564 -0
    outer loop
      vertex 34.0281 9.14987 0
      vertex 33.9651 9.15173 3
      vertex 34.0281 9.14987 3
    endloop
  endfacet
  facet normal 0.029511 0.999564 0
    outer loop
      vertex 33.9651 9.15173 3
      vertex 34.0281 9.14987 0
      vertex 33.9651 9.15173 0
    endloop
  endfacet
  facet normal 0.00483266 0.999988 -0
    outer loop
      vertex 33.9651 9.15173 0
      vertex 33.9113 9.15199 3
      vertex 33.9651 9.15173 3
    endloop
  endfacet
  facet normal 0.00483266 0.999988 0
    outer loop
      vertex 33.9113 9.15199 3
      vertex 33.9651 9.15173 0
      vertex 33.9113 9.15199 0
    endloop
  endfacet
  facet normal -0.164548 0.986369 0
    outer loop
      vertex 33.9113 9.15199 0
      vertex 33.1409 9.02347 3
      vertex 33.9113 9.15199 3
    endloop
  endfacet
  facet normal -0.164548 0.986369 0
    outer loop
      vertex 33.1409 9.02347 3
      vertex 33.9113 9.15199 0
      vertex 33.1409 9.02347 0
    endloop
  endfacet
  facet normal -0.475338 0.879803 0
    outer loop
      vertex 33.1409 9.02347 0
      vertex 32.4487 8.64949 3
      vertex 33.1409 9.02347 3
    endloop
  endfacet
  facet normal -0.475338 0.879803 0
    outer loop
      vertex 32.4487 8.64949 3
      vertex 33.1409 9.02347 0
      vertex 32.4487 8.64949 0
    endloop
  endfacet
  facet normal -0.716601 0.697483 0
    outer loop
      vertex 31.8628 8.04753 0
      vertex 32.4487 8.64949 3
      vertex 32.4487 8.64949 0
    endloop
  endfacet
  facet normal -0.716601 0.697483 0
    outer loop
      vertex 32.4487 8.64949 3
      vertex 31.8628 8.04753 0
      vertex 31.8628 8.04753 3
    endloop
  endfacet
  facet normal -0.874117 0.485716 0
    outer loop
      vertex 31.4113 7.23499 0
      vertex 31.8628 8.04753 3
      vertex 31.8628 8.04753 0
    endloop
  endfacet
  facet normal -0.874117 0.485716 0
    outer loop
      vertex 31.8628 8.04753 3
      vertex 31.4113 7.23499 0
      vertex 31.4113 7.23499 3
    endloop
  endfacet
  facet normal 1 -0 0
    outer loop
      vertex 31.4113 7.23499 3
      vertex 31.4113 9.02399 0
      vertex 31.4113 9.02399 3
    endloop
  endfacet
  facet normal 1 0 0
    outer loop
      vertex 31.4113 9.02399 0
      vertex 31.4113 7.23499 3
      vertex 31.4113 7.23499 0
    endloop
  endfacet
  facet normal 0 1 -0
    outer loop
      vertex 31.4113 9.02399 0
      vertex 29.0783 9.02399 3
      vertex 31.4113 9.02399 3
    endloop
  endfacet
  facet normal 0 1 0
    outer loop
      vertex 29.0783 9.02399 3
      vertex 31.4113 9.02399 0
      vertex 29.0783 9.02399 0
    endloop
  endfacet
  facet normal -1 0 0
    outer loop
      vertex 29.0783 0 0
      vertex 29.0783 9.02399 3
      vertex 29.0783 9.02399 0
    endloop
  endfacet
  facet normal -1 -0 0
    outer loop
      vertex 29.0783 9.02399 3
      vertex 29.0783 0 0
      vertex 29.0783 0 3
    endloop
  endfacet
  facet normal 1 -0 0
    outer loop
      vertex 31.4113 0 3
      vertex 31.4113 4.79599 0
      vertex 31.4113 4.79599 3
    endloop
  endfacet
  facet normal 1 0 0
    outer loop
      vertex 31.4113 4.79599 0
      vertex 31.4113 0 3
      vertex 31.4113 0 0
    endloop
  endfacet
  facet normal 0.593935 -0.804513 0
    outer loop
      vertex 17.3372 0 0
      vertex 17.9028 0.417557 3
      vertex 17.3372 0 3
    endloop
  endfacet
  facet normal 0.593935 -0.804513 0
    outer loop
      vertex 17.9028 0.417557 3
      vertex 17.3372 0 0
      vertex 17.9028 0.417557 0
    endloop
  endfacet
  facet normal 0.772984 -0.634425 0
    outer loop
      vertex 17.9028 0.417557 3
      vertex 18.435 1.06599 0
      vertex 18.435 1.06599 3
    endloop
  endfacet
  facet normal 0.772984 -0.634425 0
    outer loop
      vertex 18.435 1.06599 0
      vertex 17.9028 0.417557 3
      vertex 17.9028 0.417557 0
    endloop
  endfacet
  facet normal -1 0 0
    outer loop
      vertex 18.435 0 0
      vertex 18.435 1.06599 3
      vertex 18.435 1.06599 0
    endloop
  endfacet
  facet normal -1 -0 0
    outer loop
      vertex 18.435 1.06599 3
      vertex 18.435 0 0
      vertex 18.435 0 3
    endloop
  endfacet
  facet normal 1 -0 0
    outer loop
      vertex 20.7679 0 3
      vertex 20.7679 9.02399 0
      vertex 20.7679 9.02399 3
    endloop
  endfacet
  facet normal 1 0 0
    outer loop
      vertex 20.7679 9.02399 0
      vertex 20.7679 0 3
      vertex 20.7679 0 0
    endloop
  endfacet
  facet normal 0 1 -0
    outer loop
      vertex 20.7679 9.02399 0
      vertex 18.435 9.02399 3
      vertex 20.7679 9.02399 3
    endloop
  endfacet
  facet normal 0 1 0
    outer loop
      vertex 18.435 9.02399 3
      vertex 20.7679 9.02399 0
      vertex 18.435 9.02399 0
    endloop
  endfacet
  facet normal -1 0 0
    outer loop
      vertex 18.435 3.37199 0
      vertex 18.435 9.02399 3
      vertex 18.435 9.02399 0
    endloop
  endfacet
  facet normal -1 -0 0
    outer loop
      vertex 18.435 9.02399 3
      vertex 18.435 3.37199 0
      vertex 18.435 3.37199 3
    endloop
  endfacet
  facet normal -0.983276 0.182123 0
    outer loop
      vertex 18.3 2.64313 0
      vertex 18.435 3.37199 3
      vertex 18.435 3.37199 0
    endloop
  endfacet
  facet normal -0.983276 0.182123 0
    outer loop
      vertex 18.435 3.37199 3
      vertex 18.3 2.64313 0
      vertex 18.3 2.64313 3
    endloop
  endfacet
  facet normal -0.825966 0.563719 0
    outer loop
      vertex 17.9183 2.08386 0
      vertex 18.3 2.64313 3
      vertex 18.3 2.64313 0
    endloop
  endfacet
  facet normal -0.825966 0.563719 0
    outer loop
      vertex 18.3 2.64313 3
      vertex 17.9183 2.08386 0
      vertex 17.9183 2.08386 3
    endloop
  endfacet
  facet normal -0.516529 0.85627 0
    outer loop
      vertex 17.9183 2.08386 0
      vertex 17.3241 1.72542 3
      vertex 17.9183 2.08386 3
    endloop
  endfacet
  facet normal -0.516529 0.85627 0
    outer loop
      vertex 17.3241 1.72542 3
      vertex 17.9183 2.08386 0
      vertex 17.3241 1.72542 0
    endloop
  endfacet
  facet normal -0.161563 0.986862 0
    outer loop
      vertex 17.3241 1.72542 0
      vertex 16.5519 1.599 3
      vertex 17.3241 1.72542 3
    endloop
  endfacet
  facet normal -0.161563 0.986862 0
    outer loop
      vertex 16.5519 1.599 3
      vertex 17.3241 1.72542 0
      vertex 16.5519 1.599 0
    endloop
  endfacet
  facet normal 0.151492 0.988458 -0
    outer loop
      vertex 16.5519 1.599 0
      vertex 15.8957 1.69957 3
      vertex 16.5519 1.599 3
    endloop
  endfacet
  facet normal 0.151492 0.988458 0
    outer loop
      vertex 15.8957 1.69957 3
      vertex 16.5519 1.599 0
      vertex 15.8957 1.69957 0
    endloop
  endfacet
  facet normal 0.542568 0.840012 -0
    outer loop
      vertex 15.8957 1.69957 0
      vertex 15.4269 2.00237 3
      vertex 15.8957 1.69957 3
    endloop
  endfacet
  facet normal 0.542568 0.840012 0
    outer loop
      vertex 15.4269 2.00237 3
      vertex 15.8957 1.69957 0
      vertex 15.4269 2.00237 0
    endloop
  endfacet
  facet normal 0.874336 0.485321 0
    outer loop
      vertex 15.4269 2.00237 3
      vertex 15.1457 2.50897 0
      vertex 15.1457 2.50897 3
    endloop
  endfacet
  facet normal 0.874336 0.485321 0
    outer loop
      vertex 15.1457 2.50897 0
      vertex 15.4269 2.00237 3
      vertex 15.4269 2.00237 0
    endloop
  endfacet
  facet normal 0.991434 0.130609 0
    outer loop
      vertex 15.1457 2.50897 3
      vertex 15.0519 3.22099 0
      vertex 15.0519 3.22099 3
    endloop
  endfacet
  facet normal 0.991434 0.130609 0
    outer loop
      vertex 15.0519 3.22099 0
      vertex 15.1457 2.50897 3
      vertex 15.1457 2.50897 0
    endloop
  endfacet
  facet normal 1 -0 0
    outer loop
      vertex 15.0519 3.22099 3
      vertex 15.0519 9.02399 0
      vertex 15.0519 9.02399 3
    endloop
  endfacet
  facet normal 1 0 0
    outer loop
      vertex 15.0519 9.02399 0
      vertex 15.0519 3.22099 3
      vertex 15.0519 3.22099 0
    endloop
  endfacet
  facet normal 0 1 -0
    outer loop
      vertex 15.0519 9.02399 0
      vertex 12.7179 9.02399 3
      vertex 15.0519 9.02399 3
    endloop
  endfacet
  facet normal 0 1 0
    outer loop
      vertex 12.7179 9.02399 3
      vertex 15.0519 9.02399 0
      vertex 12.7179 9.02399 0
    endloop
  endfacet
  facet normal -1 0 0
    outer loop
      vertex 12.7179 2.73599 0
      vertex 12.7179 9.02399 3
      vertex 12.7179 9.02399 0
    endloop
  endfacet
  facet normal -1 -0 0
    outer loop
      vertex 12.7179 9.02399 3
      vertex 12.7179 2.73599 0
      vertex 12.7179 2.73599 3
    endloop
  endfacet
  facet normal -0.988602 -0.150554 0
    outer loop
      vertex 12.9198 1.41023 0
      vertex 12.7179 2.73599 3
      vertex 12.7179 2.73599 0
    endloop
  endfacet
  facet normal -0.988602 -0.150554 0
    outer loop
      vertex 12.7179 2.73599 3
      vertex 12.9198 1.41023 0
      vertex 12.9198 1.41023 3
    endloop
  endfacet
  facet normal -0.857424 -0.514611 0
    outer loop
      vertex 13.5076 0.430862 0
      vertex 12.9198 1.41023 3
      vertex 12.9198 1.41023 0
    endloop
  endfacet
  facet normal -0.857424 -0.514611 0
    outer loop
      vertex 12.9198 1.41023 3
      vertex 13.5076 0.430862 0
      vertex 13.5076 0.430862 3
    endloop
  endfacet
  facet normal -0.539407 -0.842045 0
    outer loop
      vertex 13.5076 0.430862 0
      vertex 14.1802 0 3
      vertex 13.5076 0.430862 3
    endloop
  endfacet
  facet normal -0.539407 -0.842045 -0
    outer loop
      vertex 14.1802 0 3
      vertex 13.5076 0.430862 0
      vertex 14.1802 0 0
    endloop
  endfacet
  facet normal 0.125987 -0.992032 0
    outer loop
      vertex 37.0786 -3.62726 2.5
      vertex 37.5364 -3.56912 3
      vertex 37.0786 -3.62726 3
    endloop
  endfacet
  facet normal 0.125987 -0.992032 0
    outer loop
      vertex 37.5364 -3.56912 3
      vertex 37.0786 -3.62726 2.5
      vertex 37.5364 -3.56912 2.5
    endloop
  endfacet
  facet normal 0.206819 -0.978379 0
    outer loop
      vertex 37.5364 -3.56912 2.5
      vertex 37.9596 -3.47966 3
      vertex 37.5364 -3.56912 3
    endloop
  endfacet
  facet normal 0.206819 -0.978379 0
    outer loop
      vertex 37.9596 -3.47966 3
      vertex 37.5364 -3.56912 2.5
      vertex 37.9596 -3.47966 2.5
    endloop
  endfacet
  facet normal 0.311505 -0.950244 0
    outer loop
      vertex 37.9596 -3.47966 2.5
      vertex 38.3094 -3.36499 3
      vertex 37.9596 -3.47966 3
    endloop
  endfacet
  facet normal 0.311505 -0.950244 0
    outer loop
      vertex 38.3094 -3.36499 3
      vertex 37.9596 -3.47966 2.5
      vertex 38.3094 -3.36499 2.5
    endloop
  endfacet
  facet normal 0.476475 -0.879188 0
    outer loop
      vertex 38.3094 -3.36499 2.5
      vertex 38.7354 -3.13412 3
      vertex 38.3094 -3.36499 3
    endloop
  endfacet
  facet normal 0.476475 -0.879188 0
    outer loop
      vertex 38.7354 -3.13412 3
      vertex 38.3094 -3.36499 2.5
      vertex 38.7354 -3.13412 2.5
    endloop
  endfacet
  facet normal 0.7023 -0.711881 0
    outer loop
      vertex 38.7354 -3.13412 2.5
      vertex 39.0675 -2.80649 3
      vertex 38.7354 -3.13412 3
    endloop
  endfacet
  facet normal 0.7023 -0.711881 0
    outer loop
      vertex 39.0675 -2.80649 3
      vertex 38.7354 -3.13412 2.5
      vertex 39.0675 -2.80649 2.5
    endloop
  endfacet
  facet normal 0.861059 -0.508505 0
    outer loop
      vertex 39.0675 -2.80649 3
      vertex 39.2485 -2.5 2.5
      vertex 39.2485 -2.5 3
    endloop
  endfacet
  facet normal 0.861059 -0.508505 0
    outer loop
      vertex 39.2485 -2.5 2.5
      vertex 39.0675 -2.80649 3
      vertex 39.0675 -2.80649 2.5
    endloop
  endfacet
  facet normal 0.944824 -0.327579 0
    outer loop
      vertex 40.1967 0 3
      vertex 43.3254 9.02399 0
      vertex 43.3254 9.02399 3
    endloop
  endfacet
  facet normal 0.944824 -0.327579 0
    outer loop
      vertex 43.3254 9.02399 0
      vertex 40.1967 0 3
      vertex 40.1967 0 0
    endloop
  endfacet
  facet normal 0 1 -0
    outer loop
      vertex 43.3254 9.02399 0
      vertex 40.9254 9.02399 3
      vertex 43.3254 9.02399 3
    endloop
  endfacet
  facet normal 0 1 0
    outer loop
      vertex 40.9254 9.02399 3
      vertex 43.3254 9.02399 0
      vertex 40.9254 9.02399 0
    endloop
  endfacet
  facet normal -0.961877 0.273482 0
    outer loop
      vertex 39.0594 2.461 0
      vertex 40.9254 9.02399 3
      vertex 40.9254 9.02399 0
    endloop
  endfacet
  facet normal -0.961877 0.273482 0
    outer loop
      vertex 40.9254 9.02399 3
      vertex 39.0594 2.461 0
      vertex 39.0594 2.461 3
    endloop
  endfacet
  facet normal 0.957218 0.289368 0
    outer loop
      vertex 39.0594 2.461 3
      vertex 37.0754 9.02399 0
      vertex 37.0754 9.02399 3
    endloop
  endfacet
  facet normal 0.957218 0.289368 0
    outer loop
      vertex 37.0754 9.02399 0
      vertex 39.0594 2.461 3
      vertex 39.0594 2.461 0
    endloop
  endfacet
  facet normal 0 1 -0
    outer loop
      vertex 37.0754 9.02399 0
      vertex 34.5094 9.02399 3
      vertex 37.0754 9.02399 3
    endloop
  endfacet
  facet normal 0 1 0
    outer loop
      vertex 34.5094 9.02399 3
      vertex 37.0754 9.02399 0
      vertex 34.5094 9.02399 0
    endloop
  endfacet
  facet normal -0.94181 -0.336146 0
    outer loop
      vertex 37.7302 0 0
      vertex 34.5094 9.02399 3
      vertex 34.5094 9.02399 0
    endloop
  endfacet
  facet normal -0.94181 -0.336146 0
    outer loop
      vertex 34.5094 9.02399 3
      vertex 37.7302 0 0
      vertex 37.7302 0 3
    endloop
  endfacet
  facet normal -1 0 0
    outer loop
      vertex 35.7924 -3.58199 2.5
      vertex 35.7924 -2.5 3
      vertex 35.7924 -2.5 2.5
    endloop
  endfacet
  facet normal -1 -0 0
    outer loop
      vertex 35.7924 -2.5 3
      vertex 35.7924 -3.58199 2.5
      vertex 35.7924 -3.58199 3
    endloop
  endfacet
  facet normal -0.13084 -0.991403 0
    outer loop
      vertex 35.7924 -3.58199 2.5
      vertex 36.0304 -3.6134 3
      vertex 35.7924 -3.58199 3
    endloop
  endfacet
  facet normal -0.13084 -0.991403 -0
    outer loop
      vertex 36.0304 -3.6134 3
      vertex 35.7924 -3.58199 2.5
      vertex 36.0304 -3.6134 2.5
    endloop
  endfacet
  facet normal -0.0994069 -0.995047 0
    outer loop
      vertex 36.0304 -3.6134 2.5
      vertex 36.234 -3.63374 3
      vertex 36.0304 -3.6134 3
    endloop
  endfacet
  facet normal -0.0994069 -0.995047 -0
    outer loop
      vertex 36.234 -3.63374 3
      vertex 36.0304 -3.6134 2.5
      vertex 36.234 -3.63374 2.5
    endloop
  endfacet
  facet normal -0.0573401 -0.998355 0
    outer loop
      vertex 36.234 -3.63374 2.5
      vertex 36.425 -3.64471 3
      vertex 36.234 -3.63374 3
    endloop
  endfacet
  facet normal -0.0573401 -0.998355 -0
    outer loop
      vertex 36.425 -3.64471 3
      vertex 36.234 -3.63374 2.5
      vertex 36.425 -3.64471 2.5
    endloop
  endfacet
  facet normal -0.0163651 -0.999866 0
    outer loop
      vertex 36.425 -3.64471 2.5
      vertex 36.6254 -3.64799 3
      vertex 36.425 -3.64471 3
    endloop
  endfacet
  facet normal -0.0163651 -0.999866 -0
    outer loop
      vertex 36.6254 -3.64799 3
      vertex 36.425 -3.64471 2.5
      vertex 36.6254 -3.64799 2.5
    endloop
  endfacet
  facet normal 0.0456936 -0.998956 0
    outer loop
      vertex 36.6254 -3.64799 2.5
      vertex 37.0786 -3.62726 3
      vertex 36.6254 -3.64799 3
    endloop
  endfacet
  facet normal 0.0456936 -0.998956 0
    outer loop
      vertex 37.0786 -3.62726 3
      vertex 36.6254 -3.64799 2.5
      vertex 37.0786 -3.62726 2.5
    endloop
  endfacet
endsolid OpenSCAD_Model
