solid OpenSCAD_Model
  facet normal 1 -0 0
    outer loop
      vertex 135.25 -0.5 0.5
      vertex 135.25 0 0
      vertex 135.25 0 0.5
    endloop
  endfacet
  facet normal 1 0 0
    outer loop
      vertex 135.25 0 0
      vertex 135.25 -0.5 0.5
      vertex 135.25 -0.5 0
    endloop
  endfacet
  facet normal -0 0 1
    outer loop
      vertex 0 0 5
      vertex 125 -2.5 5
      vertex 125 0 5
    endloop
  endfacet
  facet normal 0 0 1
    outer loop
      vertex 125 -2.5 5
      vertex 0 0 5
      vertex 0 -2.5 5
    endloop
  endfacet
  facet normal 0 -1 0
    outer loop
      vertex 0 -5 0
      vertex 125 -5 2.5
      vertex 0 -5 2.5
    endloop
  endfacet
  facet normal 0 -1 -0
    outer loop
      vertex 125 -5 2.5
      vertex 0 -5 0
      vertex 125 -5 0
    endloop
  endfacet
  facet normal 0 1 -0
    outer loop
      vertex 12.3735 0 0
      vertex 6.41599 0 3
      vertex 12.3735 0 3
    endloop
  endfacet
  facet normal 0 1 0
    outer loop
      vertex 6.41599 0 3
      vertex 12.3735 0 0
      vertex 6.41599 0 0
    endloop
  endfacet
  facet normal 0 1 -0
    outer loop
      vertex 16.6283 0 0
      vertex 15.5306 0 3
      vertex 16.6283 0 3
    endloop
  endfacet
  facet normal 0 1 0
    outer loop
      vertex 15.5306 0 3
      vertex 16.6283 0 0
      vertex 15.5306 0 0
    endloop
  endfacet
  facet normal 0 1 -0
    outer loop
      vertex 20.9406 0 0
      vertex 18.9613 0 3
      vertex 20.9406 0 3
    endloop
  endfacet
  facet normal 0 1 0
    outer loop
      vertex 18.9613 0 3
      vertex 20.9406 0 0
      vertex 18.9613 0 0
    endloop
  endfacet
  facet normal 0 1 -0
    outer loop
      vertex 27.2717 0 0
      vertex 23.2736 0 3
      vertex 27.2717 0 3
    endloop
  endfacet
  facet normal 0 1 0
    outer loop
      vertex 23.2736 0 3
      vertex 27.2717 0 0
      vertex 23.2736 0 0
    endloop
  endfacet
  facet normal 0 1 -0
    outer loop
      vertex 32.9877 0 0
      vertex 29.6047 0 3
      vertex 32.9877 0 3
    endloop
  endfacet
  facet normal 0 1 0
    outer loop
      vertex 29.6047 0 3
      vertex 32.9877 0 0
      vertex 29.6047 0 0
    endloop
  endfacet
  facet normal 0 1 -0
    outer loop
      vertex 37.283 0 0
      vertex 35.3217 0 3
      vertex 37.283 0 3
    endloop
  endfacet
  facet normal 0 1 0
    outer loop
      vertex 35.3217 0 3
      vertex 37.283 0 0
      vertex 35.3217 0 0
    endloop
  endfacet
  facet normal 0 1 -0
    outer loop
      vertex 41.6574 0 0
      vertex 39.617 0 3
      vertex 41.6574 0 3
    endloop
  endfacet
  facet normal 0 1 0
    outer loop
      vertex 39.617 0 3
      vertex 41.6574 0 0
      vertex 39.617 0 0
    endloop
  endfacet
  facet normal 0 1 -0
    outer loop
      vertex 44.9962 0 0
      vertex 43.9914 0 3
      vertex 44.9962 0 3
    endloop
  endfacet
  facet normal 0 1 0
    outer loop
      vertex 43.9914 0 3
      vertex 44.9962 0 0
      vertex 43.9914 0 0
    endloop
  endfacet
  facet normal 0 1 0
    outer loop
      vertex 125 0 5
      vertex 48.022 0 3
      vertex 0 0 5
    endloop
  endfacet
  facet normal 0 1 -0
    outer loop
      vertex 135.25 0 0
      vertex 125 0 5
      vertex 135.25 0 0.5
    endloop
  endfacet
  facet normal 0 1 0
    outer loop
      vertex 125 0 5
      vertex 135.25 0 0
      vertex 48.022 0 0
    endloop
  endfacet
  facet normal 0 1 0
    outer loop
      vertex 125 0 5
      vertex 48.022 0 0
      vertex 48.022 0 3
    endloop
  endfacet
  facet normal 0 1 -0
    outer loop
      vertex 44.9962 0 3
      vertex 0 0 5
      vertex 48.022 0 3
    endloop
  endfacet
  facet normal 0 1 -0
    outer loop
      vertex 43.9914 0 3
      vertex 0 0 5
      vertex 44.9962 0 3
    endloop
  endfacet
  facet normal 0 1 -0
    outer loop
      vertex 41.6574 0 3
      vertex 0 0 5
      vertex 43.9914 0 3
    endloop
  endfacet
  facet normal 0 1 -0
    outer loop
      vertex 39.617 0 3
      vertex 0 0 5
      vertex 41.6574 0 3
    endloop
  endfacet
  facet normal 0 1 -0
    outer loop
      vertex 37.283 0 3
      vertex 0 0 5
      vertex 39.617 0 3
    endloop
  endfacet
  facet normal 0 1 -0
    outer loop
      vertex 35.3217 0 3
      vertex 0 0 5
      vertex 37.283 0 3
    endloop
  endfacet
  facet normal 0 1 -0
    outer loop
      vertex 32.9877 0 3
      vertex 0 0 5
      vertex 35.3217 0 3
    endloop
  endfacet
  facet normal 0 1 -0
    outer loop
      vertex 29.6047 0 3
      vertex 0 0 5
      vertex 32.9877 0 3
    endloop
  endfacet
  facet normal 0 1 -0
    outer loop
      vertex 27.2717 0 3
      vertex 0 0 5
      vertex 29.6047 0 3
    endloop
  endfacet
  facet normal 0 1 -0
    outer loop
      vertex 23.2736 0 3
      vertex 0 0 5
      vertex 27.2717 0 3
    endloop
  endfacet
  facet normal 0 1 -0
    outer loop
      vertex 20.9406 0 3
      vertex 0 0 5
      vertex 23.2736 0 3
    endloop
  endfacet
  facet normal 0 1 -0
    outer loop
      vertex 18.9613 0 3
      vertex 0 0 5
      vertex 20.9406 0 3
    endloop
  endfacet
  facet normal 0 1 -0
    outer loop
      vertex 16.6283 0 3
      vertex 0 0 5
      vertex 18.9613 0 3
    endloop
  endfacet
  facet normal 0 1 -0
    outer loop
      vertex 15.5306 0 3
      vertex 0 0 5
      vertex 16.6283 0 3
    endloop
  endfacet
  facet normal 0 1 -0
    outer loop
      vertex 12.3735 0 3
      vertex 0 0 5
      vertex 15.5306 0 3
    endloop
  endfacet
  facet normal 0 1 -0
    outer loop
      vertex 6.41599 0 3
      vertex 0 0 5
      vertex 12.3735 0 3
    endloop
  endfacet
  facet normal 0 1 -0
    outer loop
      vertex 3.91599 0 3
      vertex 0 0 5
      vertex 6.41599 0 3
    endloop
  endfacet
  facet normal 0 1 0
    outer loop
      vertex 0 0 0
      vertex 3.91599 0 3
      vertex 3.91599 0 0
    endloop
  endfacet
  facet normal 0 1 0
    outer loop
      vertex 3.91599 0 3
      vertex 0 0 0
      vertex 0 0 5
    endloop
  endfacet
  facet normal -1 0 0
    outer loop
      vertex 0 0 0
      vertex 0 -2.5 2.5
      vertex 0 0 5
    endloop
  endfacet
  facet normal -1 0 0
    outer loop
      vertex 0 -5 0
      vertex 0 -2.5 2.5
      vertex 0 0 0
    endloop
  endfacet
  facet normal -1 -0 0
    outer loop
      vertex 0 -2.5 2.5
      vertex 0 -5 0
      vertex 0 -5 2.5
    endloop
  endfacet
  facet normal -1 -0 0
    outer loop
      vertex 0 0 5
      vertex 0 -2.5 2.5
      vertex 0 -2.5 5
    endloop
  endfacet
  facet normal 0.402016 -0.915632 0
    outer loop
      vertex 125 -5 0
      vertex 130.694 -2.5 2.5
      vertex 125 -5 2.5
    endloop
  endfacet
  facet normal 0.40199 -0.915644 7.14649e-05
    outer loop
      vertex 135.25 -0.5 0
      vertex 130.694 -2.5 2.5
      vertex 125 -5 0
    endloop
  endfacet
  facet normal 0.401957 -0.915658 0
    outer loop
      vertex 130.694 -2.5 2.5
      vertex 135.25 -0.5 0
      vertex 135.25 -0.5 0.5
    endloop
  endfacet
  facet normal 0 0 -1
    outer loop
      vertex 18.9613 0 0
      vertex 16.4934 2.64313 0
      vertex 16.6283 3.37199 0
    endloop
  endfacet
  facet normal 0 0 -1
    outer loop
      vertex 16.6283 1.06599 0
      vertex 16.1117 2.08386 0
      vertex 16.4934 2.64313 0
    endloop
  endfacet
  facet normal 0 0 -1
    outer loop
      vertex 15.5175 1.72542 0
      vertex 16.6283 1.06599 0
      vertex 16.0962 0.417557 0
    endloop
  endfacet
  facet normal 0 0 -1
    outer loop
      vertex 15.5175 1.72542 0
      vertex 16.0962 0.417557 0
      vertex 15.5306 0 0
    endloop
  endfacet
  facet normal 0 0 -1
    outer loop
      vertex 16.6283 1.06599 0
      vertex 15.5175 1.72542 0
      vertex 16.1117 2.08386 0
    endloop
  endfacet
  facet normal 0 0 -1
    outer loop
      vertex 125 -5 0
      vertex 135.25 0 0
      vertex 135.25 -0.5 0
    endloop
  endfacet
  facet normal 0 0 -1
    outer loop
      vertex 125 -5 0
      vertex 48.022 0 0
      vertex 135.25 0 0
    endloop
  endfacet
  facet normal 0 0 -1
    outer loop
      vertex 50.2574 4.375 0
      vertex 47.7788 3.22101 0
      vertex 47.9244 4.342 0
    endloop
  endfacet
  facet normal 0 0 -1
    outer loop
      vertex 49.1866 0.973236 0
      vertex 47.3721 2.34312 0
      vertex 47.7788 3.22101 0
    endloop
  endfacet
  facet normal 0 0 -1
    outer loop
      vertex 48.022 0 0
      vertex 46.7499 1.77066 0
      vertex 47.3721 2.34312 0
    endloop
  endfacet
  facet normal 0 0 -1
    outer loop
      vertex 48.022 0 0
      vertex 45.9574 1.56599 0
      vertex 46.7499 1.77066 0
    endloop
  endfacet
  facet normal 0 0 -1
    outer loop
      vertex 44.9962 0 0
      vertex 45.9574 1.56599 0
      vertex 48.022 0 0
    endloop
  endfacet
  facet normal -0 0 -1
    outer loop
      vertex 45.9574 1.56599 0
      vertex 44.9962 0 0
      vertex 45.1583 1.76878 0
    endloop
  endfacet
  facet normal 0 0 -1
    outer loop
      vertex 0 -5 0
      vertex 48.022 0 0
      vertex 125 -5 0
    endloop
  endfacet
  facet normal -0 0 -1
    outer loop
      vertex 48.022 0 0
      vertex 0 -5 0
      vertex 44.9962 0 0
    endloop
  endfacet
  facet normal 0 0 -1
    outer loop
      vertex 41.6574 0 0
      vertex 43.9914 1.08199 0
      vertex 43.9914 0 0
    endloop
  endfacet
  facet normal -0 0 -1
    outer loop
      vertex 43.9914 1.08199 0
      vertex 41.6574 0 0
      vertex 43.9914 4.375 0
    endloop
  endfacet
  facet normal 0 0 -1
    outer loop
      vertex 41.6574 9.00099 0
      vertex 43.9914 4.375 0
      vertex 41.6574 0 0
    endloop
  endfacet
  facet normal 0 0 -1
    outer loop
      vertex 43.9914 4.375 0
      vertex 41.6574 9.00099 0
      vertex 43.9914 7.668 0
    endloop
  endfacet
  facet normal -0 0 -1
    outer loop
      vertex 44.9962 0 0
      vertex 0 -5 0
      vertex 43.9914 0 0
    endloop
  endfacet
  facet normal -0 0 -1
    outer loop
      vertex 43.9914 0 0
      vertex 0 -5 0
      vertex 41.6574 0 0
    endloop
  endfacet
  facet normal 0 0 -1
    outer loop
      vertex 39.617 0 0
      vertex 37.283 0 0
      vertex 39.617 9.008 0
    endloop
  endfacet
  facet normal -0 0 -1
    outer loop
      vertex 41.6574 0 0
      vertex 0 -5 0
      vertex 39.617 0 0
    endloop
  endfacet
  facet normal -0 0 -1
    outer loop
      vertex 39.617 0 0
      vertex 0 -5 0
      vertex 37.283 0 0
    endloop
  endfacet
  facet normal 0 0 -1
    outer loop
      vertex 32.9877 5.55099 0
      vertex 35.3217 6.03499 0
      vertex 35.3217 0 0
    endloop
  endfacet
  facet normal 0 0 -1
    outer loop
      vertex 32.8939 6.25378 0
      vertex 35.3217 6.03499 0
      vertex 32.9877 5.55099 0
    endloop
  endfacet
  facet normal 0 0 -1
    outer loop
      vertex 35.3217 6.03499 0
      vertex 32.8939 6.25378 0
      vertex 35.1198 7.3586 0
    endloop
  endfacet
  facet normal 0 0 -1
    outer loop
      vertex 32.9877 5.55099 0
      vertex 35.3217 0 0
      vertex 32.9877 0 0
    endloop
  endfacet
  facet normal -0 0 -1
    outer loop
      vertex 37.283 0 0
      vertex 0 -5 0
      vertex 35.3217 0 0
    endloop
  endfacet
  facet normal -0 0 -1
    outer loop
      vertex 35.3217 0 0
      vertex 0 -5 0
      vertex 32.9877 0 0
    endloop
  endfacet
  facet normal 0 0 -1
    outer loop
      vertex 27.2717 0 0
      vertex 29.6047 5.41399 0
      vertex 29.6047 0 0
    endloop
  endfacet
  facet normal 0 0 -1
    outer loop
      vertex 27.2717 9.02399 0
      vertex 29.6047 5.41399 0
      vertex 27.2717 0 0
    endloop
  endfacet
  facet normal 0 0 -1
    outer loop
      vertex 29.6047 5.41399 0
      vertex 27.2717 9.02399 0
      vertex 29.6047 7.70099 0
    endloop
  endfacet
  facet normal -0 0 -1
    outer loop
      vertex 32.9877 0 0
      vertex 0 -5 0
      vertex 29.6047 0 0
    endloop
  endfacet
  facet normal -0 0 -1
    outer loop
      vertex 29.6047 0 0
      vertex 0 -5 0
      vertex 27.2717 0 0
    endloop
  endfacet
  facet normal 0 0 -1
    outer loop
      vertex 20.9406 0 0
      vertex 23.2736 4.79599 0
      vertex 23.2736 0 0
    endloop
  endfacet
  facet normal 0 0 -1
    outer loop
      vertex 20.9406 9.02399 0
      vertex 23.2736 4.79599 0
      vertex 20.9406 0 0
    endloop
  endfacet
  facet normal 0 0 -1
    outer loop
      vertex 23.2736 4.79599 0
      vertex 20.9406 9.02399 0
      vertex 23.2736 7.23499 0
    endloop
  endfacet
  facet normal -0 0 -1
    outer loop
      vertex 27.2717 0 0
      vertex 0 -5 0
      vertex 23.2736 0 0
    endloop
  endfacet
  facet normal -0 0 -1
    outer loop
      vertex 23.2736 0 0
      vertex 0 -5 0
      vertex 20.9406 0 0
    endloop
  endfacet
  facet normal 0 0 -1
    outer loop
      vertex 16.6283 1.06599 0
      vertex 18.9613 0 0
      vertex 16.6283 0 0
    endloop
  endfacet
  facet normal -0 0 -1
    outer loop
      vertex 20.9406 0 0
      vertex 0 -5 0
      vertex 18.9613 0 0
    endloop
  endfacet
  facet normal -0 0 -1
    outer loop
      vertex 18.9613 0 0
      vertex 0 -5 0
      vertex 16.6283 0 0
    endloop
  endfacet
  facet normal 0 0 -1
    outer loop
      vertex 15.5306 0 0
      vertex 14.7453 1.599 0
      vertex 15.5175 1.72542 0
    endloop
  endfacet
  facet normal 0 0 -1
    outer loop
      vertex 15.5306 0 0
      vertex 14.0891 1.69957 0
      vertex 14.7453 1.599 0
    endloop
  endfacet
  facet normal 0 0 -1
    outer loop
      vertex 12.3735 0 0
      vertex 14.0891 1.69957 0
      vertex 15.5306 0 0
    endloop
  endfacet
  facet normal -0 0 -1
    outer loop
      vertex 13.6203 2.00237 0
      vertex 11.1131 1.41023 0
      vertex 13.3391 2.50897 0
    endloop
  endfacet
  facet normal 0 0 -1
    outer loop
      vertex 11.1131 1.41023 0
      vertex 13.6203 2.00237 0
      vertex 11.7009 0.430862 0
    endloop
  endfacet
  facet normal 0 0 -1
    outer loop
      vertex 11.7009 0.430862 0
      vertex 13.6203 2.00237 0
      vertex 12.3735 0 0
    endloop
  endfacet
  facet normal -0 0 -1
    outer loop
      vertex 14.0891 1.69957 0
      vertex 12.3735 0 0
      vertex 13.6203 2.00237 0
    endloop
  endfacet
  facet normal -0 0 -1
    outer loop
      vertex 16.6283 0 0
      vertex 0 -5 0
      vertex 15.5306 0 0
    endloop
  endfacet
  facet normal -0 0 -1
    outer loop
      vertex 15.5306 0 0
      vertex 0 -5 0
      vertex 12.3735 0 0
    endloop
  endfacet
  facet normal 0 0 -1
    outer loop
      vertex 6.41599 0 0
      vertex 3.91599 0 0
      vertex 6.41599 10.076 0
    endloop
  endfacet
  facet normal -0 0 -1
    outer loop
      vertex 12.3735 0 0
      vertex 0 -5 0
      vertex 6.41599 0 0
    endloop
  endfacet
  facet normal -0 0 -1
    outer loop
      vertex 6.41599 0 0
      vertex 0 -5 0
      vertex 3.91599 0 0
    endloop
  endfacet
  facet normal -0 0 -1
    outer loop
      vertex 3.91599 0 0
      vertex 0 -5 0
      vertex 0 0 0
    endloop
  endfacet
  facet normal 0 0 -1
    outer loop
      vertex 47.9244 4.342 0
      vertex 50.1908 5.3161 0
      vertex 50.2574 4.375 0
    endloop
  endfacet
  facet normal 0 0 -1
    outer loop
      vertex 47.7788 3.22101 0
      vertex 50.2574 4.375 0
      vertex 49.9736 2.48137 0
    endloop
  endfacet
  facet normal -0 0 -1
    outer loop
      vertex 50.1908 5.3161 0
      vertex 47.9244 4.342 0
      vertex 47.7836 5.51096 0
    endloop
  endfacet
  facet normal 0 0 -1
    outer loop
      vertex 50.1908 5.3161 0
      vertex 47.7836 5.51096 0
      vertex 49.9994 6.21661 0
    endloop
  endfacet
  facet normal 0 0 -1
    outer loop
      vertex 47.7788 3.22101 0
      vertex 49.9736 2.48137 0
      vertex 49.1866 0.973236 0
    endloop
  endfacet
  facet normal -0 0 -1
    outer loop
      vertex 49.9994 6.21661 0
      vertex 47.7836 5.51096 0
      vertex 49.6955 7.03632 0
    endloop
  endfacet
  facet normal 0 0 -1
    outer loop
      vertex 47.3849 6.4135 0
      vertex 49.6955 7.03632 0
      vertex 47.7836 5.51096 0
    endloop
  endfacet
  facet normal 0 0 -1
    outer loop
      vertex 47.3721 2.34312 0
      vertex 49.1866 0.973236 0
      vertex 48.022 0 0
    endloop
  endfacet
  facet normal -0 0 -1
    outer loop
      vertex 49.6955 7.03632 0
      vertex 47.3849 6.4135 0
      vertex 49.2914 7.73499 0
    endloop
  endfacet
  facet normal -0 0 -1
    outer loop
      vertex 49.2914 7.73499 0
      vertex 47.3849 6.4135 0
      vertex 48.7531 8.31499 0
    endloop
  endfacet
  facet normal 0 0 -1
    outer loop
      vertex 46.7642 6.99503 0
      vertex 48.7531 8.31499 0
      vertex 47.3849 6.4135 0
    endloop
  endfacet
  facet normal -0 0 -1
    outer loop
      vertex 48.7531 8.31499 0
      vertex 46.7642 6.99503 0
      vertex 48.0725 8.76224 0
    endloop
  endfacet
  facet normal -0 0 -1
    outer loop
      vertex 48.0725 8.76224 0
      vertex 46.7642 6.99503 0
      vertex 47.3014 9.05011 0
    endloop
  endfacet
  facet normal 0 0 -1
    outer loop
      vertex 46.7642 6.99503 0
      vertex 46.4914 9.15199 0
      vertex 47.3014 9.05011 0
    endloop
  endfacet
  facet normal 0 0 -1
    outer loop
      vertex 45.9574 7.20099 0
      vertex 46.4914 9.15199 0
      vertex 46.7642 6.99503 0
    endloop
  endfacet
  facet normal 0 0 -1
    outer loop
      vertex 45.9574 7.20099 0
      vertex 45.702 9.06075 0
      vertex 46.4914 9.15199 0
    endloop
  endfacet
  facet normal 0 0 -1
    outer loop
      vertex 45.0284 8.78499 0
      vertex 45.9574 7.20099 0
      vertex 45.1583 6.99554 0
    endloop
  endfacet
  facet normal 0 0 -1
    outer loop
      vertex 45.9574 7.20099 0
      vertex 45.0284 8.78499 0
      vertex 45.702 9.06075 0
    endloop
  endfacet
  facet normal 0 0 -1
    outer loop
      vertex 43.9914 7.668 0
      vertex 45.1583 6.99554 0
      vertex 44.5372 6.41762 0
    endloop
  endfacet
  facet normal 0 0 -1
    outer loop
      vertex 45.1583 6.99554 0
      vertex 44.4613 8.32175 0
      vertex 45.0284 8.78499 0
    endloop
  endfacet
  facet normal 0 0 -1
    outer loop
      vertex 43.9914 7.668 0
      vertex 44.5372 6.41762 0
      vertex 44.1346 5.52489 0
    endloop
  endfacet
  facet normal 0 0 -1
    outer loop
      vertex 43.9914 7.668 0
      vertex 44.1346 5.52489 0
      vertex 43.9914 4.375 0
    endloop
  endfacet
  facet normal 0 0 -1
    outer loop
      vertex 45.1583 6.99554 0
      vertex 43.9914 7.668 0
      vertex 44.4613 8.32175 0
    endloop
  endfacet
  facet normal 0 0 -1
    outer loop
      vertex 44.4613 0.431061 0
      vertex 45.1583 1.76878 0
      vertex 44.9962 0 0
    endloop
  endfacet
  facet normal 0 0 -1
    outer loop
      vertex 43.9914 1.08199 0
      vertex 45.1583 1.76878 0
      vertex 44.4613 0.431061 0
    endloop
  endfacet
  facet normal -0 0 -1
    outer loop
      vertex 45.1583 1.76878 0
      vertex 43.9914 1.08199 0
      vertex 44.5372 2.34087 0
    endloop
  endfacet
  facet normal -0 0 -1
    outer loop
      vertex 44.5372 2.34087 0
      vertex 43.9914 1.08199 0
      vertex 44.1346 3.22775 0
    endloop
  endfacet
  facet normal -0 0 -1
    outer loop
      vertex 44.1346 3.22775 0
      vertex 43.9914 1.08199 0
      vertex 43.9914 4.375 0
    endloop
  endfacet
  facet normal 0 0 -1
    outer loop
      vertex 43.9914 7.668 0
      vertex 41.6574 9.00099 0
      vertex 43.9914 9.00099 0
    endloop
  endfacet
  facet normal -0 0 -1
    outer loop
      vertex 39.617 9.008 0
      vertex 37.283 0 0
      vertex 37.283 9.008 0
    endloop
  endfacet
  facet normal 0 0 -1
    outer loop
      vertex 32.6127 6.75961 0
      vertex 35.1198 7.3586 0
      vertex 32.8939 6.25378 0
    endloop
  endfacet
  facet normal -0 0 -1
    outer loop
      vertex 35.1198 7.3586 0
      vertex 32.6127 6.75961 0
      vertex 34.532 8.33711 0
    endloop
  endfacet
  facet normal -0 0 -1
    outer loop
      vertex 34.532 8.33711 0
      vertex 32.6127 6.75961 0
      vertex 33.5848 8.94382 0
    endloop
  endfacet
  facet normal 0 0 -1
    outer loop
      vertex 32.1439 7.06538 0
      vertex 33.5848 8.94382 0
      vertex 32.6127 6.75961 0
    endloop
  endfacet
  facet normal -0 0 -1
    outer loop
      vertex 33.5848 8.94382 0
      vertex 32.1439 7.06538 0
      vertex 32.3047 9.15199 0
    endloop
  endfacet
  facet normal 0 0 -1
    outer loop
      vertex 31.4632 9.0659 0
      vertex 32.1439 7.06538 0
      vertex 31.4877 7.168 0
    endloop
  endfacet
  facet normal 0 0 -1
    outer loop
      vertex 32.1439 7.06538 0
      vertex 31.4632 9.0659 0
      vertex 32.3047 9.15199 0
    endloop
  endfacet
  facet normal 0 0 -1
    outer loop
      vertex 31.4877 7.168 0
      vertex 30.7484 8.8015 0
      vertex 31.4632 9.0659 0
    endloop
  endfacet
  facet normal 0 0 -1
    outer loop
      vertex 30.7155 7.04214 0
      vertex 30.7484 8.8015 0
      vertex 31.4877 7.168 0
    endloop
  endfacet
  facet normal 0 0 -1
    outer loop
      vertex 30.7155 7.04214 0
      vertex 30.1368 8.34958 0
      vertex 30.7484 8.8015 0
    endloop
  endfacet
  facet normal 0 0 -1
    outer loop
      vertex 29.6047 7.70099 0
      vertex 30.7155 7.04214 0
      vertex 30.1213 6.68625 0
    endloop
  endfacet
  facet normal 0 0 -1
    outer loop
      vertex 29.6047 7.70099 0
      vertex 30.1213 6.68625 0
      vertex 29.7396 6.13271 0
    endloop
  endfacet
  facet normal 0 0 -1
    outer loop
      vertex 29.6047 7.70099 0
      vertex 29.7396 6.13271 0
      vertex 29.6047 5.41399 0
    endloop
  endfacet
  facet normal 0 0 -1
    outer loop
      vertex 30.7155 7.04214 0
      vertex 29.6047 7.70099 0
      vertex 30.1368 8.34958 0
    endloop
  endfacet
  facet normal 0 0 -1
    outer loop
      vertex 29.6047 7.70099 0
      vertex 27.2717 9.02399 0
      vertex 29.6047 9.02399 0
    endloop
  endfacet
  facet normal 0 0 -1
    outer loop
      vertex 25.8439 6.79956 0
      vertex 26.0566 9.13499 0
      vertex 26.0566 6.76799 0
    endloop
  endfacet
  facet normal -0 0 -1
    outer loop
      vertex 26.0566 9.13499 0
      vertex 25.8439 6.79956 0
      vertex 25.9657 9.14482 0
    endloop
  endfacet
  facet normal 0 0 -1
    outer loop
      vertex 25.6654 6.82024 0
      vertex 25.9657 9.14482 0
      vertex 25.8439 6.79956 0
    endloop
  endfacet
  facet normal -0 0 -1
    outer loop
      vertex 25.9657 9.14482 0
      vertex 25.6654 6.82024 0
      vertex 25.8904 9.14987 0
    endloop
  endfacet
  facet normal -0 0 -1
    outer loop
      vertex 25.8904 9.14987 0
      vertex 25.6654 6.82024 0
      vertex 25.8274 9.15173 0
    endloop
  endfacet
  facet normal -0 0 -1
    outer loop
      vertex 25.8274 9.15173 0
      vertex 25.6654 6.82024 0
      vertex 25.7736 9.15199 0
    endloop
  endfacet
  facet normal 0 0 -1
    outer loop
      vertex 25.4992 6.83156 0
      vertex 25.7736 9.15199 0
      vertex 25.6654 6.82024 0
    endloop
  endfacet
  facet normal 0 0 -1
    outer loop
      vertex 25.0032 9.02347 0
      vertex 25.4992 6.83156 0
      vertex 25.3236 6.83499 0
    endloop
  endfacet
  facet normal 0 0 -1
    outer loop
      vertex 25.4992 6.83156 0
      vertex 25.0032 9.02347 0
      vertex 25.7736 9.15199 0
    endloop
  endfacet
  facet normal 0 0 -1
    outer loop
      vertex 24.311 8.64949 0
      vertex 25.3236 6.83499 0
      vertex 24.4266 6.70694 0
    endloop
  endfacet
  facet normal 0 0 -1
    outer loop
      vertex 25.3236 6.83499 0
      vertex 24.311 8.64949 0
      vertex 25.0032 9.02347 0
    endloop
  endfacet
  facet normal 0 0 -1
    outer loop
      vertex 23.2736 7.23499 0
      vertex 24.4266 6.70694 0
      vertex 23.786 6.32362 0
    endloop
  endfacet
  facet normal 0 0 -1
    outer loop
      vertex 24.4266 6.70694 0
      vertex 23.7251 8.04753 0
      vertex 24.311 8.64949 0
    endloop
  endfacet
  facet normal 0 0 -1
    outer loop
      vertex 23.2736 7.23499 0
      vertex 23.786 6.32362 0
      vertex 23.4017 5.68623 0
    endloop
  endfacet
  facet normal 0 0 -1
    outer loop
      vertex 23.2736 7.23499 0
      vertex 23.4017 5.68623 0
      vertex 23.2736 4.79599 0
    endloop
  endfacet
  facet normal 0 0 -1
    outer loop
      vertex 24.4266 6.70694 0
      vertex 23.2736 7.23499 0
      vertex 23.7251 8.04753 0
    endloop
  endfacet
  facet normal 0 0 -1
    outer loop
      vertex 23.2736 7.23499 0
      vertex 20.9406 9.02399 0
      vertex 23.2736 9.02399 0
    endloop
  endfacet
  facet normal 0 0 -1
    outer loop
      vertex 16.4934 2.64313 0
      vertex 18.9613 0 0
      vertex 16.6283 1.06599 0
    endloop
  endfacet
  facet normal 0 0 -1
    outer loop
      vertex 18.9613 0 0
      vertex 16.6283 3.37199 0
      vertex 18.9613 9.02399 0
    endloop
  endfacet
  facet normal -0 0 -1
    outer loop
      vertex 18.9613 9.02399 0
      vertex 16.6283 3.37199 0
      vertex 16.6283 9.02399 0
    endloop
  endfacet
  facet normal 0 0 -1
    outer loop
      vertex 10.9113 2.73599 0
      vertex 13.3391 2.50897 0
      vertex 11.1131 1.41023 0
    endloop
  endfacet
  facet normal 0 0 -1
    outer loop
      vertex 13.3391 2.50897 0
      vertex 10.9113 2.73599 0
      vertex 13.2453 3.22099 0
    endloop
  endfacet
  facet normal 0 0 -1
    outer loop
      vertex 10.9113 9.02399 0
      vertex 13.2453 3.22099 0
      vertex 10.9113 2.73599 0
    endloop
  endfacet
  facet normal 0 0 -1
    outer loop
      vertex 13.2453 3.22099 0
      vertex 10.9113 9.02399 0
      vertex 13.2453 9.02399 0
    endloop
  endfacet
  facet normal 0 0 -1
    outer loop
      vertex 6.41599 10.076 0
      vertex 9.96599 12.16 0
      vertex 9.96599 10.076 0
    endloop
  endfacet
  facet normal 0 0 -1
    outer loop
      vertex 3.91599 10.076 0
      vertex 6.41599 10.076 0
      vertex 3.91599 0 0
    endloop
  endfacet
  facet normal 0 0 -1
    outer loop
      vertex 3.91599 10.076 0
      vertex 9.96599 12.16 0
      vertex 6.41599 10.076 0
    endloop
  endfacet
  facet normal 0 0 -1
    outer loop
      vertex 0.232986 12.16 0
      vertex 3.91599 10.076 0
      vertex 0.232986 10.076 0
    endloop
  endfacet
  facet normal 0 0 -1
    outer loop
      vertex 3.91599 10.076 0
      vertex 0.232986 12.16 0
      vertex 9.96599 12.16 0
    endloop
  endfacet
  facet normal 0.401957 0 0.915658
    outer loop
      vertex 135.25 0 0.5
      vertex 130.694 -2.5 2.5
      vertex 135.25 -0.5 0.5
    endloop
  endfacet
  facet normal 0.40199 -7.14649e-05 0.915644
    outer loop
      vertex 125 0 5
      vertex 130.694 -2.5 2.5
      vertex 135.25 0 0.5
    endloop
  endfacet
  facet normal 0.402016 0 0.915632
    outer loop
      vertex 130.694 -2.5 2.5
      vertex 125 0 5
      vertex 125 -2.5 5
    endloop
  endfacet
  facet normal 0 0 1
    outer loop
      vertex 41.6574 -2.5 2.5
      vertex 0 -2.5 2.5
      vertex 41.6574 -3.59799 2.5
    endloop
  endfacet
  facet normal -0 0 1
    outer loop
      vertex 43.9914 -2.5 2.5
      vertex 125 -5 2.5
      vertex 130.694 -2.5 2.5
    endloop
  endfacet
  facet normal -0 0 1
    outer loop
      vertex 43.9914 -3.59799 2.5
      vertex 125 -5 2.5
      vertex 43.9914 -2.5 2.5
    endloop
  endfacet
  facet normal 0 0 1
    outer loop
      vertex 0 -5 2.5
      vertex 43.9914 -3.59799 2.5
      vertex 41.6574 -3.59799 2.5
    endloop
  endfacet
  facet normal 0 0 1
    outer loop
      vertex 43.9914 -3.59799 2.5
      vertex 0 -5 2.5
      vertex 125 -5 2.5
    endloop
  endfacet
  facet normal 0 0 1
    outer loop
      vertex 0 -5 2.5
      vertex 41.6574 -3.59799 2.5
      vertex 0 -2.5 2.5
    endloop
  endfacet
  facet normal 0 -1 0
    outer loop
      vertex 43.9914 -2.5 3
      vertex 0 -2.5 5
      vertex 41.6574 -2.5 3
    endloop
  endfacet
  facet normal 0 -1 0
    outer loop
      vertex 0 -2.5 2.5
      vertex 41.6574 -2.5 3
      vertex 0 -2.5 5
    endloop
  endfacet
  facet normal 0 -1 -0
    outer loop
      vertex 41.6574 -2.5 3
      vertex 0 -2.5 2.5
      vertex 41.6574 -2.5 2.5
    endloop
  endfacet
  facet normal 0 -1 0
    outer loop
      vertex 0 -2.5 5
      vertex 43.9914 -2.5 3
      vertex 125 -2.5 5
    endloop
  endfacet
  facet normal 0 -1 0
    outer loop
      vertex 43.9914 -2.5 2.5
      vertex 125 -2.5 5
      vertex 43.9914 -2.5 3
    endloop
  endfacet
  facet normal 0 -1 -0
    outer loop
      vertex 125 -2.5 5
      vertex 43.9914 -2.5 2.5
      vertex 130.694 -2.5 2.5
    endloop
  endfacet
  facet normal 0 0 -1
    outer loop
      vertex 37.283 10.076 0
      vertex 39.617 12.16 0
      vertex 39.617 10.076 0
    endloop
  endfacet
  facet normal -0 0 -1
    outer loop
      vertex 39.617 12.16 0
      vertex 37.283 10.076 0
      vertex 37.283 12.16 0
    endloop
  endfacet
  facet normal -0 0 1
    outer loop
      vertex 20.9406 9.02399 3
      vertex 23.2736 7.23499 3
      vertex 23.2736 9.02399 3
    endloop
  endfacet
  facet normal 0 0 1
    outer loop
      vertex 23.2736 7.23499 3
      vertex 20.9406 9.02399 3
      vertex 23.2736 4.79599 3
    endloop
  endfacet
  facet normal 0 0 1
    outer loop
      vertex 20.9406 0 3
      vertex 23.2736 4.79599 3
      vertex 20.9406 9.02399 3
    endloop
  endfacet
  facet normal 0 0 1
    outer loop
      vertex 23.2736 4.79599 3
      vertex 20.9406 0 3
      vertex 23.2736 0 3
    endloop
  endfacet
  facet normal 0 0 1
    outer loop
      vertex 25.8439 6.79956 3
      vertex 26.0566 9.13499 3
      vertex 25.9657 9.14482 3
    endloop
  endfacet
  facet normal 0 0 1
    outer loop
      vertex 25.6654 6.82024 3
      vertex 25.9657 9.14482 3
      vertex 25.8904 9.14987 3
    endloop
  endfacet
  facet normal 0 0 1
    outer loop
      vertex 26.0566 9.13499 3
      vertex 25.8439 6.79956 3
      vertex 26.0566 6.76799 3
    endloop
  endfacet
  facet normal 0 0 1
    outer loop
      vertex 25.6654 6.82024 3
      vertex 25.8904 9.14987 3
      vertex 25.8274 9.15173 3
    endloop
  endfacet
  facet normal 0 0 1
    outer loop
      vertex 25.6654 6.82024 3
      vertex 25.8274 9.15173 3
      vertex 25.7736 9.15199 3
    endloop
  endfacet
  facet normal 0 0 1
    outer loop
      vertex 25.9657 9.14482 3
      vertex 25.6654 6.82024 3
      vertex 25.8439 6.79956 3
    endloop
  endfacet
  facet normal 0 0 1
    outer loop
      vertex 25.7736 9.15199 3
      vertex 25.4992 6.83156 3
      vertex 25.6654 6.82024 3
    endloop
  endfacet
  facet normal -0 0 1
    outer loop
      vertex 25.0032 9.02347 3
      vertex 25.4992 6.83156 3
      vertex 25.7736 9.15199 3
    endloop
  endfacet
  facet normal 0 0 1
    outer loop
      vertex 25.4992 6.83156 3
      vertex 25.0032 9.02347 3
      vertex 25.3236 6.83499 3
    endloop
  endfacet
  facet normal -0 0 1
    outer loop
      vertex 24.311 8.64949 3
      vertex 25.3236 6.83499 3
      vertex 25.0032 9.02347 3
    endloop
  endfacet
  facet normal 0 0 1
    outer loop
      vertex 25.3236 6.83499 3
      vertex 24.311 8.64949 3
      vertex 24.4266 6.70694 3
    endloop
  endfacet
  facet normal -0 0 1
    outer loop
      vertex 23.7251 8.04753 3
      vertex 24.4266 6.70694 3
      vertex 24.311 8.64949 3
    endloop
  endfacet
  facet normal -0 0 1
    outer loop
      vertex 23.2736 7.23499 3
      vertex 24.4266 6.70694 3
      vertex 23.7251 8.04753 3
    endloop
  endfacet
  facet normal 0 0 1
    outer loop
      vertex 24.4266 6.70694 3
      vertex 23.2736 7.23499 3
      vertex 23.786 6.32362 3
    endloop
  endfacet
  facet normal 0 0 1
    outer loop
      vertex 23.786 6.32362 3
      vertex 23.2736 7.23499 3
      vertex 23.4017 5.68623 3
    endloop
  endfacet
  facet normal 0 0 1
    outer loop
      vertex 23.4017 5.68623 3
      vertex 23.2736 7.23499 3
      vertex 23.2736 4.79599 3
    endloop
  endfacet
  facet normal 0 0 1
    outer loop
      vertex 9.96599 12.16 3
      vertex 6.41599 10.076 3
      vertex 9.96599 10.076 3
    endloop
  endfacet
  facet normal 0 0 1
    outer loop
      vertex 6.41599 10.076 3
      vertex 3.91599 10.076 3
      vertex 6.41599 0 3
    endloop
  endfacet
  facet normal 0 0 1
    outer loop
      vertex 9.96599 12.16 3
      vertex 3.91599 10.076 3
      vertex 6.41599 10.076 3
    endloop
  endfacet
  facet normal -0 0 1
    outer loop
      vertex 0.232986 12.16 3
      vertex 3.91599 10.076 3
      vertex 9.96599 12.16 3
    endloop
  endfacet
  facet normal 0 0 1
    outer loop
      vertex 3.91599 10.076 3
      vertex 0.232986 12.16 3
      vertex 0.232986 10.076 3
    endloop
  endfacet
  facet normal 0 0 1
    outer loop
      vertex 6.41599 0 3
      vertex 3.91599 10.076 3
      vertex 3.91599 0 3
    endloop
  endfacet
  facet normal -0 0 1
    outer loop
      vertex 41.6574 9.00099 3
      vertex 43.9914 7.668 3
      vertex 43.9914 9.00099 3
    endloop
  endfacet
  facet normal 0 0 1
    outer loop
      vertex 43.9914 7.668 3
      vertex 41.6574 9.00099 3
      vertex 43.9914 4.375 3
    endloop
  endfacet
  facet normal 0 0 1
    outer loop
      vertex 41.6574 0 3
      vertex 43.9914 4.375 3
      vertex 41.6574 9.00099 3
    endloop
  endfacet
  facet normal 0 0 1
    outer loop
      vertex 43.9914 4.375 3
      vertex 41.6574 0 3
      vertex 43.9914 1.08199 3
    endloop
  endfacet
  facet normal 0 0 1
    outer loop
      vertex 43.9914 1.08199 3
      vertex 41.6574 0 3
      vertex 43.9914 0 3
    endloop
  endfacet
  facet normal -0 0 1
    outer loop
      vertex 47.7836 5.51096 3
      vertex 50.1908 5.3161 3
      vertex 49.9994 6.21661 3
    endloop
  endfacet
  facet normal 0 -0 1
    outer loop
      vertex 47.9244 4.342 3
      vertex 50.1908 5.3161 3
      vertex 47.7836 5.51096 3
    endloop
  endfacet
  facet normal 0 0 1
    outer loop
      vertex 47.7836 5.51096 3
      vertex 49.9994 6.21661 3
      vertex 49.6955 7.03632 3
    endloop
  endfacet
  facet normal 0 0 1
    outer loop
      vertex 47.3849 6.4135 3
      vertex 49.6955 7.03632 3
      vertex 49.2914 7.73499 3
    endloop
  endfacet
  facet normal 0 0 1
    outer loop
      vertex 47.7788 3.22101 3
      vertex 50.2574 4.375 3
      vertex 47.9244 4.342 3
    endloop
  endfacet
  facet normal 0 0 1
    outer loop
      vertex 47.3849 6.4135 3
      vertex 49.2914 7.73499 3
      vertex 48.7531 8.31499 3
    endloop
  endfacet
  facet normal 0 0 1
    outer loop
      vertex 46.7642 6.99503 3
      vertex 48.7531 8.31499 3
      vertex 48.0725 8.76224 3
    endloop
  endfacet
  facet normal 0 0 1
    outer loop
      vertex 50.2574 4.375 3
      vertex 47.7788 3.22101 3
      vertex 49.9736 2.48137 3
    endloop
  endfacet
  facet normal 0 0 1
    outer loop
      vertex 47.3721 2.34312 3
      vertex 49.9736 2.48137 3
      vertex 47.7788 3.22101 3
    endloop
  endfacet
  facet normal 0 0 1
    outer loop
      vertex 50.1908 5.3161 3
      vertex 47.9244 4.342 3
      vertex 50.2574 4.375 3
    endloop
  endfacet
  facet normal 0 0 1
    outer loop
      vertex 49.6955 7.03632 3
      vertex 47.3849 6.4135 3
      vertex 47.7836 5.51096 3
    endloop
  endfacet
  facet normal 0 0 1
    outer loop
      vertex 46.7642 6.99503 3
      vertex 48.0725 8.76224 3
      vertex 47.3014 9.05011 3
    endloop
  endfacet
  facet normal 0 0 1
    outer loop
      vertex 48.7531 8.31499 3
      vertex 46.7642 6.99503 3
      vertex 47.3849 6.4135 3
    endloop
  endfacet
  facet normal 0 0 1
    outer loop
      vertex 46.4914 9.15199 3
      vertex 46.7642 6.99503 3
      vertex 47.3014 9.05011 3
    endloop
  endfacet
  facet normal 0 0 1
    outer loop
      vertex 46.4914 9.15199 3
      vertex 45.9574 7.20099 3
      vertex 46.7642 6.99503 3
    endloop
  endfacet
  facet normal -0 0 1
    outer loop
      vertex 45.702 9.06075 3
      vertex 45.9574 7.20099 3
      vertex 46.4914 9.15199 3
    endloop
  endfacet
  facet normal -0 0 1
    outer loop
      vertex 45.0284 8.78499 3
      vertex 45.9574 7.20099 3
      vertex 45.702 9.06075 3
    endloop
  endfacet
  facet normal 0 0 1
    outer loop
      vertex 45.9574 7.20099 3
      vertex 45.0284 8.78499 3
      vertex 45.1583 6.99554 3
    endloop
  endfacet
  facet normal -0 0 1
    outer loop
      vertex 44.4613 8.32175 3
      vertex 45.1583 6.99554 3
      vertex 45.0284 8.78499 3
    endloop
  endfacet
  facet normal -0 0 1
    outer loop
      vertex 43.9914 7.668 3
      vertex 45.1583 6.99554 3
      vertex 44.4613 8.32175 3
    endloop
  endfacet
  facet normal 0 0 1
    outer loop
      vertex 45.1583 6.99554 3
      vertex 43.9914 7.668 3
      vertex 44.5372 6.41762 3
    endloop
  endfacet
  facet normal 0 0 1
    outer loop
      vertex 44.5372 6.41762 3
      vertex 43.9914 7.668 3
      vertex 44.1346 5.52489 3
    endloop
  endfacet
  facet normal 0 0 1
    outer loop
      vertex 44.1346 5.52489 3
      vertex 43.9914 7.668 3
      vertex 43.9914 4.375 3
    endloop
  endfacet
  facet normal 0 0 1
    outer loop
      vertex 49.9736 2.48137 3
      vertex 47.3721 2.34312 3
      vertex 49.1866 0.973236 3
    endloop
  endfacet
  facet normal 0 0 1
    outer loop
      vertex 49.1866 0.973236 3
      vertex 47.3721 2.34312 3
      vertex 48.022 0 3
    endloop
  endfacet
  facet normal -0 0 1
    outer loop
      vertex 46.7499 1.77066 3
      vertex 48.022 0 3
      vertex 47.3721 2.34312 3
    endloop
  endfacet
  facet normal -0 0 1
    outer loop
      vertex 45.9574 1.56599 3
      vertex 48.022 0 3
      vertex 46.7499 1.77066 3
    endloop
  endfacet
  facet normal 0 0 1
    outer loop
      vertex 44.9962 0 3
      vertex 45.9574 1.56599 3
      vertex 45.1583 1.76878 3
    endloop
  endfacet
  facet normal 0 0 1
    outer loop
      vertex 45.9574 1.56599 3
      vertex 44.9962 0 3
      vertex 48.022 0 3
    endloop
  endfacet
  facet normal 0 0 1
    outer loop
      vertex 43.9914 1.08199 3
      vertex 45.1583 1.76878 3
      vertex 44.5372 2.34087 3
    endloop
  endfacet
  facet normal 0 0 1
    outer loop
      vertex 45.1583 1.76878 3
      vertex 44.4613 0.431061 3
      vertex 44.9962 0 3
    endloop
  endfacet
  facet normal 0 0 1
    outer loop
      vertex 43.9914 1.08199 3
      vertex 44.5372 2.34087 3
      vertex 44.1346 3.22775 3
    endloop
  endfacet
  facet normal 0 0 1
    outer loop
      vertex 43.9914 1.08199 3
      vertex 44.1346 3.22775 3
      vertex 43.9914 4.375 3
    endloop
  endfacet
  facet normal 0 0 1
    outer loop
      vertex 45.1583 1.76878 3
      vertex 43.9914 1.08199 3
      vertex 44.4613 0.431061 3
    endloop
  endfacet
  facet normal -0 0 1
    outer loop
      vertex 41.6574 -2.5 3
      vertex 43.9914 -3.59799 3
      vertex 43.9914 -2.5 3
    endloop
  endfacet
  facet normal 0 0 1
    outer loop
      vertex 43.9914 -3.59799 3
      vertex 41.6574 -2.5 3
      vertex 41.6574 -3.59799 3
    endloop
  endfacet
  facet normal -0 0 1
    outer loop
      vertex 37.283 12.16 3
      vertex 39.617 10.076 3
      vertex 39.617 12.16 3
    endloop
  endfacet
  facet normal 0 0 1
    outer loop
      vertex 39.617 10.076 3
      vertex 37.283 12.16 3
      vertex 37.283 10.076 3
    endloop
  endfacet
  facet normal -0 0 1
    outer loop
      vertex 27.2717 9.02399 3
      vertex 29.6047 7.70099 3
      vertex 29.6047 9.02399 3
    endloop
  endfacet
  facet normal 0 0 1
    outer loop
      vertex 29.6047 7.70099 3
      vertex 27.2717 9.02399 3
      vertex 29.6047 5.41399 3
    endloop
  endfacet
  facet normal 0 0 1
    outer loop
      vertex 27.2717 0 3
      vertex 29.6047 5.41399 3
      vertex 27.2717 9.02399 3
    endloop
  endfacet
  facet normal 0 0 1
    outer loop
      vertex 29.6047 5.41399 3
      vertex 27.2717 0 3
      vertex 29.6047 0 3
    endloop
  endfacet
  facet normal 0 0 1
    outer loop
      vertex 35.3217 6.03499 3
      vertex 32.8939 6.25378 3
      vertex 32.9877 5.55099 3
    endloop
  endfacet
  facet normal 0 0 1
    outer loop
      vertex 34.532 8.33711 3
      vertex 32.6127 6.75961 3
      vertex 32.8939 6.25378 3
    endloop
  endfacet
  facet normal 0 0 1
    outer loop
      vertex 32.1439 7.06538 3
      vertex 33.5848 8.94382 3
      vertex 32.3047 9.15199 3
    endloop
  endfacet
  facet normal 0 0 1
    outer loop
      vertex 33.5848 8.94382 3
      vertex 32.1439 7.06538 3
      vertex 32.6127 6.75961 3
    endloop
  endfacet
  facet normal -0 0 1
    outer loop
      vertex 31.4632 9.0659 3
      vertex 32.1439 7.06538 3
      vertex 32.3047 9.15199 3
    endloop
  endfacet
  facet normal 0 0 1
    outer loop
      vertex 32.1439 7.06538 3
      vertex 31.4632 9.0659 3
      vertex 31.4877 7.168 3
    endloop
  endfacet
  facet normal -0 0 1
    outer loop
      vertex 30.7484 8.8015 3
      vertex 31.4877 7.168 3
      vertex 31.4632 9.0659 3
    endloop
  endfacet
  facet normal 0 0 1
    outer loop
      vertex 30.7484 8.8015 3
      vertex 30.7155 7.04214 3
      vertex 31.4877 7.168 3
    endloop
  endfacet
  facet normal -0 0 1
    outer loop
      vertex 30.1368 8.34958 3
      vertex 30.7155 7.04214 3
      vertex 30.7484 8.8015 3
    endloop
  endfacet
  facet normal -0 0 1
    outer loop
      vertex 29.6047 7.70099 3
      vertex 30.7155 7.04214 3
      vertex 30.1368 8.34958 3
    endloop
  endfacet
  facet normal 0 0 1
    outer loop
      vertex 30.7155 7.04214 3
      vertex 29.6047 7.70099 3
      vertex 30.1213 6.68625 3
    endloop
  endfacet
  facet normal 0 0 1
    outer loop
      vertex 30.1213 6.68625 3
      vertex 29.6047 7.70099 3
      vertex 29.7396 6.13271 3
    endloop
  endfacet
  facet normal 0 0 1
    outer loop
      vertex 29.7396 6.13271 3
      vertex 29.6047 7.70099 3
      vertex 29.6047 5.41399 3
    endloop
  endfacet
  facet normal -0 0 1
    outer loop
      vertex 32.8939 6.25378 3
      vertex 35.3217 6.03499 3
      vertex 35.1198 7.3586 3
    endloop
  endfacet
  facet normal 0 0 1
    outer loop
      vertex 32.8939 6.25378 3
      vertex 35.1198 7.3586 3
      vertex 34.532 8.33711 3
    endloop
  endfacet
  facet normal 0 0 1
    outer loop
      vertex 32.6127 6.75961 3
      vertex 34.532 8.33711 3
      vertex 33.5848 8.94382 3
    endloop
  endfacet
  facet normal 0 0 1
    outer loop
      vertex 35.3217 6.03499 3
      vertex 32.9877 5.55099 3
      vertex 35.3217 0 3
    endloop
  endfacet
  facet normal 0 0 1
    outer loop
      vertex 35.3217 0 3
      vertex 32.9877 5.55099 3
      vertex 32.9877 0 3
    endloop
  endfacet
  facet normal -0 0 1
    outer loop
      vertex 10.9113 9.02399 3
      vertex 13.2453 3.22099 3
      vertex 13.2453 9.02399 3
    endloop
  endfacet
  facet normal 0 -0 1
    outer loop
      vertex 11.1131 1.41023 3
      vertex 13.2453 3.22099 3
      vertex 10.9113 2.73599 3
    endloop
  endfacet
  facet normal 0 -0 1
    outer loop
      vertex 11.7009 0.430862 3
      vertex 13.2453 3.22099 3
      vertex 11.1131 1.41023 3
    endloop
  endfacet
  facet normal 0 0 1
    outer loop
      vertex 13.2453 3.22099 3
      vertex 10.9113 9.02399 3
      vertex 10.9113 2.73599 3
    endloop
  endfacet
  facet normal 0 0 1
    outer loop
      vertex 13.2453 3.22099 3
      vertex 11.7009 0.430862 3
      vertex 12.3735 0 3
    endloop
  endfacet
  facet normal 0 0 1
    outer loop
      vertex 18.9613 0 3
      vertex 16.4934 2.64313 3
      vertex 16.6283 1.06599 3
    endloop
  endfacet
  facet normal -0 0 1
    outer loop
      vertex 16.1117 2.08386 3
      vertex 16.6283 1.06599 3
      vertex 16.4934 2.64313 3
    endloop
  endfacet
  facet normal -0 0 1
    outer loop
      vertex 15.5175 1.72542 3
      vertex 16.6283 1.06599 3
      vertex 16.1117 2.08386 3
    endloop
  endfacet
  facet normal 0 0 1
    outer loop
      vertex 16.6283 1.06599 3
      vertex 15.5175 1.72542 3
      vertex 16.0962 0.417557 3
    endloop
  endfacet
  facet normal 0 0 1
    outer loop
      vertex 16.0962 0.417557 3
      vertex 15.5175 1.72542 3
      vertex 15.5306 0 3
    endloop
  endfacet
  facet normal -0 0 1
    outer loop
      vertex 14.7453 1.599 3
      vertex 15.5306 0 3
      vertex 15.5175 1.72542 3
    endloop
  endfacet
  facet normal 0 0 1
    outer loop
      vertex 14.0891 1.69957 3
      vertex 15.5306 0 3
      vertex 14.7453 1.599 3
    endloop
  endfacet
  facet normal 0 0 1
    outer loop
      vertex 12.3735 0 3
      vertex 14.0891 1.69957 3
      vertex 13.6203 2.00237 3
    endloop
  endfacet
  facet normal 0 0 1
    outer loop
      vertex 14.0891 1.69957 3
      vertex 12.3735 0 3
      vertex 15.5306 0 3
    endloop
  endfacet
  facet normal 0 0 1
    outer loop
      vertex 13.3391 2.50897 3
      vertex 12.3735 0 3
      vertex 13.6203 2.00237 3
    endloop
  endfacet
  facet normal 0 0 1
    outer loop
      vertex 12.3735 0 3
      vertex 13.3391 2.50897 3
      vertex 13.2453 3.22099 3
    endloop
  endfacet
  facet normal 0 0 1
    outer loop
      vertex 16.6283 3.37199 3
      vertex 18.9613 9.02399 3
      vertex 16.6283 9.02399 3
    endloop
  endfacet
  facet normal 0 0 1
    outer loop
      vertex 18.9613 9.02399 3
      vertex 16.6283 3.37199 3
      vertex 18.9613 0 3
    endloop
  endfacet
  facet normal -0 0 1
    outer loop
      vertex 16.4934 2.64313 3
      vertex 18.9613 0 3
      vertex 16.6283 3.37199 3
    endloop
  endfacet
  facet normal 0 0 1
    outer loop
      vertex 18.9613 0 3
      vertex 16.6283 1.06599 3
      vertex 16.6283 0 3
    endloop
  endfacet
  facet normal -0 0 1
    outer loop
      vertex 37.283 9.008 3
      vertex 39.617 0 3
      vertex 39.617 9.008 3
    endloop
  endfacet
  facet normal 0 0 1
    outer loop
      vertex 39.617 0 3
      vertex 37.283 9.008 3
      vertex 37.283 0 3
    endloop
  endfacet
  facet normal 0 -1 0
    outer loop
      vertex 6.41599 10.076 0
      vertex 9.96599 10.076 3
      vertex 6.41599 10.076 3
    endloop
  endfacet
  facet normal 0 -1 -0
    outer loop
      vertex 9.96599 10.076 3
      vertex 6.41599 10.076 0
      vertex 9.96599 10.076 0
    endloop
  endfacet
  facet normal 1 -0 0
    outer loop
      vertex 9.96599 10.076 3
      vertex 9.96599 12.16 0
      vertex 9.96599 12.16 3
    endloop
  endfacet
  facet normal 1 0 0
    outer loop
      vertex 9.96599 12.16 0
      vertex 9.96599 10.076 3
      vertex 9.96599 10.076 0
    endloop
  endfacet
  facet normal 0 1 -0
    outer loop
      vertex 9.96599 12.16 0
      vertex 0.232986 12.16 3
      vertex 9.96599 12.16 3
    endloop
  endfacet
  facet normal 0 1 0
    outer loop
      vertex 0.232986 12.16 3
      vertex 9.96599 12.16 0
      vertex 0.232986 12.16 0
    endloop
  endfacet
  facet normal -1 0 0
    outer loop
      vertex 0.232986 10.076 0
      vertex 0.232986 12.16 3
      vertex 0.232986 12.16 0
    endloop
  endfacet
  facet normal -1 -0 0
    outer loop
      vertex 0.232986 12.16 3
      vertex 0.232986 10.076 0
      vertex 0.232986 10.076 3
    endloop
  endfacet
  facet normal 0 -1 0
    outer loop
      vertex 0.232986 10.076 0
      vertex 3.91599 10.076 3
      vertex 0.232986 10.076 3
    endloop
  endfacet
  facet normal 0 -1 -0
    outer loop
      vertex 3.91599 10.076 3
      vertex 0.232986 10.076 0
      vertex 3.91599 10.076 0
    endloop
  endfacet
  facet normal -1 0 0
    outer loop
      vertex 3.91599 0 0
      vertex 3.91599 10.076 3
      vertex 3.91599 10.076 0
    endloop
  endfacet
  facet normal -1 -0 0
    outer loop
      vertex 3.91599 10.076 3
      vertex 3.91599 0 0
      vertex 3.91599 0 3
    endloop
  endfacet
  facet normal 1 -0 0
    outer loop
      vertex 6.41599 0 3
      vertex 6.41599 10.076 0
      vertex 6.41599 10.076 3
    endloop
  endfacet
  facet normal 1 0 0
    outer loop
      vertex 6.41599 10.076 0
      vertex 6.41599 0 3
      vertex 6.41599 0 0
    endloop
  endfacet
  facet normal 0 1 -0
    outer loop
      vertex 39.617 12.16 0
      vertex 37.283 12.16 3
      vertex 39.617 12.16 3
    endloop
  endfacet
  facet normal 0 1 0
    outer loop
      vertex 37.283 12.16 3
      vertex 39.617 12.16 0
      vertex 37.283 12.16 0
    endloop
  endfacet
  facet normal -1 0 0
    outer loop
      vertex 37.283 10.076 0
      vertex 37.283 12.16 3
      vertex 37.283 12.16 0
    endloop
  endfacet
  facet normal -1 -0 0
    outer loop
      vertex 37.283 12.16 3
      vertex 37.283 10.076 0
      vertex 37.283 10.076 3
    endloop
  endfacet
  facet normal 0 -1 0
    outer loop
      vertex 37.283 10.076 0
      vertex 39.617 10.076 3
      vertex 37.283 10.076 3
    endloop
  endfacet
  facet normal 0 -1 -0
    outer loop
      vertex 39.617 10.076 3
      vertex 37.283 10.076 0
      vertex 39.617 10.076 0
    endloop
  endfacet
  facet normal 1 -0 0
    outer loop
      vertex 39.617 10.076 3
      vertex 39.617 12.16 0
      vertex 39.617 12.16 3
    endloop
  endfacet
  facet normal 1 0 0
    outer loop
      vertex 39.617 12.16 0
      vertex 39.617 10.076 3
      vertex 39.617 10.076 0
    endloop
  endfacet
  facet normal 0.989805 -0.142427 0
    outer loop
      vertex 23.2736 4.79599 3
      vertex 23.4017 5.68623 0
      vertex 23.4017 5.68623 3
    endloop
  endfacet
  facet normal 0.989805 -0.142427 0
    outer loop
      vertex 23.4017 5.68623 0
      vertex 23.2736 4.79599 3
      vertex 23.2736 4.79599 0
    endloop
  endfacet
  facet normal 0.856385 -0.516338 0
    outer loop
      vertex 23.4017 5.68623 3
      vertex 23.786 6.32362 0
      vertex 23.786 6.32362 3
    endloop
  endfacet
  facet normal 0.856385 -0.516338 0
    outer loop
      vertex 23.786 6.32362 0
      vertex 23.4017 5.68623 3
      vertex 23.4017 5.68623 0
    endloop
  endfacet
  facet normal 0.513471 -0.858107 0
    outer loop
      vertex 23.786 6.32362 0
      vertex 24.4266 6.70694 3
      vertex 23.786 6.32362 3
    endloop
  endfacet
  facet normal 0.513471 -0.858107 0
    outer loop
      vertex 24.4266 6.70694 3
      vertex 23.786 6.32362 0
      vertex 24.4266 6.70694 0
    endloop
  endfacet
  facet normal 0.141321 -0.989964 0
    outer loop
      vertex 24.4266 6.70694 0
      vertex 25.3236 6.83499 3
      vertex 24.4266 6.70694 3
    endloop
  endfacet
  facet normal 0.141321 -0.989964 0
    outer loop
      vertex 25.3236 6.83499 3
      vertex 24.4266 6.70694 0
      vertex 25.3236 6.83499 0
    endloop
  endfacet
  facet normal -0.0195293 -0.999809 0
    outer loop
      vertex 25.3236 6.83499 0
      vertex 25.4992 6.83156 3
      vertex 25.3236 6.83499 3
    endloop
  endfacet
  facet normal -0.0195293 -0.999809 -0
    outer loop
      vertex 25.4992 6.83156 3
      vertex 25.3236 6.83499 0
      vertex 25.4992 6.83156 0
    endloop
  endfacet
  facet normal -0.0679533 -0.997689 0
    outer loop
      vertex 25.4992 6.83156 0
      vertex 25.6654 6.82024 3
      vertex 25.4992 6.83156 3
    endloop
  endfacet
  facet normal -0.0679533 -0.997689 -0
    outer loop
      vertex 25.6654 6.82024 3
      vertex 25.4992 6.83156 0
      vertex 25.6654 6.82024 0
    endloop
  endfacet
  facet normal -0.115085 -0.993356 0
    outer loop
      vertex 25.6654 6.82024 0
      vertex 25.8439 6.79956 3
      vertex 25.6654 6.82024 3
    endloop
  endfacet
  facet normal -0.115085 -0.993356 -0
    outer loop
      vertex 25.8439 6.79956 3
      vertex 25.6654 6.82024 0
      vertex 25.8439 6.79956 0
    endloop
  endfacet
  facet normal -0.146817 -0.989164 0
    outer loop
      vertex 25.8439 6.79956 0
      vertex 26.0566 6.76799 3
      vertex 25.8439 6.79956 3
    endloop
  endfacet
  facet normal -0.146817 -0.989164 -0
    outer loop
      vertex 26.0566 6.76799 3
      vertex 25.8439 6.79956 0
      vertex 26.0566 6.76799 0
    endloop
  endfacet
  facet normal 1 -0 0
    outer loop
      vertex 26.0566 6.76799 3
      vertex 26.0566 9.13499 0
      vertex 26.0566 9.13499 3
    endloop
  endfacet
  facet normal 1 0 0
    outer loop
      vertex 26.0566 9.13499 0
      vertex 26.0566 6.76799 3
      vertex 26.0566 6.76799 0
    endloop
  endfacet
  facet normal 0.107514 0.994204 -0
    outer loop
      vertex 26.0566 9.13499 0
      vertex 25.9657 9.14482 3
      vertex 26.0566 9.13499 3
    endloop
  endfacet
  facet normal 0.107514 0.994204 0
    outer loop
      vertex 25.9657 9.14482 3
      vertex 26.0566 9.13499 0
      vertex 25.9657 9.14482 0
    endloop
  endfacet
  facet normal 0.0669148 0.997759 -0
    outer loop
      vertex 25.9657 9.14482 0
      vertex 25.8904 9.14987 3
      vertex 25.9657 9.14482 3
    endloop
  endfacet
  facet normal 0.0669148 0.997759 0
    outer loop
      vertex 25.8904 9.14987 3
      vertex 25.9657 9.14482 0
      vertex 25.8904 9.14987 0
    endloop
  endfacet
  facet normal 0.029511 0.999564 -0
    outer loop
      vertex 25.8904 9.14987 0
      vertex 25.8274 9.15173 3
      vertex 25.8904 9.14987 3
    endloop
  endfacet
  facet normal 0.029511 0.999564 0
    outer loop
      vertex 25.8274 9.15173 3
      vertex 25.8904 9.14987 0
      vertex 25.8274 9.15173 0
    endloop
  endfacet
  facet normal 0.00483266 0.999988 -0
    outer loop
      vertex 25.8274 9.15173 0
      vertex 25.7736 9.15199 3
      vertex 25.8274 9.15173 3
    endloop
  endfacet
  facet normal 0.00483266 0.999988 0
    outer loop
      vertex 25.7736 9.15199 3
      vertex 25.8274 9.15173 0
      vertex 25.7736 9.15199 0
    endloop
  endfacet
  facet normal -0.164548 0.986369 0
    outer loop
      vertex 25.7736 9.15199 0
      vertex 25.0032 9.02347 3
      vertex 25.7736 9.15199 3
    endloop
  endfacet
  facet normal -0.164548 0.986369 0
    outer loop
      vertex 25.0032 9.02347 3
      vertex 25.7736 9.15199 0
      vertex 25.0032 9.02347 0
    endloop
  endfacet
  facet normal -0.475338 0.879803 0
    outer loop
      vertex 25.0032 9.02347 0
      vertex 24.311 8.64949 3
      vertex 25.0032 9.02347 3
    endloop
  endfacet
  facet normal -0.475338 0.879803 0
    outer loop
      vertex 24.311 8.64949 3
      vertex 25.0032 9.02347 0
      vertex 24.311 8.64949 0
    endloop
  endfacet
  facet normal -0.716601 0.697483 0
    outer loop
      vertex 23.7251 8.04753 0
      vertex 24.311 8.64949 3
      vertex 24.311 8.64949 0
    endloop
  endfacet
  facet normal -0.716601 0.697483 0
    outer loop
      vertex 24.311 8.64949 3
      vertex 23.7251 8.04753 0
      vertex 23.7251 8.04753 3
    endloop
  endfacet
  facet normal -0.874117 0.485716 0
    outer loop
      vertex 23.2736 7.23499 0
      vertex 23.7251 8.04753 3
      vertex 23.7251 8.04753 0
    endloop
  endfacet
  facet normal -0.874117 0.485716 0
    outer loop
      vertex 23.7251 8.04753 3
      vertex 23.2736 7.23499 0
      vertex 23.2736 7.23499 3
    endloop
  endfacet
  facet normal 1 -0 0
    outer loop
      vertex 23.2736 7.23499 3
      vertex 23.2736 9.02399 0
      vertex 23.2736 9.02399 3
    endloop
  endfacet
  facet normal 1 0 0
    outer loop
      vertex 23.2736 9.02399 0
      vertex 23.2736 7.23499 3
      vertex 23.2736 7.23499 0
    endloop
  endfacet
  facet normal 0 1 -0
    outer loop
      vertex 23.2736 9.02399 0
      vertex 20.9406 9.02399 3
      vertex 23.2736 9.02399 3
    endloop
  endfacet
  facet normal 0 1 0
    outer loop
      vertex 20.9406 9.02399 3
      vertex 23.2736 9.02399 0
      vertex 20.9406 9.02399 0
    endloop
  endfacet
  facet normal -1 0 0
    outer loop
      vertex 20.9406 0 0
      vertex 20.9406 9.02399 3
      vertex 20.9406 9.02399 0
    endloop
  endfacet
  facet normal -1 -0 0
    outer loop
      vertex 20.9406 9.02399 3
      vertex 20.9406 0 0
      vertex 20.9406 0 3
    endloop
  endfacet
  facet normal 1 -0 0
    outer loop
      vertex 23.2736 0 3
      vertex 23.2736 4.79599 0
      vertex 23.2736 4.79599 3
    endloop
  endfacet
  facet normal 1 0 0
    outer loop
      vertex 23.2736 4.79599 0
      vertex 23.2736 0 3
      vertex 23.2736 0 0
    endloop
  endfacet
  facet normal 0.982837 -0.184473 0
    outer loop
      vertex 29.6047 5.41399 3
      vertex 29.7396 6.13271 0
      vertex 29.7396 6.13271 3
    endloop
  endfacet
  facet normal 0.982837 -0.184473 0
    outer loop
      vertex 29.7396 6.13271 0
      vertex 29.6047 5.41399 3
      vertex 29.6047 5.41399 0
    endloop
  endfacet
  facet normal 0.823249 -0.567681 0
    outer loop
      vertex 29.7396 6.13271 3
      vertex 30.1213 6.68625 0
      vertex 30.1213 6.68625 3
    endloop
  endfacet
  facet normal 0.823249 -0.567681 0
    outer loop
      vertex 30.1213 6.68625 0
      vertex 29.7396 6.13271 3
      vertex 29.7396 6.13271 0
    endloop
  endfacet
  facet normal 0.513827 -0.857894 0
    outer loop
      vertex 30.1213 6.68625 0
      vertex 30.7155 7.04214 3
      vertex 30.1213 6.68625 3
    endloop
  endfacet
  facet normal 0.513827 -0.857894 0
    outer loop
      vertex 30.7155 7.04214 3
      vertex 30.1213 6.68625 0
      vertex 30.7155 7.04214 0
    endloop
  endfacet
  facet normal 0.160866 -0.986976 0
    outer loop
      vertex 30.7155 7.04214 0
      vertex 31.4877 7.168 3
      vertex 30.7155 7.04214 3
    endloop
  endfacet
  facet normal 0.160866 -0.986976 0
    outer loop
      vertex 31.4877 7.168 3
      vertex 30.7155 7.04214 0
      vertex 31.4877 7.168 0
    endloop
  endfacet
  facet normal -0.154507 -0.987992 0
    outer loop
      vertex 31.4877 7.168 0
      vertex 32.1439 7.06538 3
      vertex 31.4877 7.168 3
    endloop
  endfacet
  facet normal -0.154507 -0.987992 -0
    outer loop
      vertex 32.1439 7.06538 3
      vertex 31.4877 7.168 0
      vertex 32.1439 7.06538 0
    endloop
  endfacet
  facet normal -0.546306 -0.837585 0
    outer loop
      vertex 32.1439 7.06538 0
      vertex 32.6127 6.75961 3
      vertex 32.1439 7.06538 3
    endloop
  endfacet
  facet normal -0.546306 -0.837585 -0
    outer loop
      vertex 32.6127 6.75961 3
      vertex 32.1439 7.06538 0
      vertex 32.6127 6.75961 0
    endloop
  endfacet
  facet normal -0.874023 -0.485885 0
    outer loop
      vertex 32.8939 6.25378 0
      vertex 32.6127 6.75961 3
      vertex 32.6127 6.75961 0
    endloop
  endfacet
  facet normal -0.874023 -0.485885 0
    outer loop
      vertex 32.6127 6.75961 3
      vertex 32.8939 6.25378 0
      vertex 32.8939 6.25378 3
    endloop
  endfacet
  facet normal -0.99121 -0.132295 0
    outer loop
      vertex 32.9877 5.55099 0
      vertex 32.8939 6.25378 3
      vertex 32.8939 6.25378 0
    endloop
  endfacet
  facet normal -0.99121 -0.132295 0
    outer loop
      vertex 32.8939 6.25378 3
      vertex 32.9877 5.55099 0
      vertex 32.9877 5.55099 3
    endloop
  endfacet
  facet normal -1 0 0
    outer loop
      vertex 32.9877 0 0
      vertex 32.9877 5.55099 3
      vertex 32.9877 5.55099 0
    endloop
  endfacet
  facet normal -1 -0 0
    outer loop
      vertex 32.9877 5.55099 3
      vertex 32.9877 0 0
      vertex 32.9877 0 3
    endloop
  endfacet
  facet normal 1 -0 0
    outer loop
      vertex 35.3217 0 3
      vertex 35.3217 6.03499 0
      vertex 35.3217 6.03499 3
    endloop
  endfacet
  facet normal 1 0 0
    outer loop
      vertex 35.3217 6.03499 0
      vertex 35.3217 0 3
      vertex 35.3217 0 0
    endloop
  endfacet
  facet normal 0.988565 0.150793 0
    outer loop
      vertex 35.3217 6.03499 3
      vertex 35.1198 7.3586 0
      vertex 35.1198 7.3586 3
    endloop
  endfacet
  facet normal 0.988565 0.150793 0
    outer loop
      vertex 35.1198 7.3586 0
      vertex 35.3217 6.03499 3
      vertex 35.3217 6.03499 0
    endloop
  endfacet
  facet normal 0.857225 0.514943 0
    outer loop
      vertex 35.1198 7.3586 3
      vertex 34.532 8.33711 0
      vertex 34.532 8.33711 3
    endloop
  endfacet
  facet normal 0.857225 0.514943 0
    outer loop
      vertex 34.532 8.33711 0
      vertex 35.1198 7.3586 3
      vertex 35.1198 7.3586 0
    endloop
  endfacet
  facet normal 0.53937 0.842069 -0
    outer loop
      vertex 34.532 8.33711 0
      vertex 33.5848 8.94382 3
      vertex 34.532 8.33711 3
    endloop
  endfacet
  facet normal 0.53937 0.842069 0
    outer loop
      vertex 33.5848 8.94382 3
      vertex 34.532 8.33711 0
      vertex 33.5848 8.94382 0
    endloop
  endfacet
  facet normal 0.160512 0.987034 -0
    outer loop
      vertex 33.5848 8.94382 0
      vertex 32.3047 9.15199 3
      vertex 33.5848 8.94382 3
    endloop
  endfacet
  facet normal 0.160512 0.987034 0
    outer loop
      vertex 32.3047 9.15199 3
      vertex 33.5848 8.94382 0
      vertex 32.3047 9.15199 0
    endloop
  endfacet
  facet normal -0.101774 0.994808 0
    outer loop
      vertex 32.3047 9.15199 0
      vertex 31.4632 9.0659 3
      vertex 32.3047 9.15199 3
    endloop
  endfacet
  facet normal -0.101774 0.994808 0
    outer loop
      vertex 31.4632 9.0659 3
      vertex 32.3047 9.15199 0
      vertex 31.4632 9.0659 0
    endloop
  endfacet
  facet normal -0.346921 0.937894 0
    outer loop
      vertex 31.4632 9.0659 0
      vertex 30.7484 8.8015 3
      vertex 31.4632 9.0659 3
    endloop
  endfacet
  facet normal -0.346921 0.937894 0
    outer loop
      vertex 30.7484 8.8015 3
      vertex 31.4632 9.0659 0
      vertex 30.7484 8.8015 0
    endloop
  endfacet
  facet normal -0.594279 0.804259 0
    outer loop
      vertex 30.7484 8.8015 0
      vertex 30.1368 8.34958 3
      vertex 30.7484 8.8015 3
    endloop
  endfacet
  facet normal -0.594279 0.804259 0
    outer loop
      vertex 30.1368 8.34958 3
      vertex 30.7484 8.8015 0
      vertex 30.1368 8.34958 0
    endloop
  endfacet
  facet normal -0.773118 0.634262 0
    outer loop
      vertex 29.6047 7.70099 0
      vertex 30.1368 8.34958 3
      vertex 30.1368 8.34958 0
    endloop
  endfacet
  facet normal -0.773118 0.634262 0
    outer loop
      vertex 30.1368 8.34958 3
      vertex 29.6047 7.70099 0
      vertex 29.6047 7.70099 3
    endloop
  endfacet
  facet normal 1 -0 0
    outer loop
      vertex 29.6047 7.70099 3
      vertex 29.6047 9.02399 0
      vertex 29.6047 9.02399 3
    endloop
  endfacet
  facet normal 1 0 0
    outer loop
      vertex 29.6047 9.02399 0
      vertex 29.6047 7.70099 3
      vertex 29.6047 7.70099 0
    endloop
  endfacet
  facet normal 0 1 -0
    outer loop
      vertex 29.6047 9.02399 0
      vertex 27.2717 9.02399 3
      vertex 29.6047 9.02399 3
    endloop
  endfacet
  facet normal 0 1 0
    outer loop
      vertex 27.2717 9.02399 3
      vertex 29.6047 9.02399 0
      vertex 27.2717 9.02399 0
    endloop
  endfacet
  facet normal -1 0 0
    outer loop
      vertex 27.2717 0 0
      vertex 27.2717 9.02399 3
      vertex 27.2717 9.02399 0
    endloop
  endfacet
  facet normal -1 -0 0
    outer loop
      vertex 27.2717 9.02399 3
      vertex 27.2717 0 0
      vertex 27.2717 0 3
    endloop
  endfacet
  facet normal 1 -0 0
    outer loop
      vertex 29.6047 0 3
      vertex 29.6047 5.41399 0
      vertex 29.6047 5.41399 3
    endloop
  endfacet
  facet normal 1 0 0
    outer loop
      vertex 29.6047 5.41399 0
      vertex 29.6047 0 3
      vertex 29.6047 0 0
    endloop
  endfacet
  facet normal -0.810807 -0.585314 0
    outer loop
      vertex 44.4613 0.431061 0
      vertex 43.9914 1.08199 3
      vertex 43.9914 1.08199 0
    endloop
  endfacet
  facet normal -0.810807 -0.585314 0
    outer loop
      vertex 43.9914 1.08199 3
      vertex 44.4613 0.431061 0
      vertex 44.4613 0.431061 3
    endloop
  endfacet
  facet normal -0.627479 -0.778633 0
    outer loop
      vertex 44.4613 0.431061 0
      vertex 44.9962 0 3
      vertex 44.4613 0.431061 3
    endloop
  endfacet
  facet normal -0.627479 -0.778633 -0
    outer loop
      vertex 44.9962 0 3
      vertex 44.4613 0.431061 0
      vertex 44.9962 0 0
    endloop
  endfacet
  facet normal 0.641248 -0.767334 0
    outer loop
      vertex 48.022 0 0
      vertex 49.1866 0.973236 3
      vertex 48.022 0 3
    endloop
  endfacet
  facet normal 0.641248 -0.767334 0
    outer loop
      vertex 49.1866 0.973236 3
      vertex 48.022 0 0
      vertex 49.1866 0.973236 0
    endloop
  endfacet
  facet normal 0.886549 -0.462634 0
    outer loop
      vertex 49.1866 0.973236 3
      vertex 49.9736 2.48137 0
      vertex 49.9736 2.48137 3
    endloop
  endfacet
  facet normal 0.886549 -0.462634 0
    outer loop
      vertex 49.9736 2.48137 0
      vertex 49.1866 0.973236 3
      vertex 49.1866 0.973236 0
    endloop
  endfacet
  facet normal 0.988955 -0.148216 0
    outer loop
      vertex 49.9736 2.48137 3
      vertex 50.2574 4.375 0
      vertex 50.2574 4.375 3
    endloop
  endfacet
  facet normal 0.988955 -0.148216 0
    outer loop
      vertex 50.2574 4.375 0
      vertex 49.9736 2.48137 3
      vertex 49.9736 2.48137 0
    endloop
  endfacet
  facet normal 0.997505 0.0705917 0
    outer loop
      vertex 50.2574 4.375 3
      vertex 50.1908 5.3161 0
      vertex 50.1908 5.3161 3
    endloop
  endfacet
  facet normal 0.997505 0.0705917 0
    outer loop
      vertex 50.1908 5.3161 0
      vertex 50.2574 4.375 3
      vertex 50.2574 4.375 0
    endloop
  endfacet
  facet normal 0.97815 0.207902 0
    outer loop
      vertex 50.1908 5.3161 3
      vertex 49.9994 6.21661 0
      vertex 49.9994 6.21661 3
    endloop
  endfacet
  facet normal 0.97815 0.207902 0
    outer loop
      vertex 49.9994 6.21661 0
      vertex 50.1908 5.3161 3
      vertex 50.1908 5.3161 0
    endloop
  endfacet
  facet normal 0.937636 0.34762 0
    outer loop
      vertex 49.9994 6.21661 3
      vertex 49.6955 7.03632 0
      vertex 49.6955 7.03632 3
    endloop
  endfacet
  facet normal 0.937636 0.34762 0
    outer loop
      vertex 49.6955 7.03632 0
      vertex 49.9994 6.21661 3
      vertex 49.9994 6.21661 0
    endloop
  endfacet
  facet normal 0.865637 0.500671 0
    outer loop
      vertex 49.6955 7.03632 3
      vertex 49.2914 7.73499 0
      vertex 49.2914 7.73499 3
    endloop
  endfacet
  facet normal 0.865637 0.500671 0
    outer loop
      vertex 49.2914 7.73499 0
      vertex 49.6955 7.03632 3
      vertex 49.6955 7.03632 0
    endloop
  endfacet
  facet normal 0.732965 0.680267 0
    outer loop
      vertex 49.2914 7.73499 3
      vertex 48.7531 8.31499 0
      vertex 48.7531 8.31499 3
    endloop
  endfacet
  facet normal 0.732965 0.680267 0
    outer loop
      vertex 48.7531 8.31499 0
      vertex 49.2914 7.73499 3
      vertex 49.2914 7.73499 0
    endloop
  endfacet
  facet normal 0.549177 0.835706 -0
    outer loop
      vertex 48.7531 8.31499 0
      vertex 48.0725 8.76224 3
      vertex 48.7531 8.31499 3
    endloop
  endfacet
  facet normal 0.549177 0.835706 0
    outer loop
      vertex 48.0725 8.76224 3
      vertex 48.7531 8.31499 0
      vertex 48.0725 8.76224 0
    endloop
  endfacet
  facet normal 0.349746 0.936844 -0
    outer loop
      vertex 48.0725 8.76224 0
      vertex 47.3014 9.05011 3
      vertex 48.0725 8.76224 3
    endloop
  endfacet
  facet normal 0.349746 0.936844 0
    outer loop
      vertex 47.3014 9.05011 3
      vertex 48.0725 8.76224 0
      vertex 47.3014 9.05011 0
    endloop
  endfacet
  facet normal 0.124795 0.992183 -0
    outer loop
      vertex 47.3014 9.05011 0
      vertex 46.4914 9.15199 3
      vertex 47.3014 9.05011 3
    endloop
  endfacet
  facet normal 0.124795 0.992183 0
    outer loop
      vertex 46.4914 9.15199 3
      vertex 47.3014 9.05011 0
      vertex 46.4914 9.15199 0
    endloop
  endfacet
  facet normal -0.114817 0.993387 0
    outer loop
      vertex 46.4914 9.15199 0
      vertex 45.702 9.06075 3
      vertex 46.4914 9.15199 3
    endloop
  endfacet
  facet normal -0.114817 0.993387 0
    outer loop
      vertex 45.702 9.06075 3
      vertex 46.4914 9.15199 0
      vertex 45.702 9.06075 0
    endloop
  endfacet
  facet normal -0.378864 0.925452 0
    outer loop
      vertex 45.702 9.06075 0
      vertex 45.0284 8.78499 3
      vertex 45.702 9.06075 3
    endloop
  endfacet
  facet normal -0.378864 0.925452 0
    outer loop
      vertex 45.0284 8.78499 3
      vertex 45.702 9.06075 0
      vertex 45.0284 8.78499 0
    endloop
  endfacet
  facet normal -0.632623 0.77446 0
    outer loop
      vertex 45.0284 8.78499 0
      vertex 44.4613 8.32175 3
      vertex 45.0284 8.78499 3
    endloop
  endfacet
  facet normal -0.632623 0.77446 0
    outer loop
      vertex 44.4613 8.32175 3
      vertex 45.0284 8.78499 0
      vertex 44.4613 8.32175 0
    endloop
  endfacet
  facet normal -0.812005 0.58365 0
    outer loop
      vertex 43.9914 7.668 0
      vertex 44.4613 8.32175 3
      vertex 44.4613 8.32175 0
    endloop
  endfacet
  facet normal -0.812005 0.58365 0
    outer loop
      vertex 44.4613 8.32175 3
      vertex 43.9914 7.668 0
      vertex 43.9914 7.668 3
    endloop
  endfacet
  facet normal 1 -0 0
    outer loop
      vertex 43.9914 7.668 3
      vertex 43.9914 9.00099 0
      vertex 43.9914 9.00099 3
    endloop
  endfacet
  facet normal 1 0 0
    outer loop
      vertex 43.9914 9.00099 0
      vertex 43.9914 7.668 3
      vertex 43.9914 7.668 0
    endloop
  endfacet
  facet normal 0 1 -0
    outer loop
      vertex 43.9914 9.00099 0
      vertex 41.6574 9.00099 3
      vertex 43.9914 9.00099 3
    endloop
  endfacet
  facet normal 0 1 0
    outer loop
      vertex 41.6574 9.00099 3
      vertex 43.9914 9.00099 0
      vertex 41.6574 9.00099 0
    endloop
  endfacet
  facet normal -1 0 0
    outer loop
      vertex 41.6574 0 0
      vertex 41.6574 9.00099 3
      vertex 41.6574 9.00099 0
    endloop
  endfacet
  facet normal -1 -0 0
    outer loop
      vertex 41.6574 9.00099 3
      vertex 41.6574 0 0
      vertex 41.6574 0 3
    endloop
  endfacet
  facet normal -1 0 0
    outer loop
      vertex 41.6574 -3.59799 2.5
      vertex 41.6574 -2.5 3
      vertex 41.6574 -2.5 2.5
    endloop
  endfacet
  facet normal -1 -0 0
    outer loop
      vertex 41.6574 -2.5 3
      vertex 41.6574 -3.59799 2.5
      vertex 41.6574 -3.59799 3
    endloop
  endfacet
  facet normal 0 -1 0
    outer loop
      vertex 41.6574 -3.59799 2.5
      vertex 43.9914 -3.59799 3
      vertex 41.6574 -3.59799 3
    endloop
  endfacet
  facet normal 0 -1 -0
    outer loop
      vertex 43.9914 -3.59799 3
      vertex 41.6574 -3.59799 2.5
      vertex 43.9914 -3.59799 2.5
    endloop
  endfacet
  facet normal 1 -0 0
    outer loop
      vertex 43.9914 0 3
      vertex 43.9914 1.08199 0
      vertex 43.9914 1.08199 3
    endloop
  endfacet
  facet normal 1 0 0
    outer loop
      vertex 43.9914 1.08199 0
      vertex 43.9914 0 3
      vertex 43.9914 0 0
    endloop
  endfacet
  facet normal 1 -0 0
    outer loop
      vertex 43.9914 -3.59799 3
      vertex 43.9914 -2.5 2.5
      vertex 43.9914 -2.5 3
    endloop
  endfacet
  facet normal 1 0 0
    outer loop
      vertex 43.9914 -2.5 2.5
      vertex 43.9914 -3.59799 3
      vertex 43.9914 -3.59799 2.5
    endloop
  endfacet
  facet normal 0.677491 0.735531 -0
    outer loop
      vertex 45.1583 1.76878 0
      vertex 44.5372 2.34087 3
      vertex 45.1583 1.76878 3
    endloop
  endfacet
  facet normal 0.677491 0.735531 0
    outer loop
      vertex 44.5372 2.34087 3
      vertex 45.1583 1.76878 0
      vertex 44.5372 2.34087 0
    endloop
  endfacet
  facet normal 0.91057 0.413354 0
    outer loop
      vertex 44.5372 2.34087 3
      vertex 44.1346 3.22775 0
      vertex 44.1346 3.22775 3
    endloop
  endfacet
  facet normal 0.91057 0.413354 0
    outer loop
      vertex 44.1346 3.22775 0
      vertex 44.5372 2.34087 3
      vertex 44.5372 2.34087 0
    endloop
  endfacet
  facet normal 0.9923 0.123859 0
    outer loop
      vertex 44.1346 3.22775 3
      vertex 43.9914 4.375 0
      vertex 43.9914 4.375 3
    endloop
  endfacet
  facet normal 0.9923 0.123859 0
    outer loop
      vertex 43.9914 4.375 0
      vertex 44.1346 3.22775 3
      vertex 44.1346 3.22775 0
    endloop
  endfacet
  facet normal 0.992335 -0.123579 0
    outer loop
      vertex 43.9914 4.375 3
      vertex 44.1346 5.52489 0
      vertex 44.1346 5.52489 3
    endloop
  endfacet
  facet normal 0.992335 -0.123579 0
    outer loop
      vertex 44.1346 5.52489 0
      vertex 43.9914 4.375 3
      vertex 43.9914 4.375 0
    endloop
  endfacet
  facet normal 0.911588 -0.411105 0
    outer loop
      vertex 44.1346 5.52489 3
      vertex 44.5372 6.41762 0
      vertex 44.5372 6.41762 3
    endloop
  endfacet
  facet normal 0.911588 -0.411105 0
    outer loop
      vertex 44.5372 6.41762 0
      vertex 44.1346 5.52489 3
      vertex 44.1346 5.52489 0
    endloop
  endfacet
  facet normal 0.6812 -0.732097 0
    outer loop
      vertex 44.5372 6.41762 0
      vertex 45.1583 6.99554 3
      vertex 44.5372 6.41762 3
    endloop
  endfacet
  facet normal 0.6812 -0.732097 0
    outer loop
      vertex 45.1583 6.99554 3
      vertex 44.5372 6.41762 0
      vertex 45.1583 6.99554 0
    endloop
  endfacet
  facet normal 0.249004 -0.968503 0
    outer loop
      vertex 45.1583 6.99554 0
      vertex 45.9574 7.20099 3
      vertex 45.1583 6.99554 3
    endloop
  endfacet
  facet normal 0.249004 -0.968503 0
    outer loop
      vertex 45.9574 7.20099 3
      vertex 45.1583 6.99554 0
      vertex 45.9574 7.20099 0
    endloop
  endfacet
  facet normal -0.247348 -0.968927 0
    outer loop
      vertex 45.9574 7.20099 0
      vertex 46.7642 6.99503 3
      vertex 45.9574 7.20099 3
    endloop
  endfacet
  facet normal -0.247348 -0.968927 -0
    outer loop
      vertex 46.7642 6.99503 3
      vertex 45.9574 7.20099 0
      vertex 46.7642 6.99503 0
    endloop
  endfacet
  facet normal -0.683706 -0.729758 0
    outer loop
      vertex 46.7642 6.99503 0
      vertex 47.3849 6.4135 3
      vertex 46.7642 6.99503 3
    endloop
  endfacet
  facet normal -0.683706 -0.729758 -0
    outer loop
      vertex 47.3849 6.4135 3
      vertex 46.7642 6.99503 0
      vertex 47.3849 6.4135 0
    endloop
  endfacet
  facet normal -0.914723 -0.404082 0
    outer loop
      vertex 47.7836 5.51096 0
      vertex 47.3849 6.4135 3
      vertex 47.3849 6.4135 0
    endloop
  endfacet
  facet normal -0.914723 -0.404082 0
    outer loop
      vertex 47.3849 6.4135 3
      vertex 47.7836 5.51096 0
      vertex 47.7836 5.51096 3
    endloop
  endfacet
  facet normal -0.992824 -0.119585 0
    outer loop
      vertex 47.9244 4.342 0
      vertex 47.7836 5.51096 3
      vertex 47.7836 5.51096 0
    endloop
  endfacet
  facet normal -0.992824 -0.119585 0
    outer loop
      vertex 47.7836 5.51096 3
      vertex 47.9244 4.342 0
      vertex 47.9244 4.342 3
    endloop
  endfacet
  facet normal -0.99167 0.128803 0
    outer loop
      vertex 47.7788 3.22101 0
      vertex 47.9244 4.342 3
      vertex 47.9244 4.342 0
    endloop
  endfacet
  facet normal -0.99167 0.128803 0
    outer loop
      vertex 47.9244 4.342 3
      vertex 47.7788 3.22101 0
      vertex 47.7788 3.22101 3
    endloop
  endfacet
  facet normal -0.907361 0.420353 0
    outer loop
      vertex 47.3721 2.34312 0
      vertex 47.7788 3.22101 3
      vertex 47.7788 3.22101 0
    endloop
  endfacet
  facet normal -0.907361 0.420353 0
    outer loop
      vertex 47.7788 3.22101 3
      vertex 47.3721 2.34312 0
      vertex 47.3721 2.34312 3
    endloop
  endfacet
  facet normal -0.67708 0.73591 0
    outer loop
      vertex 47.3721 2.34312 0
      vertex 46.7499 1.77066 3
      vertex 47.3721 2.34312 3
    endloop
  endfacet
  facet normal -0.67708 0.73591 0
    outer loop
      vertex 46.7499 1.77066 3
      vertex 47.3721 2.34312 0
      vertex 46.7499 1.77066 0
    endloop
  endfacet
  facet normal -0.250054 0.968232 0
    outer loop
      vertex 46.7499 1.77066 0
      vertex 45.9574 1.56599 3
      vertex 46.7499 1.77066 3
    endloop
  endfacet
  facet normal -0.250054 0.968232 0
    outer loop
      vertex 45.9574 1.56599 3
      vertex 46.7499 1.77066 0
      vertex 45.9574 1.56599 0
    endloop
  endfacet
  facet normal 0.245976 0.969276 -0
    outer loop
      vertex 45.9574 1.56599 0
      vertex 45.1583 1.76878 3
      vertex 45.9574 1.56599 3
    endloop
  endfacet
  facet normal 0.245976 0.969276 0
    outer loop
      vertex 45.1583 1.76878 3
      vertex 45.9574 1.56599 0
      vertex 45.1583 1.76878 0
    endloop
  endfacet
  facet normal 0.593935 -0.804513 0
    outer loop
      vertex 15.5306 0 0
      vertex 16.0962 0.417557 3
      vertex 15.5306 0 3
    endloop
  endfacet
  facet normal 0.593935 -0.804513 0
    outer loop
      vertex 16.0962 0.417557 3
      vertex 15.5306 0 0
      vertex 16.0962 0.417557 0
    endloop
  endfacet
  facet normal 0.773043 -0.634354 0
    outer loop
      vertex 16.0962 0.417557 3
      vertex 16.6283 1.06599 0
      vertex 16.6283 1.06599 3
    endloop
  endfacet
  facet normal 0.773043 -0.634354 0
    outer loop
      vertex 16.6283 1.06599 0
      vertex 16.0962 0.417557 3
      vertex 16.0962 0.417557 0
    endloop
  endfacet
  facet normal -1 0 0
    outer loop
      vertex 16.6283 0 0
      vertex 16.6283 1.06599 3
      vertex 16.6283 1.06599 0
    endloop
  endfacet
  facet normal -1 -0 0
    outer loop
      vertex 16.6283 1.06599 3
      vertex 16.6283 0 0
      vertex 16.6283 0 3
    endloop
  endfacet
  facet normal 1 -0 0
    outer loop
      vertex 18.9613 0 3
      vertex 18.9613 9.02399 0
      vertex 18.9613 9.02399 3
    endloop
  endfacet
  facet normal 1 0 0
    outer loop
      vertex 18.9613 9.02399 0
      vertex 18.9613 0 3
      vertex 18.9613 0 0
    endloop
  endfacet
  facet normal 0 1 -0
    outer loop
      vertex 18.9613 9.02399 0
      vertex 16.6283 9.02399 3
      vertex 18.9613 9.02399 3
    endloop
  endfacet
  facet normal 0 1 0
    outer loop
      vertex 16.6283 9.02399 3
      vertex 18.9613 9.02399 0
      vertex 16.6283 9.02399 0
    endloop
  endfacet
  facet normal -1 0 0
    outer loop
      vertex 16.6283 3.37199 0
      vertex 16.6283 9.02399 3
      vertex 16.6283 9.02399 0
    endloop
  endfacet
  facet normal -1 -0 0
    outer loop
      vertex 16.6283 9.02399 3
      vertex 16.6283 3.37199 0
      vertex 16.6283 3.37199 3
    endloop
  endfacet
  facet normal -0.9833 0.181993 0
    outer loop
      vertex 16.4934 2.64313 0
      vertex 16.6283 3.37199 3
      vertex 16.6283 3.37199 0
    endloop
  endfacet
  facet normal -0.9833 0.181993 0
    outer loop
      vertex 16.6283 3.37199 3
      vertex 16.4934 2.64313 0
      vertex 16.4934 2.64313 3
    endloop
  endfacet
  facet normal -0.825966 0.563719 0
    outer loop
      vertex 16.1117 2.08386 0
      vertex 16.4934 2.64313 3
      vertex 16.4934 2.64313 0
    endloop
  endfacet
  facet normal -0.825966 0.563719 0
    outer loop
      vertex 16.4934 2.64313 3
      vertex 16.1117 2.08386 0
      vertex 16.1117 2.08386 3
    endloop
  endfacet
  facet normal -0.516529 0.85627 0
    outer loop
      vertex 16.1117 2.08386 0
      vertex 15.5175 1.72542 3
      vertex 16.1117 2.08386 3
    endloop
  endfacet
  facet normal -0.516529 0.85627 0
    outer loop
      vertex 15.5175 1.72542 3
      vertex 16.1117 2.08386 0
      vertex 15.5175 1.72542 0
    endloop
  endfacet
  facet normal -0.161563 0.986862 0
    outer loop
      vertex 15.5175 1.72542 0
      vertex 14.7453 1.599 3
      vertex 15.5175 1.72542 3
    endloop
  endfacet
  facet normal -0.161563 0.986862 0
    outer loop
      vertex 14.7453 1.599 3
      vertex 15.5175 1.72542 0
      vertex 14.7453 1.599 0
    endloop
  endfacet
  facet normal 0.151492 0.988458 -0
    outer loop
      vertex 14.7453 1.599 0
      vertex 14.0891 1.69957 3
      vertex 14.7453 1.599 3
    endloop
  endfacet
  facet normal 0.151492 0.988458 0
    outer loop
      vertex 14.0891 1.69957 3
      vertex 14.7453 1.599 0
      vertex 14.0891 1.69957 0
    endloop
  endfacet
  facet normal 0.542568 0.840012 -0
    outer loop
      vertex 14.0891 1.69957 0
      vertex 13.6203 2.00237 3
      vertex 14.0891 1.69957 3
    endloop
  endfacet
  facet normal 0.542568 0.840012 0
    outer loop
      vertex 13.6203 2.00237 3
      vertex 14.0891 1.69957 0
      vertex 13.6203 2.00237 0
    endloop
  endfacet
  facet normal 0.874336 0.485321 0
    outer loop
      vertex 13.6203 2.00237 3
      vertex 13.3391 2.50897 0
      vertex 13.3391 2.50897 3
    endloop
  endfacet
  facet normal 0.874336 0.485321 0
    outer loop
      vertex 13.3391 2.50897 0
      vertex 13.6203 2.00237 3
      vertex 13.6203 2.00237 0
    endloop
  endfacet
  facet normal 0.991434 0.130609 0
    outer loop
      vertex 13.3391 2.50897 3
      vertex 13.2453 3.22099 0
      vertex 13.2453 3.22099 3
    endloop
  endfacet
  facet normal 0.991434 0.130609 0
    outer loop
      vertex 13.2453 3.22099 0
      vertex 13.3391 2.50897 3
      vertex 13.3391 2.50897 0
    endloop
  endfacet
  facet normal 1 -0 0
    outer loop
      vertex 13.2453 3.22099 3
      vertex 13.2453 9.02399 0
      vertex 13.2453 9.02399 3
    endloop
  endfacet
  facet normal 1 0 0
    outer loop
      vertex 13.2453 9.02399 0
      vertex 13.2453 3.22099 3
      vertex 13.2453 3.22099 0
    endloop
  endfacet
  facet normal 0 1 -0
    outer loop
      vertex 13.2453 9.02399 0
      vertex 10.9113 9.02399 3
      vertex 13.2453 9.02399 3
    endloop
  endfacet
  facet normal 0 1 0
    outer loop
      vertex 10.9113 9.02399 3
      vertex 13.2453 9.02399 0
      vertex 10.9113 9.02399 0
    endloop
  endfacet
  facet normal -1 0 0
    outer loop
      vertex 10.9113 2.73599 0
      vertex 10.9113 9.02399 3
      vertex 10.9113 9.02399 0
    endloop
  endfacet
  facet normal -1 -0 0
    outer loop
      vertex 10.9113 9.02399 3
      vertex 10.9113 2.73599 0
      vertex 10.9113 2.73599 3
    endloop
  endfacet
  facet normal -0.988613 -0.150481 0
    outer loop
      vertex 11.1131 1.41023 0
      vertex 10.9113 2.73599 3
      vertex 10.9113 2.73599 0
    endloop
  endfacet
  facet normal -0.988613 -0.150481 0
    outer loop
      vertex 10.9113 2.73599 3
      vertex 11.1131 1.41023 0
      vertex 11.1131 1.41023 3
    endloop
  endfacet
  facet normal -0.857424 -0.514611 0
    outer loop
      vertex 11.7009 0.430862 0
      vertex 11.1131 1.41023 3
      vertex 11.1131 1.41023 0
    endloop
  endfacet
  facet normal -0.857424 -0.514611 0
    outer loop
      vertex 11.1131 1.41023 3
      vertex 11.7009 0.430862 0
      vertex 11.7009 0.430862 3
    endloop
  endfacet
  facet normal -0.539407 -0.842045 0
    outer loop
      vertex 11.7009 0.430862 0
      vertex 12.3735 0 3
      vertex 11.7009 0.430862 3
    endloop
  endfacet
  facet normal -0.539407 -0.842045 -0
    outer loop
      vertex 12.3735 0 3
      vertex 11.7009 0.430862 0
      vertex 12.3735 0 0
    endloop
  endfacet
  facet normal 0 1 -0
    outer loop
      vertex 39.617 9.008 0
      vertex 37.283 9.008 3
      vertex 39.617 9.008 3
    endloop
  endfacet
  facet normal 0 1 0
    outer loop
      vertex 37.283 9.008 3
      vertex 39.617 9.008 0
      vertex 37.283 9.008 0
    endloop
  endfacet
  facet normal -1 0 0
    outer loop
      vertex 37.283 0 0
      vertex 37.283 9.008 3
      vertex 37.283 9.008 0
    endloop
  endfacet
  facet normal -1 -0 0
    outer loop
      vertex 37.283 9.008 3
      vertex 37.283 0 0
      vertex 37.283 0 3
    endloop
  endfacet
  facet normal 1 -0 0
    outer loop
      vertex 39.617 0 3
      vertex 39.617 9.008 0
      vertex 39.617 9.008 3
    endloop
  endfacet
  facet normal 1 0 0
    outer loop
      vertex 39.617 9.008 0
      vertex 39.617 0 3
      vertex 39.617 0 0
    endloop
  endfacet
endsolid OpenSCAD_Model
