solid ANL Fuse Holder
facet normal -6.431967081020555e-32 -2.6792361238334834e-16 -1.0
outer loop
vertex -51.618990488564336 -15.310044184286504 0.0
vertex -6.618990488564317 -22.881840954011004 -4.511946372076636e-14
vertex -51.618990488564336 -44.310044184286504 0.0
endloop
endfacet
facet normal -6.431967081020555e-32 -2.6792361238334834e-16 -1.0
outer loop
vertex -6.618990488564317 -22.881840954011004 -4.511946372076636e-14
vertex -51.618990488564336 -15.310044184286504 0.0
vertex -4.68954284938449 -22.08263757397397 -3.3839597790574766e-14
endloop
endfacet
facet normal -6.431967081020555e-32 -2.6792361238334834e-16 -1.0
outer loop
vertex -4.68954284938449 -22.08263757397397 -3.3839597790574766e-14
vertex -51.618990488564336 -15.310044184286504 0.0
vertex -2.6189904885643247 -21.810044184286518 -3.3839597790574766e-14
endloop
endfacet
facet normal -6.431967081020555e-32 -2.6792361238334834e-16 -1.0
outer loop
vertex -2.6189904885643247 -21.810044184286518 -3.3839597790574766e-14
vertex -51.618990488564336 -15.310044184286504 0.0
vertex 62.38100951143568 -15.310044184286504 0.0
endloop
endfacet
facet normal -6.431967081020555e-32 -2.6792361238334834e-16 -1.0
outer loop
vertex -51.618990488564336 -44.310044184286504 0.0
vertex -6.618990488564317 -22.881840954011004 -4.511946372076636e-14
vertex -8.275844738056703 -24.153189934794135 0.0
endloop
endfacet
facet normal -6.431967081020555e-32 -2.6792361238334834e-16 -1.0
outer loop
vertex -51.618990488564336 -44.310044184286504 0.0
vertex -8.275844738056703 -24.153189934794135 0.0
vertex -9.547193718839832 -25.810044184286507 -3.3839597790574766e-14
endloop
endfacet
facet normal -6.431967081020555e-32 -2.6792361238334834e-16 -1.0
outer loop
vertex -51.618990488564336 -44.310044184286504 0.0
vertex -9.547193718839832 -25.810044184286507 -3.3839597790574766e-14
vertex -10.346397098876867 -27.73949182346634 -3.3839597790574766e-14
endloop
endfacet
facet normal -6.431967081020555e-32 -2.6792361238334834e-16 -1.0
outer loop
vertex -51.618990488564336 -44.310044184286504 0.0
vertex -10.346397098876867 -27.73949182346634 -3.3839597790574766e-14
vertex -10.618990488564322 -29.81004418428651 0.0
endloop
endfacet
facet normal -6.431967081020555e-32 -2.6792361238334834e-16 -1.0
outer loop
vertex -2.6189904885643247 -21.810044184286518 -3.3839597790574766e-14
vertex 62.38100951143568 -15.310044184286504 0.0
vertex 13.381009511435668 -21.810044184286518 -3.3839597790574766e-14
endloop
endfacet
facet normal -6.431967081020555e-32 -2.6792361238334834e-16 -1.0
outer loop
vertex 13.381009511435668 -21.810044184286518 -3.3839597790574766e-14
vertex 62.38100951143568 -15.310044184286504 0.0
vertex 15.451561872255839 -22.082637573973972 -3.3839597790574766e-14
endloop
endfacet
facet normal -6.431967081020555e-32 -2.6792361238334834e-16 -1.0
outer loop
vertex 15.451561872255839 -22.082637573973972 -3.3839597790574766e-14
vertex 62.38100951143568 -15.310044184286504 0.0
vertex 17.38100951143567 -22.881840954011007 -4.511946372076636e-14
endloop
endfacet
facet normal -6.431967081020555e-32 -2.6792361238334834e-16 -1.0
outer loop
vertex 17.38100951143567 -22.881840954011007 -4.511946372076636e-14
vertex 62.38100951143568 -15.310044184286504 0.0
vertex 19.03786376092805 -24.153189934794135 0.0
endloop
endfacet
facet normal -6.431967081020555e-32 -2.6792361238334834e-16 -1.0
outer loop
vertex 19.03786376092805 -24.153189934794135 0.0
vertex 62.38100951143568 -15.310044184286504 0.0
vertex 20.30921274171117 -25.810044184286518 -3.3839597790574766e-14
endloop
endfacet
facet normal -6.431967081020555e-32 -2.6792361238334834e-16 -1.0
outer loop
vertex 20.30921274171117 -25.810044184286518 -3.3839597790574766e-14
vertex 62.38100951143568 -15.310044184286504 0.0
vertex 21.10841612174821 -27.739491823466352 -3.3839597790574766e-14
endloop
endfacet
facet normal -6.431967081020555e-32 -2.6792361238334834e-16 -1.0
outer loop
vertex 21.10841612174821 -27.739491823466352 -3.3839597790574766e-14
vertex 62.38100951143568 -15.310044184286504 0.0
vertex 21.381009511435664 -29.81004418428651 0.0
endloop
endfacet
facet normal -6.431967081020555e-32 -2.6792361238334834e-16 -1.0
outer loop
vertex -51.618990488564336 -44.310044184286504 0.0
vertex -2.6189904885643247 -37.810044184286504 -3.3839597790574766e-14
vertex 62.38100951143568 -44.310044184286504 0.0
endloop
endfacet
facet normal -6.431967081020555e-32 -2.6792361238334834e-16 -1.0
outer loop
vertex -2.6189904885643247 -37.810044184286504 -3.3839597790574766e-14
vertex -51.618990488564336 -44.310044184286504 0.0
vertex -4.6895428493844955 -37.537450794599046 -3.3839597790574766e-14
endloop
endfacet
facet normal -6.431967081020555e-32 -2.6792361238334834e-16 -1.0
outer loop
vertex -4.6895428493844955 -37.537450794599046 -3.3839597790574766e-14
vertex -51.618990488564336 -44.310044184286504 0.0
vertex -6.618990488564329 -36.73824741456201 -2.255973186038318e-14
endloop
endfacet
facet normal -6.431967081020555e-32 -2.6792361238334834e-16 -1.0
outer loop
vertex -6.618990488564329 -36.73824741456201 -2.255973186038318e-14
vertex -51.618990488564336 -44.310044184286504 0.0
vertex -8.275844738056708 -35.46689843377888 -3.3839597790574766e-14
endloop
endfacet
facet normal -6.431967081020555e-32 -2.6792361238334834e-16 -1.0
outer loop
vertex -8.275844738056708 -35.46689843377888 -3.3839597790574766e-14
vertex -51.618990488564336 -44.310044184286504 0.0
vertex -9.547193718839832 -33.810044184286504 0.0
endloop
endfacet
facet normal -6.431967081020555e-32 -2.6792361238334834e-16 -1.0
outer loop
vertex -9.547193718839832 -33.810044184286504 0.0
vertex -51.618990488564336 -44.310044184286504 0.0
vertex -10.346397098876867 -31.88059654510668 -3.3839597790574766e-14
endloop
endfacet
facet normal -6.431967081020555e-32 -2.6792361238334834e-16 -1.0
outer loop
vertex -10.346397098876867 -31.88059654510668 -3.3839597790574766e-14
vertex -51.618990488564336 -44.310044184286504 0.0
vertex -10.618990488564322 -29.81004418428651 0.0
endloop
endfacet
facet normal -6.431967081020555e-32 -2.6792361238334834e-16 -1.0
outer loop
vertex 62.38100951143568 -44.310044184286504 0.0
vertex -2.6189904885643247 -37.810044184286504 -3.3839597790574766e-14
vertex 13.381009511435668 -37.810044184286504 -3.3839597790574766e-14
endloop
endfacet
facet normal -6.431967081020555e-32 -2.6792361238334834e-16 -1.0
outer loop
vertex 62.38100951143568 -44.310044184286504 0.0
vertex 13.381009511435668 -37.810044184286504 -3.3839597790574766e-14
vertex 15.451561872255828 -37.53745079459905 -3.3839597790574766e-14
endloop
endfacet
facet normal -6.431967081020555e-32 -2.6792361238334834e-16 -1.0
outer loop
vertex 62.38100951143568 -44.310044184286504 0.0
vertex 15.451561872255828 -37.53745079459905 -3.3839597790574766e-14
vertex 17.38100951143566 -36.73824741456201 -2.255973186038318e-14
endloop
endfacet
facet normal -6.431967081020555e-32 -2.6792361238334834e-16 -1.0
outer loop
vertex 62.38100951143568 -44.310044184286504 0.0
vertex 17.38100951143566 -36.73824741456201 -2.255973186038318e-14
vertex 19.03786376092805 -35.46689843377888 -3.3839597790574766e-14
endloop
endfacet
facet normal -6.431967081020555e-32 -2.6792361238334834e-16 -1.0
outer loop
vertex 62.38100951143568 -44.310044184286504 0.0
vertex 19.03786376092805 -35.46689843377888 -3.3839597790574766e-14
vertex 20.30921274171117 -33.81004418428651 0.0
endloop
endfacet
facet normal -6.431967081020555e-32 -2.6792361238334834e-16 -1.0
outer loop
vertex 62.38100951143568 -44.310044184286504 0.0
vertex 20.30921274171117 -33.81004418428651 0.0
vertex 21.10841612174821 -31.88059654510668 -3.3839597790574766e-14
endloop
endfacet
facet normal -6.431967081020555e-32 -2.6792361238334834e-16 -1.0
outer loop
vertex 62.38100951143568 -44.310044184286504 0.0
vertex 21.10841612174821 -31.88059654510668 -3.3839597790574766e-14
vertex 21.381009511435664 -29.81004418428651 0.0
endloop
endfacet
facet normal -6.431967081020555e-32 -2.6792361238334834e-16 -1.0
outer loop
vertex 62.38100951143568 -44.310044184286504 0.0
vertex 21.381009511435664 -29.81004418428651 0.0
vertex 62.38100951143568 -15.310044184286504 0.0
endloop
endfacet
facet normal 1.0 0.0 0.0
outer loop
vertex -50.11899048856434 -42.81004418428651 1.4999999999999747
vertex -50.11899048856434 -39.469302447177185 10.661809548974782
vertex -50.11899048856434 -42.81004418428651 26.49999999999998
endloop
endfacet
facet normal 1.0 0.0 0.0
outer loop
vertex -50.11899048856434 -39.469302447177185 10.661809548974782
vertex -50.11899048856434 -42.81004418428651 1.4999999999999747
vertex -50.11899048856434 -38.47029822213089 8.249999999999988
endloop
endfacet
facet normal 1.0 0.0 0.0
outer loop
vertex -50.11899048856434 -38.47029822213089 8.249999999999988
vertex -50.11899048856434 -42.81004418428651 1.4999999999999747
vertex -50.11899048856434 -36.88111199615198 6.178932188134514
endloop
endfacet
facet normal 1.0 0.0 0.0
outer loop
vertex -50.11899048856434 -36.88111199615198 6.178932188134514
vertex -50.11899048856434 -42.81004418428651 1.4999999999999747
vertex -50.11899048856434 -34.810044184286504 4.589745962155602
endloop
endfacet
facet normal 1.0 0.0 0.0
outer loop
vertex -50.11899048856434 -34.810044184286504 4.589745962155602
vertex -50.11899048856434 -42.81004418428651 1.4999999999999747
vertex -50.11899048856434 -32.398234635311724 3.5907417371093047
endloop
endfacet
facet normal 1.0 0.0 0.0
outer loop
vertex -50.11899048856434 -32.398234635311724 3.5907417371093047
vertex -50.11899048856434 -42.81004418428651 1.4999999999999747
vertex -50.11899048856434 -16.8100441842865 1.4999999999999634
endloop
endfacet
facet normal 1.0 0.0 0.0
outer loop
vertex -50.11899048856434 -42.81004418428651 26.49999999999998
vertex -50.11899048856434 -39.469302447177185 10.661809548974782
vertex -50.11899048856434 -39.810044184286504 13.249999999999984
endloop
endfacet
facet normal 1.0 0.0 0.0
outer loop
vertex -50.11899048856434 -32.398234635311724 3.5907417371093047
vertex -50.11899048856434 -16.8100441842865 1.4999999999999634
vertex -50.11899048856434 -29.810044184286504 3.249999999999986
endloop
endfacet
facet normal 1.0 0.0 0.0
outer loop
vertex -50.11899048856434 -29.810044184286504 3.249999999999986
vertex -50.11899048856434 -16.8100441842865 1.4999999999999634
vertex -50.11899048856434 -27.221853733261305 3.5907417371093016
endloop
endfacet
facet normal 1.0 0.0 0.0
outer loop
vertex -50.11899048856434 -27.221853733261305 3.5907417371093016
vertex -50.11899048856434 -16.8100441842865 1.4999999999999634
vertex -50.11899048856434 -24.810044184286514 4.589745962155595
endloop
endfacet
facet normal 1.0 0.0 0.0
outer loop
vertex -50.11899048856434 -24.810044184286514 4.589745962155595
vertex -50.11899048856434 -16.8100441842865 1.4999999999999634
vertex -50.11899048856434 -22.738976372421035 6.1789321881345085
endloop
endfacet
facet normal 1.0 0.0 0.0
outer loop
vertex -50.11899048856434 -22.738976372421035 6.1789321881345085
vertex -50.11899048856434 -16.8100441842865 1.4999999999999634
vertex -50.11899048856434 -21.149790146442125 8.24999999999998
endloop
endfacet
facet normal 1.0 0.0 0.0
outer loop
vertex -50.11899048856434 -21.149790146442125 8.24999999999998
vertex -50.11899048856434 -16.8100441842865 1.4999999999999634
vertex -50.11899048856434 -20.150785921395826 10.66180954897477
endloop
endfacet
facet normal 1.0 0.0 0.0
outer loop
vertex -50.11899048856434 -20.150785921395826 10.66180954897477
vertex -50.11899048856434 -16.8100441842865 1.4999999999999634
vertex -50.11899048856434 -19.810044184286507 13.249999999999984
endloop
endfacet
facet normal 1.0 0.0 0.0
outer loop
vertex -50.11899048856434 -19.810044184286507 13.249999999999984
vertex -50.11899048856434 -16.8100441842865 1.4999999999999634
vertex -50.11899048856434 -19.810044184286507 26.499999999999964
endloop
endfacet
facet normal 1.0 0.0 0.0
outer loop
vertex -50.11899048856434 -19.810044184286507 26.499999999999964
vertex -50.11899048856434 -16.8100441842865 1.4999999999999634
vertex -50.11899048856434 -16.810044184286507 26.499999999999957
endloop
endfacet
facet normal 1.0 0.0 0.0
outer loop
vertex -50.11899048856434 -39.810044184286504 26.499999999999975
vertex -50.11899048856434 -42.81004418428651 26.49999999999998
vertex -50.11899048856434 -39.810044184286504 13.249999999999984
endloop
endfacet
facet normal -1.2001776608481194e-16 -1.0 3.434425064488928e-16
outer loop
vertex 60.88100951143566 -16.810044184286507 26.499999999999957
vertex -50.11899048856434 -16.8100441842865 1.4999999999999634
vertex 60.88100951143566 -16.8100441842865 1.4999999999999634
endloop
endfacet
facet normal -1.2001776608481194e-16 -1.0 3.434425064488928e-16
outer loop
vertex -50.11899048856434 -16.8100441842865 1.4999999999999634
vertex 60.88100951143566 -16.810044184286507 26.499999999999957
vertex -50.11899048856434 -16.810044184286507 26.499999999999957
endloop
endfacet
facet normal -1.2001776608481194e-16 -1.0 3.434425064488928e-16
outer loop
vertex -50.11899048856434 -16.810044184286507 26.499999999999957
vertex 60.88100951143566 -16.810044184286507 26.499999999999957
vertex -46.118990488564314 -16.810044184286454 26.499999999999968
endloop
endfacet
facet normal -1.2001776608481194e-16 -1.0 3.434425064488928e-16
outer loop
vertex -50.11899048856434 -16.810044184286507 26.499999999999957
vertex -46.118990488564314 -16.810044184286454 26.499999999999968
vertex -50.11899048856435 -16.8100441842865 29.499999999999964
endloop
endfacet
facet normal -1.2001776608481194e-16 -1.0 3.434425064488928e-16
outer loop
vertex -50.11899048856435 -16.8100441842865 29.499999999999964
vertex -46.118990488564314 -16.810044184286454 26.499999999999968
vertex -46.1189904885643 -16.81004418428647 29.499999999999964
endloop
endfacet
facet normal 0.0 0.0 1.0
outer loop
vertex -50.11899048856434 -42.81004418428651 1.4999999999999747
vertex -6.618990488564329 -36.73824741456202 1.4999999999999634
vertex -50.11899048856434 -16.8100441842865 1.4999999999999634
endloop
endfacet
facet normal 0.0 0.0 1.0
outer loop
vertex -6.618990488564329 -36.73824741456202 1.4999999999999634
vertex -50.11899048856434 -42.81004418428651 1.4999999999999747
vertex -4.6895428493844955 -37.53745079459906 1.499999999999952
endloop
endfacet
facet normal 0.0 0.0 1.0
outer loop
vertex -4.6895428493844955 -37.53745079459906 1.499999999999952
vertex -50.11899048856434 -42.81004418428651 1.4999999999999747
vertex -2.6189904885643247 -37.81004418428651 1.499999999999952
endloop
endfacet
facet normal 0.0 0.0 1.0
outer loop
vertex -2.6189904885643247 -37.81004418428651 1.499999999999952
vertex -50.11899048856434 -42.81004418428651 1.4999999999999747
vertex 60.88100951143566 -42.81004418428651 1.4999999999999747
endloop
endfacet
facet normal 0.0 0.0 1.0
outer loop
vertex -50.11899048856434 -16.8100441842865 1.4999999999999634
vertex -6.618990488564329 -36.73824741456202 1.4999999999999634
vertex -8.275844738056708 -35.46689843377889 1.499999999999952
endloop
endfacet
facet normal 0.0 0.0 1.0
outer loop
vertex -50.11899048856434 -16.8100441842865 1.4999999999999634
vertex -8.275844738056708 -35.46689843377889 1.499999999999952
vertex -9.547193718839832 -33.81004418428651 1.499999999999986
endloop
endfacet
facet normal 0.0 0.0 1.0
outer loop
vertex -50.11899048856434 -16.8100441842865 1.4999999999999634
vertex -9.547193718839832 -33.81004418428651 1.499999999999986
vertex -10.346397098876867 -31.88059654510668 1.499999999999952
endloop
endfacet
facet normal 0.0 0.0 1.0
outer loop
vertex -50.11899048856434 -16.8100441842865 1.4999999999999634
vertex -10.346397098876867 -31.88059654510668 1.499999999999952
vertex -10.618990488564322 -29.81004418428651 1.499999999999986
endloop
endfacet
facet normal 0.0 0.0 1.0
outer loop
vertex -2.6189904885643247 -37.81004418428651 1.499999999999952
vertex 60.88100951143566 -42.81004418428651 1.4999999999999747
vertex 13.381009511435668 -37.81004418428651 1.499999999999952
endloop
endfacet
facet normal 0.0 0.0 1.0
outer loop
vertex 13.381009511435668 -37.81004418428651 1.499999999999952
vertex 60.88100951143566 -42.81004418428651 1.4999999999999747
vertex 15.451561872255828 -37.53745079459906 1.499999999999952
endloop
endfacet
facet normal 0.0 0.0 1.0
outer loop
vertex 15.451561872255828 -37.53745079459906 1.499999999999952
vertex 60.88100951143566 -42.81004418428651 1.4999999999999747
vertex 17.38100951143566 -36.73824741456202 1.4999999999999634
endloop
endfacet
facet normal 0.0 0.0 1.0
outer loop
vertex 17.38100951143566 -36.73824741456202 1.4999999999999634
vertex 60.88100951143566 -42.81004418428651 1.4999999999999747
vertex 19.03786376092805 -35.46689843377889 1.499999999999952
endloop
endfacet
facet normal 0.0 0.0 1.0
outer loop
vertex 19.03786376092805 -35.46689843377889 1.499999999999952
vertex 60.88100951143566 -42.81004418428651 1.4999999999999747
vertex 20.30921274171117 -33.81004418428651 1.499999999999986
endloop
endfacet
facet normal 0.0 0.0 1.0
outer loop
vertex 20.30921274171117 -33.81004418428651 1.499999999999986
vertex 60.88100951143566 -42.81004418428651 1.4999999999999747
vertex 21.10841612174821 -31.880596545106688 1.499999999999952
endloop
endfacet
facet normal 0.0 0.0 1.0
outer loop
vertex 21.10841612174821 -31.880596545106688 1.499999999999952
vertex 60.88100951143566 -42.81004418428651 1.4999999999999747
vertex 21.381009511435664 -29.81004418428651 1.499999999999986
endloop
endfacet
facet normal 0.0 0.0 1.0
outer loop
vertex -50.11899048856434 -16.8100441842865 1.4999999999999634
vertex -2.6189904885643247 -21.810044184286514 1.499999999999952
vertex 60.88100951143566 -16.8100441842865 1.4999999999999634
endloop
endfacet
facet normal 0.0 0.0 1.0
outer loop
vertex -2.6189904885643247 -21.810044184286514 1.499999999999952
vertex -50.11899048856434 -16.8100441842865 1.4999999999999634
vertex -4.68954284938449 -22.082637573973965 1.499999999999952
endloop
endfacet
facet normal 0.0 0.0 1.0
outer loop
vertex -4.68954284938449 -22.082637573973965 1.499999999999952
vertex -50.11899048856434 -16.8100441842865 1.4999999999999634
vertex -6.618990488564317 -22.881840954011 1.499999999999941
endloop
endfacet
facet normal 0.0 0.0 1.0
outer loop
vertex -6.618990488564317 -22.881840954011 1.499999999999941
vertex -50.11899048856434 -16.8100441842865 1.4999999999999634
vertex -8.275844738056703 -24.153189934794135 1.499999999999986
endloop
endfacet
facet normal 0.0 0.0 1.0
outer loop
vertex -8.275844738056703 -24.153189934794135 1.499999999999986
vertex -50.11899048856434 -16.8100441842865 1.4999999999999634
vertex -9.547193718839832 -25.810044184286507 1.499999999999952
endloop
endfacet
facet normal 0.0 0.0 1.0
outer loop
vertex -9.547193718839832 -25.810044184286507 1.499999999999952
vertex -50.11899048856434 -16.8100441842865 1.4999999999999634
vertex -10.346397098876867 -27.73949182346634 1.499999999999952
endloop
endfacet
facet normal 0.0 0.0 1.0
outer loop
vertex -10.346397098876867 -27.73949182346634 1.499999999999952
vertex -50.11899048856434 -16.8100441842865 1.4999999999999634
vertex -10.618990488564322 -29.81004418428651 1.499999999999986
endloop
endfacet
facet normal 0.0 0.0 1.0
outer loop
vertex 60.88100951143566 -16.8100441842865 1.4999999999999634
vertex -2.6189904885643247 -21.810044184286514 1.499999999999952
vertex 13.381009511435668 -21.810044184286518 1.499999999999952
endloop
endfacet
facet normal 0.0 0.0 1.0
outer loop
vertex 60.88100951143566 -16.8100441842865 1.4999999999999634
vertex 13.381009511435668 -21.810044184286518 1.499999999999952
vertex 15.451561872255839 -22.082637573973972 1.499999999999952
endloop
endfacet
facet normal 0.0 0.0 1.0
outer loop
vertex 60.88100951143566 -16.8100441842865 1.4999999999999634
vertex 15.451561872255839 -22.082637573973972 1.499999999999952
vertex 17.38100951143567 -22.881840954011004 1.499999999999941
endloop
endfacet
facet normal 0.0 0.0 1.0
outer loop
vertex 60.88100951143566 -16.8100441842865 1.4999999999999634
vertex 17.38100951143567 -22.881840954011004 1.499999999999941
vertex 19.03786376092805 -24.153189934794135 1.499999999999986
endloop
endfacet
facet normal 0.0 0.0 1.0
outer loop
vertex 60.88100951143566 -16.8100441842865 1.4999999999999634
vertex 19.03786376092805 -24.153189934794135 1.499999999999986
vertex 20.30921274171117 -25.810044184286518 1.499999999999952
endloop
endfacet
facet normal 0.0 0.0 1.0
outer loop
vertex 60.88100951143566 -16.8100441842865 1.4999999999999634
vertex 20.30921274171117 -25.810044184286518 1.499999999999952
vertex 21.10841612174821 -27.739491823466352 1.499999999999952
endloop
endfacet
facet normal 0.0 0.0 1.0
outer loop
vertex 60.88100951143566 -16.8100441842865 1.4999999999999634
vertex 21.10841612174821 -27.739491823466352 1.499999999999952
vertex 21.381009511435664 -29.81004418428651 1.499999999999986
endloop
endfacet
facet normal 0.0 0.0 1.0
outer loop
vertex 60.88100951143566 -16.8100441842865 1.4999999999999634
vertex 21.381009511435664 -29.81004418428651 1.499999999999986
vertex 60.88100951143566 -42.81004418428651 1.4999999999999747
endloop
endfacet
facet normal 2.800537751894131e-17 2.578141414404102e-15 1.0
outer loop
vertex 56.88100951143569 -44.310044184286504 26.49999999999998
vertex -51.618990488564336 -42.81004418428651 26.49999999999998
vertex -51.618990488564336 -44.310044184286504 26.49999999999998
endloop
endfacet
facet normal 2.800537751894131e-17 2.578141414404102e-15 1.0
outer loop
vertex -51.618990488564336 -42.81004418428651 26.49999999999998
vertex 56.88100951143569 -44.310044184286504 26.49999999999998
vertex -50.11899048856434 -42.81004418428651 26.49999999999998
endloop
endfacet
facet normal 2.800537751894131e-17 2.578141414404102e-15 1.0
outer loop
vertex -50.11899048856434 -42.81004418428651 26.49999999999998
vertex 56.88100951143569 -44.310044184286504 26.49999999999998
vertex 56.88100951143569 -42.81004418428651 26.499999999999975
endloop
endfacet
facet normal 0.0 1.879977655031928e-15 1.0
outer loop
vertex -50.11899048856434 -42.81004418428651 26.49999999999998
vertex -51.618990488564336 -39.810044184286504 26.499999999999975
vertex -51.618990488564336 -42.81004418428651 26.49999999999998
endloop
endfacet
facet normal 0.0 1.879977655031928e-15 1.0
outer loop
vertex -51.618990488564336 -39.810044184286504 26.499999999999975
vertex -50.11899048856434 -42.81004418428651 26.49999999999998
vertex -50.11899048856434 -39.810044184286504 26.499999999999975
endloop
endfacet
facet normal -0.9659258262890686 -0.25881904510251985 1.2375879451291008e-16
outer loop
vertex 21.10841612174821 -27.739491823466352 1.499999999999952
vertex 21.381009511435664 -29.81004418428651 0.0
vertex 21.381009511435664 -29.81004418428651 1.499999999999986
endloop
endfacet
facet normal -1.0 -2.0495552759987672e-16 7.954228782414184e-31
outer loop
vertex 21.381009511435664 -29.81004418428651 0.0
vertex 21.10841612174821 -27.739491823466352 1.499999999999952
vertex 21.10841612174821 -27.739491823466352 -3.3839597790574766e-14
endloop
endfacet
facet normal -1.0 -2.1386663749552795e-16 7.954228782414348e-31
outer loop
vertex 21.381009511435664 -29.81004418428651 1.499999999999986
vertex 21.10841612174821 -31.88059654510668 -3.3839597790574766e-14
vertex 21.10841612174821 -31.880596545106688 1.499999999999952
endloop
endfacet
facet normal -0.9659258262890681 0.2588190451025214 -1.2375879451290946e-16
outer loop
vertex 21.10841612174821 -31.88059654510668 -3.3839597790574766e-14
vertex 21.381009511435664 -29.81004418428651 1.499999999999986
vertex 21.381009511435664 -29.81004418428651 0.0
endloop
endfacet
facet normal -0.965925826289068 0.25881904510252207 -1.2375879451290976e-16
outer loop
vertex 21.10841612174821 -31.880596545106688 1.499999999999952
vertex 20.30921274171117 -33.81004418428651 0.0
vertex 20.30921274171117 -33.81004418428651 1.499999999999986
endloop
endfacet
facet normal -0.8660254037844385 0.5000000000000007 -2.3908363170084256e-16
outer loop
vertex 20.30921274171117 -33.81004418428651 0.0
vertex 21.10841612174821 -31.880596545106688 1.499999999999952
vertex 21.10841612174821 -31.88059654510668 -3.3839597790574766e-14
endloop
endfacet
facet normal -0.8660254037844385 0.5000000000000006 -2.3908363170084256e-16
outer loop
vertex 20.30921274171117 -33.81004418428651 1.499999999999986
vertex 19.03786376092805 -35.46689843377888 -3.3839597790574766e-14
vertex 19.03786376092805 -35.46689843377889 1.499999999999952
endloop
endfacet
facet normal -0.7071067811865475 0.7071067811865477 -3.3811531449274564e-16
outer loop
vertex 19.03786376092805 -35.46689843377888 -3.3839597790574766e-14
vertex 20.30921274171117 -33.81004418428651 1.499999999999986
vertex 20.30921274171117 -33.81004418428651 0.0
endloop
endfacet
facet normal -0.4999999999999997 0.8660254037844389 -4.141049973639448e-16
outer loop
vertex 17.38100951143566 -36.73824741456201 -2.255973186038318e-14
vertex 19.03786376092805 -35.46689843377889 1.499999999999952
vertex 19.03786376092805 -35.46689843377888 -3.3839597790574766e-14
endloop
endfacet
facet normal -0.7071067811865478 0.7071067811865474 -3.3811531449274554e-16
outer loop
vertex 19.03786376092805 -35.46689843377889 1.499999999999952
vertex 17.38100951143566 -36.73824741456201 -2.255973186038318e-14
vertex 17.38100951143566 -36.73824741456202 1.4999999999999634
endloop
endfacet
facet normal -0.2588190451025202 0.9659258262890684 -4.618741090056554e-16
outer loop
vertex 15.451561872255828 -37.53745079459906 1.499999999999952
vertex 17.38100951143566 -36.73824741456201 -2.255973186038318e-14
vertex 15.451561872255828 -37.53745079459905 -3.3839597790574766e-14
endloop
endfacet
facet normal -0.4999999999999997 0.8660254037844389 -4.141049973639448e-16
outer loop
vertex 17.38100951143566 -36.73824741456201 -2.255973186038318e-14
vertex 15.451561872255828 -37.53745079459906 1.499999999999952
vertex 17.38100951143566 -36.73824741456202 1.4999999999999634
endloop
endfacet
facet normal -0.06540312923014249 0.9978589232386037 -4.771434705859555e-16
outer loop
vertex 13.381009511435668 -37.81004418428651 1.499999999999952
vertex 15.451561872255828 -37.53745079459905 -3.3839597790574766e-14
vertex 13.381009511435668 -37.810044184286504 -3.3839597790574766e-14
endloop
endfacet
facet normal -0.2588190451025199 0.9659258262890686 -4.618741090056554e-16
outer loop
vertex 15.451561872255828 -37.53745079459905 -3.3839597790574766e-14
vertex 13.381009511435668 -37.81004418428651 1.499999999999952
vertex 15.451561872255828 -37.53745079459906 1.499999999999952
endloop
endfacet
facet normal 0.06540312923014277 0.9978589232386037 -4.771434705859561e-16
outer loop
vertex -2.6189904885643247 -37.81004418428651 1.499999999999952
vertex 13.381009511435668 -37.810044184286504 -3.3839597790574766e-14
vertex -2.6189904885643247 -37.810044184286504 -3.3839597790574766e-14
endloop
endfacet
facet normal -0.06540312923014253 0.9978589232386037 -4.771434705859555e-16
outer loop
vertex 13.381009511435668 -37.810044184286504 -3.3839597790574766e-14
vertex -2.6189904885643247 -37.81004418428651 1.499999999999952
vertex 13.381009511435668 -37.81004418428651 1.499999999999952
endloop
endfacet
facet normal 0.2588190451025205 0.9659258262890683 -4.618741090056561e-16
outer loop
vertex -4.6895428493844955 -37.53745079459906 1.499999999999952
vertex -2.6189904885643247 -37.810044184286504 -3.3839597790574766e-14
vertex -4.6895428493844955 -37.537450794599046 -3.3839597790574766e-14
endloop
endfacet
facet normal 0.06540312923014281 0.9978589232386037 -4.771434705859561e-16
outer loop
vertex -2.6189904885643247 -37.810044184286504 -3.3839597790574766e-14
vertex -4.6895428493844955 -37.53745079459906 1.499999999999952
vertex -2.6189904885643247 -37.81004418428651 1.499999999999952
endloop
endfacet
facet normal 0.5000000000000003 0.8660254037844385 -4.14104997363945e-16
outer loop
vertex -6.618990488564329 -36.73824741456201 -2.255973186038318e-14
vertex -4.6895428493844955 -37.53745079459906 1.499999999999952
vertex -4.6895428493844955 -37.537450794599046 -3.3839597790574766e-14
endloop
endfacet
facet normal 0.2588190451025205 0.9659258262890683 -4.618741090056561e-16
outer loop
vertex -4.6895428493844955 -37.53745079459906 1.499999999999952
vertex -6.618990488564329 -36.73824741456201 -2.255973186038318e-14
vertex -6.618990488564329 -36.73824741456202 1.4999999999999634
endloop
endfacet
facet normal 0.7071067811865479 0.7071067811865471 -3.381153144927462e-16
outer loop
vertex -8.275844738056708 -35.46689843377889 1.499999999999952
vertex -6.618990488564329 -36.73824741456201 -2.255973186038318e-14
vertex -8.275844738056708 -35.46689843377888 -3.3839597790574766e-14
endloop
endfacet
facet normal 0.5000000000000003 0.8660254037844385 -4.14104997363945e-16
outer loop
vertex -6.618990488564329 -36.73824741456201 -2.255973186038318e-14
vertex -8.275844738056708 -35.46689843377889 1.499999999999952
vertex -6.618990488564329 -36.73824741456202 1.4999999999999634
endloop
endfacet
facet normal 0.7071067811865476 0.7071067811865475 -3.381153144927464e-16
outer loop
vertex -8.275844738056708 -35.46689843377888 -3.3839597790574766e-14
vertex -9.547193718839832 -33.81004418428651 1.499999999999986
vertex -8.275844738056708 -35.46689843377889 1.499999999999952
endloop
endfacet
facet normal 0.8660254037844386 0.5000000000000001 -2.390836317008437e-16
outer loop
vertex -9.547193718839832 -33.81004418428651 1.499999999999986
vertex -8.275844738056708 -35.46689843377888 -3.3839597790574766e-14
vertex -9.547193718839832 -33.810044184286504 0.0
endloop
endfacet
facet normal 0.8660254037844389 0.49999999999999967 -2.3908363170084344e-16
outer loop
vertex -9.547193718839832 -33.810044184286504 0.0
vertex -10.346397098876867 -31.88059654510668 1.499999999999952
vertex -9.547193718839832 -33.81004418428651 1.499999999999986
endloop
endfacet
facet normal 0.9659258262890684 0.25881904510252074 -1.2375879451291052e-16
outer loop
vertex -10.346397098876867 -31.88059654510668 1.499999999999952
vertex -9.547193718839832 -33.810044184286504 0.0
vertex -10.346397098876867 -31.88059654510668 -3.3839597790574766e-14
endloop
endfacet
facet normal 1.0 -1.336666484347022e-16 -5.5006855758983655e-31
outer loop
vertex -10.618990488564322 -29.81004418428651 0.0
vertex -10.346397098876867 -31.88059654510668 1.499999999999952
vertex -10.346397098876867 -31.88059654510668 -3.3839597790574766e-14
endloop
endfacet
facet normal 0.9659258262890684 0.25881904510252074 -1.2375879451291052e-16
outer loop
vertex -10.346397098876867 -31.88059654510668 1.499999999999952
vertex -10.618990488564322 -29.81004418428651 0.0
vertex -10.618990488564322 -29.81004418428651 1.499999999999986
endloop
endfacet
facet normal 0.965925826289068 -0.25881904510252207 1.2375879451290988e-16
outer loop
vertex -10.346397098876867 -27.73949182346634 -3.3839597790574766e-14
vertex -10.618990488564322 -29.81004418428651 1.499999999999986
vertex -10.618990488564322 -29.81004418428651 0.0
endloop
endfacet
facet normal 1.0 -1.2475553853905795e-16 -5.461112298374029e-31
outer loop
vertex -10.618990488564322 -29.81004418428651 1.499999999999986
vertex -10.346397098876867 -27.73949182346634 -3.3839597790574766e-14
vertex -10.346397098876867 -27.73949182346634 1.499999999999952
endloop
endfacet
facet normal 0.8660254037844388 -0.4999999999999999 2.3908363170084226e-16
outer loop
vertex -9.547193718839832 -25.810044184286507 -3.3839597790574766e-14
vertex -10.346397098876867 -27.73949182346634 1.499999999999952
vertex -10.346397098876867 -27.73949182346634 -3.3839597790574766e-14
endloop
endfacet
facet normal 0.9659258262890684 -0.25881904510252074 1.2375879451290926e-16
outer loop
vertex -10.346397098876867 -27.73949182346634 1.499999999999952
vertex -9.547193718839832 -25.810044184286507 -3.3839597790574766e-14
vertex -9.547193718839832 -25.810044184286507 1.499999999999952
endloop
endfacet
facet normal 0.7071067811865471 -0.7071067811865479 3.3811531449274594e-16
outer loop
vertex -8.275844738056703 -24.153189934794135 0.0
vertex -9.547193718839832 -25.810044184286507 1.499999999999952
vertex -9.547193718839832 -25.810044184286507 -3.3839597790574766e-14
endloop
endfacet
facet normal 0.866025403784438 -0.500000000000001 2.390836317008428e-16
outer loop
vertex -9.547193718839832 -25.810044184286507 1.499999999999952
vertex -8.275844738056703 -24.153189934794135 0.0
vertex -8.275844738056703 -24.153189934794135 1.499999999999986
endloop
endfacet
facet normal 0.5 -0.8660254037844387 4.141049973639449e-16
outer loop
vertex -6.618990488564317 -22.881840954011 1.499999999999941
vertex -8.275844738056703 -24.153189934794135 0.0
vertex -6.618990488564317 -22.881840954011004 -4.511946372076636e-14
endloop
endfacet
facet normal 0.7071067811865471 -0.7071067811865479 3.3811531449274594e-16
outer loop
vertex -8.275844738056703 -24.153189934794135 0.0
vertex -6.618990488564317 -22.881840954011 1.499999999999941
vertex -8.275844738056703 -24.153189934794135 1.499999999999986
endloop
endfacet
facet normal 0.2588190451025206 -0.9659258262890684 4.618741090056559e-16
outer loop
vertex -4.68954284938449 -22.08263757397397 -3.3839597790574766e-14
vertex -6.618990488564317 -22.881840954011 1.499999999999941
vertex -6.618990488564317 -22.881840954011004 -4.511946372076636e-14
endloop
endfacet
facet normal 0.5 -0.8660254037844387 4.141049973639449e-16
outer loop
vertex -6.618990488564317 -22.881840954011 1.499999999999941
vertex -4.68954284938449 -22.08263757397397 -3.3839597790574766e-14
vertex -4.68954284938449 -22.082637573973965 1.499999999999952
endloop
endfacet
facet normal -0.25881904510252074 -0.9659258262890684 4.618741090056562e-16
outer loop
vertex 15.451561872255839 -22.082637573973972 1.499999999999952
vertex 13.381009511435668 -21.810044184286518 -3.3839597790574766e-14
vertex 15.451561872255839 -22.082637573973972 -3.3839597790574766e-14
endloop
endfacet
facet normal -0.06540312923014316 -0.9978589232386036 4.771434705859561e-16
outer loop
vertex 13.381009511435668 -21.810044184286518 -3.3839597790574766e-14
vertex 15.451561872255839 -22.082637573973972 1.499999999999952
vertex 13.381009511435668 -21.810044184286518 1.499999999999952
endloop
endfacet
facet normal -0.5000000000000009 -0.8660254037844383 4.1410499736394516e-16
outer loop
vertex 17.38100951143567 -22.881840954011004 1.499999999999941
vertex 15.451561872255839 -22.082637573973972 -3.3839597790574766e-14
vertex 17.38100951143567 -22.881840954011007 -4.511946372076636e-14
endloop
endfacet
facet normal -0.25881904510252113 -0.9659258262890682 4.618741090056561e-16
outer loop
vertex 15.451561872255839 -22.082637573973972 -3.3839597790574766e-14
vertex 17.38100951143567 -22.881840954011004 1.499999999999941
vertex 15.451561872255839 -22.082637573973972 1.499999999999952
endloop
endfacet
facet normal -0.7071067811865472 -0.7071067811865478 3.381153144927464e-16
outer loop
vertex 19.03786376092805 -24.153189934794135 0.0
vertex 17.38100951143567 -22.881840954011004 1.499999999999941
vertex 17.38100951143567 -22.881840954011007 -4.511946372076636e-14
endloop
endfacet
facet normal -0.5000000000000009 -0.8660254037844383 4.1410499736394516e-16
outer loop
vertex 17.38100951143567 -22.881840954011004 1.499999999999941
vertex 19.03786376092805 -24.153189934794135 0.0
vertex 19.03786376092805 -24.153189934794135 1.499999999999986
endloop
endfacet
facet normal -0.7071067811865477 -0.7071067811865475 3.381153144927462e-16
outer loop
vertex 19.03786376092805 -24.153189934794135 1.499999999999986
vertex 20.30921274171117 -25.810044184286518 -3.3839597790574766e-14
vertex 20.30921274171117 -25.810044184286518 1.499999999999952
endloop
endfacet
facet normal -0.8660254037844392 -0.4999999999999994 2.3908363170084305e-16
outer loop
vertex 20.30921274171117 -25.810044184286518 -3.3839597790574766e-14
vertex 19.03786376092805 -24.153189934794135 1.499999999999986
vertex 19.03786376092805 -24.153189934794135 0.0
endloop
endfacet
facet normal -0.8660254037844384 -0.5000000000000006 2.390836317008436e-16
outer loop
vertex 20.30921274171117 -25.810044184286518 1.499999999999952
vertex 21.10841612174821 -27.739491823466352 -3.3839597790574766e-14
vertex 21.10841612174821 -27.739491823466352 1.499999999999952
endloop
endfacet
facet normal -0.9659258262890683 -0.25881904510252113 1.237587945129107e-16
outer loop
vertex 21.10841612174821 -27.739491823466352 -3.3839597790574766e-14
vertex 20.30921274171117 -25.810044184286518 1.499999999999952
vertex 20.30921274171117 -25.810044184286518 -3.3839597790574766e-14
endloop
endfacet
facet normal 0.06540312923014284 -0.9978589232386036 4.771434705859561e-16
outer loop
vertex -2.6189904885643247 -21.810044184286514 1.499999999999952
vertex -4.68954284938449 -22.08263757397397 -3.3839597790574766e-14
vertex -2.6189904885643247 -21.810044184286518 -3.3839597790574766e-14
endloop
endfacet
facet normal 0.2588190451025206 -0.9659258262890684 4.618741090056559e-16
outer loop
vertex -4.68954284938449 -22.08263757397397 -3.3839597790574766e-14
vertex -2.6189904885643247 -21.810044184286514 1.499999999999952
vertex -4.68954284938449 -22.082637573973965 1.499999999999952
endloop
endfacet
facet normal -0.06540312923014316 -0.9978589232386036 4.771434705859561e-16
outer loop
vertex 13.381009511435668 -21.810044184286518 1.499999999999952
vertex -2.6189904885643247 -21.810044184286518 -3.3839597790574766e-14
vertex 13.381009511435668 -21.810044184286518 -3.3839597790574766e-14
endloop
endfacet
facet normal 0.06540312923014284 -0.9978589232386037 4.77143470585956e-16
outer loop
vertex -2.6189904885643247 -21.810044184286518 -3.3839597790574766e-14
vertex 13.381009511435668 -21.810044184286518 1.499999999999952
vertex -2.6189904885643247 -21.810044184286514 1.499999999999952
endloop
endfacet
facet normal -1.0 2.1445551573364456e-31 4.511946372076636e-16
outer loop
vertex 60.88100951143566 -16.810044184286507 26.499999999999957
vertex 60.881009511435686 -19.81004418428651 13.24999999999999
vertex 60.881009511435686 -19.81004418428651 26.499999999999964
endloop
endfacet
facet normal -1.0 2.1445551573364456e-31 4.511946372076636e-16
outer loop
vertex 60.881009511435686 -39.81004418428651 26.499999999999975
vertex 60.88100951143566 -42.81004418428651 1.4999999999999747
vertex 60.88100951143566 -42.81004418428651 26.49999999999998
endloop
endfacet
facet normal -1.0 2.1445551573364456e-31 4.511946372076636e-16
outer loop
vertex 60.88100951143566 -42.81004418428651 1.4999999999999747
vertex 60.881009511435686 -39.81004418428651 26.499999999999975
vertex 60.881009511435686 -39.81004418428651 13.24999999999999
endloop
endfacet
facet normal -1.0 2.1445551573364456e-31 4.511946372076636e-16
outer loop
vertex 60.88100951143566 -42.81004418428651 1.4999999999999747
vertex 60.881009511435686 -39.81004418428651 13.24999999999999
vertex 60.881009511435686 -39.46930244717719 10.661809548974787
endloop
endfacet
facet normal -1.0 2.1445551573364456e-31 4.511946372076636e-16
outer loop
vertex 60.88100951143566 -42.81004418428651 1.4999999999999747
vertex 60.881009511435686 -39.46930244717719 10.661809548974787
vertex 60.881009511435686 -38.4702982221309 8.249999999999993
endloop
endfacet
facet normal -1.0 2.1445551573364456e-31 4.511946372076636e-16
outer loop
vertex 60.88100951143566 -42.81004418428651 1.4999999999999747
vertex 60.881009511435686 -38.4702982221309 8.249999999999993
vertex 60.881009511435686 -36.881111996151986 6.178932188134519
endloop
endfacet
facet normal -1.0 2.1445551573364456e-31 4.511946372076636e-16
outer loop
vertex 60.88100951143566 -42.81004418428651 1.4999999999999747
vertex 60.881009511435686 -36.881111996151986 6.178932188134519
vertex 60.881009511435686 -34.81004418428651 4.589745962155608
endloop
endfacet
facet normal -1.0 2.1445551573364456e-31 4.511946372076636e-16
outer loop
vertex 60.88100951143566 -42.81004418428651 1.4999999999999747
vertex 60.881009511435686 -34.81004418428651 4.589745962155608
vertex 60.881009511435686 -32.398234635311724 3.59074173710931
endloop
endfacet
facet normal -1.0 2.1445551573364456e-31 4.511946372076636e-16
outer loop
vertex 60.88100951143566 -42.81004418428651 1.4999999999999747
vertex 60.881009511435686 -32.398234635311724 3.59074173710931
vertex 60.88100951143566 -16.8100441842865 1.4999999999999634
endloop
endfacet
facet normal -1.0 2.1445551573364456e-31 4.511946372076636e-16
outer loop
vertex 60.88100951143566 -16.8100441842865 1.4999999999999634
vertex 60.881009511435686 -32.398234635311724 3.59074173710931
vertex 60.881009511435686 -29.81004418428651 3.249999999999991
endloop
endfacet
facet normal -1.0 2.1445551573364456e-31 4.511946372076636e-16
outer loop
vertex 60.88100951143566 -16.8100441842865 1.4999999999999634
vertex 60.881009511435686 -29.81004418428651 3.249999999999991
vertex 60.881009511435686 -27.221853733261312 3.5907417371093073
endloop
endfacet
facet normal -1.0 2.1445551573364456e-31 4.511946372076636e-16
outer loop
vertex 60.88100951143566 -16.8100441842865 1.4999999999999634
vertex 60.881009511435686 -27.221853733261312 3.5907417371093073
vertex 60.881009511435686 -24.810044184286518 4.589745962155601
endloop
endfacet
facet normal -1.0 2.1445551573364456e-31 4.511946372076636e-16
outer loop
vertex 60.88100951143566 -16.8100441842865 1.4999999999999634
vertex 60.881009511435686 -24.810044184286518 4.589745962155601
vertex 60.881009511435686 -22.73897637242104 6.178932188134514
endloop
endfacet
facet normal -1.0 2.1445551573364456e-31 4.511946372076636e-16
outer loop
vertex 60.88100951143566 -16.8100441842865 1.4999999999999634
vertex 60.881009511435686 -22.73897637242104 6.178932188134514
vertex 60.881009511435686 -21.14979014644213 8.249999999999986
endloop
endfacet
facet normal -1.0 2.1445551573364456e-31 4.511946372076636e-16
outer loop
vertex 60.88100951143566 -16.8100441842865 1.4999999999999634
vertex 60.881009511435686 -21.14979014644213 8.249999999999986
vertex 60.881009511435686 -20.150785921395833 10.661809548974773
endloop
endfacet
facet normal -1.0 2.1445551573364456e-31 4.511946372076636e-16
outer loop
vertex 60.88100951143566 -16.8100441842865 1.4999999999999634
vertex 60.881009511435686 -20.150785921395833 10.661809548974773
vertex 60.881009511435686 -19.81004418428651 13.24999999999999
endloop
endfacet
facet normal -1.0 2.1445551573364456e-31 4.511946372076636e-16
outer loop
vertex 60.88100951143566 -16.8100441842865 1.4999999999999634
vertex 60.881009511435686 -19.81004418428651 13.24999999999999
vertex 60.88100951143566 -16.810044184286507 26.499999999999957
endloop
endfacet
facet normal 3.473673207000019e-18 1.0 4.950032476911585e-17
outer loop
vertex -50.11899048856434 -42.81004418428651 26.49999999999998
vertex 60.88100951143566 -42.81004418428651 1.4999999999999747
vertex -50.11899048856434 -42.81004418428651 1.4999999999999747
endloop
endfacet
facet normal 3.473673207000019e-18 1.0 4.950032476911585e-17
outer loop
vertex 60.88100951143566 -42.81004418428651 1.4999999999999747
vertex -50.11899048856434 -42.81004418428651 26.49999999999998
vertex 56.88100951143569 -42.81004418428651 26.499999999999975
endloop
endfacet
facet normal 3.473673207000019e-18 1.0 4.950032476911585e-17
outer loop
vertex 56.88100951143569 -42.81004418428651 26.499999999999975
vertex 60.88100951143566 -42.81004418428651 26.49999999999998
vertex 60.88100951143566 -42.81004418428651 1.4999999999999747
endloop
endfacet
facet normal 3.473673207000019e-18 1.0 4.950032476911585e-17
outer loop
vertex 60.88100951143566 -42.81004418428651 26.49999999999998
vertex 56.88100951143569 -42.81004418428651 26.499999999999975
vertex 56.88100951143569 -42.81004418428651 29.499999999999968
endloop
endfacet
facet normal 3.473673207000019e-18 1.0 4.950032476911585e-17
outer loop
vertex 60.88100951143566 -42.81004418428651 26.49999999999998
vertex 56.88100951143569 -42.81004418428651 29.499999999999968
vertex 60.881009511435686 -42.81004418428651 29.499999999999968
endloop
endfacet
facet normal -1.0 0.0 0.0
outer loop
vertex 56.88100951143569 -42.81004418428651 29.499999999999968
vertex 56.88100951143569 -45.310044184286504 28.499999999999975
vertex 56.88100951143569 -45.310044184286504 29.499999999999975
endloop
endfacet
facet normal -1.0 0.0 0.0
outer loop
vertex 56.88100951143569 -45.310044184286504 28.499999999999975
vertex 56.88100951143569 -42.81004418428651 29.499999999999968
vertex 56.88100951143569 -44.310044184286504 28.499999999999975
endloop
endfacet
facet normal -1.0 0.0 0.0
outer loop
vertex 56.88100951143569 -44.310044184286504 28.499999999999975
vertex 56.88100951143569 -42.81004418428651 29.499999999999968
vertex 56.88100951143569 -44.310044184286504 26.49999999999998
endloop
endfacet
facet normal -1.0 0.0 0.0
outer loop
vertex 56.88100951143569 -44.310044184286504 26.49999999999998
vertex 56.88100951143569 -42.81004418428651 29.499999999999968
vertex 56.88100951143569 -42.81004418428651 26.499999999999975
endloop
endfacet
facet normal 0.0 0.0 1.0
outer loop
vertex 60.881009511435686 -45.310044184286504 29.499999999999975
vertex 56.88100951143569 -42.81004418428651 29.499999999999968
vertex 56.88100951143569 -45.310044184286504 29.499999999999975
endloop
endfacet
facet normal 0.0 0.0 1.0
outer loop
vertex 56.88100951143569 -42.81004418428651 29.499999999999968
vertex 60.881009511435686 -45.310044184286504 29.499999999999975
vertex 60.881009511435686 -42.81004418428651 29.499999999999968
endloop
endfacet
facet normal 0.0 -1.0 0.0
outer loop
vertex 60.881009511435686 -45.310044184286504 29.499999999999975
vertex 56.88100951143569 -45.310044184286504 28.499999999999975
vertex 60.881009511435686 -45.310044184286504 28.499999999999975
endloop
endfacet
facet normal 0.0 -1.0 0.0
outer loop
vertex 56.88100951143569 -45.310044184286504 28.499999999999975
vertex 60.881009511435686 -45.310044184286504 29.499999999999975
vertex 56.88100951143569 -45.310044184286504 29.499999999999975
endloop
endfacet
facet normal 1.0 3.66206979663188e-15 -3.1784002008503204e-15
outer loop
vertex 60.88100951143566 -42.81004418428651 26.49999999999998
vertex 60.881009511435686 -44.310044184286504 28.499999999999975
vertex 60.881009511435686 -44.310044184286504 26.49999999999998
endloop
endfacet
facet normal 1.0 3.66206979663188e-15 -3.1784002008503204e-15
outer loop
vertex 60.881009511435686 -44.310044184286504 28.499999999999975
vertex 60.881009511435686 -45.310044184286504 29.499999999999975
vertex 60.881009511435686 -45.310044184286504 28.499999999999975
endloop
endfacet
facet normal 1.0 3.66206979663188e-15 -3.1784002008503204e-15
outer loop
vertex 60.881009511435686 -45.310044184286504 29.499999999999975
vertex 60.881009511435686 -44.310044184286504 28.499999999999975
vertex 60.881009511435686 -42.81004418428651 29.499999999999968
endloop
endfacet
facet normal 1.0 3.66206979663188e-15 -3.1784002008503204e-15
outer loop
vertex 60.881009511435686 -42.81004418428651 29.499999999999968
vertex 60.881009511435686 -44.310044184286504 28.499999999999975
vertex 60.88100951143566 -42.81004418428651 26.49999999999998
endloop
endfacet
facet normal 0.0 0.0 -1.0
outer loop
vertex 60.881009511435686 -44.310044184286504 28.499999999999975
vertex 56.88100951143569 -45.310044184286504 28.499999999999975
vertex 56.88100951143569 -44.310044184286504 28.499999999999975
endloop
endfacet
facet normal 0.0 0.0 -1.0
outer loop
vertex 56.88100951143569 -45.310044184286504 28.499999999999975
vertex 60.881009511435686 -44.310044184286504 28.499999999999975
vertex 60.881009511435686 -45.310044184286504 28.499999999999975
endloop
endfacet
facet normal 1.8605018927293175e-17 1.0 -1.4337952089299928e-16
outer loop
vertex -50.11899048856433 -15.310044184286514 28.499999999999964
vertex -46.118990488564336 -15.31004418428648 26.499999999999968
vertex -50.11899048856433 -15.310044184286504 26.499999999999957
endloop
endfacet
facet normal 1.8605018927293175e-17 1.0 -1.4337952089299928e-16
outer loop
vertex -46.118990488564336 -15.31004418428648 26.499999999999968
vertex -50.11899048856433 -15.310044184286514 28.499999999999964
vertex -46.118990488564336 -15.310044184286491 28.499999999999975
endloop
endfacet
facet normal 1.8605018927293175e-17 1.0 -1.4337952089299928e-16
outer loop
vertex -51.618990488564336 -15.310044184286504 26.499999999999957
vertex 62.38100951143568 -15.310044184286504 0.0
vertex -51.618990488564336 -15.310044184286504 0.0
endloop
endfacet
facet normal 1.8605018927293175e-17 1.0 -1.4337952089299928e-16
outer loop
vertex 62.38100951143568 -15.310044184286504 0.0
vertex -51.618990488564336 -15.310044184286504 26.499999999999957
vertex -50.11899048856433 -15.310044184286504 26.499999999999957
endloop
endfacet
facet normal 1.8605018927293175e-17 1.0 -1.4337952089299928e-16
outer loop
vertex 62.38100951143568 -15.310044184286504 0.0
vertex -50.11899048856433 -15.310044184286504 26.499999999999957
vertex 62.38100951143568 -15.310044184286504 26.49999999999998
endloop
endfacet
facet normal 1.8605018927293175e-17 1.0 -1.4337952089299928e-16
outer loop
vertex 62.38100951143568 -15.310044184286504 26.49999999999998
vertex -50.11899048856433 -15.310044184286504 26.499999999999957
vertex -46.118990488564336 -15.31004418428648 26.499999999999968
endloop
endfacet
facet normal 1.0 -1.8655827265863016e-15 -8.429670097907268e-15
outer loop
vertex -46.118990488564336 -15.31004418428648 26.499999999999968
vertex -46.118990488564336 -15.310044184286491 28.499999999999975
vertex -46.118990488564314 -16.810044184286454 26.499999999999968
endloop
endfacet
facet normal 1.0 -1.8655827265863016e-15 -8.429670097907268e-15
outer loop
vertex -46.1189904885643 -16.81004418428647 29.499999999999964
vertex -46.118990488564336 -15.310044184286491 28.499999999999975
vertex -46.11899048856429 -14.310044184286449 29.499999999999964
endloop
endfacet
facet normal 1.0 -1.8655827265863016e-15 -8.429670097907268e-15
outer loop
vertex -46.118990488564336 -15.310044184286491 28.499999999999975
vertex -46.1189904885643 -16.81004418428647 29.499999999999964
vertex -46.118990488564314 -16.810044184286454 26.499999999999968
endloop
endfacet
facet normal 1.0 -1.8655827265863016e-15 -8.429670097907268e-15
outer loop
vertex -46.11899048856429 -14.310044184286449 29.499999999999964
vertex -46.118990488564336 -15.310044184286491 28.499999999999975
vertex -46.11899048856429 -14.310044184286449 28.499999999999964
endloop
endfacet
facet normal -1.0 1.5719261862900773e-14 -8.291478784828147e-16
outer loop
vertex -50.11899048856431 -14.310044184286449 29.49999999999994
vertex -50.11899048856433 -15.310044184286514 28.499999999999964
vertex -50.11899048856435 -16.8100441842865 29.499999999999964
endloop
endfacet
facet normal -1.0 1.5719261862900773e-14 -8.291478784828147e-16
outer loop
vertex -50.11899048856433 -15.310044184286514 28.499999999999964
vertex -50.11899048856431 -14.310044184286449 29.49999999999994
vertex -50.11899048856431 -14.310044184286449 28.499999999999943
endloop
endfacet
facet normal -1.0 1.5719261862900773e-14 -8.291478784828147e-16
outer loop
vertex -50.11899048856435 -16.8100441842865 29.499999999999964
vertex -50.11899048856433 -15.310044184286504 26.499999999999957
vertex -50.11899048856434 -16.810044184286507 26.499999999999957
endloop
endfacet
facet normal -1.0 1.5719261862900773e-14 -8.291478784828147e-16
outer loop
vertex -50.11899048856433 -15.310044184286504 26.499999999999957
vertex -50.11899048856435 -16.8100441842865 29.499999999999964
vertex -50.11899048856433 -15.310044184286514 28.499999999999964
endloop
endfacet
facet normal 0.0 0.0 -1.0
outer loop
vertex -50.11899048856431 -14.310044184286449 28.499999999999943
vertex -46.118990488564336 -15.310044184286491 28.499999999999975
vertex -50.11899048856433 -15.310044184286514 28.499999999999964
endloop
endfacet
facet normal 0.0 0.0 -1.0
outer loop
vertex -46.118990488564336 -15.310044184286491 28.499999999999975
vertex -50.11899048856431 -14.310044184286449 28.499999999999943
vertex -46.11899048856429 -14.310044184286449 28.499999999999964
endloop
endfacet
facet normal -2.621672136797124e-30 1.0 3.944304526105059e-31
outer loop
vertex -50.11899048856431 -14.310044184286449 29.49999999999994
vertex -46.11899048856429 -14.310044184286449 28.499999999999964
vertex -50.11899048856431 -14.310044184286449 28.499999999999943
endloop
endfacet
facet normal -2.621672136797124e-30 1.0 3.944304526105059e-31
outer loop
vertex -46.11899048856429 -14.310044184286449 28.499999999999964
vertex -50.11899048856431 -14.310044184286449 29.49999999999994
vertex -46.11899048856429 -14.310044184286449 29.499999999999964
endloop
endfacet
facet normal 0.0 0.0 1.0
outer loop
vertex -46.1189904885643 -16.81004418428647 29.499999999999964
vertex -50.11899048856431 -14.310044184286449 29.49999999999994
vertex -50.11899048856435 -16.8100441842865 29.499999999999964
endloop
endfacet
facet normal 0.0 0.0 1.0
outer loop
vertex -50.11899048856431 -14.310044184286449 29.49999999999994
vertex -46.1189904885643 -16.81004418428647 29.499999999999964
vertex -46.11899048856429 -14.310044184286449 29.499999999999964
endloop
endfacet
facet normal -1.0 0.0 0.0
outer loop
vertex -51.618990488564336 -15.310044184286504 26.499999999999957
vertex -51.618990488564336 -19.810044184286507 13.249999999999984
vertex -51.618990488564336 -19.810044184286507 26.499999999999964
endloop
endfacet
facet normal -1.0 0.0 0.0
outer loop
vertex -51.618990488564336 -42.81004418428651 26.49999999999998
vertex -51.618990488564336 -44.310044184286504 0.0
vertex -51.618990488564336 -44.310044184286504 26.49999999999998
endloop
endfacet
facet normal -1.0 0.0 0.0
outer loop
vertex -51.618990488564336 -44.310044184286504 0.0
vertex -51.618990488564336 -42.81004418428651 26.49999999999998
vertex -51.618990488564336 -39.469302447177185 10.661809548974782
endloop
endfacet
facet normal -1.0 0.0 0.0
outer loop
vertex -51.618990488564336 -44.310044184286504 0.0
vertex -51.618990488564336 -39.469302447177185 10.661809548974782
vertex -51.618990488564336 -38.47029822213089 8.249999999999988
endloop
endfacet
facet normal -1.0 0.0 0.0
outer loop
vertex -51.618990488564336 -44.310044184286504 0.0
vertex -51.618990488564336 -38.47029822213089 8.249999999999988
vertex -51.618990488564336 -36.88111199615198 6.178932188134514
endloop
endfacet
facet normal -1.0 0.0 0.0
outer loop
vertex -51.618990488564336 -44.310044184286504 0.0
vertex -51.618990488564336 -36.88111199615198 6.178932188134514
vertex -51.618990488564336 -34.810044184286504 4.589745962155602
endloop
endfacet
facet normal -1.0 0.0 0.0
outer loop
vertex -51.618990488564336 -44.310044184286504 0.0
vertex -51.618990488564336 -34.810044184286504 4.589745962155602
vertex -51.618990488564336 -32.398234635311724 3.5907417371093047
endloop
endfacet
facet normal -1.0 0.0 0.0
outer loop
vertex -51.618990488564336 -44.310044184286504 0.0
vertex -51.618990488564336 -32.398234635311724 3.5907417371093047
vertex -51.618990488564336 -15.310044184286504 0.0
endloop
endfacet
facet normal -1.0 0.0 0.0
outer loop
vertex -51.618990488564336 -39.469302447177185 10.661809548974782
vertex -51.618990488564336 -42.81004418428651 26.49999999999998
vertex -51.618990488564336 -39.810044184286504 13.249999999999984
endloop
endfacet
facet normal -1.0 0.0 0.0
outer loop
vertex -51.618990488564336 -39.810044184286504 13.249999999999984
vertex -51.618990488564336 -42.81004418428651 26.49999999999998
vertex -51.618990488564336 -39.810044184286504 26.499999999999975
endloop
endfacet
facet normal -1.0 0.0 0.0
outer loop
vertex -51.618990488564336 -15.310044184286504 0.0
vertex -51.618990488564336 -32.398234635311724 3.5907417371093047
vertex -51.618990488564336 -29.810044184286504 3.249999999999986
endloop
endfacet
facet normal -1.0 0.0 0.0
outer loop
vertex -51.618990488564336 -15.310044184286504 0.0
vertex -51.618990488564336 -29.810044184286504 3.249999999999986
vertex -51.618990488564336 -27.221853733261305 3.5907417371093016
endloop
endfacet
facet normal -1.0 0.0 0.0
outer loop
vertex -51.618990488564336 -15.310044184286504 0.0
vertex -51.618990488564336 -27.221853733261305 3.5907417371093016
vertex -51.618990488564336 -24.810044184286514 4.589745962155595
endloop
endfacet
facet normal -1.0 0.0 0.0
outer loop
vertex -51.618990488564336 -15.310044184286504 0.0
vertex -51.618990488564336 -24.810044184286514 4.589745962155595
vertex -51.618990488564336 -22.738976372421035 6.1789321881345085
endloop
endfacet
facet normal -1.0 0.0 0.0
outer loop
vertex -51.618990488564336 -15.310044184286504 0.0
vertex -51.618990488564336 -22.738976372421035 6.1789321881345085
vertex -51.618990488564336 -21.149790146442125 8.24999999999998
endloop
endfacet
facet normal -1.0 0.0 0.0
outer loop
vertex -51.618990488564336 -15.310044184286504 0.0
vertex -51.618990488564336 -21.149790146442125 8.24999999999998
vertex -51.618990488564336 -20.150785921395826 10.66180954897477
endloop
endfacet
facet normal -1.0 0.0 0.0
outer loop
vertex -51.618990488564336 -15.310044184286504 0.0
vertex -51.618990488564336 -20.150785921395826 10.66180954897477
vertex -51.618990488564336 -19.810044184286507 13.249999999999984
endloop
endfacet
facet normal -1.0 0.0 0.0
outer loop
vertex -51.618990488564336 -15.310044184286504 0.0
vertex -51.618990488564336 -19.810044184286507 13.249999999999984
vertex -51.618990488564336 -15.310044184286504 26.499999999999957
endloop
endfacet
facet normal 2.3397898111959676e-18 -1.0 6.14879532623119e-17
outer loop
vertex 60.881009511435686 -44.310044184286504 28.499999999999975
vertex 56.88100951143569 -44.310044184286504 26.49999999999998
vertex 60.881009511435686 -44.310044184286504 26.49999999999998
endloop
endfacet
facet normal 2.3397898111959676e-18 -1.0 6.14879532623119e-17
outer loop
vertex 56.88100951143569 -44.310044184286504 26.49999999999998
vertex 60.881009511435686 -44.310044184286504 28.499999999999975
vertex 56.88100951143569 -44.310044184286504 28.499999999999975
endloop
endfacet
facet normal 2.3397898111959676e-18 -1.0 6.14879532623119e-17
outer loop
vertex 62.38100951143568 -44.310044184286504 26.49999999999998
vertex -51.618990488564336 -44.310044184286504 0.0
vertex 62.38100951143568 -44.310044184286504 0.0
endloop
endfacet
facet normal 2.3397898111959676e-18 -1.0 6.14879532623119e-17
outer loop
vertex -51.618990488564336 -44.310044184286504 0.0
vertex 62.38100951143568 -44.310044184286504 26.49999999999998
vertex -51.618990488564336 -44.310044184286504 26.49999999999998
endloop
endfacet
facet normal 2.3397898111959676e-18 -1.0 6.14879532623119e-17
outer loop
vertex -51.618990488564336 -44.310044184286504 26.49999999999998
vertex 62.38100951143568 -44.310044184286504 26.49999999999998
vertex 60.881009511435686 -44.310044184286504 26.49999999999998
endloop
endfacet
facet normal 2.3397898111959676e-18 -1.0 6.14879532623119e-17
outer loop
vertex -51.618990488564336 -44.310044184286504 26.49999999999998
vertex 60.881009511435686 -44.310044184286504 26.49999999999998
vertex 56.88100951143569 -44.310044184286504 26.49999999999998
endloop
endfacet
facet normal -1.5605160217293267e-17 -2.347883235669289e-15 1.0
outer loop
vertex -46.118990488564314 -16.810044184286454 26.499999999999968
vertex 62.38100951143568 -15.310044184286504 26.49999999999998
vertex -46.118990488564336 -15.31004418428648 26.499999999999968
endloop
endfacet
facet normal -1.5605160217293267e-17 -2.347883235669289e-15 1.0
outer loop
vertex 62.38100951143568 -15.310044184286504 26.49999999999998
vertex -46.118990488564314 -16.810044184286454 26.499999999999968
vertex 60.88100951143566 -16.810044184286507 26.499999999999957
endloop
endfacet
facet normal -1.5605160217293267e-17 -2.347883235669289e-15 1.0
outer loop
vertex 62.38100951143568 -15.310044184286504 26.49999999999998
vertex 60.88100951143566 -16.810044184286507 26.499999999999957
vertex 60.881009511435686 -19.81004418428651 26.499999999999964
endloop
endfacet
facet normal -1.5605160217293267e-17 -2.347883235669289e-15 1.0
outer loop
vertex 62.38100951143568 -15.310044184286504 26.49999999999998
vertex 60.881009511435686 -19.81004418428651 26.499999999999964
vertex 62.38100951143568 -19.81004418428651 26.499999999999964
endloop
endfacet
facet normal 0.0 1.0 0.0
outer loop
vertex 60.881009511435686 -39.81004418428651 26.499999999999975
vertex 62.38100951143568 -39.81004418428651 13.24999999999999
vertex 60.881009511435686 -39.81004418428651 13.24999999999999
endloop
endfacet
facet normal 0.0 0.9978589232386036 0.06540312923014328
outer loop
vertex 62.38100951143568 -39.81004418428651 13.24999999999999
vertex 60.881009511435686 -39.81004418428651 26.499999999999975
vertex 62.38100951143568 -39.81004418428651 26.499999999999975
endloop
endfacet
facet normal 0.0 0.9978589232386036 0.06540312923014328
outer loop
vertex 60.881009511435686 -39.81004418428651 13.24999999999999
vertex 62.38100951143568 -39.46930244717719 10.661809548974787
vertex 60.881009511435686 -39.46930244717719 10.661809548974787
endloop
endfacet
facet normal 0.0 0.9659258262890684 0.25881904510252063
outer loop
vertex 62.38100951143568 -39.46930244717719 10.661809548974787
vertex 60.881009511435686 -39.81004418428651 13.24999999999999
vertex 62.38100951143568 -39.81004418428651 13.24999999999999
endloop
endfacet
facet normal 0.0 0.9659258262890684 0.25881904510252063
outer loop
vertex 60.881009511435686 -39.46930244717719 10.661809548974787
vertex 62.38100951143568 -38.4702982221309 8.249999999999993
vertex 60.881009511435686 -38.4702982221309 8.249999999999993
endloop
endfacet
facet normal 0.0 0.8660254037844389 0.4999999999999997
outer loop
vertex 62.38100951143568 -38.4702982221309 8.249999999999993
vertex 60.881009511435686 -39.46930244717719 10.661809548974787
vertex 62.38100951143568 -39.46930244717719 10.661809548974787
endloop
endfacet
facet normal 0.0 0.8660254037844389 0.4999999999999997
outer loop
vertex 60.881009511435686 -38.4702982221309 8.249999999999993
vertex 62.38100951143568 -36.881111996151986 6.178932188134519
vertex 60.881009511435686 -36.881111996151986 6.178932188134519
endloop
endfacet
facet normal 0.0 0.7071067811865477 0.7071067811865475
outer loop
vertex 62.38100951143568 -36.881111996151986 6.178932188134519
vertex 60.881009511435686 -38.4702982221309 8.249999999999993
vertex 62.38100951143568 -38.4702982221309 8.249999999999993
endloop
endfacet
facet normal 0.0 0.7071067811865477 0.7071067811865475
outer loop
vertex 62.38100951143568 -36.881111996151986 6.178932188134519
vertex 60.881009511435686 -34.81004418428651 4.589745962155608
vertex 60.881009511435686 -36.881111996151986 6.178932188134519
endloop
endfacet
facet normal 0.0 0.5000000000000008 0.8660254037844383
outer loop
vertex 60.881009511435686 -34.81004418428651 4.589745962155608
vertex 62.38100951143568 -36.881111996151986 6.178932188134519
vertex 62.38100951143568 -34.81004418428651 4.589745962155608
endloop
endfacet
facet normal 0.0 0.5000000000000008 0.8660254037844383
outer loop
vertex 62.38100951143568 -34.81004418428651 4.589745962155608
vertex 60.881009511435686 -32.398234635311724 3.59074173710931
vertex 60.881009511435686 -34.81004418428651 4.589745962155608
endloop
endfacet
facet normal 0.0 0.25881904510252157 0.9659258262890681
outer loop
vertex 60.881009511435686 -32.398234635311724 3.59074173710931
vertex 62.38100951143568 -34.81004418428651 4.589745962155608
vertex 62.38100951143568 -32.398234635311724 3.59074173710931
endloop
endfacet
facet normal 0.0 0.25881904510252157 0.9659258262890681
outer loop
vertex 62.38100951143568 -32.398234635311724 3.59074173710931
vertex 60.881009511435686 -29.81004418428651 3.249999999999991
vertex 60.881009511435686 -32.398234635311724 3.59074173710931
endloop
endfacet
facet normal 0.0 1.0693331874776287e-16 1.0
outer loop
vertex 60.881009511435686 -29.81004418428651 3.249999999999991
vertex 62.38100951143568 -32.398234635311724 3.59074173710931
vertex 62.38100951143568 -29.81004418428651 3.249999999999991
endloop
endfacet
facet normal 0.0 1.0693331874776287e-16 1.0
outer loop
vertex 62.38100951143568 -29.81004418428651 3.249999999999991
vertex 60.881009511435686 -27.221853733261312 3.5907417371093073
vertex 60.881009511435686 -29.81004418428651 3.249999999999991
endloop
endfacet
facet normal 0.0 -0.25881904510252035 0.9659258262890684
outer loop
vertex 60.881009511435686 -27.221853733261312 3.5907417371093073
vertex 62.38100951143568 -29.81004418428651 3.249999999999991
vertex 62.38100951143568 -27.221853733261312 3.5907417371093073
endloop
endfacet
facet normal 0.0 -0.25881904510252035 0.9659258262890684
outer loop
vertex 62.38100951143568 -27.221853733261312 3.5907417371093073
vertex 60.881009511435686 -24.810044184286518 4.589745962155601
vertex 60.881009511435686 -27.221853733261312 3.5907417371093073
endloop
endfacet
facet normal 0.0 -0.49999999999999956 0.8660254037844392
outer loop
vertex 60.881009511435686 -24.810044184286518 4.589745962155601
vertex 62.38100951143568 -27.221853733261312 3.5907417371093073
vertex 62.38100951143568 -24.810044184286518 4.589745962155601
endloop
endfacet
facet normal 0.0 -0.49999999999999956 0.8660254037844392
outer loop
vertex 62.38100951143568 -24.810044184286518 4.589745962155601
vertex 60.881009511435686 -22.73897637242104 6.178932188134514
vertex 60.881009511435686 -24.810044184286518 4.589745962155601
endloop
endfacet
facet normal 0.0 -0.7071067811865474 0.7071067811865477
outer loop
vertex 60.881009511435686 -22.73897637242104 6.178932188134514
vertex 62.38100951143568 -24.810044184286518 4.589745962155601
vertex 62.38100951143568 -22.73897637242104 6.178932188134514
endloop
endfacet
facet normal 0.0 -0.8660254037844384 0.5000000000000007
outer loop
vertex 62.38100951143568 -21.14979014644213 8.249999999999986
vertex 60.881009511435686 -22.73897637242104 6.178932188134514
vertex 62.38100951143568 -22.73897637242104 6.178932188134514
endloop
endfacet
facet normal 0.0 -0.7071067811865474 0.7071067811865477
outer loop
vertex 60.881009511435686 -22.73897637242104 6.178932188134514
vertex 62.38100951143568 -21.14979014644213 8.249999999999986
vertex 60.881009511435686 -21.14979014644213 8.249999999999986
endloop
endfacet
facet normal 0.0 -0.9659258262890681 0.2588190451025218
outer loop
vertex 62.38100951143568 -20.150785921395833 10.661809548974773
vertex 60.881009511435686 -21.14979014644213 8.249999999999986
vertex 62.38100951143568 -21.14979014644213 8.249999999999986
endloop
endfacet
facet normal 0.0 -0.8660254037844384 0.5000000000000007
outer loop
vertex 60.881009511435686 -21.14979014644213 8.249999999999986
vertex 62.38100951143568 -20.150785921395833 10.661809548974773
vertex 60.881009511435686 -20.150785921395833 10.661809548974773
endloop
endfacet
facet normal 0.0 -0.9978589232386036 0.06540312923014345
outer loop
vertex 62.38100951143568 -19.81004418428651 13.24999999999999
vertex 60.881009511435686 -20.150785921395833 10.661809548974773
vertex 62.38100951143568 -20.150785921395833 10.661809548974773
endloop
endfacet
facet normal 0.0 -0.9659258262890681 0.2588190451025218
outer loop
vertex 60.881009511435686 -20.150785921395833 10.661809548974773
vertex 62.38100951143568 -19.81004418428651 13.24999999999999
vertex 60.881009511435686 -19.81004418428651 13.24999999999999
endloop
endfacet
facet normal 0.0 -1.0 0.0
outer loop
vertex 62.38100951143568 -19.81004418428651 26.499999999999964
vertex 60.881009511435686 -19.81004418428651 13.24999999999999
vertex 62.38100951143568 -19.81004418428651 13.24999999999999
endloop
endfacet
facet normal 0.0 -0.9978589232386036 0.06540312923014345
outer loop
vertex 60.881009511435686 -19.81004418428651 13.24999999999999
vertex 62.38100951143568 -19.81004418428651 26.499999999999964
vertex 60.881009511435686 -19.81004418428651 26.499999999999964
endloop
endfacet
facet normal 4.1017694291606615e-16 1.2988936525675169e-15 1.0
outer loop
vertex 60.881009511435686 -44.310044184286504 26.49999999999998
vertex 60.881009511435686 -39.81004418428651 26.499999999999975
vertex 60.88100951143566 -42.81004418428651 26.49999999999998
endloop
endfacet
facet normal 4.1017694291606615e-16 1.2988936525675169e-15 1.0
outer loop
vertex 60.881009511435686 -39.81004418428651 26.499999999999975
vertex 60.881009511435686 -44.310044184286504 26.49999999999998
vertex 62.38100951143568 -44.310044184286504 26.49999999999998
endloop
endfacet
facet normal 4.1017694291606615e-16 1.2988936525675169e-15 1.0
outer loop
vertex 60.881009511435686 -39.81004418428651 26.499999999999975
vertex 62.38100951143568 -44.310044184286504 26.49999999999998
vertex 62.38100951143568 -39.81004418428651 26.499999999999975
endloop
endfacet
facet normal 0.0 -1.0 0.0
outer loop
vertex -50.11899048856434 -19.810044184286507 26.499999999999964
vertex -51.618990488564336 -19.810044184286507 13.249999999999984
vertex -50.11899048856434 -19.810044184286507 13.249999999999984
endloop
endfacet
facet normal 0.0 -0.9978589232386036 0.06540312923014349
outer loop
vertex -51.618990488564336 -19.810044184286507 13.249999999999984
vertex -50.11899048856434 -19.810044184286507 26.499999999999964
vertex -51.618990488564336 -19.810044184286507 26.499999999999964
endloop
endfacet
facet normal 0.0 -0.9978589232386036 0.06540312923014349
outer loop
vertex -50.11899048856434 -19.810044184286507 13.249999999999984
vertex -51.618990488564336 -20.150785921395826 10.66180954897477
vertex -50.11899048856434 -20.150785921395826 10.66180954897477
endloop
endfacet
facet normal 0.0 -0.9659258262890681 0.25881904510252174
outer loop
vertex -51.618990488564336 -20.150785921395826 10.66180954897477
vertex -50.11899048856434 -19.810044184286507 13.249999999999984
vertex -51.618990488564336 -19.810044184286507 13.249999999999984
endloop
endfacet
facet normal 0.0 -0.9659258262890681 0.25881904510252174
outer loop
vertex -50.11899048856434 -20.150785921395826 10.66180954897477
vertex -51.618990488564336 -21.149790146442125 8.24999999999998
vertex -50.11899048856434 -21.149790146442125 8.24999999999998
endloop
endfacet
facet normal 0.0 -0.8660254037844384 0.5000000000000006
outer loop
vertex -51.618990488564336 -21.149790146442125 8.24999999999998
vertex -50.11899048856434 -20.150785921395826 10.66180954897477
vertex -51.618990488564336 -20.150785921395826 10.66180954897477
endloop
endfacet
facet normal 0.0 -0.8660254037844384 0.5000000000000006
outer loop
vertex -50.11899048856434 -21.149790146442125 8.24999999999998
vertex -51.618990488564336 -22.738976372421035 6.1789321881345085
vertex -50.11899048856434 -22.738976372421035 6.1789321881345085
endloop
endfacet
facet normal 0.0 -0.7071067811865474 0.7071067811865477
outer loop
vertex -51.618990488564336 -22.738976372421035 6.1789321881345085
vertex -50.11899048856434 -21.149790146442125 8.24999999999998
vertex -51.618990488564336 -21.149790146442125 8.24999999999998
endloop
endfacet
facet normal 0.0 -0.49999999999999956 0.8660254037844392
outer loop
vertex -50.11899048856434 -24.810044184286514 4.589745962155595
vertex -51.618990488564336 -22.738976372421035 6.1789321881345085
vertex -51.618990488564336 -24.810044184286514 4.589745962155595
endloop
endfacet
facet normal 0.0 -0.7071067811865474 0.7071067811865477
outer loop
vertex -51.618990488564336 -22.738976372421035 6.1789321881345085
vertex -50.11899048856434 -24.810044184286514 4.589745962155595
vertex -50.11899048856434 -22.738976372421035 6.1789321881345085
endloop
endfacet
facet normal 0.0 -0.25881904510252035 0.9659258262890684
outer loop
vertex -50.11899048856434 -27.221853733261305 3.5907417371093016
vertex -51.618990488564336 -24.810044184286514 4.589745962155595
vertex -51.618990488564336 -27.221853733261305 3.5907417371093016
endloop
endfacet
facet normal 0.0 -0.49999999999999956 0.8660254037844392
outer loop
vertex -51.618990488564336 -24.810044184286514 4.589745962155595
vertex -50.11899048856434 -27.221853733261305 3.5907417371093016
vertex -50.11899048856434 -24.810044184286514 4.589745962155595
endloop
endfacet
facet normal 0.0 1.0693331874776287e-16 1.0
outer loop
vertex -50.11899048856434 -29.810044184286504 3.249999999999986
vertex -51.618990488564336 -27.221853733261305 3.5907417371093016
vertex -51.618990488564336 -29.810044184286504 3.249999999999986
endloop
endfacet
facet normal 0.0 -0.25881904510252035 0.9659258262890684
outer loop
vertex -51.618990488564336 -27.221853733261305 3.5907417371093016
vertex -50.11899048856434 -29.810044184286504 3.249999999999986
vertex -50.11899048856434 -27.221853733261305 3.5907417371093016
endloop
endfacet
facet normal 0.0 0.25881904510252157 0.9659258262890681
outer loop
vertex -50.11899048856434 -32.398234635311724 3.5907417371093047
vertex -51.618990488564336 -29.810044184286504 3.249999999999986
vertex -51.618990488564336 -32.398234635311724 3.5907417371093047
endloop
endfacet
facet normal 0.0 1.0693331874776287e-16 1.0
outer loop
vertex -51.618990488564336 -29.810044184286504 3.249999999999986
vertex -50.11899048856434 -32.398234635311724 3.5907417371093047
vertex -50.11899048856434 -29.810044184286504 3.249999999999986
endloop
endfacet
facet normal 0.0 0.5000000000000008 0.8660254037844383
outer loop
vertex -50.11899048856434 -34.810044184286504 4.589745962155602
vertex -51.618990488564336 -32.398234635311724 3.5907417371093047
vertex -51.618990488564336 -34.810044184286504 4.589745962155602
endloop
endfacet
facet normal 0.0 0.25881904510252157 0.9659258262890681
outer loop
vertex -51.618990488564336 -32.398234635311724 3.5907417371093047
vertex -50.11899048856434 -34.810044184286504 4.589745962155602
vertex -50.11899048856434 -32.398234635311724 3.5907417371093047
endloop
endfacet
facet normal 0.0 0.7071067811865477 0.7071067811865475
outer loop
vertex -50.11899048856434 -36.88111199615198 6.178932188134514
vertex -51.618990488564336 -34.810044184286504 4.589745962155602
vertex -51.618990488564336 -36.88111199615198 6.178932188134514
endloop
endfacet
facet normal 0.0 0.5000000000000008 0.8660254037844383
outer loop
vertex -51.618990488564336 -34.810044184286504 4.589745962155602
vertex -50.11899048856434 -36.88111199615198 6.178932188134514
vertex -50.11899048856434 -34.810044184286504 4.589745962155602
endloop
endfacet
facet normal 0.0 0.8660254037844389 0.4999999999999997
outer loop
vertex -51.618990488564336 -38.47029822213089 8.249999999999988
vertex -50.11899048856434 -36.88111199615198 6.178932188134514
vertex -51.618990488564336 -36.88111199615198 6.178932188134514
endloop
endfacet
facet normal 0.0 0.7071067811865477 0.7071067811865475
outer loop
vertex -50.11899048856434 -36.88111199615198 6.178932188134514
vertex -51.618990488564336 -38.47029822213089 8.249999999999988
vertex -50.11899048856434 -38.47029822213089 8.249999999999988
endloop
endfacet
facet normal 0.0 0.9659258262890684 0.25881904510252063
outer loop
vertex -51.618990488564336 -39.469302447177185 10.661809548974782
vertex -50.11899048856434 -38.47029822213089 8.249999999999988
vertex -51.618990488564336 -38.47029822213089 8.249999999999988
endloop
endfacet
facet normal 0.0 0.8660254037844389 0.4999999999999997
outer loop
vertex -50.11899048856434 -38.47029822213089 8.249999999999988
vertex -51.618990488564336 -39.469302447177185 10.661809548974782
vertex -50.11899048856434 -39.469302447177185 10.661809548974782
endloop
endfacet
facet normal 0.0 0.9978589232386036 0.06540312923014328
outer loop
vertex -51.618990488564336 -39.810044184286504 13.249999999999984
vertex -50.11899048856434 -39.469302447177185 10.661809548974782
vertex -51.618990488564336 -39.469302447177185 10.661809548974782
endloop
endfacet
facet normal 0.0 0.9659258262890684 0.25881904510252063
outer loop
vertex -50.11899048856434 -39.469302447177185 10.661809548974782
vertex -51.618990488564336 -39.810044184286504 13.249999999999984
vertex -50.11899048856434 -39.810044184286504 13.249999999999984
endloop
endfacet
facet normal 0.0 1.0 0.0
outer loop
vertex -51.618990488564336 -39.810044184286504 26.499999999999975
vertex -50.11899048856434 -39.810044184286504 13.249999999999984
vertex -51.618990488564336 -39.810044184286504 13.249999999999984
endloop
endfacet
facet normal 0.0 0.9978589232386036 0.06540312923014328
outer loop
vertex -50.11899048856434 -39.810044184286504 13.249999999999984
vertex -51.618990488564336 -39.810044184286504 26.499999999999975
vertex -50.11899048856434 -39.810044184286504 26.499999999999975
endloop
endfacet
facet normal 4.10176942916055e-16 1.298893652567515e-15 1.0
outer loop
vertex -50.11899048856434 -19.810044184286507 26.499999999999964
vertex -51.618990488564336 -15.310044184286504 26.499999999999957
vertex -51.618990488564336 -19.810044184286507 26.499999999999964
endloop
endfacet
facet normal 4.10176942916055e-16 1.298893652567515e-15 1.0
outer loop
vertex -51.618990488564336 -15.310044184286504 26.499999999999957
vertex -50.11899048856434 -19.810044184286507 26.499999999999964
vertex -50.11899048856434 -16.810044184286507 26.499999999999957
endloop
endfacet
facet normal 4.10176942916055e-16 1.298893652567515e-15 1.0
outer loop
vertex -51.618990488564336 -15.310044184286504 26.499999999999957
vertex -50.11899048856434 -16.810044184286507 26.499999999999957
vertex -50.11899048856433 -15.310044184286504 26.499999999999957
endloop
endfacet
facet normal 1.0 0.0 0.0
outer loop
vertex 62.38100951143568 -44.310044184286504 0.0
vertex 62.38100951143568 -39.46930244717719 10.661809548974787
vertex 62.38100951143568 -44.310044184286504 26.49999999999998
endloop
endfacet
facet normal 1.0 0.0 0.0
outer loop
vertex 62.38100951143568 -39.46930244717719 10.661809548974787
vertex 62.38100951143568 -44.310044184286504 0.0
vertex 62.38100951143568 -38.4702982221309 8.249999999999993
endloop
endfacet
facet normal 1.0 0.0 0.0
outer loop
vertex 62.38100951143568 -38.4702982221309 8.249999999999993
vertex 62.38100951143568 -44.310044184286504 0.0
vertex 62.38100951143568 -36.881111996151986 6.178932188134519
endloop
endfacet
facet normal 1.0 0.0 0.0
outer loop
vertex 62.38100951143568 -36.881111996151986 6.178932188134519
vertex 62.38100951143568 -44.310044184286504 0.0
vertex 62.38100951143568 -34.81004418428651 4.589745962155608
endloop
endfacet
facet normal 1.0 0.0 0.0
outer loop
vertex 62.38100951143568 -34.81004418428651 4.589745962155608
vertex 62.38100951143568 -44.310044184286504 0.0
vertex 62.38100951143568 -32.398234635311724 3.59074173710931
endloop
endfacet
facet normal 1.0 0.0 0.0
outer loop
vertex 62.38100951143568 -32.398234635311724 3.59074173710931
vertex 62.38100951143568 -44.310044184286504 0.0
vertex 62.38100951143568 -15.310044184286504 0.0
endloop
endfacet
facet normal 1.0 0.0 0.0
outer loop
vertex 62.38100951143568 -44.310044184286504 26.49999999999998
vertex 62.38100951143568 -39.46930244717719 10.661809548974787
vertex 62.38100951143568 -39.81004418428651 13.24999999999999
endloop
endfacet
facet normal 1.0 0.0 0.0
outer loop
vertex 62.38100951143568 -32.398234635311724 3.59074173710931
vertex 62.38100951143568 -15.310044184286504 0.0
vertex 62.38100951143568 -29.81004418428651 3.249999999999991
endloop
endfacet
facet normal 1.0 0.0 0.0
outer loop
vertex 62.38100951143568 -29.81004418428651 3.249999999999991
vertex 62.38100951143568 -15.310044184286504 0.0
vertex 62.38100951143568 -27.221853733261312 3.5907417371093073
endloop
endfacet
facet normal 1.0 0.0 0.0
outer loop
vertex 62.38100951143568 -27.221853733261312 3.5907417371093073
vertex 62.38100951143568 -15.310044184286504 0.0
vertex 62.38100951143568 -24.810044184286518 4.589745962155601
endloop
endfacet
facet normal 1.0 0.0 0.0
outer loop
vertex 62.38100951143568 -24.810044184286518 4.589745962155601
vertex 62.38100951143568 -15.310044184286504 0.0
vertex 62.38100951143568 -22.73897637242104 6.178932188134514
endloop
endfacet
facet normal 1.0 0.0 0.0
outer loop
vertex 62.38100951143568 -22.73897637242104 6.178932188134514
vertex 62.38100951143568 -15.310044184286504 0.0
vertex 62.38100951143568 -21.14979014644213 8.249999999999986
endloop
endfacet
facet normal 1.0 0.0 0.0
outer loop
vertex 62.38100951143568 -21.14979014644213 8.249999999999986
vertex 62.38100951143568 -15.310044184286504 0.0
vertex 62.38100951143568 -20.150785921395833 10.661809548974773
endloop
endfacet
facet normal 1.0 0.0 0.0
outer loop
vertex 62.38100951143568 -20.150785921395833 10.661809548974773
vertex 62.38100951143568 -15.310044184286504 0.0
vertex 62.38100951143568 -19.81004418428651 13.24999999999999
endloop
endfacet
facet normal 1.0 0.0 0.0
outer loop
vertex 62.38100951143568 -19.81004418428651 13.24999999999999
vertex 62.38100951143568 -15.310044184286504 0.0
vertex 62.38100951143568 -19.81004418428651 26.499999999999964
endloop
endfacet
facet normal 1.0 0.0 0.0
outer loop
vertex 62.38100951143568 -19.81004418428651 26.499999999999964
vertex 62.38100951143568 -15.310044184286504 0.0
vertex 62.38100951143568 -15.310044184286504 26.49999999999998
endloop
endfacet
facet normal 1.0 0.0 0.0
outer loop
vertex 62.38100951143568 -39.81004418428651 26.499999999999975
vertex 62.38100951143568 -44.310044184286504 26.49999999999998
vertex 62.38100951143568 -39.81004418428651 13.24999999999999
endloop
endfacet
endsolid ANL Fuse Holder
