solid OpenSCAD_Model
  facet normal 1 -0 0
    outer loop
      vertex 1 2.5 15
      vertex 1 5.1 0
      vertex 1 5.1 15
    endloop
  endfacet
  facet normal 1 0 0
    outer loop
      vertex 1 5.1 0
      vertex 1 2.5 15
      vertex 1 2.5 0
    endloop
  endfacet
  facet normal 0 1 -0
    outer loop
      vertex -1 2 0
      vertex -13.7 2 15
      vertex -1 2 15
    endloop
  endfacet
  facet normal 0 1 0
    outer loop
      vertex -13.7 2 15
      vertex -1 2 0
      vertex -13.7 2 0
    endloop
  endfacet
  facet normal 0 -1 0
    outer loop
      vertex -13.7 5.25 0
      vertex -1 5.25 15
      vertex -13.7 5.25 15
    endloop
  endfacet
  facet normal 0 -1 -0
    outer loop
      vertex -1 5.25 15
      vertex -13.7 5.25 0
      vertex -1 5.25 0
    endloop
  endfacet
  facet normal 0 1 -0
    outer loop
      vertex 13.7 2.5 0
      vertex 1 2.5 15
      vertex 13.7 2.5 15
    endloop
  endfacet
  facet normal 0 1 0
    outer loop
      vertex 1 2.5 15
      vertex 13.7 2.5 0
      vertex 1 2.5 0
    endloop
  endfacet
  facet normal 0 -1 0
    outer loop
      vertex 1 5.1 0
      vertex 13.7 5.1 15
      vertex 1 5.1 15
    endloop
  endfacet
  facet normal 0 -1 -0
    outer loop
      vertex 13.7 5.1 15
      vertex 1 5.1 0
      vertex 13.7 5.1 0
    endloop
  endfacet
  facet normal -1 0 0
    outer loop
      vertex -13.7 0 0
      vertex -13.7 2 15
      vertex -13.7 2 0
    endloop
  endfacet
  facet normal -1 -0 0
    outer loop
      vertex -13.7 2 15
      vertex -13.7 0 0
      vertex -13.7 0 15
    endloop
  endfacet
  facet normal -1 0 0
    outer loop
      vertex -13.7 5.25 0
      vertex -13.7 7 15
      vertex -13.7 7 0
    endloop
  endfacet
  facet normal -1 -0 0
    outer loop
      vertex -13.7 7 15
      vertex -13.7 5.25 0
      vertex -13.7 5.25 15
    endloop
  endfacet
  facet normal 0 0 1
    outer loop
      vertex 13.7 7 15
      vertex 1 5.1 15
      vertex 13.7 5.1 15
    endloop
  endfacet
  facet normal 0 0 1
    outer loop
      vertex 1 5.1 15
      vertex -1 5.25 15
      vertex 1 2.5 15
    endloop
  endfacet
  facet normal 0 0 1
    outer loop
      vertex 13.7 7 15
      vertex -1 5.25 15
      vertex 1 5.1 15
    endloop
  endfacet
  facet normal -0 0 1
    outer loop
      vertex -13.7 7 15
      vertex -1 5.25 15
      vertex 13.7 7 15
    endloop
  endfacet
  facet normal 0 0 1
    outer loop
      vertex -1 5.25 15
      vertex -13.7 7 15
      vertex -13.7 5.25 15
    endloop
  endfacet
  facet normal -0 0 1
    outer loop
      vertex 1 2.5 15
      vertex 13.7 0 15
      vertex 13.7 2.5 15
    endloop
  endfacet
  facet normal 0 0 1
    outer loop
      vertex -1 2 15
      vertex 1 2.5 15
      vertex -1 5.25 15
    endloop
  endfacet
  facet normal -0 0 1
    outer loop
      vertex -1 2 15
      vertex 13.7 0 15
      vertex 1 2.5 15
    endloop
  endfacet
  facet normal 0 0 1
    outer loop
      vertex -13.7 0 15
      vertex -1 2 15
      vertex -13.7 2 15
    endloop
  endfacet
  facet normal 0 0 1
    outer loop
      vertex -1 2 15
      vertex -13.7 0 15
      vertex 13.7 0 15
    endloop
  endfacet
  facet normal 1 -0 0
    outer loop
      vertex 13.7 0 15
      vertex 13.7 2.5 0
      vertex 13.7 2.5 15
    endloop
  endfacet
  facet normal 1 0 0
    outer loop
      vertex 13.7 2.5 0
      vertex 13.7 0 15
      vertex 13.7 0 0
    endloop
  endfacet
  facet normal 1 -0 0
    outer loop
      vertex 13.7 5.1 15
      vertex 13.7 7 0
      vertex 13.7 7 15
    endloop
  endfacet
  facet normal 1 0 0
    outer loop
      vertex 13.7 7 0
      vertex 13.7 5.1 15
      vertex 13.7 5.1 0
    endloop
  endfacet
  facet normal 0 0 -1
    outer loop
      vertex 13.7 0 0
      vertex 1 2.5 0
      vertex 13.7 2.5 0
    endloop
  endfacet
  facet normal 0 0 -1
    outer loop
      vertex -1 5.25 0
      vertex 1 2.5 0
      vertex -1 2 0
    endloop
  endfacet
  facet normal 0 0 -1
    outer loop
      vertex 13.7 0 0
      vertex -1 2 0
      vertex 1 2.5 0
    endloop
  endfacet
  facet normal 0 0 -1
    outer loop
      vertex -13.7 0 0
      vertex -1 2 0
      vertex 13.7 0 0
    endloop
  endfacet
  facet normal -0 0 -1
    outer loop
      vertex -1 2 0
      vertex -13.7 0 0
      vertex -13.7 2 0
    endloop
  endfacet
  facet normal 0 0 -1
    outer loop
      vertex 1 5.1 0
      vertex 13.7 7 0
      vertex 13.7 5.1 0
    endloop
  endfacet
  facet normal 0 0 -1
    outer loop
      vertex 1 2.5 0
      vertex -1 5.25 0
      vertex 1 5.1 0
    endloop
  endfacet
  facet normal 0 0 -1
    outer loop
      vertex -1 5.25 0
      vertex 13.7 7 0
      vertex 1 5.1 0
    endloop
  endfacet
  facet normal 0 0 -1
    outer loop
      vertex -13.7 7 0
      vertex -1 5.25 0
      vertex -13.7 5.25 0
    endloop
  endfacet
  facet normal 0 0 -1
    outer loop
      vertex -1 5.25 0
      vertex -13.7 7 0
      vertex 13.7 7 0
    endloop
  endfacet
  facet normal 0 -1 0
    outer loop
      vertex -13.7 0 0
      vertex 13.7 0 15
      vertex -13.7 0 15
    endloop
  endfacet
  facet normal 0 -1 -0
    outer loop
      vertex 13.7 0 15
      vertex -13.7 0 0
      vertex 13.7 0 0
    endloop
  endfacet
  facet normal 0 1 -0
    outer loop
      vertex 13.7 7 0
      vertex -13.7 7 15
      vertex 13.7 7 15
    endloop
  endfacet
  facet normal 0 1 0
    outer loop
      vertex -13.7 7 15
      vertex 13.7 7 0
      vertex -13.7 7 0
    endloop
  endfacet
  facet normal -1 0 0
    outer loop
      vertex -1 2 0
      vertex -1 5.25 15
      vertex -1 5.25 0
    endloop
  endfacet
  facet normal -1 -0 0
    outer loop
      vertex -1 5.25 15
      vertex -1 2 0
      vertex -1 2 15
    endloop
  endfacet
endsolid OpenSCAD_Model
