solid OpenSCAD_Model
  facet normal 0.793356 0.608757 0
    outer loop
      vertex 12.2873 8.60365 2
      vertex 11.4907 9.64181 0
      vertex 11.4907 9.64181 2
    endloop
  endfacet
  facet normal 0.793356 0.608757 0
    outer loop
      vertex 11.4907 9.64181 0
      vertex 12.2873 8.60365 2
      vertex 12.2873 8.60365 0
    endloop
  endfacet
  facet normal 0.923872 -0.382702 0
    outer loop
      vertex 13.5946 -6.33927 2
      vertex 14.0954 -5.1303 0
      vertex 14.0954 -5.1303 2
    endloop
  endfacet
  facet normal 0.923872 -0.382702 0
    outer loop
      vertex 14.0954 -5.1303 0
      vertex 13.5946 -6.33927 2
      vertex 13.5946 -6.33927 0
    endloop
  endfacet
  facet normal 0.991445 0.130524 0
    outer loop
      vertex 14.9429 1.30734 2
      vertex 14.7721 2.60472 0
      vertex 14.7721 2.60472 2
    endloop
  endfacet
  facet normal 0.991445 0.130524 0
    outer loop
      vertex 14.7721 2.60472 0
      vertex 14.9429 1.30734 2
      vertex 14.9429 1.30734 0
    endloop
  endfacet
  facet normal 0.300709 -0.953716 0
    outer loop
      vertex 3.88229 -14.4889 0
      vertex 5.1303 -14.0954 2
      vertex 3.88229 -14.4889 2
    endloop
  endfacet
  facet normal 0.300709 -0.953716 0
    outer loop
      vertex 5.1303 -14.0954 2
      vertex 3.88229 -14.4889 0
      vertex 5.1303 -14.0954 0
    endloop
  endfacet
  facet normal 0.216417 -0.976301 0
    outer loop
      vertex 2.60472 -14.7721 0
      vertex 3.88229 -14.4889 2
      vertex 2.60472 -14.7721 2
    endloop
  endfacet
  facet normal 0.216417 -0.976301 0
    outer loop
      vertex 3.88229 -14.4889 2
      vertex 2.60472 -14.7721 0
      vertex 3.88229 -14.4889 0
    endloop
  endfacet
  facet normal 0.608757 0.793356 -0
    outer loop
      vertex 9.64181 11.4907 0
      vertex 8.60365 12.2873 2
      vertex 9.64181 11.4907 2
    endloop
  endfacet
  facet normal 0.608757 0.793356 0
    outer loop
      vertex 8.60365 12.2873 2
      vertex 9.64181 11.4907 0
      vertex 8.60365 12.2873 0
    endloop
  endfacet
  facet normal 0.537298 -0.843392 0
    outer loop
      vertex 7.5 -12.9904 0
      vertex 8.60365 -12.2873 2
      vertex 7.5 -12.9904 2
    endloop
  endfacet
  facet normal 0.537298 -0.843392 0
    outer loop
      vertex 8.60365 -12.2873 2
      vertex 7.5 -12.9904 0
      vertex 8.60365 -12.2873 0
    endloop
  endfacet
  facet normal 0.843392 -0.537298 0
    outer loop
      vertex 12.2873 -8.60365 2
      vertex 12.9904 -7.5 0
      vertex 12.9904 -7.5 2
    endloop
  endfacet
  facet normal 0.843392 -0.537298 0
    outer loop
      vertex 12.9904 -7.5 0
      vertex 12.2873 -8.60365 2
      vertex 12.2873 -8.60365 0
    endloop
  endfacet
  facet normal 0.675604 -0.737265 0
    outer loop
      vertex 9.64181 -11.4907 0
      vertex 10.6066 -10.6066 2
      vertex 9.64181 -11.4907 2
    endloop
  endfacet
  facet normal 0.675604 -0.737265 0
    outer loop
      vertex 10.6066 -10.6066 2
      vertex 9.64181 -11.4907 0
      vertex 10.6066 -10.6066 0
    endloop
  endfacet
  facet normal -0.675604 0.737265 0
    outer loop
      vertex -9.64181 11.4907 0
      vertex -10.6066 10.6066 2
      vertex -9.64181 11.4907 2
    endloop
  endfacet
  facet normal -0.675604 0.737265 0
    outer loop
      vertex -10.6066 10.6066 2
      vertex -9.64181 11.4907 0
      vertex -10.6066 10.6066 0
    endloop
  endfacet
  facet normal -0.843392 0.537298 0
    outer loop
      vertex -12.9904 7.5 0
      vertex -12.2873 8.60365 2
      vertex -12.2873 8.60365 0
    endloop
  endfacet
  facet normal -0.843392 0.537298 0
    outer loop
      vertex -12.2873 8.60365 2
      vertex -12.9904 7.5 0
      vertex -12.9904 7.5 2
    endloop
  endfacet
  facet normal -0.216417 -0.976301 0
    outer loop
      vertex -3.88229 -14.4889 0
      vertex -2.60472 -14.7721 2
      vertex -3.88229 -14.4889 2
    endloop
  endfacet
  facet normal -0.216417 -0.976301 -0
    outer loop
      vertex -2.60472 -14.7721 2
      vertex -3.88229 -14.4889 0
      vertex -2.60472 -14.7721 0
    endloop
  endfacet
  facet normal -0.999048 -0.0436349 0
    outer loop
      vertex -14.9429 -1.30734 0
      vertex -15 0 2
      vertex -15 0 0
    endloop
  endfacet
  facet normal -0.999048 -0.0436349 0
    outer loop
      vertex -15 0 2
      vertex -14.9429 -1.30734 0
      vertex -14.9429 -1.30734 2
    endloop
  endfacet
  facet normal 0.976301 -0.216417 0
    outer loop
      vertex 14.4889 -3.88229 2
      vertex 14.7721 -2.60472 0
      vertex 14.7721 -2.60472 2
    endloop
  endfacet
  facet normal 0.976301 -0.216417 0
    outer loop
      vertex 14.7721 -2.60472 0
      vertex 14.4889 -3.88229 2
      vertex 14.4889 -3.88229 0
    endloop
  endfacet
  facet normal 0.887023 -0.461726 0
    outer loop
      vertex 12.9904 -7.5 2
      vertex 13.5946 -6.33927 0
      vertex 13.5946 -6.33927 2
    endloop
  endfacet
  facet normal 0.887023 -0.461726 0
    outer loop
      vertex 13.5946 -6.33927 0
      vertex 12.9904 -7.5 2
      vertex 12.9904 -7.5 0
    endloop
  endfacet
  facet normal 0.999048 0.0436349 0
    outer loop
      vertex 15 0 2
      vertex 14.9429 1.30734 0
      vertex 14.9429 1.30734 2
    endloop
  endfacet
  facet normal 0.999048 0.0436349 0
    outer loop
      vertex 14.9429 1.30734 0
      vertex 15 0 2
      vertex 15 0 0
    endloop
  endfacet
  facet normal -0.953716 -0.300709 0
    outer loop
      vertex -14.0954 -5.1303 0
      vertex -14.4889 -3.88229 2
      vertex -14.4889 -3.88229 0
    endloop
  endfacet
  facet normal -0.953716 -0.300709 0
    outer loop
      vertex -14.4889 -3.88229 2
      vertex -14.0954 -5.1303 0
      vertex -14.0954 -5.1303 2
    endloop
  endfacet
  facet normal 0.976301 0.216417 0
    outer loop
      vertex 14.7721 2.60472 2
      vertex 14.4889 3.88229 0
      vertex 14.4889 3.88229 2
    endloop
  endfacet
  facet normal 0.976301 0.216417 0
    outer loop
      vertex 14.4889 3.88229 0
      vertex 14.7721 2.60472 2
      vertex 14.7721 2.60472 0
    endloop
  endfacet
  facet normal -0.216417 0.976301 0
    outer loop
      vertex -2.60472 14.7721 0
      vertex -3.88229 14.4889 2
      vertex -2.60472 14.7721 2
    endloop
  endfacet
  facet normal -0.216417 0.976301 0
    outer loop
      vertex -3.88229 14.4889 2
      vertex -2.60472 14.7721 0
      vertex -3.88229 14.4889 0
    endloop
  endfacet
  facet normal -0.130524 0.991445 0
    outer loop
      vertex -1.30734 14.9429 0
      vertex -2.60472 14.7721 2
      vertex -1.30734 14.9429 2
    endloop
  endfacet
  facet normal -0.130524 0.991445 0
    outer loop
      vertex -2.60472 14.7721 2
      vertex -1.30734 14.9429 0
      vertex -2.60472 14.7721 0
    endloop
  endfacet
  facet normal 0.887023 0.461726 0
    outer loop
      vertex 13.5946 6.33927 2
      vertex 12.9904 7.5 0
      vertex 12.9904 7.5 2
    endloop
  endfacet
  facet normal 0.887023 0.461726 0
    outer loop
      vertex 12.9904 7.5 0
      vertex 13.5946 6.33927 2
      vertex 13.5946 6.33927 0
    endloop
  endfacet
  facet normal 0.737265 -0.675604 0
    outer loop
      vertex 10.6066 -10.6066 2
      vertex 11.4907 -9.64181 0
      vertex 11.4907 -9.64181 2
    endloop
  endfacet
  facet normal 0.737265 -0.675604 0
    outer loop
      vertex 11.4907 -9.64181 0
      vertex 10.6066 -10.6066 2
      vertex 10.6066 -10.6066 0
    endloop
  endfacet
  facet normal -0.991445 0.130524 0
    outer loop
      vertex -14.9429 1.30734 0
      vertex -14.7721 2.60472 2
      vertex -14.7721 2.60472 0
    endloop
  endfacet
  facet normal -0.991445 0.130524 0
    outer loop
      vertex -14.7721 2.60472 2
      vertex -14.9429 1.30734 0
      vertex -14.9429 1.30734 2
    endloop
  endfacet
  facet normal 0.216417 0.976301 -0
    outer loop
      vertex 3.88229 14.4889 0
      vertex 2.60472 14.7721 2
      vertex 3.88229 14.4889 2
    endloop
  endfacet
  facet normal 0.216417 0.976301 0
    outer loop
      vertex 2.60472 14.7721 2
      vertex 3.88229 14.4889 0
      vertex 2.60472 14.7721 0
    endloop
  endfacet
  facet normal -0.608757 0.793356 0
    outer loop
      vertex -8.60365 12.2873 0
      vertex -9.64181 11.4907 2
      vertex -8.60365 12.2873 2
    endloop
  endfacet
  facet normal -0.608757 0.793356 0
    outer loop
      vertex -9.64181 11.4907 2
      vertex -8.60365 12.2873 0
      vertex -9.64181 11.4907 0
    endloop
  endfacet
  facet normal 0.953716 -0.300709 0
    outer loop
      vertex 14.0954 -5.1303 2
      vertex 14.4889 -3.88229 0
      vertex 14.4889 -3.88229 2
    endloop
  endfacet
  facet normal 0.953716 -0.300709 0
    outer loop
      vertex 14.4889 -3.88229 0
      vertex 14.0954 -5.1303 2
      vertex 14.0954 -5.1303 0
    endloop
  endfacet
  facet normal -0.999048 0.0436349 0
    outer loop
      vertex -15 0 0
      vertex -14.9429 1.30734 2
      vertex -14.9429 1.30734 0
    endloop
  endfacet
  facet normal -0.999048 0.0436349 0
    outer loop
      vertex -14.9429 1.30734 2
      vertex -15 0 0
      vertex -15 0 2
    endloop
  endfacet
  facet normal -0.0436349 0.999048 0
    outer loop
      vertex 0 15 0
      vertex -1.30734 14.9429 2
      vertex 0 15 2
    endloop
  endfacet
  facet normal -0.0436349 0.999048 0
    outer loop
      vertex -1.30734 14.9429 2
      vertex 0 15 0
      vertex -1.30734 14.9429 0
    endloop
  endfacet
  facet normal -0.953716 0.300709 0
    outer loop
      vertex -14.4889 3.88229 0
      vertex -14.0954 5.1303 2
      vertex -14.0954 5.1303 0
    endloop
  endfacet
  facet normal -0.953716 0.300709 0
    outer loop
      vertex -14.0954 5.1303 2
      vertex -14.4889 3.88229 0
      vertex -14.4889 3.88229 2
    endloop
  endfacet
  facet normal 0.923872 0.382702 0
    outer loop
      vertex 14.0954 5.1303 2
      vertex 13.5946 6.33927 0
      vertex 13.5946 6.33927 2
    endloop
  endfacet
  facet normal 0.923872 0.382702 0
    outer loop
      vertex 13.5946 6.33927 0
      vertex 14.0954 5.1303 2
      vertex 14.0954 5.1303 0
    endloop
  endfacet
  facet normal -0.976301 -0.216417 0
    outer loop
      vertex -14.4889 -3.88229 0
      vertex -14.7721 -2.60472 2
      vertex -14.7721 -2.60472 0
    endloop
  endfacet
  facet normal -0.976301 -0.216417 0
    outer loop
      vertex -14.7721 -2.60472 2
      vertex -14.4889 -3.88229 0
      vertex -14.4889 -3.88229 2
    endloop
  endfacet
  facet normal -0.461726 0.887023 0
    outer loop
      vertex -6.33927 13.5946 0
      vertex -7.5 12.9904 2
      vertex -6.33927 13.5946 2
    endloop
  endfacet
  facet normal -0.461726 0.887023 0
    outer loop
      vertex -7.5 12.9904 2
      vertex -6.33927 13.5946 0
      vertex -7.5 12.9904 0
    endloop
  endfacet
  facet normal -0.0436349 -0.999048 0
    outer loop
      vertex -1.30734 -14.9429 0
      vertex 0 -15 2
      vertex -1.30734 -14.9429 2
    endloop
  endfacet
  facet normal -0.0436349 -0.999048 -0
    outer loop
      vertex 0 -15 2
      vertex -1.30734 -14.9429 0
      vertex 0 -15 0
    endloop
  endfacet
  facet normal -0.737265 -0.675604 0
    outer loop
      vertex -10.6066 -10.6066 0
      vertex -11.4907 -9.64181 2
      vertex -11.4907 -9.64181 0
    endloop
  endfacet
  facet normal -0.737265 -0.675604 0
    outer loop
      vertex -11.4907 -9.64181 2
      vertex -10.6066 -10.6066 0
      vertex -10.6066 -10.6066 2
    endloop
  endfacet
  facet normal -0.793356 -0.608757 0
    outer loop
      vertex -11.4907 -9.64181 0
      vertex -12.2873 -8.60365 2
      vertex -12.2873 -8.60365 0
    endloop
  endfacet
  facet normal -0.793356 -0.608757 0
    outer loop
      vertex -12.2873 -8.60365 2
      vertex -11.4907 -9.64181 0
      vertex -11.4907 -9.64181 2
    endloop
  endfacet
  facet normal 0.991445 -0.130524 0
    outer loop
      vertex 14.7721 -2.60472 2
      vertex 14.9429 -1.30734 0
      vertex 14.9429 -1.30734 2
    endloop
  endfacet
  facet normal 0.991445 -0.130524 0
    outer loop
      vertex 14.9429 -1.30734 0
      vertex 14.7721 -2.60472 2
      vertex 14.7721 -2.60472 0
    endloop
  endfacet
  facet normal 0.461726 0.887023 -0
    outer loop
      vertex 7.5 12.9904 0
      vertex 6.33927 13.5946 2
      vertex 7.5 12.9904 2
    endloop
  endfacet
  facet normal 0.461726 0.887023 0
    outer loop
      vertex 6.33927 13.5946 2
      vertex 7.5 12.9904 0
      vertex 6.33927 13.5946 0
    endloop
  endfacet
  facet normal -0.923872 -0.382702 0
    outer loop
      vertex -13.5946 -6.33927 0
      vertex -14.0954 -5.1303 2
      vertex -14.0954 -5.1303 0
    endloop
  endfacet
  facet normal -0.923872 -0.382702 0
    outer loop
      vertex -14.0954 -5.1303 2
      vertex -13.5946 -6.33927 0
      vertex -13.5946 -6.33927 2
    endloop
  endfacet
  facet normal 0.608757 -0.793356 0
    outer loop
      vertex 8.60365 -12.2873 0
      vertex 9.64181 -11.4907 2
      vertex 8.60365 -12.2873 2
    endloop
  endfacet
  facet normal 0.608757 -0.793356 0
    outer loop
      vertex 9.64181 -11.4907 2
      vertex 8.60365 -12.2873 0
      vertex 9.64181 -11.4907 0
    endloop
  endfacet
  facet normal 0.953716 0.300709 0
    outer loop
      vertex 14.4889 3.88229 2
      vertex 14.0954 5.1303 0
      vertex 14.0954 5.1303 2
    endloop
  endfacet
  facet normal 0.953716 0.300709 0
    outer loop
      vertex 14.0954 5.1303 0
      vertex 14.4889 3.88229 2
      vertex 14.4889 3.88229 0
    endloop
  endfacet
  facet normal 0.300709 0.953716 -0
    outer loop
      vertex 5.1303 14.0954 0
      vertex 3.88229 14.4889 2
      vertex 5.1303 14.0954 2
    endloop
  endfacet
  facet normal 0.300709 0.953716 0
    outer loop
      vertex 3.88229 14.4889 2
      vertex 5.1303 14.0954 0
      vertex 3.88229 14.4889 0
    endloop
  endfacet
  facet normal 0.537298 0.843392 -0
    outer loop
      vertex 8.60365 12.2873 0
      vertex 7.5 12.9904 2
      vertex 8.60365 12.2873 2
    endloop
  endfacet
  facet normal 0.537298 0.843392 0
    outer loop
      vertex 7.5 12.9904 2
      vertex 8.60365 12.2873 0
      vertex 7.5 12.9904 0
    endloop
  endfacet
  facet normal 0.999048 -0.0436349 0
    outer loop
      vertex 14.9429 -1.30734 2
      vertex 15 0 0
      vertex 15 0 2
    endloop
  endfacet
  facet normal 0.999048 -0.0436349 0
    outer loop
      vertex 15 0 0
      vertex 14.9429 -1.30734 2
      vertex 14.9429 -1.30734 0
    endloop
  endfacet
  facet normal 0.675604 0.737265 -0
    outer loop
      vertex 10.6066 10.6066 0
      vertex 9.64181 11.4907 2
      vertex 10.6066 10.6066 2
    endloop
  endfacet
  facet normal 0.675604 0.737265 0
    outer loop
      vertex 9.64181 11.4907 2
      vertex 10.6066 10.6066 0
      vertex 9.64181 11.4907 0
    endloop
  endfacet
  facet normal -0.608757 -0.793356 0
    outer loop
      vertex -9.64181 -11.4907 0
      vertex -8.60365 -12.2873 2
      vertex -9.64181 -11.4907 2
    endloop
  endfacet
  facet normal -0.608757 -0.793356 -0
    outer loop
      vertex -8.60365 -12.2873 2
      vertex -9.64181 -11.4907 0
      vertex -8.60365 -12.2873 0
    endloop
  endfacet
  facet normal -0.843392 -0.537298 0
    outer loop
      vertex -12.2873 -8.60365 0
      vertex -12.9904 -7.5 2
      vertex -12.9904 -7.5 0
    endloop
  endfacet
  facet normal -0.843392 -0.537298 0
    outer loop
      vertex -12.9904 -7.5 2
      vertex -12.2873 -8.60365 0
      vertex -12.2873 -8.60365 2
    endloop
  endfacet
  facet normal -0.923872 0.382702 0
    outer loop
      vertex -14.0954 5.1303 0
      vertex -13.5946 6.33927 2
      vertex -13.5946 6.33927 0
    endloop
  endfacet
  facet normal -0.923872 0.382702 0
    outer loop
      vertex -13.5946 6.33927 2
      vertex -14.0954 5.1303 0
      vertex -14.0954 5.1303 2
    endloop
  endfacet
  facet normal 0.843392 0.537298 0
    outer loop
      vertex 12.9904 7.5 2
      vertex 12.2873 8.60365 0
      vertex 12.2873 8.60365 2
    endloop
  endfacet
  facet normal 0.843392 0.537298 0
    outer loop
      vertex 12.2873 8.60365 0
      vertex 12.9904 7.5 2
      vertex 12.9904 7.5 0
    endloop
  endfacet
  facet normal -0.300709 0.953716 0
    outer loop
      vertex -3.88229 14.4889 0
      vertex -5.1303 14.0954 2
      vertex -3.88229 14.4889 2
    endloop
  endfacet
  facet normal -0.300709 0.953716 0
    outer loop
      vertex -5.1303 14.0954 2
      vertex -3.88229 14.4889 0
      vertex -5.1303 14.0954 0
    endloop
  endfacet
  facet normal 0 0 1
    outer loop
      vertex 4 0 2
      vertex 15 0 2
      vertex 14.9429 1.30734 2
    endloop
  endfacet
  facet normal 0 0 1
    outer loop
      vertex 3.98478 0.348622 2
      vertex 14.9429 1.30734 2
      vertex 14.7721 2.60472 2
    endloop
  endfacet
  facet normal 0 0 1
    outer loop
      vertex 15 0 2
      vertex 4 0 2
      vertex 14.9429 -1.30734 2
    endloop
  endfacet
  facet normal 0 0 1
    outer loop
      vertex 3.93923 0.694592 2
      vertex 14.7721 2.60472 2
      vertex 14.4889 3.88229 2
    endloop
  endfacet
  facet normal -0 0 1
    outer loop
      vertex 3.98478 -0.348622 2
      vertex 14.9429 -1.30734 2
      vertex 4 0 2
    endloop
  endfacet
  facet normal 0 0 1
    outer loop
      vertex 3.8637 1.03528 2
      vertex 14.4889 3.88229 2
      vertex 14.0954 5.1303 2
    endloop
  endfacet
  facet normal 0 0 1
    outer loop
      vertex 14.9429 -1.30734 2
      vertex 3.98478 -0.348622 2
      vertex 14.7721 -2.60472 2
    endloop
  endfacet
  facet normal 0 0 1
    outer loop
      vertex 3.75877 1.36808 2
      vertex 14.0954 5.1303 2
      vertex 13.5946 6.33927 2
    endloop
  endfacet
  facet normal -0 0 1
    outer loop
      vertex 3.93923 -0.694592 2
      vertex 14.7721 -2.60472 2
      vertex 3.98478 -0.348622 2
    endloop
  endfacet
  facet normal 0 0 1
    outer loop
      vertex 3.62523 1.69047 2
      vertex 13.5946 6.33927 2
      vertex 12.9904 7.5 2
    endloop
  endfacet
  facet normal 0 0 1
    outer loop
      vertex 14.7721 -2.60472 2
      vertex 3.93923 -0.694592 2
      vertex 14.4889 -3.88229 2
    endloop
  endfacet
  facet normal 0 0 1
    outer loop
      vertex 3.4641 2 2
      vertex 12.9904 7.5 2
      vertex 12.2873 8.60365 2
    endloop
  endfacet
  facet normal -0 0 1
    outer loop
      vertex 3.8637 -1.03528 2
      vertex 14.4889 -3.88229 2
      vertex 3.93923 -0.694592 2
    endloop
  endfacet
  facet normal 0 0 1
    outer loop
      vertex 3.27661 2.2943 2
      vertex 12.2873 8.60365 2
      vertex 11.4907 9.64181 2
    endloop
  endfacet
  facet normal 0 0 1
    outer loop
      vertex 14.4889 -3.88229 2
      vertex 3.8637 -1.03528 2
      vertex 14.0954 -5.1303 2
    endloop
  endfacet
  facet normal 0 0 1
    outer loop
      vertex 3.06418 2.57115 2
      vertex 11.4907 9.64181 2
      vertex 10.6066 10.6066 2
    endloop
  endfacet
  facet normal -0 0 1
    outer loop
      vertex 3.75877 -1.36808 2
      vertex 14.0954 -5.1303 2
      vertex 3.8637 -1.03528 2
    endloop
  endfacet
  facet normal 0 0 1
    outer loop
      vertex 2.82843 2.82843 2
      vertex 10.6066 10.6066 2
      vertex 9.64181 11.4907 2
    endloop
  endfacet
  facet normal 0 0 1
    outer loop
      vertex 14.0954 -5.1303 2
      vertex 3.75877 -1.36808 2
      vertex 13.5946 -6.33927 2
    endloop
  endfacet
  facet normal 0 0 1
    outer loop
      vertex 2.57115 3.06418 2
      vertex 9.64181 11.4907 2
      vertex 8.60365 12.2873 2
    endloop
  endfacet
  facet normal -0 0 1
    outer loop
      vertex 3.62523 -1.69047 2
      vertex 13.5946 -6.33927 2
      vertex 3.75877 -1.36808 2
    endloop
  endfacet
  facet normal 0 0 1
    outer loop
      vertex 2.2943 3.27661 2
      vertex 8.60365 12.2873 2
      vertex 7.5 12.9904 2
    endloop
  endfacet
  facet normal 0 0 1
    outer loop
      vertex 13.5946 -6.33927 2
      vertex 3.62523 -1.69047 2
      vertex 12.9904 -7.5 2
    endloop
  endfacet
  facet normal 0 0 1
    outer loop
      vertex 2 3.4641 2
      vertex 7.5 12.9904 2
      vertex 6.33927 13.5946 2
    endloop
  endfacet
  facet normal -0 0 1
    outer loop
      vertex 3.4641 -2 2
      vertex 12.9904 -7.5 2
      vertex 3.62523 -1.69047 2
    endloop
  endfacet
  facet normal 0 0 1
    outer loop
      vertex 1.69047 3.62523 2
      vertex 6.33927 13.5946 2
      vertex 5.1303 14.0954 2
    endloop
  endfacet
  facet normal 0 0 1
    outer loop
      vertex 12.9904 -7.5 2
      vertex 3.4641 -2 2
      vertex 12.2873 -8.60365 2
    endloop
  endfacet
  facet normal -0 0 1
    outer loop
      vertex 3.27661 -2.2943 2
      vertex 12.2873 -8.60365 2
      vertex 3.4641 -2 2
    endloop
  endfacet
  facet normal 0 0 1
    outer loop
      vertex 14.9429 1.30734 2
      vertex 3.98478 0.348622 2
      vertex 4 0 2
    endloop
  endfacet
  facet normal 0 0 1
    outer loop
      vertex 14.7721 2.60472 2
      vertex 3.93923 0.694592 2
      vertex 3.98478 0.348622 2
    endloop
  endfacet
  facet normal 0 0 1
    outer loop
      vertex 1.36808 3.75877 2
      vertex 5.1303 14.0954 2
      vertex 3.88229 14.4889 2
    endloop
  endfacet
  facet normal 0 0 1
    outer loop
      vertex 14.4889 3.88229 2
      vertex 3.8637 1.03528 2
      vertex 3.93923 0.694592 2
    endloop
  endfacet
  facet normal 0 0 1
    outer loop
      vertex 14.0954 5.1303 2
      vertex 3.75877 1.36808 2
      vertex 3.8637 1.03528 2
    endloop
  endfacet
  facet normal 0 0 1
    outer loop
      vertex 13.5946 6.33927 2
      vertex 3.62523 1.69047 2
      vertex 3.75877 1.36808 2
    endloop
  endfacet
  facet normal 0 0 1
    outer loop
      vertex 12.9904 7.5 2
      vertex 3.4641 2 2
      vertex 3.62523 1.69047 2
    endloop
  endfacet
  facet normal 0 0 1
    outer loop
      vertex 12.2873 8.60365 2
      vertex 3.27661 2.2943 2
      vertex 3.4641 2 2
    endloop
  endfacet
  facet normal 0 0 1
    outer loop
      vertex 11.4907 9.64181 2
      vertex 3.06418 2.57115 2
      vertex 3.27661 2.2943 2
    endloop
  endfacet
  facet normal 0 0 1
    outer loop
      vertex 10.6066 10.6066 2
      vertex 2.82843 2.82843 2
      vertex 3.06418 2.57115 2
    endloop
  endfacet
  facet normal 0 0 1
    outer loop
      vertex 1.03528 3.8637 2
      vertex 3.88229 14.4889 2
      vertex 2.60472 14.7721 2
    endloop
  endfacet
  facet normal 0 0 1
    outer loop
      vertex 9.64181 11.4907 2
      vertex 2.57115 3.06418 2
      vertex 2.82843 2.82843 2
    endloop
  endfacet
  facet normal 0 0 1
    outer loop
      vertex 8.60365 12.2873 2
      vertex 2.2943 3.27661 2
      vertex 2.57115 3.06418 2
    endloop
  endfacet
  facet normal 0 0 1
    outer loop
      vertex 7.5 12.9904 2
      vertex 2 3.4641 2
      vertex 2.2943 3.27661 2
    endloop
  endfacet
  facet normal 0 0 1
    outer loop
      vertex 6.33927 13.5946 2
      vertex 1.69047 3.62523 2
      vertex 2 3.4641 2
    endloop
  endfacet
  facet normal 0 0 1
    outer loop
      vertex 5.1303 14.0954 2
      vertex 1.36808 3.75877 2
      vertex 1.69047 3.62523 2
    endloop
  endfacet
  facet normal 0 0 1
    outer loop
      vertex 0.694592 3.93923 2
      vertex 2.60472 14.7721 2
      vertex 1.30734 14.9429 2
    endloop
  endfacet
  facet normal 0 0 1
    outer loop
      vertex 3.88229 14.4889 2
      vertex 1.03528 3.8637 2
      vertex 1.36808 3.75877 2
    endloop
  endfacet
  facet normal 0 0 1
    outer loop
      vertex 2.60472 14.7721 2
      vertex 0.694592 3.93923 2
      vertex 1.03528 3.8637 2
    endloop
  endfacet
  facet normal 0 0 1
    outer loop
      vertex 1.30734 14.9429 2
      vertex 0.348622 3.98478 2
      vertex 0.694592 3.93923 2
    endloop
  endfacet
  facet normal 0 0 1
    outer loop
      vertex 0 15 2
      vertex 0.348622 3.98478 2
      vertex 1.30734 14.9429 2
    endloop
  endfacet
  facet normal 0 0 1
    outer loop
      vertex 0 15 2
      vertex 0 4 2
      vertex 0.348622 3.98478 2
    endloop
  endfacet
  facet normal 0 0 1
    outer loop
      vertex 0 15 2
      vertex -0.348622 3.98478 2
      vertex 0 4 2
    endloop
  endfacet
  facet normal -0 0 1
    outer loop
      vertex -1.30734 14.9429 2
      vertex -0.348622 3.98478 2
      vertex 0 15 2
    endloop
  endfacet
  facet normal 0 0 1
    outer loop
      vertex -0.348622 3.98478 2
      vertex -1.30734 14.9429 2
      vertex -0.694592 3.93923 2
    endloop
  endfacet
  facet normal -0 0 1
    outer loop
      vertex -2.60472 14.7721 2
      vertex -0.694592 3.93923 2
      vertex -1.30734 14.9429 2
    endloop
  endfacet
  facet normal 0 0 1
    outer loop
      vertex -0.694592 3.93923 2
      vertex -2.60472 14.7721 2
      vertex -1.03528 3.8637 2
    endloop
  endfacet
  facet normal -0 0 1
    outer loop
      vertex -3.88229 14.4889 2
      vertex -1.03528 3.8637 2
      vertex -2.60472 14.7721 2
    endloop
  endfacet
  facet normal 0 0 1
    outer loop
      vertex -1.03528 3.8637 2
      vertex -3.88229 14.4889 2
      vertex -1.36808 3.75877 2
    endloop
  endfacet
  facet normal -0 0 1
    outer loop
      vertex -5.1303 14.0954 2
      vertex -1.36808 3.75877 2
      vertex -3.88229 14.4889 2
    endloop
  endfacet
  facet normal 0 0 1
    outer loop
      vertex -1.36808 3.75877 2
      vertex -5.1303 14.0954 2
      vertex -1.69047 3.62523 2
    endloop
  endfacet
  facet normal -0 0 1
    outer loop
      vertex -6.33927 13.5946 2
      vertex -1.69047 3.62523 2
      vertex -5.1303 14.0954 2
    endloop
  endfacet
  facet normal 0 0 1
    outer loop
      vertex -1.69047 3.62523 2
      vertex -6.33927 13.5946 2
      vertex -2 3.4641 2
    endloop
  endfacet
  facet normal -0 0 1
    outer loop
      vertex -7.5 12.9904 2
      vertex -2 3.4641 2
      vertex -6.33927 13.5946 2
    endloop
  endfacet
  facet normal 0 0 1
    outer loop
      vertex -2 3.4641 2
      vertex -7.5 12.9904 2
      vertex -2.2943 3.27661 2
    endloop
  endfacet
  facet normal -0 0 1
    outer loop
      vertex -8.60365 12.2873 2
      vertex -2.2943 3.27661 2
      vertex -7.5 12.9904 2
    endloop
  endfacet
  facet normal 0 0 1
    outer loop
      vertex -2.2943 3.27661 2
      vertex -8.60365 12.2873 2
      vertex -2.57115 3.06418 2
    endloop
  endfacet
  facet normal -0 0 1
    outer loop
      vertex -9.64181 11.4907 2
      vertex -2.57115 3.06418 2
      vertex -8.60365 12.2873 2
    endloop
  endfacet
  facet normal 0 0 1
    outer loop
      vertex -2.57115 3.06418 2
      vertex -9.64181 11.4907 2
      vertex -2.82843 2.82843 2
    endloop
  endfacet
  facet normal -0 0 1
    outer loop
      vertex -10.6066 10.6066 2
      vertex -2.82843 2.82843 2
      vertex -9.64181 11.4907 2
    endloop
  endfacet
  facet normal 0 0 1
    outer loop
      vertex -2.82843 2.82843 2
      vertex -10.6066 10.6066 2
      vertex -3.06418 2.57115 2
    endloop
  endfacet
  facet normal -0 0 1
    outer loop
      vertex -11.4907 9.64181 2
      vertex -3.06418 2.57115 2
      vertex -10.6066 10.6066 2
    endloop
  endfacet
  facet normal 0 0 1
    outer loop
      vertex -3.06418 2.57115 2
      vertex -11.4907 9.64181 2
      vertex -3.27661 2.2943 2
    endloop
  endfacet
  facet normal -0 0 1
    outer loop
      vertex -12.2873 8.60365 2
      vertex -3.27661 2.2943 2
      vertex -11.4907 9.64181 2
    endloop
  endfacet
  facet normal 0 0 1
    outer loop
      vertex 12.2873 -8.60365 2
      vertex 3.27661 -2.2943 2
      vertex 11.4907 -9.64181 2
    endloop
  endfacet
  facet normal -0 0 1
    outer loop
      vertex 3.06418 -2.57115 2
      vertex 11.4907 -9.64181 2
      vertex 3.27661 -2.2943 2
    endloop
  endfacet
  facet normal 0 0 1
    outer loop
      vertex 11.4907 -9.64181 2
      vertex 3.06418 -2.57115 2
      vertex 10.6066 -10.6066 2
    endloop
  endfacet
  facet normal -0 0 1
    outer loop
      vertex 2.82843 -2.82843 2
      vertex 10.6066 -10.6066 2
      vertex 3.06418 -2.57115 2
    endloop
  endfacet
  facet normal 0 0 1
    outer loop
      vertex 10.6066 -10.6066 2
      vertex 2.82843 -2.82843 2
      vertex 9.64181 -11.4907 2
    endloop
  endfacet
  facet normal -0 0 1
    outer loop
      vertex 2.57115 -3.06418 2
      vertex 9.64181 -11.4907 2
      vertex 2.82843 -2.82843 2
    endloop
  endfacet
  facet normal 0 0 1
    outer loop
      vertex 9.64181 -11.4907 2
      vertex 2.57115 -3.06418 2
      vertex 8.60365 -12.2873 2
    endloop
  endfacet
  facet normal -0 0 1
    outer loop
      vertex 2.2943 -3.27661 2
      vertex 8.60365 -12.2873 2
      vertex 2.57115 -3.06418 2
    endloop
  endfacet
  facet normal 0 0 1
    outer loop
      vertex 8.60365 -12.2873 2
      vertex 2.2943 -3.27661 2
      vertex 7.5 -12.9904 2
    endloop
  endfacet
  facet normal -0 0 1
    outer loop
      vertex 2 -3.4641 2
      vertex 7.5 -12.9904 2
      vertex 2.2943 -3.27661 2
    endloop
  endfacet
  facet normal 0 0 1
    outer loop
      vertex 7.5 -12.9904 2
      vertex 2 -3.4641 2
      vertex 6.33927 -13.5946 2
    endloop
  endfacet
  facet normal -0 0 1
    outer loop
      vertex 1.69047 -3.62523 2
      vertex 6.33927 -13.5946 2
      vertex 2 -3.4641 2
    endloop
  endfacet
  facet normal 0 0 1
    outer loop
      vertex 6.33927 -13.5946 2
      vertex 1.69047 -3.62523 2
      vertex 5.1303 -14.0954 2
    endloop
  endfacet
  facet normal -0 0 1
    outer loop
      vertex 1.36808 -3.75877 2
      vertex 5.1303 -14.0954 2
      vertex 1.69047 -3.62523 2
    endloop
  endfacet
  facet normal 0 0 1
    outer loop
      vertex 5.1303 -14.0954 2
      vertex 1.36808 -3.75877 2
      vertex 3.88229 -14.4889 2
    endloop
  endfacet
  facet normal -0 0 1
    outer loop
      vertex 1.03528 -3.8637 2
      vertex 3.88229 -14.4889 2
      vertex 1.36808 -3.75877 2
    endloop
  endfacet
  facet normal 0 0 1
    outer loop
      vertex 3.88229 -14.4889 2
      vertex 1.03528 -3.8637 2
      vertex 2.60472 -14.7721 2
    endloop
  endfacet
  facet normal -0 0 1
    outer loop
      vertex 0.694592 -3.93923 2
      vertex 2.60472 -14.7721 2
      vertex 1.03528 -3.8637 2
    endloop
  endfacet
  facet normal 0 0 1
    outer loop
      vertex 2.60472 -14.7721 2
      vertex 0.694592 -3.93923 2
      vertex 1.30734 -14.9429 2
    endloop
  endfacet
  facet normal -0 0 1
    outer loop
      vertex 0.348622 -3.98478 2
      vertex 1.30734 -14.9429 2
      vertex 0.694592 -3.93923 2
    endloop
  endfacet
  facet normal -0 0 1
    outer loop
      vertex 0 -4 2
      vertex 1.30734 -14.9429 2
      vertex 0.348622 -3.98478 2
    endloop
  endfacet
  facet normal 0 0 1
    outer loop
      vertex 0 -4 2
      vertex 0 -15 2
      vertex 1.30734 -14.9429 2
    endloop
  endfacet
  facet normal 0 0 1
    outer loop
      vertex -0.348622 -3.98478 2
      vertex 0 -15 2
      vertex 0 -4 2
    endloop
  endfacet
  facet normal 0 0 1
    outer loop
      vertex -1.30734 -14.9429 2
      vertex -0.348622 -3.98478 2
      vertex -0.694592 -3.93923 2
    endloop
  endfacet
  facet normal 0 0 1
    outer loop
      vertex -2.60472 -14.7721 2
      vertex -0.694592 -3.93923 2
      vertex -1.03528 -3.8637 2
    endloop
  endfacet
  facet normal 0 0 1
    outer loop
      vertex -0.348622 -3.98478 2
      vertex -1.30734 -14.9429 2
      vertex 0 -15 2
    endloop
  endfacet
  facet normal 0 0 1
    outer loop
      vertex -3.88229 -14.4889 2
      vertex -1.03528 -3.8637 2
      vertex -1.36808 -3.75877 2
    endloop
  endfacet
  facet normal 0 0 1
    outer loop
      vertex -5.1303 -14.0954 2
      vertex -1.36808 -3.75877 2
      vertex -1.69047 -3.62523 2
    endloop
  endfacet
  facet normal 0 0 1
    outer loop
      vertex -6.33927 -13.5946 2
      vertex -1.69047 -3.62523 2
      vertex -2 -3.4641 2
    endloop
  endfacet
  facet normal 0 0 1
    outer loop
      vertex -7.5 -12.9904 2
      vertex -2 -3.4641 2
      vertex -2.2943 -3.27661 2
    endloop
  endfacet
  facet normal 0 0 1
    outer loop
      vertex -8.60365 -12.2873 2
      vertex -2.2943 -3.27661 2
      vertex -2.57115 -3.06418 2
    endloop
  endfacet
  facet normal 0 0 1
    outer loop
      vertex -0.694592 -3.93923 2
      vertex -2.60472 -14.7721 2
      vertex -1.30734 -14.9429 2
    endloop
  endfacet
  facet normal 0 0 1
    outer loop
      vertex -9.64181 -11.4907 2
      vertex -2.57115 -3.06418 2
      vertex -2.82843 -2.82843 2
    endloop
  endfacet
  facet normal 0 0 1
    outer loop
      vertex -10.6066 -10.6066 2
      vertex -2.82843 -2.82843 2
      vertex -3.06418 -2.57115 2
    endloop
  endfacet
  facet normal 0 0 1
    outer loop
      vertex -11.4907 -9.64181 2
      vertex -3.06418 -2.57115 2
      vertex -3.27661 -2.2943 2
    endloop
  endfacet
  facet normal 0 0 1
    outer loop
      vertex -12.2873 -8.60365 2
      vertex -3.27661 -2.2943 2
      vertex -3.4641 -2 2
    endloop
  endfacet
  facet normal 0 0 1
    outer loop
      vertex -12.9904 -7.5 2
      vertex -3.4641 -2 2
      vertex -3.62523 -1.69047 2
    endloop
  endfacet
  facet normal 0 0 1
    outer loop
      vertex -13.5946 -6.33927 2
      vertex -3.62523 -1.69047 2
      vertex -3.75877 -1.36808 2
    endloop
  endfacet
  facet normal 0 0 1
    outer loop
      vertex -14.0954 -5.1303 2
      vertex -3.75877 -1.36808 2
      vertex -3.8637 -1.03528 2
    endloop
  endfacet
  facet normal 0 0 1
    outer loop
      vertex -1.03528 -3.8637 2
      vertex -3.88229 -14.4889 2
      vertex -2.60472 -14.7721 2
    endloop
  endfacet
  facet normal 0 0 1
    outer loop
      vertex -14.4889 -3.88229 2
      vertex -3.8637 -1.03528 2
      vertex -3.93923 -0.694592 2
    endloop
  endfacet
  facet normal 0 0 1
    outer loop
      vertex -14.7721 -2.60472 2
      vertex -3.93923 -0.694592 2
      vertex -3.98478 -0.348622 2
    endloop
  endfacet
  facet normal 0 0 1
    outer loop
      vertex -14.9429 -1.30734 2
      vertex -3.98478 -0.348622 2
      vertex -4 0 2
    endloop
  endfacet
  facet normal 0 0 1
    outer loop
      vertex -3.27661 2.2943 2
      vertex -12.2873 8.60365 2
      vertex -3.4641 2 2
    endloop
  endfacet
  facet normal 0 0 1
    outer loop
      vertex -1.36808 -3.75877 2
      vertex -5.1303 -14.0954 2
      vertex -3.88229 -14.4889 2
    endloop
  endfacet
  facet normal -0 0 1
    outer loop
      vertex -12.9904 7.5 2
      vertex -3.4641 2 2
      vertex -12.2873 8.60365 2
    endloop
  endfacet
  facet normal 0 0 1
    outer loop
      vertex -1.69047 -3.62523 2
      vertex -6.33927 -13.5946 2
      vertex -5.1303 -14.0954 2
    endloop
  endfacet
  facet normal 0 0 1
    outer loop
      vertex -3.4641 2 2
      vertex -12.9904 7.5 2
      vertex -3.62523 1.69047 2
    endloop
  endfacet
  facet normal 0 0 1
    outer loop
      vertex -2 -3.4641 2
      vertex -7.5 -12.9904 2
      vertex -6.33927 -13.5946 2
    endloop
  endfacet
  facet normal -0 0 1
    outer loop
      vertex -13.5946 6.33927 2
      vertex -3.62523 1.69047 2
      vertex -12.9904 7.5 2
    endloop
  endfacet
  facet normal 0 0 1
    outer loop
      vertex -2.2943 -3.27661 2
      vertex -8.60365 -12.2873 2
      vertex -7.5 -12.9904 2
    endloop
  endfacet
  facet normal 0 0 1
    outer loop
      vertex -3.62523 1.69047 2
      vertex -13.5946 6.33927 2
      vertex -3.75877 1.36808 2
    endloop
  endfacet
  facet normal 0 0 1
    outer loop
      vertex -2.57115 -3.06418 2
      vertex -9.64181 -11.4907 2
      vertex -8.60365 -12.2873 2
    endloop
  endfacet
  facet normal -0 0 1
    outer loop
      vertex -14.0954 5.1303 2
      vertex -3.75877 1.36808 2
      vertex -13.5946 6.33927 2
    endloop
  endfacet
  facet normal 0 0 1
    outer loop
      vertex -2.82843 -2.82843 2
      vertex -10.6066 -10.6066 2
      vertex -9.64181 -11.4907 2
    endloop
  endfacet
  facet normal 0 0 1
    outer loop
      vertex -3.75877 1.36808 2
      vertex -14.0954 5.1303 2
      vertex -3.8637 1.03528 2
    endloop
  endfacet
  facet normal 0 0 1
    outer loop
      vertex -3.06418 -2.57115 2
      vertex -11.4907 -9.64181 2
      vertex -10.6066 -10.6066 2
    endloop
  endfacet
  facet normal -0 0 1
    outer loop
      vertex -14.4889 3.88229 2
      vertex -3.8637 1.03528 2
      vertex -14.0954 5.1303 2
    endloop
  endfacet
  facet normal 0 0 1
    outer loop
      vertex -3.27661 -2.2943 2
      vertex -12.2873 -8.60365 2
      vertex -11.4907 -9.64181 2
    endloop
  endfacet
  facet normal 0 0 1
    outer loop
      vertex -3.8637 1.03528 2
      vertex -14.4889 3.88229 2
      vertex -3.93923 0.694592 2
    endloop
  endfacet
  facet normal 0 0 1
    outer loop
      vertex -3.4641 -2 2
      vertex -12.9904 -7.5 2
      vertex -12.2873 -8.60365 2
    endloop
  endfacet
  facet normal -0 0 1
    outer loop
      vertex -14.7721 2.60472 2
      vertex -3.93923 0.694592 2
      vertex -14.4889 3.88229 2
    endloop
  endfacet
  facet normal 0 0 1
    outer loop
      vertex -3.62523 -1.69047 2
      vertex -13.5946 -6.33927 2
      vertex -12.9904 -7.5 2
    endloop
  endfacet
  facet normal 0 0 1
    outer loop
      vertex -3.93923 0.694592 2
      vertex -14.7721 2.60472 2
      vertex -3.98478 0.348622 2
    endloop
  endfacet
  facet normal 0 0 1
    outer loop
      vertex -3.75877 -1.36808 2
      vertex -14.0954 -5.1303 2
      vertex -13.5946 -6.33927 2
    endloop
  endfacet
  facet normal -0 0 1
    outer loop
      vertex -14.9429 1.30734 2
      vertex -3.98478 0.348622 2
      vertex -14.7721 2.60472 2
    endloop
  endfacet
  facet normal 0 0 1
    outer loop
      vertex -3.8637 -1.03528 2
      vertex -14.4889 -3.88229 2
      vertex -14.0954 -5.1303 2
    endloop
  endfacet
  facet normal 0 0 1
    outer loop
      vertex -3.98478 0.348622 2
      vertex -14.9429 1.30734 2
      vertex -4 0 2
    endloop
  endfacet
  facet normal 0 0 1
    outer loop
      vertex -3.93923 -0.694592 2
      vertex -14.7721 -2.60472 2
      vertex -14.4889 -3.88229 2
    endloop
  endfacet
  facet normal 0 0 1
    outer loop
      vertex -15 0 2
      vertex -4 0 2
      vertex -14.9429 1.30734 2
    endloop
  endfacet
  facet normal 0 0 1
    outer loop
      vertex -3.98478 -0.348622 2
      vertex -14.9429 -1.30734 2
      vertex -14.7721 -2.60472 2
    endloop
  endfacet
  facet normal 0 0 1
    outer loop
      vertex -4 0 2
      vertex -15 0 2
      vertex -14.9429 -1.30734 2
    endloop
  endfacet
  facet normal 0 0 -1
    outer loop
      vertex 4 0 0
      vertex 15 0 0
      vertex 14.9429 -1.30734 0
    endloop
  endfacet
  facet normal 0 0 -1
    outer loop
      vertex 3.98478 -0.348622 0
      vertex 14.9429 -1.30734 0
      vertex 14.7721 -2.60472 0
    endloop
  endfacet
  facet normal 0 0 -1
    outer loop
      vertex 15 0 0
      vertex 4 0 0
      vertex 14.9429 1.30734 0
    endloop
  endfacet
  facet normal 0 0 -1
    outer loop
      vertex 3.93923 -0.694592 0
      vertex 14.7721 -2.60472 0
      vertex 14.4889 -3.88229 0
    endloop
  endfacet
  facet normal 0 0 -1
    outer loop
      vertex 3.98478 0.348622 0
      vertex 14.9429 1.30734 0
      vertex 4 0 0
    endloop
  endfacet
  facet normal 0 0 -1
    outer loop
      vertex 3.8637 -1.03528 0
      vertex 14.4889 -3.88229 0
      vertex 14.0954 -5.1303 0
    endloop
  endfacet
  facet normal -0 0 -1
    outer loop
      vertex 14.9429 1.30734 0
      vertex 3.98478 0.348622 0
      vertex 14.7721 2.60472 0
    endloop
  endfacet
  facet normal 0 0 -1
    outer loop
      vertex 3.75877 -1.36808 0
      vertex 14.0954 -5.1303 0
      vertex 13.5946 -6.33927 0
    endloop
  endfacet
  facet normal 0 0 -1
    outer loop
      vertex 3.93923 0.694592 0
      vertex 14.7721 2.60472 0
      vertex 3.98478 0.348622 0
    endloop
  endfacet
  facet normal 0 0 -1
    outer loop
      vertex 3.62523 -1.69047 0
      vertex 13.5946 -6.33927 0
      vertex 12.9904 -7.5 0
    endloop
  endfacet
  facet normal -0 0 -1
    outer loop
      vertex 14.7721 2.60472 0
      vertex 3.93923 0.694592 0
      vertex 14.4889 3.88229 0
    endloop
  endfacet
  facet normal 0 0 -1
    outer loop
      vertex 3.4641 -2 0
      vertex 12.9904 -7.5 0
      vertex 12.2873 -8.60365 0
    endloop
  endfacet
  facet normal 0 0 -1
    outer loop
      vertex 3.8637 1.03528 0
      vertex 14.4889 3.88229 0
      vertex 3.93923 0.694592 0
    endloop
  endfacet
  facet normal 0 0 -1
    outer loop
      vertex 3.27661 -2.2943 0
      vertex 12.2873 -8.60365 0
      vertex 11.4907 -9.64181 0
    endloop
  endfacet
  facet normal -0 0 -1
    outer loop
      vertex 14.4889 3.88229 0
      vertex 3.8637 1.03528 0
      vertex 14.0954 5.1303 0
    endloop
  endfacet
  facet normal 0 0 -1
    outer loop
      vertex 3.06418 -2.57115 0
      vertex 11.4907 -9.64181 0
      vertex 10.6066 -10.6066 0
    endloop
  endfacet
  facet normal 0 0 -1
    outer loop
      vertex 3.75877 1.36808 0
      vertex 14.0954 5.1303 0
      vertex 3.8637 1.03528 0
    endloop
  endfacet
  facet normal 0 0 -1
    outer loop
      vertex 2.82843 -2.82843 0
      vertex 10.6066 -10.6066 0
      vertex 9.64181 -11.4907 0
    endloop
  endfacet
  facet normal -0 0 -1
    outer loop
      vertex 14.0954 5.1303 0
      vertex 3.75877 1.36808 0
      vertex 13.5946 6.33927 0
    endloop
  endfacet
  facet normal 0 0 -1
    outer loop
      vertex 2.57115 -3.06418 0
      vertex 9.64181 -11.4907 0
      vertex 8.60365 -12.2873 0
    endloop
  endfacet
  facet normal 0 0 -1
    outer loop
      vertex 3.62523 1.69047 0
      vertex 13.5946 6.33927 0
      vertex 3.75877 1.36808 0
    endloop
  endfacet
  facet normal 0 0 -1
    outer loop
      vertex 2.2943 -3.27661 0
      vertex 8.60365 -12.2873 0
      vertex 7.5 -12.9904 0
    endloop
  endfacet
  facet normal -0 0 -1
    outer loop
      vertex 13.5946 6.33927 0
      vertex 3.62523 1.69047 0
      vertex 12.9904 7.5 0
    endloop
  endfacet
  facet normal 0 0 -1
    outer loop
      vertex 2 -3.4641 0
      vertex 7.5 -12.9904 0
      vertex 6.33927 -13.5946 0
    endloop
  endfacet
  facet normal 0 0 -1
    outer loop
      vertex 3.4641 2 0
      vertex 12.9904 7.5 0
      vertex 3.62523 1.69047 0
    endloop
  endfacet
  facet normal 0 0 -1
    outer loop
      vertex 1.69047 -3.62523 0
      vertex 6.33927 -13.5946 0
      vertex 5.1303 -14.0954 0
    endloop
  endfacet
  facet normal -0 0 -1
    outer loop
      vertex 12.9904 7.5 0
      vertex 3.4641 2 0
      vertex 12.2873 8.60365 0
    endloop
  endfacet
  facet normal 0 0 -1
    outer loop
      vertex 3.27661 2.2943 0
      vertex 12.2873 8.60365 0
      vertex 3.4641 2 0
    endloop
  endfacet
  facet normal 0 0 -1
    outer loop
      vertex 14.9429 -1.30734 0
      vertex 3.98478 -0.348622 0
      vertex 4 0 0
    endloop
  endfacet
  facet normal 0 0 -1
    outer loop
      vertex 14.7721 -2.60472 0
      vertex 3.93923 -0.694592 0
      vertex 3.98478 -0.348622 0
    endloop
  endfacet
  facet normal 0 0 -1
    outer loop
      vertex 1.36808 -3.75877 0
      vertex 5.1303 -14.0954 0
      vertex 3.88229 -14.4889 0
    endloop
  endfacet
  facet normal 0 0 -1
    outer loop
      vertex 14.4889 -3.88229 0
      vertex 3.8637 -1.03528 0
      vertex 3.93923 -0.694592 0
    endloop
  endfacet
  facet normal 0 0 -1
    outer loop
      vertex 14.0954 -5.1303 0
      vertex 3.75877 -1.36808 0
      vertex 3.8637 -1.03528 0
    endloop
  endfacet
  facet normal 0 0 -1
    outer loop
      vertex 13.5946 -6.33927 0
      vertex 3.62523 -1.69047 0
      vertex 3.75877 -1.36808 0
    endloop
  endfacet
  facet normal 0 0 -1
    outer loop
      vertex 12.9904 -7.5 0
      vertex 3.4641 -2 0
      vertex 3.62523 -1.69047 0
    endloop
  endfacet
  facet normal 0 0 -1
    outer loop
      vertex 12.2873 -8.60365 0
      vertex 3.27661 -2.2943 0
      vertex 3.4641 -2 0
    endloop
  endfacet
  facet normal 0 0 -1
    outer loop
      vertex 11.4907 -9.64181 0
      vertex 3.06418 -2.57115 0
      vertex 3.27661 -2.2943 0
    endloop
  endfacet
  facet normal 0 0 -1
    outer loop
      vertex 10.6066 -10.6066 0
      vertex 2.82843 -2.82843 0
      vertex 3.06418 -2.57115 0
    endloop
  endfacet
  facet normal 0 0 -1
    outer loop
      vertex 1.03528 -3.8637 0
      vertex 3.88229 -14.4889 0
      vertex 2.60472 -14.7721 0
    endloop
  endfacet
  facet normal 0 0 -1
    outer loop
      vertex 9.64181 -11.4907 0
      vertex 2.57115 -3.06418 0
      vertex 2.82843 -2.82843 0
    endloop
  endfacet
  facet normal 0 0 -1
    outer loop
      vertex 8.60365 -12.2873 0
      vertex 2.2943 -3.27661 0
      vertex 2.57115 -3.06418 0
    endloop
  endfacet
  facet normal 0 0 -1
    outer loop
      vertex 7.5 -12.9904 0
      vertex 2 -3.4641 0
      vertex 2.2943 -3.27661 0
    endloop
  endfacet
  facet normal 0 0 -1
    outer loop
      vertex 6.33927 -13.5946 0
      vertex 1.69047 -3.62523 0
      vertex 2 -3.4641 0
    endloop
  endfacet
  facet normal 0 0 -1
    outer loop
      vertex 5.1303 -14.0954 0
      vertex 1.36808 -3.75877 0
      vertex 1.69047 -3.62523 0
    endloop
  endfacet
  facet normal 0 0 -1
    outer loop
      vertex 0.694592 -3.93923 0
      vertex 2.60472 -14.7721 0
      vertex 1.30734 -14.9429 0
    endloop
  endfacet
  facet normal 0 0 -1
    outer loop
      vertex 3.88229 -14.4889 0
      vertex 1.03528 -3.8637 0
      vertex 1.36808 -3.75877 0
    endloop
  endfacet
  facet normal 0 0 -1
    outer loop
      vertex 2.60472 -14.7721 0
      vertex 0.694592 -3.93923 0
      vertex 1.03528 -3.8637 0
    endloop
  endfacet
  facet normal 0 0 -1
    outer loop
      vertex 1.30734 -14.9429 0
      vertex 0.348622 -3.98478 0
      vertex 0.694592 -3.93923 0
    endloop
  endfacet
  facet normal 0 0 -1
    outer loop
      vertex 0 -15 0
      vertex 0.348622 -3.98478 0
      vertex 1.30734 -14.9429 0
    endloop
  endfacet
  facet normal 0 0 -1
    outer loop
      vertex 0 -15 0
      vertex 0 -4 0
      vertex 0.348622 -3.98478 0
    endloop
  endfacet
  facet normal 0 0 -1
    outer loop
      vertex 0 -15 0
      vertex -0.348622 -3.98478 0
      vertex 0 -4 0
    endloop
  endfacet
  facet normal 0 0 -1
    outer loop
      vertex -1.30734 -14.9429 0
      vertex -0.348622 -3.98478 0
      vertex 0 -15 0
    endloop
  endfacet
  facet normal -0 0 -1
    outer loop
      vertex -0.348622 -3.98478 0
      vertex -1.30734 -14.9429 0
      vertex -0.694592 -3.93923 0
    endloop
  endfacet
  facet normal 0 0 -1
    outer loop
      vertex -2.60472 -14.7721 0
      vertex -0.694592 -3.93923 0
      vertex -1.30734 -14.9429 0
    endloop
  endfacet
  facet normal -0 0 -1
    outer loop
      vertex -0.694592 -3.93923 0
      vertex -2.60472 -14.7721 0
      vertex -1.03528 -3.8637 0
    endloop
  endfacet
  facet normal 0 0 -1
    outer loop
      vertex -3.88229 -14.4889 0
      vertex -1.03528 -3.8637 0
      vertex -2.60472 -14.7721 0
    endloop
  endfacet
  facet normal -0 0 -1
    outer loop
      vertex -1.03528 -3.8637 0
      vertex -3.88229 -14.4889 0
      vertex -1.36808 -3.75877 0
    endloop
  endfacet
  facet normal 0 0 -1
    outer loop
      vertex -5.1303 -14.0954 0
      vertex -1.36808 -3.75877 0
      vertex -3.88229 -14.4889 0
    endloop
  endfacet
  facet normal -0 0 -1
    outer loop
      vertex -1.36808 -3.75877 0
      vertex -5.1303 -14.0954 0
      vertex -1.69047 -3.62523 0
    endloop
  endfacet
  facet normal 0 0 -1
    outer loop
      vertex -6.33927 -13.5946 0
      vertex -1.69047 -3.62523 0
      vertex -5.1303 -14.0954 0
    endloop
  endfacet
  facet normal -0 0 -1
    outer loop
      vertex -1.69047 -3.62523 0
      vertex -6.33927 -13.5946 0
      vertex -2 -3.4641 0
    endloop
  endfacet
  facet normal 0 0 -1
    outer loop
      vertex -7.5 -12.9904 0
      vertex -2 -3.4641 0
      vertex -6.33927 -13.5946 0
    endloop
  endfacet
  facet normal -0 0 -1
    outer loop
      vertex -2 -3.4641 0
      vertex -7.5 -12.9904 0
      vertex -2.2943 -3.27661 0
    endloop
  endfacet
  facet normal 0 0 -1
    outer loop
      vertex -8.60365 -12.2873 0
      vertex -2.2943 -3.27661 0
      vertex -7.5 -12.9904 0
    endloop
  endfacet
  facet normal -0 0 -1
    outer loop
      vertex -2.2943 -3.27661 0
      vertex -8.60365 -12.2873 0
      vertex -2.57115 -3.06418 0
    endloop
  endfacet
  facet normal 0 0 -1
    outer loop
      vertex -9.64181 -11.4907 0
      vertex -2.57115 -3.06418 0
      vertex -8.60365 -12.2873 0
    endloop
  endfacet
  facet normal -0 0 -1
    outer loop
      vertex -2.57115 -3.06418 0
      vertex -9.64181 -11.4907 0
      vertex -2.82843 -2.82843 0
    endloop
  endfacet
  facet normal 0 0 -1
    outer loop
      vertex -10.6066 -10.6066 0
      vertex -2.82843 -2.82843 0
      vertex -9.64181 -11.4907 0
    endloop
  endfacet
  facet normal -0 0 -1
    outer loop
      vertex -2.82843 -2.82843 0
      vertex -10.6066 -10.6066 0
      vertex -3.06418 -2.57115 0
    endloop
  endfacet
  facet normal 0 0 -1
    outer loop
      vertex -11.4907 -9.64181 0
      vertex -3.06418 -2.57115 0
      vertex -10.6066 -10.6066 0
    endloop
  endfacet
  facet normal -0 0 -1
    outer loop
      vertex -3.06418 -2.57115 0
      vertex -11.4907 -9.64181 0
      vertex -3.27661 -2.2943 0
    endloop
  endfacet
  facet normal 0 0 -1
    outer loop
      vertex -12.2873 -8.60365 0
      vertex -3.27661 -2.2943 0
      vertex -11.4907 -9.64181 0
    endloop
  endfacet
  facet normal -0 0 -1
    outer loop
      vertex 12.2873 8.60365 0
      vertex 3.27661 2.2943 0
      vertex 11.4907 9.64181 0
    endloop
  endfacet
  facet normal 0 0 -1
    outer loop
      vertex 3.06418 2.57115 0
      vertex 11.4907 9.64181 0
      vertex 3.27661 2.2943 0
    endloop
  endfacet
  facet normal -0 0 -1
    outer loop
      vertex 11.4907 9.64181 0
      vertex 3.06418 2.57115 0
      vertex 10.6066 10.6066 0
    endloop
  endfacet
  facet normal 0 0 -1
    outer loop
      vertex 2.82843 2.82843 0
      vertex 10.6066 10.6066 0
      vertex 3.06418 2.57115 0
    endloop
  endfacet
  facet normal -0 0 -1
    outer loop
      vertex 10.6066 10.6066 0
      vertex 2.82843 2.82843 0
      vertex 9.64181 11.4907 0
    endloop
  endfacet
  facet normal 0 0 -1
    outer loop
      vertex 2.57115 3.06418 0
      vertex 9.64181 11.4907 0
      vertex 2.82843 2.82843 0
    endloop
  endfacet
  facet normal -0 0 -1
    outer loop
      vertex 9.64181 11.4907 0
      vertex 2.57115 3.06418 0
      vertex 8.60365 12.2873 0
    endloop
  endfacet
  facet normal 0 0 -1
    outer loop
      vertex 2.2943 3.27661 0
      vertex 8.60365 12.2873 0
      vertex 2.57115 3.06418 0
    endloop
  endfacet
  facet normal -0 0 -1
    outer loop
      vertex 8.60365 12.2873 0
      vertex 2.2943 3.27661 0
      vertex 7.5 12.9904 0
    endloop
  endfacet
  facet normal 0 0 -1
    outer loop
      vertex 2 3.4641 0
      vertex 7.5 12.9904 0
      vertex 2.2943 3.27661 0
    endloop
  endfacet
  facet normal -0 0 -1
    outer loop
      vertex 7.5 12.9904 0
      vertex 2 3.4641 0
      vertex 6.33927 13.5946 0
    endloop
  endfacet
  facet normal 0 0 -1
    outer loop
      vertex 1.69047 3.62523 0
      vertex 6.33927 13.5946 0
      vertex 2 3.4641 0
    endloop
  endfacet
  facet normal -0 0 -1
    outer loop
      vertex 6.33927 13.5946 0
      vertex 1.69047 3.62523 0
      vertex 5.1303 14.0954 0
    endloop
  endfacet
  facet normal 0 0 -1
    outer loop
      vertex 1.36808 3.75877 0
      vertex 5.1303 14.0954 0
      vertex 1.69047 3.62523 0
    endloop
  endfacet
  facet normal -0 0 -1
    outer loop
      vertex 5.1303 14.0954 0
      vertex 1.36808 3.75877 0
      vertex 3.88229 14.4889 0
    endloop
  endfacet
  facet normal 0 0 -1
    outer loop
      vertex 1.03528 3.8637 0
      vertex 3.88229 14.4889 0
      vertex 1.36808 3.75877 0
    endloop
  endfacet
  facet normal -0 0 -1
    outer loop
      vertex 3.88229 14.4889 0
      vertex 1.03528 3.8637 0
      vertex 2.60472 14.7721 0
    endloop
  endfacet
  facet normal 0 0 -1
    outer loop
      vertex 0.694592 3.93923 0
      vertex 2.60472 14.7721 0
      vertex 1.03528 3.8637 0
    endloop
  endfacet
  facet normal -0 0 -1
    outer loop
      vertex 2.60472 14.7721 0
      vertex 0.694592 3.93923 0
      vertex 1.30734 14.9429 0
    endloop
  endfacet
  facet normal 0 0 -1
    outer loop
      vertex 0.348622 3.98478 0
      vertex 1.30734 14.9429 0
      vertex 0.694592 3.93923 0
    endloop
  endfacet
  facet normal 0 0 -1
    outer loop
      vertex 0 4 0
      vertex 1.30734 14.9429 0
      vertex 0.348622 3.98478 0
    endloop
  endfacet
  facet normal 0 0 -1
    outer loop
      vertex 0 4 0
      vertex 0 15 0
      vertex 1.30734 14.9429 0
    endloop
  endfacet
  facet normal 0 0 -1
    outer loop
      vertex -0.348622 3.98478 0
      vertex 0 15 0
      vertex 0 4 0
    endloop
  endfacet
  facet normal 0 0 -1
    outer loop
      vertex -1.30734 14.9429 0
      vertex -0.348622 3.98478 0
      vertex -0.694592 3.93923 0
    endloop
  endfacet
  facet normal 0 0 -1
    outer loop
      vertex -2.60472 14.7721 0
      vertex -0.694592 3.93923 0
      vertex -1.03528 3.8637 0
    endloop
  endfacet
  facet normal 0 0 -1
    outer loop
      vertex -0.348622 3.98478 0
      vertex -1.30734 14.9429 0
      vertex 0 15 0
    endloop
  endfacet
  facet normal 0 0 -1
    outer loop
      vertex -3.88229 14.4889 0
      vertex -1.03528 3.8637 0
      vertex -1.36808 3.75877 0
    endloop
  endfacet
  facet normal 0 0 -1
    outer loop
      vertex -5.1303 14.0954 0
      vertex -1.36808 3.75877 0
      vertex -1.69047 3.62523 0
    endloop
  endfacet
  facet normal 0 0 -1
    outer loop
      vertex -6.33927 13.5946 0
      vertex -1.69047 3.62523 0
      vertex -2 3.4641 0
    endloop
  endfacet
  facet normal 0 0 -1
    outer loop
      vertex -7.5 12.9904 0
      vertex -2 3.4641 0
      vertex -2.2943 3.27661 0
    endloop
  endfacet
  facet normal 0 0 -1
    outer loop
      vertex -8.60365 12.2873 0
      vertex -2.2943 3.27661 0
      vertex -2.57115 3.06418 0
    endloop
  endfacet
  facet normal 0 0 -1
    outer loop
      vertex -0.694592 3.93923 0
      vertex -2.60472 14.7721 0
      vertex -1.30734 14.9429 0
    endloop
  endfacet
  facet normal 0 0 -1
    outer loop
      vertex -9.64181 11.4907 0
      vertex -2.57115 3.06418 0
      vertex -2.82843 2.82843 0
    endloop
  endfacet
  facet normal 0 0 -1
    outer loop
      vertex -10.6066 10.6066 0
      vertex -2.82843 2.82843 0
      vertex -3.06418 2.57115 0
    endloop
  endfacet
  facet normal 0 0 -1
    outer loop
      vertex -11.4907 9.64181 0
      vertex -3.06418 2.57115 0
      vertex -3.27661 2.2943 0
    endloop
  endfacet
  facet normal 0 0 -1
    outer loop
      vertex -12.2873 8.60365 0
      vertex -3.27661 2.2943 0
      vertex -3.4641 2 0
    endloop
  endfacet
  facet normal 0 0 -1
    outer loop
      vertex -12.9904 7.5 0
      vertex -3.4641 2 0
      vertex -3.62523 1.69047 0
    endloop
  endfacet
  facet normal 0 0 -1
    outer loop
      vertex -13.5946 6.33927 0
      vertex -3.62523 1.69047 0
      vertex -3.75877 1.36808 0
    endloop
  endfacet
  facet normal 0 0 -1
    outer loop
      vertex -14.0954 5.1303 0
      vertex -3.75877 1.36808 0
      vertex -3.8637 1.03528 0
    endloop
  endfacet
  facet normal 0 0 -1
    outer loop
      vertex -1.03528 3.8637 0
      vertex -3.88229 14.4889 0
      vertex -2.60472 14.7721 0
    endloop
  endfacet
  facet normal 0 0 -1
    outer loop
      vertex -14.4889 3.88229 0
      vertex -3.8637 1.03528 0
      vertex -3.93923 0.694592 0
    endloop
  endfacet
  facet normal 0 0 -1
    outer loop
      vertex -14.7721 2.60472 0
      vertex -3.93923 0.694592 0
      vertex -3.98478 0.348622 0
    endloop
  endfacet
  facet normal 0 0 -1
    outer loop
      vertex -14.9429 1.30734 0
      vertex -3.98478 0.348622 0
      vertex -4 0 0
    endloop
  endfacet
  facet normal -0 0 -1
    outer loop
      vertex -3.27661 -2.2943 0
      vertex -12.2873 -8.60365 0
      vertex -3.4641 -2 0
    endloop
  endfacet
  facet normal 0 0 -1
    outer loop
      vertex -1.36808 3.75877 0
      vertex -5.1303 14.0954 0
      vertex -3.88229 14.4889 0
    endloop
  endfacet
  facet normal 0 0 -1
    outer loop
      vertex -12.9904 -7.5 0
      vertex -3.4641 -2 0
      vertex -12.2873 -8.60365 0
    endloop
  endfacet
  facet normal 0 0 -1
    outer loop
      vertex -1.69047 3.62523 0
      vertex -6.33927 13.5946 0
      vertex -5.1303 14.0954 0
    endloop
  endfacet
  facet normal -0 0 -1
    outer loop
      vertex -3.4641 -2 0
      vertex -12.9904 -7.5 0
      vertex -3.62523 -1.69047 0
    endloop
  endfacet
  facet normal 0 0 -1
    outer loop
      vertex -2 3.4641 0
      vertex -7.5 12.9904 0
      vertex -6.33927 13.5946 0
    endloop
  endfacet
  facet normal 0 0 -1
    outer loop
      vertex -13.5946 -6.33927 0
      vertex -3.62523 -1.69047 0
      vertex -12.9904 -7.5 0
    endloop
  endfacet
  facet normal 0 0 -1
    outer loop
      vertex -2.2943 3.27661 0
      vertex -8.60365 12.2873 0
      vertex -7.5 12.9904 0
    endloop
  endfacet
  facet normal -0 0 -1
    outer loop
      vertex -3.62523 -1.69047 0
      vertex -13.5946 -6.33927 0
      vertex -3.75877 -1.36808 0
    endloop
  endfacet
  facet normal 0 0 -1
    outer loop
      vertex -2.57115 3.06418 0
      vertex -9.64181 11.4907 0
      vertex -8.60365 12.2873 0
    endloop
  endfacet
  facet normal 0 0 -1
    outer loop
      vertex -14.0954 -5.1303 0
      vertex -3.75877 -1.36808 0
      vertex -13.5946 -6.33927 0
    endloop
  endfacet
  facet normal 0 0 -1
    outer loop
      vertex -2.82843 2.82843 0
      vertex -10.6066 10.6066 0
      vertex -9.64181 11.4907 0
    endloop
  endfacet
  facet normal -0 0 -1
    outer loop
      vertex -3.75877 -1.36808 0
      vertex -14.0954 -5.1303 0
      vertex -3.8637 -1.03528 0
    endloop
  endfacet
  facet normal 0 0 -1
    outer loop
      vertex -3.06418 2.57115 0
      vertex -11.4907 9.64181 0
      vertex -10.6066 10.6066 0
    endloop
  endfacet
  facet normal 0 0 -1
    outer loop
      vertex -14.4889 -3.88229 0
      vertex -3.8637 -1.03528 0
      vertex -14.0954 -5.1303 0
    endloop
  endfacet
  facet normal 0 0 -1
    outer loop
      vertex -3.27661 2.2943 0
      vertex -12.2873 8.60365 0
      vertex -11.4907 9.64181 0
    endloop
  endfacet
  facet normal -0 0 -1
    outer loop
      vertex -3.8637 -1.03528 0
      vertex -14.4889 -3.88229 0
      vertex -3.93923 -0.694592 0
    endloop
  endfacet
  facet normal 0 0 -1
    outer loop
      vertex -3.4641 2 0
      vertex -12.9904 7.5 0
      vertex -12.2873 8.60365 0
    endloop
  endfacet
  facet normal 0 0 -1
    outer loop
      vertex -14.7721 -2.60472 0
      vertex -3.93923 -0.694592 0
      vertex -14.4889 -3.88229 0
    endloop
  endfacet
  facet normal 0 0 -1
    outer loop
      vertex -3.62523 1.69047 0
      vertex -13.5946 6.33927 0
      vertex -12.9904 7.5 0
    endloop
  endfacet
  facet normal -0 0 -1
    outer loop
      vertex -3.93923 -0.694592 0
      vertex -14.7721 -2.60472 0
      vertex -3.98478 -0.348622 0
    endloop
  endfacet
  facet normal 0 0 -1
    outer loop
      vertex -3.75877 1.36808 0
      vertex -14.0954 5.1303 0
      vertex -13.5946 6.33927 0
    endloop
  endfacet
  facet normal 0 0 -1
    outer loop
      vertex -14.9429 -1.30734 0
      vertex -3.98478 -0.348622 0
      vertex -14.7721 -2.60472 0
    endloop
  endfacet
  facet normal 0 0 -1
    outer loop
      vertex -3.8637 1.03528 0
      vertex -14.4889 3.88229 0
      vertex -14.0954 5.1303 0
    endloop
  endfacet
  facet normal -0 0 -1
    outer loop
      vertex -3.98478 -0.348622 0
      vertex -14.9429 -1.30734 0
      vertex -4 0 0
    endloop
  endfacet
  facet normal 0 0 -1
    outer loop
      vertex -3.93923 0.694592 0
      vertex -14.7721 2.60472 0
      vertex -14.4889 3.88229 0
    endloop
  endfacet
  facet normal 0 0 -1
    outer loop
      vertex -15 0 0
      vertex -4 0 0
      vertex -14.9429 -1.30734 0
    endloop
  endfacet
  facet normal 0 0 -1
    outer loop
      vertex -3.98478 0.348622 0
      vertex -14.9429 1.30734 0
      vertex -14.7721 2.60472 0
    endloop
  endfacet
  facet normal 0 0 -1
    outer loop
      vertex -4 0 0
      vertex -15 0 0
      vertex -14.9429 1.30734 0
    endloop
  endfacet
  facet normal -0.793356 0.608757 0
    outer loop
      vertex -12.2873 8.60365 0
      vertex -11.4907 9.64181 2
      vertex -11.4907 9.64181 0
    endloop
  endfacet
  facet normal -0.793356 0.608757 0
    outer loop
      vertex -11.4907 9.64181 2
      vertex -12.2873 8.60365 0
      vertex -12.2873 8.60365 2
    endloop
  endfacet
  facet normal -0.382702 -0.923872 0
    outer loop
      vertex -6.33927 -13.5946 0
      vertex -5.1303 -14.0954 2
      vertex -6.33927 -13.5946 2
    endloop
  endfacet
  facet normal -0.382702 -0.923872 -0
    outer loop
      vertex -5.1303 -14.0954 2
      vertex -6.33927 -13.5946 0
      vertex -5.1303 -14.0954 0
    endloop
  endfacet
  facet normal -0.887023 -0.461726 0
    outer loop
      vertex -12.9904 -7.5 0
      vertex -13.5946 -6.33927 2
      vertex -13.5946 -6.33927 0
    endloop
  endfacet
  facet normal -0.887023 -0.461726 0
    outer loop
      vertex -13.5946 -6.33927 2
      vertex -12.9904 -7.5 0
      vertex -12.9904 -7.5 2
    endloop
  endfacet
  facet normal 0.0436349 -0.999048 0
    outer loop
      vertex 0 -15 0
      vertex 1.30734 -14.9429 2
      vertex 0 -15 2
    endloop
  endfacet
  facet normal 0.0436349 -0.999048 0
    outer loop
      vertex 1.30734 -14.9429 2
      vertex 0 -15 0
      vertex 1.30734 -14.9429 0
    endloop
  endfacet
  facet normal 0.130524 -0.991445 0
    outer loop
      vertex 1.30734 -14.9429 0
      vertex 2.60472 -14.7721 2
      vertex 1.30734 -14.9429 2
    endloop
  endfacet
  facet normal 0.130524 -0.991445 0
    outer loop
      vertex 2.60472 -14.7721 2
      vertex 1.30734 -14.9429 0
      vertex 2.60472 -14.7721 0
    endloop
  endfacet
  facet normal -0.300709 -0.953716 0
    outer loop
      vertex -5.1303 -14.0954 0
      vertex -3.88229 -14.4889 2
      vertex -5.1303 -14.0954 2
    endloop
  endfacet
  facet normal -0.300709 -0.953716 -0
    outer loop
      vertex -3.88229 -14.4889 2
      vertex -5.1303 -14.0954 0
      vertex -3.88229 -14.4889 0
    endloop
  endfacet
  facet normal -0.382702 0.923872 0
    outer loop
      vertex -5.1303 14.0954 0
      vertex -6.33927 13.5946 2
      vertex -5.1303 14.0954 2
    endloop
  endfacet
  facet normal -0.382702 0.923872 0
    outer loop
      vertex -6.33927 13.5946 2
      vertex -5.1303 14.0954 0
      vertex -6.33927 13.5946 0
    endloop
  endfacet
  facet normal -0.537298 -0.843392 0
    outer loop
      vertex -8.60365 -12.2873 0
      vertex -7.5 -12.9904 2
      vertex -8.60365 -12.2873 2
    endloop
  endfacet
  facet normal -0.537298 -0.843392 -0
    outer loop
      vertex -7.5 -12.9904 2
      vertex -8.60365 -12.2873 0
      vertex -7.5 -12.9904 0
    endloop
  endfacet
  facet normal -0.737265 0.675604 0
    outer loop
      vertex -11.4907 9.64181 0
      vertex -10.6066 10.6066 2
      vertex -10.6066 10.6066 0
    endloop
  endfacet
  facet normal -0.737265 0.675604 0
    outer loop
      vertex -10.6066 10.6066 2
      vertex -11.4907 9.64181 0
      vertex -11.4907 9.64181 2
    endloop
  endfacet
  facet normal -0.976301 0.216417 0
    outer loop
      vertex -14.7721 2.60472 0
      vertex -14.4889 3.88229 2
      vertex -14.4889 3.88229 0
    endloop
  endfacet
  facet normal -0.976301 0.216417 0
    outer loop
      vertex -14.4889 3.88229 2
      vertex -14.7721 2.60472 0
      vertex -14.7721 2.60472 2
    endloop
  endfacet
  facet normal 0.737265 0.675604 0
    outer loop
      vertex 11.4907 9.64181 2
      vertex 10.6066 10.6066 0
      vertex 10.6066 10.6066 2
    endloop
  endfacet
  facet normal 0.737265 0.675604 0
    outer loop
      vertex 10.6066 10.6066 0
      vertex 11.4907 9.64181 2
      vertex 11.4907 9.64181 0
    endloop
  endfacet
  facet normal 0.793356 -0.608757 0
    outer loop
      vertex 11.4907 -9.64181 2
      vertex 12.2873 -8.60365 0
      vertex 12.2873 -8.60365 2
    endloop
  endfacet
  facet normal 0.793356 -0.608757 0
    outer loop
      vertex 12.2873 -8.60365 0
      vertex 11.4907 -9.64181 2
      vertex 11.4907 -9.64181 0
    endloop
  endfacet
  facet normal -0.675604 -0.737265 0
    outer loop
      vertex -10.6066 -10.6066 0
      vertex -9.64181 -11.4907 2
      vertex -10.6066 -10.6066 2
    endloop
  endfacet
  facet normal -0.675604 -0.737265 -0
    outer loop
      vertex -9.64181 -11.4907 2
      vertex -10.6066 -10.6066 0
      vertex -9.64181 -11.4907 0
    endloop
  endfacet
  facet normal 0.382702 -0.923872 0
    outer loop
      vertex 5.1303 -14.0954 0
      vertex 6.33927 -13.5946 2
      vertex 5.1303 -14.0954 2
    endloop
  endfacet
  facet normal 0.382702 -0.923872 0
    outer loop
      vertex 6.33927 -13.5946 2
      vertex 5.1303 -14.0954 0
      vertex 6.33927 -13.5946 0
    endloop
  endfacet
  facet normal 0.461726 -0.887023 0
    outer loop
      vertex 6.33927 -13.5946 0
      vertex 7.5 -12.9904 2
      vertex 6.33927 -13.5946 2
    endloop
  endfacet
  facet normal 0.461726 -0.887023 0
    outer loop
      vertex 7.5 -12.9904 2
      vertex 6.33927 -13.5946 0
      vertex 7.5 -12.9904 0
    endloop
  endfacet
  facet normal -0.991445 -0.130524 0
    outer loop
      vertex -14.7721 -2.60472 0
      vertex -14.9429 -1.30734 2
      vertex -14.9429 -1.30734 0
    endloop
  endfacet
  facet normal -0.991445 -0.130524 0
    outer loop
      vertex -14.9429 -1.30734 2
      vertex -14.7721 -2.60472 0
      vertex -14.7721 -2.60472 2
    endloop
  endfacet
  facet normal -0.537298 0.843392 0
    outer loop
      vertex -7.5 12.9904 0
      vertex -8.60365 12.2873 2
      vertex -7.5 12.9904 2
    endloop
  endfacet
  facet normal -0.537298 0.843392 0
    outer loop
      vertex -8.60365 12.2873 2
      vertex -7.5 12.9904 0
      vertex -8.60365 12.2873 0
    endloop
  endfacet
  facet normal -0.461726 -0.887023 0
    outer loop
      vertex -7.5 -12.9904 0
      vertex -6.33927 -13.5946 2
      vertex -7.5 -12.9904 2
    endloop
  endfacet
  facet normal -0.461726 -0.887023 -0
    outer loop
      vertex -6.33927 -13.5946 2
      vertex -7.5 -12.9904 0
      vertex -6.33927 -13.5946 0
    endloop
  endfacet
  facet normal 0.382702 0.923872 -0
    outer loop
      vertex 6.33927 13.5946 0
      vertex 5.1303 14.0954 2
      vertex 6.33927 13.5946 2
    endloop
  endfacet
  facet normal 0.382702 0.923872 0
    outer loop
      vertex 5.1303 14.0954 2
      vertex 6.33927 13.5946 0
      vertex 5.1303 14.0954 0
    endloop
  endfacet
  facet normal 0.130524 0.991445 -0
    outer loop
      vertex 2.60472 14.7721 0
      vertex 1.30734 14.9429 2
      vertex 2.60472 14.7721 2
    endloop
  endfacet
  facet normal 0.130524 0.991445 0
    outer loop
      vertex 1.30734 14.9429 2
      vertex 2.60472 14.7721 0
      vertex 1.30734 14.9429 0
    endloop
  endfacet
  facet normal -0.887023 0.461726 0
    outer loop
      vertex -13.5946 6.33927 0
      vertex -12.9904 7.5 2
      vertex -12.9904 7.5 0
    endloop
  endfacet
  facet normal -0.887023 0.461726 0
    outer loop
      vertex -12.9904 7.5 2
      vertex -13.5946 6.33927 0
      vertex -13.5946 6.33927 2
    endloop
  endfacet
  facet normal -0.130524 -0.991445 0
    outer loop
      vertex -2.60472 -14.7721 0
      vertex -1.30734 -14.9429 2
      vertex -2.60472 -14.7721 2
    endloop
  endfacet
  facet normal -0.130524 -0.991445 -0
    outer loop
      vertex -1.30734 -14.9429 2
      vertex -2.60472 -14.7721 0
      vertex -1.30734 -14.9429 0
    endloop
  endfacet
  facet normal 0.0436349 0.999048 -0
    outer loop
      vertex 1.30734 14.9429 0
      vertex 0 15 2
      vertex 1.30734 14.9429 2
    endloop
  endfacet
  facet normal 0.0436349 0.999048 0
    outer loop
      vertex 0 15 2
      vertex 1.30734 14.9429 0
      vertex 0 15 0
    endloop
  endfacet
  facet normal -0.991444 -0.130532 0
    outer loop
      vertex 3.98478 0.348622 0
      vertex 3.93923 0.694592 2
      vertex 3.93923 0.694592 0
    endloop
  endfacet
  facet normal -0.991444 -0.130532 0
    outer loop
      vertex 3.93923 0.694592 2
      vertex 3.98478 0.348622 0
      vertex 3.98478 0.348622 2
    endloop
  endfacet
  facet normal -0.999048 -0.0436161 0
    outer loop
      vertex 4 0 0
      vertex 3.98478 0.348622 2
      vertex 3.98478 0.348622 0
    endloop
  endfacet
  facet normal -0.999048 -0.0436161 0
    outer loop
      vertex 3.98478 0.348622 2
      vertex 4 0 0
      vertex 4 0 2
    endloop
  endfacet
  facet normal -0.976295 -0.216443 0
    outer loop
      vertex 3.93923 0.694592 0
      vertex 3.8637 1.03528 2
      vertex 3.8637 1.03528 0
    endloop
  endfacet
  facet normal -0.976295 -0.216443 0
    outer loop
      vertex 3.8637 1.03528 2
      vertex 3.93923 0.694592 0
      vertex 3.93923 0.694592 2
    endloop
  endfacet
  facet normal -0.382688 0.923878 0
    outer loop
      vertex 1.69047 -3.62523 0
      vertex 1.36808 -3.75877 2
      vertex 1.69047 -3.62523 2
    endloop
  endfacet
  facet normal -0.382688 0.923878 0
    outer loop
      vertex 1.36808 -3.75877 2
      vertex 1.69047 -3.62523 0
      vertex 1.36808 -3.75877 0
    endloop
  endfacet
  facet normal 0.843391 0.5373 0
    outer loop
      vertex -3.27661 -2.2943 2
      vertex -3.4641 -2 0
      vertex -3.4641 -2 2
    endloop
  endfacet
  facet normal 0.843391 0.5373 0
    outer loop
      vertex -3.4641 -2 0
      vertex -3.27661 -2.2943 2
      vertex -3.27661 -2.2943 0
    endloop
  endfacet
  facet normal 0.843391 -0.5373 0
    outer loop
      vertex -3.4641 2 2
      vertex -3.27661 2.2943 0
      vertex -3.27661 2.2943 2
    endloop
  endfacet
  facet normal 0.843391 -0.5373 0
    outer loop
      vertex -3.27661 2.2943 0
      vertex -3.4641 2 2
      vertex -3.4641 2 0
    endloop
  endfacet
  facet normal -0.300702 -0.953718 0
    outer loop
      vertex 1.03528 3.8637 0
      vertex 1.36808 3.75877 2
      vertex 1.03528 3.8637 2
    endloop
  endfacet
  facet normal -0.300702 -0.953718 -0
    outer loop
      vertex 1.36808 3.75877 2
      vertex 1.03528 3.8637 0
      vertex 1.36808 3.75877 0
    endloop
  endfacet
  facet normal 0.300702 -0.953718 0
    outer loop
      vertex -1.36808 3.75877 0
      vertex -1.03528 3.8637 2
      vertex -1.36808 3.75877 2
    endloop
  endfacet
  facet normal 0.300702 -0.953718 0
    outer loop
      vertex -1.03528 3.8637 2
      vertex -1.36808 3.75877 0
      vertex -1.03528 3.8637 0
    endloop
  endfacet
  facet normal -0.130532 0.991444 0
    outer loop
      vertex 0.694592 -3.93923 0
      vertex 0.348622 -3.98478 2
      vertex 0.694592 -3.93923 2
    endloop
  endfacet
  facet normal -0.130532 0.991444 0
    outer loop
      vertex 0.348622 -3.98478 2
      vertex 0.694592 -3.93923 0
      vertex 0.348622 -3.98478 0
    endloop
  endfacet
  facet normal 0.953718 -0.300702 0
    outer loop
      vertex -3.8637 1.03528 2
      vertex -3.75877 1.36808 0
      vertex -3.75877 1.36808 2
    endloop
  endfacet
  facet normal 0.953718 -0.300702 0
    outer loop
      vertex -3.75877 1.36808 0
      vertex -3.8637 1.03528 2
      vertex -3.8637 1.03528 0
    endloop
  endfacet
  facet normal -0.608753 -0.79336 0
    outer loop
      vertex 2.2943 3.27661 0
      vertex 2.57115 3.06418 2
      vertex 2.2943 3.27661 2
    endloop
  endfacet
  facet normal -0.608753 -0.79336 -0
    outer loop
      vertex 2.57115 3.06418 2
      vertex 2.2943 3.27661 0
      vertex 2.57115 3.06418 0
    endloop
  endfacet
  facet normal -0.130532 -0.991444 0
    outer loop
      vertex 0.348622 3.98478 0
      vertex 0.694592 3.93923 2
      vertex 0.348622 3.98478 2
    endloop
  endfacet
  facet normal -0.130532 -0.991444 -0
    outer loop
      vertex 0.694592 3.93923 2
      vertex 0.348622 3.98478 0
      vertex 0.694592 3.93923 0
    endloop
  endfacet
  facet normal 0.923878 0.382688 0
    outer loop
      vertex -3.62523 -1.69047 2
      vertex -3.75877 -1.36808 0
      vertex -3.75877 -1.36808 2
    endloop
  endfacet
  facet normal 0.923878 0.382688 0
    outer loop
      vertex -3.75877 -1.36808 0
      vertex -3.62523 -1.69047 2
      vertex -3.62523 -1.69047 0
    endloop
  endfacet
  facet normal -0.79336 0.608753 0
    outer loop
      vertex 3.06418 -2.57115 0
      vertex 3.27661 -2.2943 2
      vertex 3.27661 -2.2943 0
    endloop
  endfacet
  facet normal -0.79336 0.608753 0
    outer loop
      vertex 3.27661 -2.2943 2
      vertex 3.06418 -2.57115 0
      vertex 3.06418 -2.57115 2
    endloop
  endfacet
  facet normal 0.953718 0.300702 0
    outer loop
      vertex -3.75877 -1.36808 2
      vertex -3.8637 -1.03528 0
      vertex -3.8637 -1.03528 2
    endloop
  endfacet
  facet normal 0.953718 0.300702 0
    outer loop
      vertex -3.8637 -1.03528 0
      vertex -3.75877 -1.36808 2
      vertex -3.75877 -1.36808 0
    endloop
  endfacet
  facet normal -0.976295 0.216443 0
    outer loop
      vertex 3.8637 -1.03528 0
      vertex 3.93923 -0.694592 2
      vertex 3.93923 -0.694592 0
    endloop
  endfacet
  facet normal -0.976295 0.216443 0
    outer loop
      vertex 3.93923 -0.694592 2
      vertex 3.8637 -1.03528 0
      vertex 3.8637 -1.03528 2
    endloop
  endfacet
  facet normal 0.461746 0.887012 -0
    outer loop
      vertex -1.69047 -3.62523 0
      vertex -2 -3.4641 2
      vertex -1.69047 -3.62523 2
    endloop
  endfacet
  facet normal 0.461746 0.887012 0
    outer loop
      vertex -2 -3.4641 2
      vertex -1.69047 -3.62523 0
      vertex -2 -3.4641 0
    endloop
  endfacet
  facet normal 0.79336 0.608753 0
    outer loop
      vertex -3.06418 -2.57115 2
      vertex -3.27661 -2.2943 0
      vertex -3.27661 -2.2943 2
    endloop
  endfacet
  facet normal 0.79336 0.608753 0
    outer loop
      vertex -3.27661 -2.2943 0
      vertex -3.06418 -2.57115 2
      vertex -3.06418 -2.57115 0
    endloop
  endfacet
  facet normal -0.461746 -0.887012 0
    outer loop
      vertex 1.69047 3.62523 0
      vertex 2 3.4641 2
      vertex 1.69047 3.62523 2
    endloop
  endfacet
  facet normal -0.461746 -0.887012 -0
    outer loop
      vertex 2 3.4641 2
      vertex 1.69047 3.62523 0
      vertex 2 3.4641 0
    endloop
  endfacet
  facet normal -0.0436161 -0.999048 0
    outer loop
      vertex 0 4 0
      vertex 0.348622 3.98478 2
      vertex 0 4 2
    endloop
  endfacet
  facet normal -0.0436161 -0.999048 -0
    outer loop
      vertex 0.348622 3.98478 2
      vertex 0 4 0
      vertex 0.348622 3.98478 0
    endloop
  endfacet
  facet normal 0.887012 0.461746 0
    outer loop
      vertex -3.4641 -2 2
      vertex -3.62523 -1.69047 0
      vertex -3.62523 -1.69047 2
    endloop
  endfacet
  facet normal 0.887012 0.461746 0
    outer loop
      vertex -3.62523 -1.69047 0
      vertex -3.4641 -2 2
      vertex -3.4641 -2 0
    endloop
  endfacet
  facet normal -0.737283 -0.675584 0
    outer loop
      vertex 3.06418 2.57115 0
      vertex 2.82843 2.82843 2
      vertex 2.82843 2.82843 0
    endloop
  endfacet
  facet normal -0.737283 -0.675584 0
    outer loop
      vertex 2.82843 2.82843 2
      vertex 3.06418 2.57115 0
      vertex 3.06418 2.57115 2
    endloop
  endfacet
  facet normal -0.5373 -0.843391 0
    outer loop
      vertex 2 3.4641 0
      vertex 2.2943 3.27661 2
      vertex 2 3.4641 2
    endloop
  endfacet
  facet normal -0.5373 -0.843391 -0
    outer loop
      vertex 2.2943 3.27661 2
      vertex 2 3.4641 0
      vertex 2.2943 3.27661 0
    endloop
  endfacet
  facet normal 0.216443 -0.976295 0
    outer loop
      vertex -1.03528 3.8637 0
      vertex -0.694592 3.93923 2
      vertex -1.03528 3.8637 2
    endloop
  endfacet
  facet normal 0.216443 -0.976295 0
    outer loop
      vertex -0.694592 3.93923 2
      vertex -1.03528 3.8637 0
      vertex -0.694592 3.93923 0
    endloop
  endfacet
  facet normal 0.608753 -0.79336 0
    outer loop
      vertex -2.57115 3.06418 0
      vertex -2.2943 3.27661 2
      vertex -2.57115 3.06418 2
    endloop
  endfacet
  facet normal 0.608753 -0.79336 0
    outer loop
      vertex -2.2943 3.27661 2
      vertex -2.57115 3.06418 0
      vertex -2.2943 3.27661 0
    endloop
  endfacet
  facet normal -0.953718 -0.300702 0
    outer loop
      vertex 3.8637 1.03528 0
      vertex 3.75877 1.36808 2
      vertex 3.75877 1.36808 0
    endloop
  endfacet
  facet normal -0.953718 -0.300702 0
    outer loop
      vertex 3.75877 1.36808 2
      vertex 3.8637 1.03528 0
      vertex 3.8637 1.03528 2
    endloop
  endfacet
  facet normal 0.608753 0.79336 -0
    outer loop
      vertex -2.2943 -3.27661 0
      vertex -2.57115 -3.06418 2
      vertex -2.2943 -3.27661 2
    endloop
  endfacet
  facet normal 0.608753 0.79336 0
    outer loop
      vertex -2.57115 -3.06418 2
      vertex -2.2943 -3.27661 0
      vertex -2.57115 -3.06418 0
    endloop
  endfacet
  facet normal -0.923878 0.382688 0
    outer loop
      vertex 3.62523 -1.69047 0
      vertex 3.75877 -1.36808 2
      vertex 3.75877 -1.36808 0
    endloop
  endfacet
  facet normal -0.923878 0.382688 0
    outer loop
      vertex 3.75877 -1.36808 2
      vertex 3.62523 -1.69047 0
      vertex 3.62523 -1.69047 2
    endloop
  endfacet
  facet normal -0.382688 -0.923878 0
    outer loop
      vertex 1.36808 3.75877 0
      vertex 1.69047 3.62523 2
      vertex 1.36808 3.75877 2
    endloop
  endfacet
  facet normal -0.382688 -0.923878 -0
    outer loop
      vertex 1.69047 3.62523 2
      vertex 1.36808 3.75877 0
      vertex 1.69047 3.62523 0
    endloop
  endfacet
  facet normal -0.216443 -0.976295 0
    outer loop
      vertex 0.694592 3.93923 0
      vertex 1.03528 3.8637 2
      vertex 0.694592 3.93923 2
    endloop
  endfacet
  facet normal -0.216443 -0.976295 -0
    outer loop
      vertex 1.03528 3.8637 2
      vertex 0.694592 3.93923 0
      vertex 1.03528 3.8637 0
    endloop
  endfacet
  facet normal 0.991444 -0.130532 0
    outer loop
      vertex -3.98478 0.348622 2
      vertex -3.93923 0.694592 0
      vertex -3.93923 0.694592 2
    endloop
  endfacet
  facet normal 0.991444 -0.130532 0
    outer loop
      vertex -3.93923 0.694592 0
      vertex -3.98478 0.348622 2
      vertex -3.98478 0.348622 0
    endloop
  endfacet
  facet normal 0.923878 -0.382688 0
    outer loop
      vertex -3.75877 1.36808 2
      vertex -3.62523 1.69047 0
      vertex -3.62523 1.69047 2
    endloop
  endfacet
  facet normal 0.923878 -0.382688 0
    outer loop
      vertex -3.62523 1.69047 0
      vertex -3.75877 1.36808 2
      vertex -3.75877 1.36808 0
    endloop
  endfacet
  facet normal 0.5373 0.843391 -0
    outer loop
      vertex -2 -3.4641 0
      vertex -2.2943 -3.27661 2
      vertex -2 -3.4641 2
    endloop
  endfacet
  facet normal 0.5373 0.843391 0
    outer loop
      vertex -2.2943 -3.27661 2
      vertex -2 -3.4641 0
      vertex -2.2943 -3.27661 0
    endloop
  endfacet
  facet normal -0.300702 0.953718 0
    outer loop
      vertex 1.36808 -3.75877 0
      vertex 1.03528 -3.8637 2
      vertex 1.36808 -3.75877 2
    endloop
  endfacet
  facet normal -0.300702 0.953718 0
    outer loop
      vertex 1.03528 -3.8637 2
      vertex 1.36808 -3.75877 0
      vertex 1.03528 -3.8637 0
    endloop
  endfacet
  facet normal 0.737283 -0.675584 0
    outer loop
      vertex -3.06418 2.57115 2
      vertex -2.82843 2.82843 0
      vertex -2.82843 2.82843 2
    endloop
  endfacet
  facet normal 0.737283 -0.675584 0
    outer loop
      vertex -2.82843 2.82843 0
      vertex -3.06418 2.57115 2
      vertex -3.06418 2.57115 0
    endloop
  endfacet
  facet normal -0.843391 -0.5373 0
    outer loop
      vertex 3.4641 2 0
      vertex 3.27661 2.2943 2
      vertex 3.27661 2.2943 0
    endloop
  endfacet
  facet normal -0.843391 -0.5373 0
    outer loop
      vertex 3.27661 2.2943 2
      vertex 3.4641 2 0
      vertex 3.4641 2 2
    endloop
  endfacet
  facet normal -0.461746 0.887012 0
    outer loop
      vertex 2 -3.4641 0
      vertex 1.69047 -3.62523 2
      vertex 2 -3.4641 2
    endloop
  endfacet
  facet normal -0.461746 0.887012 0
    outer loop
      vertex 1.69047 -3.62523 2
      vertex 2 -3.4641 0
      vertex 1.69047 -3.62523 0
    endloop
  endfacet
  facet normal 0.976295 -0.216443 0
    outer loop
      vertex -3.93923 0.694592 2
      vertex -3.8637 1.03528 0
      vertex -3.8637 1.03528 2
    endloop
  endfacet
  facet normal 0.976295 -0.216443 0
    outer loop
      vertex -3.8637 1.03528 0
      vertex -3.93923 0.694592 2
      vertex -3.93923 0.694592 0
    endloop
  endfacet
  facet normal -0.79336 -0.608753 0
    outer loop
      vertex 3.27661 2.2943 0
      vertex 3.06418 2.57115 2
      vertex 3.06418 2.57115 0
    endloop
  endfacet
  facet normal -0.79336 -0.608753 0
    outer loop
      vertex 3.06418 2.57115 2
      vertex 3.27661 2.2943 0
      vertex 3.27661 2.2943 2
    endloop
  endfacet
  facet normal -0.0436161 0.999048 0
    outer loop
      vertex 0.348622 -3.98478 0
      vertex 0 -4 2
      vertex 0.348622 -3.98478 2
    endloop
  endfacet
  facet normal -0.0436161 0.999048 0
    outer loop
      vertex 0 -4 2
      vertex 0.348622 -3.98478 0
      vertex 0 -4 0
    endloop
  endfacet
  facet normal -0.953718 0.300702 0
    outer loop
      vertex 3.75877 -1.36808 0
      vertex 3.8637 -1.03528 2
      vertex 3.8637 -1.03528 0
    endloop
  endfacet
  facet normal -0.953718 0.300702 0
    outer loop
      vertex 3.8637 -1.03528 2
      vertex 3.75877 -1.36808 0
      vertex 3.75877 -1.36808 2
    endloop
  endfacet
  facet normal -0.843391 0.5373 0
    outer loop
      vertex 3.27661 -2.2943 0
      vertex 3.4641 -2 2
      vertex 3.4641 -2 0
    endloop
  endfacet
  facet normal -0.843391 0.5373 0
    outer loop
      vertex 3.4641 -2 2
      vertex 3.27661 -2.2943 0
      vertex 3.27661 -2.2943 2
    endloop
  endfacet
  facet normal 0.675584 0.737283 -0
    outer loop
      vertex -2.57115 -3.06418 0
      vertex -2.82843 -2.82843 2
      vertex -2.57115 -3.06418 2
    endloop
  endfacet
  facet normal 0.675584 0.737283 0
    outer loop
      vertex -2.82843 -2.82843 2
      vertex -2.57115 -3.06418 0
      vertex -2.82843 -2.82843 0
    endloop
  endfacet
  facet normal 0.130532 -0.991444 0
    outer loop
      vertex -0.694592 3.93923 0
      vertex -0.348622 3.98478 2
      vertex -0.694592 3.93923 2
    endloop
  endfacet
  facet normal 0.130532 -0.991444 0
    outer loop
      vertex -0.348622 3.98478 2
      vertex -0.694592 3.93923 0
      vertex -0.348622 3.98478 0
    endloop
  endfacet
  facet normal 0.5373 -0.843391 0
    outer loop
      vertex -2.2943 3.27661 0
      vertex -2 3.4641 2
      vertex -2.2943 3.27661 2
    endloop
  endfacet
  facet normal 0.5373 -0.843391 0
    outer loop
      vertex -2 3.4641 2
      vertex -2.2943 3.27661 0
      vertex -2 3.4641 0
    endloop
  endfacet
  facet normal 0.976295 0.216443 0
    outer loop
      vertex -3.8637 -1.03528 2
      vertex -3.93923 -0.694592 0
      vertex -3.93923 -0.694592 2
    endloop
  endfacet
  facet normal 0.976295 0.216443 0
    outer loop
      vertex -3.93923 -0.694592 0
      vertex -3.8637 -1.03528 2
      vertex -3.8637 -1.03528 0
    endloop
  endfacet
  facet normal -0.923878 -0.382688 0
    outer loop
      vertex 3.75877 1.36808 0
      vertex 3.62523 1.69047 2
      vertex 3.62523 1.69047 0
    endloop
  endfacet
  facet normal -0.923878 -0.382688 0
    outer loop
      vertex 3.62523 1.69047 2
      vertex 3.75877 1.36808 0
      vertex 3.75877 1.36808 2
    endloop
  endfacet
  facet normal 0.461746 -0.887012 0
    outer loop
      vertex -2 3.4641 0
      vertex -1.69047 3.62523 2
      vertex -2 3.4641 2
    endloop
  endfacet
  facet normal 0.461746 -0.887012 0
    outer loop
      vertex -1.69047 3.62523 2
      vertex -2 3.4641 0
      vertex -1.69047 3.62523 0
    endloop
  endfacet
  facet normal -0.887012 -0.461746 0
    outer loop
      vertex 3.62523 1.69047 0
      vertex 3.4641 2 2
      vertex 3.4641 2 0
    endloop
  endfacet
  facet normal -0.887012 -0.461746 0
    outer loop
      vertex 3.4641 2 2
      vertex 3.62523 1.69047 0
      vertex 3.62523 1.69047 2
    endloop
  endfacet
  facet normal -0.999048 0.0436161 0
    outer loop
      vertex 3.98478 -0.348622 0
      vertex 4 0 2
      vertex 4 0 0
    endloop
  endfacet
  facet normal -0.999048 0.0436161 0
    outer loop
      vertex 4 0 2
      vertex 3.98478 -0.348622 0
      vertex 3.98478 -0.348622 2
    endloop
  endfacet
  facet normal -0.991444 0.130532 0
    outer loop
      vertex 3.93923 -0.694592 0
      vertex 3.98478 -0.348622 2
      vertex 3.98478 -0.348622 0
    endloop
  endfacet
  facet normal -0.991444 0.130532 0
    outer loop
      vertex 3.98478 -0.348622 2
      vertex 3.93923 -0.694592 0
      vertex 3.93923 -0.694592 2
    endloop
  endfacet
  facet normal 0.675584 -0.737283 0
    outer loop
      vertex -2.82843 2.82843 0
      vertex -2.57115 3.06418 2
      vertex -2.82843 2.82843 2
    endloop
  endfacet
  facet normal 0.675584 -0.737283 0
    outer loop
      vertex -2.57115 3.06418 2
      vertex -2.82843 2.82843 0
      vertex -2.57115 3.06418 0
    endloop
  endfacet
  facet normal 0.0436161 0.999048 -0
    outer loop
      vertex 0 -4 0
      vertex -0.348622 -3.98478 2
      vertex 0 -4 2
    endloop
  endfacet
  facet normal 0.0436161 0.999048 0
    outer loop
      vertex -0.348622 -3.98478 2
      vertex 0 -4 0
      vertex -0.348622 -3.98478 0
    endloop
  endfacet
  facet normal -0.5373 0.843391 0
    outer loop
      vertex 2.2943 -3.27661 0
      vertex 2 -3.4641 2
      vertex 2.2943 -3.27661 2
    endloop
  endfacet
  facet normal -0.5373 0.843391 0
    outer loop
      vertex 2 -3.4641 2
      vertex 2.2943 -3.27661 0
      vertex 2 -3.4641 0
    endloop
  endfacet
  facet normal 0.382688 -0.923878 0
    outer loop
      vertex -1.69047 3.62523 0
      vertex -1.36808 3.75877 2
      vertex -1.69047 3.62523 2
    endloop
  endfacet
  facet normal 0.382688 -0.923878 0
    outer loop
      vertex -1.36808 3.75877 2
      vertex -1.69047 3.62523 0
      vertex -1.36808 3.75877 0
    endloop
  endfacet
  facet normal 0.999048 0.0436161 0
    outer loop
      vertex -3.98478 -0.348622 2
      vertex -4 0 0
      vertex -4 0 2
    endloop
  endfacet
  facet normal 0.999048 0.0436161 0
    outer loop
      vertex -4 0 0
      vertex -3.98478 -0.348622 2
      vertex -3.98478 -0.348622 0
    endloop
  endfacet
  facet normal 0.0436161 -0.999048 0
    outer loop
      vertex -0.348622 3.98478 0
      vertex 0 4 2
      vertex -0.348622 3.98478 2
    endloop
  endfacet
  facet normal 0.0436161 -0.999048 0
    outer loop
      vertex 0 4 2
      vertex -0.348622 3.98478 0
      vertex 0 4 0
    endloop
  endfacet
  facet normal 0.79336 -0.608753 0
    outer loop
      vertex -3.27661 2.2943 2
      vertex -3.06418 2.57115 0
      vertex -3.06418 2.57115 2
    endloop
  endfacet
  facet normal 0.79336 -0.608753 0
    outer loop
      vertex -3.06418 2.57115 0
      vertex -3.27661 2.2943 2
      vertex -3.27661 2.2943 0
    endloop
  endfacet
  facet normal 0.737283 0.675584 0
    outer loop
      vertex -2.82843 -2.82843 2
      vertex -3.06418 -2.57115 0
      vertex -3.06418 -2.57115 2
    endloop
  endfacet
  facet normal 0.737283 0.675584 0
    outer loop
      vertex -3.06418 -2.57115 0
      vertex -2.82843 -2.82843 2
      vertex -2.82843 -2.82843 0
    endloop
  endfacet
  facet normal 0.991444 0.130532 0
    outer loop
      vertex -3.93923 -0.694592 2
      vertex -3.98478 -0.348622 0
      vertex -3.98478 -0.348622 2
    endloop
  endfacet
  facet normal 0.991444 0.130532 0
    outer loop
      vertex -3.98478 -0.348622 0
      vertex -3.93923 -0.694592 2
      vertex -3.93923 -0.694592 0
    endloop
  endfacet
  facet normal -0.216443 0.976295 0
    outer loop
      vertex 1.03528 -3.8637 0
      vertex 0.694592 -3.93923 2
      vertex 1.03528 -3.8637 2
    endloop
  endfacet
  facet normal -0.216443 0.976295 0
    outer loop
      vertex 0.694592 -3.93923 2
      vertex 1.03528 -3.8637 0
      vertex 0.694592 -3.93923 0
    endloop
  endfacet
  facet normal -0.887012 0.461746 0
    outer loop
      vertex 3.4641 -2 0
      vertex 3.62523 -1.69047 2
      vertex 3.62523 -1.69047 0
    endloop
  endfacet
  facet normal -0.887012 0.461746 0
    outer loop
      vertex 3.62523 -1.69047 2
      vertex 3.4641 -2 0
      vertex 3.4641 -2 2
    endloop
  endfacet
  facet normal -0.608753 0.79336 0
    outer loop
      vertex 2.57115 -3.06418 0
      vertex 2.2943 -3.27661 2
      vertex 2.57115 -3.06418 2
    endloop
  endfacet
  facet normal -0.608753 0.79336 0
    outer loop
      vertex 2.2943 -3.27661 2
      vertex 2.57115 -3.06418 0
      vertex 2.2943 -3.27661 0
    endloop
  endfacet
  facet normal -0.675584 -0.737283 0
    outer loop
      vertex 2.57115 3.06418 0
      vertex 2.82843 2.82843 2
      vertex 2.57115 3.06418 2
    endloop
  endfacet
  facet normal -0.675584 -0.737283 -0
    outer loop
      vertex 2.82843 2.82843 2
      vertex 2.57115 3.06418 0
      vertex 2.82843 2.82843 0
    endloop
  endfacet
  facet normal 0.999048 -0.0436161 0
    outer loop
      vertex -4 0 2
      vertex -3.98478 0.348622 0
      vertex -3.98478 0.348622 2
    endloop
  endfacet
  facet normal 0.999048 -0.0436161 0
    outer loop
      vertex -3.98478 0.348622 0
      vertex -4 0 2
      vertex -4 0 0
    endloop
  endfacet
  facet normal 0.382688 0.923878 -0
    outer loop
      vertex -1.36808 -3.75877 0
      vertex -1.69047 -3.62523 2
      vertex -1.36808 -3.75877 2
    endloop
  endfacet
  facet normal 0.382688 0.923878 0
    outer loop
      vertex -1.69047 -3.62523 2
      vertex -1.36808 -3.75877 0
      vertex -1.69047 -3.62523 0
    endloop
  endfacet
  facet normal -0.737283 0.675584 0
    outer loop
      vertex 2.82843 -2.82843 0
      vertex 3.06418 -2.57115 2
      vertex 3.06418 -2.57115 0
    endloop
  endfacet
  facet normal -0.737283 0.675584 0
    outer loop
      vertex 3.06418 -2.57115 2
      vertex 2.82843 -2.82843 0
      vertex 2.82843 -2.82843 2
    endloop
  endfacet
  facet normal 0.130532 0.991444 -0
    outer loop
      vertex -0.348622 -3.98478 0
      vertex -0.694592 -3.93923 2
      vertex -0.348622 -3.98478 2
    endloop
  endfacet
  facet normal 0.130532 0.991444 0
    outer loop
      vertex -0.694592 -3.93923 2
      vertex -0.348622 -3.98478 0
      vertex -0.694592 -3.93923 0
    endloop
  endfacet
  facet normal -0.675584 0.737283 0
    outer loop
      vertex 2.82843 -2.82843 0
      vertex 2.57115 -3.06418 2
      vertex 2.82843 -2.82843 2
    endloop
  endfacet
  facet normal -0.675584 0.737283 0
    outer loop
      vertex 2.57115 -3.06418 2
      vertex 2.82843 -2.82843 0
      vertex 2.57115 -3.06418 0
    endloop
  endfacet
  facet normal 0.216443 0.976295 -0
    outer loop
      vertex -0.694592 -3.93923 0
      vertex -1.03528 -3.8637 2
      vertex -0.694592 -3.93923 2
    endloop
  endfacet
  facet normal 0.216443 0.976295 0
    outer loop
      vertex -1.03528 -3.8637 2
      vertex -0.694592 -3.93923 0
      vertex -1.03528 -3.8637 0
    endloop
  endfacet
  facet normal 0.300702 0.953718 -0
    outer loop
      vertex -1.03528 -3.8637 0
      vertex -1.36808 -3.75877 2
      vertex -1.03528 -3.8637 2
    endloop
  endfacet
  facet normal 0.300702 0.953718 0
    outer loop
      vertex -1.36808 -3.75877 2
      vertex -1.03528 -3.8637 0
      vertex -1.36808 -3.75877 0
    endloop
  endfacet
  facet normal 0.887012 -0.461746 0
    outer loop
      vertex -3.62523 1.69047 2
      vertex -3.4641 2 0
      vertex -3.4641 2 2
    endloop
  endfacet
  facet normal 0.887012 -0.461746 0
    outer loop
      vertex -3.4641 2 0
      vertex -3.62523 1.69047 2
      vertex -3.62523 1.69047 0
    endloop
  endfacet
endsolid OpenSCAD_Model
