solid OpenSCAD_Model
  facet normal -0.707107 -0.707107 0
    outer loop
      vertex -3.21394 -3.83022 0
      vertex -3.83022 -3.21394 2
      vertex -3.83022 -3.21394 0
    endloop
  endfacet
  facet normal -0.707107 -0.707107 0
    outer loop
      vertex -3.83022 -3.21394 2
      vertex -3.21394 -3.83022 0
      vertex -3.21394 -3.83022 2
    endloop
  endfacet
  facet normal -0.906311 0.422612 0
    outer loop
      vertex -4.69846 1.7101 0
      vertex -4.33013 2.5 2
      vertex -4.33013 2.5 0
    endloop
  endfacet
  facet normal -0.906311 0.422612 0
    outer loop
      vertex -4.33013 2.5 2
      vertex -4.69846 1.7101 0
      vertex -4.69846 1.7101 2
    endloop
  endfacet
  facet normal 0.965925 0.258824 0
    outer loop
      vertex 4.92404 0.86824 2
      vertex 4.69846 1.7101 0
      vertex 4.69846 1.7101 2
    endloop
  endfacet
  facet normal 0.965925 0.258824 0
    outer loop
      vertex 4.69846 1.7101 0
      vertex 4.92404 0.86824 2
      vertex 4.92404 0.86824 0
    endloop
  endfacet
  facet normal 0.996195 0.0871544 0
    outer loop
      vertex 5 0 2
      vertex 4.92404 0.86824 0
      vertex 4.92404 0.86824 2
    endloop
  endfacet
  facet normal 0.996195 0.0871544 0
    outer loop
      vertex 4.92404 0.86824 0
      vertex 5 0 2
      vertex 5 0 0
    endloop
  endfacet
  facet normal 0.906311 0.422612 0
    outer loop
      vertex 4.69846 1.7101 2
      vertex 4.33013 2.5 0
      vertex 4.33013 2.5 2
    endloop
  endfacet
  facet normal 0.906311 0.422612 0
    outer loop
      vertex 4.33013 2.5 0
      vertex 4.69846 1.7101 2
      vertex 4.69846 1.7101 0
    endloop
  endfacet
  facet normal 0.573579 -0.81915 0
    outer loop
      vertex 2.5 -4.33013 0
      vertex 3.21394 -3.83022 2
      vertex 2.5 -4.33013 2
    endloop
  endfacet
  facet normal 0.573579 -0.81915 0
    outer loop
      vertex 3.21394 -3.83022 2
      vertex 2.5 -4.33013 0
      vertex 3.21394 -3.83022 0
    endloop
  endfacet
  facet normal -0.0871544 -0.996195 0
    outer loop
      vertex -0.86824 -4.92404 0
      vertex 0 -5 2
      vertex -0.86824 -4.92404 2
    endloop
  endfacet
  facet normal -0.0871544 -0.996195 -0
    outer loop
      vertex 0 -5 2
      vertex -0.86824 -4.92404 0
      vertex 0 -5 0
    endloop
  endfacet
  facet normal 0 0 1
    outer loop
      vertex 4.92404 0.86824 2
      vertex 2.46202 0.43412 2
      vertex 2.5 0 2
    endloop
  endfacet
  facet normal 0 0 1
    outer loop
      vertex 3.21394 3.83022 2
      vertex 2.34923 0.85505 2
      vertex 2.46202 0.43412 2
    endloop
  endfacet
  facet normal 0 0 1
    outer loop
      vertex 3.21394 3.83022 2
      vertex 2.16506 1.25 2
      vertex 2.34923 0.85505 2
    endloop
  endfacet
  facet normal 0 0 1
    outer loop
      vertex 3.21394 3.83022 2
      vertex 1.91511 1.60697 2
      vertex 2.16506 1.25 2
    endloop
  endfacet
  facet normal 0 0 1
    outer loop
      vertex 1.25 2.16506 2
      vertex 2.5 4.33013 2
      vertex 1.7101 4.69846 2
    endloop
  endfacet
  facet normal 0 0 1
    outer loop
      vertex 3.21394 3.83022 2
      vertex 1.60697 1.91511 2
      vertex 1.91511 1.60697 2
    endloop
  endfacet
  facet normal 0 0 1
    outer loop
      vertex 2.5 4.33013 2
      vertex 1.25 2.16506 2
      vertex 1.60697 1.91511 2
    endloop
  endfacet
  facet normal 0 0 1
    outer loop
      vertex 0.85505 2.34923 2
      vertex 1.7101 4.69846 2
      vertex 0.86824 4.92404 2
    endloop
  endfacet
  facet normal 0 0 1
    outer loop
      vertex 1.7101 4.69846 2
      vertex 0.85505 2.34923 2
      vertex 1.25 2.16506 2
    endloop
  endfacet
  facet normal 0 0 1
    outer loop
      vertex 0.86824 4.92404 2
      vertex 0.43412 2.46202 2
      vertex 0.85505 2.34923 2
    endloop
  endfacet
  facet normal 0 0 1
    outer loop
      vertex 0 5 2
      vertex 0.43412 2.46202 2
      vertex 0.86824 4.92404 2
    endloop
  endfacet
  facet normal 0 0 1
    outer loop
      vertex 0 5 2
      vertex 0 2.5 2
      vertex 0.43412 2.46202 2
    endloop
  endfacet
  facet normal 0 0 1
    outer loop
      vertex 0 5 2
      vertex -0.43412 2.46202 2
      vertex 0 2.5 2
    endloop
  endfacet
  facet normal -0 0 1
    outer loop
      vertex -0.86824 4.92404 2
      vertex -0.43412 2.46202 2
      vertex 0 5 2
    endloop
  endfacet
  facet normal 0 0 1
    outer loop
      vertex -0.43412 2.46202 2
      vertex -0.86824 4.92404 2
      vertex -0.85505 2.34923 2
    endloop
  endfacet
  facet normal -0 0 1
    outer loop
      vertex -1.7101 4.69846 2
      vertex -0.85505 2.34923 2
      vertex -0.86824 4.92404 2
    endloop
  endfacet
  facet normal 0 0 1
    outer loop
      vertex -0.85505 2.34923 2
      vertex -1.7101 4.69846 2
      vertex -1.25 2.16506 2
    endloop
  endfacet
  facet normal -0 0 1
    outer loop
      vertex -2.5 4.33013 2
      vertex -1.25 2.16506 2
      vertex -1.7101 4.69846 2
    endloop
  endfacet
  facet normal 0 0 1
    outer loop
      vertex -1.25 2.16506 2
      vertex -2.5 4.33013 2
      vertex -1.60697 1.91511 2
    endloop
  endfacet
  facet normal -0 0 1
    outer loop
      vertex -3.21394 3.83022 2
      vertex -1.60697 1.91511 2
      vertex -2.5 4.33013 2
    endloop
  endfacet
  facet normal 0 0 1
    outer loop
      vertex -1.60697 1.91511 2
      vertex -3.21394 3.83022 2
      vertex -1.91511 1.60697 2
    endloop
  endfacet
  facet normal -0 0 1
    outer loop
      vertex -3.83022 3.21394 2
      vertex -1.91511 1.60697 2
      vertex -3.21394 3.83022 2
    endloop
  endfacet
  facet normal 0 0 1
    outer loop
      vertex -1.91511 1.60697 2
      vertex -3.83022 3.21394 2
      vertex -2.16506 1.25 2
    endloop
  endfacet
  facet normal -0 0 1
    outer loop
      vertex -4.33013 2.5 2
      vertex -2.16506 1.25 2
      vertex -3.83022 3.21394 2
    endloop
  endfacet
  facet normal 0 0 1
    outer loop
      vertex -2.16506 1.25 2
      vertex -4.33013 2.5 2
      vertex -2.34923 0.85505 2
    endloop
  endfacet
  facet normal -0 0 1
    outer loop
      vertex -4.69846 1.7101 2
      vertex -2.34923 0.85505 2
      vertex -4.33013 2.5 2
    endloop
  endfacet
  facet normal 0 0 1
    outer loop
      vertex -2.5 0 2
      vertex -3.21394 -3.83022 2
      vertex -2.5 -4.33013 2
    endloop
  endfacet
  facet normal 0 0 1
    outer loop
      vertex -2.34923 0.85505 2
      vertex -4.69846 1.7101 2
      vertex -2.46202 0.43412 2
    endloop
  endfacet
  facet normal 0 0 1
    outer loop
      vertex -2.5 0 2
      vertex -3.83022 -3.21394 2
      vertex -3.21394 -3.83022 2
    endloop
  endfacet
  facet normal -0 0 1
    outer loop
      vertex -4.92404 0.86824 2
      vertex -2.46202 0.43412 2
      vertex -4.69846 1.7101 2
    endloop
  endfacet
  facet normal 0 0 1
    outer loop
      vertex -2.5 0 2
      vertex -4.33013 -2.5 2
      vertex -3.83022 -3.21394 2
    endloop
  endfacet
  facet normal 0 0 1
    outer loop
      vertex -2.46202 0.43412 2
      vertex -4.92404 0.86824 2
      vertex -2.5 0 2
    endloop
  endfacet
  facet normal 0 0 1
    outer loop
      vertex -2.5 0 2
      vertex -4.69846 -1.7101 2
      vertex -4.33013 -2.5 2
    endloop
  endfacet
  facet normal 0 0 1
    outer loop
      vertex -5 0 2
      vertex -2.5 0 2
      vertex -4.92404 0.86824 2
    endloop
  endfacet
  facet normal 0 0 1
    outer loop
      vertex -2.5 0 2
      vertex -4.92404 -0.86824 2
      vertex -4.69846 -1.7101 2
    endloop
  endfacet
  facet normal 0 0 1
    outer loop
      vertex -2.5 0 2
      vertex -5 0 2
      vertex -4.92404 -0.86824 2
    endloop
  endfacet
  facet normal 0 0 1
    outer loop
      vertex 2.5 0 2
      vertex 5 0 2
      vertex 4.92404 0.86824 2
    endloop
  endfacet
  facet normal 0 0 1
    outer loop
      vertex 2.46202 0.43412 2
      vertex 4.92404 0.86824 2
      vertex 4.69846 1.7101 2
    endloop
  endfacet
  facet normal 0 0 1
    outer loop
      vertex 5 0 2
      vertex 2.5 0 2
      vertex 4.92404 -0.86824 2
    endloop
  endfacet
  facet normal 0 0 1
    outer loop
      vertex 2.46202 0.43412 2
      vertex 4.69846 1.7101 2
      vertex 4.33013 2.5 2
    endloop
  endfacet
  facet normal -0 0 1
    outer loop
      vertex 2.46202 -0.43412 2
      vertex 4.92404 -0.86824 2
      vertex 2.5 0 2
    endloop
  endfacet
  facet normal 0 0 1
    outer loop
      vertex 2.46202 0.43412 2
      vertex 4.33013 2.5 2
      vertex 3.83022 3.21394 2
    endloop
  endfacet
  facet normal 0 0 1
    outer loop
      vertex 4.92404 -0.86824 2
      vertex 2.46202 -0.43412 2
      vertex 4.69846 -1.7101 2
    endloop
  endfacet
  facet normal 0 0 1
    outer loop
      vertex 2.46202 0.43412 2
      vertex 3.83022 3.21394 2
      vertex 3.21394 3.83022 2
    endloop
  endfacet
  facet normal -0 0 1
    outer loop
      vertex 2.34923 -0.85505 2
      vertex 4.69846 -1.7101 2
      vertex 2.46202 -0.43412 2
    endloop
  endfacet
  facet normal 0 0 1
    outer loop
      vertex 1.60697 1.91511 2
      vertex 3.21394 3.83022 2
      vertex 2.5 4.33013 2
    endloop
  endfacet
  facet normal 0 0 1
    outer loop
      vertex 4.69846 -1.7101 2
      vertex 2.34923 -0.85505 2
      vertex 4.33013 -2.5 2
    endloop
  endfacet
  facet normal -0 0 1
    outer loop
      vertex 2.16506 -1.25 2
      vertex 4.33013 -2.5 2
      vertex 2.34923 -0.85505 2
    endloop
  endfacet
  facet normal 0 0 1
    outer loop
      vertex 4.33013 -2.5 2
      vertex 2.16506 -1.25 2
      vertex 3.83022 -3.21394 2
    endloop
  endfacet
  facet normal -0 0 1
    outer loop
      vertex 1.91511 -1.60697 2
      vertex 3.83022 -3.21394 2
      vertex 2.16506 -1.25 2
    endloop
  endfacet
  facet normal 0 0 1
    outer loop
      vertex 3.83022 -3.21394 2
      vertex 1.91511 -1.60697 2
      vertex 3.21394 -3.83022 2
    endloop
  endfacet
  facet normal -0 0 1
    outer loop
      vertex 1.60697 -1.91511 2
      vertex 3.21394 -3.83022 2
      vertex 1.91511 -1.60697 2
    endloop
  endfacet
  facet normal 0 0 1
    outer loop
      vertex 3.21394 -3.83022 2
      vertex 1.60697 -1.91511 2
      vertex 2.5 -4.33013 2
    endloop
  endfacet
  facet normal -0 0 1
    outer loop
      vertex 1.25 -2.16506 2
      vertex 2.5 -4.33013 2
      vertex 1.60697 -1.91511 2
    endloop
  endfacet
  facet normal 0 0 1
    outer loop
      vertex 2.5 -4.33013 2
      vertex 1.25 -2.16506 2
      vertex 1.7101 -4.69846 2
    endloop
  endfacet
  facet normal -0 0 1
    outer loop
      vertex 0.85505 -2.34923 2
      vertex 1.7101 -4.69846 2
      vertex 1.25 -2.16506 2
    endloop
  endfacet
  facet normal 0 0 1
    outer loop
      vertex 1.7101 -4.69846 2
      vertex 0.85505 -2.34923 2
      vertex 0.86824 -4.92404 2
    endloop
  endfacet
  facet normal -0 0 1
    outer loop
      vertex 0.43412 -2.46202 2
      vertex 0.86824 -4.92404 2
      vertex 0.85505 -2.34923 2
    endloop
  endfacet
  facet normal -0 0 1
    outer loop
      vertex 0 -2.5 2
      vertex 0.86824 -4.92404 2
      vertex 0.43412 -2.46202 2
    endloop
  endfacet
  facet normal 0 0 1
    outer loop
      vertex 0 -2.5 2
      vertex 0 -5 2
      vertex 0.86824 -4.92404 2
    endloop
  endfacet
  facet normal 0 0 1
    outer loop
      vertex -0.43412 -2.46202 2
      vertex 0 -5 2
      vertex 0 -2.5 2
    endloop
  endfacet
  facet normal 0 0 1
    outer loop
      vertex -0.86824 -4.92404 2
      vertex -0.43412 -2.46202 2
      vertex -0.85505 -2.34923 2
    endloop
  endfacet
  facet normal 0 0 1
    outer loop
      vertex -0.43412 -2.46202 2
      vertex -0.86824 -4.92404 2
      vertex 0 -5 2
    endloop
  endfacet
  facet normal 0 0 1
    outer loop
      vertex -1.7101 -4.69846 2
      vertex -0.85505 -2.34923 2
      vertex -1.25 -2.16506 2
    endloop
  endfacet
  facet normal 0 0 1
    outer loop
      vertex -2.5 -4.33013 2
      vertex -1.25 -2.16506 2
      vertex -1.60697 -1.91511 2
    endloop
  endfacet
  facet normal 0 0 1
    outer loop
      vertex -0.85505 -2.34923 2
      vertex -1.7101 -4.69846 2
      vertex -0.86824 -4.92404 2
    endloop
  endfacet
  facet normal 0 0 1
    outer loop
      vertex -2.5 -4.33013 2
      vertex -1.60697 -1.91511 2
      vertex -1.91511 -1.60697 2
    endloop
  endfacet
  facet normal 0 0 1
    outer loop
      vertex -2.5 -4.33013 2
      vertex -1.91511 -1.60697 2
      vertex -2.16506 -1.25 2
    endloop
  endfacet
  facet normal 0 0 1
    outer loop
      vertex -2.5 -4.33013 2
      vertex -2.16506 -1.25 2
      vertex -2.34923 -0.85505 2
    endloop
  endfacet
  facet normal 0 0 1
    outer loop
      vertex -2.5 -4.33013 2
      vertex -2.34923 -0.85505 2
      vertex -2.46202 -0.43412 2
    endloop
  endfacet
  facet normal 0 0 1
    outer loop
      vertex -1.25 -2.16506 2
      vertex -2.5 -4.33013 2
      vertex -1.7101 -4.69846 2
    endloop
  endfacet
  facet normal 0 0 1
    outer loop
      vertex -2.5 -4.33013 2
      vertex -2.46202 -0.43412 2
      vertex -2.5 0 2
    endloop
  endfacet
  facet normal 0.422612 -0.906311 0
    outer loop
      vertex 1.7101 -4.69846 0
      vertex 2.5 -4.33013 2
      vertex 1.7101 -4.69846 2
    endloop
  endfacet
  facet normal 0.422612 -0.906311 0
    outer loop
      vertex 2.5 -4.33013 2
      vertex 1.7101 -4.69846 0
      vertex 2.5 -4.33013 0
    endloop
  endfacet
  facet normal -0.258824 0.965925 0
    outer loop
      vertex -0.86824 4.92404 0
      vertex -1.7101 4.69846 2
      vertex -0.86824 4.92404 2
    endloop
  endfacet
  facet normal -0.258824 0.965925 0
    outer loop
      vertex -1.7101 4.69846 2
      vertex -0.86824 4.92404 0
      vertex -1.7101 4.69846 0
    endloop
  endfacet
  facet normal -0.422612 0.906311 0
    outer loop
      vertex -1.7101 4.69846 0
      vertex -2.5 4.33013 2
      vertex -1.7101 4.69846 2
    endloop
  endfacet
  facet normal -0.422612 0.906311 0
    outer loop
      vertex -2.5 4.33013 2
      vertex -1.7101 4.69846 0
      vertex -2.5 4.33013 0
    endloop
  endfacet
  facet normal 0.0871544 -0.996195 0
    outer loop
      vertex 0 -5 0
      vertex 0.86824 -4.92404 2
      vertex 0 -5 2
    endloop
  endfacet
  facet normal 0.0871544 -0.996195 0
    outer loop
      vertex 0.86824 -4.92404 2
      vertex 0 -5 0
      vertex 0.86824 -4.92404 0
    endloop
  endfacet
  facet normal -0.965925 -0.258824 0
    outer loop
      vertex -4.69846 -1.7101 0
      vertex -4.92404 -0.86824 2
      vertex -4.92404 -0.86824 0
    endloop
  endfacet
  facet normal -0.965925 -0.258824 0
    outer loop
      vertex -4.92404 -0.86824 2
      vertex -4.69846 -1.7101 0
      vertex -4.69846 -1.7101 2
    endloop
  endfacet
  facet normal -0.573579 -0.81915 0
    outer loop
      vertex -3.21394 -3.83022 0
      vertex -2.5 -4.33013 2
      vertex -3.21394 -3.83022 2
    endloop
  endfacet
  facet normal -0.573579 -0.81915 -0
    outer loop
      vertex -2.5 -4.33013 2
      vertex -3.21394 -3.83022 0
      vertex -2.5 -4.33013 0
    endloop
  endfacet
  facet normal -0.81915 0.573579 0
    outer loop
      vertex -4.33013 2.5 0
      vertex -3.83022 3.21394 2
      vertex -3.83022 3.21394 0
    endloop
  endfacet
  facet normal -0.81915 0.573579 0
    outer loop
      vertex -3.83022 3.21394 2
      vertex -4.33013 2.5 0
      vertex -4.33013 2.5 2
    endloop
  endfacet
  facet normal 0.906311 -0.422612 0
    outer loop
      vertex 4.33013 -2.5 2
      vertex 4.69846 -1.7101 0
      vertex 4.69846 -1.7101 2
    endloop
  endfacet
  facet normal 0.906311 -0.422612 0
    outer loop
      vertex 4.69846 -1.7101 0
      vertex 4.33013 -2.5 2
      vertex 4.33013 -2.5 0
    endloop
  endfacet
  facet normal -0.81915 -0.573579 0
    outer loop
      vertex -3.83022 -3.21394 0
      vertex -4.33013 -2.5 2
      vertex -4.33013 -2.5 0
    endloop
  endfacet
  facet normal -0.81915 -0.573579 0
    outer loop
      vertex -4.33013 -2.5 2
      vertex -3.83022 -3.21394 0
      vertex -3.83022 -3.21394 2
    endloop
  endfacet
  facet normal -0.573579 0.81915 0
    outer loop
      vertex -2.5 4.33013 0
      vertex -3.21394 3.83022 2
      vertex -2.5 4.33013 2
    endloop
  endfacet
  facet normal -0.573579 0.81915 0
    outer loop
      vertex -3.21394 3.83022 2
      vertex -2.5 4.33013 0
      vertex -3.21394 3.83022 0
    endloop
  endfacet
  facet normal 0.81915 -0.573579 0
    outer loop
      vertex 3.83022 -3.21394 2
      vertex 4.33013 -2.5 0
      vertex 4.33013 -2.5 2
    endloop
  endfacet
  facet normal 0.81915 -0.573579 0
    outer loop
      vertex 4.33013 -2.5 0
      vertex 3.83022 -3.21394 2
      vertex 3.83022 -3.21394 0
    endloop
  endfacet
  facet normal 0.81915 0.573579 0
    outer loop
      vertex 4.33013 2.5 2
      vertex 3.83022 3.21394 0
      vertex 3.83022 3.21394 2
    endloop
  endfacet
  facet normal 0.81915 0.573579 0
    outer loop
      vertex 3.83022 3.21394 0
      vertex 4.33013 2.5 2
      vertex 4.33013 2.5 0
    endloop
  endfacet
  facet normal 0.965925 -0.258824 0
    outer loop
      vertex 4.69846 -1.7101 2
      vertex 4.92404 -0.86824 0
      vertex 4.92404 -0.86824 2
    endloop
  endfacet
  facet normal 0.965925 -0.258824 0
    outer loop
      vertex 4.92404 -0.86824 0
      vertex 4.69846 -1.7101 2
      vertex 4.69846 -1.7101 0
    endloop
  endfacet
  facet normal -0.996195 0.0871544 0
    outer loop
      vertex -5 0 0
      vertex -4.92404 0.86824 2
      vertex -4.92404 0.86824 0
    endloop
  endfacet
  facet normal -0.996195 0.0871544 0
    outer loop
      vertex -4.92404 0.86824 2
      vertex -5 0 0
      vertex -5 0 2
    endloop
  endfacet
  facet normal 0.422612 0.906311 -0
    outer loop
      vertex 2.5 4.33013 0
      vertex 1.7101 4.69846 2
      vertex 2.5 4.33013 2
    endloop
  endfacet
  facet normal 0.422612 0.906311 0
    outer loop
      vertex 1.7101 4.69846 2
      vertex 2.5 4.33013 0
      vertex 1.7101 4.69846 0
    endloop
  endfacet
  facet normal 0.707107 0.707107 0
    outer loop
      vertex 3.83022 3.21394 2
      vertex 3.21394 3.83022 0
      vertex 3.21394 3.83022 2
    endloop
  endfacet
  facet normal 0.707107 0.707107 0
    outer loop
      vertex 3.21394 3.83022 0
      vertex 3.83022 3.21394 2
      vertex 3.83022 3.21394 0
    endloop
  endfacet
  facet normal 0.258824 -0.965925 0
    outer loop
      vertex 0.86824 -4.92404 0
      vertex 1.7101 -4.69846 2
      vertex 0.86824 -4.92404 2
    endloop
  endfacet
  facet normal 0.258824 -0.965925 0
    outer loop
      vertex 1.7101 -4.69846 2
      vertex 0.86824 -4.92404 0
      vertex 1.7101 -4.69846 0
    endloop
  endfacet
  facet normal 0.996195 -0.0871544 0
    outer loop
      vertex 4.92404 -0.86824 2
      vertex 5 0 0
      vertex 5 0 2
    endloop
  endfacet
  facet normal 0.996195 -0.0871544 0
    outer loop
      vertex 5 0 0
      vertex 4.92404 -0.86824 2
      vertex 4.92404 -0.86824 0
    endloop
  endfacet
  facet normal 0 0 -1
    outer loop
      vertex 4.92404 -0.86824 0
      vertex 2.46202 -0.43412 0
      vertex 2.5 0 0
    endloop
  endfacet
  facet normal 0 0 -1
    outer loop
      vertex 3.21394 -3.83022 0
      vertex 2.34923 -0.85505 0
      vertex 2.46202 -0.43412 0
    endloop
  endfacet
  facet normal 0 0 -1
    outer loop
      vertex 3.21394 -3.83022 0
      vertex 2.16506 -1.25 0
      vertex 2.34923 -0.85505 0
    endloop
  endfacet
  facet normal 0 0 -1
    outer loop
      vertex 3.21394 -3.83022 0
      vertex 1.91511 -1.60697 0
      vertex 2.16506 -1.25 0
    endloop
  endfacet
  facet normal 0 0 -1
    outer loop
      vertex 1.25 -2.16506 0
      vertex 2.5 -4.33013 0
      vertex 1.7101 -4.69846 0
    endloop
  endfacet
  facet normal 0 0 -1
    outer loop
      vertex 3.21394 -3.83022 0
      vertex 1.60697 -1.91511 0
      vertex 1.91511 -1.60697 0
    endloop
  endfacet
  facet normal 0 0 -1
    outer loop
      vertex 2.5 -4.33013 0
      vertex 1.25 -2.16506 0
      vertex 1.60697 -1.91511 0
    endloop
  endfacet
  facet normal 0 0 -1
    outer loop
      vertex 0.85505 -2.34923 0
      vertex 1.7101 -4.69846 0
      vertex 0.86824 -4.92404 0
    endloop
  endfacet
  facet normal 0 0 -1
    outer loop
      vertex 1.7101 -4.69846 0
      vertex 0.85505 -2.34923 0
      vertex 1.25 -2.16506 0
    endloop
  endfacet
  facet normal 0 0 -1
    outer loop
      vertex 0.86824 -4.92404 0
      vertex 0.43412 -2.46202 0
      vertex 0.85505 -2.34923 0
    endloop
  endfacet
  facet normal 0 0 -1
    outer loop
      vertex 0 -5 0
      vertex 0.43412 -2.46202 0
      vertex 0.86824 -4.92404 0
    endloop
  endfacet
  facet normal 0 0 -1
    outer loop
      vertex 0 -5 0
      vertex 0 -2.5 0
      vertex 0.43412 -2.46202 0
    endloop
  endfacet
  facet normal 0 0 -1
    outer loop
      vertex 0 -5 0
      vertex -0.43412 -2.46202 0
      vertex 0 -2.5 0
    endloop
  endfacet
  facet normal 0 0 -1
    outer loop
      vertex -0.86824 -4.92404 0
      vertex -0.43412 -2.46202 0
      vertex 0 -5 0
    endloop
  endfacet
  facet normal -0 0 -1
    outer loop
      vertex -0.43412 -2.46202 0
      vertex -0.86824 -4.92404 0
      vertex -0.85505 -2.34923 0
    endloop
  endfacet
  facet normal 0 0 -1
    outer loop
      vertex -1.7101 -4.69846 0
      vertex -0.85505 -2.34923 0
      vertex -0.86824 -4.92404 0
    endloop
  endfacet
  facet normal -0 0 -1
    outer loop
      vertex -0.85505 -2.34923 0
      vertex -1.7101 -4.69846 0
      vertex -1.25 -2.16506 0
    endloop
  endfacet
  facet normal 0 0 -1
    outer loop
      vertex -2.5 -4.33013 0
      vertex -1.25 -2.16506 0
      vertex -1.7101 -4.69846 0
    endloop
  endfacet
  facet normal -0 0 -1
    outer loop
      vertex -1.25 -2.16506 0
      vertex -2.5 -4.33013 0
      vertex -1.60697 -1.91511 0
    endloop
  endfacet
  facet normal 0 0 -1
    outer loop
      vertex -3.21394 -3.83022 0
      vertex -1.60697 -1.91511 0
      vertex -2.5 -4.33013 0
    endloop
  endfacet
  facet normal -0 0 -1
    outer loop
      vertex -1.60697 -1.91511 0
      vertex -3.21394 -3.83022 0
      vertex -1.91511 -1.60697 0
    endloop
  endfacet
  facet normal 0 0 -1
    outer loop
      vertex -3.83022 -3.21394 0
      vertex -1.91511 -1.60697 0
      vertex -3.21394 -3.83022 0
    endloop
  endfacet
  facet normal -0 0 -1
    outer loop
      vertex -1.91511 -1.60697 0
      vertex -3.83022 -3.21394 0
      vertex -2.16506 -1.25 0
    endloop
  endfacet
  facet normal 0 0 -1
    outer loop
      vertex -4.33013 -2.5 0
      vertex -2.16506 -1.25 0
      vertex -3.83022 -3.21394 0
    endloop
  endfacet
  facet normal -0 0 -1
    outer loop
      vertex -2.16506 -1.25 0
      vertex -4.33013 -2.5 0
      vertex -2.34923 -0.85505 0
    endloop
  endfacet
  facet normal 0 0 -1
    outer loop
      vertex -4.69846 -1.7101 0
      vertex -2.34923 -0.85505 0
      vertex -4.33013 -2.5 0
    endloop
  endfacet
  facet normal 0 0 -1
    outer loop
      vertex -2.5 0 0
      vertex -3.21394 3.83022 0
      vertex -2.5 4.33013 0
    endloop
  endfacet
  facet normal -0 0 -1
    outer loop
      vertex -2.34923 -0.85505 0
      vertex -4.69846 -1.7101 0
      vertex -2.46202 -0.43412 0
    endloop
  endfacet
  facet normal 0 0 -1
    outer loop
      vertex -2.5 0 0
      vertex -3.83022 3.21394 0
      vertex -3.21394 3.83022 0
    endloop
  endfacet
  facet normal 0 0 -1
    outer loop
      vertex -4.92404 -0.86824 0
      vertex -2.46202 -0.43412 0
      vertex -4.69846 -1.7101 0
    endloop
  endfacet
  facet normal 0 0 -1
    outer loop
      vertex -2.5 0 0
      vertex -4.33013 2.5 0
      vertex -3.83022 3.21394 0
    endloop
  endfacet
  facet normal -0 0 -1
    outer loop
      vertex -2.46202 -0.43412 0
      vertex -4.92404 -0.86824 0
      vertex -2.5 0 0
    endloop
  endfacet
  facet normal 0 0 -1
    outer loop
      vertex -2.5 0 0
      vertex -4.69846 1.7101 0
      vertex -4.33013 2.5 0
    endloop
  endfacet
  facet normal 0 0 -1
    outer loop
      vertex -5 0 0
      vertex -2.5 0 0
      vertex -4.92404 -0.86824 0
    endloop
  endfacet
  facet normal 0 0 -1
    outer loop
      vertex -2.5 0 0
      vertex -4.92404 0.86824 0
      vertex -4.69846 1.7101 0
    endloop
  endfacet
  facet normal 0 0 -1
    outer loop
      vertex -2.5 0 0
      vertex -5 0 0
      vertex -4.92404 0.86824 0
    endloop
  endfacet
  facet normal 0 0 -1
    outer loop
      vertex 2.5 0 0
      vertex 5 0 0
      vertex 4.92404 -0.86824 0
    endloop
  endfacet
  facet normal 0 0 -1
    outer loop
      vertex 2.46202 -0.43412 0
      vertex 4.92404 -0.86824 0
      vertex 4.69846 -1.7101 0
    endloop
  endfacet
  facet normal 0 0 -1
    outer loop
      vertex 5 0 0
      vertex 2.5 0 0
      vertex 4.92404 0.86824 0
    endloop
  endfacet
  facet normal 0 0 -1
    outer loop
      vertex 2.46202 -0.43412 0
      vertex 4.69846 -1.7101 0
      vertex 4.33013 -2.5 0
    endloop
  endfacet
  facet normal 0 0 -1
    outer loop
      vertex 2.46202 0.43412 0
      vertex 4.92404 0.86824 0
      vertex 2.5 0 0
    endloop
  endfacet
  facet normal 0 0 -1
    outer loop
      vertex 2.46202 -0.43412 0
      vertex 4.33013 -2.5 0
      vertex 3.83022 -3.21394 0
    endloop
  endfacet
  facet normal -0 0 -1
    outer loop
      vertex 4.92404 0.86824 0
      vertex 2.46202 0.43412 0
      vertex 4.69846 1.7101 0
    endloop
  endfacet
  facet normal 0 0 -1
    outer loop
      vertex 2.46202 -0.43412 0
      vertex 3.83022 -3.21394 0
      vertex 3.21394 -3.83022 0
    endloop
  endfacet
  facet normal 0 0 -1
    outer loop
      vertex 2.34923 0.85505 0
      vertex 4.69846 1.7101 0
      vertex 2.46202 0.43412 0
    endloop
  endfacet
  facet normal 0 0 -1
    outer loop
      vertex 1.60697 -1.91511 0
      vertex 3.21394 -3.83022 0
      vertex 2.5 -4.33013 0
    endloop
  endfacet
  facet normal -0 0 -1
    outer loop
      vertex 4.69846 1.7101 0
      vertex 2.34923 0.85505 0
      vertex 4.33013 2.5 0
    endloop
  endfacet
  facet normal 0 0 -1
    outer loop
      vertex 2.16506 1.25 0
      vertex 4.33013 2.5 0
      vertex 2.34923 0.85505 0
    endloop
  endfacet
  facet normal -0 0 -1
    outer loop
      vertex 4.33013 2.5 0
      vertex 2.16506 1.25 0
      vertex 3.83022 3.21394 0
    endloop
  endfacet
  facet normal 0 0 -1
    outer loop
      vertex 1.91511 1.60697 0
      vertex 3.83022 3.21394 0
      vertex 2.16506 1.25 0
    endloop
  endfacet
  facet normal -0 0 -1
    outer loop
      vertex 3.83022 3.21394 0
      vertex 1.91511 1.60697 0
      vertex 3.21394 3.83022 0
    endloop
  endfacet
  facet normal 0 0 -1
    outer loop
      vertex 1.60697 1.91511 0
      vertex 3.21394 3.83022 0
      vertex 1.91511 1.60697 0
    endloop
  endfacet
  facet normal -0 0 -1
    outer loop
      vertex 3.21394 3.83022 0
      vertex 1.60697 1.91511 0
      vertex 2.5 4.33013 0
    endloop
  endfacet
  facet normal 0 0 -1
    outer loop
      vertex 1.25 2.16506 0
      vertex 2.5 4.33013 0
      vertex 1.60697 1.91511 0
    endloop
  endfacet
  facet normal -0 0 -1
    outer loop
      vertex 2.5 4.33013 0
      vertex 1.25 2.16506 0
      vertex 1.7101 4.69846 0
    endloop
  endfacet
  facet normal 0 0 -1
    outer loop
      vertex 0.85505 2.34923 0
      vertex 1.7101 4.69846 0
      vertex 1.25 2.16506 0
    endloop
  endfacet
  facet normal -0 0 -1
    outer loop
      vertex 1.7101 4.69846 0
      vertex 0.85505 2.34923 0
      vertex 0.86824 4.92404 0
    endloop
  endfacet
  facet normal 0 0 -1
    outer loop
      vertex 0.43412 2.46202 0
      vertex 0.86824 4.92404 0
      vertex 0.85505 2.34923 0
    endloop
  endfacet
  facet normal 0 0 -1
    outer loop
      vertex 0 2.5 0
      vertex 0.86824 4.92404 0
      vertex 0.43412 2.46202 0
    endloop
  endfacet
  facet normal 0 0 -1
    outer loop
      vertex 0 2.5 0
      vertex 0 5 0
      vertex 0.86824 4.92404 0
    endloop
  endfacet
  facet normal 0 0 -1
    outer loop
      vertex -0.43412 2.46202 0
      vertex 0 5 0
      vertex 0 2.5 0
    endloop
  endfacet
  facet normal 0 0 -1
    outer loop
      vertex -0.86824 4.92404 0
      vertex -0.43412 2.46202 0
      vertex -0.85505 2.34923 0
    endloop
  endfacet
  facet normal 0 0 -1
    outer loop
      vertex -0.43412 2.46202 0
      vertex -0.86824 4.92404 0
      vertex 0 5 0
    endloop
  endfacet
  facet normal 0 0 -1
    outer loop
      vertex -1.7101 4.69846 0
      vertex -0.85505 2.34923 0
      vertex -1.25 2.16506 0
    endloop
  endfacet
  facet normal 0 0 -1
    outer loop
      vertex -2.5 4.33013 0
      vertex -1.25 2.16506 0
      vertex -1.60697 1.91511 0
    endloop
  endfacet
  facet normal 0 0 -1
    outer loop
      vertex -0.85505 2.34923 0
      vertex -1.7101 4.69846 0
      vertex -0.86824 4.92404 0
    endloop
  endfacet
  facet normal 0 0 -1
    outer loop
      vertex -2.5 4.33013 0
      vertex -1.60697 1.91511 0
      vertex -1.91511 1.60697 0
    endloop
  endfacet
  facet normal 0 0 -1
    outer loop
      vertex -2.5 4.33013 0
      vertex -1.91511 1.60697 0
      vertex -2.16506 1.25 0
    endloop
  endfacet
  facet normal 0 0 -1
    outer loop
      vertex -2.5 4.33013 0
      vertex -2.16506 1.25 0
      vertex -2.34923 0.85505 0
    endloop
  endfacet
  facet normal 0 0 -1
    outer loop
      vertex -2.5 4.33013 0
      vertex -2.34923 0.85505 0
      vertex -2.46202 0.43412 0
    endloop
  endfacet
  facet normal 0 0 -1
    outer loop
      vertex -1.25 2.16506 0
      vertex -2.5 4.33013 0
      vertex -1.7101 4.69846 0
    endloop
  endfacet
  facet normal 0 0 -1
    outer loop
      vertex -2.5 4.33013 0
      vertex -2.46202 0.43412 0
      vertex -2.5 0 0
    endloop
  endfacet
  facet normal 0.573579 0.81915 -0
    outer loop
      vertex 3.21394 3.83022 0
      vertex 2.5 4.33013 2
      vertex 3.21394 3.83022 2
    endloop
  endfacet
  facet normal 0.573579 0.81915 0
    outer loop
      vertex 2.5 4.33013 2
      vertex 3.21394 3.83022 0
      vertex 2.5 4.33013 0
    endloop
  endfacet
  facet normal -0.0871544 0.996195 0
    outer loop
      vertex 0 5 0
      vertex -0.86824 4.92404 2
      vertex 0 5 2
    endloop
  endfacet
  facet normal -0.0871544 0.996195 0
    outer loop
      vertex -0.86824 4.92404 2
      vertex 0 5 0
      vertex -0.86824 4.92404 0
    endloop
  endfacet
  facet normal -0.258824 -0.965925 0
    outer loop
      vertex -1.7101 -4.69846 0
      vertex -0.86824 -4.92404 2
      vertex -1.7101 -4.69846 2
    endloop
  endfacet
  facet normal -0.258824 -0.965925 -0
    outer loop
      vertex -0.86824 -4.92404 2
      vertex -1.7101 -4.69846 0
      vertex -0.86824 -4.92404 0
    endloop
  endfacet
  facet normal -0.906311 -0.422612 0
    outer loop
      vertex -4.33013 -2.5 0
      vertex -4.69846 -1.7101 2
      vertex -4.69846 -1.7101 0
    endloop
  endfacet
  facet normal -0.906311 -0.422612 0
    outer loop
      vertex -4.69846 -1.7101 2
      vertex -4.33013 -2.5 0
      vertex -4.33013 -2.5 2
    endloop
  endfacet
  facet normal 0.0871544 0.996195 -0
    outer loop
      vertex 0.86824 4.92404 0
      vertex 0 5 2
      vertex 0.86824 4.92404 2
    endloop
  endfacet
  facet normal 0.0871544 0.996195 0
    outer loop
      vertex 0 5 2
      vertex 0.86824 4.92404 0
      vertex 0 5 0
    endloop
  endfacet
  facet normal 0.707107 -0.707107 0
    outer loop
      vertex 3.21394 -3.83022 2
      vertex 3.83022 -3.21394 0
      vertex 3.83022 -3.21394 2
    endloop
  endfacet
  facet normal 0.707107 -0.707107 0
    outer loop
      vertex 3.83022 -3.21394 0
      vertex 3.21394 -3.83022 2
      vertex 3.21394 -3.83022 0
    endloop
  endfacet
  facet normal -0.996195 -0.0871544 0
    outer loop
      vertex -4.92404 -0.86824 0
      vertex -5 0 2
      vertex -5 0 0
    endloop
  endfacet
  facet normal -0.996195 -0.0871544 0
    outer loop
      vertex -5 0 2
      vertex -4.92404 -0.86824 0
      vertex -4.92404 -0.86824 2
    endloop
  endfacet
  facet normal 0.258824 0.965925 -0
    outer loop
      vertex 1.7101 4.69846 0
      vertex 0.86824 4.92404 2
      vertex 1.7101 4.69846 2
    endloop
  endfacet
  facet normal 0.258824 0.965925 0
    outer loop
      vertex 0.86824 4.92404 2
      vertex 1.7101 4.69846 0
      vertex 0.86824 4.92404 0
    endloop
  endfacet
  facet normal -0.965925 0.258824 0
    outer loop
      vertex -4.92404 0.86824 0
      vertex -4.69846 1.7101 2
      vertex -4.69846 1.7101 0
    endloop
  endfacet
  facet normal -0.965925 0.258824 0
    outer loop
      vertex -4.69846 1.7101 2
      vertex -4.92404 0.86824 0
      vertex -4.92404 0.86824 2
    endloop
  endfacet
  facet normal -0.422612 -0.906311 0
    outer loop
      vertex -2.5 -4.33013 0
      vertex -1.7101 -4.69846 2
      vertex -2.5 -4.33013 2
    endloop
  endfacet
  facet normal -0.422612 -0.906311 -0
    outer loop
      vertex -1.7101 -4.69846 2
      vertex -2.5 -4.33013 0
      vertex -1.7101 -4.69846 0
    endloop
  endfacet
  facet normal -0.707107 0.707107 0
    outer loop
      vertex -3.83022 3.21394 0
      vertex -3.21394 3.83022 2
      vertex -3.21394 3.83022 0
    endloop
  endfacet
  facet normal -0.707107 0.707107 0
    outer loop
      vertex -3.21394 3.83022 2
      vertex -3.83022 3.21394 0
      vertex -3.83022 3.21394 2
    endloop
  endfacet
  facet normal -0.965925 -0.258824 0
    outer loop
      vertex 2.46202 0.43412 0
      vertex 2.34923 0.85505 2
      vertex 2.34923 0.85505 0
    endloop
  endfacet
  facet normal -0.965925 -0.258824 0
    outer loop
      vertex 2.34923 0.85505 2
      vertex 2.46202 0.43412 0
      vertex 2.46202 0.43412 2
    endloop
  endfacet
  facet normal -0.422622 0.906306 0
    outer loop
      vertex 1.25 -2.16506 0
      vertex 0.85505 -2.34923 2
      vertex 1.25 -2.16506 2
    endloop
  endfacet
  facet normal -0.422622 0.906306 0
    outer loop
      vertex 0.85505 -2.34923 2
      vertex 1.25 -2.16506 0
      vertex 0.85505 -2.34923 0
    endloop
  endfacet
  facet normal -0.422622 -0.906306 0
    outer loop
      vertex 0.85505 2.34923 0
      vertex 1.25 2.16506 2
      vertex 0.85505 2.34923 2
    endloop
  endfacet
  facet normal -0.422622 -0.906306 -0
    outer loop
      vertex 1.25 2.16506 2
      vertex 0.85505 2.34923 0
      vertex 1.25 2.16506 0
    endloop
  endfacet
  facet normal -0.707107 -0.707107 0
    outer loop
      vertex 1.91511 1.60697 0
      vertex 1.60697 1.91511 2
      vertex 1.60697 1.91511 0
    endloop
  endfacet
  facet normal -0.707107 -0.707107 0
    outer loop
      vertex 1.60697 1.91511 2
      vertex 1.91511 1.60697 0
      vertex 1.91511 1.60697 2
    endloop
  endfacet
  facet normal -0.996195 0.0871544 0
    outer loop
      vertex 2.46202 -0.43412 0
      vertex 2.5 0 2
      vertex 2.5 0 0
    endloop
  endfacet
  facet normal -0.996195 0.0871544 0
    outer loop
      vertex 2.5 0 2
      vertex 2.46202 -0.43412 0
      vertex 2.46202 -0.43412 2
    endloop
  endfacet
  facet normal 0.819155 0.573572 0
    outer loop
      vertex -1.91511 -1.60697 2
      vertex -2.16506 -1.25 0
      vertex -2.16506 -1.25 2
    endloop
  endfacet
  facet normal 0.819155 0.573572 0
    outer loop
      vertex -2.16506 -1.25 0
      vertex -1.91511 -1.60697 2
      vertex -1.91511 -1.60697 0
    endloop
  endfacet
  facet normal -0.0871544 0.996195 0
    outer loop
      vertex 0.43412 -2.46202 0
      vertex 0 -2.5 2
      vertex 0.43412 -2.46202 2
    endloop
  endfacet
  facet normal -0.0871544 0.996195 0
    outer loop
      vertex 0 -2.5 2
      vertex 0.43412 -2.46202 0
      vertex 0 -2.5 0
    endloop
  endfacet
  facet normal -0.965925 0.258824 0
    outer loop
      vertex 2.34923 -0.85505 0
      vertex 2.46202 -0.43412 2
      vertex 2.46202 -0.43412 0
    endloop
  endfacet
  facet normal -0.965925 0.258824 0
    outer loop
      vertex 2.46202 -0.43412 2
      vertex 2.34923 -0.85505 0
      vertex 2.34923 -0.85505 2
    endloop
  endfacet
  facet normal -0.573572 0.819155 0
    outer loop
      vertex 1.60697 -1.91511 0
      vertex 1.25 -2.16506 2
      vertex 1.60697 -1.91511 2
    endloop
  endfacet
  facet normal -0.573572 0.819155 0
    outer loop
      vertex 1.25 -2.16506 2
      vertex 1.60697 -1.91511 0
      vertex 1.25 -2.16506 0
    endloop
  endfacet
  facet normal -0.996195 -0.0871544 0
    outer loop
      vertex 2.5 0 0
      vertex 2.46202 0.43412 2
      vertex 2.46202 0.43412 0
    endloop
  endfacet
  facet normal -0.996195 -0.0871544 0
    outer loop
      vertex 2.46202 0.43412 2
      vertex 2.5 0 0
      vertex 2.5 0 2
    endloop
  endfacet
  facet normal 0.0871544 0.996195 -0
    outer loop
      vertex 0 -2.5 0
      vertex -0.43412 -2.46202 2
      vertex 0 -2.5 2
    endloop
  endfacet
  facet normal 0.0871544 0.996195 0
    outer loop
      vertex -0.43412 -2.46202 2
      vertex 0 -2.5 0
      vertex -0.43412 -2.46202 0
    endloop
  endfacet
  facet normal -0.906306 -0.422622 0
    outer loop
      vertex 2.34923 0.85505 0
      vertex 2.16506 1.25 2
      vertex 2.16506 1.25 0
    endloop
  endfacet
  facet normal -0.906306 -0.422622 0
    outer loop
      vertex 2.16506 1.25 2
      vertex 2.34923 0.85505 0
      vertex 2.34923 0.85505 2
    endloop
  endfacet
  facet normal 0.422622 -0.906306 0
    outer loop
      vertex -1.25 2.16506 0
      vertex -0.85505 2.34923 2
      vertex -1.25 2.16506 2
    endloop
  endfacet
  facet normal 0.422622 -0.906306 0
    outer loop
      vertex -0.85505 2.34923 2
      vertex -1.25 2.16506 0
      vertex -0.85505 2.34923 0
    endloop
  endfacet
  facet normal -0.0871544 -0.996195 0
    outer loop
      vertex 0 2.5 0
      vertex 0.43412 2.46202 2
      vertex 0 2.5 2
    endloop
  endfacet
  facet normal -0.0871544 -0.996195 -0
    outer loop
      vertex 0.43412 2.46202 2
      vertex 0 2.5 0
      vertex 0.43412 2.46202 0
    endloop
  endfacet
  facet normal 0.707107 -0.707107 0
    outer loop
      vertex -1.91511 1.60697 2
      vertex -1.60697 1.91511 0
      vertex -1.60697 1.91511 2
    endloop
  endfacet
  facet normal 0.707107 -0.707107 0
    outer loop
      vertex -1.60697 1.91511 0
      vertex -1.91511 1.60697 2
      vertex -1.91511 1.60697 0
    endloop
  endfacet
  facet normal -0.906306 0.422622 0
    outer loop
      vertex 2.16506 -1.25 0
      vertex 2.34923 -0.85505 2
      vertex 2.34923 -0.85505 0
    endloop
  endfacet
  facet normal -0.906306 0.422622 0
    outer loop
      vertex 2.34923 -0.85505 2
      vertex 2.16506 -1.25 0
      vertex 2.16506 -1.25 2
    endloop
  endfacet
  facet normal 0.906306 -0.422622 0
    outer loop
      vertex -2.34923 0.85505 2
      vertex -2.16506 1.25 0
      vertex -2.16506 1.25 2
    endloop
  endfacet
  facet normal 0.906306 -0.422622 0
    outer loop
      vertex -2.16506 1.25 0
      vertex -2.34923 0.85505 2
      vertex -2.34923 0.85505 0
    endloop
  endfacet
  facet normal 0.906306 0.422622 0
    outer loop
      vertex -2.16506 -1.25 2
      vertex -2.34923 -0.85505 0
      vertex -2.34923 -0.85505 2
    endloop
  endfacet
  facet normal 0.906306 0.422622 0
    outer loop
      vertex -2.34923 -0.85505 0
      vertex -2.16506 -1.25 2
      vertex -2.16506 -1.25 0
    endloop
  endfacet
  facet normal 0.996195 0.0871544 0
    outer loop
      vertex -2.46202 -0.43412 2
      vertex -2.5 0 0
      vertex -2.5 0 2
    endloop
  endfacet
  facet normal 0.996195 0.0871544 0
    outer loop
      vertex -2.5 0 0
      vertex -2.46202 -0.43412 2
      vertex -2.46202 -0.43412 0
    endloop
  endfacet
  facet normal -0.819155 -0.573572 0
    outer loop
      vertex 2.16506 1.25 0
      vertex 1.91511 1.60697 2
      vertex 1.91511 1.60697 0
    endloop
  endfacet
  facet normal -0.819155 -0.573572 0
    outer loop
      vertex 1.91511 1.60697 2
      vertex 2.16506 1.25 0
      vertex 2.16506 1.25 2
    endloop
  endfacet
  facet normal 0.573572 -0.819155 0
    outer loop
      vertex -1.60697 1.91511 0
      vertex -1.25 2.16506 2
      vertex -1.60697 1.91511 2
    endloop
  endfacet
  facet normal 0.573572 -0.819155 0
    outer loop
      vertex -1.25 2.16506 2
      vertex -1.60697 1.91511 0
      vertex -1.25 2.16506 0
    endloop
  endfacet
  facet normal 0.0871544 -0.996195 0
    outer loop
      vertex -0.43412 2.46202 0
      vertex 0 2.5 2
      vertex -0.43412 2.46202 2
    endloop
  endfacet
  facet normal 0.0871544 -0.996195 0
    outer loop
      vertex 0 2.5 2
      vertex -0.43412 2.46202 0
      vertex 0 2.5 0
    endloop
  endfacet
  facet normal 0.996195 -0.0871544 0
    outer loop
      vertex -2.5 0 2
      vertex -2.46202 0.43412 0
      vertex -2.46202 0.43412 2
    endloop
  endfacet
  facet normal 0.996195 -0.0871544 0
    outer loop
      vertex -2.46202 0.43412 0
      vertex -2.5 0 2
      vertex -2.5 0 0
    endloop
  endfacet
  facet normal 0.258824 0.965925 -0
    outer loop
      vertex -0.43412 -2.46202 0
      vertex -0.85505 -2.34923 2
      vertex -0.43412 -2.46202 2
    endloop
  endfacet
  facet normal 0.258824 0.965925 0
    outer loop
      vertex -0.85505 -2.34923 2
      vertex -0.43412 -2.46202 0
      vertex -0.85505 -2.34923 0
    endloop
  endfacet
  facet normal -0.258824 -0.965925 0
    outer loop
      vertex 0.43412 2.46202 0
      vertex 0.85505 2.34923 2
      vertex 0.43412 2.46202 2
    endloop
  endfacet
  facet normal -0.258824 -0.965925 -0
    outer loop
      vertex 0.85505 2.34923 2
      vertex 0.43412 2.46202 0
      vertex 0.85505 2.34923 0
    endloop
  endfacet
  facet normal -0.573572 -0.819155 0
    outer loop
      vertex 1.25 2.16506 0
      vertex 1.60697 1.91511 2
      vertex 1.25 2.16506 2
    endloop
  endfacet
  facet normal -0.573572 -0.819155 -0
    outer loop
      vertex 1.60697 1.91511 2
      vertex 1.25 2.16506 0
      vertex 1.60697 1.91511 0
    endloop
  endfacet
  facet normal 0.258824 -0.965925 0
    outer loop
      vertex -0.85505 2.34923 0
      vertex -0.43412 2.46202 2
      vertex -0.85505 2.34923 2
    endloop
  endfacet
  facet normal 0.258824 -0.965925 0
    outer loop
      vertex -0.43412 2.46202 2
      vertex -0.85505 2.34923 0
      vertex -0.43412 2.46202 0
    endloop
  endfacet
  facet normal -0.819155 0.573572 0
    outer loop
      vertex 1.91511 -1.60697 0
      vertex 2.16506 -1.25 2
      vertex 2.16506 -1.25 0
    endloop
  endfacet
  facet normal -0.819155 0.573572 0
    outer loop
      vertex 2.16506 -1.25 2
      vertex 1.91511 -1.60697 0
      vertex 1.91511 -1.60697 2
    endloop
  endfacet
  facet normal 0.573572 0.819155 -0
    outer loop
      vertex -1.25 -2.16506 0
      vertex -1.60697 -1.91511 2
      vertex -1.25 -2.16506 2
    endloop
  endfacet
  facet normal 0.573572 0.819155 0
    outer loop
      vertex -1.60697 -1.91511 2
      vertex -1.25 -2.16506 0
      vertex -1.60697 -1.91511 0
    endloop
  endfacet
  facet normal 0.965925 0.258824 0
    outer loop
      vertex -2.34923 -0.85505 2
      vertex -2.46202 -0.43412 0
      vertex -2.46202 -0.43412 2
    endloop
  endfacet
  facet normal 0.965925 0.258824 0
    outer loop
      vertex -2.46202 -0.43412 0
      vertex -2.34923 -0.85505 2
      vertex -2.34923 -0.85505 0
    endloop
  endfacet
  facet normal 0.707107 0.707107 0
    outer loop
      vertex -1.60697 -1.91511 2
      vertex -1.91511 -1.60697 0
      vertex -1.91511 -1.60697 2
    endloop
  endfacet
  facet normal 0.707107 0.707107 0
    outer loop
      vertex -1.91511 -1.60697 0
      vertex -1.60697 -1.91511 2
      vertex -1.60697 -1.91511 0
    endloop
  endfacet
  facet normal -0.258824 0.965925 0
    outer loop
      vertex 0.85505 -2.34923 0
      vertex 0.43412 -2.46202 2
      vertex 0.85505 -2.34923 2
    endloop
  endfacet
  facet normal -0.258824 0.965925 0
    outer loop
      vertex 0.43412 -2.46202 2
      vertex 0.85505 -2.34923 0
      vertex 0.43412 -2.46202 0
    endloop
  endfacet
  facet normal 0.819155 -0.573572 0
    outer loop
      vertex -2.16506 1.25 2
      vertex -1.91511 1.60697 0
      vertex -1.91511 1.60697 2
    endloop
  endfacet
  facet normal 0.819155 -0.573572 0
    outer loop
      vertex -1.91511 1.60697 0
      vertex -2.16506 1.25 2
      vertex -2.16506 1.25 0
    endloop
  endfacet
  facet normal -0.707107 0.707107 0
    outer loop
      vertex 1.60697 -1.91511 0
      vertex 1.91511 -1.60697 2
      vertex 1.91511 -1.60697 0
    endloop
  endfacet
  facet normal -0.707107 0.707107 0
    outer loop
      vertex 1.91511 -1.60697 2
      vertex 1.60697 -1.91511 0
      vertex 1.60697 -1.91511 2
    endloop
  endfacet
  facet normal 0.422622 0.906306 -0
    outer loop
      vertex -0.85505 -2.34923 0
      vertex -1.25 -2.16506 2
      vertex -0.85505 -2.34923 2
    endloop
  endfacet
  facet normal 0.422622 0.906306 0
    outer loop
      vertex -1.25 -2.16506 2
      vertex -0.85505 -2.34923 0
      vertex -1.25 -2.16506 0
    endloop
  endfacet
  facet normal 0.965925 -0.258824 0
    outer loop
      vertex -2.46202 0.43412 2
      vertex -2.34923 0.85505 0
      vertex -2.34923 0.85505 2
    endloop
  endfacet
  facet normal 0.965925 -0.258824 0
    outer loop
      vertex -2.34923 0.85505 0
      vertex -2.46202 0.43412 2
      vertex -2.46202 0.43412 0
    endloop
  endfacet
endsolid OpenSCAD_Model
