solid Default
  facet normal 2.638922e-07 -8.687243e-07 -1.000000e+00
    outer loop
      vertex -2.004590e+01 3.101293e+01 1.525879e-05
      vertex -2.489121e+01 3.283443e+01 1.239777e-05
      vertex -2.187771e+01 3.704320e+01 9.536743e-06
    endloop
  endfacet
  facet normal -6.346870e-01 7.727693e-01 -7.275963e-13
    outer loop
      vertex -3.474750e+00 -1.554290e+01 2.000000e+01
      vertex -3.474752e+00 -1.554290e+01 1.239777e-05
      vertex -4.633906e+00 -1.649493e+01 9.536743e-06
    endloop
  endfacet
  facet normal 6.346939e-01 -7.727637e-01 -1.907351e-07
    outer loop
      vertex -1.718686e+01 -1.211210e+00 2.000000e+01
      vertex -1.602771e+01 -2.591660e-01 9.536743e-06
      vertex -1.602771e+01 -2.591677e-01 2.000000e+01
    endloop
  endfacet
  facet normal 6.346928e-01 -7.727645e-01 -2.861025e-07
    outer loop
      vertex -1.602771e+01 -2.591660e-01 9.536743e-06
      vertex -1.718686e+01 -1.211210e+00 2.000000e+01
      vertex -1.718686e+01 -1.211203e+00 1.144409e-05
    endloop
  endfacet
  facet normal -7.727634e-01 -6.346942e-01 9.536750e-08
    outer loop
      vertex -3.474752e+00 -1.554290e+01 1.239777e-05
      vertex -3.474750e+00 -1.554290e+01 2.000000e+01
      vertex -5.943077e+00 -1.253763e+01 1.000000e+01
    endloop
  endfacet
  facet normal -7.727646e-01 -6.346927e-01 9.536754e-08
    outer loop
      vertex -1.602771e+01 -2.591677e-01 2.000000e+01
      vertex -1.602771e+01 -2.591660e-01 9.536743e-06
      vertex -1.355939e+01 -3.264448e+00 1.000000e+01
    endloop
  endfacet
  facet normal -7.727646e-01 -6.346927e-01 1.139673e-07
    outer loop
      vertex -1.602771e+01 -2.591677e-01 2.000000e+01
      vertex -1.355939e+01 -3.264448e+00 1.000000e+01
      vertex -1.165531e+01 -5.582743e+00 1.519616e+01
    endloop
  endfacet
  facet normal -7.727644e-01 -6.346929e-01 7.513479e-07
    outer loop
      vertex -7.847152e+00 -1.021933e+01 1.519616e+01
      vertex -5.943077e+00 -1.253763e+01 1.000000e+01
      vertex -3.474750e+00 -1.554290e+01 2.000000e+01
    endloop
  endfacet
  facet normal -7.727645e-01 -6.346928e-01 -6.123234e-17
    outer loop
      vertex -1.602771e+01 -2.591660e-01 9.536743e-06
      vertex -1.165531e+01 -5.582739e+00 4.803852e+00
      vertex -1.355939e+01 -3.264448e+00 1.000000e+01
    endloop
  endfacet
  facet normal -7.727646e-01 -6.346927e-01 -6.373808e-07
    outer loop
      vertex -5.943077e+00 -1.253763e+01 1.000000e+01
      vertex -7.847152e+00 -1.021933e+01 4.803852e+00
      vertex -3.474752e+00 -1.554290e+01 1.239777e-05
    endloop
  endfacet
  facet normal 7.727644e-01 6.346930e-01 3.014033e-07
    outer loop
      vertex -1.240024e+01 -2.312411e+00 1.000001e+01
      vertex -1.049617e+01 -4.630700e+00 4.803854e+00
      vertex -2.921960e+01 1.816584e+01 8.583069e-06
    endloop
  endfacet
  facet normal -6.346968e-01 7.727613e-01 9.536740e-07
    outer loop
      vertex -3.474750e+00 -1.554290e+01 2.000000e+01
      vertex -4.633906e+00 -1.649493e+01 9.536743e-06
      vertex -4.633897e+00 -1.649495e+01 2.000000e+01
    endloop
  endfacet
  facet normal 4.731818e-17 3.886373e-17 -1.000000e+00
    outer loop
      vertex -3.416974e+01 1.946614e+01 2.000000e+01
      vertex -3.153789e+01 1.626176e+01 2.000000e+01
      vertex -3.110441e+01 1.573398e+01 2.000000e+01
    endloop
  endfacet
  facet normal NaN NaN NaN
    outer loop
      vertex -3.153789e+01 1.626176e+01 2.000000e+01
      vertex -3.153789e+01 1.626176e+01 2.000000e+01
      vertex -1.718686e+01 -1.211210e+00 2.000000e+01
    endloop
  endfacet
  facet normal -7.727684e-01 -6.346881e-01 -7.612676e-07
    outer loop
      vertex -3.153789e+01 1.626176e+01 1.498902e+01
      vertex -3.110441e+01 1.573398e+01 1.695652e+01
      vertex -3.153789e+01 1.626176e+01 2.000000e+01
    endloop
  endfacet
  facet normal -6.346928e-01 7.727645e-01 0.000000e+00
    outer loop
      vertex -2.952707e+01 1.791330e+01 2.000000e+01
      vertex -2.975033e+01 1.772993e+01 2.000000e+01
      vertex -2.921960e+01 1.816584e+01 2.000000e+01
    endloop
  endfacet
  facet normal 2.600693e-01 -1.882225e-01 -9.470672e-01
    outer loop
      vertex -3.107741e+01 1.577128e+01 7.629395e-06
      vertex -3.110441e+01 1.573398e+01 7.629395e-06
      vertex -3.110441e+01 1.573398e+01 6.675720e-06
    endloop
  endfacet
  facet normal 1.169937e-07 -1.034978e-06 1.000000e+00
    outer loop
      vertex -2.965172e+01 1.774108e+01 2.000000e+01
      vertex -2.975033e+01 1.772993e+01 2.000000e+01
      vertex -3.110441e+01 1.573398e+01 2.000000e+01
    endloop
  endfacet
  facet normal 2.867770e-07 -2.536955e-06 1.000000e+00
    outer loop
      vertex -2.965172e+01 1.774108e+01 2.000000e+01
      vertex -2.921960e+01 1.816584e+01 2.000000e+01
      vertex -2.975033e+01 1.772993e+01 2.000000e+01
    endloop
  endfacet
  facet normal 3.852949e-01 -2.788666e-01 -8.796484e-01
    outer loop
      vertex -2.952707e+01 1.791330e+01 8.583069e-06
      vertex -3.107741e+01 1.577128e+01 7.629395e-06
      vertex -3.110441e+01 1.573398e+01 6.675720e-06
    endloop
  endfacet
  facet normal 1.862116e-01 -1.347747e-01 -9.732220e-01
    outer loop
      vertex -3.110441e+01 1.573398e+01 6.675720e-06
      vertex -2.004590e+01 3.101293e+01 1.525879e-05
      vertex -2.952707e+01 1.791330e+01 8.583069e-06
    endloop
  endfacet
  facet normal NaN NaN NaN
    outer loop
      vertex -3.110441e+01 1.573398e+01 2.000000e+01
      vertex -3.110441e+01 1.573398e+01 2.000000e+01
      vertex -3.110441e+01 1.573398e+01 2.000000e+01
    endloop
  endfacet
  facet normal NaN NaN NaN
    outer loop
      vertex -3.110441e+01 1.573398e+01 2.000000e+01
      vertex -3.110441e+01 1.573398e+01 2.000000e+01
      vertex -3.110441e+01 1.573398e+01 2.000000e+01
    endloop
  endfacet
  facet normal NaN NaN NaN
    outer loop
      vertex -3.153789e+01 1.626176e+01 2.000000e+01
      vertex -3.153789e+01 1.626176e+01 2.000000e+01
      vertex -3.153789e+01 1.626176e+01 1.498902e+01
    endloop
  endfacet
  facet normal NaN NaN NaN
    outer loop
      vertex -3.110441e+01 1.573398e+01 2.000000e+01
      vertex -3.153789e+01 1.626176e+01 2.000000e+01
      vertex -3.110441e+01 1.573398e+01 2.000000e+01
    endloop
  endfacet
  facet normal NaN NaN NaN
    outer loop
      vertex -3.110441e+01 1.573398e+01 2.000000e+01
      vertex -3.153789e+01 1.626176e+01 2.000000e+01
      vertex -3.110441e+01 1.573398e+01 2.000000e+01
    endloop
  endfacet
  facet normal NaN NaN NaN
    outer loop
      vertex -3.110441e+01 1.573398e+01 2.000000e+01
      vertex -3.153789e+01 1.626176e+01 2.000000e+01
      vertex -3.110441e+01 1.573398e+01 2.000000e+01
    endloop
  endfacet
  facet normal NaN NaN NaN
    outer loop
      vertex -3.110441e+01 1.573398e+01 2.000000e+01
      vertex -3.153789e+01 1.626176e+01 2.000000e+01
      vertex -3.110441e+01 1.573398e+01 2.000000e+01
    endloop
  endfacet
  facet normal 2.220958e-01 -9.750248e-01 -1.509141e-07
    outer loop
      vertex -3.110441e+01 1.573398e+01 6.675720e-06
      vertex -3.110441e+01 1.573398e+01 7.629395e-06
      vertex -3.110441e+01 1.573398e+01 1.695652e+01
    endloop
  endfacet
  facet normal -7.727644e-01 -6.346930e-01 -1.124847e-07
    outer loop
      vertex -3.110441e+01 1.573398e+01 1.695652e+01
      vertex -3.110441e+01 1.573398e+01 7.629395e-06
      vertex -1.718686e+01 -1.211203e+00 1.144409e-05
    endloop
  endfacet
  facet normal 8.100821e-01 -5.863165e-01 1.554516e-17
    outer loop
      vertex -3.110441e+01 1.573398e+01 2.000000e+01
      vertex -2.965172e+01 1.774108e+01 2.000000e+01
      vertex -3.110441e+01 1.573398e+01 2.000000e+01
    endloop
  endfacet
  facet normal -1.266507e-06 -9.839371e-07 1.000000e+00
    outer loop
      vertex -1.718686e+01 -1.211210e+00 2.000000e+01
      vertex -2.965172e+01 1.774108e+01 2.000000e+01
      vertex -3.110441e+01 1.573398e+01 2.000000e+01
    endloop
  endfacet
  facet normal -7.727645e-01 -6.346928e-01 -6.123234e-17
    outer loop
      vertex -3.110441e+01 1.573398e+01 2.000000e+01
      vertex -3.153789e+01 1.626176e+01 2.000000e+01
      vertex -3.110441e+01 1.573398e+01 2.000000e+01
    endloop
  endfacet
  facet normal NaN NaN NaN
    outer loop
      vertex -3.153789e+01 1.626176e+01 2.000000e+01
      vertex -3.110441e+01 1.573398e+01 2.000000e+01
      vertex -3.110441e+01 1.573398e+01 2.000000e+01
    endloop
  endfacet
  facet normal -4.155268e-01 9.095660e-01 -5.215348e-03
    outer loop
      vertex 1.200176e+01 -3.202284e+01 8.651733e-03
      vertex 1.200172e+01 -3.202280e+01 2.005768e-02
      vertex 1.527097e+01 -3.048876e+01 7.085389e+00
    endloop
  endfacet
  facet normal 7.727645e-01 6.346928e-01 6.123234e-17
    outer loop
      vertex 1.203543e+01 -3.206384e+01 2.000000e+01
      vertex 1.200172e+01 -3.202280e+01 2.005768e-02
      vertex 1.203543e+01 -3.206384e+01 2.000000e+01
    endloop
  endfacet
  facet normal -1.979520e-03 4.340787e-03 9.999886e-01
    outer loop
      vertex 1.200179e+01 -3.202288e+01 1.239777e-05
      vertex 3.210443e+01 -2.285375e+01 4.768372e-06
      vertex 1.199492e+01 -3.202601e+01 1.239777e-05
    endloop
  endfacet
  facet normal -4.731818e-17 -3.886373e-17 1.000000e+00
    outer loop
      vertex 1.200179e+01 -3.202288e+01 1.239777e-05
      vertex 1.200001e+01 -3.202369e+01 1.239777e-05
      vertex 1.199842e+01 -3.202442e+01 1.239777e-05
    endloop
  endfacet
  facet normal 7.727644e-01 6.346930e-01 6.123234e-17
    outer loop
      vertex 1.200179e+01 -3.202288e+01 2.000000e+01
      vertex 1.200179e+01 -3.202288e+01 1.999137e+01
      vertex -6.688007e+00 -9.267291e+00 1.519615e+01
    endloop
  endfacet
  facet normal 7.727645e-01 6.346928e-01 4.129558e-10
    outer loop
      vertex 1.198994e+01 -3.200845e+01 3.270183e+00
      vertex 1.200172e+01 -3.202280e+01 2.005768e-02
      vertex -4.783926e+00 -1.158558e+01 1.000000e+01
    endloop
  endfacet
  facet normal -4.149804e-01 9.098136e-01 -5.521957e-03
    outer loop
      vertex 1.200172e+01 -3.202280e+01 2.005768e-02
      vertex 1.198994e+01 -3.200845e+01 3.270183e+00
      vertex 1.527097e+01 -3.048876e+01 7.085389e+00
    endloop
  endfacet
  facet normal -2.499301e-07 -4.153451e-08 -1.000000e+00
    outer loop
      vertex -4.633906e+00 -1.649493e+01 9.536743e-06
      vertex 9.577641e+00 -3.312857e+01 6.675720e-06
      vertex 9.717125e+00 -3.396790e+01 6.675720e-06
    endloop
  endfacet
  facet normal NaN NaN NaN
    outer loop
      vertex 1.200179e+01 -3.202288e+01 1.239777e-05
      vertex 1.200179e+01 -3.202288e+01 1.239777e-05
      vertex -2.921960e+01 1.816584e+01 8.583069e-06
    endloop
  endfacet
  facet normal 7.727644e-01 6.346929e-01 2.207748e-04
    outer loop
      vertex 1.200176e+01 -3.202284e+01 8.651733e-03
      vertex 1.200179e+01 -3.202288e+01 1.239777e-05
      vertex -2.921960e+01 1.816584e+01 8.583069e-06
    endloop
  endfacet
  facet normal -4.149810e-01 9.098160e-01 -5.064189e-03
    outer loop
      vertex 3.210443e+01 -2.285375e+01 4.768372e-06
      vertex 1.200179e+01 -3.202288e+01 1.239777e-05
      vertex 1.200176e+01 -3.202284e+01 8.651733e-03
    endloop
  endfacet
  facet normal NaN NaN NaN
    outer loop
      vertex 1.200179e+01 -3.202288e+01 1.239777e-05
      vertex 1.200179e+01 -3.202288e+01 1.239777e-05
      vertex 3.210443e+01 -2.285375e+01 4.768372e-06
    endloop
  endfacet
  facet normal NaN NaN NaN
    outer loop
      vertex 9.717160e+00 -3.396794e+01 2.000000e+01
      vertex 9.717160e+00 -3.396794e+01 2.000000e+01
      vertex 9.717160e+00 -3.396794e+01 2.000000e+01
    endloop
  endfacet
  facet normal -7.727645e-01 -6.346928e-01 -6.123234e-17
    outer loop
      vertex 1.200172e+01 -3.202280e+01 2.005768e-02
      vertex 1.203543e+01 -3.206384e+01 2.000000e+01
      vertex 1.203543e+01 -3.206384e+01 2.000000e+01
    endloop
  endfacet
  facet normal NaN NaN NaN
    outer loop
      vertex 3.210444e+01 -2.285375e+01 1.999999e+01
      vertex 1.203543e+01 -3.206384e+01 2.000000e+01
      vertex 1.203543e+01 -3.206384e+01 2.000000e+01
    endloop
  endfacet
  facet normal NaN NaN NaN
    outer loop
      vertex 9.177619e+00 -3.331103e+01 7.629395e-06
      vertex 9.177619e+00 -3.331103e+01 7.629395e-06
      vertex 9.177619e+00 -3.331103e+01 7.629395e-06
    endloop
  endfacet
  facet normal -3.342151e-01 -2.745002e-01 9.016373e-01
    outer loop
      vertex 9.177619e+00 -3.331103e+01 7.629395e-06
      vertex -4.633906e+00 -1.649493e+01 9.536743e-06
      vertex 9.717125e+00 -3.396790e+01 6.675720e-06
    endloop
  endfacet
  facet normal 4.731818e-17 3.886373e-17 -1.000000e+00
    outer loop
      vertex 9.717141e+00 -3.396793e+01 2.000000e+01
      vertex 9.714534e+00 -3.396475e+01 2.000000e+01
      vertex 9.717160e+00 -3.396794e+01 2.000000e+01
    endloop
  endfacet
  facet normal NaN NaN NaN
    outer loop
      vertex 9.717160e+00 -3.396794e+01 2.000000e+01
      vertex 9.717141e+00 -3.396793e+01 2.000000e+01
      vertex 9.717160e+00 -3.396794e+01 2.000000e+01
    endloop
  endfacet
  facet normal 4.731818e-17 3.886373e-17 -1.000000e+00
    outer loop
      vertex 9.714534e+00 -3.396475e+01 2.000000e+01
      vertex 9.541767e+00 -3.375440e+01 2.000000e+01
      vertex 9.717160e+00 -3.396794e+01 2.000000e+01
    endloop
  endfacet
  facet normal NaN NaN NaN
    outer loop
      vertex 9.717160e+00 -3.396794e+01 2.000000e+01
      vertex 9.717141e+00 -3.396793e+01 2.000000e+01
      vertex 9.717160e+00 -3.396794e+01 2.000000e+01
    endloop
  endfacet
  facet normal -4.731818e-17 -3.886373e-17 1.000000e+00
    outer loop
      vertex 9.717160e+00 -3.396794e+01 2.000000e+01
      vertex 9.714534e+00 -3.396475e+01 2.000000e+01
      vertex 9.717141e+00 -3.396793e+01 2.000000e+01
    endloop
  endfacet
  facet normal -4.731818e-17 -3.886373e-17 1.000000e+00
    outer loop
      vertex 9.717160e+00 -3.396794e+01 2.000000e+01
      vertex 9.541767e+00 -3.375440e+01 2.000000e+01
      vertex 9.714534e+00 -3.396475e+01 2.000000e+01
    endloop
  endfacet
  facet normal NaN NaN NaN
    outer loop
      vertex 9.717160e+00 -3.396794e+01 2.000000e+01
      vertex 9.541767e+00 -3.375440e+01 2.000000e+01
      vertex 9.717160e+00 -3.396794e+01 2.000000e+01
    endloop
  endfacet
  facet normal 6.347009e-01 -7.727579e-01 6.377190e-22
    outer loop
      vertex 1.033717e+01 -3.345871e+01 2.000000e+01
      vertex 1.203543e+01 -3.206384e+01 2.000000e+01
      vertex 1.203543e+01 -3.206384e+01 2.000000e+01
    endloop
  endfacet
  facet normal 1.521020e-07 -1.851865e-07 1.000000e+00
    outer loop
      vertex 1.224295e+01 -3.704320e+01 2.000000e+01
      vertex 1.203543e+01 -3.206384e+01 2.000000e+01
      vertex 1.033717e+01 -3.345871e+01 2.000000e+01
    endloop
  endfacet
  facet normal -3.147965e-01 6.901688e-01 6.515905e-01
    outer loop
      vertex 9.577641e+00 -3.312857e+01 6.675720e-06
      vertex 1.199842e+01 -3.202442e+01 1.239777e-05
      vertex 3.210443e+01 -2.285375e+01 4.768372e-06
    endloop
  endfacet
  facet normal 4.731818e-17 3.886373e-17 -1.000000e+00
    outer loop
      vertex 1.200179e+01 -3.202288e+01 1.239777e-05
      vertex 1.199842e+01 -3.202442e+01 1.239777e-05
      vertex 1.200001e+01 -3.202369e+01 1.239777e-05
    endloop
  endfacet
  facet normal -7.727645e-01 -6.346928e-01 -1.170789e-06
    outer loop
      vertex 9.177619e+00 -3.331103e+01 7.518816e-01
      vertex 9.717130e+00 -3.396791e+01 2.346728e+00
      vertex -4.633906e+00 -1.649493e+01 9.536743e-06
    endloop
  endfacet
  facet normal 6.346853e-01 -7.727707e-01 -6.014891e-22
    outer loop
      vertex 9.717125e+00 -3.396790e+01 6.675720e-06
      vertex 1.031732e+01 -3.347496e+01 7.629395e-06
      vertex 9.717125e+00 -3.396790e+01 7.629395e-06
    endloop
  endfacet
  facet normal NaN NaN NaN
    outer loop
      vertex 9.717160e+00 -3.396794e+01 2.000000e+01
      vertex 9.717130e+00 -3.396791e+01 2.346728e+00
      vertex 9.717160e+00 -3.396794e+01 2.000000e+01
    endloop
  endfacet
  facet normal -2.894856e-01 6.346842e-01 7.165012e-01
    outer loop
      vertex 9.177617e+00 -3.331103e+01 2.000000e+01
      vertex 9.922238e+00 -3.297140e+01 2.000000e+01
      vertex 9.177620e+00 -3.331103e+01 2.000000e+01
    endloop
  endfacet
  facet normal 1.398109e-06 2.323440e-07 -1.000000e+00
    outer loop
      vertex 9.577641e+00 -3.312857e+01 6.675720e-06
      vertex 1.031732e+01 -3.347496e+01 7.629395e-06
      vertex 9.717125e+00 -3.396790e+01 6.675720e-06
    endloop
  endfacet
  facet normal NaN NaN NaN
    outer loop
      vertex 9.177619e+00 -3.331103e+01 7.518816e-01
      vertex 9.177619e+00 -3.331103e+01 7.629395e-06
      vertex 9.177619e+00 -3.331103e+01 7.629395e-06
    endloop
  endfacet
  facet normal -5.563090e-08 6.773288e-08 1.000000e+00
    outer loop
      vertex 9.177617e+00 -3.331103e+01 2.000000e+01
      vertex 9.177620e+00 -3.331103e+01 2.000000e+01
      vertex -4.633897e+00 -1.649495e+01 2.000000e+01
    endloop
  endfacet
  facet normal -6.346928e-01 7.727645e-01 0.000000e+00
    outer loop
      vertex 9.177617e+00 -3.331103e+01 2.000000e+01
      vertex 9.177620e+00 -3.331103e+01 2.000000e+01
      vertex 9.177617e+00 -3.331103e+01 2.000000e+01
    endloop
  endfacet
  facet normal -7.727659e-01 -6.346911e-01 -6.123234e-17
    outer loop
      vertex 9.717125e+00 -3.396790e+01 7.629395e-06
      vertex 9.177619e+00 -3.331103e+01 7.629395e-06
      vertex 9.717125e+00 -3.396790e+01 6.675720e-06
    endloop
  endfacet
  facet normal 6.880732e-01 7.256413e-01 6.075949e-17
    outer loop
      vertex 1.203543e+01 -3.206384e+01 2.000000e+01
      vertex 1.203542e+01 -3.206383e+01 2.000000e+01
      vertex 1.203543e+01 -3.206384e+01 2.000000e+01
    endloop
  endfacet
  facet normal 7.727646e-01 6.346928e-01 2.817675e-07
    outer loop
      vertex -4.783926e+00 -1.158558e+01 1.000000e+01
      vertex 1.198993e+01 -3.200845e+01 1.680864e+01
      vertex 1.198994e+01 -3.200845e+01 3.270183e+00
    endloop
  endfacet
  facet normal 9.360429e-01 -3.518860e-01 -6.981348e-08
    outer loop
      vertex -7.976878e-01 2.911857e+01 0.000000e+00
      vertex -7.976884e-01 2.911856e+01 1.999999e+01
      vertex -2.557117e+00 2.443835e+01 2.000000e+01
    endloop
  endfacet
  facet normal 9.360425e-01 -3.518869e-01 -3.303626e-07
    outer loop
      vertex -7.976878e-01 2.911857e+01 0.000000e+00
      vertex -2.557117e+00 2.443835e+01 2.000000e+01
      vertex -2.557122e+00 2.443836e+01 1.144409e-05
    endloop
  endfacet
  facet normal -8.215141e-01 5.701882e-01 -2.355525e-07
    outer loop
      vertex -2.489121e+01 3.283443e+01 1.239777e-05
      vertex -3.416974e+01 1.946614e+01 1.144409e-05
      vertex -3.416974e+01 1.946614e+01 2.000000e+01
    endloop
  endfacet
  facet normal -8.215140e-01 5.701884e-01 -3.904474e-08
    outer loop
      vertex -2.489121e+01 3.283443e+01 1.239777e-05
      vertex -3.416974e+01 1.946614e+01 2.000000e+01
      vertex -2.489121e+01 3.283443e+01 2.000000e+01
    endloop
  endfacet
  facet normal -3.032952e-06 1.101978e-06 1.000000e+00
    outer loop
      vertex -3.110441e+01 1.573398e+01 2.000000e+01
      vertex -2.975033e+01 1.772993e+01 2.000000e+01
      vertex -2.489121e+01 3.283443e+01 2.000000e+01
    endloop
  endfacet
  facet normal -4.731818e-17 -3.886373e-17 1.000000e+00
    outer loop
      vertex -3.110441e+01 1.573398e+01 2.000000e+01
      vertex -2.489121e+01 3.283443e+01 2.000000e+01
      vertex -3.416974e+01 1.946614e+01 2.000000e+01
    endloop
  endfacet
  facet normal -3.518872e-01 -9.360424e-01 -1.651813e-07
    outer loop
      vertex -2.004590e+01 3.101293e+01 2.000000e+01
      vertex -2.004590e+01 3.101293e+01 1.525879e-05
      vertex -2.557122e+00 2.443836e+01 1.144409e-05
    endloop
  endfacet
  facet normal -3.518873e-01 -9.360424e-01 -1.907350e-07
    outer loop
      vertex -2.004590e+01 3.101293e+01 2.000000e+01
      vertex -2.557122e+00 2.443836e+01 1.144409e-05
      vertex -2.557117e+00 2.443835e+01 2.000000e+01
    endloop
  endfacet
  facet normal -8.130723e-01 5.821627e-01 -2.468291e-08
    outer loop
      vertex -2.489121e+01 3.283443e+01 2.000000e+01
      vertex -2.187771e+01 3.704320e+01 2.000000e+01
      vertex -2.187771e+01 3.704320e+01 9.536743e-06
    endloop
  endfacet
  facet normal -8.130723e-01 5.821627e-01 -3.702437e-08
    outer loop
      vertex -2.489121e+01 3.283443e+01 2.000000e+01
      vertex -2.187771e+01 3.704320e+01 9.536743e-06
      vertex -2.489121e+01 3.283443e+01 1.239777e-05
    endloop
  endfacet
  facet normal 6.954930e-07 1.368683e-06 1.000000e+00
    outer loop
      vertex -2.557117e+00 2.443835e+01 2.000000e+01
      vertex -7.976884e-01 2.911856e+01 1.999999e+01
      vertex -2.187771e+01 3.704320e+01 2.000000e+01
    endloop
  endfacet
  facet normal 6.694563e-08 4.052510e-07 1.000000e+00
    outer loop
      vertex -2.557117e+00 2.443835e+01 2.000000e+01
      vertex -2.187771e+01 3.704320e+01 2.000000e+01
      vertex -2.489121e+01 3.283443e+01 2.000000e+01
    endloop
  endfacet
  facet normal 3.518872e-01 9.360424e-01 8.259067e-08
    outer loop
      vertex -7.976878e-01 2.911857e+01 0.000000e+00
      vertex -2.187771e+01 3.704320e+01 9.536743e-06
      vertex -2.187771e+01 3.704320e+01 2.000000e+01
    endloop
  endfacet
  facet normal 3.518874e-01 9.360423e-01 2.605487e-07
    outer loop
      vertex -7.976878e-01 2.911857e+01 0.000000e+00
      vertex -2.187771e+01 3.704320e+01 2.000000e+01
      vertex -7.976884e-01 2.911856e+01 1.999999e+01
    endloop
  endfacet
  facet normal -9.134335e-07 -1.226361e-06 -1.000000e+00
    outer loop
      vertex -2.004590e+01 3.101293e+01 1.525879e-05
      vertex -2.187771e+01 3.704320e+01 9.536743e-06
      vertex -7.976878e-01 2.911857e+01 0.000000e+00
    endloop
  endfacet
  facet normal -9.965200e-07 -2.070587e-06 -1.000000e+00
    outer loop
      vertex -2.004590e+01 3.101293e+01 1.525879e-05
      vertex -7.976878e-01 2.911857e+01 0.000000e+00
      vertex -2.557122e+00 2.443836e+01 1.144409e-05
    endloop
  endfacet
  facet normal -4.633261e-07 8.971014e-07 -1.000000e+00
    outer loop
      vertex -2.004590e+01 3.101293e+01 1.525879e-05
      vertex -3.110441e+01 1.573398e+01 6.675720e-06
      vertex -3.416974e+01 1.946614e+01 1.144409e-05
    endloop
  endfacet
  facet normal 4.895551e-07 -2.684469e-07 -1.000000e+00
    outer loop
      vertex -2.004590e+01 3.101293e+01 1.525879e-05
      vertex -3.416974e+01 1.946614e+01 1.144409e-05
      vertex -2.489121e+01 3.283443e+01 1.239777e-05
    endloop
  endfacet
  facet normal -4.377702e-07 -4.687130e-07 1.000000e+00
    outer loop
      vertex -1.718686e+01 -1.211210e+00 2.000000e+01
      vertex -1.602771e+01 -2.591677e-01 2.000000e+01
      vertex -2.921960e+01 1.816584e+01 2.000000e+01
    endloop
  endfacet
  facet normal -1.250274e-06 -9.732610e-07 1.000000e+00
    outer loop
      vertex -1.718686e+01 -1.211210e+00 2.000000e+01
      vertex -2.921960e+01 1.816584e+01 2.000000e+01
      vertex -2.965172e+01 1.774108e+01 2.000000e+01
    endloop
  endfacet
  facet normal -7.727644e-01 -6.346930e-01 -1.907351e-07
    outer loop
      vertex 9.717160e+00 -3.396794e+01 2.000000e+01
      vertex -4.633897e+00 -1.649495e+01 2.000000e+01
      vertex -4.633906e+00 -1.649493e+01 9.536743e-06
    endloop
  endfacet
  facet normal -7.727646e-01 -6.346927e-01 1.080455e-07
    outer loop
      vertex 9.717160e+00 -3.396794e+01 2.000000e+01
      vertex -4.633906e+00 -1.649493e+01 9.536743e-06
      vertex 9.717130e+00 -3.396791e+01 2.346728e+00
    endloop
  endfacet
  facet normal -7.727645e-01 -6.346928e-01 -1.907350e-07
    outer loop
      vertex -1.718686e+01 -1.211203e+00 1.144409e-05
      vertex -1.718686e+01 -1.211210e+00 2.000000e+01
      vertex -3.153789e+01 1.626176e+01 2.000000e+01
    endloop
  endfacet
  facet normal -7.727639e-01 -6.346936e-01 8.291387e-07
    outer loop
      vertex -1.718686e+01 -1.211203e+00 1.144409e-05
      vertex -3.153789e+01 1.626176e+01 2.000000e+01
      vertex -3.110441e+01 1.573398e+01 1.695652e+01
    endloop
  endfacet
  facet normal -4.913121e-07 -4.035283e-07 1.000000e+00
    outer loop
      vertex -3.474750e+00 -1.554290e+01 2.000000e+01
      vertex 1.203543e+01 -3.206384e+01 2.000000e+01
      vertex -2.921960e+01 1.816584e+01 2.000000e+01
    endloop
  endfacet
  facet normal -2.658509e-06 -2.058712e-06 1.000000e+00
    outer loop
      vertex -3.474750e+00 -1.554290e+01 2.000000e+01
      vertex -2.921960e+01 1.816584e+01 2.000000e+01
      vertex -1.602771e+01 -2.591677e-01 2.000000e+01
    endloop
  endfacet
  facet normal 6.346928e-01 -7.727645e-01 -2.861025e-07
    outer loop
      vertex -1.718686e+01 -1.211210e+00 2.000000e+01
      vertex -1.718686e+01 -1.211203e+00 1.144409e-05
      vertex -1.602771e+01 -2.591660e-01 9.536743e-06
    endloop
  endfacet
  facet normal 6.346939e-01 -7.727637e-01 -1.907351e-07
    outer loop
      vertex -1.718686e+01 -1.211210e+00 2.000000e+01
      vertex -1.602771e+01 -2.591660e-01 9.536743e-06
      vertex -1.602771e+01 -2.591677e-01 2.000000e+01
    endloop
  endfacet
  facet normal -7.727643e-01 -6.346931e-01 8.529220e-07
    outer loop
      vertex -1.602771e+01 -2.591677e-01 2.000000e+01
      vertex -1.165531e+01 -5.582743e+00 1.519616e+01
      vertex -7.847152e+00 -1.021933e+01 1.519616e+01
    endloop
  endfacet
  facet normal -7.727644e-01 -6.346930e-01 5.174974e-07
    outer loop
      vertex -1.602771e+01 -2.591677e-01 2.000000e+01
      vertex -7.847152e+00 -1.021933e+01 1.519616e+01
      vertex -3.474750e+00 -1.554290e+01 2.000000e+01
    endloop
  endfacet
  facet normal 7.727644e-01 6.346930e-01 -2.540296e-07
    outer loop
      vertex -2.921960e+01 1.816584e+01 2.000000e+01
      vertex 1.200179e+01 -3.202288e+01 2.000000e+01
      vertex -6.688007e+00 -9.267291e+00 1.519615e+01
    endloop
  endfacet
  facet normal 7.727649e-01 6.346924e-01 5.095440e-06
    outer loop
      vertex -2.921960e+01 1.816584e+01 2.000000e+01
      vertex -6.688007e+00 -9.267291e+00 1.519615e+01
      vertex -1.049616e+01 -4.630703e+00 1.519616e+01
    endloop
  endfacet
  facet normal 7.727647e-01 6.346926e-01 -2.349181e-06
    outer loop
      vertex -2.921960e+01 1.816584e+01 8.583069e-06
      vertex -1.049617e+01 -4.630700e+00 4.803854e+00
      vertex -6.688007e+00 -9.267291e+00 4.803851e+00
    endloop
  endfacet
  facet normal 7.727645e-01 6.346928e-01 6.123234e-17
    outer loop
      vertex -2.921960e+01 1.816584e+01 8.583069e-06
      vertex -6.688007e+00 -9.267291e+00 4.803851e+00
      vertex 1.200176e+01 -3.202284e+01 8.651733e-03
    endloop
  endfacet
  facet normal -5.496607e-01 6.692331e-01 -5.000001e-01
    outer loop
      vertex -7.847152e+00 -1.021933e+01 1.519616e+01
      vertex -6.688007e+00 -9.267291e+00 1.519615e+01
      vertex -4.783926e+00 -1.158558e+01 1.000000e+01
    endloop
  endfacet
  facet normal -5.496604e-01 6.692335e-01 -5.000000e-01
    outer loop
      vertex -7.847152e+00 -1.021933e+01 1.519616e+01
      vertex -4.783926e+00 -1.158558e+01 1.000000e+01
      vertex -5.943077e+00 -1.253763e+01 1.000000e+01
    endloop
  endfacet
  facet normal -7.727644e-01 -6.346930e-01 -2.765955e-07
    outer loop
      vertex -1.165531e+01 -5.582739e+00 4.803852e+00
      vertex -1.602771e+01 -2.591660e-01 9.536743e-06
      vertex -3.474752e+00 -1.554290e+01 1.239777e-05
    endloop
  endfacet
  facet normal -7.727643e-01 -6.346931e-01 5.882865e-08
    outer loop
      vertex -1.165531e+01 -5.582739e+00 4.803852e+00
      vertex -3.474752e+00 -1.554290e+01 1.239777e-05
      vertex -7.847152e+00 -1.021933e+01 4.803852e+00
    endloop
  endfacet
  facet normal -5.496599e-01 6.692339e-01 5.000000e-01
    outer loop
      vertex -5.943077e+00 -1.253763e+01 1.000000e+01
      vertex -4.783926e+00 -1.158558e+01 1.000000e+01
      vertex -6.688007e+00 -9.267291e+00 4.803851e+00
    endloop
  endfacet
  facet normal -5.496599e-01 6.692339e-01 5.000000e-01
    outer loop
      vertex -5.943077e+00 -1.253763e+01 1.000000e+01
      vertex -6.688007e+00 -9.267291e+00 4.803851e+00
      vertex -7.847152e+00 -1.021933e+01 4.803852e+00
    endloop
  endfacet
  facet normal -1.480483e-06 -7.017485e-07 -1.000000e+00
    outer loop
      vertex -1.049616e+01 -4.630703e+00 1.519616e+01
      vertex -6.688007e+00 -9.267291e+00 1.519615e+01
      vertex -7.847152e+00 -1.021933e+01 1.519616e+01
    endloop
  endfacet
  facet normal 2.960953e-07 1.403491e-07 -1.000000e+00
    outer loop
      vertex -1.049616e+01 -4.630703e+00 1.519616e+01
      vertex -7.847152e+00 -1.021933e+01 1.519616e+01
      vertex -1.165531e+01 -5.582743e+00 1.519616e+01
    endloop
  endfacet
  facet normal 7.727643e-01 6.346931e-01 -5.686857e-07
    outer loop
      vertex -2.921960e+01 1.816584e+01 2.000000e+01
      vertex -1.049616e+01 -4.630703e+00 1.519616e+01
      vertex -1.240024e+01 -2.312411e+00 1.000001e+01
    endloop
  endfacet
  facet normal 7.727644e-01 6.346929e-01 9.536748e-08
    outer loop
      vertex -2.921960e+01 1.816584e+01 2.000000e+01
      vertex -1.240024e+01 -2.312411e+00 1.000001e+01
      vertex -2.921960e+01 1.816584e+01 8.583069e-06
    endloop
  endfacet
  facet normal 5.496593e-01 -6.692340e-01 -5.000005e-01
    outer loop
      vertex -1.240024e+01 -2.312411e+00 1.000001e+01
      vertex -1.049616e+01 -4.630703e+00 1.519616e+01
      vertex -1.165531e+01 -5.582743e+00 1.519616e+01
    endloop
  endfacet
  facet normal 5.496601e-01 -6.692334e-01 -5.000002e-01
    outer loop
      vertex -1.240024e+01 -2.312411e+00 1.000001e+01
      vertex -1.165531e+01 -5.582743e+00 1.519616e+01
      vertex -1.355939e+01 -3.264448e+00 1.000000e+01
    endloop
  endfacet
  facet normal 4.913109e-07 4.035275e-07 1.000000e+00
    outer loop
      vertex -1.165531e+01 -5.582739e+00 4.803852e+00
      vertex -7.847152e+00 -1.021933e+01 4.803852e+00
      vertex -6.688007e+00 -9.267291e+00 4.803851e+00
    endloop
  endfacet
  facet normal -6.799754e-07 -1.175535e-06 1.000000e+00
    outer loop
      vertex -1.165531e+01 -5.582739e+00 4.803852e+00
      vertex -6.688007e+00 -9.267291e+00 4.803851e+00
      vertex -1.049617e+01 -4.630700e+00 4.803854e+00
    endloop
  endfacet
  facet normal 5.496585e-01 -6.692354e-01 4.999994e-01
    outer loop
      vertex -1.049617e+01 -4.630700e+00 4.803854e+00
      vertex -1.240024e+01 -2.312411e+00 1.000001e+01
      vertex -1.355939e+01 -3.264448e+00 1.000000e+01
    endloop
  endfacet
  facet normal 5.496590e-01 -6.692350e-01 4.999996e-01
    outer loop
      vertex -1.049617e+01 -4.630700e+00 4.803854e+00
      vertex -1.355939e+01 -3.264448e+00 1.000000e+01
      vertex -1.165531e+01 -5.582739e+00 4.803852e+00
    endloop
  endfacet
  facet normal -7.727650e-01 -6.346923e-01 4.730097e-07
    outer loop
      vertex -3.153789e+01 1.626176e+01 1.498902e+01
      vertex -3.416974e+01 1.946614e+01 1.144409e-05
      vertex -3.110441e+01 1.573398e+01 6.675720e-06
    endloop
  endfacet
  facet normal -7.727700e-01 -6.346862e-01 1.124867e-07
    outer loop
      vertex -3.153789e+01 1.626176e+01 1.498902e+01
      vertex -3.110441e+01 1.573398e+01 6.675720e-06
      vertex -3.110441e+01 1.573398e+01 1.695652e+01
    endloop
  endfacet
  facet normal -8.381696e-07 3.882403e-07 1.000000e+00
    outer loop
      vertex -2.952707e+01 1.791330e+01 2.000000e+01
      vertex -2.004590e+01 3.101293e+01 2.000000e+01
      vertex -2.489121e+01 3.283443e+01 2.000000e+01
    endloop
  endfacet
  facet normal -1.409590e-07 1.716234e-07 1.000000e+00
    outer loop
      vertex -2.952707e+01 1.791330e+01 2.000000e+01
      vertex -2.489121e+01 3.283443e+01 2.000000e+01
      vertex -2.975033e+01 1.772993e+01 2.000000e+01
    endloop
  endfacet
  facet normal 7.156609e-08 -5.179521e-08 -1.000000e+00
    outer loop
      vertex -3.110441e+01 1.573398e+01 7.629395e-06
      vertex -3.107741e+01 1.577128e+01 7.629395e-06
      vertex -1.602771e+01 -2.591660e-01 9.536743e-06
    endloop
  endfacet
  facet normal -8.722091e-07 -9.414896e-07 -1.000000e+00
    outer loop
      vertex -3.110441e+01 1.573398e+01 7.629395e-06
      vertex -1.602771e+01 -2.591660e-01 9.536743e-06
      vertex -1.718686e+01 -1.211203e+00 1.144409e-05
    endloop
  endfacet
  facet normal -9.017290e-07 1.097870e-06 -1.000000e+00
    outer loop
      vertex -3.107741e+01 1.577128e+01 7.629395e-06
      vertex -2.952707e+01 1.791330e+01 8.583069e-06
      vertex -2.921960e+01 1.816584e+01 8.583069e-06
    endloop
  endfacet
  facet normal 3.016617e-07 1.642232e-07 -1.000000e+00
    outer loop
      vertex -3.107741e+01 1.577128e+01 7.629395e-06
      vertex -2.921960e+01 1.816584e+01 8.583069e-06
      vertex -1.602771e+01 -2.591660e-01 9.536743e-06
    endloop
  endfacet
  facet normal -7.727622e-01 -6.346957e-01 -7.612676e-07
    outer loop
      vertex -3.416974e+01 1.946614e+01 1.144409e-05
      vertex -3.153789e+01 1.626176e+01 1.498902e+01
      vertex -3.153789e+01 1.626176e+01 2.000000e+01
    endloop
  endfacet
  facet normal -7.727639e-01 -6.346936e-01 -1.907348e-07
    outer loop
      vertex -3.416974e+01 1.946614e+01 1.144409e-05
      vertex -3.153789e+01 1.626176e+01 2.000000e+01
      vertex -3.416974e+01 1.946614e+01 2.000000e+01
    endloop
  endfacet
  facet normal 8.100822e-01 -5.863163e-01 4.842227e-08
    outer loop
      vertex -2.004590e+01 3.101293e+01 1.525879e-05
      vertex -2.004590e+01 3.101293e+01 2.000000e+01
      vertex -2.952707e+01 1.791330e+01 2.000000e+01
    endloop
  endfacet
  facet normal 8.100820e-01 -5.863165e-01 -2.086972e-07
    outer loop
      vertex -2.004590e+01 3.101293e+01 1.525879e-05
      vertex -2.952707e+01 1.791330e+01 2.000000e+01
      vertex -2.952707e+01 1.791330e+01 8.583069e-06
    endloop
  endfacet
  facet normal -6.347003e-01 7.727584e-01 1.907359e-07
    outer loop
      vertex -2.921960e+01 1.816584e+01 8.583069e-06
      vertex -2.952707e+01 1.791330e+01 8.583069e-06
      vertex -2.952707e+01 1.791330e+01 2.000000e+01
    endloop
  endfacet
  facet normal -6.346928e-01 7.727645e-01 3.814699e-07
    outer loop
      vertex -2.921960e+01 1.816584e+01 8.583069e-06
      vertex -2.952707e+01 1.791330e+01 2.000000e+01
      vertex -2.921960e+01 1.816584e+01 2.000000e+01
    endloop
  endfacet
  facet normal -1.174766e-06 1.980413e-06 1.000000e+00
    outer loop
      vertex 1.224295e+01 -3.704320e+01 2.000000e+01
      vertex 3.416974e+01 -2.740727e+01 2.000000e+01
      vertex 3.210444e+01 -2.285375e+01 1.999999e+01
    endloop
  endfacet
  facet normal 3.660133e-07 -1.762715e-07 1.000000e+00
    outer loop
      vertex 1.224295e+01 -3.704320e+01 2.000000e+01
      vertex 3.210444e+01 -2.285375e+01 1.999999e+01
      vertex 1.203543e+01 -3.206384e+01 2.000000e+01
    endloop
  endfacet
  facet normal -4.149801e-01 9.098137e-01 -5.521584e-03
    outer loop
      vertex 3.210443e+01 -2.285375e+01 4.768372e-06
      vertex 1.200176e+01 -3.202284e+01 8.651733e-03
      vertex 1.527097e+01 -3.048876e+01 7.085389e+00
    endloop
  endfacet
  facet normal -4.130598e-01 9.107039e-01 1.584811e-17
    outer loop
      vertex 3.210443e+01 -2.285375e+01 4.768372e-06
      vertex 1.527097e+01 -3.048876e+01 7.085389e+00
      vertex 3.210443e+01 -2.285375e+01 7.085391e+00
    endloop
  endfacet
  facet normal 9.107043e-01 4.130588e-01 -1.065775e-06
    outer loop
      vertex 3.416974e+01 -2.740727e+01 2.000000e+01
      vertex 3.416974e+01 -2.740727e+01 1.308539e+01
      vertex 3.210444e+01 -2.285375e+01 1.308539e+01
    endloop
  endfacet
  facet normal 9.107037e-01 4.130602e-01 5.914590e-17
    outer loop
      vertex 3.416974e+01 -2.740727e+01 2.000000e+01
      vertex 3.210444e+01 -2.285375e+01 1.308539e+01
      vertex 3.210444e+01 -2.285375e+01 1.999999e+01
    endloop
  endfacet
  facet normal 9.107035e-01 4.130605e-01 -2.786904e-07
    outer loop
      vertex 3.210443e+01 -2.285375e+01 7.085391e+00
      vertex 3.416974e+01 -2.740727e+01 7.085392e+00
      vertex 3.416973e+01 -2.740726e+01 8.583069e-06
    endloop
  endfacet
  facet normal 9.107037e-01 4.130602e-01 5.914590e-17
    outer loop
      vertex 3.210443e+01 -2.285375e+01 7.085391e+00
      vertex 3.416973e+01 -2.740726e+01 8.583069e-06
      vertex 3.210443e+01 -2.285375e+01 4.768372e-06
    endloop
  endfacet
  facet normal 3.750518e-01 -9.270039e-01 -3.356037e-07
    outer loop
      vertex 1.224295e+01 -3.704320e+01 2.000000e+01
      vertex 1.224295e+01 -3.704320e+01 1.239777e-05
      vertex 1.855637e+01 -3.448888e+01 7.085390e+00
    endloop
  endfacet
  facet normal 3.750502e-01 -9.270045e-01 -1.213580e-06
    outer loop
      vertex 1.224295e+01 -3.704320e+01 2.000000e+01
      vertex 1.855637e+01 -3.448888e+01 7.085390e+00
      vertex 1.855638e+01 -3.448889e+01 1.308539e+01
    endloop
  endfacet
  facet normal 4.127339e-01 -9.099855e-01 -3.971226e-02
    outer loop
      vertex 3.416974e+01 -2.740727e+01 7.085392e+00
      vertex 1.855637e+01 -3.448888e+01 7.085390e+00
      vertex 1.224295e+01 -3.704320e+01 1.239777e-05
    endloop
  endfacet
  facet normal 4.023240e-01 -9.154974e-01 -1.036741e-06
    outer loop
      vertex 3.416974e+01 -2.740727e+01 7.085392e+00
      vertex 1.224295e+01 -3.704320e+01 1.239777e-05
      vertex 3.416973e+01 -2.740726e+01 8.583069e-06
    endloop
  endfacet
  facet normal -1.295697e-07 9.830978e-08 1.000000e+00
    outer loop
      vertex 3.416974e+01 -2.740727e+01 7.085392e+00
      vertex 3.210443e+01 -2.285375e+01 7.085391e+00
      vertex 1.527097e+01 -3.048876e+01 7.085389e+00
    endloop
  endfacet
  facet normal -1.344131e-07 1.280143e-07 1.000000e+00
    outer loop
      vertex 3.416974e+01 -2.740727e+01 7.085392e+00
      vertex 1.527097e+01 -3.048876e+01 7.085389e+00
      vertex 1.855637e+01 -3.448888e+01 7.085390e+00
    endloop
  endfacet
  facet normal 7.727654e-01 6.346917e-01 -1.874084e-12
    outer loop
      vertex 1.855638e+01 -3.448889e+01 1.308539e+01
      vertex 1.855637e+01 -3.448888e+01 7.085390e+00
      vertex 1.527097e+01 -3.048876e+01 7.085389e+00
    endloop
  endfacet
  facet normal 7.727654e-01 6.346917e-01 -1.874084e-12
    outer loop
      vertex 1.855638e+01 -3.448889e+01 1.308539e+01
      vertex 1.527097e+01 -3.048876e+01 7.085389e+00
      vertex 1.527098e+01 -3.048876e+01 1.308539e+01
    endloop
  endfacet
  facet normal 4.127181e-01 -9.099494e-01 4.069191e-02
    outer loop
      vertex 1.224295e+01 -3.704320e+01 2.000000e+01
      vertex 1.855638e+01 -3.448889e+01 1.308539e+01
      vertex 3.416974e+01 -2.740727e+01 1.308539e+01
    endloop
  endfacet
  facet normal 4.023240e-01 -9.154973e-01 2.980847e-07
    outer loop
      vertex 1.224295e+01 -3.704320e+01 2.000000e+01
      vertex 3.416974e+01 -2.740727e+01 1.308539e+01
      vertex 3.416974e+01 -2.740727e+01 2.000000e+01
    endloop
  endfacet
  facet normal 7.021439e-08 -1.211395e-07 -1.000000e+00
    outer loop
      vertex 3.416974e+01 -2.740727e+01 1.308539e+01
      vertex 1.855638e+01 -3.448889e+01 1.308539e+01
      vertex 1.527098e+01 -3.048876e+01 1.308539e+01
    endloop
  endfacet
  facet normal 6.288617e-08 -7.619567e-08 -1.000000e+00
    outer loop
      vertex 3.416974e+01 -2.740727e+01 1.308539e+01
      vertex 1.527098e+01 -3.048876e+01 1.308539e+01
      vertex 3.210444e+01 -2.285375e+01 1.308539e+01
    endloop
  endfacet
  facet normal 7.727472e-01 6.347139e-01 -1.673699e-04
    outer loop
      vertex 1.200172e+01 -3.202280e+01 2.005768e-02
      vertex 1.200176e+01 -3.202284e+01 8.651733e-03
      vertex -6.688007e+00 -9.267291e+00 4.803851e+00
    endloop
  endfacet
  facet normal 7.727644e-01 6.346930e-01 -6.369963e-07
    outer loop
      vertex 1.200172e+01 -3.202280e+01 2.005768e-02
      vertex -6.688007e+00 -9.267291e+00 4.803851e+00
      vertex -4.783926e+00 -1.158558e+01 1.000000e+01
    endloop
  endfacet
  facet normal -1.593254e-06 -1.495778e-06 -1.000000e+00
    outer loop
      vertex 1.199842e+01 -3.202442e+01 1.239777e-05
      vertex -3.474752e+00 -1.554290e+01 1.239777e-05
      vertex -1.602771e+01 -2.591660e-01 9.536743e-06
    endloop
  endfacet
  facet normal 2.949095e-08 -6.404814e-08 -1.000000e+00
    outer loop
      vertex 1.199842e+01 -3.202442e+01 1.239777e-05
      vertex -1.602771e+01 -2.591660e-01 9.536743e-06
      vertex 1.200001e+01 -3.202369e+01 1.239777e-05
    endloop
  endfacet
  facet normal -7.727644e-01 -6.346929e-01 9.536749e-08
    outer loop
      vertex 9.717130e+00 -3.396791e+01 2.346728e+00
      vertex 1.224295e+01 -3.704320e+01 1.239777e-05
      vertex 1.224295e+01 -3.704320e+01 2.000000e+01
    endloop
  endfacet
  facet normal -7.727645e-01 -6.346928e-01 1.080451e-07
    outer loop
      vertex 9.717130e+00 -3.396791e+01 2.346728e+00
      vertex 1.224295e+01 -3.704320e+01 2.000000e+01
      vertex 9.717160e+00 -3.396794e+01 2.000000e+01
    endloop
  endfacet
  facet normal 2.926993e-08 -6.424317e-08 -1.000000e+00
    outer loop
      vertex 1.200179e+01 -3.202288e+01 1.239777e-05
      vertex 1.200001e+01 -3.202369e+01 1.239777e-05
      vertex -1.602771e+01 -2.591660e-01 9.536743e-06
    endloop
  endfacet
  facet normal 2.301582e-07 1.130283e-07 -1.000000e+00
    outer loop
      vertex 1.200179e+01 -3.202288e+01 1.239777e-05
      vertex -1.602771e+01 -2.591660e-01 9.536743e-06
      vertex -2.921960e+01 1.816584e+01 8.583069e-06
    endloop
  endfacet
  facet normal 6.426561e-01 5.278314e-01 5.553261e-01
    outer loop
      vertex 1.200179e+01 -3.202288e+01 2.000000e+01
      vertex -2.921960e+01 1.816584e+01 2.000000e+01
      vertex 1.203543e+01 -3.206384e+01 2.000000e+01
    endloop
  endfacet
  facet normal 6.429030e-01 5.279565e-01 -5.549213e-01
    outer loop
      vertex 1.200179e+01 -3.202288e+01 2.000000e+01
      vertex 1.203543e+01 -3.206384e+01 2.000000e+01
      vertex 1.203542e+01 -3.206383e+01 2.000000e+01
    endloop
  endfacet
  facet normal 7.727643e-01 6.346930e-01 6.026839e-07
    outer loop
      vertex -4.783926e+00 -1.158558e+01 1.000000e+01
      vertex -6.688007e+00 -9.267291e+00 1.519615e+01
      vertex 1.200179e+01 -3.202288e+01 1.999137e+01
    endloop
  endfacet
  facet normal 7.727649e-01 6.346924e-01 -1.801837e-06
    outer loop
      vertex -4.783926e+00 -1.158558e+01 1.000000e+01
      vertex 1.200179e+01 -3.202288e+01 1.999137e+01
      vertex 1.198993e+01 -3.200845e+01 1.680864e+01
    endloop
  endfacet
  facet normal -4.149864e-01 9.098276e-01 1.572289e-17
    outer loop
      vertex 1.200179e+01 -3.202288e+01 1.999137e+01
      vertex 1.200179e+01 -3.202288e+01 2.000000e+01
      vertex 3.210444e+01 -2.285375e+01 1.999999e+01
    endloop
  endfacet
  facet normal -4.149864e-01 9.098276e-01 1.572289e-17
    outer loop
      vertex 1.200179e+01 -3.202288e+01 1.999137e+01
      vertex 3.210444e+01 -2.285375e+01 1.999999e+01
      vertex 3.210444e+01 -2.285375e+01 1.308539e+01
    endloop
  endfacet
  facet normal 3.695826e-08 -8.102931e-08 1.000000e+00
    outer loop
      vertex 9.177620e+00 -3.331103e+01 2.000000e+01
      vertex 9.922238e+00 -3.297140e+01 2.000000e+01
      vertex -3.474750e+00 -1.554290e+01 2.000000e+01
    endloop
  endfacet
  facet normal -2.020865e-06 -1.546369e-06 1.000000e+00
    outer loop
      vertex 9.177620e+00 -3.331103e+01 2.000000e+01
      vertex -3.474750e+00 -1.554290e+01 2.000000e+01
      vertex -4.633897e+00 -1.649495e+01 2.000000e+01
    endloop
  endfacet
  facet normal 3.340654e-07 -1.156056e-06 -1.000000e+00
    outer loop
      vertex 1.031732e+01 -3.347496e+01 7.629395e-06
      vertex 3.416973e+01 -2.740726e+01 8.583069e-06
      vertex 1.224295e+01 -3.704320e+01 1.239777e-05
    endloop
  endfacet
  facet normal 7.604825e-07 -9.259370e-07 -1.000000e+00
    outer loop
      vertex 1.031732e+01 -3.347496e+01 7.629395e-06
      vertex 1.224295e+01 -3.704320e+01 1.239777e-05
      vertex 9.717125e+00 -3.396790e+01 7.629395e-06
    endloop
  endfacet
  facet normal -3.640038e-01 -2.989651e-01 8.821117e-01
    outer loop
      vertex 9.717125e+00 -3.396790e+01 7.629395e-06
      vertex 1.224295e+01 -3.704320e+01 1.239777e-05
      vertex 9.177619e+00 -3.331103e+01 7.629395e-06
    endloop
  endfacet
  facet normal NaN NaN NaN
    outer loop
      vertex 9.717125e+00 -3.396790e+01 7.629395e-06
      vertex 9.177619e+00 -3.331103e+01 7.629395e-06
      vertex 9.177619e+00 -3.331103e+01 7.629395e-06
    endloop
  endfacet
  facet normal 1.921313e-07 2.026215e-07 1.000000e+00
    outer loop
      vertex 1.203542e+01 -3.206383e+01 2.000000e+01
      vertex 1.203543e+01 -3.206384e+01 2.000000e+01
      vertex 3.210444e+01 -2.285375e+01 1.999999e+01
    endloop
  endfacet
  facet normal 2.070774e-07 1.700534e-07 1.000000e+00
    outer loop
      vertex 1.203542e+01 -3.206383e+01 2.000000e+01
      vertex 3.210444e+01 -2.285375e+01 1.999999e+01
      vertex 1.200179e+01 -3.202288e+01 2.000000e+01
    endloop
  endfacet
  facet normal -1.368345e-01 -1.123866e-01 9.841979e-01
    outer loop
      vertex 9.541767e+00 -3.375440e+01 2.000000e+01
      vertex 1.224295e+01 -3.704320e+01 2.000000e+01
      vertex 9.177617e+00 -3.331103e+01 2.000000e+01
    endloop
  endfacet
  facet normal -7.727687e-01 -6.346877e-01 -6.123234e-17
    outer loop
      vertex 9.541767e+00 -3.375440e+01 2.000000e+01
      vertex 9.177617e+00 -3.331103e+01 2.000000e+01
      vertex 9.177617e+00 -3.331103e+01 2.000000e+01
    endloop
  endfacet
  facet normal -7.727646e-01 -6.346928e-01 -6.123234e-17
    outer loop
      vertex 9.177619e+00 -3.331103e+01 7.629395e-06
      vertex 9.177619e+00 -3.331103e+01 7.518816e-01
      vertex -4.633906e+00 -1.649493e+01 9.536743e-06
    endloop
  endfacet
  facet normal NaN NaN NaN
    outer loop
      vertex 9.177619e+00 -3.331103e+01 7.629395e-06
      vertex -4.633906e+00 -1.649493e+01 9.536743e-06
      vertex 9.177619e+00 -3.331103e+01 7.629395e-06
    endloop
  endfacet
  facet normal 4.731818e-17 3.886373e-17 -1.000000e+00
    outer loop
      vertex 9.717160e+00 -3.396794e+01 2.000000e+01
      vertex 9.541767e+00 -3.375440e+01 2.000000e+01
      vertex 9.177617e+00 -3.331103e+01 2.000000e+01
    endloop
  endfacet
  facet normal -3.016467e-02 -2.477519e-02 -9.992378e-01
    outer loop
      vertex 9.717160e+00 -3.396794e+01 2.000000e+01
      vertex 9.177617e+00 -3.331103e+01 2.000000e+01
      vertex -4.633897e+00 -1.649495e+01 2.000000e+01
    endloop
  endfacet
  facet normal 1.644436e-06 1.576985e-06 -1.000000e+00
    outer loop
      vertex 1.199842e+01 -3.202442e+01 1.239777e-05
      vertex 9.577641e+00 -3.312857e+01 6.675720e-06
      vertex -4.633906e+00 -1.649493e+01 9.536743e-06
    endloop
  endfacet
  facet normal 1.393623e-06 1.308361e-06 -1.000000e+00
    outer loop
      vertex 1.199842e+01 -3.202442e+01 1.239777e-05
      vertex -4.633906e+00 -1.649493e+01 9.536743e-06
      vertex -3.474752e+00 -1.554290e+01 1.239777e-05
    endloop
  endfacet
  facet normal -7.727659e-01 -6.346911e-01 -6.123234e-17
    outer loop
      vertex 9.717130e+00 -3.396791e+01 2.346728e+00
      vertex 9.177619e+00 -3.331103e+01 7.518816e-01
      vertex 9.177619e+00 -3.331103e+01 7.629395e-06
    endloop
  endfacet
  facet normal -7.727647e-01 -6.346925e-01 -6.697206e-07
    outer loop
      vertex 9.717130e+00 -3.396791e+01 2.346728e+00
      vertex 9.177619e+00 -3.331103e+01 7.629395e-06
      vertex 1.224295e+01 -3.704320e+01 1.239777e-05
    endloop
  endfacet
  facet normal 4.797496e-07 -1.728748e-06 -1.000000e+00
    outer loop
      vertex 3.416973e+01 -2.740726e+01 8.583069e-06
      vertex 1.031732e+01 -3.347496e+01 7.629395e-06
      vertex 9.577641e+00 -3.312857e+01 6.675720e-06
    endloop
  endfacet
  facet normal 2.464542e-07 -7.259665e-07 -1.000000e+00
    outer loop
      vertex 3.416973e+01 -2.740726e+01 8.583069e-06
      vertex 9.577641e+00 -3.312857e+01 6.675720e-06
      vertex 3.210443e+01 -2.285375e+01 4.768372e-06
    endloop
  endfacet
  facet normal -4.149667e-01 9.098189e-01 5.670832e-03
    outer loop
      vertex 1.527098e+01 -3.048876e+01 1.308539e+01
      vertex 1.198993e+01 -3.200845e+01 1.680864e+01
      vertex 1.200179e+01 -3.202288e+01 1.999137e+01
    endloop
  endfacet
  facet normal -4.130509e-01 9.106828e-01 6.769680e-03
    outer loop
      vertex 1.527098e+01 -3.048876e+01 1.308539e+01
      vertex 1.200179e+01 -3.202288e+01 1.999137e+01
      vertex 3.210444e+01 -2.285375e+01 1.308539e+01
    endloop
  endfacet
  facet normal -4.202808e-01 9.073941e-01 7.076267e-08
    outer loop
      vertex 1.527097e+01 -3.048876e+01 7.085389e+00
      vertex 1.198994e+01 -3.200845e+01 3.270183e+00
      vertex 1.198993e+01 -3.200845e+01 1.680864e+01
    endloop
  endfacet
  facet normal -4.202780e-01 9.073954e-01 1.230813e-06
    outer loop
      vertex 1.527097e+01 -3.048876e+01 7.085389e+00
      vertex 1.198993e+01 -3.200845e+01 1.680864e+01
      vertex 1.527098e+01 -3.048876e+01 1.308539e+01
    endloop
  endfacet
  facet normal 9.224873e-07 7.854747e-07 1.000000e+00
    outer loop
      vertex 1.033717e+01 -3.345871e+01 2.000000e+01
      vertex 9.922238e+00 -3.297140e+01 2.000000e+01
      vertex 9.177617e+00 -3.331103e+01 2.000000e+01
    endloop
  endfacet
  facet normal 8.458430e-07 1.836586e-07 1.000000e+00
    outer loop
      vertex 1.033717e+01 -3.345871e+01 2.000000e+01
      vertex 9.177617e+00 -3.331103e+01 2.000000e+01
      vertex 1.224295e+01 -3.704320e+01 2.000000e+01
    endloop
  endfacet
  facet normal -1.321848e-06 -1.125521e-06 1.000000e+00
    outer loop
      vertex -3.474750e+00 -1.554290e+01 2.000000e+01
      vertex 9.922238e+00 -3.297140e+01 2.000000e+01
      vertex 1.033717e+01 -3.345871e+01 2.000000e+01
    endloop
  endfacet
  facet normal -9.779731e-07 -8.604151e-07 1.000000e+00
    outer loop
      vertex -3.474750e+00 -1.554290e+01 2.000000e+01
      vertex 1.033717e+01 -3.345871e+01 2.000000e+01
      vertex 1.203543e+01 -3.206384e+01 2.000000e+01
    endloop
  endfacet
endsolid Default
