solid OpenSCAD_Model
  facet normal -4.44089e-16 -1 0
    outer loop
      vertex -56 -6 0
      vertex -54 -6 0
      vertex -54 -6 5
    endloop
  endfacet
  facet normal -4.44089e-16 -1 0
    outer loop
      vertex -56 -6 5
      vertex -56 -6 0
      vertex -54 -6 5
    endloop
  endfacet
  facet normal 1 0 -0
    outer loop
      vertex -54 -6 5
      vertex -54 -6 0
      vertex -54 -5.94545 0
    endloop
  endfacet
  facet normal 1 -0 0
    outer loop
      vertex -54 -3.87263 2
      vertex -54 -6 5
      vertex -54 -5.94545 2
    endloop
  endfacet
  facet normal 1 -0 0
    outer loop
      vertex -54 -5.94545 2
      vertex -54 -6 5
      vertex -54 -5.94545 0
    endloop
  endfacet
  facet normal 1 0 0
    outer loop
      vertex -54 -3.87263 5
      vertex -54 -6 5
      vertex -54 -3.87263 2
    endloop
  endfacet
  facet normal 0 0 -1
    outer loop
      vertex -54 -6 0
      vertex -56 -6 0
      vertex -54 -5.94545 0
    endloop
  endfacet
  facet normal 0 0 -1
    outer loop
      vertex -54 -5.94545 0
      vertex -56 -6 0
      vertex -56 -5.90538 0
    endloop
  endfacet
  facet normal 0 0 -1
    outer loop
      vertex -54 -5.94545 0
      vertex -56 -5.90538 0
      vertex -56.4921 -5.8115 0
    endloop
  endfacet
  facet normal 0 0 -1
    outer loop
      vertex -54 -5.94545 0
      vertex -56.4921 -5.8115 0
      vertex -57.2087 -5.57866 0
    endloop
  endfacet
  facet normal 0 0 -1
    outer loop
      vertex -54 -5.94545 0
      vertex -57.2087 -5.57866 0
      vertex -57.8905 -5.25784 0
    endloop
  endfacet
  facet normal 0 0 -1
    outer loop
      vertex -54 -5.94545 0
      vertex -57.8905 -5.25784 0
      vertex -58.5267 -4.8541 0
    endloop
  endfacet
  facet normal 0 0 -1
    outer loop
      vertex -54 -5.94545 0
      vertex -58.5267 -4.8541 0
      vertex -59.1073 -4.37381 0
    endloop
  endfacet
  facet normal 0 0 -1
    outer loop
      vertex -54 -5.94545 0
      vertex -59.1073 -4.37381 0
      vertex -59.6231 -3.82454 0
    endloop
  endfacet
  facet normal 0 0 -1
    outer loop
      vertex -54 -5.94545 0
      vertex -59.6231 -3.82454 0
      vertex -60.066 -3.21496 0
    endloop
  endfacet
  facet normal 0 0 -1
    outer loop
      vertex -54 -5.94545 0
      vertex -60.066 -3.21496 0
      vertex -60.429 -2.55468 0
    endloop
  endfacet
  facet normal 0 0 -1
    outer loop
      vertex -54 -5.94545 0
      vertex -60.429 -2.55468 0
      vertex -60.7063 -1.8541 0
    endloop
  endfacet
  facet normal 0 0 -1
    outer loop
      vertex -54 -5.94545 0
      vertex -60.7063 -1.8541 0
      vertex -60.8937 -1.12429 0
    endloop
  endfacet
  facet normal 0 0 -1
    outer loop
      vertex -54 -5.94545 0
      vertex -60.8937 -1.12429 0
      vertex -60.9094 -1 0
    endloop
  endfacet
  facet normal 0 0 -1
    outer loop
      vertex -60.9094 -1 0
      vertex -61 -1 0
      vertex -61 1 0
    endloop
  endfacet
  facet normal -0 -0 -1
    outer loop
      vertex -60.9094 -1 0
      vertex -61 1 0
      vertex -54 -5.94545 0
    endloop
  endfacet
  facet normal 0 0 -1
    outer loop
      vertex -54 -5.94545 0
      vertex -61 1 0
      vertex -60.9094 1 0
    endloop
  endfacet
  facet normal 0 0 -1
    outer loop
      vertex -54 -5.94545 0
      vertex -60.9094 1 0
      vertex -60.8937 1.12429 0
    endloop
  endfacet
  facet normal 0 0 -1
    outer loop
      vertex -54 -5.94545 0
      vertex -60.8937 1.12429 0
      vertex -60.7063 1.8541 0
    endloop
  endfacet
  facet normal 0 0 -1
    outer loop
      vertex -57.8532 -0.927051 0
      vertex -60.7063 1.8541 0
      vertex -60.429 2.55468 0
    endloop
  endfacet
  facet normal 0 0 -1
    outer loop
      vertex -57.9941 -0.188372 0
      vertex -60.429 2.55468 0
      vertex -60.066 3.21496 0
    endloop
  endfacet
  facet normal 0 0 -1
    outer loop
      vertex -57.9469 0.562144 0
      vertex -60.066 3.21496 0
      vertex -59.6231 3.82454 0
    endloop
  endfacet
  facet normal 0 0 -1
    outer loop
      vertex -57.7145 1.27734 0
      vertex -59.6231 3.82454 0
      vertex -59.1073 4.37381 0
    endloop
  endfacet
  facet normal 0 0 -1
    outer loop
      vertex -57.3115 1.91227 0
      vertex -59.1073 4.37381 0
      vertex -58.5267 4.8541 0
    endloop
  endfacet
  facet normal 0 0 -1
    outer loop
      vertex -57 2.23128 0
      vertex -58.5267 4.8541 0
      vertex -57.8905 5.25784 0
    endloop
  endfacet
  facet normal 0 -0 -1
    outer loop
      vertex -57.0536 2.18691 0
      vertex -58.5267 4.8541 0
      vertex -57 2.23128 0
    endloop
  endfacet
  facet normal 0 -0 -1
    outer loop
      vertex -57.3115 1.91227 0
      vertex -58.5267 4.8541 0
      vertex -57.0536 2.18691 0
    endloop
  endfacet
  facet normal 0 -0 -1
    outer loop
      vertex -57.533 1.60748 0
      vertex -59.1073 4.37381 0
      vertex -57.3115 1.91227 0
    endloop
  endfacet
  facet normal 0 -0 -1
    outer loop
      vertex -57.7145 1.27734 0
      vertex -59.1073 4.37381 0
      vertex -57.533 1.60748 0
    endloop
  endfacet
  facet normal 0 0 -1
    outer loop
      vertex -55.376 -2.97634 0
      vertex -54 -5.94545 0
      vertex -55.7461 -2.90575 0
    endloop
  endfacet
  facet normal 0 -0 -1
    outer loop
      vertex -57.8532 0.927051 0
      vertex -59.6231 3.82454 0
      vertex -57.7145 1.27734 0
    endloop
  endfacet
  facet normal 0 -0 -1
    outer loop
      vertex -57.9469 0.562144 0
      vertex -59.6231 3.82454 0
      vertex -57.8532 0.927051 0
    endloop
  endfacet
  facet normal 0 -0 -1
    outer loop
      vertex -57.9941 0.188372 0
      vertex -60.066 3.21496 0
      vertex -57.9469 0.562144 0
    endloop
  endfacet
  facet normal 0 0 -1
    outer loop
      vertex -57.9941 -0.188372 0
      vertex -60.066 3.21496 0
      vertex -57.9941 0.188372 0
    endloop
  endfacet
  facet normal 0 0 -1
    outer loop
      vertex -57.9469 -0.562144 0
      vertex -60.429 2.55468 0
      vertex -57.9941 -0.188372 0
    endloop
  endfacet
  facet normal 0 0 -1
    outer loop
      vertex -57.8532 -0.927051 0
      vertex -60.429 2.55468 0
      vertex -57.9469 -0.562144 0
    endloop
  endfacet
  facet normal 0 0 -1
    outer loop
      vertex -57.7145 -1.27734 0
      vertex -60.7063 1.8541 0
      vertex -57.8532 -0.927051 0
    endloop
  endfacet
  facet normal 0 0 -1
    outer loop
      vertex -57.0536 -2.18691 0
      vertex -54 -5.94545 0
      vertex -57.3115 -1.91227 0
    endloop
  endfacet
  facet normal 0 0 -1
    outer loop
      vertex -57.533 -1.60748 0
      vertex -60.7063 1.8541 0
      vertex -57.7145 -1.27734 0
    endloop
  endfacet
  facet normal 0 0 -1
    outer loop
      vertex -57.3115 -1.91227 0
      vertex -60.7063 1.8541 0
      vertex -57.533 -1.60748 0
    endloop
  endfacet
  facet normal 0 0 -1
    outer loop
      vertex -54 -5.94545 0
      vertex -60.7063 1.8541 0
      vertex -57.3115 -1.91227 0
    endloop
  endfacet
  facet normal 0 0 -1
    outer loop
      vertex -56.7634 -2.42705 0
      vertex -54 -5.94545 0
      vertex -57.0536 -2.18691 0
    endloop
  endfacet
  facet normal 0 0 -1
    outer loop
      vertex -56.4453 -2.62892 0
      vertex -54 -5.94545 0
      vertex -56.7634 -2.42705 0
    endloop
  endfacet
  facet normal 0 0 -1
    outer loop
      vertex -55.7461 -2.90575 0
      vertex -54 -5.94545 0
      vertex -56.1044 -2.78933 0
    endloop
  endfacet
  facet normal 0 0 -1
    outer loop
      vertex -56.1044 -2.78933 0
      vertex -54 -5.94545 0
      vertex -56.4453 -2.62892 0
    endloop
  endfacet
  facet normal 0 0 -1
    outer loop
      vertex -55 -3 0
      vertex -54 -5.94545 0
      vertex -55.376 -2.97634 0
    endloop
  endfacet
  facet normal 0 0 -1
    outer loop
      vertex -53 5.89091 0
      vertex -52.9464 2.18691 0
      vertex -53 2.23128 0
    endloop
  endfacet
  facet normal 0 0 -1
    outer loop
      vertex -54 -5.94545 0
      vertex -54.624 -2.97634 0
      vertex -54.2539 -2.90575 0
    endloop
  endfacet
  facet normal 0 0 -1
    outer loop
      vertex -57 2.23128 0
      vertex -57.8905 5.25784 0
      vertex -57.2087 5.57866 0
    endloop
  endfacet
  facet normal -0 0 -1
    outer loop
      vertex -54.2539 -2.90575 0
      vertex -53.8956 -2.78933 0
      vertex -54 -5.94545 0
    endloop
  endfacet
  facet normal 0 0 -1
    outer loop
      vertex -57 2.23128 0
      vertex -57.2087 5.57866 0
      vertex -57 5.64648 0
    endloop
  endfacet
  facet normal 0 0 -1
    outer loop
      vertex -54.624 -2.97634 0
      vertex -54 -5.94545 0
      vertex -55 -3 0
    endloop
  endfacet
  facet normal -0 0 -1
    outer loop
      vertex -52.0531 -0.562144 0
      vertex 55 -2.44249e-14 0
      vertex -52.1468 -0.927051 0
    endloop
  endfacet
  facet normal -0 0 -1
    outer loop
      vertex -52.0059 -0.188372 0
      vertex 55 -2.44249e-14 0
      vertex -52.0531 -0.562144 0
    endloop
  endfacet
  facet normal 0 0 -1
    outer loop
      vertex -52.0059 0.188372 0
      vertex 55 -2.44249e-14 0
      vertex -52.0059 -0.188372 0
    endloop
  endfacet
  facet normal -0 -0 -1
    outer loop
      vertex -52.1468 0.927051 0
      vertex -53 5.89091 0
      vertex -52.0531 0.562144 0
    endloop
  endfacet
  facet normal -0 -0 -1
    outer loop
      vertex -52.2855 1.27734 0
      vertex -53 5.89091 0
      vertex -52.1468 0.927051 0
    endloop
  endfacet
  facet normal -0 -0 -1
    outer loop
      vertex -52.467 1.60748 0
      vertex -53 5.89091 0
      vertex -52.2855 1.27734 0
    endloop
  endfacet
  facet normal -0 -0 -1
    outer loop
      vertex -52.6885 1.91227 0
      vertex -53 5.89091 0
      vertex -52.467 1.60748 0
    endloop
  endfacet
  facet normal -0 -0 -1
    outer loop
      vertex -52.9464 2.18691 0
      vertex -53 5.89091 0
      vertex -52.6885 1.91227 0
    endloop
  endfacet
  facet normal -0 -0 -1
    outer loop
      vertex -52.0531 0.562144 0
      vertex -53 5.89091 0
      vertex 55 -2.44249e-14 0
    endloop
  endfacet
  facet normal 0 0 -1
    outer loop
      vertex -52.0531 0.562144 0
      vertex 55 -2.44249e-14 0
      vertex -52.0059 0.188372 0
    endloop
  endfacet
  facet normal 0 0 -1
    outer loop
      vertex -54 -5.94545 0
      vertex -53.8956 -2.78933 0
      vertex -53.5547 -2.62892 0
    endloop
  endfacet
  facet normal 0 0 -1
    outer loop
      vertex -54 -5.94545 0
      vertex -53.5547 -2.62892 0
      vertex -53.2366 -2.42705 0
    endloop
  endfacet
  facet normal 0 0 -1
    outer loop
      vertex -54 -5.94545 0
      vertex -53.2366 -2.42705 0
      vertex -52.9464 -2.18691 0
    endloop
  endfacet
  facet normal 0 0 -1
    outer loop
      vertex -54 -5.94545 0
      vertex -52.9464 -2.18691 0
      vertex -52.6885 -1.91227 0
    endloop
  endfacet
  facet normal 0 0 -1
    outer loop
      vertex -54 -5.94545 0
      vertex -52.6885 -1.91227 0
      vertex -52.467 -1.60748 0
    endloop
  endfacet
  facet normal 0 0 -1
    outer loop
      vertex -54 -5.94545 0
      vertex -52.467 -1.60748 0
      vertex -52.2855 -1.27734 0
    endloop
  endfacet
  facet normal 0 0 -1
    outer loop
      vertex -54 -5.94545 0
      vertex -52.2855 -1.27734 0
      vertex -52.1468 -0.927051 0
    endloop
  endfacet
  facet normal 0 0 -1
    outer loop
      vertex -54 -5.94545 0
      vertex -52.1468 -0.927051 0
      vertex 55 -2.44249e-14 0
    endloop
  endfacet
  facet normal -1 -0 -0
    outer loop
      vertex -56 -6 0
      vertex -56 -6 5
      vertex -56 -5.90538 0
    endloop
  endfacet
  facet normal -1 0 -0
    outer loop
      vertex -56 -5.90538 2
      vertex -56 -6 5
      vertex -56 -3.87263 5
    endloop
  endfacet
  facet normal -1 0 0
    outer loop
      vertex -56 -5.90538 0
      vertex -56 -6 5
      vertex -56 -5.90538 2
    endloop
  endfacet
  facet normal -1 -0 0
    outer loop
      vertex -56 -5.90538 2
      vertex -56 -3.87263 5
      vertex -56 -3.87263 2
    endloop
  endfacet
  facet normal -0 0 1
    outer loop
      vertex -53.5275 -3.71911 5
      vertex -53.073 -3.50523 5
      vertex -54 -3.87263 5
    endloop
  endfacet
  facet normal 0 0 1
    outer loop
      vertex -56 -6 5
      vertex -54 -6 5
      vertex -54 -3.87263 5
    endloop
  endfacet
  facet normal 0 0 1
    outer loop
      vertex -53.2366 -2.42705 5
      vertex -56 -6 5
      vertex -54 -3.87263 5
    endloop
  endfacet
  facet normal -0 0 1
    outer loop
      vertex -53.073 -3.50523 5
      vertex -52.6489 -3.23607 5
      vertex -54 -3.87263 5
    endloop
  endfacet
  facet normal -0 0 1
    outer loop
      vertex -52.6489 -3.23607 5
      vertex -52.2618 -2.91588 5
      vertex -54 -3.87263 5
    endloop
  endfacet
  facet normal -0 0 1
    outer loop
      vertex -52.2618 -2.91588 5
      vertex -51.9179 -2.5497 5
      vertex -54 -3.87263 5
    endloop
  endfacet
  facet normal -0 0 1
    outer loop
      vertex -51.9179 -2.5497 5
      vertex -51.6227 -2.14331 5
      vertex -54 -3.87263 5
    endloop
  endfacet
  facet normal -0 0 1
    outer loop
      vertex -51.6227 -2.14331 5
      vertex -51.3807 -1.70312 5
      vertex -54 -3.87263 5
    endloop
  endfacet
  facet normal -0 0 1
    outer loop
      vertex -51.3807 -1.70312 5
      vertex -51.1958 -1.23607 5
      vertex -54 -3.87263 5
    endloop
  endfacet
  facet normal -0 0 1
    outer loop
      vertex -51.1958 -1.23607 5
      vertex -51.1261 -0.964783 5
      vertex -54 -3.87263 5
    endloop
  endfacet
  facet normal -0 0 1
    outer loop
      vertex -55.376 -2.97634 5
      vertex -55.7461 -2.90575 5
      vertex -56 -6 5
    endloop
  endfacet
  facet normal -0 0 1
    outer loop
      vertex 55 -2.44249e-14 5
      vertex -51.1261 0.964783 5
      vertex -51.1261 -0.964783 5
    endloop
  endfacet
  facet normal 0 0 1
    outer loop
      vertex -52.467 1.60748 5
      vertex -52.2855 1.27734 5
      vertex -51.9179 2.5497 5
    endloop
  endfacet
  facet normal -0 0 1
    outer loop
      vertex -55 -3 5
      vertex -55.376 -2.97634 5
      vertex -56 -6 5
    endloop
  endfacet
  facet normal -0 0 1
    outer loop
      vertex -52.2618 2.91587 5
      vertex -52.6489 3.23607 5
      vertex -53 2.23128 5
    endloop
  endfacet
  facet normal 0 0 1
    outer loop
      vertex -52.2618 2.91587 5
      vertex -53 2.23128 5
      vertex -52.9464 2.18691 5
    endloop
  endfacet
  facet normal 0 0 1
    outer loop
      vertex -52.1468 0.927051 5
      vertex -52.0531 0.562144 5
      vertex -51.3807 1.70312 5
    endloop
  endfacet
  facet normal 0 0 1
    outer loop
      vertex -52.2618 2.91587 5
      vertex -52.9464 2.18691 5
      vertex -52.6885 1.91227 5
    endloop
  endfacet
  facet normal 0 0 1
    outer loop
      vertex -52.2855 1.27734 5
      vertex -52.1468 0.927051 5
      vertex -51.6227 2.14331 5
    endloop
  endfacet
  facet normal -0 0 1
    outer loop
      vertex -51.9179 2.5497 5
      vertex -52.2618 2.91587 5
      vertex -52.467 1.60748 5
    endloop
  endfacet
  facet normal -0 0 1
    outer loop
      vertex -51.6227 2.14331 5
      vertex -51.9179 2.5497 5
      vertex -52.2855 1.27734 5
    endloop
  endfacet
  facet normal 0 0 1
    outer loop
      vertex -54.624 -2.97634 5
      vertex -55 -3 5
      vertex -56 -6 5
    endloop
  endfacet
  facet normal -0 0 1
    outer loop
      vertex -51.3807 1.70312 5
      vertex -51.6227 2.14331 5
      vertex -52.1468 0.927051 5
    endloop
  endfacet
  facet normal -0 0 1
    outer loop
      vertex -51.1958 1.23607 5
      vertex -51.3807 1.70312 5
      vertex -52.0531 0.562144 5
    endloop
  endfacet
  facet normal 0 0 1
    outer loop
      vertex -51.1958 1.23607 5
      vertex -52.0531 0.562144 5
      vertex -52.0059 0.188372 5
    endloop
  endfacet
  facet normal 0 -0 1
    outer loop
      vertex -52.0531 -0.562144 5
      vertex -52.1468 -0.927051 5
      vertex -51.1261 0.964783 5
    endloop
  endfacet
  facet normal -0 0 1
    outer loop
      vertex -51.1261 0.964783 5
      vertex -51.1958 1.23607 5
      vertex -52.0059 -0.188372 5
    endloop
  endfacet
  facet normal 0 0 1
    outer loop
      vertex -52.6885 -1.91227 5
      vertex -52.9464 -2.18691 5
      vertex -54 -3.87263 5
    endloop
  endfacet
  facet normal 0 0 1
    outer loop
      vertex -52.9464 -2.18691 5
      vertex -53.2366 -2.42705 5
      vertex -54 -3.87263 5
    endloop
  endfacet
  facet normal 0 0 1
    outer loop
      vertex -51.1261 -0.964783 5
      vertex -51.1261 0.964783 5
      vertex -52.1468 -0.927051 5
    endloop
  endfacet
  facet normal 0 0 1
    outer loop
      vertex -53.8956 -2.78933 5
      vertex -54.2539 -2.90575 5
      vertex -56 -6 5
    endloop
  endfacet
  facet normal -0 0 1
    outer loop
      vertex -51.1261 -0.964783 5
      vertex -52.1468 -0.927051 5
      vertex -52.2855 -1.27734 5
    endloop
  endfacet
  facet normal 0 0 1
    outer loop
      vertex -51.1261 -0.964783 5
      vertex -52.467 -1.60748 5
      vertex -54 -3.87263 5
    endloop
  endfacet
  facet normal 0 0 1
    outer loop
      vertex -51.1261 -0.964783 5
      vertex -52.2855 -1.27734 5
      vertex -52.467 -1.60748 5
    endloop
  endfacet
  facet normal 0 0 1
    outer loop
      vertex -52.467 -1.60748 5
      vertex -52.6885 -1.91227 5
      vertex -54 -3.87263 5
    endloop
  endfacet
  facet normal 0 0 1
    outer loop
      vertex -53.5547 -2.62892 5
      vertex -53.8956 -2.78933 5
      vertex -56 -6 5
    endloop
  endfacet
  facet normal 0 0 1
    outer loop
      vertex -53.2366 -2.42705 5
      vertex -53.5547 -2.62892 5
      vertex -56 -6 5
    endloop
  endfacet
  facet normal 0 -0 1
    outer loop
      vertex -52.0059 -0.188372 5
      vertex -52.0531 -0.562144 5
      vertex -51.1261 0.964783 5
    endloop
  endfacet
  facet normal 0 -0 1
    outer loop
      vertex -52.0059 0.188372 5
      vertex -52.0059 -0.188372 5
      vertex -51.1958 1.23607 5
    endloop
  endfacet
  facet normal 0 0 1
    outer loop
      vertex -52.6885 1.91227 5
      vertex -52.467 1.60748 5
      vertex -52.2618 2.91587 5
    endloop
  endfacet
  facet normal 0 0 1
    outer loop
      vertex -56.4725 -3.71911 5
      vertex -56.1044 -2.78933 5
      vertex -56.4453 -2.62892 5
    endloop
  endfacet
  facet normal 0 0 1
    outer loop
      vertex -56.4725 -3.71911 5
      vertex -56 -3.87263 5
      vertex -56.1044 -2.78933 5
    endloop
  endfacet
  facet normal -0 -0 1
    outer loop
      vertex -57.9469 -0.562144 5
      vertex -58.6193 1.70312 5
      vertex -57.8532 -0.927051 5
    endloop
  endfacet
  facet normal -0 -0 1
    outer loop
      vertex -57.9941 -0.188372 5
      vertex -58.3773 2.14331 5
      vertex -57.9469 -0.562144 5
    endloop
  endfacet
  facet normal -0 0 1
    outer loop
      vertex -57.9941 0.188372 5
      vertex -58.0821 2.5497 5
      vertex -57.9941 -0.188372 5
    endloop
  endfacet
  facet normal -0 0 1
    outer loop
      vertex -57.9469 0.562144 5
      vertex -57.7382 2.91588 5
      vertex -57.9941 0.188372 5
    endloop
  endfacet
  facet normal -0 0 1
    outer loop
      vertex -57.8532 0.927051 5
      vertex -57.3511 3.23607 5
      vertex -57.9469 0.562144 5
    endloop
  endfacet
  facet normal -0 0 1
    outer loop
      vertex -57.7145 1.27734 5
      vertex -57 3.45891 5
      vertex -57.8532 0.927051 5
    endloop
  endfacet
  facet normal -0 0 1
    outer loop
      vertex -57.533 1.60748 5
      vertex -57 3.45891 5
      vertex -57.7145 1.27734 5
    endloop
  endfacet
  facet normal -0 0 1
    outer loop
      vertex -57.3115 1.91227 5
      vertex -57 3.45891 5
      vertex -57.533 1.60748 5
    endloop
  endfacet
  facet normal -0 0 1
    outer loop
      vertex -57.0536 2.18691 5
      vertex -57 3.45891 5
      vertex -57.3115 1.91227 5
    endloop
  endfacet
  facet normal -0 0 1
    outer loop
      vertex -57 2.23128 5
      vertex -57 3.45891 5
      vertex -57.0536 2.18691 5
    endloop
  endfacet
  facet normal 0 0 1
    outer loop
      vertex -56.927 -3.50523 5
      vertex -57.3115 -1.91227 5
      vertex -57.533 -1.60748 5
    endloop
  endfacet
  facet normal 0 0 1
    outer loop
      vertex -57 3.45891 5
      vertex -57.3511 3.23607 5
      vertex -57.8532 0.927051 5
    endloop
  endfacet
  facet normal 0 0 1
    outer loop
      vertex -57.3511 3.23607 5
      vertex -57.7382 2.91588 5
      vertex -57.9469 0.562144 5
    endloop
  endfacet
  facet normal 0 0 1
    outer loop
      vertex -57.7382 2.91588 5
      vertex -58.0821 2.5497 5
      vertex -57.9941 0.188372 5
    endloop
  endfacet
  facet normal 0 -0 1
    outer loop
      vertex -58.0821 2.5497 5
      vertex -58.3773 2.14331 5
      vertex -57.9941 -0.188372 5
    endloop
  endfacet
  facet normal 0 -0 1
    outer loop
      vertex -58.3773 2.14331 5
      vertex -58.6193 1.70312 5
      vertex -57.9469 -0.562144 5
    endloop
  endfacet
  facet normal 0 -0 1
    outer loop
      vertex -58.6193 1.70312 5
      vertex -58.8042 1.23607 5
      vertex -57.8532 -0.927051 5
    endloop
  endfacet
  facet normal 0 0 1
    outer loop
      vertex -56.927 -3.50523 5
      vertex -57.7145 -1.27734 5
      vertex -57.8532 -0.927051 5
    endloop
  endfacet
  facet normal 0 0 1
    outer loop
      vertex -56.927 -3.50523 5
      vertex -57.0536 -2.18691 5
      vertex -57.3115 -1.91227 5
    endloop
  endfacet
  facet normal -0 0 1
    outer loop
      vertex -58.8648 1 5
      vertex -61 1 5
      vertex -58.8648 -1 5
    endloop
  endfacet
  facet normal 0 0 1
    outer loop
      vertex -57.3511 -3.23607 5
      vertex -58.8042 1.23607 5
      vertex -58.8648 1 5
    endloop
  endfacet
  facet normal 0 0 1
    outer loop
      vertex -58.3773 -2.14331 5
      vertex -58.0821 -2.5497 5
      vertex -58.6193 -1.70312 5
    endloop
  endfacet
  facet normal 0 0 1
    outer loop
      vertex -58.0821 -2.5497 5
      vertex -58.8648 -1 5
      vertex -58.8042 -1.23607 5
    endloop
  endfacet
  facet normal 0 0 1
    outer loop
      vertex -58.0821 -2.5497 5
      vertex -57.7382 -2.91587 5
      vertex -58.8648 -1 5
    endloop
  endfacet
  facet normal 0 0 1
    outer loop
      vertex -57.3511 -3.23607 5
      vertex -56.927 -3.50523 5
      vertex -58.8042 1.23607 5
    endloop
  endfacet
  facet normal 0 0 1
    outer loop
      vertex -58.8042 -1.23607 5
      vertex -58.6193 -1.70312 5
      vertex -58.0821 -2.5497 5
    endloop
  endfacet
  facet normal 0 -0 1
    outer loop
      vertex -58.8648 1 5
      vertex -58.8648 -1 5
      vertex -57.7382 -2.91587 5
    endloop
  endfacet
  facet normal 0 0 1
    outer loop
      vertex -56.927 -3.50523 5
      vertex -57.533 -1.60748 5
      vertex -57.7145 -1.27734 5
    endloop
  endfacet
  facet normal 0 0 1
    outer loop
      vertex -58.8648 1 5
      vertex -57.7382 -2.91587 5
      vertex -57.3511 -3.23607 5
    endloop
  endfacet
  facet normal -0 -0 1
    outer loop
      vertex -57.8532 -0.927051 5
      vertex -58.8042 1.23607 5
      vertex -56.927 -3.50523 5
    endloop
  endfacet
  facet normal -0 0 1
    outer loop
      vertex -56.4453 -2.62892 5
      vertex -56.7634 -2.42705 5
      vertex -56.4725 -3.71911 5
    endloop
  endfacet
  facet normal 0 0 1
    outer loop
      vertex -55.7461 -2.90575 5
      vertex -56 -3.87263 5
      vertex -56 -6 5
    endloop
  endfacet
  facet normal -0 0 1
    outer loop
      vertex -55.7461 -2.90575 5
      vertex -56.1044 -2.78933 5
      vertex -56 -3.87263 5
    endloop
  endfacet
  facet normal 0 -0 1
    outer loop
      vertex -53 3.45891 5
      vertex -53 2.23128 5
      vertex -52.6489 3.23607 5
    endloop
  endfacet
  facet normal 0 0 1
    outer loop
      vertex -54.2539 -2.90575 5
      vertex -54.624 -2.97634 5
      vertex -56 -6 5
    endloop
  endfacet
  facet normal 0 0 1
    outer loop
      vertex -61 -1 5
      vertex -58.8648 -1 5
      vertex -61 1 5
    endloop
  endfacet
  facet normal 0 0 1
    outer loop
      vertex -56.927 -3.50523 5
      vertex -56.7634 -2.42705 5
      vertex -57.0536 -2.18691 5
    endloop
  endfacet
  facet normal 0 0 1
    outer loop
      vertex -56.927 -3.50523 5
      vertex -56.4725 -3.71911 5
      vertex -56.7634 -2.42705 5
    endloop
  endfacet
  facet normal 0.309018 -0.951056 0
    outer loop
      vertex -54 -3.87263 5
      vertex -54 -3.87263 2
      vertex -53.5275 -3.71911 2
    endloop
  endfacet
  facet normal 0.309018 -0.951056 0
    outer loop
      vertex -53.5275 -3.71911 5
      vertex -54 -3.87263 5
      vertex -53.5275 -3.71911 2
    endloop
  endfacet
  facet normal 0 -0 1
    outer loop
      vertex -54 -3.87263 2
      vertex -54 -5.94545 2
      vertex 55 -2.44249e-14 2
    endloop
  endfacet
  facet normal 0 -0 1
    outer loop
      vertex -53.5275 -3.71911 2
      vertex -54 -3.87263 2
      vertex 55 -2.44249e-14 2
    endloop
  endfacet
  facet normal 0 -0 1
    outer loop
      vertex -51.1261 -0.964783 2
      vertex -51.1958 -1.23607 2
      vertex 55 -2.44249e-14 2
    endloop
  endfacet
  facet normal 0 -0 1
    outer loop
      vertex -51.1958 -1.23607 2
      vertex -51.3807 -1.70312 2
      vertex 55 -2.44249e-14 2
    endloop
  endfacet
  facet normal 0 -0 1
    outer loop
      vertex -51.3807 -1.70312 2
      vertex -51.6227 -2.14331 2
      vertex 55 -2.44249e-14 2
    endloop
  endfacet
  facet normal 0 -0 1
    outer loop
      vertex -51.6227 -2.14331 2
      vertex -51.9179 -2.5497 2
      vertex 55 -2.44249e-14 2
    endloop
  endfacet
  facet normal 0 -0 1
    outer loop
      vertex -51.9179 -2.5497 2
      vertex -52.2618 -2.91588 2
      vertex 55 -2.44249e-14 2
    endloop
  endfacet
  facet normal 0 -0 1
    outer loop
      vertex -52.2618 -2.91588 2
      vertex -52.6489 -3.23607 2
      vertex 55 -2.44249e-14 2
    endloop
  endfacet
  facet normal 0 -0 1
    outer loop
      vertex -52.6489 -3.23607 2
      vertex -53.073 -3.50523 2
      vertex 55 -2.44249e-14 2
    endloop
  endfacet
  facet normal 0 -0 1
    outer loop
      vertex -53.073 -3.50523 2
      vertex -53.5275 -3.71911 2
      vertex 55 -2.44249e-14 2
    endloop
  endfacet
  facet normal 0.0544645 -0.998516 0
    outer loop
      vertex -54 -5.94545 2
      vertex -54 -5.94545 0
      vertex 55 -2.44249e-14 0
    endloop
  endfacet
  facet normal 0.0544645 -0.998516 0
    outer loop
      vertex 55 -2.44249e-14 2
      vertex -54 -5.94545 2
      vertex 55 -2.44249e-14 0
    endloop
  endfacet
  facet normal 0.0544645 0.998516 0
    outer loop
      vertex 55 -2.44249e-14 0
      vertex -53 5.89091 0
      vertex 55 -2.44249e-14 2
    endloop
  endfacet
  facet normal 0.0544645 0.998516 0
    outer loop
      vertex 55 -2.44249e-14 2
      vertex -53 5.89091 0
      vertex -53 5.89091 2
    endloop
  endfacet
  facet normal -1 0 0
    outer loop
      vertex -53 3.45891 5
      vertex -53 3.45891 2
      vertex -53 2.23128 5
    endloop
  endfacet
  facet normal -1 0 0
    outer loop
      vertex -53 5.89091 0
      vertex -53 3.45891 2
      vertex -53 5.89091 2
    endloop
  endfacet
  facet normal -1 -0 0
    outer loop
      vertex -53 2.23128 0
      vertex -53 3.45891 2
      vertex -53 5.89091 0
    endloop
  endfacet
  facet normal -1 0 0
    outer loop
      vertex -53 2.23128 5
      vertex -53 3.45891 2
      vertex -53 2.23128 0
    endloop
  endfacet
  facet normal -0.637425 -0.770513 0
    outer loop
      vertex -52.9464 2.18691 5
      vertex -53 2.23128 5
      vertex -53 2.23128 0
    endloop
  endfacet
  facet normal -0.637425 -0.770513 -0
    outer loop
      vertex -52.9464 2.18691 0
      vertex -52.9464 2.18691 5
      vertex -53 2.23128 0
    endloop
  endfacet
  facet normal -0.728968 -0.684548 0
    outer loop
      vertex -52.9464 2.18691 5
      vertex -52.9464 2.18691 0
      vertex -52.6885 1.91227 5
    endloop
  endfacet
  facet normal -0.728968 -0.684548 0
    outer loop
      vertex -52.6885 1.91227 5
      vertex -52.9464 2.18691 0
      vertex -52.6885 1.91227 0
    endloop
  endfacet
  facet normal -0.809017 -0.587785 0
    outer loop
      vertex -52.6885 1.91227 5
      vertex -52.6885 1.91227 0
      vertex -52.467 1.60748 5
    endloop
  endfacet
  facet normal -0.809017 -0.587785 0
    outer loop
      vertex -52.467 1.60748 5
      vertex -52.6885 1.91227 0
      vertex -52.467 1.60748 0
    endloop
  endfacet
  facet normal -0.876307 -0.481753 0
    outer loop
      vertex -52.467 1.60748 5
      vertex -52.467 1.60748 0
      vertex -52.2855 1.27734 5
    endloop
  endfacet
  facet normal -0.876307 -0.481753 0
    outer loop
      vertex -52.2855 1.27734 5
      vertex -52.467 1.60748 0
      vertex -52.2855 1.27734 0
    endloop
  endfacet
  facet normal -0.929776 -0.368126 0
    outer loop
      vertex -52.2855 1.27734 5
      vertex -52.2855 1.27734 0
      vertex -52.1468 0.927051 5
    endloop
  endfacet
  facet normal -0.929776 -0.368126 0
    outer loop
      vertex -52.1468 0.927051 5
      vertex -52.2855 1.27734 0
      vertex -52.1468 0.927051 0
    endloop
  endfacet
  facet normal -0.968583 -0.248689 0
    outer loop
      vertex -52.1468 0.927051 5
      vertex -52.1468 0.927051 0
      vertex -52.0531 0.562144 5
    endloop
  endfacet
  facet normal -0.968583 -0.248689 0
    outer loop
      vertex -52.0531 0.562144 5
      vertex -52.1468 0.927051 0
      vertex -52.0531 0.562144 0
    endloop
  endfacet
  facet normal -0.992115 -0.125332 0
    outer loop
      vertex -52.0531 0.562144 5
      vertex -52.0531 0.562144 0
      vertex -52.0059 0.188372 5
    endloop
  endfacet
  facet normal -0.992115 -0.125332 0
    outer loop
      vertex -52.0059 0.188372 5
      vertex -52.0531 0.562144 0
      vertex -52.0059 0.188372 0
    endloop
  endfacet
  facet normal -1 0 0
    outer loop
      vertex -52.0059 0.188372 5
      vertex -52.0059 0.188372 0
      vertex -52.0059 -0.188372 5
    endloop
  endfacet
  facet normal -1 0 0
    outer loop
      vertex -52.0059 -0.188372 5
      vertex -52.0059 0.188372 0
      vertex -52.0059 -0.188372 0
    endloop
  endfacet
  facet normal -0.992115 0.125332 0
    outer loop
      vertex -52.0059 -0.188372 5
      vertex -52.0059 -0.188372 0
      vertex -52.0531 -0.562144 5
    endloop
  endfacet
  facet normal -0.992115 0.125332 0
    outer loop
      vertex -52.0531 -0.562144 5
      vertex -52.0059 -0.188372 0
      vertex -52.0531 -0.562144 0
    endloop
  endfacet
  facet normal -0.968583 0.248689 0
    outer loop
      vertex -52.0531 -0.562144 5
      vertex -52.0531 -0.562144 0
      vertex -52.1468 -0.927051 5
    endloop
  endfacet
  facet normal -0.968583 0.248689 0
    outer loop
      vertex -52.1468 -0.927051 5
      vertex -52.0531 -0.562144 0
      vertex -52.1468 -0.927051 0
    endloop
  endfacet
  facet normal -0.929776 0.368126 0
    outer loop
      vertex -52.1468 -0.927051 5
      vertex -52.1468 -0.927051 0
      vertex -52.2855 -1.27734 5
    endloop
  endfacet
  facet normal -0.929776 0.368126 0
    outer loop
      vertex -52.2855 -1.27734 5
      vertex -52.1468 -0.927051 0
      vertex -52.2855 -1.27734 0
    endloop
  endfacet
  facet normal -0.876307 0.481753 0
    outer loop
      vertex -52.2855 -1.27734 5
      vertex -52.2855 -1.27734 0
      vertex -52.467 -1.60748 5
    endloop
  endfacet
  facet normal -0.876307 0.481753 0
    outer loop
      vertex -52.467 -1.60748 5
      vertex -52.2855 -1.27734 0
      vertex -52.467 -1.60748 0
    endloop
  endfacet
  facet normal -0.809017 0.587785 0
    outer loop
      vertex -52.467 -1.60748 5
      vertex -52.467 -1.60748 0
      vertex -52.6885 -1.91227 5
    endloop
  endfacet
  facet normal -0.809017 0.587785 0
    outer loop
      vertex -52.6885 -1.91227 5
      vertex -52.467 -1.60748 0
      vertex -52.6885 -1.91227 0
    endloop
  endfacet
  facet normal -0.728968 0.684548 0
    outer loop
      vertex -52.6885 -1.91227 5
      vertex -52.6885 -1.91227 0
      vertex -52.9464 -2.18691 5
    endloop
  endfacet
  facet normal -0.728968 0.684548 0
    outer loop
      vertex -52.9464 -2.18691 5
      vertex -52.6885 -1.91227 0
      vertex -52.9464 -2.18691 0
    endloop
  endfacet
  facet normal -0.637425 0.770513 0
    outer loop
      vertex -52.9464 -2.18691 5
      vertex -52.9464 -2.18691 0
      vertex -53.2366 -2.42705 5
    endloop
  endfacet
  facet normal -0.637425 0.770513 0
    outer loop
      vertex -53.2366 -2.42705 5
      vertex -52.9464 -2.18691 0
      vertex -53.2366 -2.42705 0
    endloop
  endfacet
  facet normal -0.535826 0.844328 0
    outer loop
      vertex -53.2366 -2.42705 5
      vertex -53.2366 -2.42705 0
      vertex -53.5547 -2.62892 5
    endloop
  endfacet
  facet normal -0.535826 0.844328 0
    outer loop
      vertex -53.5547 -2.62892 5
      vertex -53.2366 -2.42705 0
      vertex -53.5547 -2.62892 0
    endloop
  endfacet
  facet normal -0.425779 0.904827 0
    outer loop
      vertex -53.5547 -2.62892 5
      vertex -53.5547 -2.62892 0
      vertex -53.8956 -2.78933 5
    endloop
  endfacet
  facet normal -0.425779 0.904827 0
    outer loop
      vertex -53.8956 -2.78933 5
      vertex -53.5547 -2.62892 0
      vertex -53.8956 -2.78933 0
    endloop
  endfacet
  facet normal -0.309017 0.951057 0
    outer loop
      vertex -53.8956 -2.78933 5
      vertex -53.8956 -2.78933 0
      vertex -54.2539 -2.90575 5
    endloop
  endfacet
  facet normal -0.309017 0.951057 0
    outer loop
      vertex -54.2539 -2.90575 5
      vertex -53.8956 -2.78933 0
      vertex -54.2539 -2.90575 0
    endloop
  endfacet
  facet normal -0.187382 0.982287 0
    outer loop
      vertex -54.2539 -2.90575 5
      vertex -54.2539 -2.90575 0
      vertex -54.624 -2.97634 5
    endloop
  endfacet
  facet normal -0.187382 0.982287 0
    outer loop
      vertex -54.624 -2.97634 5
      vertex -54.2539 -2.90575 0
      vertex -54.624 -2.97634 0
    endloop
  endfacet
  facet normal -0.0627907 0.998027 0
    outer loop
      vertex -54.624 -2.97634 5
      vertex -54.624 -2.97634 0
      vertex -55 -3 5
    endloop
  endfacet
  facet normal -0.0627907 0.998027 0
    outer loop
      vertex -55 -3 5
      vertex -54.624 -2.97634 0
      vertex -55 -3 0
    endloop
  endfacet
  facet normal 0.0627907 0.998027 -0
    outer loop
      vertex -55.376 -2.97634 5
      vertex -55 -3 5
      vertex -55.376 -2.97634 0
    endloop
  endfacet
  facet normal 0.0627907 0.998027 0
    outer loop
      vertex -55.376 -2.97634 0
      vertex -55 -3 5
      vertex -55 -3 0
    endloop
  endfacet
  facet normal 0.187382 0.982287 -0
    outer loop
      vertex -55.7461 -2.90575 5
      vertex -55.376 -2.97634 5
      vertex -55.7461 -2.90575 0
    endloop
  endfacet
  facet normal 0.187382 0.982287 0
    outer loop
      vertex -55.7461 -2.90575 0
      vertex -55.376 -2.97634 5
      vertex -55.376 -2.97634 0
    endloop
  endfacet
  facet normal 0.309017 0.951057 -0
    outer loop
      vertex -56.1044 -2.78933 5
      vertex -55.7461 -2.90575 5
      vertex -56.1044 -2.78933 0
    endloop
  endfacet
  facet normal 0.309017 0.951057 0
    outer loop
      vertex -56.1044 -2.78933 0
      vertex -55.7461 -2.90575 5
      vertex -55.7461 -2.90575 0
    endloop
  endfacet
  facet normal 0.425779 0.904827 -0
    outer loop
      vertex -56.4453 -2.62892 5
      vertex -56.1044 -2.78933 5
      vertex -56.4453 -2.62892 0
    endloop
  endfacet
  facet normal 0.425779 0.904827 0
    outer loop
      vertex -56.4453 -2.62892 0
      vertex -56.1044 -2.78933 5
      vertex -56.1044 -2.78933 0
    endloop
  endfacet
  facet normal 0.535826 0.844328 -0
    outer loop
      vertex -56.7634 -2.42705 5
      vertex -56.4453 -2.62892 5
      vertex -56.7634 -2.42705 0
    endloop
  endfacet
  facet normal 0.535826 0.844328 0
    outer loop
      vertex -56.7634 -2.42705 0
      vertex -56.4453 -2.62892 5
      vertex -56.4453 -2.62892 0
    endloop
  endfacet
  facet normal 0.637425 0.770513 -0
    outer loop
      vertex -57.0536 -2.18691 5
      vertex -56.7634 -2.42705 5
      vertex -57.0536 -2.18691 0
    endloop
  endfacet
  facet normal 0.637425 0.770513 0
    outer loop
      vertex -57.0536 -2.18691 0
      vertex -56.7634 -2.42705 5
      vertex -56.7634 -2.42705 0
    endloop
  endfacet
  facet normal 0.728968 0.684548 0
    outer loop
      vertex -57.3115 -1.91227 0
      vertex -57.3115 -1.91227 5
      vertex -57.0536 -2.18691 5
    endloop
  endfacet
  facet normal 0.728968 0.684548 0
    outer loop
      vertex -57.0536 -2.18691 0
      vertex -57.3115 -1.91227 0
      vertex -57.0536 -2.18691 5
    endloop
  endfacet
  facet normal 0.809017 0.587785 0
    outer loop
      vertex -57.533 -1.60748 0
      vertex -57.533 -1.60748 5
      vertex -57.3115 -1.91227 5
    endloop
  endfacet
  facet normal 0.809017 0.587785 0
    outer loop
      vertex -57.3115 -1.91227 0
      vertex -57.533 -1.60748 0
      vertex -57.3115 -1.91227 5
    endloop
  endfacet
  facet normal 0.876307 0.481753 0
    outer loop
      vertex -57.7145 -1.27734 0
      vertex -57.7145 -1.27734 5
      vertex -57.533 -1.60748 5
    endloop
  endfacet
  facet normal 0.876307 0.481753 0
    outer loop
      vertex -57.533 -1.60748 0
      vertex -57.7145 -1.27734 0
      vertex -57.533 -1.60748 5
    endloop
  endfacet
  facet normal 0.929776 0.368126 0
    outer loop
      vertex -57.8532 -0.927051 0
      vertex -57.8532 -0.927051 5
      vertex -57.7145 -1.27734 5
    endloop
  endfacet
  facet normal 0.929776 0.368126 0
    outer loop
      vertex -57.7145 -1.27734 0
      vertex -57.8532 -0.927051 0
      vertex -57.7145 -1.27734 5
    endloop
  endfacet
  facet normal 0.968583 0.248689 0
    outer loop
      vertex -57.9469 -0.562144 0
      vertex -57.9469 -0.562144 5
      vertex -57.8532 -0.927051 5
    endloop
  endfacet
  facet normal 0.968583 0.248689 0
    outer loop
      vertex -57.8532 -0.927051 0
      vertex -57.9469 -0.562144 0
      vertex -57.8532 -0.927051 5
    endloop
  endfacet
  facet normal 0.992115 0.125332 0
    outer loop
      vertex -57.9941 -0.188372 0
      vertex -57.9941 -0.188372 5
      vertex -57.9469 -0.562144 5
    endloop
  endfacet
  facet normal 0.992115 0.125332 0
    outer loop
      vertex -57.9469 -0.562144 0
      vertex -57.9941 -0.188372 0
      vertex -57.9469 -0.562144 5
    endloop
  endfacet
  facet normal 1 0 0
    outer loop
      vertex -57.9941 0.188372 0
      vertex -57.9941 0.188372 5
      vertex -57.9941 -0.188372 5
    endloop
  endfacet
  facet normal 1 0 0
    outer loop
      vertex -57.9941 -0.188372 0
      vertex -57.9941 0.188372 0
      vertex -57.9941 -0.188372 5
    endloop
  endfacet
  facet normal 0.992115 -0.125332 0
    outer loop
      vertex -57.9469 0.562144 0
      vertex -57.9469 0.562144 5
      vertex -57.9941 0.188372 5
    endloop
  endfacet
  facet normal 0.992115 -0.125332 0
    outer loop
      vertex -57.9941 0.188372 0
      vertex -57.9469 0.562144 0
      vertex -57.9941 0.188372 5
    endloop
  endfacet
  facet normal 0.968583 -0.248689 0
    outer loop
      vertex -57.8532 0.927051 0
      vertex -57.8532 0.927051 5
      vertex -57.9469 0.562144 5
    endloop
  endfacet
  facet normal 0.968583 -0.248689 0
    outer loop
      vertex -57.9469 0.562144 0
      vertex -57.8532 0.927051 0
      vertex -57.9469 0.562144 5
    endloop
  endfacet
  facet normal 0.929776 -0.368126 0
    outer loop
      vertex -57.7145 1.27734 0
      vertex -57.7145 1.27734 5
      vertex -57.8532 0.927051 5
    endloop
  endfacet
  facet normal 0.929776 -0.368126 0
    outer loop
      vertex -57.8532 0.927051 0
      vertex -57.7145 1.27734 0
      vertex -57.8532 0.927051 5
    endloop
  endfacet
  facet normal 0.876307 -0.481753 0
    outer loop
      vertex -57.533 1.60748 0
      vertex -57.533 1.60748 5
      vertex -57.7145 1.27734 5
    endloop
  endfacet
  facet normal 0.876307 -0.481753 0
    outer loop
      vertex -57.7145 1.27734 0
      vertex -57.533 1.60748 0
      vertex -57.7145 1.27734 5
    endloop
  endfacet
  facet normal 0.809017 -0.587785 0
    outer loop
      vertex -57.3115 1.91227 0
      vertex -57.3115 1.91227 5
      vertex -57.533 1.60748 5
    endloop
  endfacet
  facet normal 0.809017 -0.587785 0
    outer loop
      vertex -57.533 1.60748 0
      vertex -57.3115 1.91227 0
      vertex -57.533 1.60748 5
    endloop
  endfacet
  facet normal 0.728968 -0.684548 0
    outer loop
      vertex -57.0536 2.18691 0
      vertex -57.0536 2.18691 5
      vertex -57.3115 1.91227 5
    endloop
  endfacet
  facet normal 0.728968 -0.684548 0
    outer loop
      vertex -57.3115 1.91227 0
      vertex -57.0536 2.18691 0
      vertex -57.3115 1.91227 5
    endloop
  endfacet
  facet normal 0.637425 -0.770513 0
    outer loop
      vertex -57 2.23128 0
      vertex -57 2.23128 5
      vertex -57.0536 2.18691 5
    endloop
  endfacet
  facet normal 0.637425 -0.770513 0
    outer loop
      vertex -57.0536 2.18691 0
      vertex -57 2.23128 0
      vertex -57.0536 2.18691 5
    endloop
  endfacet
  facet normal 1 0 0
    outer loop
      vertex -57 5.64648 0
      vertex -57 5.64648 2
      vertex -57 3.45891 2
    endloop
  endfacet
  facet normal 1 0 0
    outer loop
      vertex -57 2.23128 0
      vertex -57 5.64648 0
      vertex -57 3.45891 2
    endloop
  endfacet
  facet normal 1 0 0
    outer loop
      vertex -57 3.45891 5
      vertex -57 2.23128 5
      vertex -57 3.45891 2
    endloop
  endfacet
  facet normal 1 0 -0
    outer loop
      vertex -57 2.23128 5
      vertex -57 2.23128 0
      vertex -57 3.45891 2
    endloop
  endfacet
  facet normal -0.309017 0.951057 0
    outer loop
      vertex -57.2087 5.57866 0
      vertex -57.2087 5.57866 2
      vertex -57 5.64648 0
    endloop
  endfacet
  facet normal -0.309017 0.951057 0
    outer loop
      vertex -57 5.64648 0
      vertex -57.2087 5.57866 2
      vertex -57 5.64648 2
    endloop
  endfacet
  facet normal -0.425779 0.904827 0
    outer loop
      vertex -57.8905 5.25784 0
      vertex -57.8905 5.25784 2
      vertex -57.2087 5.57866 0
    endloop
  endfacet
  facet normal -0.425779 0.904827 0
    outer loop
      vertex -57.2087 5.57866 0
      vertex -57.8905 5.25784 2
      vertex -57.2087 5.57866 2
    endloop
  endfacet
  facet normal -0.535826 0.844328 0
    outer loop
      vertex -58.5267 4.8541 0
      vertex -58.5267 4.8541 2
      vertex -57.8905 5.25784 0
    endloop
  endfacet
  facet normal -0.535826 0.844328 0
    outer loop
      vertex -57.8905 5.25784 0
      vertex -58.5267 4.8541 2
      vertex -57.8905 5.25784 2
    endloop
  endfacet
  facet normal -0.637424 0.770513 0
    outer loop
      vertex -59.1073 4.37381 0
      vertex -59.1073 4.37381 2
      vertex -58.5267 4.8541 0
    endloop
  endfacet
  facet normal -0.637424 0.770513 0
    outer loop
      vertex -58.5267 4.8541 0
      vertex -59.1073 4.37381 2
      vertex -58.5267 4.8541 2
    endloop
  endfacet
  facet normal -0.728969 0.684546 0
    outer loop
      vertex -59.6231 3.82454 0
      vertex -59.6231 3.82454 2
      vertex -59.1073 4.37381 0
    endloop
  endfacet
  facet normal -0.728969 0.684546 0
    outer loop
      vertex -59.1073 4.37381 0
      vertex -59.6231 3.82454 2
      vertex -59.1073 4.37381 2
    endloop
  endfacet
  facet normal -0.809016 0.587786 0
    outer loop
      vertex -60.066 3.21496 0
      vertex -60.066 3.21496 2
      vertex -59.6231 3.82454 0
    endloop
  endfacet
  facet normal -0.809016 0.587786 0
    outer loop
      vertex -59.6231 3.82454 0
      vertex -60.066 3.21496 2
      vertex -59.6231 3.82454 2
    endloop
  endfacet
  facet normal -0.876307 0.481753 0
    outer loop
      vertex -60.429 2.55468 0
      vertex -60.429 2.55468 2
      vertex -60.066 3.21496 0
    endloop
  endfacet
  facet normal -0.876307 0.481753 0
    outer loop
      vertex -60.066 3.21496 0
      vertex -60.429 2.55468 2
      vertex -60.066 3.21496 2
    endloop
  endfacet
  facet normal -0.929776 0.368125 0
    outer loop
      vertex -60.7063 1.8541 0
      vertex -60.7063 1.8541 2
      vertex -60.429 2.55468 0
    endloop
  endfacet
  facet normal -0.929776 0.368125 0
    outer loop
      vertex -60.429 2.55468 0
      vertex -60.7063 1.8541 2
      vertex -60.429 2.55468 2
    endloop
  endfacet
  facet normal -0.968583 0.248691 0
    outer loop
      vertex -60.8937 1.12429 0
      vertex -60.8937 1.12429 2
      vertex -60.7063 1.8541 0
    endloop
  endfacet
  facet normal -0.968583 0.248691 0
    outer loop
      vertex -60.7063 1.8541 0
      vertex -60.8937 1.12429 2
      vertex -60.7063 1.8541 2
    endloop
  endfacet
  facet normal -0.992115 0.125332 0
    outer loop
      vertex -60.9094 1 0
      vertex -60.9094 1 2
      vertex -60.8937 1.12429 0
    endloop
  endfacet
  facet normal -0.992115 0.125332 0
    outer loop
      vertex -60.8937 1.12429 0
      vertex -60.9094 1 2
      vertex -60.8937 1.12429 2
    endloop
  endfacet
  facet normal 2.17202e-16 1 0
    outer loop
      vertex -58.8648 1 2
      vertex -60.9094 1 2
      vertex -58.8648 1 5
    endloop
  endfacet
  facet normal 2.4515e-15 1 0
    outer loop
      vertex -61 1 0
      vertex -60.9094 1 2
      vertex -60.9094 1 0
    endloop
  endfacet
  facet normal 2.4515e-15 1 -0
    outer loop
      vertex -61 1 5
      vertex -60.9094 1 2
      vertex -61 1 0
    endloop
  endfacet
  facet normal 3.11983e-16 1 -6.45956e-17
    outer loop
      vertex -58.8648 1 5
      vertex -60.9094 1 2
      vertex -61 1 5
    endloop
  endfacet
  facet normal -1 3.55271e-15 0
    outer loop
      vertex -61 -1 0
      vertex -61 -1 5
      vertex -61 1 0
    endloop
  endfacet
  facet normal -1 3.55271e-15 0
    outer loop
      vertex -61 1 0
      vertex -61 -1 5
      vertex -61 1 5
    endloop
  endfacet
  facet normal -2.17202e-16 -1 0
    outer loop
      vertex -60.9094 -1 2
      vertex -58.8648 -1 2
      vertex -58.8648 -1 5
    endloop
  endfacet
  facet normal 0 -1 -0
    outer loop
      vertex -61 -1 0
      vertex -60.9094 -1 2
      vertex -61 -1 5
    endloop
  endfacet
  facet normal -2.07989e-16 -1 -6.27951e-18
    outer loop
      vertex -61 -1 5
      vertex -60.9094 -1 2
      vertex -58.8648 -1 5
    endloop
  endfacet
  facet normal 0 -1 0
    outer loop
      vertex -60.9094 -1 0
      vertex -60.9094 -1 2
      vertex -61 -1 0
    endloop
  endfacet
  facet normal -0.992115 -0.125332 -0
    outer loop
      vertex -60.8937 -1.12429 0
      vertex -60.8937 -1.12429 2
      vertex -60.9094 -1 0
    endloop
  endfacet
  facet normal -0.992115 -0.125332 -0
    outer loop
      vertex -60.9094 -1 0
      vertex -60.8937 -1.12429 2
      vertex -60.9094 -1 2
    endloop
  endfacet
  facet normal -0.968583 -0.248691 -0
    outer loop
      vertex -60.7063 -1.8541 0
      vertex -60.7063 -1.8541 2
      vertex -60.8937 -1.12429 0
    endloop
  endfacet
  facet normal -0.968583 -0.248691 -0
    outer loop
      vertex -60.8937 -1.12429 0
      vertex -60.7063 -1.8541 2
      vertex -60.8937 -1.12429 2
    endloop
  endfacet
  facet normal -0.929776 -0.368125 -0
    outer loop
      vertex -60.429 -2.55468 0
      vertex -60.429 -2.55468 2
      vertex -60.7063 -1.8541 0
    endloop
  endfacet
  facet normal -0.929776 -0.368125 -0
    outer loop
      vertex -60.7063 -1.8541 0
      vertex -60.429 -2.55468 2
      vertex -60.7063 -1.8541 2
    endloop
  endfacet
  facet normal -0.876307 -0.481753 -0
    outer loop
      vertex -60.066 -3.21496 0
      vertex -60.066 -3.21496 2
      vertex -60.429 -2.55468 0
    endloop
  endfacet
  facet normal -0.876307 -0.481753 -0
    outer loop
      vertex -60.429 -2.55468 0
      vertex -60.066 -3.21496 2
      vertex -60.429 -2.55468 2
    endloop
  endfacet
  facet normal -0.809016 -0.587786 -0
    outer loop
      vertex -59.6231 -3.82454 0
      vertex -59.6231 -3.82454 2
      vertex -60.066 -3.21496 0
    endloop
  endfacet
  facet normal -0.809016 -0.587786 -0
    outer loop
      vertex -60.066 -3.21496 0
      vertex -59.6231 -3.82454 2
      vertex -60.066 -3.21496 2
    endloop
  endfacet
  facet normal -0.728969 -0.684546 -0
    outer loop
      vertex -59.1073 -4.37381 0
      vertex -59.1073 -4.37381 2
      vertex -59.6231 -3.82454 0
    endloop
  endfacet
  facet normal -0.728969 -0.684546 -0
    outer loop
      vertex -59.6231 -3.82454 0
      vertex -59.1073 -4.37381 2
      vertex -59.6231 -3.82454 2
    endloop
  endfacet
  facet normal -0.637424 -0.770513 0
    outer loop
      vertex -59.1073 -4.37381 0
      vertex -58.5267 -4.8541 0
      vertex -58.5267 -4.8541 2
    endloop
  endfacet
  facet normal -0.637424 -0.770513 0
    outer loop
      vertex -59.1073 -4.37381 2
      vertex -59.1073 -4.37381 0
      vertex -58.5267 -4.8541 2
    endloop
  endfacet
  facet normal -0.535826 -0.844328 0
    outer loop
      vertex -58.5267 -4.8541 0
      vertex -57.8905 -5.25784 0
      vertex -57.8905 -5.25784 2
    endloop
  endfacet
  facet normal -0.535826 -0.844328 0
    outer loop
      vertex -58.5267 -4.8541 2
      vertex -58.5267 -4.8541 0
      vertex -57.8905 -5.25784 2
    endloop
  endfacet
  facet normal -0.425779 -0.904827 0
    outer loop
      vertex -57.8905 -5.25784 0
      vertex -57.2087 -5.57866 0
      vertex -57.2087 -5.57866 2
    endloop
  endfacet
  facet normal -0.425779 -0.904827 0
    outer loop
      vertex -57.8905 -5.25784 2
      vertex -57.8905 -5.25784 0
      vertex -57.2087 -5.57866 2
    endloop
  endfacet
  facet normal -0.309017 -0.951057 0
    outer loop
      vertex -57.2087 -5.57866 0
      vertex -56.4921 -5.8115 0
      vertex -56.4921 -5.8115 2
    endloop
  endfacet
  facet normal -0.309017 -0.951057 0
    outer loop
      vertex -57.2087 -5.57866 2
      vertex -57.2087 -5.57866 0
      vertex -56.4921 -5.8115 2
    endloop
  endfacet
  facet normal -0.187381 -0.982287 0
    outer loop
      vertex -56.4921 -5.8115 0
      vertex -56 -5.90538 0
      vertex -56 -5.90538 2
    endloop
  endfacet
  facet normal -0.187381 -0.982287 0
    outer loop
      vertex -56.4921 -5.8115 2
      vertex -56.4921 -5.8115 0
      vertex -56 -5.90538 2
    endloop
  endfacet
  facet normal 0 0 1
    outer loop
      vertex -56.4921 -5.8115 2
      vertex -56 -5.90538 2
      vertex -56 -3.87263 2
    endloop
  endfacet
  facet normal 0 0 1
    outer loop
      vertex -56.927 -3.50523 2
      vertex -56.4921 -5.8115 2
      vertex -56.4725 -3.71911 2
    endloop
  endfacet
  facet normal 0 -0 1
    outer loop
      vertex -56.4725 -3.71911 2
      vertex -56.4921 -5.8115 2
      vertex -56 -3.87263 2
    endloop
  endfacet
  facet normal 0 0 1
    outer loop
      vertex -57.3511 -3.23607 2
      vertex -56.4921 -5.8115 2
      vertex -56.927 -3.50523 2
    endloop
  endfacet
  facet normal 0 0 1
    outer loop
      vertex -57.7382 -2.91587 2
      vertex -56.4921 -5.8115 2
      vertex -57.3511 -3.23607 2
    endloop
  endfacet
  facet normal 0 0 1
    outer loop
      vertex -58.0821 -2.5497 2
      vertex -56.4921 -5.8115 2
      vertex -57.7382 -2.91587 2
    endloop
  endfacet
  facet normal 0 0 1
    outer loop
      vertex -58.3773 -2.14331 2
      vertex -56.4921 -5.8115 2
      vertex -58.0821 -2.5497 2
    endloop
  endfacet
  facet normal 0 0 1
    outer loop
      vertex -58.6193 -1.70312 2
      vertex -56.4921 -5.8115 2
      vertex -58.3773 -2.14331 2
    endloop
  endfacet
  facet normal 0 0 1
    outer loop
      vertex -60.9094 -1 2
      vertex -56.4921 -5.8115 2
      vertex -58.6193 -1.70312 2
    endloop
  endfacet
  facet normal 0 0 1
    outer loop
      vertex -60.9094 -1 2
      vertex -58.6193 -1.70312 2
      vertex -58.8042 -1.23607 2
    endloop
  endfacet
  facet normal 0 0 1
    outer loop
      vertex -60.9094 -1 2
      vertex -58.8042 -1.23607 2
      vertex -58.8648 -1 2
    endloop
  endfacet
  facet normal 0 0 1
    outer loop
      vertex -60.8937 -1.12429 2
      vertex -56.4921 -5.8115 2
      vertex -60.9094 -1 2
    endloop
  endfacet
  facet normal 0 0 1
    outer loop
      vertex -60.7063 -1.8541 2
      vertex -56.4921 -5.8115 2
      vertex -60.8937 -1.12429 2
    endloop
  endfacet
  facet normal 0 0 1
    outer loop
      vertex -60.429 -2.55468 2
      vertex -56.4921 -5.8115 2
      vertex -60.7063 -1.8541 2
    endloop
  endfacet
  facet normal 0 0 1
    outer loop
      vertex -60.066 -3.21496 2
      vertex -56.4921 -5.8115 2
      vertex -60.429 -2.55468 2
    endloop
  endfacet
  facet normal 0 0 1
    outer loop
      vertex -59.6231 -3.82454 2
      vertex -56.4921 -5.8115 2
      vertex -60.066 -3.21496 2
    endloop
  endfacet
  facet normal 0 0 1
    outer loop
      vertex -59.1073 -4.37381 2
      vertex -56.4921 -5.8115 2
      vertex -59.6231 -3.82454 2
    endloop
  endfacet
  facet normal 0 0 1
    outer loop
      vertex -58.5267 -4.8541 2
      vertex -56.4921 -5.8115 2
      vertex -59.1073 -4.37381 2
    endloop
  endfacet
  facet normal 0 0 1
    outer loop
      vertex -57.8905 -5.25784 2
      vertex -56.4921 -5.8115 2
      vertex -58.5267 -4.8541 2
    endloop
  endfacet
  facet normal 0 0 1
    outer loop
      vertex -57.2087 -5.57866 2
      vertex -56.4921 -5.8115 2
      vertex -57.8905 -5.25784 2
    endloop
  endfacet
  facet normal -0.309018 -0.951056 0
    outer loop
      vertex -56.4725 -3.71911 2
      vertex -56 -3.87263 2
      vertex -56 -3.87263 5
    endloop
  endfacet
  facet normal -0.309018 -0.951056 0
    outer loop
      vertex -56.4725 -3.71911 5
      vertex -56.4725 -3.71911 2
      vertex -56 -3.87263 5
    endloop
  endfacet
  facet normal -0.425779 -0.904827 0
    outer loop
      vertex -56.927 -3.50523 2
      vertex -56.4725 -3.71911 2
      vertex -56.4725 -3.71911 5
    endloop
  endfacet
  facet normal -0.425779 -0.904827 0
    outer loop
      vertex -56.927 -3.50523 5
      vertex -56.927 -3.50523 2
      vertex -56.4725 -3.71911 5
    endloop
  endfacet
  facet normal -0.535827 -0.844328 0
    outer loop
      vertex -57.3511 -3.23607 2
      vertex -56.927 -3.50523 2
      vertex -56.927 -3.50523 5
    endloop
  endfacet
  facet normal -0.535827 -0.844328 0
    outer loop
      vertex -57.3511 -3.23607 5
      vertex -57.3511 -3.23607 2
      vertex -56.927 -3.50523 5
    endloop
  endfacet
  facet normal -0.637424 -0.770513 0
    outer loop
      vertex -57.7382 -2.91587 2
      vertex -57.3511 -3.23607 2
      vertex -57.3511 -3.23607 5
    endloop
  endfacet
  facet normal -0.637424 -0.770513 0
    outer loop
      vertex -57.7382 -2.91587 5
      vertex -57.7382 -2.91587 2
      vertex -57.3511 -3.23607 5
    endloop
  endfacet
  facet normal -0.728969 -0.684547 -0
    outer loop
      vertex -57.7382 -2.91587 2
      vertex -57.7382 -2.91587 5
      vertex -58.0821 -2.5497 2
    endloop
  endfacet
  facet normal -0.728969 -0.684547 -0
    outer loop
      vertex -58.0821 -2.5497 2
      vertex -57.7382 -2.91587 5
      vertex -58.0821 -2.5497 5
    endloop
  endfacet
  facet normal -0.809017 -0.587785 -0
    outer loop
      vertex -58.0821 -2.5497 2
      vertex -58.0821 -2.5497 5
      vertex -58.3773 -2.14331 2
    endloop
  endfacet
  facet normal -0.809017 -0.587785 -0
    outer loop
      vertex -58.3773 -2.14331 2
      vertex -58.0821 -2.5497 5
      vertex -58.3773 -2.14331 5
    endloop
  endfacet
  facet normal -0.876307 -0.481753 -0
    outer loop
      vertex -58.3773 -2.14331 2
      vertex -58.3773 -2.14331 5
      vertex -58.6193 -1.70312 2
    endloop
  endfacet
  facet normal -0.876307 -0.481753 -0
    outer loop
      vertex -58.6193 -1.70312 2
      vertex -58.3773 -2.14331 5
      vertex -58.6193 -1.70312 5
    endloop
  endfacet
  facet normal -0.929776 -0.368125 -0
    outer loop
      vertex -58.6193 -1.70312 2
      vertex -58.6193 -1.70312 5
      vertex -58.8042 -1.23607 2
    endloop
  endfacet
  facet normal -0.929776 -0.368125 -0
    outer loop
      vertex -58.8042 -1.23607 2
      vertex -58.6193 -1.70312 5
      vertex -58.8042 -1.23607 5
    endloop
  endfacet
  facet normal -0.968583 -0.24869 -0
    outer loop
      vertex -58.8042 -1.23607 2
      vertex -58.8042 -1.23607 5
      vertex -58.8648 -1 2
    endloop
  endfacet
  facet normal -0.968583 -0.24869 -0
    outer loop
      vertex -58.8648 -1 2
      vertex -58.8042 -1.23607 5
      vertex -58.8648 -1 5
    endloop
  endfacet
  facet normal -0.968583 0.24869 0
    outer loop
      vertex -58.8648 1 2
      vertex -58.8648 1 5
      vertex -58.8042 1.23607 2
    endloop
  endfacet
  facet normal -0.968583 0.24869 0
    outer loop
      vertex -58.8042 1.23607 2
      vertex -58.8648 1 5
      vertex -58.8042 1.23607 5
    endloop
  endfacet
  facet normal -0.929776 0.368125 0
    outer loop
      vertex -58.8042 1.23607 2
      vertex -58.8042 1.23607 5
      vertex -58.6193 1.70312 2
    endloop
  endfacet
  facet normal -0.929776 0.368125 0
    outer loop
      vertex -58.6193 1.70312 2
      vertex -58.8042 1.23607 5
      vertex -58.6193 1.70312 5
    endloop
  endfacet
  facet normal -0.876307 0.481753 0
    outer loop
      vertex -58.6193 1.70312 2
      vertex -58.6193 1.70312 5
      vertex -58.3773 2.14331 2
    endloop
  endfacet
  facet normal -0.876307 0.481753 0
    outer loop
      vertex -58.3773 2.14331 2
      vertex -58.6193 1.70312 5
      vertex -58.3773 2.14331 5
    endloop
  endfacet
  facet normal -0.809017 0.587785 0
    outer loop
      vertex -58.3773 2.14331 2
      vertex -58.3773 2.14331 5
      vertex -58.0821 2.5497 2
    endloop
  endfacet
  facet normal -0.809017 0.587785 0
    outer loop
      vertex -58.0821 2.5497 2
      vertex -58.3773 2.14331 5
      vertex -58.0821 2.5497 5
    endloop
  endfacet
  facet normal -0.728969 0.684547 0
    outer loop
      vertex -58.0821 2.5497 2
      vertex -58.0821 2.5497 5
      vertex -57.7382 2.91588 2
    endloop
  endfacet
  facet normal -0.728969 0.684547 0
    outer loop
      vertex -57.7382 2.91588 2
      vertex -58.0821 2.5497 5
      vertex -57.7382 2.91588 5
    endloop
  endfacet
  facet normal -0.637424 0.770513 0
    outer loop
      vertex -57.7382 2.91588 2
      vertex -57.7382 2.91588 5
      vertex -57.3511 3.23607 2
    endloop
  endfacet
  facet normal -0.637424 0.770513 0
    outer loop
      vertex -57.3511 3.23607 2
      vertex -57.7382 2.91588 5
      vertex -57.3511 3.23607 5
    endloop
  endfacet
  facet normal -0.535827 0.844328 0
    outer loop
      vertex -57.3511 3.23607 2
      vertex -57.3511 3.23607 5
      vertex -57 3.45891 2
    endloop
  endfacet
  facet normal -0.535827 0.844328 0
    outer loop
      vertex -57 3.45891 2
      vertex -57.3511 3.23607 5
      vertex -57 3.45891 5
    endloop
  endfacet
  facet normal 0.535827 0.844328 0
    outer loop
      vertex -52.6489 3.23607 2
      vertex -53 3.45891 2
      vertex -52.6489 3.23607 5
    endloop
  endfacet
  facet normal 0.535827 0.844328 0
    outer loop
      vertex -52.6489 3.23607 5
      vertex -53 3.45891 2
      vertex -53 3.45891 5
    endloop
  endfacet
  facet normal 0.637424 0.770513 0
    outer loop
      vertex -52.2618 2.91587 2
      vertex -52.6489 3.23607 2
      vertex -52.2618 2.91587 5
    endloop
  endfacet
  facet normal 0.637424 0.770513 0
    outer loop
      vertex -52.2618 2.91587 5
      vertex -52.6489 3.23607 2
      vertex -52.6489 3.23607 5
    endloop
  endfacet
  facet normal 0.728969 0.684547 -0
    outer loop
      vertex -51.9179 2.5497 5
      vertex -51.9179 2.5497 2
      vertex -52.2618 2.91587 2
    endloop
  endfacet
  facet normal 0.728969 0.684547 -0
    outer loop
      vertex -52.2618 2.91587 5
      vertex -51.9179 2.5497 5
      vertex -52.2618 2.91587 2
    endloop
  endfacet
  facet normal 0.809017 0.587785 -0
    outer loop
      vertex -51.6227 2.14331 5
      vertex -51.6227 2.14331 2
      vertex -51.9179 2.5497 2
    endloop
  endfacet
  facet normal 0.809017 0.587785 -0
    outer loop
      vertex -51.9179 2.5497 5
      vertex -51.6227 2.14331 5
      vertex -51.9179 2.5497 2
    endloop
  endfacet
  facet normal 0.876307 0.481753 -0
    outer loop
      vertex -51.3807 1.70312 5
      vertex -51.3807 1.70312 2
      vertex -51.6227 2.14331 2
    endloop
  endfacet
  facet normal 0.876307 0.481753 -0
    outer loop
      vertex -51.6227 2.14331 5
      vertex -51.3807 1.70312 5
      vertex -51.6227 2.14331 2
    endloop
  endfacet
  facet normal 0.929776 0.368125 -0
    outer loop
      vertex -51.1958 1.23607 5
      vertex -51.1958 1.23607 2
      vertex -51.3807 1.70312 2
    endloop
  endfacet
  facet normal 0.929776 0.368125 -0
    outer loop
      vertex -51.3807 1.70312 5
      vertex -51.1958 1.23607 5
      vertex -51.3807 1.70312 2
    endloop
  endfacet
  facet normal 0.968583 0.24869 -0
    outer loop
      vertex -51.1261 0.964783 5
      vertex -51.1261 0.964783 2
      vertex -51.1958 1.23607 2
    endloop
  endfacet
  facet normal 0.968583 0.24869 -0
    outer loop
      vertex -51.1958 1.23607 5
      vertex -51.1261 0.964783 5
      vertex -51.1958 1.23607 2
    endloop
  endfacet
  facet normal 0.00909053 0.999959 0
    outer loop
      vertex 55 -2.44249e-14 2
      vertex -51.1261 0.964783 2
      vertex 55 -2.44249e-14 5
    endloop
  endfacet
  facet normal 0.00909053 0.999959 0
    outer loop
      vertex 55 -2.44249e-14 5
      vertex -51.1261 0.964783 2
      vertex -51.1261 0.964783 5
    endloop
  endfacet
  facet normal 0.00909053 -0.999959 0
    outer loop
      vertex -51.1261 -0.964783 5
      vertex -51.1261 -0.964783 2
      vertex 55 -2.44249e-14 2
    endloop
  endfacet
  facet normal 0.00909053 -0.999959 0
    outer loop
      vertex 55 -2.44249e-14 5
      vertex -51.1261 -0.964783 5
      vertex 55 -2.44249e-14 2
    endloop
  endfacet
  facet normal 0.968583 -0.24869 0
    outer loop
      vertex -51.1958 -1.23607 5
      vertex -51.1958 -1.23607 2
      vertex -51.1261 -0.964783 2
    endloop
  endfacet
  facet normal 0.968583 -0.24869 0
    outer loop
      vertex -51.1261 -0.964783 5
      vertex -51.1958 -1.23607 5
      vertex -51.1261 -0.964783 2
    endloop
  endfacet
  facet normal 0.929776 -0.368125 0
    outer loop
      vertex -51.3807 -1.70312 5
      vertex -51.3807 -1.70312 2
      vertex -51.1958 -1.23607 2
    endloop
  endfacet
  facet normal 0.929776 -0.368125 0
    outer loop
      vertex -51.1958 -1.23607 5
      vertex -51.3807 -1.70312 5
      vertex -51.1958 -1.23607 2
    endloop
  endfacet
  facet normal 0.876307 -0.481753 0
    outer loop
      vertex -51.6227 -2.14331 5
      vertex -51.6227 -2.14331 2
      vertex -51.3807 -1.70312 2
    endloop
  endfacet
  facet normal 0.876307 -0.481753 0
    outer loop
      vertex -51.3807 -1.70312 5
      vertex -51.6227 -2.14331 5
      vertex -51.3807 -1.70312 2
    endloop
  endfacet
  facet normal 0.809017 -0.587785 0
    outer loop
      vertex -51.9179 -2.5497 5
      vertex -51.9179 -2.5497 2
      vertex -51.6227 -2.14331 2
    endloop
  endfacet
  facet normal 0.809017 -0.587785 0
    outer loop
      vertex -51.6227 -2.14331 5
      vertex -51.9179 -2.5497 5
      vertex -51.6227 -2.14331 2
    endloop
  endfacet
  facet normal 0.728969 -0.684547 0
    outer loop
      vertex -52.2618 -2.91588 5
      vertex -52.2618 -2.91588 2
      vertex -51.9179 -2.5497 2
    endloop
  endfacet
  facet normal 0.728969 -0.684547 0
    outer loop
      vertex -51.9179 -2.5497 5
      vertex -52.2618 -2.91588 5
      vertex -51.9179 -2.5497 2
    endloop
  endfacet
  facet normal 0.637424 -0.770513 0
    outer loop
      vertex -52.6489 -3.23607 5
      vertex -52.6489 -3.23607 2
      vertex -52.2618 -2.91588 2
    endloop
  endfacet
  facet normal 0.637424 -0.770513 0
    outer loop
      vertex -52.2618 -2.91588 5
      vertex -52.6489 -3.23607 5
      vertex -52.2618 -2.91588 2
    endloop
  endfacet
  facet normal 0.535827 -0.844328 0
    outer loop
      vertex -53.073 -3.50523 5
      vertex -53.073 -3.50523 2
      vertex -52.6489 -3.23607 2
    endloop
  endfacet
  facet normal 0.535827 -0.844328 0
    outer loop
      vertex -52.6489 -3.23607 5
      vertex -53.073 -3.50523 5
      vertex -52.6489 -3.23607 2
    endloop
  endfacet
  facet normal 0.425779 -0.904827 0
    outer loop
      vertex -53.5275 -3.71911 5
      vertex -53.5275 -3.71911 2
      vertex -53.073 -3.50523 2
    endloop
  endfacet
  facet normal 0.425779 -0.904827 0
    outer loop
      vertex -53.073 -3.50523 5
      vertex -53.5275 -3.71911 5
      vertex -53.073 -3.50523 2
    endloop
  endfacet
  facet normal 0 0 1
    outer loop
      vertex -51.3807 1.70312 2
      vertex 55 -2.44249e-14 2
      vertex -53 5.89091 2
    endloop
  endfacet
  facet normal 0 0 1
    outer loop
      vertex -53 3.45891 2
      vertex -52.6489 3.23607 2
      vertex -53 5.89091 2
    endloop
  endfacet
  facet normal 0 0 1
    outer loop
      vertex -52.6489 3.23607 2
      vertex -52.2618 2.91587 2
      vertex -53 5.89091 2
    endloop
  endfacet
  facet normal 0 0 1
    outer loop
      vertex -52.2618 2.91587 2
      vertex -51.9179 2.5497 2
      vertex -53 5.89091 2
    endloop
  endfacet
  facet normal 0 0 1
    outer loop
      vertex -51.9179 2.5497 2
      vertex -51.6227 2.14331 2
      vertex -53 5.89091 2
    endloop
  endfacet
  facet normal 0 0 1
    outer loop
      vertex -51.1958 1.23607 2
      vertex 55 -2.44249e-14 2
      vertex -51.3807 1.70312 2
    endloop
  endfacet
  facet normal 0 0 1
    outer loop
      vertex -51.1261 0.964783 2
      vertex 55 -2.44249e-14 2
      vertex -51.1958 1.23607 2
    endloop
  endfacet
  facet normal 0 0 1
    outer loop
      vertex -51.6227 2.14331 2
      vertex -51.3807 1.70312 2
      vertex -53 5.89091 2
    endloop
  endfacet
  facet normal -0 0 1
    outer loop
      vertex -58.3773 2.14331 2
      vertex -58.0821 2.5497 2
      vertex -60.9094 1 2
    endloop
  endfacet
  facet normal 0 0 1
    outer loop
      vertex -60.9094 1 2
      vertex -58.8648 1 2
      vertex -58.8042 1.23607 2
    endloop
  endfacet
  facet normal -0 0 1
    outer loop
      vertex -58.0821 2.5497 2
      vertex -57.7382 2.91588 2
      vertex -60.9094 1 2
    endloop
  endfacet
  facet normal 0 0 1
    outer loop
      vertex -58.6193 1.70312 2
      vertex -60.9094 1 2
      vertex -58.8042 1.23607 2
    endloop
  endfacet
  facet normal -0 0 1
    outer loop
      vertex -58.6193 1.70312 2
      vertex -58.3773 2.14331 2
      vertex -60.9094 1 2
    endloop
  endfacet
  facet normal -0 0 1
    outer loop
      vertex -57.7382 2.91588 2
      vertex -57.3511 3.23607 2
      vertex -60.9094 1 2
    endloop
  endfacet
  facet normal -0 0 1
    outer loop
      vertex -57.3511 3.23607 2
      vertex -57 3.45891 2
      vertex -60.9094 1 2
    endloop
  endfacet
  facet normal -0 0 1
    outer loop
      vertex -57 3.45891 2
      vertex -57 5.64648 2
      vertex -60.9094 1 2
    endloop
  endfacet
  facet normal 0 0 1
    outer loop
      vertex -57 5.64648 2
      vertex -57.2087 5.57866 2
      vertex -60.9094 1 2
    endloop
  endfacet
  facet normal 0 0 1
    outer loop
      vertex -57.2087 5.57866 2
      vertex -57.8905 5.25784 2
      vertex -60.9094 1 2
    endloop
  endfacet
  facet normal 0 0 1
    outer loop
      vertex -57.8905 5.25784 2
      vertex -58.5267 4.8541 2
      vertex -60.9094 1 2
    endloop
  endfacet
  facet normal 0 0 1
    outer loop
      vertex -58.5267 4.8541 2
      vertex -59.1073 4.37381 2
      vertex -60.9094 1 2
    endloop
  endfacet
  facet normal 0 0 1
    outer loop
      vertex -59.1073 4.37381 2
      vertex -59.6231 3.82454 2
      vertex -60.9094 1 2
    endloop
  endfacet
  facet normal 0 0 1
    outer loop
      vertex -59.6231 3.82454 2
      vertex -60.066 3.21496 2
      vertex -60.9094 1 2
    endloop
  endfacet
  facet normal 0 0 1
    outer loop
      vertex -60.066 3.21496 2
      vertex -60.429 2.55468 2
      vertex -60.9094 1 2
    endloop
  endfacet
  facet normal 0 0 1
    outer loop
      vertex -60.429 2.55468 2
      vertex -60.7063 1.8541 2
      vertex -60.9094 1 2
    endloop
  endfacet
  facet normal 0 0 1
    outer loop
      vertex -60.7063 1.8541 2
      vertex -60.8937 1.12429 2
      vertex -60.9094 1 2
    endloop
  endfacet
endsolid OpenSCAD_Model
