solid Default
  facet normal -1.000000e+00 0.000000e+00 -1.836970e-16
    outer loop
      vertex -1.994426e+01 7.500000e+00 4.618200e+00
      vertex -1.994426e+01 7.500000e+00 3.552714e-15
      vertex -1.994426e+01 -7.500000e+00 4.618200e+00
    endloop
  endfacet
  facet normal -1.000000e+00 0.000000e+00 -1.836970e-16
    outer loop
      vertex -1.994426e+01 -7.500000e+00 4.618200e+00
      vertex -1.994426e+01 7.500000e+00 3.552714e-15
      vertex -1.994426e+01 -7.500000e+00 0.000000e+00
    endloop
  endfacet
  facet normal -9.992698e-01 9.358243e-18 -3.820793e-02
    outer loop
      vertex -1.994426e+01 7.500000e+00 4.618200e+00
      vertex -1.994426e+01 -7.500000e+00 4.618200e+00
      vertex -1.995886e+01 0.000000e+00 5.000000e+00
    endloop
  endfacet
  facet normal -9.986294e-01 -5.238953e-04 5.233595e-02
    outer loop
      vertex -1.995804e+01 7.500000e+00 5.090815e+00
      vertex -1.995886e+01 0.000000e+00 5.000000e+00
      vertex -1.993147e+01 0.000000e+00 5.522642e+00
    endloop
  endfacet
  facet normal -9.876883e-01 -2.590798e-04 1.564345e-01
    outer loop
      vertex -1.992711e+01 7.500000e+00 5.562618e+00
      vertex -1.993147e+01 0.000000e+00 5.522642e+00
      vertex -1.984960e+01 0.000000e+00 6.039558e+00
    endloop
  endfacet
  facet normal -9.677489e-01 6.408108e-05 2.519165e-01
    outer loop
      vertex -1.985175e+01 7.500000e+00 6.029390e+00
      vertex -1.984960e+01 0.000000e+00 6.039558e+00
      vertex -1.973264e+01 7.500000e+00 6.486957e+00
    endloop
  endfacet
  facet normal -9.872174e-01 -6.695824e-05 1.593791e-01
    outer loop
      vertex -1.985175e+01 7.500000e+00 6.029390e+00
      vertex -1.992711e+01 7.500000e+00 5.562618e+00
      vertex -1.984960e+01 0.000000e+00 6.039558e+00
    endloop
  endfacet
  facet normal -9.978580e-01 -2.319742e-04 6.541648e-02
    outer loop
      vertex -1.992711e+01 -7.500000e+00 5.562618e+00
      vertex -1.993147e+01 0.000000e+00 5.522642e+00
      vertex -1.995804e+01 -7.500000e+00 5.090815e+00
    endloop
  endfacet
  facet normal -9.876883e-01 2.590798e-04 1.564345e-01
    outer loop
      vertex -1.992711e+01 -7.500000e+00 5.562618e+00
      vertex -1.984960e+01 0.000000e+00 6.039558e+00
      vertex -1.993147e+01 0.000000e+00 5.522642e+00
    endloop
  endfacet
  facet normal -9.872174e-01 6.695824e-05 1.593791e-01
    outer loop
      vertex -1.992711e+01 -7.500000e+00 5.562618e+00
      vertex -1.985175e+01 -7.500000e+00 6.029390e+00
      vertex -1.984960e+01 0.000000e+00 6.039558e+00
    endloop
  endfacet
  facet normal -9.677489e-01 -6.408108e-05 2.519165e-01
    outer loop
      vertex -1.984960e+01 0.000000e+00 6.039558e+00
      vertex -1.985175e+01 -7.500000e+00 6.029390e+00
      vertex -1.973264e+01 -7.500000e+00 6.486957e+00
    endloop
  endfacet
  facet normal -9.396266e-01 -3.349878e-04 3.422012e-01
    outer loop
      vertex -1.971414e+01 0.000000e+00 6.545085e+00
      vertex -1.973264e+01 -7.500000e+00 6.486957e+00
      vertex -1.957084e+01 -7.500000e+00 6.931228e+00
    endloop
  endfacet
  facet normal -9.031019e-01 -5.376433e-04 4.294259e-01
    outer loop
      vertex -1.952659e+01 -8.881784e-16 7.033683e+00
      vertex -1.957084e+01 -7.500000e+00 6.931228e+00
      vertex -1.936780e+01 -7.500000e+00 7.358229e+00
    endloop
  endfacet
  facet normal -8.585016e-01 -6.720270e-04 5.128105e-01
    outer loop
      vertex -1.928899e+01 -8.881784e-16 7.500000e+00
      vertex -1.936780e+01 -7.500000e+00 7.358229e+00
      vertex -1.912534e+01 -7.500000e+00 7.764142e+00
    endloop
  endfacet
  facet normal -8.500707e-01 -1.289966e-16 5.266685e-01
    outer loop
      vertex -1.912534e+01 7.500000e+00 7.764142e+00
      vertex -1.928899e+01 -8.881784e-16 7.500000e+00
      vertex -1.912534e+01 -7.500000e+00 7.764142e+00
    endloop
  endfacet
  facet normal -8.585016e-01 6.720270e-04 5.128105e-01
    outer loop
      vertex -1.912534e+01 7.500000e+00 7.764142e+00
      vertex -1.936780e+01 7.500000e+00 7.358229e+00
      vertex -1.928899e+01 -8.881784e-16 7.500000e+00
    endloop
  endfacet
  facet normal -8.910062e-01 -7.814136e-04 4.539904e-01
    outer loop
      vertex -1.928899e+01 -8.881784e-16 7.500000e+00
      vertex -1.936780e+01 7.500000e+00 7.358229e+00
      vertex -1.952659e+01 -8.881784e-16 7.033683e+00
    endloop
  endfacet
  facet normal -8.910062e-01 7.814136e-04 4.539904e-01
    outer loop
      vertex -1.936780e+01 -7.500000e+00 7.358229e+00
      vertex -1.928899e+01 -8.881784e-16 7.500000e+00
      vertex -1.952659e+01 -8.881784e-16 7.033683e+00
    endloop
  endfacet
  facet normal -9.659258e-01 3.761078e-04 2.588190e-01
    outer loop
      vertex -1.984960e+01 0.000000e+00 6.039558e+00
      vertex -1.973264e+01 -7.500000e+00 6.486957e+00
      vertex -1.971414e+01 0.000000e+00 6.545085e+00
    endloop
  endfacet
  facet normal -9.396266e-01 3.349878e-04 3.422012e-01
    outer loop
      vertex -1.973264e+01 7.500000e+00 6.486957e+00
      vertex -1.971414e+01 0.000000e+00 6.545085e+00
      vertex -1.957084e+01 7.500000e+00 6.931228e+00
    endloop
  endfacet
  facet normal -9.659258e-01 -3.761078e-04 2.588190e-01
    outer loop
      vertex -1.973264e+01 7.500000e+00 6.486957e+00
      vertex -1.984960e+01 0.000000e+00 6.039558e+00
      vertex -1.971414e+01 0.000000e+00 6.545085e+00
    endloop
  endfacet
  facet normal -9.335803e-01 6.128919e-04 3.583679e-01
    outer loop
      vertex -1.971414e+01 0.000000e+00 6.545085e+00
      vertex -1.957084e+01 -7.500000e+00 6.931228e+00
      vertex -1.952659e+01 -8.881784e-16 7.033683e+00
    endloop
  endfacet
  facet normal -9.031019e-01 5.376433e-04 4.294259e-01
    outer loop
      vertex -1.957084e+01 7.500000e+00 6.931228e+00
      vertex -1.952659e+01 -8.881784e-16 7.033683e+00
      vertex -1.936780e+01 7.500000e+00 7.358229e+00
    endloop
  endfacet
  facet normal -9.335803e-01 -6.128919e-04 3.583679e-01
    outer loop
      vertex -1.957084e+01 7.500000e+00 6.931228e+00
      vertex -1.971414e+01 0.000000e+00 6.545085e+00
      vertex -1.952659e+01 -8.881784e-16 7.033683e+00
    endloop
  endfacet
  facet normal -9.978580e-01 2.319742e-04 6.541648e-02
    outer loop
      vertex -1.992711e+01 7.500000e+00 5.562618e+00
      vertex -1.995804e+01 7.500000e+00 5.090815e+00
      vertex -1.993147e+01 0.000000e+00 5.522642e+00
    endloop
  endfacet
  facet normal -9.995755e-01 4.626660e-04 -2.913111e-02
    outer loop
      vertex -1.995804e+01 7.500000e+00 5.090815e+00
      vertex -1.994426e+01 7.500000e+00 4.618200e+00
      vertex -1.995886e+01 0.000000e+00 5.000000e+00
    endloop
  endfacet
  facet normal -9.995755e-01 -4.626660e-04 -2.913111e-02
    outer loop
      vertex -1.994426e+01 -7.500000e+00 4.618200e+00
      vertex -1.995804e+01 -7.500000e+00 5.090815e+00
      vertex -1.995886e+01 0.000000e+00 5.000000e+00
    endloop
  endfacet
  facet normal -9.986294e-01 5.238953e-04 5.233595e-02
    outer loop
      vertex -1.995886e+01 0.000000e+00 5.000000e+00
      vertex -1.995804e+01 -7.500000e+00 5.090815e+00
      vertex -1.993147e+01 0.000000e+00 5.522642e+00
    endloop
  endfacet
  facet normal 7.598838e-01 1.592185e-16 -6.500589e-01
    outer loop
      vertex -1.722713e+01 7.500000e+00 6.963404e+00
      vertex -1.722713e+01 -7.500000e+00 6.963404e+00
      vertex -1.724982e+01 -8.881784e-16 6.936884e+00
    endloop
  endfacet
  facet normal 8.050700e-01 3.002724e-04 -5.931797e-01
    outer loop
      vertex -1.746735e+01 7.500000e+00 6.645440e+00
      vertex -1.724982e+01 -8.881784e-16 6.936884e+00
      vertex -1.748754e+01 0.000000e+00 6.614247e+00
    endloop
  endfacet
  facet normal 8.769499e-01 3.165170e-04 -4.805817e-01
    outer loop
      vertex -1.766331e+01 7.500000e+00 6.298442e+00
      vertex -1.748754e+01 0.000000e+00 6.614247e+00
      vertex -1.768013e+01 0.000000e+00 6.262804e+00
    endloop
  endfacet
  facet normal 9.331806e-01 3.325362e-04 -3.594078e-01
    outer loop
      vertex -1.781155e+01 7.500000e+00 5.928532e+00
      vertex -1.768013e+01 0.000000e+00 6.262804e+00
      vertex -1.782417e+01 0.000000e+00 5.888827e+00
    endloop
  endfacet
  facet normal 9.727586e-01 3.483299e-04 -2.318201e-01
    outer loop
      vertex -1.790945e+01 7.500000e+00 5.542238e+00
      vertex -1.782417e+01 0.000000e+00 5.888827e+00
      vertex -1.791707e+01 0.000000e+00 5.498988e+00
    endloop
  endfacet
  facet normal 9.949778e-01 3.638981e-04 -1.000957e-01
    outer loop
      vertex -1.795529e+01 7.500000e+00 5.146376e+00
      vertex -1.791707e+01 0.000000e+00 5.498988e+00
      vertex -1.795719e+01 0.000000e+00 5.100245e+00
    endloop
  endfacet
  facet normal 9.994415e-01 3.792409e-04 3.341497e-02
    outer loop
      vertex -1.794825e+01 7.500000e+00 4.747931e+00
      vertex -1.795719e+01 0.000000e+00 5.100245e+00
      vertex -1.794380e+01 0.000000e+00 4.699713e+00
    endloop
  endfacet
  facet normal 9.860702e-01 3.943582e-04 1.663293e-01
    outer loop
      vertex -1.788847e+01 7.500000e+00 4.353934e+00
      vertex -1.794380e+01 0.000000e+00 4.699713e+00
      vertex -1.787714e+01 0.000000e+00 4.304540e+00
    endloop
  endfacet
  facet normal 9.551024e-01 4.092499e-04 2.962756e-01
    outer loop
      vertex -1.777699e+01 7.500000e+00 3.971337e+00
      vertex -1.787714e+01 0.000000e+00 4.304540e+00
      vertex -1.775840e+01 0.000000e+00 3.921777e+00
    endloop
  endfacet
  facet normal 9.070908e-01 4.239162e-04 4.209347e-01
    outer loop
      vertex -1.761579e+01 7.500000e+00 3.606891e+00
      vertex -1.775840e+01 0.000000e+00 3.921777e+00
      vertex -1.758971e+01 0.000000e+00 3.558255e+00
    endloop
  endfacet
  facet normal 8.428922e-01 4.383569e-04 5.380823e-01
    outer loop
      vertex -1.740770e+01 7.500000e+00 3.267027e+00
      vertex -1.758971e+01 0.000000e+00 3.558255e+00
      vertex -1.737407e+01 0.000000e+00 3.220461e+00
    endloop
  endfacet
  facet normal 7.636521e-01 4.525722e-04 6.456278e-01
    outer loop
      vertex -1.715640e+01 7.500000e+00 2.957742e+00
      vertex -1.737407e+01 0.000000e+00 3.220461e+00
      vertex -1.711533e+01 8.881784e-16 2.914423e+00
    endloop
  endfacet
  facet normal 6.707847e-01 4.665619e-04 7.416520e-01
    outer loop
      vertex -1.686633e+01 7.500000e+00 2.684493e+00
      vertex -1.711533e+01 8.881784e-16 2.914423e+00
      vertex -1.681811e+01 8.881784e-16 2.645602e+00
    endloop
  endfacet
  facet normal 5.659470e-01 4.803260e-04 8.244414e-01
    outer loop
      vertex -1.654260e+01 7.500000e+00 2.452102e+00
      vertex -1.681811e+01 8.881784e-16 2.645602e+00
      vertex -1.648771e+01 8.881784e-16 2.418795e+00
    endloop
  endfacet
  facet normal 4.510101e-01 4.938647e-04 8.925187e-01
    outer loop
      vertex -1.619092e+01 7.500000e+00 2.264669e+00
      vertex -1.648771e+01 8.881784e-16 2.418795e+00
      vertex -1.613003e+01 8.881784e-16 2.238050e+00
    endloop
  endfacet
  facet normal 3.280248e-01 5.071778e-04 9.446689e-01
    outer loop
      vertex -1.581750e+01 7.500000e+00 2.125502e+00
      vertex -1.613003e+01 8.881784e-16 2.238050e+00
      vertex -1.575145e+01 8.881784e-16 2.106592e+00
    endloop
  endfacet
  facet normal 1.991860e-01 5.202653e-04 9.799616e-01
    outer loop
      vertex -1.542894e+01 7.500000e+00 2.037057e+00
      vertex -1.575145e+01 8.881784e-16 2.106592e+00
      vertex -1.535872e+01 8.881784e-16 2.026767e+00
    endloop
  endfacet
  facet normal 6.679262e-02 5.331272e-04 9.977667e-01
    outer loop
      vertex -1.503207e+01 7.500000e+00 2.000893e+00
      vertex -1.535872e+01 8.881784e-16 2.026767e+00
      vertex -1.495886e+01 8.881784e-16 2.000000e+00
    endloop
  endfacet
  facet normal -6.679262e-02 5.457636e-04 9.977667e-01
    outer loop
      vertex -1.463392e+01 7.500000e+00 2.017650e+00
      vertex -1.495886e+01 8.881784e-16 2.000000e+00
      vertex -1.455900e+01 8.881784e-16 2.026767e+00
    endloop
  endfacet
  facet normal -1.991860e-01 5.581744e-04 9.799616e-01
    outer loop
      vertex -1.424150e+01 7.500000e+00 2.087031e+00
      vertex -1.455900e+01 8.881784e-16 2.026767e+00
      vertex -1.416628e+01 8.881784e-16 2.106592e+00
    endloop
  endfacet
  facet normal -3.280248e-01 5.703596e-04 9.446689e-01
    outer loop
      vertex -1.386173e+01 7.500000e+00 2.207813e+00
      vertex -1.416628e+01 8.881784e-16 2.106592e+00
      vertex -1.378769e+01 8.881784e-16 2.238050e+00
    endloop
  endfacet
  facet normal -4.510100e-01 5.823192e-04 8.925187e-01
    outer loop
      vertex -1.350133e+01 7.500000e+00 2.377863e+00
      vertex -1.378769e+01 8.881784e-16 2.238050e+00
      vertex -1.343001e+01 8.881784e-16 2.418795e+00
    endloop
  endfacet
  facet normal -5.659470e-01 5.940532e-04 8.244414e-01
    outer loop
      vertex -1.316665e+01 7.500000e+00 2.594182e+00
      vertex -1.343001e+01 8.881784e-16 2.418795e+00
      vertex -1.309961e+01 8.881784e-16 2.645602e+00
    endloop
  endfacet
  facet normal -6.707846e-01 6.055617e-04 7.416520e-01
    outer loop
      vertex -1.286359e+01 7.500000e+00 2.852952e+00
      vertex -1.309961e+01 8.881784e-16 2.645602e+00
      vertex -1.280239e+01 8.881784e-16 2.914423e+00
    endloop
  endfacet
  facet normal -7.636520e-01 6.168444e-04 6.456277e-01
    outer loop
      vertex -1.259750e+01 7.500000e+00 3.149608e+00
      vertex -1.280239e+01 8.881784e-16 2.914423e+00
      vertex -1.254365e+01 0.000000e+00 3.220461e+00
    endloop
  endfacet
  facet normal -8.428921e-01 6.279016e-04 5.380822e-01
    outer loop
      vertex -1.237307e+01 7.500000e+00 3.478914e+00
      vertex -1.254365e+01 0.000000e+00 3.220461e+00
      vertex -1.232801e+01 0.000000e+00 3.558255e+00
    endloop
  endfacet
  facet normal -9.070907e-01 6.387331e-04 4.209347e-01
    outer loop
      vertex -1.219428e+01 7.500000e+00 3.835060e+00
      vertex -1.232801e+01 0.000000e+00 3.558255e+00
      vertex -1.215932e+01 0.000000e+00 3.921777e+00
    endloop
  endfacet
  facet normal -9.551023e-01 6.493389e-04 2.962755e-01
    outer loop
      vertex -1.206427e+01 7.500000e+00 4.211762e+00
      vertex -1.215932e+01 0.000000e+00 3.921777e+00
      vertex -1.204059e+01 0.000000e+00 4.304540e+00
    endloop
  endfacet
  facet normal -9.860700e-01 6.597193e-04 1.663293e-01
    outer loop
      vertex -1.198533e+01 7.500000e+00 4.602373e+00
      vertex -1.204059e+01 0.000000e+00 4.304540e+00
      vertex -1.197393e+01 0.000000e+00 4.699713e+00
    endloop
  endfacet
  facet normal -9.987437e-01 -1.227361e-17 5.011080e-02
    outer loop
      vertex -1.195886e+01 7.500000e+00 5.000000e+00
      vertex -1.197393e+01 0.000000e+00 4.699713e+00
      vertex -1.195886e+01 -7.500000e+00 5.000000e+00
    endloop
  endfacet
  facet normal -9.977917e-01 -6.548167e-04 6.641781e-02
    outer loop
      vertex -1.195886e+01 7.500000e+00 5.000000e+00
      vertex -1.198533e+01 7.500000e+00 4.602373e+00
      vertex -1.197393e+01 0.000000e+00 4.699713e+00
    endloop
  endfacet
  facet normal 8.707461e-01 2.984148e-04 -4.917327e-01
    outer loop
      vertex -1.766331e+01 -7.500000e+00 6.298442e+00
      vertex -1.748754e+01 0.000000e+00 6.614247e+00
      vertex -1.746735e+01 -7.500000e+00 6.645440e+00
    endloop
  endfacet
  facet normal 8.769499e-01 -3.165170e-04 -4.805817e-01
    outer loop
      vertex -1.766331e+01 -7.500000e+00 6.298442e+00
      vertex -1.768013e+01 0.000000e+00 6.262804e+00
      vertex -1.748754e+01 0.000000e+00 6.614247e+00
    endloop
  endfacet
  facet normal 9.282392e-01 3.145467e-04 -3.719836e-01
    outer loop
      vertex -1.766331e+01 -7.500000e+00 6.298442e+00
      vertex -1.781155e+01 -7.500000e+00 5.928532e+00
      vertex -1.768013e+01 0.000000e+00 6.262804e+00
    endloop
  endfacet
  facet normal 9.331806e-01 -3.325362e-04 -3.594078e-01
    outer loop
      vertex -1.768013e+01 0.000000e+00 6.262804e+00
      vertex -1.781155e+01 -7.500000e+00 5.928532e+00
      vertex -1.782417e+01 0.000000e+00 5.888827e+00
    endloop
  endfacet
  facet normal 9.693533e-01 3.304532e-04 -2.456707e-01
    outer loop
      vertex -1.782417e+01 0.000000e+00 5.888827e+00
      vertex -1.781155e+01 -7.500000e+00 5.928532e+00
      vertex -1.790945e+01 -7.500000e+00 5.542238e+00
    endloop
  endfacet
  facet normal 9.933628e-01 3.461342e-04 -1.150229e-01
    outer loop
      vertex -1.791707e+01 0.000000e+00 5.498988e+00
      vertex -1.790945e+01 -7.500000e+00 5.542238e+00
      vertex -1.795529e+01 -7.500000e+00 5.146376e+00
    endloop
  endfacet
  facet normal 9.998441e-01 3.615897e-04 1.765450e-02
    outer loop
      vertex -1.795719e+01 0.000000e+00 5.100245e+00
      vertex -1.795529e+01 -7.500000e+00 5.146376e+00
      vertex -1.794825e+01 -7.500000e+00 4.747931e+00
    endloop
  endfacet
  facet normal 9.886828e-01 3.768197e-04 1.500204e-01
    outer loop
      vertex -1.794380e+01 0.000000e+00 4.699713e+00
      vertex -1.794825e+01 -7.500000e+00 4.747931e+00
      vertex -1.788847e+01 -7.500000e+00 4.353934e+00
    endloop
  endfacet
  facet normal 9.600760e-01 3.918242e-04 2.797391e-01
    outer loop
      vertex -1.787714e+01 0.000000e+00 4.304540e+00
      vertex -1.788847e+01 -7.500000e+00 4.353934e+00
      vertex -1.777699e+01 -7.500000e+00 3.971337e+00
    endloop
  endfacet
  facet normal 9.145283e-01 4.066032e-04 4.045218e-01
    outer loop
      vertex -1.775840e+01 0.000000e+00 3.921777e+00
      vertex -1.777699e+01 -7.500000e+00 3.971337e+00
      vertex -1.761579e+01 -7.500000e+00 3.606891e+00
    endloop
  endfacet
  facet normal 8.528434e-01 4.211567e-04 5.221666e-01
    outer loop
      vertex -1.758971e+01 0.000000e+00 3.558255e+00
      vertex -1.761579e+01 -7.500000e+00 3.606891e+00
      vertex -1.740770e+01 -7.500000e+00 3.267027e+00
    endloop
  endfacet
  facet normal 7.761099e-01 4.354847e-04 6.305975e-01
    outer loop
      vertex -1.737407e+01 0.000000e+00 3.220461e+00
      vertex -1.740770e+01 -7.500000e+00 3.267027e+00
      vertex -1.715640e+01 -7.500000e+00 2.957742e+00
    endloop
  endfacet
  facet normal 6.856817e-01 4.495872e-04 7.279014e-01
    outer loop
      vertex -1.711533e+01 8.881784e-16 2.914423e+00
      vertex -1.715640e+01 -7.500000e+00 2.957742e+00
      vertex -1.686633e+01 -7.500000e+00 2.684493e+00
    endloop
  endfacet
  facet normal 5.831544e-01 4.634642e-04 8.123612e-01
    outer loop
      vertex -1.681811e+01 8.881784e-16 2.645602e+00
      vertex -1.686633e+01 -7.500000e+00 2.684493e+00
      vertex -1.654260e+01 -7.500000e+00 2.452102e+00
    endloop
  endfacet
  facet normal 4.703372e-01 4.771156e-04 8.824866e-01
    outer loop
      vertex -1.648771e+01 8.881784e-16 2.418795e+00
      vertex -1.654260e+01 -7.500000e+00 2.452102e+00
      vertex -1.619092e+01 -7.500000e+00 2.264669e+00
    endloop
  endfacet
  facet normal 3.492208e-01 4.905414e-04 9.370403e-01
    outer loop
      vertex -1.613003e+01 8.881784e-16 2.238050e+00
      vertex -1.619092e+01 -7.500000e+00 2.264669e+00
      vertex -1.581750e+01 -7.500000e+00 2.125502e+00
    endloop
  endfacet
  facet normal 2.219422e-01 5.037417e-04 9.750597e-01
    outer loop
      vertex -1.575145e+01 8.881784e-16 2.106592e+00
      vertex -1.581750e+01 -7.500000e+00 2.125502e+00
      vertex -1.542894e+01 -7.500000e+00 2.037057e+00
    endloop
  endfacet
  facet normal 9.074739e-02 5.167164e-04 9.958738e-01
    outer loop
      vertex -1.535872e+01 8.881784e-16 2.026767e+00
      vertex -1.542894e+01 -7.500000e+00 2.037057e+00
      vertex -1.503207e+01 -7.500000e+00 2.000893e+00
    endloop
  endfacet
  facet normal -4.204868e-02 5.294656e-04 9.991154e-01
    outer loop
      vertex -1.495886e+01 8.881784e-16 2.000000e+00
      vertex -1.503207e+01 -7.500000e+00 2.000893e+00
      vertex -1.463392e+01 -7.500000e+00 2.017650e+00
    endloop
  endfacet
  facet normal -1.741028e-01 5.419892e-04 9.847273e-01
    outer loop
      vertex -1.455900e+01 8.881784e-16 2.026767e+00
      vertex -1.463392e+01 -7.500000e+00 2.017650e+00
      vertex -1.424150e+01 -7.500000e+00 2.087031e+00
    endloop
  endfacet
  facet normal -3.030848e-01 5.542872e-04 9.529634e-01
    outer loop
      vertex -1.416628e+01 8.881784e-16 2.106592e+00
      vertex -1.424150e+01 -7.500000e+00 2.087031e+00
      vertex -1.386173e+01 -7.500000e+00 2.207813e+00
    endloop
  endfacet
  facet normal -4.267188e-01 5.663596e-04 9.043842e-01
    outer loop
      vertex -1.378769e+01 8.881784e-16 2.238050e+00
      vertex -1.386173e+01 -7.500000e+00 2.207813e+00
      vertex -1.350133e+01 -7.500000e+00 2.377863e+00
    endloop
  endfacet
  facet normal -5.428231e-01 5.782064e-04 8.398468e-01
    outer loop
      vertex -1.343001e+01 8.881784e-16 2.418795e+00
      vertex -1.350133e+01 -7.500000e+00 2.377863e+00
      vertex -1.316665e+01 -7.500000e+00 2.594182e+00
    endloop
  endfacet
  facet normal -6.493493e-01 5.898276e-04 7.604901e-01
    outer loop
      vertex -1.309961e+01 8.881784e-16 2.645602e+00
      vertex -1.316665e+01 -7.500000e+00 2.594182e+00
      vertex -1.286359e+01 -7.500000e+00 2.852952e+00
    endloop
  endfacet
  facet normal -7.444174e-01 6.012232e-04 6.677143e-01
    outer loop
      vertex -1.280239e+01 8.881784e-16 2.914423e+00
      vertex -1.286359e+01 -7.500000e+00 2.852952e+00
      vertex -1.259750e+01 -7.500000e+00 3.149608e+00
    endloop
  endfacet
  facet normal -8.263500e-01 6.123932e-04 5.631565e-01
    outer loop
      vertex -1.254365e+01 0.000000e+00 3.220461e+00
      vertex -1.259750e+01 -7.500000e+00 3.149608e+00
      vertex -1.237307e+01 -7.500000e+00 3.478914e+00
    endloop
  endfacet
  facet normal -8.937015e-01 6.233375e-04 4.486616e-01
    outer loop
      vertex -1.232801e+01 0.000000e+00 3.558255e+00
      vertex -1.237307e+01 -7.500000e+00 3.478914e+00
      vertex -1.219428e+01 -7.500000e+00 3.835060e+00
    endloop
  endfacet
  facet normal -9.452834e-01 6.340562e-04 3.262499e-01
    outer loop
      vertex -1.215932e+01 0.000000e+00 3.921777e+00
      vertex -1.219428e+01 -7.500000e+00 3.835060e+00
      vertex -1.206427e+01 -7.500000e+00 4.211762e+00
    endloop
  endfacet
  facet normal -9.801853e-01 6.445493e-04 1.980815e-01
    outer loop
      vertex -1.204059e+01 0.000000e+00 4.304540e+00
      vertex -1.206427e+01 -7.500000e+00 4.211762e+00
      vertex -1.198533e+01 -7.500000e+00 4.602373e+00
    endloop
  endfacet
  facet normal -9.977917e-01 6.548167e-04 6.641781e-02
    outer loop
      vertex -1.197393e+01 0.000000e+00 4.699713e+00
      vertex -1.198533e+01 -7.500000e+00 4.602373e+00
      vertex -1.195886e+01 -7.500000e+00 5.000000e+00
    endloop
  endfacet
  facet normal -9.860700e-01 -6.597193e-04 1.663293e-01
    outer loop
      vertex -1.197393e+01 0.000000e+00 4.699713e+00
      vertex -1.204059e+01 0.000000e+00 4.304540e+00
      vertex -1.198533e+01 -7.500000e+00 4.602373e+00
    endloop
  endfacet
  facet normal 9.727586e-01 -3.483299e-04 -2.318201e-01
    outer loop
      vertex -1.782417e+01 0.000000e+00 5.888827e+00
      vertex -1.790945e+01 -7.500000e+00 5.542238e+00
      vertex -1.791707e+01 0.000000e+00 5.498988e+00
    endloop
  endfacet
  facet normal 9.949778e-01 -3.638981e-04 -1.000957e-01
    outer loop
      vertex -1.791707e+01 0.000000e+00 5.498988e+00
      vertex -1.795529e+01 -7.500000e+00 5.146376e+00
      vertex -1.795719e+01 0.000000e+00 5.100245e+00
    endloop
  endfacet
  facet normal 9.994415e-01 -3.792409e-04 3.341497e-02
    outer loop
      vertex -1.795719e+01 0.000000e+00 5.100245e+00
      vertex -1.794825e+01 -7.500000e+00 4.747931e+00
      vertex -1.794380e+01 0.000000e+00 4.699713e+00
    endloop
  endfacet
  facet normal 9.860702e-01 -3.943582e-04 1.663293e-01
    outer loop
      vertex -1.794380e+01 0.000000e+00 4.699713e+00
      vertex -1.788847e+01 -7.500000e+00 4.353934e+00
      vertex -1.787714e+01 0.000000e+00 4.304540e+00
    endloop
  endfacet
  facet normal 9.551024e-01 -4.092499e-04 2.962756e-01
    outer loop
      vertex -1.787714e+01 0.000000e+00 4.304540e+00
      vertex -1.777699e+01 -7.500000e+00 3.971337e+00
      vertex -1.775840e+01 0.000000e+00 3.921777e+00
    endloop
  endfacet
  facet normal 9.070908e-01 -4.239162e-04 4.209347e-01
    outer loop
      vertex -1.775840e+01 0.000000e+00 3.921777e+00
      vertex -1.761579e+01 -7.500000e+00 3.606891e+00
      vertex -1.758971e+01 0.000000e+00 3.558255e+00
    endloop
  endfacet
  facet normal 8.428922e-01 -4.383569e-04 5.380823e-01
    outer loop
      vertex -1.758971e+01 0.000000e+00 3.558255e+00
      vertex -1.740770e+01 -7.500000e+00 3.267027e+00
      vertex -1.737407e+01 0.000000e+00 3.220461e+00
    endloop
  endfacet
  facet normal 7.636521e-01 -4.525722e-04 6.456278e-01
    outer loop
      vertex -1.737407e+01 0.000000e+00 3.220461e+00
      vertex -1.715640e+01 -7.500000e+00 2.957742e+00
      vertex -1.711533e+01 8.881784e-16 2.914423e+00
    endloop
  endfacet
  facet normal 6.707847e-01 -4.665619e-04 7.416520e-01
    outer loop
      vertex -1.711533e+01 8.881784e-16 2.914423e+00
      vertex -1.686633e+01 -7.500000e+00 2.684493e+00
      vertex -1.681811e+01 8.881784e-16 2.645602e+00
    endloop
  endfacet
  facet normal 5.659470e-01 -4.803260e-04 8.244414e-01
    outer loop
      vertex -1.681811e+01 8.881784e-16 2.645602e+00
      vertex -1.654260e+01 -7.500000e+00 2.452102e+00
      vertex -1.648771e+01 8.881784e-16 2.418795e+00
    endloop
  endfacet
  facet normal 4.510101e-01 -4.938647e-04 8.925187e-01
    outer loop
      vertex -1.648771e+01 8.881784e-16 2.418795e+00
      vertex -1.619092e+01 -7.500000e+00 2.264669e+00
      vertex -1.613003e+01 8.881784e-16 2.238050e+00
    endloop
  endfacet
  facet normal 3.280248e-01 -5.071778e-04 9.446689e-01
    outer loop
      vertex -1.613003e+01 8.881784e-16 2.238050e+00
      vertex -1.581750e+01 -7.500000e+00 2.125502e+00
      vertex -1.575145e+01 8.881784e-16 2.106592e+00
    endloop
  endfacet
  facet normal 1.991860e-01 -5.202653e-04 9.799616e-01
    outer loop
      vertex -1.575145e+01 8.881784e-16 2.106592e+00
      vertex -1.542894e+01 -7.500000e+00 2.037057e+00
      vertex -1.535872e+01 8.881784e-16 2.026767e+00
    endloop
  endfacet
  facet normal 6.679262e-02 -5.331272e-04 9.977667e-01
    outer loop
      vertex -1.535872e+01 8.881784e-16 2.026767e+00
      vertex -1.503207e+01 -7.500000e+00 2.000893e+00
      vertex -1.495886e+01 8.881784e-16 2.000000e+00
    endloop
  endfacet
  facet normal -6.679262e-02 -5.457636e-04 9.977667e-01
    outer loop
      vertex -1.495886e+01 8.881784e-16 2.000000e+00
      vertex -1.463392e+01 -7.500000e+00 2.017650e+00
      vertex -1.455900e+01 8.881784e-16 2.026767e+00
    endloop
  endfacet
  facet normal -1.991860e-01 -5.581744e-04 9.799616e-01
    outer loop
      vertex -1.455900e+01 8.881784e-16 2.026767e+00
      vertex -1.424150e+01 -7.500000e+00 2.087031e+00
      vertex -1.416628e+01 8.881784e-16 2.106592e+00
    endloop
  endfacet
  facet normal -3.280248e-01 -5.703596e-04 9.446689e-01
    outer loop
      vertex -1.416628e+01 8.881784e-16 2.106592e+00
      vertex -1.386173e+01 -7.500000e+00 2.207813e+00
      vertex -1.378769e+01 8.881784e-16 2.238050e+00
    endloop
  endfacet
  facet normal -4.510100e-01 -5.823192e-04 8.925187e-01
    outer loop
      vertex -1.378769e+01 8.881784e-16 2.238050e+00
      vertex -1.350133e+01 -7.500000e+00 2.377863e+00
      vertex -1.343001e+01 8.881784e-16 2.418795e+00
    endloop
  endfacet
  facet normal -5.659470e-01 -5.940532e-04 8.244414e-01
    outer loop
      vertex -1.343001e+01 8.881784e-16 2.418795e+00
      vertex -1.316665e+01 -7.500000e+00 2.594182e+00
      vertex -1.309961e+01 8.881784e-16 2.645602e+00
    endloop
  endfacet
  facet normal -6.707846e-01 -6.055617e-04 7.416520e-01
    outer loop
      vertex -1.309961e+01 8.881784e-16 2.645602e+00
      vertex -1.286359e+01 -7.500000e+00 2.852952e+00
      vertex -1.280239e+01 8.881784e-16 2.914423e+00
    endloop
  endfacet
  facet normal -7.636520e-01 -6.168444e-04 6.456277e-01
    outer loop
      vertex -1.280239e+01 8.881784e-16 2.914423e+00
      vertex -1.259750e+01 -7.500000e+00 3.149608e+00
      vertex -1.254365e+01 0.000000e+00 3.220461e+00
    endloop
  endfacet
  facet normal -8.428921e-01 -6.279016e-04 5.380822e-01
    outer loop
      vertex -1.254365e+01 0.000000e+00 3.220461e+00
      vertex -1.237307e+01 -7.500000e+00 3.478914e+00
      vertex -1.232801e+01 0.000000e+00 3.558255e+00
    endloop
  endfacet
  facet normal -9.070907e-01 -6.387331e-04 4.209347e-01
    outer loop
      vertex -1.232801e+01 0.000000e+00 3.558255e+00
      vertex -1.219428e+01 -7.500000e+00 3.835060e+00
      vertex -1.215932e+01 0.000000e+00 3.921777e+00
    endloop
  endfacet
  facet normal -9.551023e-01 -6.493389e-04 2.962755e-01
    outer loop
      vertex -1.215932e+01 0.000000e+00 3.921777e+00
      vertex -1.206427e+01 -7.500000e+00 4.211762e+00
      vertex -1.204059e+01 0.000000e+00 4.304540e+00
    endloop
  endfacet
  facet normal -9.801853e-01 -6.445493e-04 1.980815e-01
    outer loop
      vertex -1.198533e+01 7.500000e+00 4.602373e+00
      vertex -1.206427e+01 7.500000e+00 4.211762e+00
      vertex -1.204059e+01 0.000000e+00 4.304540e+00
    endloop
  endfacet
  facet normal -9.452834e-01 -6.340562e-04 3.262499e-01
    outer loop
      vertex -1.206427e+01 7.500000e+00 4.211762e+00
      vertex -1.219428e+01 7.500000e+00 3.835060e+00
      vertex -1.215932e+01 0.000000e+00 3.921777e+00
    endloop
  endfacet
  facet normal -8.937015e-01 -6.233375e-04 4.486616e-01
    outer loop
      vertex -1.219428e+01 7.500000e+00 3.835060e+00
      vertex -1.237307e+01 7.500000e+00 3.478914e+00
      vertex -1.232801e+01 0.000000e+00 3.558255e+00
    endloop
  endfacet
  facet normal -8.263500e-01 -6.123932e-04 5.631565e-01
    outer loop
      vertex -1.237307e+01 7.500000e+00 3.478914e+00
      vertex -1.259750e+01 7.500000e+00 3.149608e+00
      vertex -1.254365e+01 0.000000e+00 3.220461e+00
    endloop
  endfacet
  facet normal -7.444174e-01 -6.012232e-04 6.677143e-01
    outer loop
      vertex -1.259750e+01 7.500000e+00 3.149608e+00
      vertex -1.286359e+01 7.500000e+00 2.852952e+00
      vertex -1.280239e+01 8.881784e-16 2.914423e+00
    endloop
  endfacet
  facet normal -6.493493e-01 -5.898276e-04 7.604901e-01
    outer loop
      vertex -1.286359e+01 7.500000e+00 2.852952e+00
      vertex -1.316665e+01 7.500000e+00 2.594182e+00
      vertex -1.309961e+01 8.881784e-16 2.645602e+00
    endloop
  endfacet
  facet normal -5.428231e-01 -5.782064e-04 8.398468e-01
    outer loop
      vertex -1.316665e+01 7.500000e+00 2.594182e+00
      vertex -1.350133e+01 7.500000e+00 2.377863e+00
      vertex -1.343001e+01 8.881784e-16 2.418795e+00
    endloop
  endfacet
  facet normal -4.267188e-01 -5.663596e-04 9.043842e-01
    outer loop
      vertex -1.350133e+01 7.500000e+00 2.377863e+00
      vertex -1.386173e+01 7.500000e+00 2.207813e+00
      vertex -1.378769e+01 8.881784e-16 2.238050e+00
    endloop
  endfacet
  facet normal -3.030848e-01 -5.542872e-04 9.529634e-01
    outer loop
      vertex -1.386173e+01 7.500000e+00 2.207813e+00
      vertex -1.424150e+01 7.500000e+00 2.087031e+00
      vertex -1.416628e+01 8.881784e-16 2.106592e+00
    endloop
  endfacet
  facet normal -1.741028e-01 -5.419892e-04 9.847273e-01
    outer loop
      vertex -1.424150e+01 7.500000e+00 2.087031e+00
      vertex -1.463392e+01 7.500000e+00 2.017650e+00
      vertex -1.455900e+01 8.881784e-16 2.026767e+00
    endloop
  endfacet
  facet normal -4.204868e-02 -5.294656e-04 9.991154e-01
    outer loop
      vertex -1.463392e+01 7.500000e+00 2.017650e+00
      vertex -1.503207e+01 7.500000e+00 2.000893e+00
      vertex -1.495886e+01 8.881784e-16 2.000000e+00
    endloop
  endfacet
  facet normal 9.074739e-02 -5.167164e-04 9.958738e-01
    outer loop
      vertex -1.503207e+01 7.500000e+00 2.000893e+00
      vertex -1.542894e+01 7.500000e+00 2.037057e+00
      vertex -1.535872e+01 8.881784e-16 2.026767e+00
    endloop
  endfacet
  facet normal 2.219422e-01 -5.037417e-04 9.750597e-01
    outer loop
      vertex -1.542894e+01 7.500000e+00 2.037057e+00
      vertex -1.581750e+01 7.500000e+00 2.125502e+00
      vertex -1.575145e+01 8.881784e-16 2.106592e+00
    endloop
  endfacet
  facet normal 3.492208e-01 -4.905414e-04 9.370403e-01
    outer loop
      vertex -1.581750e+01 7.500000e+00 2.125502e+00
      vertex -1.619092e+01 7.500000e+00 2.264669e+00
      vertex -1.613003e+01 8.881784e-16 2.238050e+00
    endloop
  endfacet
  facet normal 4.703372e-01 -4.771156e-04 8.824866e-01
    outer loop
      vertex -1.619092e+01 7.500000e+00 2.264669e+00
      vertex -1.654260e+01 7.500000e+00 2.452102e+00
      vertex -1.648771e+01 8.881784e-16 2.418795e+00
    endloop
  endfacet
  facet normal 5.831544e-01 -4.634642e-04 8.123612e-01
    outer loop
      vertex -1.654260e+01 7.500000e+00 2.452102e+00
      vertex -1.686633e+01 7.500000e+00 2.684493e+00
      vertex -1.681811e+01 8.881784e-16 2.645602e+00
    endloop
  endfacet
  facet normal 6.856817e-01 -4.495872e-04 7.279014e-01
    outer loop
      vertex -1.686633e+01 7.500000e+00 2.684493e+00
      vertex -1.715640e+01 7.500000e+00 2.957742e+00
      vertex -1.711533e+01 8.881784e-16 2.914423e+00
    endloop
  endfacet
  facet normal 7.761099e-01 -4.354847e-04 6.305975e-01
    outer loop
      vertex -1.715640e+01 7.500000e+00 2.957742e+00
      vertex -1.740770e+01 7.500000e+00 3.267027e+00
      vertex -1.737407e+01 0.000000e+00 3.220461e+00
    endloop
  endfacet
  facet normal 8.528434e-01 -4.211567e-04 5.221666e-01
    outer loop
      vertex -1.740770e+01 7.500000e+00 3.267027e+00
      vertex -1.761579e+01 7.500000e+00 3.606891e+00
      vertex -1.758971e+01 0.000000e+00 3.558255e+00
    endloop
  endfacet
  facet normal 9.145283e-01 -4.066032e-04 4.045218e-01
    outer loop
      vertex -1.761579e+01 7.500000e+00 3.606891e+00
      vertex -1.777699e+01 7.500000e+00 3.971337e+00
      vertex -1.775840e+01 0.000000e+00 3.921777e+00
    endloop
  endfacet
  facet normal 9.600760e-01 -3.918242e-04 2.797391e-01
    outer loop
      vertex -1.777699e+01 7.500000e+00 3.971337e+00
      vertex -1.788847e+01 7.500000e+00 4.353934e+00
      vertex -1.787714e+01 0.000000e+00 4.304540e+00
    endloop
  endfacet
  facet normal 9.886828e-01 -3.768197e-04 1.500204e-01
    outer loop
      vertex -1.788847e+01 7.500000e+00 4.353934e+00
      vertex -1.794825e+01 7.500000e+00 4.747931e+00
      vertex -1.794380e+01 0.000000e+00 4.699713e+00
    endloop
  endfacet
  facet normal 9.998441e-01 -3.615897e-04 1.765450e-02
    outer loop
      vertex -1.794825e+01 7.500000e+00 4.747931e+00
      vertex -1.795529e+01 7.500000e+00 5.146376e+00
      vertex -1.795719e+01 0.000000e+00 5.100245e+00
    endloop
  endfacet
  facet normal 9.933628e-01 -3.461342e-04 -1.150229e-01
    outer loop
      vertex -1.795529e+01 7.500000e+00 5.146376e+00
      vertex -1.790945e+01 7.500000e+00 5.542238e+00
      vertex -1.791707e+01 0.000000e+00 5.498988e+00
    endloop
  endfacet
  facet normal 9.693533e-01 -3.304532e-04 -2.456707e-01
    outer loop
      vertex -1.790945e+01 7.500000e+00 5.542238e+00
      vertex -1.781155e+01 7.500000e+00 5.928532e+00
      vertex -1.782417e+01 0.000000e+00 5.888827e+00
    endloop
  endfacet
  facet normal 9.282392e-01 -3.145467e-04 -3.719836e-01
    outer loop
      vertex -1.781155e+01 7.500000e+00 5.928532e+00
      vertex -1.766331e+01 7.500000e+00 6.298442e+00
      vertex -1.768013e+01 0.000000e+00 6.262804e+00
    endloop
  endfacet
  facet normal 8.707461e-01 -2.984148e-04 -4.917327e-01
    outer loop
      vertex -1.766331e+01 7.500000e+00 6.298442e+00
      vertex -1.746735e+01 7.500000e+00 6.645440e+00
      vertex -1.748754e+01 0.000000e+00 6.614247e+00
    endloop
  endfacet
  facet normal 7.978885e-01 -2.820575e-04 -6.028050e-01
    outer loop
      vertex -1.746735e+01 7.500000e+00 6.645440e+00
      vertex -1.722713e+01 7.500000e+00 6.963404e+00
      vertex -1.724982e+01 -8.881784e-16 6.936884e+00
    endloop
  endfacet
  facet normal 8.050700e-01 -3.002724e-04 -5.931797e-01
    outer loop
      vertex -1.746735e+01 -7.500000e+00 6.645440e+00
      vertex -1.748754e+01 0.000000e+00 6.614247e+00
      vertex -1.724982e+01 -8.881784e-16 6.936884e+00
    endloop
  endfacet
  facet normal 7.978885e-01 2.820575e-04 -6.028050e-01
    outer loop
      vertex -1.722713e+01 -7.500000e+00 6.963404e+00
      vertex -1.746735e+01 -7.500000e+00 6.645440e+00
      vertex -1.724982e+01 -8.881784e-16 6.936884e+00
    endloop
  endfacet
  facet normal 4.499279e-32 -1.000000e+00 -2.449294e-16
    outer loop
      vertex -1.936780e+01 -7.500000e+00 7.358229e+00
      vertex -1.737211e+01 -7.500000e+00 7.603380e+00
      vertex -1.912534e+01 -7.500000e+00 7.764142e+00
    endloop
  endfacet
  facet normal 4.499279e-32 -1.000000e+00 -2.449294e-16
    outer loop
      vertex -1.936780e+01 -7.500000e+00 7.358229e+00
      vertex -1.730958e+01 -7.500000e+00 7.397797e+00
      vertex -1.737211e+01 -7.500000e+00 7.603380e+00
    endloop
  endfacet
  facet normal 4.499279e-32 -1.000000e+00 -2.449294e-16
    outer loop
      vertex -1.936780e+01 -7.500000e+00 7.358229e+00
      vertex -1.722713e+01 -7.500000e+00 6.963404e+00
      vertex -1.730958e+01 -7.500000e+00 7.397797e+00
    endloop
  endfacet
  facet normal 4.499279e-32 -1.000000e+00 -2.449294e-16
    outer loop
      vertex -1.936780e+01 -7.500000e+00 7.358229e+00
      vertex -1.957084e+01 -7.500000e+00 6.931228e+00
      vertex -1.722713e+01 -7.500000e+00 6.963404e+00
    endloop
  endfacet
  facet normal 4.499279e-32 -1.000000e+00 -2.449294e-16
    outer loop
      vertex -1.722713e+01 -7.500000e+00 6.963404e+00
      vertex -1.957084e+01 -7.500000e+00 6.931228e+00
      vertex -1.746735e+01 -7.500000e+00 6.645440e+00
    endloop
  endfacet
  facet normal 4.499279e-32 -1.000000e+00 -2.449294e-16
    outer loop
      vertex -1.746735e+01 -7.500000e+00 6.645440e+00
      vertex -1.957084e+01 -7.500000e+00 6.931228e+00
      vertex -1.973264e+01 -7.500000e+00 6.486957e+00
    endloop
  endfacet
  facet normal 4.499279e-32 -1.000000e+00 -2.449294e-16
    outer loop
      vertex -1.766331e+01 -7.500000e+00 6.298442e+00
      vertex -1.973264e+01 -7.500000e+00 6.486957e+00
      vertex -1.985175e+01 -7.500000e+00 6.029390e+00
    endloop
  endfacet
  facet normal 4.499279e-32 -1.000000e+00 -2.449294e-16
    outer loop
      vertex -1.781155e+01 -7.500000e+00 5.928532e+00
      vertex -1.985175e+01 -7.500000e+00 6.029390e+00
      vertex -1.992711e+01 -7.500000e+00 5.562618e+00
    endloop
  endfacet
  facet normal 4.499279e-32 -1.000000e+00 -2.449294e-16
    outer loop
      vertex -1.790945e+01 -7.500000e+00 5.542238e+00
      vertex -1.992711e+01 -7.500000e+00 5.562618e+00
      vertex -1.795529e+01 -7.500000e+00 5.146376e+00
    endloop
  endfacet
  facet normal 4.499279e-32 -1.000000e+00 -2.449294e-16
    outer loop
      vertex -1.790945e+01 -7.500000e+00 5.542238e+00
      vertex -1.781155e+01 -7.500000e+00 5.928532e+00
      vertex -1.992711e+01 -7.500000e+00 5.562618e+00
    endloop
  endfacet
  facet normal 4.499279e-32 -1.000000e+00 -2.449294e-16
    outer loop
      vertex -1.746735e+01 -7.500000e+00 6.645440e+00
      vertex -1.973264e+01 -7.500000e+00 6.486957e+00
      vertex -1.766331e+01 -7.500000e+00 6.298442e+00
    endloop
  endfacet
  facet normal 4.499279e-32 -1.000000e+00 -2.449294e-16
    outer loop
      vertex -1.766331e+01 -7.500000e+00 6.298442e+00
      vertex -1.985175e+01 -7.500000e+00 6.029390e+00
      vertex -1.781155e+01 -7.500000e+00 5.928532e+00
    endloop
  endfacet
  facet normal 4.499279e-32 -1.000000e+00 -2.449294e-16
    outer loop
      vertex -1.992711e+01 -7.500000e+00 5.562618e+00
      vertex -1.995804e+01 -7.500000e+00 5.090815e+00
      vertex -1.795529e+01 -7.500000e+00 5.146376e+00
    endloop
  endfacet
  facet normal 4.499279e-32 -1.000000e+00 -2.449294e-16
    outer loop
      vertex -1.795529e+01 -7.500000e+00 5.146376e+00
      vertex -1.995804e+01 -7.500000e+00 5.090815e+00
      vertex -1.794825e+01 -7.500000e+00 4.747931e+00
    endloop
  endfacet
  facet normal 4.499279e-32 -1.000000e+00 -2.449294e-16
    outer loop
      vertex -1.794825e+01 -7.500000e+00 4.747931e+00
      vertex -1.995804e+01 -7.500000e+00 5.090815e+00
      vertex -1.994426e+01 -7.500000e+00 4.618200e+00
    endloop
  endfacet
  facet normal 4.499279e-32 -1.000000e+00 -2.449294e-16
    outer loop
      vertex -1.788847e+01 -7.500000e+00 4.353934e+00
      vertex -1.994426e+01 -7.500000e+00 4.618200e+00
      vertex -1.777699e+01 -7.500000e+00 3.971337e+00
    endloop
  endfacet
  facet normal 4.499279e-32 -1.000000e+00 -2.449294e-16
    outer loop
      vertex -1.788847e+01 -7.500000e+00 4.353934e+00
      vertex -1.794825e+01 -7.500000e+00 4.747931e+00
      vertex -1.994426e+01 -7.500000e+00 4.618200e+00
    endloop
  endfacet
  facet normal 4.499279e-32 -1.000000e+00 -2.449294e-16
    outer loop
      vertex -1.994426e+01 -7.500000e+00 0.000000e+00
      vertex -1.715640e+01 -7.500000e+00 2.957742e+00
      vertex -1.994426e+01 -7.500000e+00 4.618200e+00
    endloop
  endfacet
  facet normal 4.499279e-32 -1.000000e+00 -2.449294e-16
    outer loop
      vertex -1.994426e+01 -7.500000e+00 0.000000e+00
      vertex -1.686633e+01 -7.500000e+00 2.684493e+00
      vertex -1.715640e+01 -7.500000e+00 2.957742e+00
    endloop
  endfacet
  facet normal 4.499279e-32 -1.000000e+00 -2.449294e-16
    outer loop
      vertex -1.994426e+01 -7.500000e+00 0.000000e+00
      vertex -1.654260e+01 -7.500000e+00 2.452102e+00
      vertex -1.686633e+01 -7.500000e+00 2.684493e+00
    endloop
  endfacet
  facet normal 4.499279e-32 -1.000000e+00 -2.449294e-16
    outer loop
      vertex -1.994426e+01 -7.500000e+00 0.000000e+00
      vertex -1.619092e+01 -7.500000e+00 2.264669e+00
      vertex -1.654260e+01 -7.500000e+00 2.452102e+00
    endloop
  endfacet
  facet normal 4.499279e-32 -1.000000e+00 -2.449294e-16
    outer loop
      vertex -1.994426e+01 -7.500000e+00 0.000000e+00
      vertex -1.581750e+01 -7.500000e+00 2.125502e+00
      vertex -1.619092e+01 -7.500000e+00 2.264669e+00
    endloop
  endfacet
  facet normal 4.499279e-32 -1.000000e+00 -2.449294e-16
    outer loop
      vertex -1.994426e+01 -7.500000e+00 0.000000e+00
      vertex -1.542894e+01 -7.500000e+00 2.037057e+00
      vertex -1.581750e+01 -7.500000e+00 2.125502e+00
    endloop
  endfacet
  facet normal 4.499279e-32 -1.000000e+00 -2.449294e-16
    outer loop
      vertex -1.994426e+01 -7.500000e+00 0.000000e+00
      vertex -1.503207e+01 -7.500000e+00 2.000893e+00
      vertex -1.542894e+01 -7.500000e+00 2.037057e+00
    endloop
  endfacet
  facet normal 4.499279e-32 -1.000000e+00 -2.449294e-16
    outer loop
      vertex -1.994426e+01 -7.500000e+00 0.000000e+00
      vertex -1.463392e+01 -7.500000e+00 2.017650e+00
      vertex -1.503207e+01 -7.500000e+00 2.000893e+00
    endloop
  endfacet
  facet normal 4.499279e-32 -1.000000e+00 -2.449294e-16
    outer loop
      vertex -1.994426e+01 -7.500000e+00 0.000000e+00
      vertex -1.424150e+01 -7.500000e+00 2.087031e+00
      vertex -1.463392e+01 -7.500000e+00 2.017650e+00
    endloop
  endfacet
  facet normal 4.499279e-32 -1.000000e+00 -2.449294e-16
    outer loop
      vertex -1.994426e+01 -7.500000e+00 0.000000e+00
      vertex 1.995886e+01 -7.500000e+00 7.105427e-15
      vertex -1.424150e+01 -7.500000e+00 2.087031e+00
    endloop
  endfacet
  facet normal 4.499279e-32 -1.000000e+00 -2.449294e-16
    outer loop
      vertex -1.424150e+01 -7.500000e+00 2.087031e+00
      vertex 1.995886e+01 -7.500000e+00 7.105427e-15
      vertex -1.386173e+01 -7.500000e+00 2.207813e+00
    endloop
  endfacet
  facet normal 4.499279e-32 -1.000000e+00 -2.449294e-16
    outer loop
      vertex -1.386173e+01 -7.500000e+00 2.207813e+00
      vertex 1.995886e+01 -7.500000e+00 7.105427e-15
      vertex -1.350133e+01 -7.500000e+00 2.377863e+00
    endloop
  endfacet
  facet normal 4.499279e-32 -1.000000e+00 -2.449294e-16
    outer loop
      vertex -1.350133e+01 -7.500000e+00 2.377863e+00
      vertex 1.995886e+01 -7.500000e+00 7.105427e-15
      vertex -1.316665e+01 -7.500000e+00 2.594182e+00
    endloop
  endfacet
  facet normal 4.499279e-32 -1.000000e+00 -2.449294e-16
    outer loop
      vertex -1.316665e+01 -7.500000e+00 2.594182e+00
      vertex 1.995886e+01 -7.500000e+00 7.105427e-15
      vertex -1.286359e+01 -7.500000e+00 2.852952e+00
    endloop
  endfacet
  facet normal 4.499279e-32 -1.000000e+00 -2.449294e-16
    outer loop
      vertex -1.286359e+01 -7.500000e+00 2.852952e+00
      vertex 1.995886e+01 -7.500000e+00 7.105427e-15
      vertex -1.259750e+01 -7.500000e+00 3.149608e+00
    endloop
  endfacet
  facet normal 4.499279e-32 -1.000000e+00 -2.449294e-16
    outer loop
      vertex -1.259750e+01 -7.500000e+00 3.149608e+00
      vertex 1.995886e+01 -7.500000e+00 7.105427e-15
      vertex -1.237307e+01 -7.500000e+00 3.478914e+00
    endloop
  endfacet
  facet normal 4.499279e-32 -1.000000e+00 -2.449294e-16
    outer loop
      vertex -1.237307e+01 -7.500000e+00 3.478914e+00
      vertex 1.995886e+01 -7.500000e+00 7.105427e-15
      vertex -1.219428e+01 -7.500000e+00 3.835060e+00
    endloop
  endfacet
  facet normal 4.499279e-32 -1.000000e+00 -2.449294e-16
    outer loop
      vertex -1.219428e+01 -7.500000e+00 3.835060e+00
      vertex 1.995886e+01 -7.500000e+00 7.105427e-15
      vertex -1.206427e+01 -7.500000e+00 4.211762e+00
    endloop
  endfacet
  facet normal 4.499279e-32 -1.000000e+00 -2.449294e-16
    outer loop
      vertex -1.206427e+01 -7.500000e+00 4.211762e+00
      vertex 1.995886e+01 -7.500000e+00 7.105427e-15
      vertex -1.198533e+01 -7.500000e+00 4.602373e+00
    endloop
  endfacet
  facet normal 4.499279e-32 -1.000000e+00 -2.449294e-16
    outer loop
      vertex -1.198533e+01 -7.500000e+00 4.602373e+00
      vertex 1.995886e+01 -7.500000e+00 7.105427e-15
      vertex -1.195886e+01 -7.500000e+00 5.000000e+00
    endloop
  endfacet
  facet normal 4.499279e-32 -1.000000e+00 -2.449294e-16
    outer loop
      vertex -1.195886e+01 -7.500000e+00 5.000000e+00
      vertex 1.995886e+01 -7.500000e+00 7.105427e-15
      vertex 1.995886e+01 -7.500000e+00 1.000000e+01
    endloop
  endfacet
  facet normal 4.499279e-32 -1.000000e+00 -2.449294e-16
    outer loop
      vertex -1.195886e+01 -7.500000e+00 1.000000e+01
      vertex -1.195886e+01 -7.500000e+00 5.000000e+00
      vertex 1.995886e+01 -7.500000e+00 1.000000e+01
    endloop
  endfacet
  facet normal 4.499279e-32 -1.000000e+00 -2.449294e-16
    outer loop
      vertex -1.715640e+01 -7.500000e+00 2.957742e+00
      vertex -1.740770e+01 -7.500000e+00 3.267027e+00
      vertex -1.994426e+01 -7.500000e+00 4.618200e+00
    endloop
  endfacet
  facet normal 4.499279e-32 -1.000000e+00 -2.449294e-16
    outer loop
      vertex -1.994426e+01 -7.500000e+00 4.618200e+00
      vertex -1.740770e+01 -7.500000e+00 3.267027e+00
      vertex -1.761579e+01 -7.500000e+00 3.606891e+00
    endloop
  endfacet
  facet normal 4.499279e-32 -1.000000e+00 -2.449294e-16
    outer loop
      vertex -1.777699e+01 -7.500000e+00 3.971337e+00
      vertex -1.994426e+01 -7.500000e+00 4.618200e+00
      vertex -1.761579e+01 -7.500000e+00 3.606891e+00
    endloop
  endfacet
  facet normal 4.499279e-32 -1.000000e+00 -2.449294e-16
    outer loop
      vertex -1.737211e+01 -7.500000e+00 7.603380e+00
      vertex -1.747710e+01 -7.500000e+00 7.790861e+00
      vertex -1.912534e+01 -7.500000e+00 7.764142e+00
    endloop
  endfacet
  facet normal 4.499279e-32 -1.000000e+00 -2.449294e-16
    outer loop
      vertex -1.912534e+01 -7.500000e+00 7.764142e+00
      vertex -1.747710e+01 -7.500000e+00 7.790861e+00
      vertex -1.898800e+01 -7.500000e+00 7.929402e+00
    endloop
  endfacet
  facet normal 4.499279e-32 -1.000000e+00 -2.449294e-16
    outer loop
      vertex -1.898800e+01 -7.500000e+00 7.929402e+00
      vertex -1.747710e+01 -7.500000e+00 7.790861e+00
      vertex -1.761973e+01 -7.500000e+00 7.951582e+00
    endloop
  endfacet
  facet normal 4.499279e-32 -1.000000e+00 -2.449294e-16
    outer loop
      vertex -1.881852e+01 -7.500000e+00 8.061504e+00
      vertex -1.761973e+01 -7.500000e+00 7.951582e+00
      vertex -1.779340e+01 -7.500000e+00 8.078122e+00
    endloop
  endfacet
  facet normal 4.499279e-32 -1.000000e+00 -2.449294e-16
    outer loop
      vertex -1.862473e+01 -7.500000e+00 8.154351e+00
      vertex -1.779340e+01 -7.500000e+00 8.078122e+00
      vertex -1.799009e+01 -7.500000e+00 8.164638e+00
    endloop
  endfacet
  facet normal 4.499279e-32 -1.000000e+00 -2.449294e-16
    outer loop
      vertex -1.841558e+01 -7.500000e+00 8.203653e+00
      vertex -1.799009e+01 -7.500000e+00 8.164638e+00
      vertex -1.820073e+01 -7.500000e+00 8.207136e+00
    endloop
  endfacet
  facet normal 4.499279e-32 -1.000000e+00 -2.449294e-16
    outer loop
      vertex -1.841558e+01 -7.500000e+00 8.203653e+00
      vertex -1.862473e+01 -7.500000e+00 8.154351e+00
      vertex -1.799009e+01 -7.500000e+00 8.164638e+00
    endloop
  endfacet
  facet normal 4.499279e-32 -1.000000e+00 -2.449294e-16
    outer loop
      vertex -1.898800e+01 -7.500000e+00 7.929402e+00
      vertex -1.761973e+01 -7.500000e+00 7.951582e+00
      vertex -1.881852e+01 -7.500000e+00 8.061504e+00
    endloop
  endfacet
  facet normal 4.499279e-32 -1.000000e+00 -2.449294e-16
    outer loop
      vertex -1.881852e+01 -7.500000e+00 8.061504e+00
      vertex -1.779340e+01 -7.500000e+00 8.078122e+00
      vertex -1.862473e+01 -7.500000e+00 8.154351e+00
    endloop
  endfacet
  facet normal 9.567350e-01 1.071948e-03 2.909586e-01
    outer loop
      vertex -1.737211e+01 7.500000e+00 7.603380e+00
      vertex -1.734424e+01 2.500000e+00 7.530160e+00
      vertex -1.730958e+01 7.500000e+00 7.397797e+00
    endloop
  endfacet
  facet normal 9.043813e-01 -1.208020e-03 4.267235e-01
    outer loop
      vertex -1.737211e+01 7.500000e+00 7.603380e+00
      vertex -1.744331e+01 2.500000e+00 7.740145e+00
      vertex -1.734424e+01 2.500000e+00 7.530160e+00
    endloop
  endfacet
  facet normal 8.724877e-01 9.396660e-04 4.886351e-01
    outer loop
      vertex -1.737211e+01 7.500000e+00 7.603380e+00
      vertex -1.747710e+01 7.500000e+00 7.790861e+00
      vertex -1.744331e+01 2.500000e+00 7.740145e+00
    endloop
  endfacet
  facet normal 7.815946e-01 -1.045439e-03 6.237859e-01
    outer loop
      vertex -1.744331e+01 2.500000e+00 7.740145e+00
      vertex -1.747710e+01 7.500000e+00 7.790861e+00
      vertex -1.758815e+01 2.500000e+00 7.921620e+00
    endloop
  endfacet
  facet normal 6.166720e-01 -1.928134e-16 7.872202e-01
    outer loop
      vertex -1.758815e+01 -2.500000e+00 7.921620e+00
      vertex -1.758815e+01 2.500000e+00 7.921620e+00
      vertex -1.777093e+01 -2.500000e+00 8.064802e+00
    endloop
  endfacet
  facet normal 5.888854e-01 -4.934051e-04 8.082164e-01
    outer loop
      vertex -1.761973e+01 -7.500000e+00 7.951582e+00
      vertex -1.777093e+01 -2.500000e+00 8.064802e+00
      vertex -1.779340e+01 -7.500000e+00 8.078122e+00
    endloop
  endfacet
  facet normal 6.166717e-01 8.223001e-04 7.872199e-01
    outer loop
      vertex -1.761973e+01 -7.500000e+00 7.951582e+00
      vertex -1.758815e+01 -2.500000e+00 7.921620e+00
      vertex -1.777093e+01 -2.500000e+00 8.064802e+00
    endloop
  endfacet
  facet normal 7.479545e-01 -7.467989e-04 6.637496e-01
    outer loop
      vertex -1.761973e+01 -7.500000e+00 7.951582e+00
      vertex -1.747710e+01 -7.500000e+00 7.790861e+00
      vertex -1.758815e+01 -2.500000e+00 7.921620e+00
    endloop
  endfacet
  facet normal 7.815946e-01 1.045439e-03 6.237859e-01
    outer loop
      vertex -1.758815e+01 -2.500000e+00 7.921620e+00
      vertex -1.747710e+01 -7.500000e+00 7.790861e+00
      vertex -1.744331e+01 -2.500000e+00 7.740145e+00
    endloop
  endfacet
  facet normal 9.043820e-01 -1.045172e-16 4.267238e-01
    outer loop
      vertex -1.744331e+01 2.500000e+00 7.740145e+00
      vertex -1.744331e+01 -2.500000e+00 7.740145e+00
      vertex -1.734424e+01 2.500000e+00 7.530160e+00
    endloop
  endfacet
  facet normal 7.815950e-01 -1.527836e-16 6.237863e-01
    outer loop
      vertex -1.744331e+01 2.500000e+00 7.740145e+00
      vertex -1.758815e+01 -2.500000e+00 7.921620e+00
      vertex -1.744331e+01 -2.500000e+00 7.740145e+00
    endloop
  endfacet
  facet normal 7.815950e-01 -1.527836e-16 6.237863e-01
    outer loop
      vertex -1.744331e+01 2.500000e+00 7.740145e+00
      vertex -1.758815e+01 2.500000e+00 7.921620e+00
      vertex -1.758815e+01 -2.500000e+00 7.921620e+00
    endloop
  endfacet
  facet normal 7.479545e-01 7.467989e-04 6.637496e-01
    outer loop
      vertex -1.747710e+01 7.500000e+00 7.790861e+00
      vertex -1.761973e+01 7.500000e+00 7.951582e+00
      vertex -1.758815e+01 2.500000e+00 7.921620e+00
    endloop
  endfacet
  facet normal 6.166717e-01 -8.223001e-04 7.872199e-01
    outer loop
      vertex -1.758815e+01 2.500000e+00 7.921620e+00
      vertex -1.761973e+01 7.500000e+00 7.951582e+00
      vertex -1.777093e+01 2.500000e+00 8.064802e+00
    endloop
  endfacet
  facet normal 4.185040e-01 -2.224485e-16 9.082149e-01
    outer loop
      vertex -1.777093e+01 -2.500000e+00 8.064802e+00
      vertex -1.777093e+01 2.500000e+00 8.064802e+00
      vertex -1.798181e+01 -2.500000e+00 8.161973e+00
    endloop
  endfacet
  facet normal 4.026253e-01 -1.795615e-04 9.153649e-01
    outer loop
      vertex -1.779340e+01 -7.500000e+00 8.078122e+00
      vertex -1.798181e+01 -2.500000e+00 8.161973e+00
      vertex -1.799009e+01 -7.500000e+00 8.164638e+00
    endloop
  endfacet
  facet normal 4.185040e-01 5.386707e-04 9.082148e-01
    outer loop
      vertex -1.779340e+01 -7.500000e+00 8.078122e+00
      vertex -1.777093e+01 -2.500000e+00 8.064802e+00
      vertex -1.798181e+01 -2.500000e+00 8.161973e+00
    endloop
  endfacet
  facet normal 5.888854e-01 4.934051e-04 8.082164e-01
    outer loop
      vertex -1.761973e+01 7.500000e+00 7.951582e+00
      vertex -1.779340e+01 7.500000e+00 8.078122e+00
      vertex -1.777093e+01 2.500000e+00 8.064802e+00
    endloop
  endfacet
  facet normal 4.185040e-01 -5.386707e-04 9.082148e-01
    outer loop
      vertex -1.777093e+01 2.500000e+00 8.064802e+00
      vertex -1.779340e+01 7.500000e+00 8.078122e+00
      vertex -1.798181e+01 2.500000e+00 8.161973e+00
    endloop
  endfacet
  facet normal 1.977744e-01 -2.400914e-16 9.802476e-01
    outer loop
      vertex -1.798181e+01 -2.500000e+00 8.161973e+00
      vertex -1.798181e+01 2.500000e+00 8.161973e+00
      vertex -1.820940e+01 -2.500000e+00 8.207894e+00
    endloop
  endfacet
  facet normal 1.977744e-01 1.946368e-04 9.802476e-01
    outer loop
      vertex -1.799009e+01 -7.500000e+00 8.164638e+00
      vertex -1.820940e+01 -2.500000e+00 8.207894e+00
      vertex -1.820073e+01 -7.500000e+00 8.207136e+00
    endloop
  endfacet
  facet normal 1.977744e-01 1.946368e-04 9.802476e-01
    outer loop
      vertex -1.799009e+01 -7.500000e+00 8.164638e+00
      vertex -1.798181e+01 -2.500000e+00 8.161973e+00
      vertex -1.820940e+01 -2.500000e+00 8.207894e+00
    endloop
  endfacet
  facet normal 4.026253e-01 1.795615e-04 9.153649e-01
    outer loop
      vertex -1.779340e+01 7.500000e+00 8.078122e+00
      vertex -1.799009e+01 7.500000e+00 8.164638e+00
      vertex -1.798181e+01 2.500000e+00 8.161973e+00
    endloop
  endfacet
  facet normal 1.977744e-01 -1.946368e-04 9.802476e-01
    outer loop
      vertex -1.798181e+01 2.500000e+00 8.161973e+00
      vertex -1.799009e+01 7.500000e+00 8.164638e+00
      vertex -1.820940e+01 2.500000e+00 8.207894e+00
    endloop
  endfacet
  facet normal -3.361727e-02 -2.447909e-16 9.994348e-01
    outer loop
      vertex -1.820940e+01 -2.500000e+00 8.207894e+00
      vertex -1.820940e+01 2.500000e+00 8.207894e+00
      vertex -1.844146e+01 -2.500000e+00 8.200088e+00
    endloop
  endfacet
  facet normal -2.294428e-01 -4.934050e-04 9.733220e-01
    outer loop
      vertex -1.841558e+01 -7.500000e+00 8.203653e+00
      vertex -1.844146e+01 -2.500000e+00 8.200088e+00
      vertex -1.862473e+01 -7.500000e+00 8.154351e+00
    endloop
  endfacet
  facet normal -3.361727e-02 5.386707e-04 9.994346e-01
    outer loop
      vertex -1.841558e+01 -7.500000e+00 8.203653e+00
      vertex -1.820940e+01 -2.500000e+00 8.207894e+00
      vertex -1.844146e+01 -2.500000e+00 8.200088e+00
    endloop
  endfacet
  facet normal -1.620843e-02 -1.795615e-04 9.998686e-01
    outer loop
      vertex -1.841558e+01 -7.500000e+00 8.203653e+00
      vertex -1.820073e+01 -7.500000e+00 8.207136e+00
      vertex -1.820940e+01 -2.500000e+00 8.207894e+00
    endloop
  endfacet
  facet normal 1.977744e-01 -1.946368e-04 9.802476e-01
    outer loop
      vertex -1.799009e+01 7.500000e+00 8.164638e+00
      vertex -1.820073e+01 7.500000e+00 8.207136e+00
      vertex -1.820940e+01 2.500000e+00 8.207894e+00
    endloop
  endfacet
  facet normal -1.620843e-02 1.795615e-04 9.998686e-01
    outer loop
      vertex -1.820940e+01 2.500000e+00 8.207894e+00
      vertex -1.820073e+01 7.500000e+00 8.207136e+00
      vertex -1.841558e+01 7.500000e+00 8.203653e+00
    endloop
  endfacet
  facet normal -2.294428e-01 4.934050e-04 9.733220e-01
    outer loop
      vertex -1.844146e+01 2.500000e+00 8.200088e+00
      vertex -1.841558e+01 7.500000e+00 8.203653e+00
      vertex -1.862473e+01 7.500000e+00 8.154351e+00
    endloop
  endfacet
  facet normal -4.320830e-01 7.467989e-04 9.018335e-01
    outer loop
      vertex -1.866546e+01 2.500000e+00 8.138978e+00
      vertex -1.862473e+01 7.500000e+00 8.154351e+00
      vertex -1.881852e+01 7.500000e+00 8.061504e+00
    endloop
  endfacet
  facet normal -6.147722e-01 9.396660e-04 7.887042e-01
    outer loop
      vertex -1.886933e+01 2.500000e+00 8.027856e+00
      vertex -1.881852e+01 7.500000e+00 8.061504e+00
      vertex -1.898800e+01 7.500000e+00 7.929402e+00
    endloop
  endfacet
  facet normal -7.690751e-01 1.071948e-03 6.391575e-01
    outer loop
      vertex -1.904208e+01 2.500000e+00 7.872715e+00
      vertex -1.898800e+01 7.500000e+00 7.929402e+00
      vertex -1.912534e+01 7.500000e+00 7.764142e+00
    endloop
  endfacet
  facet normal -7.935228e-01 -1.490495e-16 6.085407e-01
    outer loop
      vertex -1.912534e+01 -7.500000e+00 7.764142e+00
      vertex -1.904208e+01 2.500000e+00 7.872715e+00
      vertex -1.912534e+01 7.500000e+00 7.764142e+00
    endloop
  endfacet
  facet normal -7.935228e-01 -1.490495e-16 6.085407e-01
    outer loop
      vertex -1.912534e+01 -7.500000e+00 7.764142e+00
      vertex -1.904208e+01 -2.500000e+00 7.872715e+00
      vertex -1.904208e+01 2.500000e+00 7.872715e+00
    endloop
  endfacet
  facet normal -7.690751e-01 -1.071948e-03 6.391575e-01
    outer loop
      vertex -1.912534e+01 -7.500000e+00 7.764142e+00
      vertex -1.898800e+01 -7.500000e+00 7.929402e+00
      vertex -1.904208e+01 -2.500000e+00 7.872715e+00
    endloop
  endfacet
  facet normal -6.681761e-01 1.208020e-03 7.440022e-01
    outer loop
      vertex -1.904208e+01 -2.500000e+00 7.872715e+00
      vertex -1.898800e+01 -7.500000e+00 7.929402e+00
      vertex -1.886933e+01 -2.500000e+00 8.027856e+00
    endloop
  endfacet
  facet normal -4.785870e-01 -2.150578e-16 8.780401e-01
    outer loop
      vertex -1.886933e+01 2.500000e+00 8.027856e+00
      vertex -1.886933e+01 -2.500000e+00 8.027856e+00
      vertex -1.866546e+01 2.500000e+00 8.138978e+00
    endloop
  endfacet
  facet normal -4.785867e-01 -1.045439e-03 8.780397e-01
    outer loop
      vertex -1.881852e+01 7.500000e+00 8.061504e+00
      vertex -1.886933e+01 2.500000e+00 8.027856e+00
      vertex -1.866546e+01 2.500000e+00 8.138978e+00
    endloop
  endfacet
  facet normal -3.361727e-02 -5.386707e-04 9.994346e-01
    outer loop
      vertex -1.820940e+01 2.500000e+00 8.207894e+00
      vertex -1.841558e+01 7.500000e+00 8.203653e+00
      vertex -1.844146e+01 2.500000e+00 8.200088e+00
    endloop
  endfacet
  facet normal -2.631966e-01 -2.362937e-16 9.647422e-01
    outer loop
      vertex -1.844146e+01 -2.500000e+00 8.200088e+00
      vertex -1.844146e+01 2.500000e+00 8.200088e+00
      vertex -1.866546e+01 -2.500000e+00 8.138978e+00
    endloop
  endfacet
  facet normal -4.320830e-01 -7.467989e-04 9.018335e-01
    outer loop
      vertex -1.862473e+01 -7.500000e+00 8.154351e+00
      vertex -1.866546e+01 -2.500000e+00 8.138978e+00
      vertex -1.881852e+01 -7.500000e+00 8.061504e+00
    endloop
  endfacet
  facet normal -2.631966e-01 8.223001e-04 9.647419e-01
    outer loop
      vertex -1.862473e+01 -7.500000e+00 8.154351e+00
      vertex -1.844146e+01 -2.500000e+00 8.200088e+00
      vertex -1.866546e+01 -2.500000e+00 8.138978e+00
    endloop
  endfacet
  facet normal -2.631966e-01 -8.223001e-04 9.647419e-01
    outer loop
      vertex -1.844146e+01 2.500000e+00 8.200088e+00
      vertex -1.862473e+01 7.500000e+00 8.154351e+00
      vertex -1.866546e+01 2.500000e+00 8.138978e+00
    endloop
  endfacet
  facet normal -4.785870e-01 -2.150578e-16 8.780401e-01
    outer loop
      vertex -1.866546e+01 -2.500000e+00 8.138978e+00
      vertex -1.866546e+01 2.500000e+00 8.138978e+00
      vertex -1.886933e+01 -2.500000e+00 8.027856e+00
    endloop
  endfacet
  facet normal -6.147722e-01 -9.396660e-04 7.887042e-01
    outer loop
      vertex -1.881852e+01 -7.500000e+00 8.061504e+00
      vertex -1.886933e+01 -2.500000e+00 8.027856e+00
      vertex -1.898800e+01 -7.500000e+00 7.929402e+00
    endloop
  endfacet
  facet normal -4.785867e-01 1.045439e-03 8.780397e-01
    outer loop
      vertex -1.881852e+01 -7.500000e+00 8.061504e+00
      vertex -1.866546e+01 -2.500000e+00 8.138978e+00
      vertex -1.886933e+01 -2.500000e+00 8.027856e+00
    endloop
  endfacet
  facet normal -6.681761e-01 -1.208020e-03 7.440022e-01
    outer loop
      vertex -1.886933e+01 2.500000e+00 8.027856e+00
      vertex -1.898800e+01 7.500000e+00 7.929402e+00
      vertex -1.904208e+01 2.500000e+00 7.872715e+00
    endloop
  endfacet
  facet normal -6.681766e-01 -1.822281e-16 7.440027e-01
    outer loop
      vertex -1.904208e+01 -2.500000e+00 7.872715e+00
      vertex -1.886933e+01 2.500000e+00 8.027856e+00
      vertex -1.904208e+01 2.500000e+00 7.872715e+00
    endloop
  endfacet
  facet normal -6.681766e-01 -1.822281e-16 7.440027e-01
    outer loop
      vertex -1.904208e+01 -2.500000e+00 7.872715e+00
      vertex -1.886933e+01 -2.500000e+00 8.027856e+00
      vertex -1.886933e+01 2.500000e+00 8.027856e+00
    endloop
  endfacet
  facet normal 8.724877e-01 -9.396660e-04 4.886351e-01
    outer loop
      vertex -1.747710e+01 -7.500000e+00 7.790861e+00
      vertex -1.737211e+01 -7.500000e+00 7.603380e+00
      vertex -1.744331e+01 -2.500000e+00 7.740145e+00
    endloop
  endfacet
  facet normal 9.043813e-01 1.208020e-03 4.267235e-01
    outer loop
      vertex -1.744331e+01 -2.500000e+00 7.740145e+00
      vertex -1.737211e+01 -7.500000e+00 7.603380e+00
      vertex -1.734424e+01 -2.500000e+00 7.530160e+00
    endloop
  endfacet
  facet normal 9.673988e-01 -6.203026e-17 2.532578e-01
    outer loop
      vertex -1.734424e+01 2.500000e+00 7.530160e+00
      vertex -1.734424e+01 -2.500000e+00 7.530160e+00
      vertex -1.730958e+01 7.500000e+00 7.397797e+00
    endloop
  endfacet
  facet normal 9.043820e-01 -1.045172e-16 4.267238e-01
    outer loop
      vertex -1.734424e+01 2.500000e+00 7.530160e+00
      vertex -1.744331e+01 -2.500000e+00 7.740145e+00
      vertex -1.734424e+01 -2.500000e+00 7.530160e+00
    endloop
  endfacet
  facet normal 9.567350e-01 -1.071948e-03 2.909586e-01
    outer loop
      vertex -1.737211e+01 -7.500000e+00 7.603380e+00
      vertex -1.730958e+01 -7.500000e+00 7.397797e+00
      vertex -1.734424e+01 -2.500000e+00 7.530160e+00
    endloop
  endfacet
  facet normal 9.673988e-01 -6.203026e-17 2.532578e-01
    outer loop
      vertex -1.734424e+01 -2.500000e+00 7.530160e+00
      vertex -1.730958e+01 -7.500000e+00 7.397797e+00
      vertex -1.730958e+01 7.500000e+00 7.397797e+00
    endloop
  endfacet
  facet normal 6.166720e-01 -1.928134e-16 7.872202e-01
    outer loop
      vertex -1.777093e+01 2.500000e+00 8.064802e+00
      vertex -1.777093e+01 -2.500000e+00 8.064802e+00
      vertex -1.758815e+01 2.500000e+00 7.921620e+00
    endloop
  endfacet
  facet normal 4.185040e-01 -2.224485e-16 9.082149e-01
    outer loop
      vertex -1.798181e+01 2.500000e+00 8.161973e+00
      vertex -1.798181e+01 -2.500000e+00 8.161973e+00
      vertex -1.777093e+01 2.500000e+00 8.064802e+00
    endloop
  endfacet
  facet normal 1.977744e-01 -2.400914e-16 9.802476e-01
    outer loop
      vertex -1.820940e+01 2.500000e+00 8.207894e+00
      vertex -1.820940e+01 -2.500000e+00 8.207894e+00
      vertex -1.798181e+01 2.500000e+00 8.161973e+00
    endloop
  endfacet
  facet normal -3.361727e-02 -2.447909e-16 9.994348e-01
    outer loop
      vertex -1.844146e+01 2.500000e+00 8.200088e+00
      vertex -1.844146e+01 -2.500000e+00 8.200088e+00
      vertex -1.820940e+01 2.500000e+00 8.207894e+00
    endloop
  endfacet
  facet normal -2.631966e-01 -2.362937e-16 9.647422e-01
    outer loop
      vertex -1.866546e+01 2.500000e+00 8.138978e+00
      vertex -1.866546e+01 -2.500000e+00 8.138978e+00
      vertex -1.844146e+01 2.500000e+00 8.200088e+00
    endloop
  endfacet
  facet normal -4.499279e-32 1.000000e+00 2.449294e-16
    outer loop
      vertex -1.995804e+01 7.500000e+00 5.090815e+00
      vertex -1.794825e+01 7.500000e+00 4.747931e+00
      vertex -1.994426e+01 7.500000e+00 4.618200e+00
    endloop
  endfacet
  facet normal -4.499279e-32 1.000000e+00 2.449294e-16
    outer loop
      vertex -1.995804e+01 7.500000e+00 5.090815e+00
      vertex -1.795529e+01 7.500000e+00 5.146376e+00
      vertex -1.794825e+01 7.500000e+00 4.747931e+00
    endloop
  endfacet
  facet normal -4.499279e-32 1.000000e+00 2.449294e-16
    outer loop
      vertex -1.995804e+01 7.500000e+00 5.090815e+00
      vertex -1.992711e+01 7.500000e+00 5.562618e+00
      vertex -1.795529e+01 7.500000e+00 5.146376e+00
    endloop
  endfacet
  facet normal -4.499279e-32 1.000000e+00 2.449294e-16
    outer loop
      vertex -1.795529e+01 7.500000e+00 5.146376e+00
      vertex -1.992711e+01 7.500000e+00 5.562618e+00
      vertex -1.790945e+01 7.500000e+00 5.542238e+00
    endloop
  endfacet
  facet normal -4.499279e-32 1.000000e+00 2.449294e-16
    outer loop
      vertex -1.790945e+01 7.500000e+00 5.542238e+00
      vertex -1.992711e+01 7.500000e+00 5.562618e+00
      vertex -1.781155e+01 7.500000e+00 5.928532e+00
    endloop
  endfacet
  facet normal -4.499279e-32 1.000000e+00 2.449294e-16
    outer loop
      vertex -1.781155e+01 7.500000e+00 5.928532e+00
      vertex -1.992711e+01 7.500000e+00 5.562618e+00
      vertex -1.985175e+01 7.500000e+00 6.029390e+00
    endloop
  endfacet
  facet normal -4.499279e-32 1.000000e+00 2.449294e-16
    outer loop
      vertex -1.766331e+01 7.500000e+00 6.298442e+00
      vertex -1.985175e+01 7.500000e+00 6.029390e+00
      vertex -1.973264e+01 7.500000e+00 6.486957e+00
    endloop
  endfacet
  facet normal -4.499279e-32 1.000000e+00 2.449294e-16
    outer loop
      vertex -1.746735e+01 7.500000e+00 6.645440e+00
      vertex -1.973264e+01 7.500000e+00 6.486957e+00
      vertex -1.957084e+01 7.500000e+00 6.931228e+00
    endloop
  endfacet
  facet normal -4.499279e-32 1.000000e+00 2.449294e-16
    outer loop
      vertex -1.722713e+01 7.500000e+00 6.963404e+00
      vertex -1.957084e+01 7.500000e+00 6.931228e+00
      vertex -1.936780e+01 7.500000e+00 7.358229e+00
    endloop
  endfacet
  facet normal -4.499279e-32 1.000000e+00 2.449294e-16
    outer loop
      vertex -1.730958e+01 7.500000e+00 7.397797e+00
      vertex -1.936780e+01 7.500000e+00 7.358229e+00
      vertex -1.737211e+01 7.500000e+00 7.603380e+00
    endloop
  endfacet
  facet normal -4.499279e-32 1.000000e+00 2.449294e-16
    outer loop
      vertex -1.730958e+01 7.500000e+00 7.397797e+00
      vertex -1.722713e+01 7.500000e+00 6.963404e+00
      vertex -1.936780e+01 7.500000e+00 7.358229e+00
    endloop
  endfacet
  facet normal -4.499279e-32 1.000000e+00 2.449294e-16
    outer loop
      vertex -1.781155e+01 7.500000e+00 5.928532e+00
      vertex -1.985175e+01 7.500000e+00 6.029390e+00
      vertex -1.766331e+01 7.500000e+00 6.298442e+00
    endloop
  endfacet
  facet normal -4.499279e-32 1.000000e+00 2.449294e-16
    outer loop
      vertex -1.766331e+01 7.500000e+00 6.298442e+00
      vertex -1.973264e+01 7.500000e+00 6.486957e+00
      vertex -1.746735e+01 7.500000e+00 6.645440e+00
    endloop
  endfacet
  facet normal -4.499279e-32 1.000000e+00 2.449294e-16
    outer loop
      vertex -1.746735e+01 7.500000e+00 6.645440e+00
      vertex -1.957084e+01 7.500000e+00 6.931228e+00
      vertex -1.722713e+01 7.500000e+00 6.963404e+00
    endloop
  endfacet
  facet normal -4.499279e-32 1.000000e+00 2.449294e-16
    outer loop
      vertex -1.936780e+01 7.500000e+00 7.358229e+00
      vertex -1.912534e+01 7.500000e+00 7.764142e+00
      vertex -1.737211e+01 7.500000e+00 7.603380e+00
    endloop
  endfacet
  facet normal -4.499279e-32 1.000000e+00 2.449294e-16
    outer loop
      vertex -1.737211e+01 7.500000e+00 7.603380e+00
      vertex -1.912534e+01 7.500000e+00 7.764142e+00
      vertex -1.747710e+01 7.500000e+00 7.790861e+00
    endloop
  endfacet
  facet normal -4.499279e-32 1.000000e+00 2.449294e-16
    outer loop
      vertex -1.747710e+01 7.500000e+00 7.790861e+00
      vertex -1.912534e+01 7.500000e+00 7.764142e+00
      vertex -1.898800e+01 7.500000e+00 7.929402e+00
    endloop
  endfacet
  facet normal -4.499279e-32 1.000000e+00 2.449294e-16
    outer loop
      vertex -1.761973e+01 7.500000e+00 7.951582e+00
      vertex -1.898800e+01 7.500000e+00 7.929402e+00
      vertex -1.881852e+01 7.500000e+00 8.061504e+00
    endloop
  endfacet
  facet normal -4.499279e-32 1.000000e+00 2.449294e-16
    outer loop
      vertex -1.779340e+01 7.500000e+00 8.078122e+00
      vertex -1.881852e+01 7.500000e+00 8.061504e+00
      vertex -1.862473e+01 7.500000e+00 8.154351e+00
    endloop
  endfacet
  facet normal -4.499279e-32 1.000000e+00 2.449294e-16
    outer loop
      vertex -1.799009e+01 7.500000e+00 8.164638e+00
      vertex -1.862473e+01 7.500000e+00 8.154351e+00
      vertex -1.841558e+01 7.500000e+00 8.203653e+00
    endloop
  endfacet
  facet normal -4.499279e-32 1.000000e+00 2.449294e-16
    outer loop
      vertex -1.820073e+01 7.500000e+00 8.207136e+00
      vertex -1.799009e+01 7.500000e+00 8.164638e+00
      vertex -1.841558e+01 7.500000e+00 8.203653e+00
    endloop
  endfacet
  facet normal -4.499279e-32 1.000000e+00 2.449294e-16
    outer loop
      vertex -1.747710e+01 7.500000e+00 7.790861e+00
      vertex -1.898800e+01 7.500000e+00 7.929402e+00
      vertex -1.761973e+01 7.500000e+00 7.951582e+00
    endloop
  endfacet
  facet normal -4.499279e-32 1.000000e+00 2.449294e-16
    outer loop
      vertex -1.761973e+01 7.500000e+00 7.951582e+00
      vertex -1.881852e+01 7.500000e+00 8.061504e+00
      vertex -1.779340e+01 7.500000e+00 8.078122e+00
    endloop
  endfacet
  facet normal -4.499279e-32 1.000000e+00 2.449294e-16
    outer loop
      vertex -1.779340e+01 7.500000e+00 8.078122e+00
      vertex -1.862473e+01 7.500000e+00 8.154351e+00
      vertex -1.799009e+01 7.500000e+00 8.164638e+00
    endloop
  endfacet
  facet normal -4.499279e-32 1.000000e+00 2.449294e-16
    outer loop
      vertex -1.794825e+01 7.500000e+00 4.747931e+00
      vertex -1.788847e+01 7.500000e+00 4.353934e+00
      vertex -1.994426e+01 7.500000e+00 4.618200e+00
    endloop
  endfacet
  facet normal -4.499279e-32 1.000000e+00 2.449294e-16
    outer loop
      vertex -1.994426e+01 7.500000e+00 4.618200e+00
      vertex -1.788847e+01 7.500000e+00 4.353934e+00
      vertex -1.777699e+01 7.500000e+00 3.971337e+00
    endloop
  endfacet
  facet normal -4.499279e-32 1.000000e+00 2.449294e-16
    outer loop
      vertex -1.761579e+01 7.500000e+00 3.606891e+00
      vertex -1.994426e+01 7.500000e+00 4.618200e+00
      vertex -1.777699e+01 7.500000e+00 3.971337e+00
    endloop
  endfacet
  facet normal -4.499279e-32 1.000000e+00 2.449294e-16
    outer loop
      vertex -1.761579e+01 7.500000e+00 3.606891e+00
      vertex -1.740770e+01 7.500000e+00 3.267027e+00
      vertex -1.994426e+01 7.500000e+00 4.618200e+00
    endloop
  endfacet
  facet normal -4.499279e-32 1.000000e+00 2.449294e-16
    outer loop
      vertex -1.994426e+01 7.500000e+00 4.618200e+00
      vertex -1.740770e+01 7.500000e+00 3.267027e+00
      vertex -1.715640e+01 7.500000e+00 2.957742e+00
    endloop
  endfacet
  facet normal -4.499279e-32 1.000000e+00 2.449294e-16
    outer loop
      vertex -1.994426e+01 7.500000e+00 3.552714e-15
      vertex -1.715640e+01 7.500000e+00 2.957742e+00
      vertex -1.686633e+01 7.500000e+00 2.684493e+00
    endloop
  endfacet
  facet normal -4.499279e-32 1.000000e+00 2.449294e-16
    outer loop
      vertex -1.654260e+01 7.500000e+00 2.452102e+00
      vertex -1.994426e+01 7.500000e+00 3.552714e-15
      vertex -1.686633e+01 7.500000e+00 2.684493e+00
    endloop
  endfacet
  facet normal -4.499279e-32 1.000000e+00 2.449294e-16
    outer loop
      vertex -1.654260e+01 7.500000e+00 2.452102e+00
      vertex -1.619092e+01 7.500000e+00 2.264669e+00
      vertex -1.994426e+01 7.500000e+00 3.552714e-15
    endloop
  endfacet
  facet normal -4.499279e-32 1.000000e+00 2.449294e-16
    outer loop
      vertex -1.994426e+01 7.500000e+00 3.552714e-15
      vertex -1.619092e+01 7.500000e+00 2.264669e+00
      vertex -1.581750e+01 7.500000e+00 2.125502e+00
    endloop
  endfacet
  facet normal -4.499279e-32 1.000000e+00 2.449294e-16
    outer loop
      vertex -1.542894e+01 7.500000e+00 2.037057e+00
      vertex -1.994426e+01 7.500000e+00 3.552714e-15
      vertex -1.581750e+01 7.500000e+00 2.125502e+00
    endloop
  endfacet
  facet normal -4.499279e-32 1.000000e+00 2.449294e-16
    outer loop
      vertex -1.542894e+01 7.500000e+00 2.037057e+00
      vertex -1.503207e+01 7.500000e+00 2.000893e+00
      vertex -1.994426e+01 7.500000e+00 3.552714e-15
    endloop
  endfacet
  facet normal -4.499279e-32 1.000000e+00 2.449294e-16
    outer loop
      vertex -1.994426e+01 7.500000e+00 3.552714e-15
      vertex -1.503207e+01 7.500000e+00 2.000893e+00
      vertex -1.463392e+01 7.500000e+00 2.017650e+00
    endloop
  endfacet
  facet normal -4.499279e-32 1.000000e+00 2.449294e-16
    outer loop
      vertex -1.424150e+01 7.500000e+00 2.087031e+00
      vertex -1.994426e+01 7.500000e+00 3.552714e-15
      vertex -1.463392e+01 7.500000e+00 2.017650e+00
    endloop
  endfacet
  facet normal -4.499279e-32 1.000000e+00 2.449294e-16
    outer loop
      vertex -1.424150e+01 7.500000e+00 2.087031e+00
      vertex 1.995886e+01 7.500000e+00 1.065814e-14
      vertex -1.994426e+01 7.500000e+00 3.552714e-15
    endloop
  endfacet
  facet normal -4.499279e-32 1.000000e+00 2.449294e-16
    outer loop
      vertex -1.424150e+01 7.500000e+00 2.087031e+00
      vertex -1.386173e+01 7.500000e+00 2.207813e+00
      vertex 1.995886e+01 7.500000e+00 1.065814e-14
    endloop
  endfacet
  facet normal -4.499279e-32 1.000000e+00 2.449294e-16
    outer loop
      vertex 1.995886e+01 7.500000e+00 1.065814e-14
      vertex -1.386173e+01 7.500000e+00 2.207813e+00
      vertex -1.350133e+01 7.500000e+00 2.377863e+00
    endloop
  endfacet
  facet normal -4.499279e-32 1.000000e+00 2.449294e-16
    outer loop
      vertex -1.316665e+01 7.500000e+00 2.594182e+00
      vertex 1.995886e+01 7.500000e+00 1.065814e-14
      vertex -1.350133e+01 7.500000e+00 2.377863e+00
    endloop
  endfacet
  facet normal -4.499279e-32 1.000000e+00 2.449294e-16
    outer loop
      vertex -1.316665e+01 7.500000e+00 2.594182e+00
      vertex -1.286359e+01 7.500000e+00 2.852952e+00
      vertex 1.995886e+01 7.500000e+00 1.065814e-14
    endloop
  endfacet
  facet normal -4.499279e-32 1.000000e+00 2.449294e-16
    outer loop
      vertex 1.995886e+01 7.500000e+00 1.065814e-14
      vertex -1.286359e+01 7.500000e+00 2.852952e+00
      vertex -1.259750e+01 7.500000e+00 3.149608e+00
    endloop
  endfacet
  facet normal -4.499279e-32 1.000000e+00 2.449294e-16
    outer loop
      vertex -1.237307e+01 7.500000e+00 3.478914e+00
      vertex 1.995886e+01 7.500000e+00 1.065814e-14
      vertex -1.259750e+01 7.500000e+00 3.149608e+00
    endloop
  endfacet
  facet normal -4.499279e-32 1.000000e+00 2.449294e-16
    outer loop
      vertex -1.237307e+01 7.500000e+00 3.478914e+00
      vertex -1.219428e+01 7.500000e+00 3.835060e+00
      vertex 1.995886e+01 7.500000e+00 1.065814e-14
    endloop
  endfacet
  facet normal -4.499279e-32 1.000000e+00 2.449294e-16
    outer loop
      vertex 1.995886e+01 7.500000e+00 1.065814e-14
      vertex -1.219428e+01 7.500000e+00 3.835060e+00
      vertex -1.206427e+01 7.500000e+00 4.211762e+00
    endloop
  endfacet
  facet normal -4.499279e-32 1.000000e+00 2.449294e-16
    outer loop
      vertex -1.198533e+01 7.500000e+00 4.602373e+00
      vertex 1.995886e+01 7.500000e+00 1.065814e-14
      vertex -1.206427e+01 7.500000e+00 4.211762e+00
    endloop
  endfacet
  facet normal -4.499279e-32 1.000000e+00 2.449294e-16
    outer loop
      vertex -1.198533e+01 7.500000e+00 4.602373e+00
      vertex -1.195886e+01 7.500000e+00 5.000000e+00
      vertex 1.995886e+01 7.500000e+00 1.065814e-14
    endloop
  endfacet
  facet normal -4.499279e-32 1.000000e+00 2.449294e-16
    outer loop
      vertex 1.995886e+01 7.500000e+00 1.065814e-14
      vertex -1.195886e+01 7.500000e+00 5.000000e+00
      vertex 1.995886e+01 7.500000e+00 1.000000e+01
    endloop
  endfacet
  facet normal -4.499279e-32 1.000000e+00 2.449294e-16
    outer loop
      vertex 1.995886e+01 7.500000e+00 1.000000e+01
      vertex -1.195886e+01 7.500000e+00 5.000000e+00
      vertex -1.195886e+01 7.500000e+00 1.000000e+01
    endloop
  endfacet
  facet normal -4.499279e-32 1.000000e+00 2.449294e-16
    outer loop
      vertex -1.994426e+01 7.500000e+00 4.618200e+00
      vertex -1.715640e+01 7.500000e+00 2.957742e+00
      vertex -1.994426e+01 7.500000e+00 3.552714e-15
    endloop
  endfacet
  facet normal 9.824582e-01 -4.567509e-17 1.864827e-01
    outer loop
      vertex -1.730958e+01 7.500000e+00 7.397797e+00
      vertex -1.730958e+01 -7.500000e+00 7.397797e+00
      vertex -1.722713e+01 7.500000e+00 6.963404e+00
    endloop
  endfacet
  facet normal 9.824582e-01 -4.567509e-17 1.864827e-01
    outer loop
      vertex -1.722713e+01 7.500000e+00 6.963404e+00
      vertex -1.730958e+01 -7.500000e+00 7.397797e+00
      vertex -1.722713e+01 -7.500000e+00 6.963404e+00
    endloop
  endfacet
  facet normal -1.000000e+00 0.000000e+00 -1.836970e-16
    outer loop
      vertex -1.195886e+01 7.500000e+00 1.000000e+01
      vertex -1.195886e+01 7.500000e+00 5.000000e+00
      vertex -1.195886e+01 -7.500000e+00 1.000000e+01
    endloop
  endfacet
  facet normal -1.000000e+00 0.000000e+00 -1.836970e-16
    outer loop
      vertex -1.195886e+01 -7.500000e+00 1.000000e+01
      vertex -1.195886e+01 7.500000e+00 5.000000e+00
      vertex -1.195886e+01 -7.500000e+00 5.000000e+00
    endloop
  endfacet
  facet normal 9.053575e-02 9.958932e-01 2.283899e-16
    outer loop
      vertex 1.578767e+01 -3.286686e+00 7.105427e-15
      vertex -6.212325e+00 -1.286686e+00 4.440892e-15
      vertex 1.578767e+01 -3.286686e+00 1.000000e+01
    endloop
  endfacet
  facet normal 9.053575e-02 9.958932e-01 2.605546e-16
    outer loop
      vertex 1.578767e+01 -3.286686e+00 1.000000e+01
      vertex -6.212325e+00 -1.286686e+00 4.440892e-15
      vertex -6.212325e+00 -1.286686e+00 1.000000e+01
    endloop
  endfacet
  facet normal 1.000000e+00 0.000000e+00 1.836970e-16
    outer loop
      vertex -6.212325e+00 -1.286686e+00 4.440892e-15
      vertex -6.212325e+00 3.713314e+00 5.329071e-15
      vertex -6.212325e+00 -1.286686e+00 1.000000e+01
    endloop
  endfacet
  facet normal 1.000000e+00 0.000000e+00 1.836970e-16
    outer loop
      vertex -6.212325e+00 -1.286686e+00 1.000000e+01
      vertex -6.212325e+00 3.713314e+00 5.329071e-15
      vertex -6.212325e+00 3.713314e+00 1.000000e+01
    endloop
  endfacet
  facet normal 4.499279e-32 -1.000000e+00 -2.449294e-16
    outer loop
      vertex -6.212325e+00 3.713314e+00 5.329071e-15
      vertex 1.995886e+01 3.713314e+00 9.769963e-15
      vertex -6.212325e+00 3.713314e+00 1.000000e+01
    endloop
  endfacet
  facet normal 4.499279e-32 -1.000000e+00 -2.449294e-16
    outer loop
      vertex -6.212325e+00 3.713314e+00 1.000000e+01
      vertex 1.995886e+01 3.713314e+00 9.769963e-15
      vertex 1.995886e+01 3.713314e+00 1.000000e+01
    endloop
  endfacet
  facet normal -4.499279e-32 1.000000e+00 2.449294e-16
    outer loop
      vertex 1.578767e+01 -3.286686e+00 1.000000e+01
      vertex 1.995886e+01 -3.286686e+00 1.000000e+01
      vertex 1.578767e+01 -3.286686e+00 7.105427e-15
    endloop
  endfacet
  facet normal -4.499279e-32 1.000000e+00 2.449294e-16
    outer loop
      vertex 1.578767e+01 -3.286686e+00 7.105427e-15
      vertex 1.995886e+01 -3.286686e+00 1.000000e+01
      vertex 1.995886e+01 -3.286686e+00 7.993606e-15
    endloop
  endfacet
  facet normal -2.913813e-17 -2.449294e-16 1.000000e+00
    outer loop
      vertex -1.195886e+01 -7.500000e+00 1.000000e+01
      vertex -6.212325e+00 -1.286686e+00 1.000000e+01
      vertex -1.195886e+01 7.500000e+00 1.000000e+01
    endloop
  endfacet
  facet normal -2.274737e-17 -2.508400e-16 1.000000e+00
    outer loop
      vertex -1.195886e+01 -7.500000e+00 1.000000e+01
      vertex 1.578767e+01 -3.286686e+00 1.000000e+01
      vertex -6.212325e+00 -1.286686e+00 1.000000e+01
    endloop
  endfacet
  facet normal -1.558699e-16 6.258307e-16 1.000000e+00
    outer loop
      vertex -1.195886e+01 -7.500000e+00 1.000000e+01
      vertex 1.995886e+01 -7.500000e+00 1.000000e+01
      vertex 1.578767e+01 -3.286686e+00 1.000000e+01
    endloop
  endfacet
  facet normal -8.224922e-16 -3.412656e-17 1.000000e+00
    outer loop
      vertex 1.578767e+01 -3.286686e+00 1.000000e+01
      vertex 1.995886e+01 -7.500000e+00 1.000000e+01
      vertex 1.995886e+01 -3.286686e+00 1.000000e+01
    endloop
  endfacet
  facet normal 2.424740e-16 -6.729367e-17 1.000000e+00
    outer loop
      vertex -6.212325e+00 -1.286686e+00 1.000000e+01
      vertex -6.212325e+00 3.713314e+00 1.000000e+01
      vertex -1.195886e+01 7.500000e+00 1.000000e+01
    endloop
  endfacet
  facet normal -1.558699e-16 -6.718059e-16 1.000000e+00
    outer loop
      vertex -1.195886e+01 7.500000e+00 1.000000e+01
      vertex -6.212325e+00 3.713314e+00 1.000000e+01
      vertex 1.995886e+01 7.500000e+00 1.000000e+01
    endloop
  endfacet
  facet normal -1.836970e-16 -4.794823e-16 1.000000e+00
    outer loop
      vertex 1.995886e+01 7.500000e+00 1.000000e+01
      vertex -6.212325e+00 3.713314e+00 1.000000e+01
      vertex 1.995886e+01 3.713314e+00 1.000000e+01
    endloop
  endfacet
  facet normal 1.000000e+00 0.000000e+00 1.836970e-16
    outer loop
      vertex 1.995886e+01 3.713314e+00 1.000000e+01
      vertex 1.995886e+01 3.713314e+00 9.769963e-15
      vertex 1.995886e+01 7.500000e+00 1.000000e+01
    endloop
  endfacet
  facet normal 1.000000e+00 0.000000e+00 1.836970e-16
    outer loop
      vertex 1.995886e+01 7.500000e+00 1.000000e+01
      vertex 1.995886e+01 3.713314e+00 9.769963e-15
      vertex 1.995886e+01 7.500000e+00 1.065814e-14
    endloop
  endfacet
  facet normal 1.000000e+00 -0.000000e+00 1.836970e-16
    outer loop
      vertex 1.995886e+01 -3.286686e+00 7.993606e-15
      vertex 1.995886e+01 -3.286686e+00 1.000000e+01
      vertex 1.995886e+01 -7.500000e+00 7.105427e-15
    endloop
  endfacet
  facet normal 1.000000e+00 0.000000e+00 1.836970e-16
    outer loop
      vertex 1.995886e+01 -7.500000e+00 7.105427e-15
      vertex 1.995886e+01 -3.286686e+00 1.000000e+01
      vertex 1.995886e+01 -7.500000e+00 1.000000e+01
    endloop
  endfacet
  facet normal 1.836970e-16 3.412656e-17 -1.000000e+00
    outer loop
      vertex 1.995886e+01 -3.286686e+00 7.993606e-15
      vertex 1.995886e+01 -7.500000e+00 7.105427e-15
      vertex 1.578767e+01 -3.286686e+00 7.105427e-15
    endloop
  endfacet
  facet normal 2.059554e-16 5.616237e-17 -1.000000e+00
    outer loop
      vertex 1.578767e+01 -3.286686e+00 7.105427e-15
      vertex 1.995886e+01 -7.500000e+00 7.105427e-15
      vertex -1.994426e+01 -7.500000e+00 0.000000e+00
    endloop
  endfacet
  facet normal 1.836970e-16 2.449294e-16 -1.000000e+00
    outer loop
      vertex -6.212325e+00 -1.286686e+00 4.440892e-15
      vertex -1.994426e+01 -7.500000e+00 0.000000e+00
      vertex -1.994426e+01 7.500000e+00 3.552714e-15
    endloop
  endfacet
  facet normal 2.059554e-16 3.256465e-16 -1.000000e+00
    outer loop
      vertex -6.212325e+00 3.713314e+00 5.329071e-15
      vertex -1.994426e+01 7.500000e+00 3.552714e-15
      vertex 1.995886e+01 7.500000e+00 1.065814e-14
    endloop
  endfacet
  facet normal 1.836970e-16 4.794823e-16 -1.000000e+00
    outer loop
      vertex 1.995886e+01 3.713314e+00 9.769963e-15
      vertex -6.212325e+00 3.713314e+00 5.329071e-15
      vertex 1.995886e+01 7.500000e+00 1.065814e-14
    endloop
  endfacet
  facet normal 1.836970e-16 2.449294e-16 -1.000000e+00
    outer loop
      vertex 1.578767e+01 -3.286686e+00 7.105427e-15
      vertex -1.994426e+01 -7.500000e+00 0.000000e+00
      vertex -6.212325e+00 -1.286686e+00 4.440892e-15
    endloop
  endfacet
  facet normal 1.836970e-16 2.449294e-16 -1.000000e+00
    outer loop
      vertex -6.212325e+00 -1.286686e+00 4.440892e-15
      vertex -1.994426e+01 7.500000e+00 3.552714e-15
      vertex -6.212325e+00 3.713314e+00 5.329071e-15
    endloop
  endfacet
endsolid Default
