solid socket organizers
facet normal -1.0 -4.85984551620533e-018 -4.11418992901477e-017
outer loop
vertex -2.0 202.0 13.0
vertex -2.0 133.0 0.0
vertex -2.0 133.0 13.0
endloop
endfacet
facet normal -1.0 -4.85984551620533e-018 -4.11418992901477e-017
outer loop
vertex -2.0 133.0 0.0
vertex -2.0 202.0 13.0
vertex -2.0 202.0 0.0
endloop
endfacet
facet normal 0.0 1.0 0.0
outer loop
vertex -2.0 202.0 13.0
vertex 153.2 202.0 0.0
vertex -2.0 202.0 0.0
endloop
endfacet
facet normal 0.0 1.0 0.0
outer loop
vertex 153.2 202.0 0.0
vertex -2.0 202.0 13.0
vertex 153.2 202.0 13.0
endloop
endfacet
facet normal 0.0 -1.0 0.0
outer loop
vertex 10.247028554442 200.0 6.48000067254879
vertex 6.75297144555798 200.0 6.48000067254879
vertex 8.5 200.0 6.25
endloop
endfacet
facet normal 0.0 -1.0 0.0
outer loop
vertex 6.75297144555798 200.0 6.48000067254879
vertex 10.247028554442 200.0 6.48000067254879
vertex 11.875 200.0 7.15432852445504
endloop
endfacet
facet normal 0.0 -1.0 0.0
outer loop
vertex 6.75297144555798 200.0 6.48000067254879
vertex 11.875 200.0 7.15432852445504
vertex 5.125 200.0 7.15432852445504
endloop
endfacet
facet normal 0.0 -1.0 0.0
outer loop
vertex 5.125 200.0 7.15432852445504
vertex 11.875 200.0 7.15432852445504
vertex 13.2729707730092 200.0 8.2270292269908
endloop
endfacet
facet normal 0.0 -1.0 0.0
outer loop
vertex 5.125 200.0 7.15432852445504
vertex 13.2729707730092 200.0 8.2270292269908
vertex 3.7270292269908 200.0 8.2270292269908
endloop
endfacet
facet normal 0.0 -1.0 0.0
outer loop
vertex 3.7270292269908 200.0 8.2270292269908
vertex 13.2729707730092 200.0 8.2270292269908
vertex 2.65432852445504 200.0 9.625
endloop
endfacet
facet normal 0.0 -1.0 0.0
outer loop
vertex 2.65432852445504 200.0 9.625
vertex 13.2729707730092 200.0 8.2270292269908
vertex 14.345671475545 200.0 9.625
endloop
endfacet
facet normal 0.0 -1.0 0.0
outer loop
vertex 2.65432852445504 200.0 9.625
vertex 14.345671475545 200.0 9.625
vertex 1.98000067254879 200.0 11.252971445558
endloop
endfacet
facet normal 0.0 -1.0 0.0
outer loop
vertex 1.98000067254879 200.0 11.252971445558
vertex 14.345671475545 200.0 9.625
vertex 15.0199993274512 200.0 11.252971445558
endloop
endfacet
facet normal 0.0 -1.0 0.0
outer loop
vertex 1.98000067254879 200.0 11.252971445558
vertex 15.0199993274512 200.0 11.252971445558
vertex 1.75 200.0 13.0
endloop
endfacet
facet normal 0.0 -1.0 0.0
outer loop
vertex 1.75 200.0 13.0
vertex 15.0199993274512 200.0 11.252971445558
vertex 15.25 200.0 13.0
endloop
endfacet
facet normal 0.0 -1.0 0.0
outer loop
vertex 44.6999618833714 200.0 4.78963047654292
vertex 40.3000381166286 200.0 4.78963047654292
vertex 42.5 200.0 4.5
endloop
endfacet
facet normal 0.0 -1.0 0.0
outer loop
vertex 40.3000381166286 200.0 4.78963047654292
vertex 44.6999618833714 200.0 4.78963047654292
vertex 46.75 200.0 5.63878406783227
endloop
endfacet
facet normal 0.0 -1.0 0.0
outer loop
vertex 40.3000381166286 200.0 4.78963047654292
vertex 46.75 200.0 5.63878406783227
vertex 38.25 200.0 5.63878406783227
endloop
endfacet
facet normal 0.0 -1.0 0.0
outer loop
vertex 38.25 200.0 5.63878406783227
vertex 46.75 200.0 5.63878406783227
vertex 48.5104076400857 200.0 6.98959235991435
endloop
endfacet
facet normal 0.0 -1.0 0.0
outer loop
vertex 38.25 200.0 5.63878406783227
vertex 48.5104076400857 200.0 6.98959235991435
vertex 36.4895923599143 200.0 6.98959235991435
endloop
endfacet
facet normal 0.0 -1.0 0.0
outer loop
vertex 36.4895923599143 200.0 6.98959235991435
vertex 48.5104076400857 200.0 6.98959235991435
vertex 49.8612159321677 200.0 8.75
endloop
endfacet
facet normal 0.0 -1.0 0.0
outer loop
vertex 36.4895923599143 200.0 6.98959235991435
vertex 49.8612159321677 200.0 8.75
vertex 35.1387840678323 200.0 8.75
endloop
endfacet
facet normal 0.0 -1.0 0.0
outer loop
vertex 35.1387840678323 200.0 8.75
vertex 49.8612159321677 200.0 8.75
vertex 50.3789828851341 200.0 10.0
endloop
endfacet
facet normal 0.0 -1.0 0.0
outer loop
vertex 35.1387840678323 200.0 8.75
vertex 50.3789828851341 200.0 10.0
vertex 34.6210171148659 200.0 10.0
endloop
endfacet
facet normal 0.0 -1.0 0.0
outer loop
vertex 34.6210171148659 200.0 10.0
vertex 50.3789828851341 200.0 10.0
vertex 32.5741337464058 200.0 10.0
endloop
endfacet
facet normal 0.0 -1.0 0.0
outer loop
vertex 142.972891307441 200.0 2.27822330321918
vertex 137.227108532792 200.0 2.2782233460286
vertex 140.099999917299 200.0 1.9
endloop
endfacet
facet normal 0.0 -1.0 0.0
outer loop
vertex 137.227108532792 200.0 2.2782233460286
vertex 142.972891307441 200.0 2.27822330321918
vertex 145.649999904505 200.0 3.38711796285843
endloop
endfacet
facet normal 0.0 -1.0 0.0
outer loop
vertex 137.227108532792 200.0 2.2782233460286
vertex 145.649999904505 200.0 3.38711796285843
vertex 134.549999952252 200.0 3.38711804555988
endloop
endfacet
facet normal 0.0 -1.0 0.0
outer loop
vertex 134.549999952252 200.0 3.38711804555988
vertex 145.649999904505 200.0 3.38711796285843
vertex 147.948885183453 200.0 5.15111464111119
endloop
endfacet
facet normal 0.0 -1.0 0.0
outer loop
vertex 134.549999952252 200.0 3.38711804555988
vertex 147.948885183453 200.0 5.15111464111119
vertex 132.25111469959 200.0 5.15111475806869
endloop
endfacet
facet normal 0.0 -1.0 0.0
outer loop
vertex 132.25111469959 200.0 5.15111475806869
vertex 147.948885183453 200.0 5.15111464111119
vertex 149.712881913089 200.0 7.44999988063074
endloop
endfacet
facet normal 0.0 -1.0 0.0
outer loop
vertex 132.25111469959 200.0 5.15111475806869
vertex 149.712881913089 200.0 7.44999988063074
vertex 130.487118004209 200.0 7.45000002387385
endloop
endfacet
facet normal 0.0 -1.0 0.0
outer loop
vertex 130.487118004209 200.0 7.45000002387385
vertex 149.712881913089 200.0 7.44999988063074
vertex 150.821776632567 200.0 10.127108452909
endloop
endfacet
facet normal 0.0 -1.0 0.0
outer loop
vertex 130.487118004209 200.0 7.45000002387385
vertex 150.821776632567 200.0 10.127108452909
vertex 129.430873435611 200.0 10.0
endloop
endfacet
facet normal 0.0 -1.0 0.0
outer loop
vertex 129.430873435611 200.0 10.0
vertex 150.821776632567 200.0 10.127108452909
vertex 128.525247271025 200.0 10.0
endloop
endfacet
facet normal 0.0 -1.0 0.0
outer loop
vertex 128.525247271025 200.0 10.0
vertex 150.821776632567 200.0 10.127108452909
vertex 108.47475274615 200.0 10.0
endloop
endfacet
facet normal 0.0 -1.0 0.0
outer loop
vertex 108.47475274615 200.0 10.0
vertex 150.821776632567 200.0 10.127108452909
vertex 88.5113188374094 200.0 10.0
endloop
endfacet
facet normal 0.0 -1.0 0.0
outer loop
vertex 88.5113188374094 200.0 10.0
vertex 150.821776632567 200.0 10.127108452909
vertex 50.3789828851341 200.0 10.0
endloop
endfacet
facet normal 0.0 -1.0 0.0
outer loop
vertex 27.5058475995445 200.0 5.51407484625972
vertex 23.4941524004555 200.0 5.51407484625973
vertex 25.5 200.0 5.25
endloop
endfacet
facet normal 0.0 -1.0 0.0
outer loop
vertex 23.4941524004555 200.0 5.51407484625973
vertex 27.5058475995445 200.0 5.51407484625972
vertex 29.375 200.0 6.2883031206706
endloop
endfacet
facet normal 0.0 -1.0 0.0
outer loop
vertex 23.4941524004555 200.0 5.51407484625973
vertex 29.375 200.0 6.2883031206706
vertex 21.625 200.0 6.28830312067061
endloop
endfacet
facet normal 0.0 -1.0 0.0
outer loop
vertex 21.625 200.0 6.28830312067061
vertex 29.375 200.0 6.2883031206706
vertex 30.9800775541957 200.0 7.51992244580426
endloop
endfacet
facet normal 0.0 -1.0 0.0
outer loop
vertex 21.625 200.0 6.28830312067061
vertex 30.9800775541957 200.0 7.51992244580426
vertex 20.0199224458043 200.0 7.51992244580426
endloop
endfacet
facet normal 0.0 -1.0 0.0
outer loop
vertex 20.0199224458043 200.0 7.51992244580426
vertex 30.9800775541957 200.0 7.51992244580426
vertex 32.2116968793294 200.0 9.125
endloop
endfacet
facet normal 0.0 -1.0 0.0
outer loop
vertex 20.0199224458043 200.0 7.51992244580426
vertex 32.2116968793294 200.0 9.125
vertex 18.7883031206706 200.0 9.12500000000001
endloop
endfacet
facet normal 0.0 -1.0 0.0
outer loop
vertex 18.7883031206706 200.0 9.12500000000001
vertex 32.2116968793294 200.0 9.125
vertex 32.5741337464058 200.0 10.0
endloop
endfacet
facet normal 0.0 -1.0 0.0
outer loop
vertex 18.7883031206706 200.0 9.12500000000001
vertex 32.5741337464058 200.0 10.0
vertex 18.0140748462597 200.0 10.9941524004555
endloop
endfacet
facet normal 0.0 -1.0 0.0
outer loop
vertex 18.0140748462597 200.0 10.9941524004555
vertex 32.5741337464058 200.0 10.0
vertex 50.3789828851341 200.0 10.0
endloop
endfacet
facet normal 0.0 -1.0 0.0
outer loop
vertex 18.0140748462597 200.0 10.9941524004555
vertex 50.3789828851341 200.0 10.0
vertex 150.821776632567 200.0 10.127108452909
endloop
endfacet
facet normal 0.0 -1.0 0.0
outer loop
vertex 18.0140748462597 200.0 10.9941524004555
vertex 150.821776632567 200.0 10.127108452909
vertex 151.2 200.0 13.0
endloop
endfacet
facet normal 0.0 -1.0 0.0
outer loop
vertex 18.0140748462597 200.0 10.9941524004555
vertex 151.2 200.0 13.0
vertex 17.75 200.0 13.0
endloop
endfacet
facet normal 0.0 -1.0 0.0
outer loop
vertex 80.9587809284739 200.0 3.82370465025386
vertex 76.0412190715261 200.0 3.82370465025386
vertex 78.5 200.0 3.5
endloop
endfacet
facet normal 0.0 -1.0 0.0
outer loop
vertex 76.0412190715261 200.0 3.82370465025386
vertex 80.9587809284739 200.0 3.82370465025386
vertex 83.25 200.0 4.77275866404784
endloop
endfacet
facet normal 0.0 -1.0 0.0
outer loop
vertex 76.0412190715261 200.0 3.82370465025386
vertex 83.25 200.0 4.77275866404784
vertex 73.75 200.0 4.77275866404784
endloop
endfacet
facet normal 0.0 -1.0 0.0
outer loop
vertex 73.75 200.0 4.77275866404784
vertex 83.25 200.0 4.77275866404784
vertex 85.2175144212722 200.0 6.2824855787278
endloop
endfacet
facet normal 0.0 -1.0 0.0
outer loop
vertex 73.75 200.0 4.77275866404784
vertex 85.2175144212722 200.0 6.2824855787278
vertex 71.7824855787278 200.0 6.2824855787278
endloop
endfacet
facet normal 0.0 -1.0 0.0
outer loop
vertex 71.7824855787278 200.0 6.2824855787278
vertex 85.2175144212722 200.0 6.2824855787278
vertex 86.7272413359522 200.0 8.25
endloop
endfacet
facet normal 0.0 -1.0 0.0
outer loop
vertex 71.7824855787278 200.0 6.2824855787278
vertex 86.7272413359522 200.0 8.25
vertex 70.2727586640478 200.0 8.25
endloop
endfacet
facet normal 0.0 -1.0 0.0
outer loop
vertex 70.2727586640478 200.0 8.25
vertex 86.7272413359522 200.0 8.25
vertex 87.4521150701051 200.0 10.0
endloop
endfacet
facet normal 0.0 -1.0 0.0
outer loop
vertex 70.2727586640478 200.0 8.25
vertex 87.4521150701051 200.0 10.0
vertex 69.5478849298949 200.0 10.0
endloop
endfacet
facet normal 0.0 -1.0 0.0
outer loop
vertex 69.5478849298949 200.0 10.0
vertex 87.4521150701051 200.0 10.0
vertex 88.5113188374094 200.0 10.0
endloop
endfacet
facet normal 0.0 -1.0 0.0
outer loop
vertex 69.5478849298949 200.0 10.0
vertex 88.5113188374094 200.0 10.0
vertex 68.4155489776196 200.0 10.0
endloop
endfacet
facet normal 0.0 -1.0 0.0
outer loop
vertex 68.4155489776196 200.0 10.0
vertex 88.5113188374094 200.0 10.0
vertex 51.5844510223804 200.0 10.0
endloop
endfacet
facet normal 0.0 -1.0 0.0
outer loop
vertex 51.5844510223804 200.0 10.0
vertex 88.5113188374094 200.0 10.0
vertex 50.3789828851341 200.0 10.0
endloop
endfacet
facet normal 0.0 -1.0 0.0
outer loop
vertex 100.588190451025 200.0 3.34074173710932
vertex 95.4118095489748 200.0 3.34074173710932
vertex 98.0 200.0 3.0
endloop
endfacet
facet normal 0.0 -1.0 0.0
outer loop
vertex 95.4118095489748 200.0 3.34074173710932
vertex 100.588190451025 200.0 3.34074173710932
vertex 103.0 200.0 4.33974596215562
endloop
endfacet
facet normal 0.0 -1.0 0.0
outer loop
vertex 95.4118095489748 200.0 3.34074173710932
vertex 103.0 200.0 4.33974596215562
vertex 93.0 200.0 4.33974596215562
endloop
endfacet
facet normal 0.0 -1.0 0.0
outer loop
vertex 93.0 200.0 4.33974596215562
vertex 103.0 200.0 4.33974596215562
vertex 105.071067811865 200.0 5.92893218813453
endloop
endfacet
facet normal 0.0 -1.0 0.0
outer loop
vertex 93.0 200.0 4.33974596215562
vertex 105.071067811865 200.0 5.92893218813453
vertex 90.9289321881345 200.0 5.92893218813453
endloop
endfacet
facet normal 0.0 -1.0 0.0
outer loop
vertex 90.9289321881345 200.0 5.92893218813453
vertex 105.071067811865 200.0 5.92893218813453
vertex 106.660254037844 200.0 8.0
endloop
endfacet
facet normal 0.0 -1.0 0.0
outer loop
vertex 90.9289321881345 200.0 5.92893218813453
vertex 106.660254037844 200.0 8.0
vertex 89.3397459621556 200.0 8.0
endloop
endfacet
facet normal 0.0 -1.0 0.0
outer loop
vertex 89.3397459621556 200.0 8.0
vertex 106.660254037844 200.0 8.0
vertex 107.488681162591 200.0 10.0
endloop
endfacet
facet normal 0.0 -1.0 0.0
outer loop
vertex 89.3397459621556 200.0 8.0
vertex 107.488681162591 200.0 10.0
vertex 88.5113188374094 200.0 10.0
endloop
endfacet
facet normal 0.0 -1.0 0.0
outer loop
vertex 88.5113188374094 200.0 10.0
vertex 107.488681162591 200.0 10.0
vertex 108.47475274615 200.0 10.0
endloop
endfacet
facet normal 0.0 -1.0 0.0
outer loop
vertex 121.217599885417 200.0 2.85777880034246
vertex 115.782399963452 200.0 2.85777884083786
vertex 118.499999921769 200.0 2.5
endloop
endfacet
facet normal 0.0 -1.0 0.0
outer loop
vertex 115.782399963452 200.0 2.85777884083786
vertex 121.217599885417 200.0 2.85777880034246
vertex 123.749999909666 200.0 3.90673320810933
endloop
endfacet
facet normal 0.0 -1.0 0.0
outer loop
vertex 115.782399963452 200.0 2.85777884083786
vertex 123.749999909666 200.0 3.90673320810933
vertex 113.249999954833 200.0 3.90673328634042
endloop
endfacet
facet normal 0.0 -1.0 0.0
outer loop
vertex 113.249999954833 200.0 3.90673328634042
vertex 123.749999909666 200.0 3.90673320810933
vertex 125.924621119482 200.0 5.57537871456464
endloop
endfacet
facet normal 0.0 -1.0 0.0
outer loop
vertex 113.249999954833 200.0 3.90673328634042
vertex 125.924621119482 200.0 5.57537871456464
vertex 111.075378769882 200.0 5.57537882520012
endloop
endfacet
facet normal 0.0 -1.0 0.0
outer loop
vertex 111.075378769882 200.0 5.57537882520012
vertex 125.924621119482 200.0 5.57537871456464
vertex 127.593266674544 200.0 7.74999988708314
endloop
endfacet
facet normal 0.0 -1.0 0.0
outer loop
vertex 111.075378769882 200.0 5.57537882520012
vertex 127.593266674544 200.0 7.74999988708314
vertex 109.406733247225 200.0 7.75000002258337
endloop
endfacet
facet normal 0.0 -1.0 0.0
outer loop
vertex 109.406733247225 200.0 7.75000002258337
vertex 127.593266674544 200.0 7.74999988708314
vertex 128.525247271025 200.0 10.0
endloop
endfacet
facet normal 0.0 -1.0 0.0
outer loop
vertex 109.406733247225 200.0 7.75000002258337
vertex 128.525247271025 200.0 10.0
vertex 108.47475274615 200.0 10.0
endloop
endfacet
facet normal 0.0 -1.0 0.0
outer loop
vertex 62.3293714059227 200.0 4.30666756339838
vertex 57.6706285940773 200.0 4.30666756339838
vertex 60.0 200.0 3.99999999999999
endloop
endfacet
facet normal 0.0 -1.0 0.0
outer loop
vertex 57.6706285940773 200.0 4.30666756339838
vertex 62.3293714059227 200.0 4.30666756339838
vertex 64.5 200.0 5.20577136594004
endloop
endfacet
facet normal 0.0 -1.0 0.0
outer loop
vertex 57.6706285940773 200.0 4.30666756339838
vertex 64.5 200.0 5.20577136594004
vertex 55.5 200.0 5.20577136594005
endloop
endfacet
facet normal 0.0 -1.0 0.0
outer loop
vertex 55.5 200.0 5.20577136594005
vertex 64.5 200.0 5.20577136594004
vertex 66.3639610306789 200.0 6.63603896932107
endloop
endfacet
facet normal 0.0 -1.0 0.0
outer loop
vertex 55.5 200.0 5.20577136594005
vertex 66.3639610306789 200.0 6.63603896932107
vertex 53.6360389693211 200.0 6.63603896932107
endloop
endfacet
facet normal 0.0 -1.0 0.0
outer loop
vertex 53.6360389693211 200.0 6.63603896932107
vertex 66.3639610306789 200.0 6.63603896932107
vertex 67.79422863406 200.0 8.5
endloop
endfacet
facet normal 0.0 -1.0 0.0
outer loop
vertex 53.6360389693211 200.0 6.63603896932107
vertex 67.79422863406 200.0 8.5
vertex 52.20577136594 200.0 8.5
endloop
endfacet
facet normal 0.0 -1.0 0.0
outer loop
vertex 52.20577136594 200.0 8.5
vertex 67.79422863406 200.0 8.5
vertex 68.4155489776196 200.0 10.0
endloop
endfacet
facet normal 0.0 -1.0 0.0
outer loop
vertex 52.20577136594 200.0 8.5
vertex 68.4155489776196 200.0 10.0
vertex 51.5844510223804 200.0 10.0
endloop
endfacet
facet normal 1.0 0.0 0.0
outer loop
vertex 153.2 202.0 0.0
vertex 153.2 133.0 13.0
vertex 153.2 133.0 0.0
endloop
endfacet
facet normal 1.0 0.0 0.0
outer loop
vertex 153.2 133.0 13.0
vertex 153.2 202.0 0.0
vertex 153.2 202.0 13.0
endloop
endfacet
facet normal -0.0 -1.0 -0.0
outer loop
vertex 153.2 133.0 13.0
vertex -2.0 133.0 0.0
vertex 153.2 133.0 0.0
endloop
endfacet
facet normal -0.0 -1.0 -0.0
outer loop
vertex -2.0 133.0 0.0
vertex 153.2 133.0 13.0
vertex -2.0 133.0 13.0
endloop
endfacet
facet normal 0.0 1.0 0.0
outer loop
vertex 6.30003811662857 135.0 4.78963047654292
vertex 10.6999618833714 135.0 4.78963047654292
vertex 8.5 135.0 4.5
endloop
endfacet
facet normal 0.0 1.0 0.0
outer loop
vertex 10.6999618833714 135.0 4.78963047654292
vertex 6.30003811662857 135.0 4.78963047654292
vertex 12.75 135.0 5.63878406783227
endloop
endfacet
facet normal 0.0 1.0 0.0
outer loop
vertex 12.75 135.0 5.63878406783227
vertex 6.30003811662857 135.0 4.78963047654292
vertex 4.25 135.0 5.63878406783227
endloop
endfacet
facet normal 0.0 1.0 0.0
outer loop
vertex 12.75 135.0 5.63878406783227
vertex 4.25 135.0 5.63878406783227
vertex 2.48959235991435 135.0 6.98959235991435
endloop
endfacet
facet normal 0.0 1.0 0.0
outer loop
vertex 12.75 135.0 5.63878406783227
vertex 2.48959235991435 135.0 6.98959235991435
vertex 14.5104076400857 135.0 6.98959235991435
endloop
endfacet
facet normal 0.0 1.0 0.0
outer loop
vertex 14.5104076400857 135.0 6.98959235991435
vertex 2.48959235991435 135.0 6.98959235991435
vertex 15.8612159321677 135.0 8.75
endloop
endfacet
facet normal 0.0 1.0 0.0
outer loop
vertex 15.8612159321677 135.0 8.75
vertex 2.48959235991435 135.0 6.98959235991435
vertex 1.13878406783227 135.0 8.75
endloop
endfacet
facet normal 0.0 1.0 0.0
outer loop
vertex 15.8612159321677 135.0 8.75
vertex 1.13878406783227 135.0 8.75
vertex 0.28963047654292 135.0 10.8000381166286
endloop
endfacet
facet normal 0.0 1.0 0.0
outer loop
vertex 15.8612159321677 135.0 8.75
vertex 0.28963047654292 135.0 10.8000381166286
vertex 16.3789828851341 135.0 10.0
endloop
endfacet
facet normal 0.0 1.0 0.0
outer loop
vertex 16.3789828851341 135.0 10.0
vertex 0.28963047654292 135.0 10.8000381166286
vertex 17.6210171148659 135.0 10.0
endloop
endfacet
facet normal 0.0 1.0 0.0
outer loop
vertex 17.6210171148659 135.0 10.0
vertex 0.28963047654292 135.0 10.8000381166286
vertex 33.3789828851341 135.0 10.0
endloop
endfacet
facet normal 0.0 1.0 0.0
outer loop
vertex 33.3789828851341 135.0 10.0
vertex 0.28963047654292 135.0 10.8000381166286
vertex 34.6210171148659 135.0 10.0
endloop
endfacet
facet normal 0.0 1.0 0.0
outer loop
vertex 34.6210171148659 135.0 10.0
vertex 0.28963047654292 135.0 10.8000381166286
vertex 50.3789828851341 135.0 10.0
endloop
endfacet
facet normal 0.0 1.0 0.0
outer loop
vertex 50.3789828851341 135.0 10.0
vertex 0.28963047654292 135.0 10.8000381166286
vertex 88.5113188374094 135.0 10.0
endloop
endfacet
facet normal 0.0 1.0 0.0
outer loop
vertex 88.5113188374094 135.0 10.0
vertex 0.28963047654292 135.0 10.8000381166286
vertex 108.47475274615 135.0 10.0
endloop
endfacet
facet normal 0.0 1.0 0.0
outer loop
vertex 108.47475274615 135.0 10.0
vertex 0.28963047654292 135.0 10.8000381166286
vertex 128.525247271025 135.0 10.0
endloop
endfacet
facet normal 0.0 1.0 0.0
outer loop
vertex 128.525247271025 135.0 10.0
vertex 0.28963047654292 135.0 10.8000381166286
vertex 129.430873435611 135.0 10.0
endloop
endfacet
facet normal 0.0 1.0 0.0
outer loop
vertex 129.430873435611 135.0 10.0
vertex 0.28963047654292 135.0 10.8000381166286
vertex 150.821776632567 135.0 10.127108452909
endloop
endfacet
facet normal 0.0 1.0 0.0
outer loop
vertex 150.821776632567 135.0 10.127108452909
vertex 0.28963047654292 135.0 10.8000381166286
vertex 151.2 135.0 13.0
endloop
endfacet
facet normal 0.0 1.0 0.0
outer loop
vertex 151.2 135.0 13.0
vertex 0.28963047654292 135.0 10.8000381166286
vertex 3.52495810318487e-016 135.0 13.0
endloop
endfacet
facet normal 0.0 1.0 0.0
outer loop
vertex 137.227108532792 135.0 2.2782233460286
vertex 142.972891307441 135.0 2.27822330321918
vertex 140.099999917299 135.0 1.9
endloop
endfacet
facet normal 0.0 1.0 0.0
outer loop
vertex 142.972891307441 135.0 2.27822330321918
vertex 137.227108532792 135.0 2.2782233460286
vertex 145.649999904505 135.0 3.38711796285843
endloop
endfacet
facet normal 0.0 1.0 0.0
outer loop
vertex 145.649999904505 135.0 3.38711796285843
vertex 137.227108532792 135.0 2.2782233460286
vertex 134.549999952252 135.0 3.38711804555988
endloop
endfacet
facet normal 0.0 1.0 0.0
outer loop
vertex 145.649999904505 135.0 3.38711796285843
vertex 134.549999952252 135.0 3.38711804555988
vertex 147.948885183453 135.0 5.15111464111119
endloop
endfacet
facet normal 0.0 1.0 0.0
outer loop
vertex 147.948885183453 135.0 5.15111464111119
vertex 134.549999952252 135.0 3.38711804555988
vertex 132.25111469959 135.0 5.15111475806869
endloop
endfacet
facet normal 0.0 1.0 0.0
outer loop
vertex 147.948885183453 135.0 5.15111464111119
vertex 132.25111469959 135.0 5.15111475806869
vertex 149.712881913089 135.0 7.44999988063074
endloop
endfacet
facet normal 0.0 1.0 0.0
outer loop
vertex 149.712881913089 135.0 7.44999988063074
vertex 132.25111469959 135.0 5.15111475806869
vertex 130.487118004209 135.0 7.45000002387385
endloop
endfacet
facet normal 0.0 1.0 0.0
outer loop
vertex 149.712881913089 135.0 7.44999988063074
vertex 130.487118004209 135.0 7.45000002387385
vertex 150.821776632567 135.0 10.127108452909
endloop
endfacet
facet normal 0.0 1.0 0.0
outer loop
vertex 150.821776632567 135.0 10.127108452909
vertex 130.487118004209 135.0 7.45000002387385
vertex 129.430873435611 135.0 10.0
endloop
endfacet
facet normal 0.0 1.0 0.0
outer loop
vertex 115.782399963452 135.0 2.85777884083786
vertex 121.217599885417 135.0 2.85777880034246
vertex 118.499999921769 135.0 2.5
endloop
endfacet
facet normal 0.0 1.0 0.0
outer loop
vertex 121.217599885417 135.0 2.85777880034246
vertex 115.782399963452 135.0 2.85777884083786
vertex 123.749999909666 135.0 3.90673320810933
endloop
endfacet
facet normal 0.0 1.0 0.0
outer loop
vertex 123.749999909666 135.0 3.90673320810933
vertex 115.782399963452 135.0 2.85777884083786
vertex 113.249999954833 135.0 3.90673328634042
endloop
endfacet
facet normal 0.0 1.0 0.0
outer loop
vertex 123.749999909666 135.0 3.90673320810933
vertex 113.249999954833 135.0 3.90673328634042
vertex 125.924621119482 135.0 5.57537871456464
endloop
endfacet
facet normal 0.0 1.0 0.0
outer loop
vertex 125.924621119482 135.0 5.57537871456464
vertex 113.249999954833 135.0 3.90673328634042
vertex 111.075378769882 135.0 5.57537882520012
endloop
endfacet
facet normal 0.0 1.0 0.0
outer loop
vertex 125.924621119482 135.0 5.57537871456464
vertex 111.075378769882 135.0 5.57537882520012
vertex 127.593266674544 135.0 7.74999988708314
endloop
endfacet
facet normal 0.0 1.0 0.0
outer loop
vertex 127.593266674544 135.0 7.74999988708314
vertex 111.075378769882 135.0 5.57537882520012
vertex 109.406733247225 135.0 7.75000002258337
endloop
endfacet
facet normal 0.0 1.0 0.0
outer loop
vertex 127.593266674544 135.0 7.74999988708314
vertex 109.406733247225 135.0 7.75000002258337
vertex 128.525247271025 135.0 10.0
endloop
endfacet
facet normal 0.0 1.0 0.0
outer loop
vertex 128.525247271025 135.0 10.0
vertex 109.406733247225 135.0 7.75000002258337
vertex 108.47475274615 135.0 10.0
endloop
endfacet
facet normal 0.0 1.0 0.0
outer loop
vertex 95.4118095489748 135.0 3.34074173710932
vertex 100.588190451025 135.0 3.34074173710932
vertex 98.0 135.0 3.0
endloop
endfacet
facet normal 0.0 1.0 0.0
outer loop
vertex 100.588190451025 135.0 3.34074173710932
vertex 95.4118095489748 135.0 3.34074173710932
vertex 103.0 135.0 4.33974596215562
endloop
endfacet
facet normal 0.0 1.0 0.0
outer loop
vertex 103.0 135.0 4.33974596215562
vertex 95.4118095489748 135.0 3.34074173710932
vertex 93.0 135.0 4.33974596215562
endloop
endfacet
facet normal 0.0 1.0 0.0
outer loop
vertex 103.0 135.0 4.33974596215562
vertex 93.0 135.0 4.33974596215562
vertex 105.071067811865 135.0 5.92893218813453
endloop
endfacet
facet normal 0.0 1.0 0.0
outer loop
vertex 105.071067811865 135.0 5.92893218813453
vertex 93.0 135.0 4.33974596215562
vertex 90.9289321881345 135.0 5.92893218813453
endloop
endfacet
facet normal 0.0 1.0 0.0
outer loop
vertex 105.071067811865 135.0 5.92893218813453
vertex 90.9289321881345 135.0 5.92893218813453
vertex 106.660254037844 135.0 8.0
endloop
endfacet
facet normal 0.0 1.0 0.0
outer loop
vertex 106.660254037844 135.0 8.0
vertex 90.9289321881345 135.0 5.92893218813453
vertex 89.3397459621556 135.0 8.0
endloop
endfacet
facet normal 0.0 1.0 0.0
outer loop
vertex 106.660254037844 135.0 8.0
vertex 89.3397459621556 135.0 8.0
vertex 88.5113188374094 135.0 10.0
endloop
endfacet
facet normal 0.0 1.0 0.0
outer loop
vertex 106.660254037844 135.0 8.0
vertex 88.5113188374094 135.0 10.0
vertex 107.488681162591 135.0 10.0
endloop
endfacet
facet normal 0.0 1.0 0.0
outer loop
vertex 107.488681162591 135.0 10.0
vertex 88.5113188374094 135.0 10.0
vertex 108.47475274615 135.0 10.0
endloop
endfacet
facet normal 0.0 1.0 0.0
outer loop
vertex 57.6706285940773 135.0 4.30666756339838
vertex 62.3293714059227 135.0 4.30666756339838
vertex 60.0 135.0 3.99999999999999
endloop
endfacet
facet normal 0.0 1.0 0.0
outer loop
vertex 62.3293714059227 135.0 4.30666756339838
vertex 57.6706285940773 135.0 4.30666756339838
vertex 64.5 135.0 5.20577136594004
endloop
endfacet
facet normal 0.0 1.0 0.0
outer loop
vertex 64.5 135.0 5.20577136594004
vertex 57.6706285940773 135.0 4.30666756339838
vertex 55.5 135.0 5.20577136594005
endloop
endfacet
facet normal 0.0 1.0 0.0
outer loop
vertex 64.5 135.0 5.20577136594004
vertex 55.5 135.0 5.20577136594005
vertex 66.3639610306789 135.0 6.63603896932107
endloop
endfacet
facet normal 0.0 1.0 0.0
outer loop
vertex 66.3639610306789 135.0 6.63603896932107
vertex 55.5 135.0 5.20577136594005
vertex 53.6360389693211 135.0 6.63603896932107
endloop
endfacet
facet normal 0.0 1.0 0.0
outer loop
vertex 66.3639610306789 135.0 6.63603896932107
vertex 53.6360389693211 135.0 6.63603896932107
vertex 67.79422863406 135.0 8.5
endloop
endfacet
facet normal 0.0 1.0 0.0
outer loop
vertex 67.79422863406 135.0 8.5
vertex 53.6360389693211 135.0 6.63603896932107
vertex 52.20577136594 135.0 8.5
endloop
endfacet
facet normal 0.0 1.0 0.0
outer loop
vertex 67.79422863406 135.0 8.5
vertex 52.20577136594 135.0 8.5
vertex 51.5844510223804 135.0 10.0
endloop
endfacet
facet normal 0.0 1.0 0.0
outer loop
vertex 67.79422863406 135.0 8.5
vertex 51.5844510223804 135.0 10.0
vertex 68.4155489776196 135.0 10.0
endloop
endfacet
facet normal 0.0 1.0 0.0
outer loop
vertex 68.4155489776196 135.0 10.0
vertex 51.5844510223804 135.0 10.0
vertex 50.3789828851341 135.0 10.0
endloop
endfacet
facet normal 0.0 1.0 0.0
outer loop
vertex 68.4155489776196 135.0 10.0
vertex 50.3789828851341 135.0 10.0
vertex 69.5478849298949 135.0 10.0
endloop
endfacet
facet normal 0.0 1.0 0.0
outer loop
vertex 69.5478849298949 135.0 10.0
vertex 50.3789828851341 135.0 10.0
vertex 87.4521150701051 135.0 10.0
endloop
endfacet
facet normal 0.0 1.0 0.0
outer loop
vertex 87.4521150701051 135.0 10.0
vertex 50.3789828851341 135.0 10.0
vertex 88.5113188374094 135.0 10.0
endloop
endfacet
facet normal 0.0 1.0 0.0
outer loop
vertex 76.0412190715261 135.0 3.82370465025386
vertex 80.9587809284739 135.0 3.82370465025386
vertex 78.5 135.0 3.5
endloop
endfacet
facet normal 0.0 1.0 0.0
outer loop
vertex 80.9587809284739 135.0 3.82370465025386
vertex 76.0412190715261 135.0 3.82370465025386
vertex 83.25 135.0 4.77275866404784
endloop
endfacet
facet normal 0.0 1.0 0.0
outer loop
vertex 83.25 135.0 4.77275866404784
vertex 76.0412190715261 135.0 3.82370465025386
vertex 73.75 135.0 4.77275866404784
endloop
endfacet
facet normal 0.0 1.0 0.0
outer loop
vertex 83.25 135.0 4.77275866404784
vertex 73.75 135.0 4.77275866404784
vertex 85.2175144212722 135.0 6.2824855787278
endloop
endfacet
facet normal 0.0 1.0 0.0
outer loop
vertex 85.2175144212722 135.0 6.2824855787278
vertex 73.75 135.0 4.77275866404784
vertex 71.7824855787278 135.0 6.2824855787278
endloop
endfacet
facet normal 0.0 1.0 0.0
outer loop
vertex 85.2175144212722 135.0 6.2824855787278
vertex 71.7824855787278 135.0 6.2824855787278
vertex 70.2727586640478 135.0 8.25
endloop
endfacet
facet normal 0.0 1.0 0.0
outer loop
vertex 85.2175144212722 135.0 6.2824855787278
vertex 70.2727586640478 135.0 8.25
vertex 86.7272413359522 135.0 8.25
endloop
endfacet
facet normal 0.0 1.0 0.0
outer loop
vertex 86.7272413359522 135.0 8.25
vertex 70.2727586640478 135.0 8.25
vertex 69.5478849298949 135.0 10.0
endloop
endfacet
facet normal 0.0 1.0 0.0
outer loop
vertex 86.7272413359522 135.0 8.25
vertex 69.5478849298949 135.0 10.0
vertex 87.4521150701051 135.0 10.0
endloop
endfacet
facet normal 0.0 1.0 0.0
outer loop
vertex 40.3000381166286 135.0 4.78963047654292
vertex 44.6999618833714 135.0 4.78963047654292
vertex 42.5 135.0 4.5
endloop
endfacet
facet normal 0.0 1.0 0.0
outer loop
vertex 44.6999618833714 135.0 4.78963047654292
vertex 40.3000381166286 135.0 4.78963047654292
vertex 46.75 135.0 5.63878406783227
endloop
endfacet
facet normal 0.0 1.0 0.0
outer loop
vertex 46.75 135.0 5.63878406783227
vertex 40.3000381166286 135.0 4.78963047654292
vertex 38.25 135.0 5.63878406783227
endloop
endfacet
facet normal 0.0 1.0 0.0
outer loop
vertex 46.75 135.0 5.63878406783227
vertex 38.25 135.0 5.63878406783227
vertex 48.5104076400857 135.0 6.98959235991435
endloop
endfacet
facet normal 0.0 1.0 0.0
outer loop
vertex 48.5104076400857 135.0 6.98959235991435
vertex 38.25 135.0 5.63878406783227
vertex 36.4895923599143 135.0 6.98959235991435
endloop
endfacet
facet normal 0.0 1.0 0.0
outer loop
vertex 48.5104076400857 135.0 6.98959235991435
vertex 36.4895923599143 135.0 6.98959235991435
vertex 49.8612159321677 135.0 8.75
endloop
endfacet
facet normal 0.0 1.0 0.0
outer loop
vertex 49.8612159321677 135.0 8.75
vertex 36.4895923599143 135.0 6.98959235991435
vertex 35.1387840678323 135.0 8.75
endloop
endfacet
facet normal 0.0 1.0 0.0
outer loop
vertex 49.8612159321677 135.0 8.75
vertex 35.1387840678323 135.0 8.75
vertex 34.6210171148659 135.0 10.0
endloop
endfacet
facet normal 0.0 1.0 0.0
outer loop
vertex 49.8612159321677 135.0 8.75
vertex 34.6210171148659 135.0 10.0
vertex 50.3789828851341 135.0 10.0
endloop
endfacet
facet normal 0.0 1.0 0.0
outer loop
vertex 23.3000381166286 135.0 4.78963047654292
vertex 27.6999618833714 135.0 4.78963047654292
vertex 25.5 135.0 4.5
endloop
endfacet
facet normal 0.0 1.0 0.0
outer loop
vertex 27.6999618833714 135.0 4.78963047654292
vertex 23.3000381166286 135.0 4.78963047654292
vertex 21.25 135.0 5.63878406783227
endloop
endfacet
facet normal 0.0 1.0 0.0
outer loop
vertex 27.6999618833714 135.0 4.78963047654292
vertex 21.25 135.0 5.63878406783227
vertex 29.75 135.0 5.63878406783227
endloop
endfacet
facet normal 0.0 1.0 0.0
outer loop
vertex 29.75 135.0 5.63878406783227
vertex 21.25 135.0 5.63878406783227
vertex 19.4895923599143 135.0 6.98959235991434
endloop
endfacet
facet normal 0.0 1.0 0.0
outer loop
vertex 29.75 135.0 5.63878406783227
vertex 19.4895923599143 135.0 6.98959235991434
vertex 31.5104076400857 135.0 6.98959235991435
endloop
endfacet
facet normal 0.0 1.0 0.0
outer loop
vertex 31.5104076400857 135.0 6.98959235991435
vertex 19.4895923599143 135.0 6.98959235991434
vertex 18.1387840678323 135.0 8.75
endloop
endfacet
facet normal 0.0 1.0 0.0
outer loop
vertex 31.5104076400857 135.0 6.98959235991435
vertex 18.1387840678323 135.0 8.75
vertex 32.8612159321677 135.0 8.75
endloop
endfacet
facet normal 0.0 1.0 0.0
outer loop
vertex 32.8612159321677 135.0 8.75
vertex 18.1387840678323 135.0 8.75
vertex 17.6210171148659 135.0 10.0
endloop
endfacet
facet normal 0.0 1.0 0.0
outer loop
vertex 32.8612159321677 135.0 8.75
vertex 17.6210171148659 135.0 10.0
vertex 33.3789828851341 135.0 10.0
endloop
endfacet
facet normal 0.0 -1.58871351129459e-016 1.0
outer loop
vertex 17.75 185.0 13.0
vertex 15.25 200.0 13.0
vertex 15.25 185.0 13.0
endloop
endfacet
facet normal 0.0 -1.58871351129459e-016 1.0
outer loop
vertex -2.0 133.0 13.0
vertex 3.52495810318487e-016 135.0 13.0
vertex -2.0 202.0 13.0
endloop
endfacet
facet normal 0.0 -1.58871351129459e-016 1.0
outer loop
vertex 3.52495810318487e-016 135.0 13.0
vertex -2.0 133.0 13.0
vertex 153.2 133.0 13.0
endloop
endfacet
facet normal 0.0 -1.58871351129459e-016 1.0
outer loop
vertex 3.52495810318487e-016 135.0 13.0
vertex 153.2 133.0 13.0
vertex 151.2 135.0 13.0
endloop
endfacet
facet normal 0.0 -1.58871351129459e-016 1.0
outer loop
vertex 151.2 135.0 13.0
vertex 153.2 133.0 13.0
vertex 151.2 200.0 13.0
endloop
endfacet
facet normal 0.0 -1.58871351129459e-016 1.0
outer loop
vertex -2.0 202.0 13.0
vertex 1.75 200.0 13.0
vertex 153.2 202.0 13.0
endloop
endfacet
facet normal 0.0 -1.58871351129459e-016 1.0
outer loop
vertex 1.75 200.0 13.0
vertex -2.0 202.0 13.0
vertex 3.52495810318487e-016 185.0 13.0
endloop
endfacet
facet normal 0.0 -1.58871351129459e-016 1.0
outer loop
vertex 3.52495810318487e-016 185.0 13.0
vertex -2.0 202.0 13.0
vertex 3.52495810318487e-016 135.0 13.0
endloop
endfacet
facet normal 0.0 -1.58871351129459e-016 1.0
outer loop
vertex 1.75 200.0 13.0
vertex 3.52495810318487e-016 185.0 13.0
vertex 1.75 185.0 13.0
endloop
endfacet
facet normal 0.0 -1.58871351129459e-016 1.0
outer loop
vertex 153.2 202.0 13.0
vertex 1.75 200.0 13.0
vertex 15.25 200.0 13.0
endloop
endfacet
facet normal 0.0 -1.58871351129459e-016 1.0
outer loop
vertex 153.2 202.0 13.0
vertex 15.25 200.0 13.0
vertex 17.75 200.0 13.0
endloop
endfacet
facet normal 0.0 -1.58871351129459e-016 1.0
outer loop
vertex 17.75 200.0 13.0
vertex 15.25 200.0 13.0
vertex 17.75 185.0 13.0
endloop
endfacet
facet normal 0.0 -1.58871351129459e-016 1.0
outer loop
vertex 153.2 202.0 13.0
vertex 17.75 200.0 13.0
vertex 151.2 200.0 13.0
endloop
endfacet
facet normal 0.0 -1.58871351129459e-016 1.0
outer loop
vertex 153.2 202.0 13.0
vertex 151.2 200.0 13.0
vertex 153.2 133.0 13.0
endloop
endfacet
facet normal -0.5 0.0 0.866025403784439
outer loop
vertex 29.375 185.0 6.2883031206706
vertex 27.5058475995445 200.0 5.51407484625972
vertex 27.5058475995445 185.0 5.51407484625972
endloop
endfacet
facet normal -0.25881904510252 0.0 0.965925826289069
outer loop
vertex 27.5058475995445 200.0 5.51407484625972
vertex 29.375 185.0 6.2883031206706
vertex 29.375 200.0 6.2883031206706
endloop
endfacet
facet normal -0.707106781186547 0.0 0.707106781186548
outer loop
vertex 30.9800775541957 185.0 7.51992244580426
vertex 29.375 200.0 6.2883031206706
vertex 29.375 185.0 6.2883031206706
endloop
endfacet
facet normal -0.5 0.0 0.866025403784439
outer loop
vertex 29.375 200.0 6.2883031206706
vertex 30.9800775541957 185.0 7.51992244580426
vertex 30.9800775541957 200.0 7.51992244580426
endloop
endfacet
facet normal -0.923879532511287 0.0 0.382683432365089
outer loop
vertex 32.5741337464058 200.0 10.0
vertex 32.2116968793294 185.0 9.125
vertex 32.5741337464058 185.0 10.0
endloop
endfacet
facet normal -0.866025403784439 0.0 0.5
outer loop
vertex 32.2116968793294 185.0 9.125
vertex 32.5741337464058 200.0 10.0
vertex 32.2116968793294 200.0 9.125
endloop
endfacet
facet normal -0.866025403784439 0.0 0.5
outer loop
vertex 32.2116968793294 200.0 9.125
vertex 30.9800775541957 185.0 7.51992244580426
vertex 32.2116968793294 185.0 9.125
endloop
endfacet
facet normal -0.707106781186547 0.0 0.707106781186548
outer loop
vertex 30.9800775541957 185.0 7.51992244580426
vertex 32.2116968793294 200.0 9.125
vertex 30.9800775541957 200.0 7.51992244580426
endloop
endfacet
facet normal 0.0 0.0 1.0
outer loop
vertex 34.6210171148659 135.0 10.0
vertex 33.3789828851341 185.0 10.0
vertex 33.3789828851341 135.0 10.0
endloop
endfacet
facet normal 0.0 0.0 1.0
outer loop
vertex 33.3789828851341 185.0 10.0
vertex 32.5741337464058 200.0 10.0
vertex 32.5741337464058 185.0 10.0
endloop
endfacet
facet normal 0.0 0.0 1.0
outer loop
vertex 32.5741337464058 200.0 10.0
vertex 33.3789828851341 185.0 10.0
vertex 34.6210171148659 200.0 10.0
endloop
endfacet
facet normal 0.0 0.0 1.0
outer loop
vertex 34.6210171148659 200.0 10.0
vertex 33.3789828851341 185.0 10.0
vertex 34.6210171148659 135.0 10.0
endloop
endfacet
facet normal 0.0 -1.0 0.0
outer loop
vertex 29.75 185.0 5.63878406783227
vertex 25.5 185.0 5.25
vertex 27.6999618833714 185.0 4.78963047654292
endloop
endfacet
facet normal 0.0 -1.0 0.0
outer loop
vertex 25.5 185.0 5.25
vertex 29.75 185.0 5.63878406783227
vertex 27.5058475995445 185.0 5.51407484625972
endloop
endfacet
facet normal 0.0 -1.0 0.0
outer loop
vertex 27.5058475995445 185.0 5.51407484625972
vertex 29.75 185.0 5.63878406783227
vertex 29.375 185.0 6.2883031206706
endloop
endfacet
facet normal 0.0 -1.0 0.0
outer loop
vertex 29.375 185.0 6.2883031206706
vertex 29.75 185.0 5.63878406783227
vertex 31.5104076400857 185.0 6.98959235991435
endloop
endfacet
facet normal 0.0 -1.0 0.0
outer loop
vertex 29.375 185.0 6.2883031206706
vertex 31.5104076400857 185.0 6.98959235991435
vertex 30.9800775541957 185.0 7.51992244580426
endloop
endfacet
facet normal 0.0 -1.0 0.0
outer loop
vertex 30.9800775541957 185.0 7.51992244580426
vertex 31.5104076400857 185.0 6.98959235991435
vertex 32.8612159321677 185.0 8.75
endloop
endfacet
facet normal 0.0 -1.0 0.0
outer loop
vertex 30.9800775541957 185.0 7.51992244580426
vertex 32.8612159321677 185.0 8.75
vertex 32.2116968793294 185.0 9.125
endloop
endfacet
facet normal 0.0 -1.0 0.0
outer loop
vertex 32.2116968793294 185.0 9.125
vertex 32.8612159321677 185.0 8.75
vertex 33.3789828851341 185.0 10.0
endloop
endfacet
facet normal 0.0 -1.0 0.0
outer loop
vertex 32.2116968793294 185.0 9.125
vertex 33.3789828851341 185.0 10.0
vertex 32.5741337464058 185.0 10.0
endloop
endfacet
facet normal 0.0 -1.0 0.0
outer loop
vertex 27.6999618833714 185.0 4.78963047654292
vertex 23.3000381166286 185.0 4.78963047654292
vertex 25.5 185.0 4.5
endloop
endfacet
facet normal 0.0 -1.0 0.0
outer loop
vertex 23.3000381166286 185.0 4.78963047654292
vertex 27.6999618833714 185.0 4.78963047654292
vertex 21.25 185.0 5.63878406783227
endloop
endfacet
facet normal 0.0 -1.0 0.0
outer loop
vertex 21.25 185.0 5.63878406783227
vertex 27.6999618833714 185.0 4.78963047654292
vertex 25.5 185.0 5.25
endloop
endfacet
facet normal 0.0 -1.0 0.0
outer loop
vertex 21.25 185.0 5.63878406783227
vertex 25.5 185.0 5.25
vertex 23.4941524004555 185.0 5.51407484625973
endloop
endfacet
facet normal 0.0 -1.0 0.0
outer loop
vertex 21.25 185.0 5.63878406783227
vertex 23.4941524004555 185.0 5.51407484625973
vertex 21.625 185.0 6.28830312067061
endloop
endfacet
facet normal 0.0 -1.0 0.0
outer loop
vertex 21.25 185.0 5.63878406783227
vertex 21.625 185.0 6.28830312067061
vertex 19.4895923599143 185.0 6.98959235991434
endloop
endfacet
facet normal 0.0 -1.0 0.0
outer loop
vertex 19.4895923599143 185.0 6.98959235991434
vertex 21.625 185.0 6.28830312067061
vertex 20.0199224458043 185.0 7.51992244580426
endloop
endfacet
facet normal 0.0 -1.0 0.0
outer loop
vertex 19.4895923599143 185.0 6.98959235991434
vertex 20.0199224458043 185.0 7.51992244580426
vertex 18.1387840678323 185.0 8.75
endloop
endfacet
facet normal 0.0 -1.0 0.0
outer loop
vertex 18.1387840678323 185.0 8.75
vertex 20.0199224458043 185.0 7.51992244580426
vertex 18.7883031206706 185.0 9.12500000000001
endloop
endfacet
facet normal 0.0 -1.0 0.0
outer loop
vertex 18.1387840678323 185.0 8.75
vertex 18.7883031206706 185.0 9.12500000000001
vertex 17.6210171148659 185.0 10.0
endloop
endfacet
facet normal 0.0 -1.0 0.0
outer loop
vertex 17.6210171148659 185.0 10.0
vertex 18.7883031206706 185.0 9.12500000000001
vertex 18.0140748462597 185.0 10.9941524004555
endloop
endfacet
facet normal 0.0 -1.0 0.0
outer loop
vertex 17.6210171148659 185.0 10.0
vertex 18.0140748462597 185.0 10.9941524004555
vertex 16.3789828851341 185.0 10.0
endloop
endfacet
facet normal 0.0 -1.0 0.0
outer loop
vertex 10.6999618833714 185.0 4.78963047654292
vertex 6.30003811662857 185.0 4.78963047654292
vertex 8.5 185.0 4.5
endloop
endfacet
facet normal 0.0 -1.0 0.0
outer loop
vertex 6.30003811662857 185.0 4.78963047654292
vertex 10.6999618833714 185.0 4.78963047654292
vertex 12.75 185.0 5.63878406783227
endloop
endfacet
facet normal 0.0 -1.0 0.0
outer loop
vertex 6.30003811662857 185.0 4.78963047654292
vertex 12.75 185.0 5.63878406783227
vertex 4.25 185.0 5.63878406783227
endloop
endfacet
facet normal 0.0 -1.0 0.0
outer loop
vertex 4.25 185.0 5.63878406783227
vertex 12.75 185.0 5.63878406783227
vertex 14.5104076400857 185.0 6.98959235991435
endloop
endfacet
facet normal 0.0 -1.0 0.0
outer loop
vertex 4.25 185.0 5.63878406783227
vertex 14.5104076400857 185.0 6.98959235991435
vertex 8.5 185.0 6.25
endloop
endfacet
facet normal 0.0 -1.0 0.0
outer loop
vertex 8.5 185.0 6.25
vertex 14.5104076400857 185.0 6.98959235991435
vertex 10.247028554442 185.0 6.48000067254879
endloop
endfacet
facet normal 0.0 -1.0 0.0
outer loop
vertex 10.247028554442 185.0 6.48000067254879
vertex 14.5104076400857 185.0 6.98959235991435
vertex 11.875 185.0 7.15432852445504
endloop
endfacet
facet normal 0.0 -1.0 0.0
outer loop
vertex 11.875 185.0 7.15432852445504
vertex 14.5104076400857 185.0 6.98959235991435
vertex 15.8612159321677 185.0 8.75
endloop
endfacet
facet normal 0.0 -1.0 0.0
outer loop
vertex 11.875 185.0 7.15432852445504
vertex 15.8612159321677 185.0 8.75
vertex 13.2729707730092 185.0 8.2270292269908
endloop
endfacet
facet normal 0.0 -1.0 0.0
outer loop
vertex 13.2729707730092 185.0 8.2270292269908
vertex 15.8612159321677 185.0 8.75
vertex 14.345671475545 185.0 9.625
endloop
endfacet
facet normal 0.0 -1.0 0.0
outer loop
vertex 14.345671475545 185.0 9.625
vertex 15.8612159321677 185.0 8.75
vertex 16.3789828851341 185.0 10.0
endloop
endfacet
facet normal 0.0 -1.0 0.0
outer loop
vertex 14.345671475545 185.0 9.625
vertex 16.3789828851341 185.0 10.0
vertex 15.0199993274512 185.0 11.252971445558
endloop
endfacet
facet normal 0.0 -1.0 0.0
outer loop
vertex 15.0199993274512 185.0 11.252971445558
vertex 16.3789828851341 185.0 10.0
vertex 18.0140748462597 185.0 10.9941524004555
endloop
endfacet
facet normal 0.0 -1.0 0.0
outer loop
vertex 15.0199993274512 185.0 11.252971445558
vertex 18.0140748462597 185.0 10.9941524004555
vertex 17.75 185.0 13.0
endloop
endfacet
facet normal 0.0 -1.0 0.0
outer loop
vertex 15.0199993274512 185.0 11.252971445558
vertex 17.75 185.0 13.0
vertex 15.25 185.0 13.0
endloop
endfacet
facet normal 0.0 -1.0 0.0
outer loop
vertex 8.5 185.0 6.25
vertex 2.48959235991435 185.0 6.98959235991435
vertex 4.25 185.0 5.63878406783227
endloop
endfacet
facet normal 0.0 -1.0 0.0
outer loop
vertex 2.48959235991435 185.0 6.98959235991435
vertex 8.5 185.0 6.25
vertex 6.75297144555798 185.0 6.48000067254879
endloop
endfacet
facet normal 0.0 -1.0 0.0
outer loop
vertex 2.48959235991435 185.0 6.98959235991435
vertex 6.75297144555798 185.0 6.48000067254879
vertex 5.125 185.0 7.15432852445504
endloop
endfacet
facet normal 0.0 -1.0 0.0
outer loop
vertex 2.48959235991435 185.0 6.98959235991435
vertex 5.125 185.0 7.15432852445504
vertex 1.13878406783227 185.0 8.75
endloop
endfacet
facet normal 0.0 -1.0 0.0
outer loop
vertex 1.13878406783227 185.0 8.75
vertex 5.125 185.0 7.15432852445504
vertex 3.7270292269908 185.0 8.2270292269908
endloop
endfacet
facet normal 0.0 -1.0 0.0
outer loop
vertex 1.13878406783227 185.0 8.75
vertex 3.7270292269908 185.0 8.2270292269908
vertex 2.65432852445504 185.0 9.625
endloop
endfacet
facet normal 0.0 -1.0 0.0
outer loop
vertex 1.13878406783227 185.0 8.75
vertex 2.65432852445504 185.0 9.625
vertex 0.28963047654292 185.0 10.8000381166286
endloop
endfacet
facet normal 0.0 -1.0 0.0
outer loop
vertex 0.28963047654292 185.0 10.8000381166286
vertex 2.65432852445504 185.0 9.625
vertex 1.98000067254879 185.0 11.252971445558
endloop
endfacet
facet normal 0.0 -1.0 0.0
outer loop
vertex 0.28963047654292 185.0 10.8000381166286
vertex 1.98000067254879 185.0 11.252971445558
vertex 3.52495810318487e-016 185.0 13.0
endloop
endfacet
facet normal 0.0 -1.0 0.0
outer loop
vertex 3.52495810318487e-016 185.0 13.0
vertex 1.98000067254879 185.0 11.252971445558
vertex 1.75 185.0 13.0
endloop
endfacet
facet normal -0.25881904510252 0.0 0.965925826289069
outer loop
vertex 27.5058475995445 185.0 5.51407484625972
vertex 25.5 200.0 5.25
vertex 25.5 185.0 5.25
endloop
endfacet
facet normal 7.84177670816928e-016 0.0 1.0
outer loop
vertex 25.5 200.0 5.25
vertex 27.5058475995445 185.0 5.51407484625972
vertex 27.5058475995445 200.0 5.51407484625972
endloop
endfacet
facet normal 7.84177670816928e-016 0.0 1.0
outer loop
vertex 25.5 185.0 5.25
vertex 23.4941524004555 200.0 5.51407484625973
vertex 23.4941524004555 185.0 5.51407484625973
endloop
endfacet
facet normal 0.258819045102521 0.0 0.965925826289068
outer loop
vertex 23.4941524004555 200.0 5.51407484625973
vertex 25.5 185.0 5.25
vertex 25.5 200.0 5.25
endloop
endfacet
facet normal 0.258819045102521 0.0 0.965925826289068
outer loop
vertex 23.4941524004555 185.0 5.51407484625973
vertex 21.625 200.0 6.28830312067061
vertex 21.625 185.0 6.28830312067061
endloop
endfacet
facet normal 0.5 0.0 0.866025403784438
outer loop
vertex 21.625 200.0 6.28830312067061
vertex 23.4941524004555 185.0 5.51407484625973
vertex 23.4941524004555 200.0 5.51407484625973
endloop
endfacet
facet normal -0.965925826289068 0.0 0.258819045102521
outer loop
vertex 15.0199993274512 200.0 11.252971445558
vertex 14.345671475545 185.0 9.625
vertex 15.0199993274512 185.0 11.252971445558
endloop
endfacet
facet normal -0.866025403784439 0.0 0.5
outer loop
vertex 14.345671475545 185.0 9.625
vertex 15.0199993274512 200.0 11.252971445558
vertex 14.345671475545 200.0 9.625
endloop
endfacet
facet normal -0.866025403784439 0.0 0.5
outer loop
vertex 14.345671475545 200.0 9.625
vertex 13.2729707730092 185.0 8.2270292269908
vertex 14.345671475545 185.0 9.625
endloop
endfacet
facet normal -0.707106781186548 0.0 0.707106781186548
outer loop
vertex 13.2729707730092 185.0 8.2270292269908
vertex 14.345671475545 200.0 9.625
vertex 13.2729707730092 200.0 8.2270292269908
endloop
endfacet
facet normal -0.707106781186548 0.0 0.707106781186548
outer loop
vertex 13.2729707730092 185.0 8.2270292269908
vertex 11.875 200.0 7.15432852445504
vertex 11.875 185.0 7.15432852445504
endloop
endfacet
facet normal -0.500000000000001 0.0 0.866025403784438
outer loop
vertex 11.875 200.0 7.15432852445504
vertex 13.2729707730092 185.0 8.2270292269908
vertex 13.2729707730092 200.0 8.2270292269908
endloop
endfacet
facet normal 0.5 0.0 0.866025403784438
outer loop
vertex 21.625 185.0 6.28830312067061
vertex 20.0199224458043 200.0 7.51992244580426
vertex 20.0199224458043 185.0 7.51992244580426
endloop
endfacet
facet normal 0.707106781186548 0.0 0.707106781186547
outer loop
vertex 20.0199224458043 200.0 7.51992244580426
vertex 21.625 185.0 6.28830312067061
vertex 21.625 200.0 6.28830312067061
endloop
endfacet
facet normal 0.707106781186548 0.0 0.707106781186547
outer loop
vertex 20.0199224458043 200.0 7.51992244580426
vertex 18.7883031206706 185.0 9.12500000000001
vertex 20.0199224458043 185.0 7.51992244580426
endloop
endfacet
facet normal 0.866025403784439 0.0 0.5
outer loop
vertex 18.7883031206706 185.0 9.12500000000001
vertex 20.0199224458043 200.0 7.51992244580426
vertex 18.7883031206706 200.0 9.12500000000001
endloop
endfacet
facet normal -0.99144486137381 0.0 0.130526192220053
outer loop
vertex 15.25 200.0 13.0
vertex 15.0199993274512 185.0 11.252971445558
vertex 15.25 185.0 13.0
endloop
endfacet
facet normal -0.965925826289068 0.0 0.258819045102521
outer loop
vertex 15.0199993274512 185.0 11.252971445558
vertex 15.25 200.0 13.0
vertex 15.0199993274512 200.0 11.252971445558
endloop
endfacet
facet normal 0.866025403784439 0.0 0.5
outer loop
vertex 18.7883031206706 200.0 9.12500000000001
vertex 18.0140748462597 185.0 10.9941524004555
vertex 18.7883031206706 185.0 9.12500000000001
endloop
endfacet
facet normal 0.965925826289068 0.0 0.25881904510252
outer loop
vertex 18.0140748462597 185.0 10.9941524004555
vertex 18.7883031206706 200.0 9.12500000000001
vertex 18.0140748462597 200.0 10.9941524004555
endloop
endfacet
facet normal 0.965925826289068 0.0 0.25881904510252
outer loop
vertex 18.0140748462597 200.0 10.9941524004555
vertex 17.75 185.0 13.0
vertex 18.0140748462597 185.0 10.9941524004555
endloop
endfacet
facet normal 0.991444861373811 0.0 0.130526192220051
outer loop
vertex 17.75 185.0 13.0
vertex 18.0140748462597 200.0 10.9941524004555
vertex 17.75 200.0 13.0
endloop
endfacet
facet normal 4.45555494782345e-017 0.0 1.0
outer loop
vertex 8.5 185.0 6.25
vertex 6.75297144555798 200.0 6.48000067254879
vertex 6.75297144555798 185.0 6.48000067254879
endloop
endfacet
facet normal 0.258819045102521 0.0 0.965925826289068
outer loop
vertex 6.75297144555798 200.0 6.48000067254879
vertex 8.5 185.0 6.25
vertex 8.5 200.0 6.25
endloop
endfacet
facet normal 0.258819045102521 0.0 0.965925826289068
outer loop
vertex 6.75297144555798 185.0 6.48000067254879
vertex 5.125 200.0 7.15432852445504
vertex 5.125 185.0 7.15432852445504
endloop
endfacet
facet normal 0.5 0.0 0.866025403784439
outer loop
vertex 5.125 200.0 7.15432852445504
vertex 6.75297144555798 185.0 6.48000067254879
vertex 6.75297144555798 200.0 6.48000067254879
endloop
endfacet
facet normal 0.707106781186547 0.0 0.707106781186548
outer loop
vertex 3.7270292269908 200.0 8.2270292269908
vertex 2.65432852445504 185.0 9.625
vertex 3.7270292269908 185.0 8.2270292269908
endloop
endfacet
facet normal 0.866025403784438 0.0 0.500000000000001
outer loop
vertex 2.65432852445504 185.0 9.625
vertex 3.7270292269908 200.0 8.2270292269908
vertex 2.65432852445504 200.0 9.625
endloop
endfacet
facet normal -0.258819045102521 0.0 0.965925826289068
outer loop
vertex 10.247028554442 185.0 6.48000067254879
vertex 8.5 200.0 6.25
vertex 8.5 185.0 6.25
endloop
endfacet
facet normal 4.45555494782345e-017 0.0 1.0
outer loop
vertex 8.5 200.0 6.25
vertex 10.247028554442 185.0 6.48000067254879
vertex 10.247028554442 200.0 6.48000067254879
endloop
endfacet
facet normal 0.5 0.0 0.866025403784439
outer loop
vertex 5.125 185.0 7.15432852445504
vertex 3.7270292269908 200.0 8.2270292269908
vertex 3.7270292269908 185.0 8.2270292269908
endloop
endfacet
facet normal 0.707106781186547 0.0 0.707106781186548
outer loop
vertex 3.7270292269908 200.0 8.2270292269908
vertex 5.125 185.0 7.15432852445504
vertex 5.125 200.0 7.15432852445504
endloop
endfacet
facet normal 0.866025403784438 0.0 0.500000000000001
outer loop
vertex 2.65432852445504 200.0 9.625
vertex 1.98000067254879 185.0 11.252971445558
vertex 2.65432852445504 185.0 9.625
endloop
endfacet
facet normal 0.965925826289068 0.0 0.258819045102521
outer loop
vertex 1.98000067254879 185.0 11.252971445558
vertex 2.65432852445504 200.0 9.625
vertex 1.98000067254879 200.0 11.252971445558
endloop
endfacet
facet normal 0.965925826289068 0.0 0.258819045102521
outer loop
vertex 1.98000067254879 200.0 11.252971445558
vertex 1.75 185.0 13.0
vertex 1.98000067254879 185.0 11.252971445558
endloop
endfacet
facet normal 0.99144486137381 0.0 0.130526192220052
outer loop
vertex 1.75 185.0 13.0
vertex 1.98000067254879 200.0 11.252971445558
vertex 1.75 200.0 13.0
endloop
endfacet
facet normal -0.500000000000001 0.0 0.866025403784438
outer loop
vertex 11.875 185.0 7.15432852445504
vertex 10.247028554442 200.0 6.48000067254879
vertex 10.247028554442 185.0 6.48000067254879
endloop
endfacet
facet normal -0.258819045102521 0.0 0.965925826289068
outer loop
vertex 10.247028554442 200.0 6.48000067254879
vertex 11.875 185.0 7.15432852445504
vertex 11.875 200.0 7.15432852445504
endloop
endfacet
facet normal 0.0 0.0 -1.0
outer loop
vertex 153.2 202.0 0.0
vertex -2.0 133.0 0.0
vertex -2.0 202.0 0.0
endloop
endfacet
facet normal 0.0 0.0 -1.0
outer loop
vertex -2.0 133.0 0.0
vertex 153.2 202.0 0.0
vertex 153.2 133.0 0.0
endloop
endfacet
facet normal -0.499999991396811 0.0 0.866025408751492
outer loop
vertex 145.649999904505 135.0 3.38711796285843
vertex 142.972891307441 200.0 2.27822330321918
vertex 142.972891307441 135.0 2.27822330321918
endloop
endfacet
facet normal -0.258819036706362 0.0 0.965925828538812
outer loop
vertex 142.972891307441 200.0 2.27822330321918
vertex 145.649999904505 135.0 3.38711796285843
vertex 145.649999904505 200.0 3.38711796285843
endloop
endfacet
facet normal -0.991444860482355 0.0 0.130526198991325
outer loop
vertex 151.2 200.0 13.0
vertex 150.821776632567 135.0 10.127108452909
vertex 151.2 135.0 13.0
endloop
endfacet
facet normal -0.965925823717933 0.0 0.25881905469813
outer loop
vertex 150.821776632567 135.0 10.127108452909
vertex 151.2 200.0 13.0
vertex 150.821776632567 200.0 10.127108452909
endloop
endfacet
facet normal -0.866025397575622 0.0 0.500000010753986
outer loop
vertex 149.712881913089 200.0 7.44999988063074
vertex 147.948885183453 135.0 5.15111464111119
vertex 149.712881913089 135.0 7.44999988063074
endloop
endfacet
facet normal -0.707106773284011 0.0 0.707106789089084
outer loop
vertex 147.948885183453 135.0 5.15111464111119
vertex 149.712881913089 200.0 7.44999988063074
vertex 147.948885183453 200.0 5.15111464111119
endloop
endfacet
facet normal -0.965925823717933 0.0 0.25881905469813
outer loop
vertex 150.821776632567 200.0 10.127108452909
vertex 149.712881913089 135.0 7.44999988063074
vertex 150.821776632567 135.0 10.127108452909
endloop
endfacet
facet normal -0.866025397575622 0.0 0.500000010753986
outer loop
vertex 149.712881913089 135.0 7.44999988063074
vertex 150.821776632567 200.0 10.127108452909
vertex 149.712881913089 200.0 7.44999988063074
endloop
endfacet
facet normal -0.258819036706362 0.0 0.965925828538812
outer loop
vertex 142.972891307441 135.0 2.27822330321918
vertex 140.099999917299 200.0 1.9
vertex 140.099999917299 135.0 1.9
endloop
endfacet
facet normal 7.45058075645223e-009 0.0 1.0
outer loop
vertex 140.099999917299 200.0 1.9
vertex 142.972891307441 135.0 2.27822330321918
vertex 142.972891307441 200.0 2.27822330321918
endloop
endfacet
facet normal 7.45058075645223e-009 0.0 1.0
outer loop
vertex 140.099999917299 135.0 1.9
vertex 137.227108532792 200.0 2.2782233460286
vertex 137.227108532792 135.0 2.2782233460286
endloop
endfacet
facet normal 0.258819051099779 0.0 0.965925824682108
outer loop
vertex 137.227108532792 200.0 2.2782233460286
vertex 140.099999917299 135.0 1.9
vertex 140.099999917299 200.0 1.9
endloop
endfacet
facet normal -0.707106773284011 0.0 0.707106789089084
outer loop
vertex 147.948885183453 135.0 5.15111464111119
vertex 145.649999904505 200.0 3.38711796285843
vertex 145.649999904505 135.0 3.38711796285843
endloop
endfacet
facet normal -0.499999991396811 0.0 0.866025408751492
outer loop
vertex 145.649999904505 200.0 3.38711796285843
vertex 147.948885183453 135.0 5.15111464111119
vertex 147.948885183453 200.0 5.15111464111119
endloop
endfacet
facet normal 0.258819051099779 0.0 0.965925824682108
outer loop
vertex 137.227108532792 135.0 2.2782233460286
vertex 134.549999952252 200.0 3.38711804555988
vertex 134.549999952252 135.0 3.38711804555988
endloop
endfacet
facet normal 0.500000004301594 0.0 0.866025401300912
outer loop
vertex 134.549999952252 200.0 3.38711804555988
vertex 137.227108532792 135.0 2.2782233460286
vertex 137.227108532792 200.0 2.2782233460286
endloop
endfacet
facet normal 0.866025405026203 0.0 0.499999997849202
outer loop
vertex 130.487118004209 200.0 7.45000002387385
vertex 129.430873435611 135.0 10.0
vertex 130.487118004209 135.0 7.45000002387385
endloop
endfacet
facet normal 0.923879533224089 0.0 0.382683430644233
outer loop
vertex 129.430873435611 135.0 10.0
vertex 130.487118004209 200.0 7.45000002387385
vertex 129.430873435611 200.0 10.0
endloop
endfacet
facet normal -0.499999991396811 0.0 0.866025408751492
outer loop
vertex 123.749999909666 135.0 3.90673320810933
vertex 121.217599885417 200.0 2.85777880034246
vertex 121.217599885417 135.0 2.85777880034246
endloop
endfacet
facet normal -0.258819036706361 0.0 0.965925828538813
outer loop
vertex 121.217599885417 200.0 2.85777880034246
vertex 123.749999909666 135.0 3.90673320810933
vertex 123.749999909666 200.0 3.90673320810933
endloop
endfacet
facet normal 2.67333296869407e-016 0.0 1.0
outer loop
vertex 98.0 135.0 3.0
vertex 95.4118095489748 200.0 3.34074173710932
vertex 95.4118095489748 135.0 3.34074173710932
endloop
endfacet
facet normal 0.258819045102521 0.0 0.965925826289068
outer loop
vertex 95.4118095489748 200.0 3.34074173710932
vertex 98.0 135.0 3.0
vertex 98.0 200.0 3.0
endloop
endfacet
facet normal -0.923879532511289 0.0 0.382683432365084
outer loop
vertex 87.4521150701051 200.0 10.0
vertex 86.7272413359522 135.0 8.25
vertex 87.4521150701051 135.0 10.0
endloop
endfacet
facet normal -0.86602540378444 0.0 0.499999999999998
outer loop
vertex 86.7272413359522 135.0 8.25
vertex 87.4521150701051 200.0 10.0
vertex 86.7272413359522 200.0 8.25
endloop
endfacet
facet normal 0.258819051099778 0.0 0.965925824682108
outer loop
vertex 115.782399963452 135.0 2.85777884083786
vertex 113.249999954833 200.0 3.90673328634042
vertex 113.249999954833 135.0 3.90673328634042
endloop
endfacet
facet normal 0.500000004301597 0.0 0.866025401300911
outer loop
vertex 113.249999954833 200.0 3.90673328634042
vertex 115.782399963452 135.0 2.85777884083786
vertex 115.782399963452 200.0 2.85777884083786
endloop
endfacet
facet normal 7.45058083665222e-009 0.0 1.0
outer loop
vertex 118.499999921769 135.0 2.5
vertex 115.782399963452 200.0 2.85777884083786
vertex 115.782399963452 135.0 2.85777884083786
endloop
endfacet
facet normal 0.258819051099778 0.0 0.965925824682108
outer loop
vertex 115.782399963452 200.0 2.85777884083786
vertex 118.499999921769 135.0 2.5
vertex 118.499999921769 200.0 2.5
endloop
endfacet
facet normal -2.85979895330654e-015 0.0 1.0
outer loop
vertex 108.47475274615 135.0 10.0
vertex 107.488681162591 200.0 10.0
vertex 107.488681162591 135.0 10.0
endloop
endfacet
facet normal -2.85979895330654e-015 0.0 1.0
outer loop
vertex 107.488681162591 200.0 10.0
vertex 108.47475274615 135.0 10.0
vertex 108.47475274615 200.0 10.0
endloop
endfacet
facet normal 0.500000004301597 0.0 0.866025401300911
outer loop
vertex 113.249999954833 135.0 3.90673328634042
vertex 111.075378769882 200.0 5.57537882520012
vertex 111.075378769882 135.0 5.57537882520012
endloop
endfacet
facet normal 0.707106783820725 0.0 0.70710677855237
outer loop
vertex 111.075378769882 200.0 5.57537882520012
vertex 113.249999954833 135.0 3.90673328634042
vertex 113.249999954833 200.0 3.90673328634042
endloop
endfacet
facet normal 0.707106783820725 0.0 0.70710677855237
outer loop
vertex 111.075378769882 200.0 5.57537882520012
vertex 109.406733247225 135.0 7.75000002258337
vertex 111.075378769882 135.0 5.57537882520012
endloop
endfacet
facet normal 0.866025405026203 0.0 0.499999997849202
outer loop
vertex 109.406733247225 135.0 7.75000002258337
vertex 111.075378769882 200.0 5.57537882520012
vertex 109.406733247225 200.0 7.75000002258337
endloop
endfacet
facet normal -0.500000000000001 0.0 0.866025403784438
outer loop
vertex 103.0 135.0 4.33974596215562
vertex 100.588190451025 200.0 3.34074173710932
vertex 100.588190451025 135.0 3.34074173710932
endloop
endfacet
facet normal -0.25881904510252 0.0 0.965925826289068
outer loop
vertex 100.588190451025 200.0 3.34074173710932
vertex 103.0 135.0 4.33974596215562
vertex 103.0 200.0 4.33974596215562
endloop
endfacet
facet normal 0.258819045102521 0.0 0.965925826289068
outer loop
vertex 95.4118095489748 135.0 3.34074173710932
vertex 93.0 200.0 4.33974596215562
vertex 93.0 135.0 4.33974596215562
endloop
endfacet
facet normal 0.5 0.0 0.866025403784439
outer loop
vertex 93.0 200.0 4.33974596215562
vertex 95.4118095489748 135.0 3.34074173710932
vertex 95.4118095489748 200.0 3.34074173710932
endloop
endfacet
facet normal -0.258819036706361 0.0 0.965925828538813
outer loop
vertex 121.217599885417 135.0 2.85777880034246
vertex 118.499999921769 200.0 2.5
vertex 118.499999921769 135.0 2.5
endloop
endfacet
facet normal 7.45058083665222e-009 0.0 1.0
outer loop
vertex 118.499999921769 200.0 2.5
vertex 121.217599885417 135.0 2.85777880034246
vertex 121.217599885417 200.0 2.85777880034246
endloop
endfacet
facet normal 0.5 0.0 0.866025403784439
outer loop
vertex 93.0 135.0 4.33974596215562
vertex 90.9289321881345 200.0 5.92893218813453
vertex 90.9289321881345 135.0 5.92893218813453
endloop
endfacet
facet normal 0.707106781186548 0.0 0.707106781186547
outer loop
vertex 90.9289321881345 200.0 5.92893218813453
vertex 93.0 135.0 4.33974596215562
vertex 93.0 200.0 4.33974596215562
endloop
endfacet
facet normal -0.707106781186547 0.0 0.707106781186549
outer loop
vertex 105.071067811865 135.0 5.92893218813453
vertex 103.0 200.0 4.33974596215562
vertex 103.0 135.0 4.33974596215562
endloop
endfacet
facet normal -0.500000000000001 0.0 0.866025403784438
outer loop
vertex 103.0 200.0 4.33974596215562
vertex 105.071067811865 135.0 5.92893218813453
vertex 105.071067811865 200.0 5.92893218813453
endloop
endfacet
facet normal 0.707106781186548 0.0 0.707106781186547
outer loop
vertex 90.9289321881345 200.0 5.92893218813453
vertex 89.3397459621556 135.0 8.0
vertex 90.9289321881345 135.0 5.92893218813453
endloop
endfacet
facet normal 0.866025403784439 0.0 0.5
outer loop
vertex 89.3397459621556 135.0 8.0
vertex 90.9289321881345 200.0 5.92893218813453
vertex 89.3397459621556 200.0 8.0
endloop
endfacet
facet normal 0.0 0.0 1.0
outer loop
vertex 129.430873435611 135.0 10.0
vertex 128.525247271025 200.0 10.0
vertex 128.525247271025 135.0 10.0
endloop
endfacet
facet normal 0.0 0.0 1.0
outer loop
vertex 128.525247271025 200.0 10.0
vertex 129.430873435611 135.0 10.0
vertex 129.430873435611 200.0 10.0
endloop
endfacet
facet normal -0.923879527521662 0.0 0.382683444411109
outer loop
vertex 128.525247271025 200.0 10.0
vertex 127.593266674544 135.0 7.74999988708314
vertex 128.525247271025 135.0 10.0
endloop
endfacet
facet normal -0.866025397575621 0.0 0.500000010753988
outer loop
vertex 127.593266674544 135.0 7.74999988708314
vertex 128.525247271025 200.0 10.0
vertex 127.593266674544 200.0 7.74999988708314
endloop
endfacet
facet normal -0.866025397575621 0.0 0.500000010753988
outer loop
vertex 127.593266674544 200.0 7.74999988708314
vertex 125.924621119482 135.0 5.57537871456464
vertex 127.593266674544 135.0 7.74999988708314
endloop
endfacet
facet normal -0.707106773284013 0.0 0.707106789089082
outer loop
vertex 125.924621119482 135.0 5.57537871456464
vertex 127.593266674544 200.0 7.74999988708314
vertex 125.924621119482 200.0 5.57537871456464
endloop
endfacet
facet normal 0.866025403784439 0.0 0.5
outer loop
vertex 89.3397459621556 200.0 8.0
vertex 88.5113188374094 135.0 10.0
vertex 89.3397459621556 135.0 8.0
endloop
endfacet
facet normal 0.923879532511287 0.0 0.38268343236509
outer loop
vertex 88.5113188374094 135.0 10.0
vertex 89.3397459621556 200.0 8.0
vertex 88.5113188374094 200.0 10.0
endloop
endfacet
facet normal -0.86602540378444 0.0 0.499999999999998
outer loop
vertex 86.7272413359522 200.0 8.25
vertex 85.2175144212722 135.0 6.2824855787278
vertex 86.7272413359522 135.0 8.25
endloop
endfacet
facet normal -0.707106781186547 0.0 0.707106781186548
outer loop
vertex 85.2175144212722 135.0 6.2824855787278
vertex 86.7272413359522 200.0 8.25
vertex 85.2175144212722 200.0 6.2824855787278
endloop
endfacet
facet normal -0.923879532511289 0.0 0.382683432365086
outer loop
vertex 107.488681162591 200.0 10.0
vertex 106.660254037844 135.0 8.0
vertex 107.488681162591 135.0 10.0
endloop
endfacet
facet normal -0.866025403784438 0.0 0.500000000000001
outer loop
vertex 106.660254037844 135.0 8.0
vertex 107.488681162591 200.0 10.0
vertex 106.660254037844 200.0 8.0
endloop
endfacet
facet normal -0.707106773284013 0.0 0.707106789089082
outer loop
vertex 125.924621119482 135.0 5.57537871456464
vertex 123.749999909666 200.0 3.90673320810933
vertex 123.749999909666 135.0 3.90673320810933
endloop
endfacet
facet normal -0.499999991396811 0.0 0.866025408751492
outer loop
vertex 123.749999909666 200.0 3.90673320810933
vertex 125.924621119482 135.0 5.57537871456464
vertex 125.924621119482 200.0 5.57537871456464
endloop
endfacet
facet normal -0.25881904510252 0.0 0.965925826289068
outer loop
vertex 100.588190451025 135.0 3.34074173710932
vertex 98.0 200.0 3.0
vertex 98.0 135.0 3.0
endloop
endfacet
facet normal 2.67333296869407e-016 0.0 1.0
outer loop
vertex 98.0 200.0 3.0
vertex 100.588190451025 135.0 3.34074173710932
vertex 100.588190451025 200.0 3.34074173710932
endloop
endfacet
facet normal 0.866025405026203 0.0 0.499999997849202
outer loop
vertex 109.406733247225 200.0 7.75000002258337
vertex 108.47475274615 135.0 10.0
vertex 109.406733247225 135.0 7.75000002258337
endloop
endfacet
facet normal 0.923879533224093 0.0 0.382683430644224
outer loop
vertex 108.47475274615 135.0 10.0
vertex 109.406733247225 200.0 7.75000002258337
vertex 108.47475274615 200.0 10.0
endloop
endfacet
facet normal -0.707106781186547 0.0 0.707106781186548
outer loop
vertex 85.2175144212722 135.0 6.2824855787278
vertex 83.25 200.0 4.77275866404784
vertex 83.25 135.0 4.77275866404784
endloop
endfacet
facet normal -0.5 0.0 0.866025403784439
outer loop
vertex 83.25 200.0 4.77275866404784
vertex 85.2175144212722 135.0 6.2824855787278
vertex 85.2175144212722 200.0 6.2824855787278
endloop
endfacet
facet normal -0.5 0.0 0.866025403784439
outer loop
vertex 83.25 135.0 4.77275866404784
vertex 80.9587809284739 200.0 3.82370465025386
vertex 80.9587809284739 135.0 3.82370465025386
endloop
endfacet
facet normal -0.258819045102521 0.0 0.965925826289068
outer loop
vertex 80.9587809284739 200.0 3.82370465025386
vertex 83.25 135.0 4.77275866404784
vertex 83.25 200.0 4.77275866404784
endloop
endfacet
facet normal 0.500000004301594 0.0 0.866025401300912
outer loop
vertex 134.549999952252 135.0 3.38711804555988
vertex 132.25111469959 200.0 5.15111475806869
vertex 132.25111469959 135.0 5.15111475806869
endloop
endfacet
facet normal 0.707106783820726 0.0 0.707106778552369
outer loop
vertex 132.25111469959 200.0 5.15111475806869
vertex 134.549999952252 135.0 3.38711804555988
vertex 134.549999952252 200.0 3.38711804555988
endloop
endfacet
facet normal -1.33117279677198e-015 0.0 1.0
outer loop
vertex 88.5113188374094 135.0 10.0
vertex 87.4521150701051 200.0 10.0
vertex 87.4521150701051 135.0 10.0
endloop
endfacet
facet normal -1.33117279677198e-015 0.0 1.0
outer loop
vertex 87.4521150701051 200.0 10.0
vertex 88.5113188374094 135.0 10.0
vertex 88.5113188374094 200.0 10.0
endloop
endfacet
facet normal -0.258819045102521 0.0 0.965925826289068
outer loop
vertex 80.9587809284739 135.0 3.82370465025386
vertex 78.5 200.0 3.5
vertex 78.5 135.0 3.5
endloop
endfacet
facet normal -8.91110989564691e-018 0.0 1.0
outer loop
vertex 78.5 200.0 3.5
vertex 80.9587809284739 135.0 3.82370465025386
vertex 80.9587809284739 200.0 3.82370465025386
endloop
endfacet
facet normal -0.866025403784438 0.0 0.500000000000001
outer loop
vertex 106.660254037844 200.0 8.0
vertex 105.071067811865 135.0 5.92893218813453
vertex 106.660254037844 135.0 8.0
endloop
endfacet
facet normal -0.707106781186547 0.0 0.707106781186549
outer loop
vertex 105.071067811865 135.0 5.92893218813453
vertex 106.660254037844 200.0 8.0
vertex 105.071067811865 200.0 5.92893218813453
endloop
endfacet
facet normal 0.707106783820726 0.0 0.707106778552369
outer loop
vertex 132.25111469959 200.0 5.15111475806869
vertex 130.487118004209 135.0 7.45000002387385
vertex 132.25111469959 135.0 5.15111475806869
endloop
endfacet
facet normal 0.866025405026203 0.0 0.499999997849202
outer loop
vertex 130.487118004209 135.0 7.45000002387385
vertex 132.25111469959 200.0 5.15111475806869
vertex 130.487118004209 200.0 7.45000002387385
endloop
endfacet
facet normal -8.91110989564691e-018 0.0 1.0
outer loop
vertex 78.5 135.0 3.5
vertex 76.0412190715261 200.0 3.82370465025386
vertex 76.0412190715261 135.0 3.82370465025386
endloop
endfacet
facet normal 0.258819045102521 0.0 0.965925826289068
outer loop
vertex 76.0412190715261 200.0 3.82370465025386
vertex 78.5 135.0 3.5
vertex 78.5 200.0 3.5
endloop
endfacet
facet normal 0.258819045102521 0.0 0.965925826289068
outer loop
vertex 76.0412190715261 135.0 3.82370465025386
vertex 73.75 200.0 4.77275866404784
vertex 73.75 135.0 4.77275866404784
endloop
endfacet
facet normal 0.500000000000001 0.0 0.866025403784438
outer loop
vertex 73.75 200.0 4.77275866404784
vertex 76.0412190715261 135.0 3.82370465025386
vertex 76.0412190715261 200.0 3.82370465025386
endloop
endfacet
facet normal 0.500000000000001 0.0 0.866025403784438
outer loop
vertex 73.75 135.0 4.77275866404784
vertex 71.7824855787278 200.0 6.2824855787278
vertex 71.7824855787278 135.0 6.2824855787278
endloop
endfacet
facet normal 0.707106781186548 0.0 0.707106781186547
outer loop
vertex 71.7824855787278 200.0 6.2824855787278
vertex 73.75 135.0 4.77275866404784
vertex 73.75 200.0 4.77275866404784
endloop
endfacet
facet normal 0.707106781186548 0.0 0.707106781186547
outer loop
vertex 71.7824855787278 200.0 6.2824855787278
vertex 70.2727586640478 135.0 8.25
vertex 71.7824855787278 135.0 6.2824855787278
endloop
endfacet
facet normal 0.866025403784438 0.0 0.5
outer loop
vertex 70.2727586640478 135.0 8.25
vertex 71.7824855787278 200.0 6.2824855787278
vertex 70.2727586640478 200.0 8.25
endloop
endfacet
facet normal -0.707106781186547 0.0 0.707106781186548
outer loop
vertex 66.3639610306789 135.0 6.63603896932107
vertex 64.5 200.0 5.20577136594004
vertex 64.5 135.0 5.20577136594004
endloop
endfacet
facet normal -0.5 0.0 0.866025403784439
outer loop
vertex 64.5 200.0 5.20577136594004
vertex 66.3639610306789 135.0 6.63603896932107
vertex 66.3639610306789 200.0 6.63603896932107
endloop
endfacet
facet normal -0.5 0.0 0.866025403784439
outer loop
vertex 64.5 135.0 5.20577136594004
vertex 62.3293714059227 200.0 4.30666756339838
vertex 62.3293714059227 135.0 4.30666756339838
endloop
endfacet
facet normal -0.25881904510252 0.0 0.965925826289068
outer loop
vertex 62.3293714059227 200.0 4.30666756339838
vertex 64.5 135.0 5.20577136594004
vertex 64.5 200.0 5.20577136594004
endloop
endfacet
facet normal 0.0 0.0 1.0
outer loop
vertex 69.5478849298949 135.0 10.0
vertex 68.4155489776196 200.0 10.0
vertex 68.4155489776196 135.0 10.0
endloop
endfacet
facet normal 0.0 0.0 1.0
outer loop
vertex 68.4155489776196 200.0 10.0
vertex 69.5478849298949 135.0 10.0
vertex 69.5478849298949 200.0 10.0
endloop
endfacet
facet normal -0.707106781186548 0.0 0.707106781186547
outer loop
vertex 31.5104076400857 135.0 6.98959235991435
vertex 29.75 185.0 5.63878406783227
vertex 29.75 135.0 5.63878406783227
endloop
endfacet
facet normal -0.5 0.0 0.866025403784439
outer loop
vertex 29.75 185.0 5.63878406783227
vertex 31.5104076400857 135.0 6.98959235991435
vertex 31.5104076400857 185.0 6.98959235991435
endloop
endfacet
facet normal -3.11888846347642e-016 0.0 1.0
outer loop
vertex 25.5 135.0 4.5
vertex 23.3000381166286 185.0 4.78963047654292
vertex 23.3000381166286 135.0 4.78963047654292
endloop
endfacet
facet normal 0.258819045102521 0.0 0.965925826289068
outer loop
vertex 23.3000381166286 185.0 4.78963047654292
vertex 25.5 135.0 4.5
vertex 25.5 185.0 4.5
endloop
endfacet
facet normal 0.866025403784439 0.0 0.499999999999999
outer loop
vertex 35.1387840678323 200.0 8.75
vertex 34.6210171148659 135.0 10.0
vertex 35.1387840678323 135.0 8.75
endloop
endfacet
facet normal 0.923879532511288 0.0 0.382683432365088
outer loop
vertex 34.6210171148659 135.0 10.0
vertex 35.1387840678323 200.0 8.75
vertex 34.6210171148659 200.0 10.0
endloop
endfacet
facet normal 0.258819045102521 0.0 0.965925826289068
outer loop
vertex 57.6706285940773 135.0 4.30666756339838
vertex 55.5 200.0 5.20577136594005
vertex 55.5 135.0 5.20577136594005
endloop
endfacet
facet normal 0.5 0.0 0.866025403784438
outer loop
vertex 55.5 200.0 5.20577136594005
vertex 57.6706285940773 135.0 4.30666756339838
vertex 57.6706285940773 200.0 4.30666756339838
endloop
endfacet
facet normal 0.866025403784438 0.0 0.5
outer loop
vertex 70.2727586640478 200.0 8.25
vertex 69.5478849298949 135.0 10.0
vertex 70.2727586640478 135.0 8.25
endloop
endfacet
facet normal 0.923879532511287 0.0 0.38268343236509
outer loop
vertex 69.5478849298949 135.0 10.0
vertex 70.2727586640478 200.0 8.25
vertex 69.5478849298949 200.0 10.0
endloop
endfacet
facet normal -0.923879532511288 0.0 0.382683432365087
outer loop
vertex 50.3789828851341 200.0 10.0
vertex 49.8612159321677 135.0 8.75
vertex 50.3789828851341 135.0 10.0
endloop
endfacet
facet normal -0.86602540378444 0.0 0.499999999999999
outer loop
vertex 49.8612159321677 135.0 8.75
vertex 50.3789828851341 200.0 10.0
vertex 49.8612159321677 200.0 8.75
endloop
endfacet
facet normal -0.86602540378444 0.0 0.499999999999999
outer loop
vertex 49.8612159321677 200.0 8.75
vertex 48.5104076400857 135.0 6.98959235991435
vertex 49.8612159321677 135.0 8.75
endloop
endfacet
facet normal -0.707106781186548 0.0 0.707106781186547
outer loop
vertex 48.5104076400857 135.0 6.98959235991435
vertex 49.8612159321677 200.0 8.75
vertex 48.5104076400857 200.0 6.98959235991435
endloop
endfacet
facet normal -0.707106781186548 0.0 0.707106781186547
outer loop
vertex 48.5104076400857 135.0 6.98959235991435
vertex 46.75 200.0 5.63878406783227
vertex 46.75 135.0 5.63878406783227
endloop
endfacet
facet normal -0.5 0.0 0.866025403784439
outer loop
vertex 46.75 200.0 5.63878406783227
vertex 48.5104076400857 135.0 6.98959235991435
vertex 48.5104076400857 200.0 6.98959235991435
endloop
endfacet
facet normal 0.707106781186548 0.0 0.707106781186547
outer loop
vertex 36.4895923599143 200.0 6.98959235991435
vertex 35.1387840678323 135.0 8.75
vertex 36.4895923599143 135.0 6.98959235991435
endloop
endfacet
facet normal 0.866025403784439 0.0 0.499999999999999
outer loop
vertex 35.1387840678323 135.0 8.75
vertex 36.4895923599143 200.0 6.98959235991435
vertex 35.1387840678323 200.0 8.75
endloop
endfacet
facet normal -0.866025403784439 0.0 0.5
outer loop
vertex 32.8612159321677 185.0 8.75
vertex 31.5104076400857 135.0 6.98959235991435
vertex 32.8612159321677 135.0 8.75
endloop
endfacet
facet normal -0.707106781186548 0.0 0.707106781186547
outer loop
vertex 31.5104076400857 135.0 6.98959235991435
vertex 32.8612159321677 185.0 8.75
vertex 31.5104076400857 185.0 6.98959235991435
endloop
endfacet
facet normal -0.5 0.0 0.866025403784439
outer loop
vertex 29.75 135.0 5.63878406783227
vertex 27.6999618833714 185.0 4.78963047654292
vertex 27.6999618833714 135.0 4.78963047654292
endloop
endfacet
facet normal -0.258819045102521 0.0 0.965925826289068
outer loop
vertex 27.6999618833714 185.0 4.78963047654292
vertex 29.75 135.0 5.63878406783227
vertex 29.75 185.0 5.63878406783227
endloop
endfacet
facet normal -0.923879532511288 0.0 0.382683432365088
outer loop
vertex 68.4155489776196 200.0 10.0
vertex 67.79422863406 135.0 8.5
vertex 68.4155489776196 135.0 10.0
endloop
endfacet
facet normal -0.866025403784439 0.0 0.5
outer loop
vertex 67.79422863406 135.0 8.5
vertex 68.4155489776196 200.0 10.0
vertex 67.79422863406 200.0 8.5
endloop
endfacet
facet normal -0.866025403784439 0.0 0.5
outer loop
vertex 67.79422863406 200.0 8.5
vertex 66.3639610306789 135.0 6.63603896932107
vertex 67.79422863406 135.0 8.5
endloop
endfacet
facet normal -0.707106781186547 0.0 0.707106781186548
outer loop
vertex 66.3639610306789 135.0 6.63603896932107
vertex 67.79422863406 200.0 8.5
vertex 66.3639610306789 200.0 6.63603896932107
endloop
endfacet
facet normal -0.25881904510252 0.0 0.965925826289068
outer loop
vertex 62.3293714059227 135.0 4.30666756339838
vertex 60.0 200.0 3.99999999999999
vertex 60.0 135.0 3.99999999999999
endloop
endfacet
facet normal -8.9111098956469e-018 0.0 1.0
outer loop
vertex 60.0 200.0 3.99999999999999
vertex 62.3293714059227 135.0 4.30666756339838
vertex 62.3293714059227 200.0 4.30666756339838
endloop
endfacet
facet normal 0.866025403784439 0.0 0.5
outer loop
vertex 52.20577136594 200.0 8.5
vertex 51.5844510223804 135.0 10.0
vertex 52.20577136594 135.0 8.5
endloop
endfacet
facet normal 0.923879532511288 0.0 0.382683432365088
outer loop
vertex 51.5844510223804 135.0 10.0
vertex 52.20577136594 200.0 8.5
vertex 51.5844510223804 200.0 10.0
endloop
endfacet
facet normal -0.5 0.0 0.866025403784439
outer loop
vertex 46.75 135.0 5.63878406783227
vertex 44.6999618833714 200.0 4.78963047654292
vertex 44.6999618833714 135.0 4.78963047654292
endloop
endfacet
facet normal -0.25881904510252 0.0 0.965925826289068
outer loop
vertex 44.6999618833714 200.0 4.78963047654292
vertex 46.75 135.0 5.63878406783227
vertex 46.75 200.0 5.63878406783227
endloop
endfacet
facet normal 1.1696561673499e-015 0.0 1.0
outer loop
vertex 51.5844510223804 135.0 10.0
vertex 50.3789828851341 200.0 10.0
vertex 50.3789828851341 135.0 10.0
endloop
endfacet
facet normal 1.1696561673499e-015 0.0 1.0
outer loop
vertex 50.3789828851341 200.0 10.0
vertex 51.5844510223804 135.0 10.0
vertex 51.5844510223804 200.0 10.0
endloop
endfacet
facet normal 0.707106781186547 0.0 0.707106781186548
outer loop
vertex 53.6360389693211 200.0 6.63603896932107
vertex 52.20577136594 135.0 8.5
vertex 53.6360389693211 135.0 6.63603896932107
endloop
endfacet
facet normal 0.866025403784439 0.0 0.5
outer loop
vertex 52.20577136594 135.0 8.5
vertex 53.6360389693211 200.0 6.63603896932107
vertex 52.20577136594 200.0 8.5
endloop
endfacet
facet normal -0.25881904510252 0.0 0.965925826289068
outer loop
vertex 44.6999618833714 135.0 4.78963047654292
vertex 42.5 200.0 4.5
vertex 42.5 135.0 4.5
endloop
endfacet
facet normal 1.51488868225997e-016 0.0 1.0
outer loop
vertex 42.5 200.0 4.5
vertex 44.6999618833714 135.0 4.78963047654292
vertex 44.6999618833714 200.0 4.78963047654292
endloop
endfacet
facet normal 0.5 0.0 0.866025403784438
outer loop
vertex 55.5 135.0 5.20577136594005
vertex 53.6360389693211 200.0 6.63603896932107
vertex 53.6360389693211 135.0 6.63603896932107
endloop
endfacet
facet normal 0.707106781186547 0.0 0.707106781186548
outer loop
vertex 53.6360389693211 200.0 6.63603896932107
vertex 55.5 135.0 5.20577136594005
vertex 55.5 200.0 5.20577136594005
endloop
endfacet
facet normal 1.51488868225997e-016 0.0 1.0
outer loop
vertex 42.5 135.0 4.5
vertex 40.3000381166286 200.0 4.78963047654292
vertex 40.3000381166286 135.0 4.78963047654292
endloop
endfacet
facet normal 0.258819045102521 0.0 0.965925826289068
outer loop
vertex 40.3000381166286 200.0 4.78963047654292
vertex 42.5 135.0 4.5
vertex 42.5 200.0 4.5
endloop
endfacet
facet normal 0.258819045102521 0.0 0.965925826289068
outer loop
vertex 40.3000381166286 135.0 4.78963047654292
vertex 38.25 200.0 5.63878406783227
vertex 38.25 135.0 5.63878406783227
endloop
endfacet
facet normal 0.5 0.0 0.866025403784439
outer loop
vertex 38.25 200.0 5.63878406783227
vertex 40.3000381166286 135.0 4.78963047654292
vertex 40.3000381166286 200.0 4.78963047654292
endloop
endfacet
facet normal 0.5 0.0 0.866025403784439
outer loop
vertex 38.25 135.0 5.63878406783227
vertex 36.4895923599143 200.0 6.98959235991435
vertex 36.4895923599143 135.0 6.98959235991435
endloop
endfacet
facet normal 0.707106781186548 0.0 0.707106781186547
outer loop
vertex 36.4895923599143 200.0 6.98959235991435
vertex 38.25 135.0 5.63878406783227
vertex 38.25 200.0 5.63878406783227
endloop
endfacet
facet normal -0.923879532511286 0.0 0.382683432365091
outer loop
vertex 33.3789828851341 185.0 10.0
vertex 32.8612159321677 135.0 8.75
vertex 33.3789828851341 135.0 10.0
endloop
endfacet
facet normal -0.866025403784439 0.0 0.5
outer loop
vertex 32.8612159321677 135.0 8.75
vertex 33.3789828851341 185.0 10.0
vertex 32.8612159321677 185.0 8.75
endloop
endfacet
facet normal -0.258819045102521 0.0 0.965925826289068
outer loop
vertex 27.6999618833714 135.0 4.78963047654292
vertex 25.5 185.0 4.5
vertex 25.5 135.0 4.5
endloop
endfacet
facet normal -3.11888846347642e-016 0.0 1.0
outer loop
vertex 25.5 185.0 4.5
vertex 27.6999618833714 135.0 4.78963047654292
vertex 27.6999618833714 185.0 4.78963047654292
endloop
endfacet
facet normal -8.9111098956469e-018 0.0 1.0
outer loop
vertex 60.0 135.0 3.99999999999999
vertex 57.6706285940773 200.0 4.30666756339838
vertex 57.6706285940773 135.0 4.30666756339838
endloop
endfacet
facet normal 0.258819045102521 0.0 0.965925826289068
outer loop
vertex 57.6706285940773 200.0 4.30666756339838
vertex 60.0 135.0 3.99999999999999
vertex 60.0 200.0 3.99999999999999
endloop
endfacet
facet normal 0.258819045102521 0.0 0.965925826289068
outer loop
vertex 6.30003811662857 135.0 4.78963047654292
vertex 4.25 185.0 5.63878406783227
vertex 4.25 135.0 5.63878406783227
endloop
endfacet
facet normal 0.5 0.0 0.866025403784439
outer loop
vertex 4.25 185.0 5.63878406783227
vertex 6.30003811662857 135.0 4.78963047654292
vertex 6.30003811662857 185.0 4.78963047654292
endloop
endfacet
facet normal 0.965925826289068 0.0 0.258819045102521
outer loop
vertex 0.28963047654292 185.0 10.8000381166286
vertex 3.52495810318487e-016 135.0 13.0
vertex 0.28963047654292 135.0 10.8000381166286
endloop
endfacet
facet normal 0.99144486137381 0.0 0.130526192220052
outer loop
vertex 3.52495810318487e-016 135.0 13.0
vertex 0.28963047654292 185.0 10.8000381166286
vertex 3.52495810318487e-016 185.0 13.0
endloop
endfacet
facet normal -0.707106781186547 0.0 0.707106781186548
outer loop
vertex 14.5104076400857 135.0 6.98959235991435
vertex 12.75 185.0 5.63878406783227
vertex 12.75 135.0 5.63878406783227
endloop
endfacet
facet normal -0.5 0.0 0.866025403784439
outer loop
vertex 12.75 185.0 5.63878406783227
vertex 14.5104076400857 135.0 6.98959235991435
vertex 14.5104076400857 185.0 6.98959235991435
endloop
endfacet
facet normal 0.5 0.0 0.866025403784439
outer loop
vertex 4.25 135.0 5.63878406783227
vertex 2.48959235991435 185.0 6.98959235991435
vertex 2.48959235991435 135.0 6.98959235991435
endloop
endfacet
facet normal 0.707106781186548 0.0 0.707106781186547
outer loop
vertex 2.48959235991435 185.0 6.98959235991435
vertex 4.25 135.0 5.63878406783227
vertex 4.25 185.0 5.63878406783227
endloop
endfacet
facet normal 0.707106781186548 0.0 0.707106781186547
outer loop
vertex 2.48959235991435 185.0 6.98959235991435
vertex 1.13878406783227 135.0 8.75
vertex 2.48959235991435 135.0 6.98959235991435
endloop
endfacet
facet normal 0.866025403784439 0.0 0.5
outer loop
vertex 1.13878406783227 135.0 8.75
vertex 2.48959235991435 185.0 6.98959235991435
vertex 1.13878406783227 185.0 8.75
endloop
endfacet
facet normal 0.707106781186548 0.0 0.707106781186548
outer loop
vertex 19.4895923599143 185.0 6.98959235991434
vertex 18.1387840678323 135.0 8.75
vertex 19.4895923599143 135.0 6.98959235991434
endloop
endfacet
facet normal 0.866025403784439 0.0 0.499999999999999
outer loop
vertex 18.1387840678323 135.0 8.75
vertex 19.4895923599143 185.0 6.98959235991434
vertex 18.1387840678323 185.0 8.75
endloop
endfacet
facet normal 0.866025403784439 0.0 0.499999999999999
outer loop
vertex 18.1387840678323 185.0 8.75
vertex 17.6210171148659 135.0 10.0
vertex 18.1387840678323 135.0 8.75
endloop
endfacet
facet normal 0.923879532511288 0.0 0.382683432365087
outer loop
vertex 17.6210171148659 135.0 10.0
vertex 18.1387840678323 185.0 8.75
vertex 17.6210171148659 185.0 10.0
endloop
endfacet
facet normal 0.866025403784439 0.0 0.5
outer loop
vertex 1.13878406783227 185.0 8.75
vertex 0.28963047654292 135.0 10.8000381166286
vertex 1.13878406783227 135.0 8.75
endloop
endfacet
facet normal 0.965925826289068 0.0 0.258819045102521
outer loop
vertex 0.28963047654292 135.0 10.8000381166286
vertex 1.13878406783227 185.0 8.75
vertex 0.28963047654292 185.0 10.8000381166286
endloop
endfacet
facet normal -0.923879532511286 0.0 0.382683432365091
outer loop
vertex 16.3789828851341 185.0 10.0
vertex 15.8612159321677 135.0 8.75
vertex 16.3789828851341 135.0 10.0
endloop
endfacet
facet normal -0.866025403784439 0.0 0.5
outer loop
vertex 15.8612159321677 135.0 8.75
vertex 16.3789828851341 185.0 10.0
vertex 15.8612159321677 185.0 8.75
endloop
endfacet
facet normal 3.56444395825876e-016 0.0 1.0
outer loop
vertex 8.5 135.0 4.5
vertex 6.30003811662857 185.0 4.78963047654292
vertex 6.30003811662857 135.0 4.78963047654292
endloop
endfacet
facet normal 0.258819045102521 0.0 0.965925826289068
outer loop
vertex 6.30003811662857 185.0 4.78963047654292
vertex 8.5 135.0 4.5
vertex 8.5 185.0 4.5
endloop
endfacet
facet normal -0.5 0.0 0.866025403784439
outer loop
vertex 12.75 135.0 5.63878406783227
vertex 10.6999618833714 185.0 4.78963047654292
vertex 10.6999618833714 135.0 4.78963047654292
endloop
endfacet
facet normal -0.258819045102521 0.0 0.965925826289068
outer loop
vertex 10.6999618833714 185.0 4.78963047654292
vertex 12.75 135.0 5.63878406783227
vertex 12.75 185.0 5.63878406783227
endloop
endfacet
facet normal -0.258819045102521 0.0 0.965925826289068
outer loop
vertex 10.6999618833714 135.0 4.78963047654292
vertex 8.5 185.0 4.5
vertex 8.5 135.0 4.5
endloop
endfacet
facet normal 3.56444395825876e-016 0.0 1.0
outer loop
vertex 8.5 185.0 4.5
vertex 10.6999618833714 135.0 4.78963047654292
vertex 10.6999618833714 185.0 4.78963047654292
endloop
endfacet
facet normal 0.258819045102521 0.0 0.965925826289068
outer loop
vertex 23.3000381166286 135.0 4.78963047654292
vertex 21.25 185.0 5.63878406783227
vertex 21.25 135.0 5.63878406783227
endloop
endfacet
facet normal 0.5 0.0 0.866025403784439
outer loop
vertex 21.25 185.0 5.63878406783227
vertex 23.3000381166286 135.0 4.78963047654292
vertex 23.3000381166286 185.0 4.78963047654292
endloop
endfacet
facet normal 0.0 0.0 1.0
outer loop
vertex 17.6210171148659 135.0 10.0
vertex 16.3789828851341 185.0 10.0
vertex 16.3789828851341 135.0 10.0
endloop
endfacet
facet normal 0.0 0.0 1.0
outer loop
vertex 16.3789828851341 185.0 10.0
vertex 17.6210171148659 135.0 10.0
vertex 17.6210171148659 185.0 10.0
endloop
endfacet
facet normal 0.5 0.0 0.866025403784439
outer loop
vertex 21.25 135.0 5.63878406783227
vertex 19.4895923599143 185.0 6.98959235991434
vertex 19.4895923599143 135.0 6.98959235991434
endloop
endfacet
facet normal 0.707106781186548 0.0 0.707106781186548
outer loop
vertex 19.4895923599143 185.0 6.98959235991434
vertex 21.25 135.0 5.63878406783227
vertex 21.25 185.0 5.63878406783227
endloop
endfacet
facet normal -0.866025403784439 0.0 0.5
outer loop
vertex 15.8612159321677 185.0 8.75
vertex 14.5104076400857 135.0 6.98959235991435
vertex 15.8612159321677 135.0 8.75
endloop
endfacet
facet normal -0.707106781186547 0.0 0.707106781186548
outer loop
vertex 14.5104076400857 135.0 6.98959235991435
vertex 15.8612159321677 185.0 8.75
vertex 14.5104076400857 185.0 6.98959235991435
endloop
endfacet
endsolid socket organizers
