solid OpenSCAD_Model
  facet normal 0.744239 -0.241818 -0.622602
    outer loop
      vertex 25.3966 -11.3073 3.5
      vertex 22.8386 -10.1684 0
      vertex 27.1925 -5.77994 3.5
    endloop
  endfacet
  facet normal 0.778251 0.081798 -0.622603
    outer loop
      vertex 27.2745 5 3.5
      vertex 26.8966 5 3.02771
      vertex 27.1925 5.77994 3.5
    endloop
  endfacet
  facet normal 0.778252 0.0817977 -0.622602
    outer loop
      vertex 26.6 0 2
      vertex 25 0 0
      vertex 26.2529 3.30283 2
    endloop
  endfacet
  facet normal 0.778252 0.081797 -0.622602
    outer loop
      vertex 26.0745 5 2
      vertex 27.1925 5.77994 3.5
      vertex 26.8966 5 3.02771
    endloop
  endfacet
  facet normal 0.778252 0.0817972 -0.622602
    outer loop
      vertex 27.1925 5.77994 3.5
      vertex 26.0745 5 2
      vertex 24.4537 5.19779 0
    endloop
  endfacet
  facet normal 0.778252 0.0817979 -0.622602
    outer loop
      vertex 26.2529 3.30283 2
      vertex 24.4537 5.19779 0
      vertex 26.0745 5 2
    endloop
  endfacet
  facet normal 0.778252 0.0817977 -0.622602
    outer loop
      vertex 24.4537 5.19779 0
      vertex 26.2529 3.30283 2
      vertex 25 0 0
    endloop
  endfacet
  facet normal 0.778252 -0.081797 -0.622602
    outer loop
      vertex 27.1925 -5.77994 3.5
      vertex 26.0745 -5 2
      vertex 26.8966 -5 3.02771
    endloop
  endfacet
  facet normal 0.778252 -0.0817972 -0.622602
    outer loop
      vertex 26.0745 -5 2
      vertex 27.1925 -5.77994 3.5
      vertex 24.4537 -5.19779 0
    endloop
  endfacet
  facet normal 0.778252 -0.0817979 -0.622602
    outer loop
      vertex 24.4537 -5.19779 0
      vertex 26.2529 -3.30283 2
      vertex 26.0745 -5 2
    endloop
  endfacet
  facet normal 0.778252 -0.0817977 -0.622602
    outer loop
      vertex 26.2529 -3.30283 2
      vertex 24.4537 -5.19779 0
      vertex 25 0 0
    endloop
  endfacet
  facet normal -0.778252 -0.0817977 -0.622602
    outer loop
      vertex -24.4537 -5.19779 0
      vertex -27.1925 -5.77994 3.5
      vertex -25 0 0
    endloop
  endfacet
  facet normal -0.778252 0.0817977 -0.622602
    outer loop
      vertex -25 0 0
      vertex -27.1925 5.77994 3.5
      vertex -24.4537 5.19779 0
    endloop
  endfacet
  facet normal 0.58154 -0.523621 -0.622602
    outer loop
      vertex 18.6018 -20.6594 3.5
      vertex 16.7283 -18.5786 0
      vertex 20.2254 -14.6946 0
    endloop
  endfacet
  facet normal 0.778251 -0.081798 -0.622603
    outer loop
      vertex 27.1925 -5.77994 3.5
      vertex 26.8966 -5 3.02771
      vertex 27.2745 -5 3.5
    endloop
  endfacet
  facet normal 0.778252 -0.0817977 -0.622602
    outer loop
      vertex 26.2529 -3.30283 2
      vertex 25 0 0
      vertex 26.6 0 2
    endloop
  endfacet
  facet normal 0.318287 -0.714885 -0.622602
    outer loop
      vertex 8.59067 -26.4394 3.5
      vertex 7.72542 -23.7764 0
      vertex 12.5 -21.6506 0
    endloop
  endfacet
  facet normal -0.162699 -0.765439 -0.622602
    outer loop
      vertex -2.61321 -24.863 0
      vertex -8.59067 -26.4394 3.5
      vertex -7.72542 -23.7764 0
    endloop
  endfacet
  facet normal -0.744239 -0.241818 -0.622602
    outer loop
      vertex -25.3966 -11.3073 3.5
      vertex -27.1925 -5.77994 3.5
      vertex -22.8386 -10.1684 0
    endloop
  endfacet
  facet normal -0.318287 -0.714885 -0.622602
    outer loop
      vertex -8.59067 -26.4394 3.5
      vertex -13.9 -24.0755 3.5
      vertex -12.5 -21.6506 0
    endloop
  endfacet
  facet normal -0.162699 0.765439 -0.622602
    outer loop
      vertex -7.72542 23.7764 0
      vertex -8.59067 26.4394 3.5
      vertex -2.61321 24.863 0
    endloop
  endfacet
  facet normal -0.744239 0.241818 -0.622602
    outer loop
      vertex -22.8386 10.1684 0
      vertex -27.1925 5.77994 3.5
      vertex -25.3966 11.3073 3.5
    endloop
  endfacet
  facet normal 0 0 1
    outer loop
      vertex 23 5 3.5
      vertex 27.1925 5.77994 3.5
      vertex 25.3966 11.3073 3.5
    endloop
  endfacet
  facet normal 0 0 1
    outer loop
      vertex 27.1925 5.77994 3.5
      vertex 23 5 3.5
      vertex 27.2745 5 3.5
    endloop
  endfacet
  facet normal 0 0 1
    outer loop
      vertex 23 5 3.5
      vertex 22.9865 4.88592 3.5
      vertex 23 4.75718 3.5
    endloop
  endfacet
  facet normal 0 0 1
    outer loop
      vertex 21.4683 9.55831 3.5
      vertex 25.3966 11.3073 3.5
      vertex 22.4907 16.3404 3.5
    endloop
  endfacet
  facet normal 0 0 1
    outer loop
      vertex 25.3966 11.3073 3.5
      vertex 21.4683 9.55831 3.5
      vertex 23 5 3.5
    endloop
  endfacet
  facet normal 0 0 1
    outer loop
      vertex 23 5 3.5
      vertex 21.4683 9.55831 3.5
      vertex 22.9865 4.88592 3.5
    endloop
  endfacet
  facet normal 0 0 1
    outer loop
      vertex 22.4907 16.3404 3.5
      vertex 19.0119 13.813 3.5
      vertex 21.4683 9.55831 3.5
    endloop
  endfacet
  facet normal 0 0 1
    outer loop
      vertex 18.6018 20.6594 3.5
      vertex 19.0119 13.813 3.5
      vertex 22.4907 16.3404 3.5
    endloop
  endfacet
  facet normal 0 0 1
    outer loop
      vertex 18.6018 20.6594 3.5
      vertex 15.7246 17.4639 3.5
      vertex 19.0119 13.813 3.5
    endloop
  endfacet
  facet normal 0 0 1
    outer loop
      vertex 13.9 24.0755 3.5
      vertex 15.7246 17.4639 3.5
      vertex 18.6018 20.6594 3.5
    endloop
  endfacet
  facet normal 0 0 1
    outer loop
      vertex 13.9 24.0755 3.5
      vertex 11.75 20.3516 3.5
      vertex 15.7246 17.4639 3.5
    endloop
  endfacet
  facet normal 0 0 1
    outer loop
      vertex 8.59067 26.4394 3.5
      vertex 11.75 20.3516 3.5
      vertex 13.9 24.0755 3.5
    endloop
  endfacet
  facet normal 0 0 1
    outer loop
      vertex 8.59067 26.4394 3.5
      vertex 7.2619 22.3498 3.5
      vertex 11.75 20.3516 3.5
    endloop
  endfacet
  facet normal 0 0 1
    outer loop
      vertex 2.90589 27.6477 3.5
      vertex 7.2619 22.3498 3.5
      vertex 8.59067 26.4394 3.5
    endloop
  endfacet
  facet normal 0 0 1
    outer loop
      vertex 2.90589 27.6477 3.5
      vertex 2.45642 23.3713 3.5
      vertex 7.2619 22.3498 3.5
    endloop
  endfacet
  facet normal 0 0 1
    outer loop
      vertex 2.90589 27.6477 3.5
      vertex -2.45642 23.3713 3.5
      vertex 2.45642 23.3713 3.5
    endloop
  endfacet
  facet normal -0 0 1
    outer loop
      vertex -2.90589 27.6477 3.5
      vertex -2.45642 23.3713 3.5
      vertex 2.90589 27.6477 3.5
    endloop
  endfacet
  facet normal 0 0 1
    outer loop
      vertex -2.90589 27.6477 3.5
      vertex -7.2619 22.3498 3.5
      vertex -2.45642 23.3713 3.5
    endloop
  endfacet
  facet normal -0 0 1
    outer loop
      vertex -8.59067 26.4394 3.5
      vertex -7.2619 22.3498 3.5
      vertex -2.90589 27.6477 3.5
    endloop
  endfacet
  facet normal 0 0 1
    outer loop
      vertex -8.59067 26.4394 3.5
      vertex -11.75 20.3516 3.5
      vertex -7.2619 22.3498 3.5
    endloop
  endfacet
  facet normal -0 0 1
    outer loop
      vertex -13.9 24.0755 3.5
      vertex -11.75 20.3516 3.5
      vertex -8.59067 26.4394 3.5
    endloop
  endfacet
  facet normal 0 0 1
    outer loop
      vertex -13.9 24.0755 3.5
      vertex -15.7246 17.4639 3.5
      vertex -11.75 20.3516 3.5
    endloop
  endfacet
  facet normal -0 0 1
    outer loop
      vertex -18.6018 20.6594 3.5
      vertex -15.7246 17.4639 3.5
      vertex -13.9 24.0755 3.5
    endloop
  endfacet
  facet normal 0 0 1
    outer loop
      vertex -18.6018 20.6594 3.5
      vertex -19.0119 13.813 3.5
      vertex -15.7246 17.4639 3.5
    endloop
  endfacet
  facet normal -0 0 1
    outer loop
      vertex -22.4907 16.3404 3.5
      vertex -19.0119 13.813 3.5
      vertex -18.6018 20.6594 3.5
    endloop
  endfacet
  facet normal 0 0 1
    outer loop
      vertex -19.0119 13.813 3.5
      vertex -22.4907 16.3404 3.5
      vertex -21.4683 9.55831 3.5
    endloop
  endfacet
  facet normal -0 0 1
    outer loop
      vertex -25.3966 11.3073 3.5
      vertex -21.4683 9.55831 3.5
      vertex -22.4907 16.3404 3.5
    endloop
  endfacet
  facet normal 0 0 1
    outer loop
      vertex -21.4683 9.55831 3.5
      vertex -25.3966 11.3073 3.5
      vertex -22.9865 4.88592 3.5
    endloop
  endfacet
  facet normal -0 0 1
    outer loop
      vertex -27.1925 5.77994 3.5
      vertex -22.9865 4.88592 3.5
      vertex -25.3966 11.3073 3.5
    endloop
  endfacet
  facet normal 0 0 1
    outer loop
      vertex 23 -4.75718 3.5
      vertex 22.9865 -4.88592 3.5
      vertex 23 -5 3.5
    endloop
  endfacet
  facet normal -0 0 1
    outer loop
      vertex 23 -5 3.5
      vertex 27.1925 -5.77994 3.5
      vertex 27.2745 -5 3.5
    endloop
  endfacet
  facet normal 0 0 1
    outer loop
      vertex 27.1925 -5.77994 3.5
      vertex 23 -5 3.5
      vertex 25.3966 -11.3073 3.5
    endloop
  endfacet
  facet normal -0 0 1
    outer loop
      vertex 21.4683 -9.55831 3.5
      vertex 25.3966 -11.3073 3.5
      vertex 23 -5 3.5
    endloop
  endfacet
  facet normal 0 0 1
    outer loop
      vertex 21.4683 -9.55831 3.5
      vertex 23 -5 3.5
      vertex 22.9865 -4.88592 3.5
    endloop
  endfacet
  facet normal 0 0 1
    outer loop
      vertex 25.3966 -11.3073 3.5
      vertex 21.4683 -9.55831 3.5
      vertex 22.4907 -16.3404 3.5
    endloop
  endfacet
  facet normal -0 0 1
    outer loop
      vertex 19.0119 -13.813 3.5
      vertex 22.4907 -16.3404 3.5
      vertex 21.4683 -9.55831 3.5
    endloop
  endfacet
  facet normal 0 0 1
    outer loop
      vertex 19.0119 -13.813 3.5
      vertex 18.6018 -20.6594 3.5
      vertex 22.4907 -16.3404 3.5
    endloop
  endfacet
  facet normal -0 0 1
    outer loop
      vertex 15.7246 -17.4639 3.5
      vertex 18.6018 -20.6594 3.5
      vertex 19.0119 -13.813 3.5
    endloop
  endfacet
  facet normal 0 0 1
    outer loop
      vertex 15.7246 -17.4639 3.5
      vertex 13.9 -24.0755 3.5
      vertex 18.6018 -20.6594 3.5
    endloop
  endfacet
  facet normal -0 0 1
    outer loop
      vertex 11.75 -20.3516 3.5
      vertex 13.9 -24.0755 3.5
      vertex 15.7246 -17.4639 3.5
    endloop
  endfacet
  facet normal 0 0 1
    outer loop
      vertex 11.75 -20.3516 3.5
      vertex 8.59067 -26.4394 3.5
      vertex 13.9 -24.0755 3.5
    endloop
  endfacet
  facet normal -0 0 1
    outer loop
      vertex 7.2619 -22.3498 3.5
      vertex 8.59067 -26.4394 3.5
      vertex 11.75 -20.3516 3.5
    endloop
  endfacet
  facet normal 0 0 1
    outer loop
      vertex 7.2619 -22.3498 3.5
      vertex 2.90589 -27.6477 3.5
      vertex 8.59067 -26.4394 3.5
    endloop
  endfacet
  facet normal -0 0 1
    outer loop
      vertex 2.45642 -23.3713 3.5
      vertex 2.90589 -27.6477 3.5
      vertex 7.2619 -22.3498 3.5
    endloop
  endfacet
  facet normal -0 0 1
    outer loop
      vertex -2.45642 -23.3713 3.5
      vertex 2.90589 -27.6477 3.5
      vertex 2.45642 -23.3713 3.5
    endloop
  endfacet
  facet normal 0 0 1
    outer loop
      vertex -2.45642 -23.3713 3.5
      vertex -2.90589 -27.6477 3.5
      vertex 2.90589 -27.6477 3.5
    endloop
  endfacet
  facet normal 0 0 1
    outer loop
      vertex -7.2619 -22.3498 3.5
      vertex -2.90589 -27.6477 3.5
      vertex -2.45642 -23.3713 3.5
    endloop
  endfacet
  facet normal 0 0 1
    outer loop
      vertex -7.2619 -22.3498 3.5
      vertex -8.59067 -26.4394 3.5
      vertex -2.90589 -27.6477 3.5
    endloop
  endfacet
  facet normal 0 0 1
    outer loop
      vertex -11.75 -20.3516 3.5
      vertex -8.59067 -26.4394 3.5
      vertex -7.2619 -22.3498 3.5
    endloop
  endfacet
  facet normal 0 0 1
    outer loop
      vertex -11.75 -20.3516 3.5
      vertex -13.9 -24.0755 3.5
      vertex -8.59067 -26.4394 3.5
    endloop
  endfacet
  facet normal 0 0 1
    outer loop
      vertex -15.7246 -17.4639 3.5
      vertex -13.9 -24.0755 3.5
      vertex -11.75 -20.3516 3.5
    endloop
  endfacet
  facet normal 0 0 1
    outer loop
      vertex -15.7246 -17.4639 3.5
      vertex -18.6018 -20.6594 3.5
      vertex -13.9 -24.0755 3.5
    endloop
  endfacet
  facet normal 0 0 1
    outer loop
      vertex -19.0119 -13.813 3.5
      vertex -18.6018 -20.6594 3.5
      vertex -15.7246 -17.4639 3.5
    endloop
  endfacet
  facet normal 0 0 1
    outer loop
      vertex -22.4907 -16.3404 3.5
      vertex -19.0119 -13.813 3.5
      vertex -21.4683 -9.55831 3.5
    endloop
  endfacet
  facet normal 0 0 1
    outer loop
      vertex -19.0119 -13.813 3.5
      vertex -22.4907 -16.3404 3.5
      vertex -18.6018 -20.6594 3.5
    endloop
  endfacet
  facet normal 0 0 1
    outer loop
      vertex -25.3966 -11.3073 3.5
      vertex -21.4683 -9.55831 3.5
      vertex -22.9865 -4.88592 3.5
    endloop
  endfacet
  facet normal 0 0 1
    outer loop
      vertex -27.1925 -5.77994 3.5
      vertex -22.9865 -4.88592 3.5
      vertex -23.5 0 3.5
    endloop
  endfacet
  facet normal 0 0 1
    outer loop
      vertex -22.9865 4.88592 3.5
      vertex -27.1925 5.77994 3.5
      vertex -23.5 0 3.5
    endloop
  endfacet
  facet normal 0 0 1
    outer loop
      vertex -21.4683 -9.55831 3.5
      vertex -25.3966 -11.3073 3.5
      vertex -22.4907 -16.3404 3.5
    endloop
  endfacet
  facet normal 0 0 1
    outer loop
      vertex -27.8 0 3.5
      vertex -23.5 0 3.5
      vertex -27.1925 5.77994 3.5
    endloop
  endfacet
  facet normal 0 0 1
    outer loop
      vertex -22.9865 -4.88592 3.5
      vertex -27.1925 -5.77994 3.5
      vertex -25.3966 -11.3073 3.5
    endloop
  endfacet
  facet normal 0 0 1
    outer loop
      vertex -23.5 0 3.5
      vertex -27.8 0 3.5
      vertex -27.1925 -5.77994 3.5
    endloop
  endfacet
  facet normal 0.744239 -0.241818 -0.622602
    outer loop
      vertex 27.1925 -5.77994 3.5
      vertex 22.8386 -10.1684 0
      vertex 24.4537 -5.19779 0
    endloop
  endfacet
  facet normal 0.677699 -0.391269 -0.622602
    outer loop
      vertex 25.3966 -11.3073 3.5
      vertex 20.2254 -14.6946 0
      vertex 22.8386 -10.1684 0
    endloop
  endfacet
  facet normal 0.459965 -0.633087 -0.622602
    outer loop
      vertex 13.9 -24.0755 3.5
      vertex 12.5 -21.6506 0
      vertex 18.6018 -20.6594 3.5
    endloop
  endfacet
  facet normal 0.162699 -0.765438 -0.622602
    outer loop
      vertex 2.90589 -27.6477 3.5
      vertex 2.61321 -24.863 0
      vertex 8.59067 -26.4394 3.5
    endloop
  endfacet
  facet normal -0.677699 -0.391269 -0.622602
    outer loop
      vertex -20.2254 -14.6946 0
      vertex -25.3966 -11.3073 3.5
      vertex -22.8386 -10.1684 0
    endloop
  endfacet
  facet normal -0.58154 -0.523621 -0.622602
    outer loop
      vertex -18.6018 -20.6594 3.5
      vertex -22.4907 -16.3404 3.5
      vertex -20.2254 -14.6946 0
    endloop
  endfacet
  facet normal -0.162699 -0.765438 -0.622602
    outer loop
      vertex -2.90589 -27.6477 3.5
      vertex -8.59067 -26.4394 3.5
      vertex -2.61321 -24.863 0
    endloop
  endfacet
  facet normal 0 -0.782539 -0.622602
    outer loop
      vertex -2.61321 -24.863 0
      vertex 2.90589 -27.6477 3.5
      vertex -2.90589 -27.6477 3.5
    endloop
  endfacet
  facet normal 0 -0.782539 -0.622602
    outer loop
      vertex 2.90589 -27.6477 3.5
      vertex -2.61321 -24.863 0
      vertex 2.61321 -24.863 0
    endloop
  endfacet
  facet normal -0.677699 0.39127 -0.622602
    outer loop
      vertex -20.2254 14.6946 0
      vertex -25.3966 11.3073 3.5
      vertex -22.4907 16.3404 3.5
    endloop
  endfacet
  facet normal -0.318287 0.714885 -0.622602
    outer loop
      vertex -7.72542 23.7764 0
      vertex -13.9 24.0755 3.5
      vertex -8.59067 26.4394 3.5
    endloop
  endfacet
  facet normal -0.318287 0.714885 -0.622602
    outer loop
      vertex -12.5 21.6506 0
      vertex -13.9 24.0755 3.5
      vertex -7.72542 23.7764 0
    endloop
  endfacet
  facet normal -0.778252 0.0817975 -0.622602
    outer loop
      vertex -25 0 0
      vertex -27.8 0 3.5
      vertex -27.1925 5.77994 3.5
    endloop
  endfacet
  facet normal -0.778252 -0.0817975 -0.622602
    outer loop
      vertex -27.1925 -5.77994 3.5
      vertex -27.8 0 3.5
      vertex -25 0 0
    endloop
  endfacet
  facet normal 0.677699 -0.39127 -0.622602
    outer loop
      vertex 22.4907 -16.3404 3.5
      vertex 20.2254 -14.6946 0
      vertex 25.3966 -11.3073 3.5
    endloop
  endfacet
  facet normal 0.58154 -0.523621 -0.622602
    outer loop
      vertex 22.4907 -16.3404 3.5
      vertex 18.6018 -20.6594 3.5
      vertex 20.2254 -14.6946 0
    endloop
  endfacet
  facet normal 0.162699 -0.765439 -0.622602
    outer loop
      vertex 8.59067 -26.4394 3.5
      vertex 2.61321 -24.863 0
      vertex 7.72542 -23.7764 0
    endloop
  endfacet
  facet normal 0.459965 -0.633087 -0.622602
    outer loop
      vertex 18.6018 -20.6594 3.5
      vertex 12.5 -21.6506 0
      vertex 16.7283 -18.5786 0
    endloop
  endfacet
  facet normal 0.318287 -0.714885 -0.622602
    outer loop
      vertex 13.9 -24.0755 3.5
      vertex 8.59067 -26.4394 3.5
      vertex 12.5 -21.6506 0
    endloop
  endfacet
  facet normal 0 0 -1
    outer loop
      vertex 24.4537 -5.19779 0
      vertex 24.4537 5.19779 0
      vertex 25 0 0
    endloop
  endfacet
  facet normal 0 0 -1
    outer loop
      vertex 22.8386 -10.1684 0
      vertex 24.4537 5.19779 0
      vertex 24.4537 -5.19779 0
    endloop
  endfacet
  facet normal 0 0 -1
    outer loop
      vertex 22.8386 -10.1684 0
      vertex 22.8386 10.1684 0
      vertex 24.4537 5.19779 0
    endloop
  endfacet
  facet normal 0 0 -1
    outer loop
      vertex 20.2254 -14.6946 0
      vertex 22.8386 10.1684 0
      vertex 22.8386 -10.1684 0
    endloop
  endfacet
  facet normal 0 0 -1
    outer loop
      vertex 20.2254 -14.6946 0
      vertex 20.2254 14.6946 0
      vertex 22.8386 10.1684 0
    endloop
  endfacet
  facet normal 0 0 -1
    outer loop
      vertex 16.7283 -18.5786 0
      vertex 20.2254 14.6946 0
      vertex 20.2254 -14.6946 0
    endloop
  endfacet
  facet normal 0 0 -1
    outer loop
      vertex 16.7283 -18.5786 0
      vertex 16.7283 18.5786 0
      vertex 20.2254 14.6946 0
    endloop
  endfacet
  facet normal 0 0 -1
    outer loop
      vertex 12.5 -21.6506 0
      vertex 16.7283 18.5786 0
      vertex 16.7283 -18.5786 0
    endloop
  endfacet
  facet normal 0 0 -1
    outer loop
      vertex 12.5 -21.6506 0
      vertex 12.5 21.6506 0
      vertex 16.7283 18.5786 0
    endloop
  endfacet
  facet normal 0 0 -1
    outer loop
      vertex 7.72542 -23.7764 0
      vertex 12.5 21.6506 0
      vertex 12.5 -21.6506 0
    endloop
  endfacet
  facet normal 0 0 -1
    outer loop
      vertex 7.72542 -23.7764 0
      vertex 7.72542 23.7764 0
      vertex 12.5 21.6506 0
    endloop
  endfacet
  facet normal 0 0 -1
    outer loop
      vertex 2.61321 -24.863 0
      vertex 7.72542 23.7764 0
      vertex 7.72542 -23.7764 0
    endloop
  endfacet
  facet normal 0 0 -1
    outer loop
      vertex 2.61321 -24.863 0
      vertex 2.61321 24.863 0
      vertex 7.72542 23.7764 0
    endloop
  endfacet
  facet normal 0 0 -1
    outer loop
      vertex -2.61321 -24.863 0
      vertex 2.61321 24.863 0
      vertex 2.61321 -24.863 0
    endloop
  endfacet
  facet normal 0 0 -1
    outer loop
      vertex -2.61321 -24.863 0
      vertex -2.61321 24.863 0
      vertex 2.61321 24.863 0
    endloop
  endfacet
  facet normal 0 0 -1
    outer loop
      vertex -7.72542 -23.7764 0
      vertex -2.61321 24.863 0
      vertex -2.61321 -24.863 0
    endloop
  endfacet
  facet normal 0 0 -1
    outer loop
      vertex -7.72542 -23.7764 0
      vertex -7.72542 23.7764 0
      vertex -2.61321 24.863 0
    endloop
  endfacet
  facet normal 0 0 -1
    outer loop
      vertex -7.72542 -23.7764 0
      vertex -12.5 21.6506 0
      vertex -7.72542 23.7764 0
    endloop
  endfacet
  facet normal 0 0 -1
    outer loop
      vertex -12.5 -21.6506 0
      vertex -12.5 21.6506 0
      vertex -7.72542 -23.7764 0
    endloop
  endfacet
  facet normal 0 0 -1
    outer loop
      vertex -16.7283 -18.5786 0
      vertex -12.5 21.6506 0
      vertex -12.5 -21.6506 0
    endloop
  endfacet
  facet normal 0 0 -1
    outer loop
      vertex -16.7283 -18.5786 0
      vertex -16.7283 18.5786 0
      vertex -12.5 21.6506 0
    endloop
  endfacet
  facet normal 0 0 -1
    outer loop
      vertex -20.2254 -14.6946 0
      vertex -16.7283 18.5786 0
      vertex -16.7283 -18.5786 0
    endloop
  endfacet
  facet normal 0 0 -1
    outer loop
      vertex -20.2254 -14.6946 0
      vertex -20.2254 14.6946 0
      vertex -16.7283 18.5786 0
    endloop
  endfacet
  facet normal 0 0 -1
    outer loop
      vertex -22.8386 -10.1684 0
      vertex -20.2254 14.6946 0
      vertex -20.2254 -14.6946 0
    endloop
  endfacet
  facet normal 0 0 -1
    outer loop
      vertex -22.8386 -10.1684 0
      vertex -22.8386 10.1684 0
      vertex -20.2254 14.6946 0
    endloop
  endfacet
  facet normal 0 0 -1
    outer loop
      vertex -24.4537 -5.19779 0
      vertex -22.8386 10.1684 0
      vertex -22.8386 -10.1684 0
    endloop
  endfacet
  facet normal 0 0 -1
    outer loop
      vertex -24.4537 -5.19779 0
      vertex -24.4537 5.19779 0
      vertex -22.8386 10.1684 0
    endloop
  endfacet
  facet normal 0 -0 -1
    outer loop
      vertex -24.4537 5.19779 0
      vertex -24.4537 -5.19779 0
      vertex -25 0 0
    endloop
  endfacet
  facet normal -0.744239 -0.241818 -0.622602
    outer loop
      vertex -22.8386 -10.1684 0
      vertex -27.1925 -5.77994 3.5
      vertex -24.4537 -5.19779 0
    endloop
  endfacet
  facet normal -0.318287 -0.714885 -0.622602
    outer loop
      vertex -8.59067 -26.4394 3.5
      vertex -12.5 -21.6506 0
      vertex -7.72542 -23.7764 0
    endloop
  endfacet
  facet normal -0.58154 -0.523621 -0.622602
    outer loop
      vertex -18.6018 -20.6594 3.5
      vertex -20.2254 -14.6946 0
      vertex -16.7283 -18.5786 0
    endloop
  endfacet
  facet normal -0.677699 -0.39127 -0.622602
    outer loop
      vertex -22.4907 -16.3404 3.5
      vertex -25.3966 -11.3073 3.5
      vertex -20.2254 -14.6946 0
    endloop
  endfacet
  facet normal 0.58154 0.523621 -0.622602
    outer loop
      vertex 20.2254 14.6946 0
      vertex 18.6018 20.6594 3.5
      vertex 22.4907 16.3404 3.5
    endloop
  endfacet
  facet normal 0.318287 0.714885 -0.622602
    outer loop
      vertex 12.5 21.6506 0
      vertex 8.59067 26.4394 3.5
      vertex 13.9 24.0755 3.5
    endloop
  endfacet
  facet normal 0.162699 0.765438 -0.622602
    outer loop
      vertex 8.59067 26.4394 3.5
      vertex 2.61321 24.863 0
      vertex 2.90589 27.6477 3.5
    endloop
  endfacet
  facet normal 0 0.782539 -0.622602
    outer loop
      vertex 2.61321 24.863 0
      vertex -2.90589 27.6477 3.5
      vertex 2.90589 27.6477 3.5
    endloop
  endfacet
  facet normal 0 0.782539 -0.622602
    outer loop
      vertex -2.90589 27.6477 3.5
      vertex 2.61321 24.863 0
      vertex -2.61321 24.863 0
    endloop
  endfacet
  facet normal -0.162699 0.765438 -0.622602
    outer loop
      vertex -2.61321 24.863 0
      vertex -8.59067 26.4394 3.5
      vertex -2.90589 27.6477 3.5
    endloop
  endfacet
  facet normal -0.744239 0.241818 -0.622602
    outer loop
      vertex -24.4537 5.19779 0
      vertex -27.1925 5.77994 3.5
      vertex -22.8386 10.1684 0
    endloop
  endfacet
  facet normal -0.58154 0.523621 -0.622602
    outer loop
      vertex -20.2254 14.6946 0
      vertex -22.4907 16.3404 3.5
      vertex -18.6018 20.6594 3.5
    endloop
  endfacet
  facet normal -0.58154 0.523621 -0.622602
    outer loop
      vertex -16.7283 18.5786 0
      vertex -20.2254 14.6946 0
      vertex -18.6018 20.6594 3.5
    endloop
  endfacet
  facet normal -0.459965 0.633087 -0.622602
    outer loop
      vertex -12.5 21.6506 0
      vertex -16.7283 18.5786 0
      vertex -13.9 24.0755 3.5
    endloop
  endfacet
  facet normal -0.459965 0.633087 -0.622602
    outer loop
      vertex -16.7283 18.5786 0
      vertex -18.6018 20.6594 3.5
      vertex -13.9 24.0755 3.5
    endloop
  endfacet
  facet normal -0.459965 -0.633087 -0.622602
    outer loop
      vertex -12.5 -21.6506 0
      vertex -18.6018 -20.6594 3.5
      vertex -16.7283 -18.5786 0
    endloop
  endfacet
  facet normal -0.459965 -0.633087 -0.622602
    outer loop
      vertex -13.9 -24.0755 3.5
      vertex -18.6018 -20.6594 3.5
      vertex -12.5 -21.6506 0
    endloop
  endfacet
  facet normal 0.677699 0.39127 -0.622602
    outer loop
      vertex 25.3966 11.3073 3.5
      vertex 20.2254 14.6946 0
      vertex 22.4907 16.3404 3.5
    endloop
  endfacet
  facet normal -0.677699 0.391269 -0.622602
    outer loop
      vertex -22.8386 10.1684 0
      vertex -25.3966 11.3073 3.5
      vertex -20.2254 14.6946 0
    endloop
  endfacet
  facet normal 0.459965 0.633087 -0.622602
    outer loop
      vertex 16.7283 18.5786 0
      vertex 12.5 21.6506 0
      vertex 18.6018 20.6594 3.5
    endloop
  endfacet
  facet normal 0.459965 0.633087 -0.622602
    outer loop
      vertex 18.6018 20.6594 3.5
      vertex 12.5 21.6506 0
      vertex 13.9 24.0755 3.5
    endloop
  endfacet
  facet normal 0.677699 0.391269 -0.622602
    outer loop
      vertex 22.8386 10.1684 0
      vertex 20.2254 14.6946 0
      vertex 25.3966 11.3073 3.5
    endloop
  endfacet
  facet normal 0.162699 0.765439 -0.622602
    outer loop
      vertex 7.72542 23.7764 0
      vertex 2.61321 24.863 0
      vertex 8.59067 26.4394 3.5
    endloop
  endfacet
  facet normal 0.318287 0.714885 -0.622602
    outer loop
      vertex 12.5 21.6506 0
      vertex 7.72542 23.7764 0
      vertex 8.59067 26.4394 3.5
    endloop
  endfacet
  facet normal 0.58154 0.523621 -0.622602
    outer loop
      vertex 20.2254 14.6946 0
      vertex 16.7283 18.5786 0
      vertex 18.6018 20.6594 3.5
    endloop
  endfacet
  facet normal 0.744239 0.241818 -0.622602
    outer loop
      vertex 27.1925 5.77994 3.5
      vertex 22.8386 10.1684 0
      vertex 25.3966 11.3073 3.5
    endloop
  endfacet
  facet normal 0.744239 0.241818 -0.622602
    outer loop
      vertex 24.4537 5.19779 0
      vertex 22.8386 10.1684 0
      vertex 27.1925 5.77994 3.5
    endloop
  endfacet
  facet normal 0.994523 0.104521 0
    outer loop
      vertex 23 4.75718 5
      vertex 22.9865 4.88592 3.5
      vertex 22.9865 4.88592 5
    endloop
  endfacet
  facet normal 0.994523 0.104521 0
    outer loop
      vertex 22.9865 4.88592 3.5
      vertex 23 4.75718 5
      vertex 23 4.75718 3.5
    endloop
  endfacet
  facet normal -0.994522 0.104528 0
    outer loop
      vertex -23.5 0 3.5
      vertex -22.9865 4.88592 5
      vertex -22.9865 4.88592 3.5
    endloop
  endfacet
  facet normal -0.994522 0.104528 0
    outer loop
      vertex -22.9865 4.88592 5
      vertex -23.5 0 3.5
      vertex -23.5 0 5
    endloop
  endfacet
  facet normal 0 1 -0
    outer loop
      vertex 2.45642 23.3713 3.5
      vertex -2.45642 23.3713 9.6
      vertex 2.45642 23.3713 9.6
    endloop
  endfacet
  facet normal 0 1 0
    outer loop
      vertex -2.45642 23.3713 9.6
      vertex 2.45642 23.3713 3.5
      vertex -2.45642 23.3713 3.5
    endloop
  endfacet
  facet normal 0 -1 0
    outer loop
      vertex -2.45642 -23.3713 3.5
      vertex 2.45642 -23.3713 9.6
      vertex -2.45642 -23.3713 9.6
    endloop
  endfacet
  facet normal 0 -1 -0
    outer loop
      vertex 2.45642 -23.3713 9.6
      vertex -2.45642 -23.3713 3.5
      vertex 2.45642 -23.3713 3.5
    endloop
  endfacet
  facet normal 0.587786 0.809017 -0
    outer loop
      vertex 15.7246 17.4639 3.5
      vertex 11.75 20.3516 5
      vertex 15.7246 17.4639 5
    endloop
  endfacet
  facet normal 0.587786 0.809017 0
    outer loop
      vertex 11.75 20.3516 5
      vertex 15.7246 17.4639 3.5
      vertex 11.75 20.3516 3.5
    endloop
  endfacet
  facet normal -0.743144 0.669131 0
    outer loop
      vertex -15.7246 17.4639 3.5
      vertex -16.5084 16.5934 5
      vertex -15.7246 17.4639 5
    endloop
  endfacet
  facet normal -0.743145 0.669131 -5.52468e-007
    outer loop
      vertex -19.0119 13.813 3.5
      vertex -16.5084 16.5934 5
      vertex -15.7246 17.4639 3.5
    endloop
  endfacet
  facet normal -0.743145 0.669131 0
    outer loop
      vertex -19.0119 13.813 9.6
      vertex -16.5084 16.5934 5
      vertex -19.0119 13.813 3.5
    endloop
  endfacet
  facet normal -0.743145 0.669131 0
    outer loop
      vertex -16.5084 16.5934 5
      vertex -19.0119 13.813 9.6
      vertex -16.5084 16.5934 9.6
    endloop
  endfacet
  facet normal -0.866025 0.5 -2.70789e-007
    outer loop
      vertex -21.4683 9.55831 3.5
      vertex -19.0119 13.813 9.6
      vertex -19.0119 13.813 3.5
    endloop
  endfacet
  facet normal -0.866025 0.5 0
    outer loop
      vertex -19.0119 13.813 9.6
      vertex -21.4683 9.55831 3.5
      vertex -21.4683 9.55831 9.6
    endloop
  endfacet
  facet normal -0.406736 0.913546 0
    outer loop
      vertex -7.2619 22.3498 3.5
      vertex -11.75 20.3516 5
      vertex -7.2619 22.3498 5
    endloop
  endfacet
  facet normal -0.406736 0.913546 0
    outer loop
      vertex -11.75 20.3516 5
      vertex -7.2619 22.3498 3.5
      vertex -11.75 20.3516 3.5
    endloop
  endfacet
  facet normal 0.866025 0.5 0
    outer loop
      vertex 21.4683 9.55831 9.6
      vertex 19.0119 13.813 3.5
      vertex 19.0119 13.813 9.6
    endloop
  endfacet
  facet normal 0.866025 0.5 2.70789e-007
    outer loop
      vertex 19.0119 13.813 3.5
      vertex 21.4683 9.55831 9.6
      vertex 21.4683 9.55831 3.5
    endloop
  endfacet
  facet normal 0.951057 0.309017 -0
    outer loop
      vertex 22.6245 6 5
      vertex 21.4683 9.55831 9.6
      vertex 22.6245 6 9.6
    endloop
  endfacet
  facet normal 0.951057 0.309017 0
    outer loop
      vertex 21.4683 9.55831 9.6
      vertex 22.6245 6 5
      vertex 21.4683 9.55831 3.5
    endloop
  endfacet
  facet normal 0.951056 0.309018 -0
    outer loop
      vertex 22.9865 4.88592 3.5
      vertex 22.6245 6 5
      vertex 22.9865 4.88592 5
    endloop
  endfacet
  facet normal 0.951057 0.309017 6.50991e-007
    outer loop
      vertex 22.6245 6 5
      vertex 22.9865 4.88592 3.5
      vertex 21.4683 9.55831 3.5
    endloop
  endfacet
  facet normal 0.743145 0.669131 0
    outer loop
      vertex 16.5084 16.5934 9.6
      vertex 19.0119 13.813 9.6
      vertex 16.5084 16.5934 5
    endloop
  endfacet
  facet normal 0.743144 0.669131 0
    outer loop
      vertex 16.5084 16.5934 5
      vertex 15.7246 17.4639 3.5
      vertex 15.7246 17.4639 5
    endloop
  endfacet
  facet normal 0.743145 0.669131 -0
    outer loop
      vertex 19.0119 13.813 3.5
      vertex 16.5084 16.5934 5
      vertex 19.0119 13.813 9.6
    endloop
  endfacet
  facet normal 0.743145 0.669131 -5.52468e-007
    outer loop
      vertex 16.5084 16.5934 5
      vertex 19.0119 13.813 3.5
      vertex 15.7246 17.4639 3.5
    endloop
  endfacet
  facet normal 0.207913 0.978147 0
    outer loop
      vertex 7.2619 22.3498 5
      vertex 7.2619 22.3498 3.5
      vertex 6.11609 22.5934 5
    endloop
  endfacet
  facet normal 0.207912 0.978148 -0
    outer loop
      vertex 6.11609 22.5934 5
      vertex 2.45642 23.3713 9.6
      vertex 6.11609 22.5934 9.6
    endloop
  endfacet
  facet normal 0.207912 0.978148 -9.10654e-007
    outer loop
      vertex 2.45642 23.3713 3.5
      vertex 6.11609 22.5934 5
      vertex 7.2619 22.3498 3.5
    endloop
  endfacet
  facet normal 0.207912 0.978148 0
    outer loop
      vertex 6.11609 22.5934 5
      vertex 2.45642 23.3713 3.5
      vertex 2.45642 23.3713 9.6
    endloop
  endfacet
  facet normal 0.406736 0.913546 -0
    outer loop
      vertex 11.75 20.3516 3.5
      vertex 7.2619 22.3498 5
      vertex 11.75 20.3516 5
    endloop
  endfacet
  facet normal 0.406736 0.913546 0
    outer loop
      vertex 7.2619 22.3498 5
      vertex 11.75 20.3516 3.5
      vertex 7.2619 22.3498 3.5
    endloop
  endfacet
  facet normal -0.951057 0.309017 0
    outer loop
      vertex -21.4683 9.55831 3.5
      vertex -22.6245 6 5
      vertex -21.4683 9.55831 9.6
    endloop
  endfacet
  facet normal -0.951057 0.309017 6.50991e-007
    outer loop
      vertex -22.9865 4.88592 3.5
      vertex -22.6245 6 5
      vertex -21.4683 9.55831 3.5
    endloop
  endfacet
  facet normal -0.951056 0.309018 0
    outer loop
      vertex -22.6245 6 5
      vertex -22.9865 4.88592 3.5
      vertex -22.9865 4.88592 5
    endloop
  endfacet
  facet normal -0.951057 0.309017 0
    outer loop
      vertex -21.4683 9.55831 9.6
      vertex -22.6245 6 5
      vertex -22.6245 6 9.6
    endloop
  endfacet
  facet normal -0.587785 0.809017 0
    outer loop
      vertex -11.75 20.3516 3.5
      vertex -15.7246 17.4639 5
      vertex -11.75 20.3516 5
    endloop
  endfacet
  facet normal -0.587785 0.809017 0
    outer loop
      vertex -15.7246 17.4639 5
      vertex -11.75 20.3516 3.5
      vertex -15.7246 17.4639 3.5
    endloop
  endfacet
  facet normal -0.207911 0.978148 0
    outer loop
      vertex -2.45642 23.3713 9.6
      vertex -6.11609 22.5934 5
      vertex -6.11609 22.5934 9.6
    endloop
  endfacet
  facet normal -0.207912 0.978148 3.05847e-007
    outer loop
      vertex -2.45642 23.3713 3.5
      vertex -6.11609 22.5934 5
      vertex -2.45642 23.3713 9.6
    endloop
  endfacet
  facet normal -0.207912 0.978148 -9.10654e-007
    outer loop
      vertex -7.2619 22.3498 3.5
      vertex -6.11609 22.5934 5
      vertex -2.45642 23.3713 3.5
    endloop
  endfacet
  facet normal -0.207913 0.978147 0
    outer loop
      vertex -6.11609 22.5934 5
      vertex -7.2619 22.3498 3.5
      vertex -7.2619 22.3498 5
    endloop
  endfacet
  facet normal 0.994523 -0.104521 0
    outer loop
      vertex 22.9865 -4.88592 5
      vertex 23 -4.75718 3.5
      vertex 23 -4.75718 5
    endloop
  endfacet
  facet normal 0.994523 -0.104521 0
    outer loop
      vertex 23 -4.75718 3.5
      vertex 22.9865 -4.88592 5
      vertex 22.9865 -4.88592 3.5
    endloop
  endfacet
  facet normal 0.743145 -0.669131 0
    outer loop
      vertex 16.5084 -16.5934 5
      vertex 19.0119 -13.813 9.6
      vertex 16.5084 -16.5934 9.6
    endloop
  endfacet
  facet normal 0.743145 -0.669131 0
    outer loop
      vertex 19.0119 -13.813 9.6
      vertex 16.5084 -16.5934 5
      vertex 19.0119 -13.813 3.5
    endloop
  endfacet
  facet normal 0.743144 -0.669131 0
    outer loop
      vertex 15.7246 -17.4639 3.5
      vertex 16.5084 -16.5934 5
      vertex 15.7246 -17.4639 5
    endloop
  endfacet
  facet normal 0.743145 -0.669131 -5.52468e-007
    outer loop
      vertex 16.5084 -16.5934 5
      vertex 15.7246 -17.4639 3.5
      vertex 19.0119 -13.813 3.5
    endloop
  endfacet
  facet normal 0.951057 -0.309017 0
    outer loop
      vertex 22.6245 -6 9.6
      vertex 21.4683 -9.55831 9.6
      vertex 22.6245 -6 5
    endloop
  endfacet
  facet normal 0.951056 -0.309018 0
    outer loop
      vertex 22.6245 -6 5
      vertex 22.9865 -4.88592 3.5
      vertex 22.9865 -4.88592 5
    endloop
  endfacet
  facet normal 0.951057 -0.309017 0
    outer loop
      vertex 21.4683 -9.55831 3.5
      vertex 22.6245 -6 5
      vertex 21.4683 -9.55831 9.6
    endloop
  endfacet
  facet normal 0.951057 -0.309017 6.50991e-007
    outer loop
      vertex 22.6245 -6 5
      vertex 21.4683 -9.55831 3.5
      vertex 22.9865 -4.88592 3.5
    endloop
  endfacet
  facet normal 0.866025 -0.5 0
    outer loop
      vertex 19.0119 -13.813 9.6
      vertex 21.4683 -9.55831 3.5
      vertex 21.4683 -9.55831 9.6
    endloop
  endfacet
  facet normal 0.866025 -0.5 -2.70789e-007
    outer loop
      vertex 21.4683 -9.55831 3.5
      vertex 19.0119 -13.813 9.6
      vertex 19.0119 -13.813 3.5
    endloop
  endfacet
  facet normal -0.866025 -0.5 2.70789e-007
    outer loop
      vertex -19.0119 -13.813 3.5
      vertex -21.4683 -9.55831 9.6
      vertex -21.4683 -9.55831 3.5
    endloop
  endfacet
  facet normal -0.866025 -0.5 0
    outer loop
      vertex -21.4683 -9.55831 9.6
      vertex -19.0119 -13.813 3.5
      vertex -19.0119 -13.813 9.6
    endloop
  endfacet
  facet normal -0.994522 -0.104528 0
    outer loop
      vertex -22.9865 -4.88592 3.5
      vertex -23.5 0 5
      vertex -23.5 0 3.5
    endloop
  endfacet
  facet normal -0.994522 -0.104528 0
    outer loop
      vertex -23.5 0 5
      vertex -22.9865 -4.88592 3.5
      vertex -22.9865 -4.88592 5
    endloop
  endfacet
  facet normal 0.207911 -0.978148 0
    outer loop
      vertex 2.45642 -23.3713 9.6
      vertex 6.11609 -22.5934 5
      vertex 6.11609 -22.5934 9.6
    endloop
  endfacet
  facet normal 0.207912 -0.978148 3.05847e-007
    outer loop
      vertex 2.45642 -23.3713 3.5
      vertex 6.11609 -22.5934 5
      vertex 2.45642 -23.3713 9.6
    endloop
  endfacet
  facet normal 0.207912 -0.978148 -9.10654e-007
    outer loop
      vertex 7.2619 -22.3498 3.5
      vertex 6.11609 -22.5934 5
      vertex 2.45642 -23.3713 3.5
    endloop
  endfacet
  facet normal 0.207913 -0.978147 0
    outer loop
      vertex 6.11609 -22.5934 5
      vertex 7.2619 -22.3498 3.5
      vertex 7.2619 -22.3498 5
    endloop
  endfacet
  facet normal 0.587786 -0.809017 0
    outer loop
      vertex 11.75 -20.3516 3.5
      vertex 15.7246 -17.4639 5
      vertex 11.75 -20.3516 5
    endloop
  endfacet
  facet normal 0.587786 -0.809017 0
    outer loop
      vertex 15.7246 -17.4639 5
      vertex 11.75 -20.3516 3.5
      vertex 15.7246 -17.4639 3.5
    endloop
  endfacet
  facet normal -0.406736 -0.913546 0
    outer loop
      vertex -11.75 -20.3516 3.5
      vertex -7.2619 -22.3498 5
      vertex -11.75 -20.3516 5
    endloop
  endfacet
  facet normal -0.406736 -0.913546 -0
    outer loop
      vertex -7.2619 -22.3498 5
      vertex -11.75 -20.3516 3.5
      vertex -7.2619 -22.3498 3.5
    endloop
  endfacet
  facet normal -0.743145 -0.669131 0
    outer loop
      vertex -19.0119 -13.813 3.5
      vertex -16.5084 -16.5934 5
      vertex -19.0119 -13.813 9.6
    endloop
  endfacet
  facet normal -0.743145 -0.669131 -5.52468e-007
    outer loop
      vertex -15.7246 -17.4639 3.5
      vertex -16.5084 -16.5934 5
      vertex -19.0119 -13.813 3.5
    endloop
  endfacet
  facet normal -0.743144 -0.669131 0
    outer loop
      vertex -16.5084 -16.5934 5
      vertex -15.7246 -17.4639 3.5
      vertex -15.7246 -17.4639 5
    endloop
  endfacet
  facet normal -0.743145 -0.669131 0
    outer loop
      vertex -19.0119 -13.813 9.6
      vertex -16.5084 -16.5934 5
      vertex -16.5084 -16.5934 9.6
    endloop
  endfacet
  facet normal -0.951056 -0.309018 0
    outer loop
      vertex -22.9865 -4.88592 3.5
      vertex -22.6245 -6 5
      vertex -22.9865 -4.88592 5
    endloop
  endfacet
  facet normal -0.951057 -0.309017 6.50991e-007
    outer loop
      vertex -21.4683 -9.55831 3.5
      vertex -22.6245 -6 5
      vertex -22.9865 -4.88592 3.5
    endloop
  endfacet
  facet normal -0.951057 -0.309017 -0
    outer loop
      vertex -21.4683 -9.55831 9.6
      vertex -22.6245 -6 5
      vertex -21.4683 -9.55831 3.5
    endloop
  endfacet
  facet normal -0.951057 -0.309017 0
    outer loop
      vertex -22.6245 -6 5
      vertex -21.4683 -9.55831 9.6
      vertex -22.6245 -6 9.6
    endloop
  endfacet
  facet normal 0.406736 -0.913546 0
    outer loop
      vertex 7.2619 -22.3498 3.5
      vertex 11.75 -20.3516 5
      vertex 7.2619 -22.3498 5
    endloop
  endfacet
  facet normal 0.406736 -0.913546 0
    outer loop
      vertex 11.75 -20.3516 5
      vertex 7.2619 -22.3498 3.5
      vertex 11.75 -20.3516 3.5
    endloop
  endfacet
  facet normal -0.587786 -0.809017 0
    outer loop
      vertex -15.7246 -17.4639 3.5
      vertex -11.75 -20.3516 5
      vertex -15.7246 -17.4639 5
    endloop
  endfacet
  facet normal -0.587786 -0.809017 -0
    outer loop
      vertex -11.75 -20.3516 5
      vertex -15.7246 -17.4639 3.5
      vertex -11.75 -20.3516 3.5
    endloop
  endfacet
  facet normal -0.207913 -0.978147 -0
    outer loop
      vertex -7.2619 -22.3498 5
      vertex -7.2619 -22.3498 3.5
      vertex -6.11609 -22.5934 5
    endloop
  endfacet
  facet normal -0.207912 -0.978148 0
    outer loop
      vertex -6.11609 -22.5934 5
      vertex -2.45642 -23.3713 9.6
      vertex -6.11609 -22.5934 9.6
    endloop
  endfacet
  facet normal -0.207912 -0.978148 -9.10654e-007
    outer loop
      vertex -2.45642 -23.3713 3.5
      vertex -6.11609 -22.5934 5
      vertex -7.2619 -22.3498 3.5
    endloop
  endfacet
  facet normal -0.207912 -0.978148 0
    outer loop
      vertex -6.11609 -22.5934 5
      vertex -2.45642 -23.3713 3.5
      vertex -2.45642 -23.3713 9.6
    endloop
  endfacet
  facet normal -0.17658 0.830743 0.527906
    outer loop
      vertex -2.61321 24.863 12
      vertex -6.08341 22.5368 14.5
      vertex -2.44988 23.3091 14.5
    endloop
  endfacet
  facet normal -0.17658 0.830743 0.527907
    outer loop
      vertex -6.08341 22.5368 14.5
      vertex -2.61321 24.863 12
      vertex -6.90037 23.9518 12
    endloop
  endfacet
  facet normal 0 -0.849303 0.527906
    outer loop
      vertex -2.61321 -24.863 12
      vertex 2.44988 -23.3091 14.5
      vertex -2.44988 -23.3091 14.5
    endloop
  endfacet
  facet normal 0 -0.849303 0.527906
    outer loop
      vertex 2.44988 -23.3091 14.5
      vertex -2.61321 -24.863 12
      vertex 2.61321 -24.863 12
    endloop
  endfacet
  facet normal -0.735518 0.424651 0.527906
    outer loop
      vertex -22.8386 10.1684 12
      vertex -18.9613 13.7762 14.5
      vertex -20.2254 14.6946 12
    endloop
  endfacet
  facet normal -0.735518 0.424651 0.527906
    outer loop
      vertex -18.9613 13.7762 14.5
      vertex -22.8386 10.1684 12
      vertex -21.4112 9.53289 14.5
    endloop
  endfacet
  facet normal -0.631155 -0.568294 0.527906
    outer loop
      vertex -20.2254 -14.6946 12
      vertex -16.4757 -16.5368 14.5
      vertex -18.9613 -13.7762 14.5
    endloop
  endfacet
  facet normal -0.631155 -0.568294 0.527906
    outer loop
      vertex -16.4757 -16.5368 14.5
      vertex -20.2254 -14.6946 12
      vertex -17.2927 -17.9518 12
    endloop
  endfacet
  facet normal 0.631155 -0.568294 0.527906
    outer loop
      vertex 16.4757 -16.5368 14.5
      vertex 20.2254 -14.6946 12
      vertex 18.9613 -13.7762 14.5
    endloop
  endfacet
  facet normal 0.631155 -0.568294 0.527906
    outer loop
      vertex 20.2254 -14.6946 12
      vertex 16.4757 -16.5368 14.5
      vertex 17.2927 -17.9518 12
    endloop
  endfacet
  facet normal -0.807735 0.262449 0.527906
    outer loop
      vertex -24.193 6 12
      vertex -21.4112 9.53289 14.5
      vertex -22.8386 10.1684 12
    endloop
  endfacet
  facet normal -0.807735 0.262448 0.527907
    outer loop
      vertex -21.4112 9.53289 14.5
      vertex -24.193 6 12
      vertex -22.5591 6 14.5
    endloop
  endfacet
  facet normal 0 0.849303 0.527906
    outer loop
      vertex 2.61321 24.863 12
      vertex -2.44988 23.3091 14.5
      vertex 2.44988 23.3091 14.5
    endloop
  endfacet
  facet normal 0 0.849303 0.527906
    outer loop
      vertex -2.44988 23.3091 14.5
      vertex 2.61321 24.863 12
      vertex -2.61321 24.863 12
    endloop
  endfacet
  facet normal 0.631155 0.568294 0.527906
    outer loop
      vertex 16.4757 16.5368 14.5
      vertex 20.2254 14.6946 12
      vertex 17.2927 17.9518 12
    endloop
  endfacet
  facet normal 0.631155 0.568294 0.527906
    outer loop
      vertex 20.2254 14.6946 12
      vertex 16.4757 16.5368 14.5
      vertex 18.9613 13.7762 14.5
    endloop
  endfacet
  facet normal -0.735518 -0.424651 0.527906
    outer loop
      vertex -22.8386 -10.1684 12
      vertex -18.9613 -13.7762 14.5
      vertex -21.4112 -9.53289 14.5
    endloop
  endfacet
  facet normal -0.735518 -0.424651 0.527906
    outer loop
      vertex -18.9613 -13.7762 14.5
      vertex -22.8386 -10.1684 12
      vertex -20.2254 -14.6946 12
    endloop
  endfacet
  facet normal 0.807735 -0.262448 0.527907
    outer loop
      vertex 21.4112 -9.53289 14.5
      vertex 24.193 -6 12
      vertex 22.5591 -6 14.5
    endloop
  endfacet
  facet normal 0.807735 -0.262449 0.527906
    outer loop
      vertex 24.193 -6 12
      vertex 21.4112 -9.53289 14.5
      vertex 22.8386 -10.1684 12
    endloop
  endfacet
  facet normal -0.631155 0.568294 0.527906
    outer loop
      vertex -20.2254 14.6946 12
      vertex -16.4757 16.5368 14.5
      vertex -17.2927 17.9518 12
    endloop
  endfacet
  facet normal -0.631155 0.568294 0.527906
    outer loop
      vertex -16.4757 16.5368 14.5
      vertex -20.2254 14.6946 12
      vertex -18.9613 13.7762 14.5
    endloop
  endfacet
  facet normal 0.17658 0.830743 0.527907
    outer loop
      vertex 2.61321 24.863 12
      vertex 6.08341 22.5368 14.5
      vertex 6.90037 23.9518 12
    endloop
  endfacet
  facet normal 0.17658 0.830743 0.527906
    outer loop
      vertex 6.08341 22.5368 14.5
      vertex 2.61321 24.863 12
      vertex 2.44988 23.3091 14.5
    endloop
  endfacet
  facet normal 0.735518 0.424651 0.527906
    outer loop
      vertex 18.9613 13.7762 14.5
      vertex 22.8386 10.1684 12
      vertex 20.2254 14.6946 12
    endloop
  endfacet
  facet normal 0.735518 0.424651 0.527906
    outer loop
      vertex 22.8386 10.1684 12
      vertex 18.9613 13.7762 14.5
      vertex 21.4112 9.53289 14.5
    endloop
  endfacet
  facet normal 0.807735 0.262448 0.527907
    outer loop
      vertex 24.193 6 12
      vertex 21.4112 9.53289 14.5
      vertex 22.5591 6 14.5
    endloop
  endfacet
  facet normal 0.807735 0.262449 0.527906
    outer loop
      vertex 21.4112 9.53289 14.5
      vertex 24.193 6 12
      vertex 22.8386 10.1684 12
    endloop
  endfacet
  facet normal -0.807735 -0.262448 0.527907
    outer loop
      vertex -24.193 -6 12
      vertex -21.4112 -9.53289 14.5
      vertex -22.5591 -6 14.5
    endloop
  endfacet
  facet normal -0.807735 -0.262449 0.527906
    outer loop
      vertex -21.4112 -9.53289 14.5
      vertex -24.193 -6 12
      vertex -22.8386 -10.1684 12
    endloop
  endfacet
  facet normal -0.17658 -0.830743 0.527907
    outer loop
      vertex -2.61321 -24.863 12
      vertex -6.08341 -22.5368 14.5
      vertex -6.90037 -23.9518 12
    endloop
  endfacet
  facet normal -0.17658 -0.830743 0.527906
    outer loop
      vertex -6.08341 -22.5368 14.5
      vertex -2.61321 -24.863 12
      vertex -2.44988 -23.3091 14.5
    endloop
  endfacet
  facet normal 0.17658 -0.830743 0.527906
    outer loop
      vertex 2.61321 -24.863 12
      vertex 6.08341 -22.5368 14.5
      vertex 2.44988 -23.3091 14.5
    endloop
  endfacet
  facet normal 0.17658 -0.830743 0.527907
    outer loop
      vertex 6.08341 -22.5368 14.5
      vertex 2.61321 -24.863 12
      vertex 6.90037 -23.9518 12
    endloop
  endfacet
  facet normal 0.735518 -0.424651 0.527906
    outer loop
      vertex 18.9613 -13.7762 14.5
      vertex 22.8386 -10.1684 12
      vertex 21.4112 -9.53289 14.5
    endloop
  endfacet
  facet normal 0.735518 -0.424651 0.527906
    outer loop
      vertex 22.8386 -10.1684 12
      vertex 18.9613 -13.7762 14.5
      vertex 20.2254 -14.6946 12
    endloop
  endfacet
  facet normal 0 0.849302 -0.527907
    outer loop
      vertex 2.45642 23.3713 9.6
      vertex -2.61321 24.863 12
      vertex 2.61321 24.863 12
    endloop
  endfacet
  facet normal 3.29731e-007 0.849303 -0.527906
    outer loop
      vertex -2.61321 24.863 12
      vertex 2.45642 23.3713 9.6
      vertex -2.45642 23.3713 9.6
    endloop
  endfacet
  facet normal -0.17658 -0.830743 -0.527906
    outer loop
      vertex -6.11609 -22.5934 9.6
      vertex -2.61321 -24.863 12
      vertex -6.90037 -23.9518 12
    endloop
  endfacet
  facet normal -0.176579 -0.830743 -0.527907
    outer loop
      vertex -2.61321 -24.863 12
      vertex -6.11609 -22.5934 9.6
      vertex -2.45642 -23.3713 9.6
    endloop
  endfacet
  facet normal -0.631155 0.568294 -0.527906
    outer loop
      vertex -16.5084 16.5934 9.6
      vertex -20.2254 14.6946 12
      vertex -17.2927 17.9518 12
    endloop
  endfacet
  facet normal -0.631155 0.568294 -0.527907
    outer loop
      vertex -20.2254 14.6946 12
      vertex -16.5084 16.5934 9.6
      vertex -19.0119 13.813 9.6
    endloop
  endfacet
  facet normal -0.735518 -0.424651 -0.527907
    outer loop
      vertex -19.0119 -13.813 9.6
      vertex -22.8386 -10.1684 12
      vertex -21.4683 -9.55831 9.6
    endloop
  endfacet
  facet normal -0.735518 -0.424651 -0.527906
    outer loop
      vertex -22.8386 -10.1684 12
      vertex -19.0119 -13.813 9.6
      vertex -20.2254 -14.6946 12
    endloop
  endfacet
  facet normal -0.735518 0.424651 -0.527906
    outer loop
      vertex -19.0119 13.813 9.6
      vertex -22.8386 10.1684 12
      vertex -20.2254 14.6946 12
    endloop
  endfacet
  facet normal -0.735518 0.424651 -0.527907
    outer loop
      vertex -22.8386 10.1684 12
      vertex -19.0119 13.813 9.6
      vertex -21.4683 9.55831 9.6
    endloop
  endfacet
  facet normal 0.17658 0.830743 -0.527906
    outer loop
      vertex 6.11609 22.5934 9.6
      vertex 2.61321 24.863 12
      vertex 6.90037 23.9518 12
    endloop
  endfacet
  facet normal 0.176579 0.830743 -0.527907
    outer loop
      vertex 2.61321 24.863 12
      vertex 6.11609 22.5934 9.6
      vertex 2.45642 23.3713 9.6
    endloop
  endfacet
  facet normal 0.735518 0.424651 -0.527906
    outer loop
      vertex 22.8386 10.1684 12
      vertex 19.0119 13.813 9.6
      vertex 20.2254 14.6946 12
    endloop
  endfacet
  facet normal 0.735518 0.424651 -0.527907
    outer loop
      vertex 19.0119 13.813 9.6
      vertex 22.8386 10.1684 12
      vertex 21.4683 9.55831 9.6
    endloop
  endfacet
  facet normal 0.735518 -0.424651 -0.527907
    outer loop
      vertex 22.8386 -10.1684 12
      vertex 19.0119 -13.813 9.6
      vertex 21.4683 -9.55831 9.6
    endloop
  endfacet
  facet normal 0.735518 -0.424651 -0.527906
    outer loop
      vertex 19.0119 -13.813 9.6
      vertex 22.8386 -10.1684 12
      vertex 20.2254 -14.6946 12
    endloop
  endfacet
  facet normal 0.176579 -0.830743 -0.527907
    outer loop
      vertex 6.11609 -22.5934 9.6
      vertex 2.61321 -24.863 12
      vertex 2.45642 -23.3713 9.6
    endloop
  endfacet
  facet normal 0.17658 -0.830743 -0.527906
    outer loop
      vertex 2.61321 -24.863 12
      vertex 6.11609 -22.5934 9.6
      vertex 6.90037 -23.9518 12
    endloop
  endfacet
  facet normal -0.807735 -0.262449 -0.527907
    outer loop
      vertex -21.4683 -9.55831 9.6
      vertex -24.193 -6 12
      vertex -22.6245 -6 9.6
    endloop
  endfacet
  facet normal -0.807735 -0.262449 -0.527906
    outer loop
      vertex -24.193 -6 12
      vertex -21.4683 -9.55831 9.6
      vertex -22.8386 -10.1684 12
    endloop
  endfacet
  facet normal -0.807735 0.262449 -0.527906
    outer loop
      vertex -24.193 6 12
      vertex -21.4683 9.55831 9.6
      vertex -22.6245 6 9.6
    endloop
  endfacet
  facet normal -0.807735 0.262449 -0.527907
    outer loop
      vertex -21.4683 9.55831 9.6
      vertex -24.193 6 12
      vertex -22.8386 10.1684 12
    endloop
  endfacet
  facet normal -0.176579 0.830743 -0.527907
    outer loop
      vertex -6.11609 22.5934 9.6
      vertex -2.61321 24.863 12
      vertex -2.45642 23.3713 9.6
    endloop
  endfacet
  facet normal -0.17658 0.830743 -0.527906
    outer loop
      vertex -2.61321 24.863 12
      vertex -6.11609 22.5934 9.6
      vertex -6.90037 23.9518 12
    endloop
  endfacet
  facet normal 0.631155 0.568294 -0.527906
    outer loop
      vertex 20.2254 14.6946 12
      vertex 16.5084 16.5934 9.6
      vertex 17.2927 17.9518 12
    endloop
  endfacet
  facet normal 0.631155 0.568295 -0.527906
    outer loop
      vertex 16.5084 16.5934 9.6
      vertex 20.2254 14.6946 12
      vertex 19.0119 13.813 9.6
    endloop
  endfacet
  facet normal 0.807735 0.262449 -0.527907
    outer loop
      vertex 24.193 6 12
      vertex 21.4683 9.55831 9.6
      vertex 22.8386 10.1684 12
    endloop
  endfacet
  facet normal 0.807735 0.262449 -0.527906
    outer loop
      vertex 21.4683 9.55831 9.6
      vertex 24.193 6 12
      vertex 22.6245 6 9.6
    endloop
  endfacet
  facet normal 0.807735 -0.262449 -0.527906
    outer loop
      vertex 24.193 -6 12
      vertex 21.4683 -9.55831 9.6
      vertex 22.6245 -6 9.6
    endloop
  endfacet
  facet normal 0.807735 -0.262449 -0.527907
    outer loop
      vertex 21.4683 -9.55831 9.6
      vertex 24.193 -6 12
      vertex 22.8386 -10.1684 12
    endloop
  endfacet
  facet normal 0.631155 -0.568294 -0.527907
    outer loop
      vertex 20.2254 -14.6946 12
      vertex 16.5084 -16.5934 9.6
      vertex 19.0119 -13.813 9.6
    endloop
  endfacet
  facet normal 0.631155 -0.568294 -0.527906
    outer loop
      vertex 16.5084 -16.5934 9.6
      vertex 20.2254 -14.6946 12
      vertex 17.2927 -17.9518 12
    endloop
  endfacet
  facet normal 0 -0.849302 -0.527907
    outer loop
      vertex -2.45642 -23.3713 9.6
      vertex 2.61321 -24.863 12
      vertex -2.61321 -24.863 12
    endloop
  endfacet
  facet normal -3.29731e-007 -0.849303 -0.527906
    outer loop
      vertex 2.61321 -24.863 12
      vertex -2.45642 -23.3713 9.6
      vertex 2.45642 -23.3713 9.6
    endloop
  endfacet
  facet normal -0.631155 -0.568295 -0.527906
    outer loop
      vertex -16.5084 -16.5934 9.6
      vertex -20.2254 -14.6946 12
      vertex -19.0119 -13.813 9.6
    endloop
  endfacet
  facet normal -0.631155 -0.568294 -0.527906
    outer loop
      vertex -20.2254 -14.6946 12
      vertex -16.5084 -16.5934 9.6
      vertex -17.2927 -17.9518 12
    endloop
  endfacet
  facet normal 0 -1 0
    outer loop
      vertex -22.6245 6 9.6
      vertex -22.5591 6 14.5
      vertex -24.193 6 12
    endloop
  endfacet
  facet normal 0 -1 -0
    outer loop
      vertex -22.5591 6 14.5
      vertex -22.6245 6 9.6
      vertex -20.0102 6 14.5
    endloop
  endfacet
  facet normal 0 -1 0
    outer loop
      vertex -20.0102 6 5
      vertex -22.6245 6 9.6
      vertex -22.6245 6 5
    endloop
  endfacet
  facet normal 0 -1 0
    outer loop
      vertex -22.6245 6 9.6
      vertex -20.0102 6 5
      vertex -20.0102 6 14.5
    endloop
  endfacet
  facet normal 0 -1 0
    outer loop
      vertex 22.6245 6 9.6
      vertex 22.5591 6 14.5
      vertex 20.0102 6 14.5
    endloop
  endfacet
  facet normal 0 -1 0
    outer loop
      vertex 22.5591 6 14.5
      vertex 22.6245 6 9.6
      vertex 24.193 6 12
    endloop
  endfacet
  facet normal 0 -1 0
    outer loop
      vertex 20.0102 6 5
      vertex 22.6245 6 9.6
      vertex 20.0102 6 14.5
    endloop
  endfacet
  facet normal 0 -1 -0
    outer loop
      vertex 22.6245 6 9.6
      vertex 20.0102 6 5
      vertex 22.6245 6 5
    endloop
  endfacet
  facet normal -0 0 1
    outer loop
      vertex -22.9865 4.88592 5
      vertex -20.5411 4.36615 5
      vertex -22.6245 6 5
    endloop
  endfacet
  facet normal -0 0 1
    outer loop
      vertex -22.6245 6 5
      vertex -20.5411 4.36615 5
      vertex -20.0102 6 5
    endloop
  endfacet
  facet normal 0 0 1
    outer loop
      vertex -20.5411 4.36615 5
      vertex -22.9865 4.88592 5
      vertex -21 0 5
    endloop
  endfacet
  facet normal 0 0 1
    outer loop
      vertex -20.5411 -4.36615 5
      vertex -22.6245 -6 5
      vertex -20.0102 -6 5
    endloop
  endfacet
  facet normal 0 0 1
    outer loop
      vertex -23.5 0 5
      vertex -21 0 5
      vertex -22.9865 4.88592 5
    endloop
  endfacet
  facet normal 0 0 1
    outer loop
      vertex -21 0 5
      vertex -23.5 0 5
      vertex -20.5411 -4.36615 5
    endloop
  endfacet
  facet normal 0 -0 1
    outer loop
      vertex -22.9865 -4.88592 5
      vertex -20.5411 -4.36615 5
      vertex -23.5 0 5
    endloop
  endfacet
  facet normal 0 0 1
    outer loop
      vertex -20.5411 -4.36615 5
      vertex -22.9865 -4.88592 5
      vertex -22.6245 -6 5
    endloop
  endfacet
  facet normal 0 0 1
    outer loop
      vertex -6.48936 -19.9722 5
      vertex -6.11609 -22.5934 5
      vertex -4.80896 -20.3294 5
    endloop
  endfacet
  facet normal 0 0 1
    outer loop
      vertex -6.48936 -19.9722 5
      vertex -7.2619 -22.3498 5
      vertex -6.11609 -22.5934 5
    endloop
  endfacet
  facet normal 0 0 1
    outer loop
      vertex -10.5 -18.1865 5
      vertex -7.2619 -22.3498 5
      vertex -6.48936 -19.9722 5
    endloop
  endfacet
  facet normal 0 0 1
    outer loop
      vertex -10.5 -18.1865 5
      vertex -11.75 -20.3516 5
      vertex -7.2619 -22.3498 5
    endloop
  endfacet
  facet normal 0 0 1
    outer loop
      vertex -14.0517 -15.606 5
      vertex -11.75 -20.3516 5
      vertex -10.5 -18.1865 5
    endloop
  endfacet
  facet normal 0 0 1
    outer loop
      vertex -16.5084 -16.5934 5
      vertex -14.0517 -15.606 5
      vertex -15.2013 -14.3294 5
    endloop
  endfacet
  facet normal 0 0 1
    outer loop
      vertex -14.0517 -15.606 5
      vertex -15.7246 -17.4639 5
      vertex -11.75 -20.3516 5
    endloop
  endfacet
  facet normal 0 0 1
    outer loop
      vertex -14.0517 -15.606 5
      vertex -16.5084 -16.5934 5
      vertex -15.7246 -17.4639 5
    endloop
  endfacet
  facet normal 0 0 1
    outer loop
      vertex -6.11609 22.5934 5
      vertex -6.48936 19.9722 5
      vertex -4.80896 20.3294 5
    endloop
  endfacet
  facet normal -0 0 1
    outer loop
      vertex -7.2619 22.3498 5
      vertex -6.48936 19.9722 5
      vertex -6.11609 22.5934 5
    endloop
  endfacet
  facet normal 0 0 1
    outer loop
      vertex -7.2619 22.3498 5
      vertex -10.5 18.1865 5
      vertex -6.48936 19.9722 5
    endloop
  endfacet
  facet normal -0 0 1
    outer loop
      vertex -11.75 20.3516 5
      vertex -10.5 18.1865 5
      vertex -7.2619 22.3498 5
    endloop
  endfacet
  facet normal 0 0 1
    outer loop
      vertex -11.75 20.3516 5
      vertex -14.0517 15.606 5
      vertex -10.5 18.1865 5
    endloop
  endfacet
  facet normal -0 0 1
    outer loop
      vertex -15.7246 17.4639 5
      vertex -14.0517 15.606 5
      vertex -11.75 20.3516 5
    endloop
  endfacet
  facet normal -0 0 1
    outer loop
      vertex -16.5084 16.5934 5
      vertex -14.0517 15.606 5
      vertex -15.7246 17.4639 5
    endloop
  endfacet
  facet normal 0 0 1
    outer loop
      vertex -14.0517 15.606 5
      vertex -16.5084 16.5934 5
      vertex -15.2013 14.3294 5
    endloop
  endfacet
  facet normal -0 0 1
    outer loop
      vertex 14.0517 -15.606 5
      vertex 16.5084 -16.5934 5
      vertex 15.2013 -14.3294 5
    endloop
  endfacet
  facet normal 0 0 1
    outer loop
      vertex 16.5084 -16.5934 5
      vertex 14.0517 -15.606 5
      vertex 15.7246 -17.4639 5
    endloop
  endfacet
  facet normal 0 0 1
    outer loop
      vertex 14.0517 -15.606 5
      vertex 11.75 -20.3516 5
      vertex 15.7246 -17.4639 5
    endloop
  endfacet
  facet normal -0 0 1
    outer loop
      vertex 10.5 -18.1865 5
      vertex 11.75 -20.3516 5
      vertex 14.0517 -15.606 5
    endloop
  endfacet
  facet normal 0 0 1
    outer loop
      vertex 10.5 -18.1865 5
      vertex 7.2619 -22.3498 5
      vertex 11.75 -20.3516 5
    endloop
  endfacet
  facet normal -0 0 1
    outer loop
      vertex 6.48936 -19.9722 5
      vertex 7.2619 -22.3498 5
      vertex 10.5 -18.1865 5
    endloop
  endfacet
  facet normal 0 0 1
    outer loop
      vertex 6.48936 -19.9722 5
      vertex 6.11609 -22.5934 5
      vertex 7.2619 -22.3498 5
    endloop
  endfacet
  facet normal 0 -0 1
    outer loop
      vertex 6.11609 -22.5934 5
      vertex 6.48936 -19.9722 5
      vertex 4.80896 -20.3294 5
    endloop
  endfacet
  facet normal 0 0 1
    outer loop
      vertex 14.0517 15.606 5
      vertex 16.5084 16.5934 5
      vertex 15.7246 17.4639 5
    endloop
  endfacet
  facet normal 0 0 1
    outer loop
      vertex 16.5084 16.5934 5
      vertex 14.0517 15.606 5
      vertex 15.2013 14.3294 5
    endloop
  endfacet
  facet normal 0 0 1
    outer loop
      vertex 11.75 20.3516 5
      vertex 14.0517 15.606 5
      vertex 15.7246 17.4639 5
    endloop
  endfacet
  facet normal 0 0 1
    outer loop
      vertex 11.75 20.3516 5
      vertex 10.5 18.1865 5
      vertex 14.0517 15.606 5
    endloop
  endfacet
  facet normal 0 0 1
    outer loop
      vertex 7.2619 22.3498 5
      vertex 10.5 18.1865 5
      vertex 11.75 20.3516 5
    endloop
  endfacet
  facet normal 0 0 1
    outer loop
      vertex 7.2619 22.3498 5
      vertex 6.48936 19.9722 5
      vertex 10.5 18.1865 5
    endloop
  endfacet
  facet normal 0 0 1
    outer loop
      vertex 6.11609 22.5934 5
      vertex 6.48936 19.9722 5
      vertex 7.2619 22.3498 5
    endloop
  endfacet
  facet normal 0 0 1
    outer loop
      vertex 6.48936 19.9722 5
      vertex 6.11609 22.5934 5
      vertex 4.80896 20.3294 5
    endloop
  endfacet
  facet normal 0 0 1
    outer loop
      vertex 20.5411 4.36615 5
      vertex 23 4.75718 5
      vertex 22.9865 4.88592 5
    endloop
  endfacet
  facet normal 0 0 1
    outer loop
      vertex 23 4.75718 5
      vertex 21 0 5
      vertex 23 -4.75718 5
    endloop
  endfacet
  facet normal 0 0 1
    outer loop
      vertex 20.5411 4.36615 5
      vertex 22.9865 4.88592 5
      vertex 22.6245 6 5
    endloop
  endfacet
  facet normal -0 0 1
    outer loop
      vertex 20.5411 -4.36615 5
      vertex 23 -4.75718 5
      vertex 21 0 5
    endloop
  endfacet
  facet normal 0 0 1
    outer loop
      vertex 23 -4.75718 5
      vertex 20.5411 -4.36615 5
      vertex 22.9865 -4.88592 5
    endloop
  endfacet
  facet normal 0 0 1
    outer loop
      vertex 23 4.75718 5
      vertex 20.5411 4.36615 5
      vertex 21 0 5
    endloop
  endfacet
  facet normal 0 -0 1
    outer loop
      vertex 20.5411 4.36615 5
      vertex 22.6245 6 5
      vertex 20.0102 6 5
    endloop
  endfacet
  facet normal 0 0 1
    outer loop
      vertex 22.9865 -4.88592 5
      vertex 20.5411 -4.36615 5
      vertex 22.6245 -6 5
    endloop
  endfacet
  facet normal 0 0 1
    outer loop
      vertex 22.6245 -6 5
      vertex 20.5411 -4.36615 5
      vertex 20.0102 -6 5
    endloop
  endfacet
  facet normal 0 1 0
    outer loop
      vertex -22.6245 -6 9.6
      vertex -22.5591 -6 14.5
      vertex -20.0102 -6 14.5
    endloop
  endfacet
  facet normal 0 1 0
    outer loop
      vertex -22.5591 -6 14.5
      vertex -22.6245 -6 9.6
      vertex -24.193 -6 12
    endloop
  endfacet
  facet normal 0 1 -0
    outer loop
      vertex -20.0102 -6 5
      vertex -22.6245 -6 9.6
      vertex -20.0102 -6 14.5
    endloop
  endfacet
  facet normal 0 1 0
    outer loop
      vertex -22.6245 -6 9.6
      vertex -20.0102 -6 5
      vertex -22.6245 -6 5
    endloop
  endfacet
  facet normal 0 1 -0
    outer loop
      vertex 22.6245 -6 9.6
      vertex 22.5591 -6 14.5
      vertex 24.193 -6 12
    endloop
  endfacet
  facet normal 0 1 0
    outer loop
      vertex 22.5591 -6 14.5
      vertex 22.6245 -6 9.6
      vertex 20.0102 -6 14.5
    endloop
  endfacet
  facet normal 0 1 0
    outer loop
      vertex 20.0102 -6 5
      vertex 22.6245 -6 9.6
      vertex 22.6245 -6 5
    endloop
  endfacet
  facet normal 0 1 0
    outer loop
      vertex 22.6245 -6 9.6
      vertex 20.0102 -6 5
      vertex 20.0102 -6 14.5
    endloop
  endfacet
  facet normal -0.866025 -0.5 0
    outer loop
      vertex 16.5084 -16.5934 9.6
      vertex 15.2013 -14.3294 14.5
      vertex 15.2013 -14.3294 5
    endloop
  endfacet
  facet normal -0.866025 -0.5 -0
    outer loop
      vertex 16.5084 -16.5934 9.6
      vertex 15.2013 -14.3294 5
      vertex 16.5084 -16.5934 5
    endloop
  endfacet
  facet normal -0.866025 -0.5 -1.29799e-007
    outer loop
      vertex 17.2927 -17.9518 12
      vertex 15.2013 -14.3294 14.5
      vertex 16.5084 -16.5934 9.6
    endloop
  endfacet
  facet normal -0.866025 -0.5 -4.77433e-007
    outer loop
      vertex 15.2013 -14.3294 14.5
      vertex 17.2927 -17.9518 12
      vertex 16.4757 -16.5368 14.5
    endloop
  endfacet
  facet normal -0.866026 -0.5 0
    outer loop
      vertex -4.80896 20.3294 5
      vertex -6.11609 22.5934 9.6
      vertex -6.11609 22.5934 5
    endloop
  endfacet
  facet normal -0.866026 -0.5 -0
    outer loop
      vertex -4.80896 20.3294 14.5
      vertex -6.11609 22.5934 9.6
      vertex -4.80896 20.3294 5
    endloop
  endfacet
  facet normal -0.866025 -0.5 -1.51099e-007
    outer loop
      vertex -6.11609 22.5934 9.6
      vertex -4.80896 20.3294 14.5
      vertex -6.08341 22.5368 14.5
    endloop
  endfacet
  facet normal -0.866025 -0.5 -1.50257e-007
    outer loop
      vertex -6.90037 23.9518 12
      vertex -6.11609 22.5934 9.6
      vertex -6.08341 22.5368 14.5
    endloop
  endfacet
  facet normal 0.866025 0.5 -4.77433e-007
    outer loop
      vertex -15.2013 14.3294 14.5
      vertex -17.2927 17.9518 12
      vertex -16.4757 16.5368 14.5
    endloop
  endfacet
  facet normal 0.866025 0.5 -1.29799e-007
    outer loop
      vertex -17.2927 17.9518 12
      vertex -15.2013 14.3294 14.5
      vertex -16.5084 16.5934 9.6
    endloop
  endfacet
  facet normal 0.866025 0.5 -0
    outer loop
      vertex -15.2013 14.3294 5
      vertex -16.5084 16.5934 9.6
      vertex -15.2013 14.3294 14.5
    endloop
  endfacet
  facet normal 0.866025 0.5 0
    outer loop
      vertex -16.5084 16.5934 9.6
      vertex -15.2013 14.3294 5
      vertex -16.5084 16.5934 5
    endloop
  endfacet
  facet normal 0.866025 0.5 -1.32191e-007
    outer loop
      vertex 4.80896 -20.3294 14.5
      vertex 6.90037 -23.9518 12
      vertex 6.11609 -22.5934 9.6
    endloop
  endfacet
  facet normal 0.866025 0.5 -1.91484e-007
    outer loop
      vertex 6.90037 -23.9518 12
      vertex 4.80896 -20.3294 14.5
      vertex 6.08341 -22.5368 14.5
    endloop
  endfacet
  facet normal 0.866026 0.5 0
    outer loop
      vertex 4.80896 -20.3294 14.5
      vertex 6.11609 -22.5934 9.6
      vertex 4.80896 -20.3294 5
    endloop
  endfacet
  facet normal 0.866026 0.5 0
    outer loop
      vertex 4.80896 -20.3294 5
      vertex 6.11609 -22.5934 9.6
      vertex 6.11609 -22.5934 5
    endloop
  endfacet
  facet normal 0.866025 -0.5 -1.29799e-007
    outer loop
      vertex -15.2013 -14.3294 14.5
      vertex -17.2927 -17.9518 12
      vertex -16.5084 -16.5934 9.6
    endloop
  endfacet
  facet normal 0.866025 -0.5 -4.77433e-007
    outer loop
      vertex -17.2927 -17.9518 12
      vertex -15.2013 -14.3294 14.5
      vertex -16.4757 -16.5368 14.5
    endloop
  endfacet
  facet normal 0.866025 -0.5 0
    outer loop
      vertex -15.2013 -14.3294 14.5
      vertex -16.5084 -16.5934 9.6
      vertex -15.2013 -14.3294 5
    endloop
  endfacet
  facet normal 0.866025 -0.5 0
    outer loop
      vertex -15.2013 -14.3294 5
      vertex -16.5084 -16.5934 9.6
      vertex -16.5084 -16.5934 5
    endloop
  endfacet
  facet normal 0.866025 -0.5 -1.91484e-007
    outer loop
      vertex 4.80896 20.3294 14.5
      vertex 6.90037 23.9518 12
      vertex 6.08341 22.5368 14.5
    endloop
  endfacet
  facet normal 0.866025 -0.5 -1.32191e-007
    outer loop
      vertex 6.90037 23.9518 12
      vertex 4.80896 20.3294 14.5
      vertex 6.11609 22.5934 9.6
    endloop
  endfacet
  facet normal 0.866026 -0.5 0
    outer loop
      vertex 4.80896 20.3294 5
      vertex 6.11609 22.5934 9.6
      vertex 4.80896 20.3294 14.5
    endloop
  endfacet
  facet normal 0.866026 -0.5 0
    outer loop
      vertex 6.11609 22.5934 9.6
      vertex 4.80896 20.3294 5
      vertex 6.11609 22.5934 5
    endloop
  endfacet
  facet normal -0.866025 0.5 0
    outer loop
      vertex 15.2013 14.3294 5
      vertex 16.5084 16.5934 9.6
      vertex 16.5084 16.5934 5
    endloop
  endfacet
  facet normal -0.866025 0.5 0
    outer loop
      vertex 15.2013 14.3294 14.5
      vertex 16.5084 16.5934 9.6
      vertex 15.2013 14.3294 5
    endloop
  endfacet
  facet normal -0.866025 0.5 -2.40651e-007
    outer loop
      vertex 16.5084 16.5934 9.6
      vertex 15.2013 14.3294 14.5
      vertex 16.4757 16.5368 14.5
    endloop
  endfacet
  facet normal -0.866025 0.5 -2.35719e-007
    outer loop
      vertex 17.2927 17.9518 12
      vertex 16.5084 16.5934 9.6
      vertex 16.4757 16.5368 14.5
    endloop
  endfacet
  facet normal -0.866026 0.5 0
    outer loop
      vertex -6.11609 -22.5934 9.6
      vertex -4.80896 -20.3294 14.5
      vertex -4.80896 -20.3294 5
    endloop
  endfacet
  facet normal -0.866026 0.5 0
    outer loop
      vertex -6.11609 -22.5934 9.6
      vertex -4.80896 -20.3294 5
      vertex -6.11609 -22.5934 5
    endloop
  endfacet
  facet normal -0.866025 0.5 -1.32191e-007
    outer loop
      vertex -6.90037 -23.9518 12
      vertex -4.80896 -20.3294 14.5
      vertex -6.11609 -22.5934 9.6
    endloop
  endfacet
  facet normal -0.866025 0.5 -1.91484e-007
    outer loop
      vertex -4.80896 -20.3294 14.5
      vertex -6.90037 -23.9518 12
      vertex -6.08341 -22.5368 14.5
    endloop
  endfacet
  facet normal -0.994522 -0.104528 0
    outer loop
      vertex 21 0 3.5
      vertex 20.5411 4.36615 5
      vertex 20.5411 4.36615 3.5
    endloop
  endfacet
  facet normal -0.994522 -0.104528 0
    outer loop
      vertex 20.5411 4.36615 5
      vertex 21 0 3.5
      vertex 21 0 5
    endloop
  endfacet
  facet normal 0.994522 -0.104528 0
    outer loop
      vertex -21 0 5
      vertex -20.5411 4.36615 3.5
      vertex -20.5411 4.36615 5
    endloop
  endfacet
  facet normal 0.994522 -0.104528 0
    outer loop
      vertex -20.5411 4.36615 3.5
      vertex -21 0 5
      vertex -21 0 3.5
    endloop
  endfacet
  facet normal 0 -1 0
    outer loop
      vertex -2.1951 20.885 3.5
      vertex 2.1951 20.885 14.5
      vertex -2.1951 20.885 14.5
    endloop
  endfacet
  facet normal 0 -1 -0
    outer loop
      vertex 2.1951 20.885 14.5
      vertex -2.1951 20.885 3.5
      vertex 2.1951 20.885 3.5
    endloop
  endfacet
  facet normal 0 1 -0
    outer loop
      vertex 2.1951 -20.885 3.5
      vertex -2.1951 -20.885 14.5
      vertex 2.1951 -20.885 14.5
    endloop
  endfacet
  facet normal 0 1 0
    outer loop
      vertex -2.1951 -20.885 14.5
      vertex 2.1951 -20.885 3.5
      vertex -2.1951 -20.885 3.5
    endloop
  endfacet
  facet normal -0.743145 -0.669131 0
    outer loop
      vertex 14.0517 15.606 3.5
      vertex 15.2013 14.3294 5
      vertex 14.0517 15.606 5
    endloop
  endfacet
  facet normal -0.743145 -0.669131 8.95487e-008
    outer loop
      vertex 16.9894 12.3435 3.5
      vertex 15.2013 14.3294 5
      vertex 14.0517 15.606 3.5
    endloop
  endfacet
  facet normal -0.743145 -0.669131 -0
    outer loop
      vertex 16.9894 12.3435 14.5
      vertex 15.2013 14.3294 5
      vertex 16.9894 12.3435 3.5
    endloop
  endfacet
  facet normal -0.743145 -0.669131 0
    outer loop
      vertex 15.2013 14.3294 5
      vertex 16.9894 12.3435 14.5
      vertex 15.2013 14.3294 14.5
    endloop
  endfacet
  facet normal -0.951057 -0.309017 0
    outer loop
      vertex 19.1845 8.54147 3.5
      vertex 20.0102 6 5
      vertex 19.1845 8.54147 14.5
    endloop
  endfacet
  facet normal -0.951056 -0.309017 -2.70471e-007
    outer loop
      vertex 20.5411 4.36615 3.5
      vertex 20.0102 6 5
      vertex 19.1845 8.54147 3.5
    endloop
  endfacet
  facet normal -0.951056 -0.309017 0
    outer loop
      vertex 20.0102 6 5
      vertex 20.5411 4.36615 3.5
      vertex 20.5411 4.36615 5
    endloop
  endfacet
  facet normal -0.951057 -0.309017 0
    outer loop
      vertex 19.1845 8.54147 14.5
      vertex 20.0102 6 5
      vertex 20.0102 6 14.5
    endloop
  endfacet
  facet normal 0.587785 -0.809017 0
    outer loop
      vertex -14.0517 15.606 3.5
      vertex -10.5 18.1865 5
      vertex -14.0517 15.606 5
    endloop
  endfacet
  facet normal 0.587785 -0.809017 0
    outer loop
      vertex -10.5 18.1865 5
      vertex -14.0517 15.606 3.5
      vertex -10.5 18.1865 3.5
    endloop
  endfacet
  facet normal 0.406737 -0.913545 0
    outer loop
      vertex -10.5 18.1865 3.5
      vertex -6.48936 19.9722 5
      vertex -10.5 18.1865 5
    endloop
  endfacet
  facet normal 0.406737 -0.913545 0
    outer loop
      vertex -6.48936 19.9722 5
      vertex -10.5 18.1865 3.5
      vertex -6.48936 19.9722 3.5
    endloop
  endfacet
  facet normal -0.866025 -0.5 0
    outer loop
      vertex 19.1845 8.54147 3.5
      vertex 16.9894 12.3435 14.5
      vertex 16.9894 12.3435 3.5
    endloop
  endfacet
  facet normal -0.866025 -0.5 0
    outer loop
      vertex 16.9894 12.3435 14.5
      vertex 19.1845 8.54147 3.5
      vertex 19.1845 8.54147 14.5
    endloop
  endfacet
  facet normal -0.406737 -0.913545 0
    outer loop
      vertex 6.48936 19.9722 3.5
      vertex 10.5 18.1865 5
      vertex 6.48936 19.9722 5
    endloop
  endfacet
  facet normal -0.406737 -0.913545 -0
    outer loop
      vertex 10.5 18.1865 5
      vertex 6.48936 19.9722 3.5
      vertex 10.5 18.1865 3.5
    endloop
  endfacet
  facet normal -0.207912 -0.978147 0
    outer loop
      vertex 2.1951 20.885 14.5
      vertex 4.80896 20.3294 5
      vertex 4.80896 20.3294 14.5
    endloop
  endfacet
  facet normal -0.207912 -0.978147 0
    outer loop
      vertex 2.1951 20.885 3.5
      vertex 4.80896 20.3294 5
      vertex 2.1951 20.885 14.5
    endloop
  endfacet
  facet normal -0.207912 -0.978148 -8.14215e-007
    outer loop
      vertex 6.48936 19.9722 3.5
      vertex 4.80896 20.3294 5
      vertex 2.1951 20.885 3.5
    endloop
  endfacet
  facet normal -0.207911 -0.978148 0
    outer loop
      vertex 4.80896 20.3294 5
      vertex 6.48936 19.9722 3.5
      vertex 6.48936 19.9722 5
    endloop
  endfacet
  facet normal -0.587785 -0.809017 0
    outer loop
      vertex 10.5 18.1865 3.5
      vertex 14.0517 15.606 5
      vertex 10.5 18.1865 5
    endloop
  endfacet
  facet normal -0.587785 -0.809017 -0
    outer loop
      vertex 14.0517 15.606 5
      vertex 10.5 18.1865 3.5
      vertex 14.0517 15.606 3.5
    endloop
  endfacet
  facet normal 0.866025 -0.5 0
    outer loop
      vertex -19.1845 8.54147 14.5
      vertex -16.9894 12.3435 3.5
      vertex -16.9894 12.3435 14.5
    endloop
  endfacet
  facet normal 0.866025 -0.5 0
    outer loop
      vertex -16.9894 12.3435 3.5
      vertex -19.1845 8.54147 14.5
      vertex -19.1845 8.54147 3.5
    endloop
  endfacet
  facet normal 0.743145 -0.669131 0
    outer loop
      vertex -15.2013 14.3294 14.5
      vertex -16.9894 12.3435 14.5
      vertex -15.2013 14.3294 5
    endloop
  endfacet
  facet normal 0.743145 -0.669131 0
    outer loop
      vertex -15.2013 14.3294 5
      vertex -14.0517 15.606 3.5
      vertex -14.0517 15.606 5
    endloop
  endfacet
  facet normal 0.743145 -0.669131 8.95487e-008
    outer loop
      vertex -15.2013 14.3294 5
      vertex -16.9894 12.3435 3.5
      vertex -14.0517 15.606 3.5
    endloop
  endfacet
  facet normal 0.743145 -0.669131 0
    outer loop
      vertex -16.9894 12.3435 3.5
      vertex -15.2013 14.3294 5
      vertex -16.9894 12.3435 14.5
    endloop
  endfacet
  facet normal 0.951057 -0.309017 0
    outer loop
      vertex -20.0102 6 5
      vertex -19.1845 8.54147 14.5
      vertex -20.0102 6 14.5
    endloop
  endfacet
  facet normal 0.951057 -0.309017 0
    outer loop
      vertex -19.1845 8.54147 14.5
      vertex -20.0102 6 5
      vertex -19.1845 8.54147 3.5
    endloop
  endfacet
  facet normal 0.951056 -0.309017 0
    outer loop
      vertex -20.5411 4.36615 3.5
      vertex -20.0102 6 5
      vertex -20.5411 4.36615 5
    endloop
  endfacet
  facet normal 0.951056 -0.309017 -2.70471e-007
    outer loop
      vertex -20.0102 6 5
      vertex -20.5411 4.36615 3.5
      vertex -19.1845 8.54147 3.5
    endloop
  endfacet
  facet normal 0.207911 -0.978148 0
    outer loop
      vertex -6.48936 19.9722 5
      vertex -6.48936 19.9722 3.5
      vertex -4.80896 20.3294 5
    endloop
  endfacet
  facet normal 0.207912 -0.978147 0
    outer loop
      vertex -4.80896 20.3294 5
      vertex -2.1951 20.885 14.5
      vertex -4.80896 20.3294 14.5
    endloop
  endfacet
  facet normal 0.207912 -0.978147 0
    outer loop
      vertex -4.80896 20.3294 5
      vertex -2.1951 20.885 3.5
      vertex -2.1951 20.885 14.5
    endloop
  endfacet
  facet normal 0.207912 -0.978148 -8.14215e-007
    outer loop
      vertex -2.1951 20.885 3.5
      vertex -4.80896 20.3294 5
      vertex -6.48936 19.9722 3.5
    endloop
  endfacet
  facet normal -0.994522 0.104528 0
    outer loop
      vertex 20.5411 -4.36615 3.5
      vertex 21 0 5
      vertex 21 0 3.5
    endloop
  endfacet
  facet normal -0.994522 0.104528 0
    outer loop
      vertex 21 0 5
      vertex 20.5411 -4.36615 3.5
      vertex 20.5411 -4.36615 5
    endloop
  endfacet
  facet normal 0 0 1
    outer loop
      vertex 20.5411 4.36615 3.5
      vertex 20.5411 -4.36615 3.5
      vertex 21 0 3.5
    endloop
  endfacet
  facet normal 0 0 1
    outer loop
      vertex 19.1845 8.54147 3.5
      vertex 20.5411 -4.36615 3.5
      vertex 20.5411 4.36615 3.5
    endloop
  endfacet
  facet normal 0 0 1
    outer loop
      vertex 19.1845 8.54147 3.5
      vertex 19.1845 -8.54147 3.5
      vertex 20.5411 -4.36615 3.5
    endloop
  endfacet
  facet normal 0 0 1
    outer loop
      vertex 16.9894 12.3435 3.5
      vertex 19.1845 -8.54147 3.5
      vertex 19.1845 8.54147 3.5
    endloop
  endfacet
  facet normal 0 0 1
    outer loop
      vertex 16.9894 12.3435 3.5
      vertex 16.9894 -12.3435 3.5
      vertex 19.1845 -8.54147 3.5
    endloop
  endfacet
  facet normal 0 0 1
    outer loop
      vertex 14.0517 15.606 3.5
      vertex 16.9894 -12.3435 3.5
      vertex 16.9894 12.3435 3.5
    endloop
  endfacet
  facet normal 0 0 1
    outer loop
      vertex 14.0517 15.606 3.5
      vertex 14.0517 -15.606 3.5
      vertex 16.9894 -12.3435 3.5
    endloop
  endfacet
  facet normal 0 0 1
    outer loop
      vertex 10.5 18.1865 3.5
      vertex 14.0517 -15.606 3.5
      vertex 14.0517 15.606 3.5
    endloop
  endfacet
  facet normal 0 0 1
    outer loop
      vertex 10.5 18.1865 3.5
      vertex 10.5 -18.1865 3.5
      vertex 14.0517 -15.606 3.5
    endloop
  endfacet
  facet normal 0 0 1
    outer loop
      vertex 6.48936 19.9722 3.5
      vertex 10.5 -18.1865 3.5
      vertex 10.5 18.1865 3.5
    endloop
  endfacet
  facet normal 0 0 1
    outer loop
      vertex 6.48936 19.9722 3.5
      vertex 6.48936 -19.9722 3.5
      vertex 10.5 -18.1865 3.5
    endloop
  endfacet
  facet normal 0 0 1
    outer loop
      vertex 2.1951 20.885 3.5
      vertex 6.48936 -19.9722 3.5
      vertex 6.48936 19.9722 3.5
    endloop
  endfacet
  facet normal 0 0 1
    outer loop
      vertex 2.1951 20.885 3.5
      vertex 2.1951 -20.885 3.5
      vertex 6.48936 -19.9722 3.5
    endloop
  endfacet
  facet normal -0 0 1
    outer loop
      vertex -2.1951 20.885 3.5
      vertex 2.1951 -20.885 3.5
      vertex 2.1951 20.885 3.5
    endloop
  endfacet
  facet normal 0 0 1
    outer loop
      vertex -2.1951 20.885 3.5
      vertex -2.1951 -20.885 3.5
      vertex 2.1951 -20.885 3.5
    endloop
  endfacet
  facet normal -0 0 1
    outer loop
      vertex -6.48936 19.9722 3.5
      vertex -2.1951 -20.885 3.5
      vertex -2.1951 20.885 3.5
    endloop
  endfacet
  facet normal 0 0 1
    outer loop
      vertex -6.48936 19.9722 3.5
      vertex -6.48936 -19.9722 3.5
      vertex -2.1951 -20.885 3.5
    endloop
  endfacet
  facet normal -0 0 1
    outer loop
      vertex -10.5 18.1865 3.5
      vertex -6.48936 -19.9722 3.5
      vertex -6.48936 19.9722 3.5
    endloop
  endfacet
  facet normal 0 0 1
    outer loop
      vertex -10.5 18.1865 3.5
      vertex -10.5 -18.1865 3.5
      vertex -6.48936 -19.9722 3.5
    endloop
  endfacet
  facet normal -0 0 1
    outer loop
      vertex -14.0517 15.606 3.5
      vertex -10.5 -18.1865 3.5
      vertex -10.5 18.1865 3.5
    endloop
  endfacet
  facet normal 0 0 1
    outer loop
      vertex -14.0517 15.606 3.5
      vertex -14.0517 -15.606 3.5
      vertex -10.5 -18.1865 3.5
    endloop
  endfacet
  facet normal -0 0 1
    outer loop
      vertex -16.9894 12.3435 3.5
      vertex -14.0517 -15.606 3.5
      vertex -14.0517 15.606 3.5
    endloop
  endfacet
  facet normal 0 0 1
    outer loop
      vertex -16.9894 12.3435 3.5
      vertex -16.9894 -12.3435 3.5
      vertex -14.0517 -15.606 3.5
    endloop
  endfacet
  facet normal -0 0 1
    outer loop
      vertex -19.1845 8.54147 3.5
      vertex -16.9894 -12.3435 3.5
      vertex -16.9894 12.3435 3.5
    endloop
  endfacet
  facet normal 0 0 1
    outer loop
      vertex -19.1845 8.54147 3.5
      vertex -19.1845 -8.54147 3.5
      vertex -16.9894 -12.3435 3.5
    endloop
  endfacet
  facet normal -0 0 1
    outer loop
      vertex -20.5411 4.36615 3.5
      vertex -19.1845 -8.54147 3.5
      vertex -19.1845 8.54147 3.5
    endloop
  endfacet
  facet normal 0 0 1
    outer loop
      vertex -20.5411 4.36615 3.5
      vertex -20.5411 -4.36615 3.5
      vertex -19.1845 -8.54147 3.5
    endloop
  endfacet
  facet normal 0 -0 1
    outer loop
      vertex -20.5411 -4.36615 3.5
      vertex -20.5411 4.36615 3.5
      vertex -21 0 3.5
    endloop
  endfacet
  facet normal -0.743145 0.669131 0
    outer loop
      vertex 16.9894 -12.3435 3.5
      vertex 15.2013 -14.3294 5
      vertex 16.9894 -12.3435 14.5
    endloop
  endfacet
  facet normal -0.743145 0.669131 8.95487e-008
    outer loop
      vertex 14.0517 -15.606 3.5
      vertex 15.2013 -14.3294 5
      vertex 16.9894 -12.3435 3.5
    endloop
  endfacet
  facet normal -0.743145 0.669131 0
    outer loop
      vertex 15.2013 -14.3294 5
      vertex 14.0517 -15.606 3.5
      vertex 14.0517 -15.606 5
    endloop
  endfacet
  facet normal -0.743145 0.669131 0
    outer loop
      vertex 16.9894 -12.3435 14.5
      vertex 15.2013 -14.3294 5
      vertex 15.2013 -14.3294 14.5
    endloop
  endfacet
  facet normal -0.951056 0.309017 0
    outer loop
      vertex 20.5411 -4.36615 3.5
      vertex 20.0102 -6 5
      vertex 20.5411 -4.36615 5
    endloop
  endfacet
  facet normal -0.951056 0.309017 -2.70471e-007
    outer loop
      vertex 19.1845 -8.54147 3.5
      vertex 20.0102 -6 5
      vertex 20.5411 -4.36615 3.5
    endloop
  endfacet
  facet normal -0.951057 0.309017 0
    outer loop
      vertex 19.1845 -8.54147 14.5
      vertex 20.0102 -6 5
      vertex 19.1845 -8.54147 3.5
    endloop
  endfacet
  facet normal -0.951057 0.309017 0
    outer loop
      vertex 20.0102 -6 5
      vertex 19.1845 -8.54147 14.5
      vertex 20.0102 -6 14.5
    endloop
  endfacet
  facet normal -0.866025 0.5 0
    outer loop
      vertex 16.9894 -12.3435 3.5
      vertex 19.1845 -8.54147 14.5
      vertex 19.1845 -8.54147 3.5
    endloop
  endfacet
  facet normal -0.866025 0.5 0
    outer loop
      vertex 19.1845 -8.54147 14.5
      vertex 16.9894 -12.3435 3.5
      vertex 16.9894 -12.3435 14.5
    endloop
  endfacet
  facet normal 0.587785 0.809017 -0
    outer loop
      vertex -10.5 -18.1865 3.5
      vertex -14.0517 -15.606 5
      vertex -10.5 -18.1865 5
    endloop
  endfacet
  facet normal 0.587785 0.809017 0
    outer loop
      vertex -14.0517 -15.606 5
      vertex -10.5 -18.1865 3.5
      vertex -14.0517 -15.606 3.5
    endloop
  endfacet
  facet normal 0.866025 0.5 0
    outer loop
      vertex -16.9894 -12.3435 14.5
      vertex -19.1845 -8.54147 3.5
      vertex -19.1845 -8.54147 14.5
    endloop
  endfacet
  facet normal 0.866025 0.5 0
    outer loop
      vertex -19.1845 -8.54147 3.5
      vertex -16.9894 -12.3435 14.5
      vertex -16.9894 -12.3435 3.5
    endloop
  endfacet
  facet normal 0.994522 0.104528 0
    outer loop
      vertex -20.5411 -4.36615 5
      vertex -21 0 3.5
      vertex -21 0 5
    endloop
  endfacet
  facet normal 0.994522 0.104528 0
    outer loop
      vertex -21 0 3.5
      vertex -20.5411 -4.36615 5
      vertex -20.5411 -4.36615 3.5
    endloop
  endfacet
  facet normal -0.207911 0.978148 0
    outer loop
      vertex 6.48936 -19.9722 5
      vertex 6.48936 -19.9722 3.5
      vertex 4.80896 -20.3294 5
    endloop
  endfacet
  facet normal -0.207912 0.978147 0
    outer loop
      vertex 4.80896 -20.3294 5
      vertex 2.1951 -20.885 14.5
      vertex 4.80896 -20.3294 14.5
    endloop
  endfacet
  facet normal -0.207912 0.978147 0
    outer loop
      vertex 4.80896 -20.3294 5
      vertex 2.1951 -20.885 3.5
      vertex 2.1951 -20.885 14.5
    endloop
  endfacet
  facet normal -0.207912 0.978148 -8.14215e-007
    outer loop
      vertex 2.1951 -20.885 3.5
      vertex 4.80896 -20.3294 5
      vertex 6.48936 -19.9722 3.5
    endloop
  endfacet
  facet normal -0.587785 0.809017 0
    outer loop
      vertex 14.0517 -15.606 3.5
      vertex 10.5 -18.1865 5
      vertex 14.0517 -15.606 5
    endloop
  endfacet
  facet normal -0.587785 0.809017 0
    outer loop
      vertex 10.5 -18.1865 5
      vertex 14.0517 -15.606 3.5
      vertex 10.5 -18.1865 3.5
    endloop
  endfacet
  facet normal 0.406737 0.913545 -0
    outer loop
      vertex -6.48936 -19.9722 3.5
      vertex -10.5 -18.1865 5
      vertex -6.48936 -19.9722 5
    endloop
  endfacet
  facet normal 0.406737 0.913545 0
    outer loop
      vertex -10.5 -18.1865 5
      vertex -6.48936 -19.9722 3.5
      vertex -10.5 -18.1865 3.5
    endloop
  endfacet
  facet normal 0.743145 0.669131 -0
    outer loop
      vertex -15.2013 -14.3294 5
      vertex -16.9894 -12.3435 14.5
      vertex -15.2013 -14.3294 14.5
    endloop
  endfacet
  facet normal 0.743145 0.669131 0
    outer loop
      vertex -16.9894 -12.3435 14.5
      vertex -15.2013 -14.3294 5
      vertex -16.9894 -12.3435 3.5
    endloop
  endfacet
  facet normal 0.743145 0.669131 -0
    outer loop
      vertex -14.0517 -15.606 3.5
      vertex -15.2013 -14.3294 5
      vertex -14.0517 -15.606 5
    endloop
  endfacet
  facet normal 0.743145 0.669131 8.95487e-008
    outer loop
      vertex -15.2013 -14.3294 5
      vertex -14.0517 -15.606 3.5
      vertex -16.9894 -12.3435 3.5
    endloop
  endfacet
  facet normal 0.951057 0.309017 0
    outer loop
      vertex -20.0102 -6 14.5
      vertex -19.1845 -8.54147 14.5
      vertex -20.0102 -6 5
    endloop
  endfacet
  facet normal 0.951056 0.309017 0
    outer loop
      vertex -20.0102 -6 5
      vertex -20.5411 -4.36615 3.5
      vertex -20.5411 -4.36615 5
    endloop
  endfacet
  facet normal 0.951056 0.309017 -2.70471e-007
    outer loop
      vertex -20.0102 -6 5
      vertex -19.1845 -8.54147 3.5
      vertex -20.5411 -4.36615 3.5
    endloop
  endfacet
  facet normal 0.951057 0.309017 -0
    outer loop
      vertex -19.1845 -8.54147 3.5
      vertex -20.0102 -6 5
      vertex -19.1845 -8.54147 14.5
    endloop
  endfacet
  facet normal -0.406737 0.913545 0
    outer loop
      vertex 10.5 -18.1865 3.5
      vertex 6.48936 -19.9722 5
      vertex 10.5 -18.1865 5
    endloop
  endfacet
  facet normal -0.406737 0.913545 0
    outer loop
      vertex 6.48936 -19.9722 5
      vertex 10.5 -18.1865 3.5
      vertex 6.48936 -19.9722 3.5
    endloop
  endfacet
  facet normal 0.207912 0.978147 0
    outer loop
      vertex -2.1951 -20.885 14.5
      vertex -4.80896 -20.3294 5
      vertex -4.80896 -20.3294 14.5
    endloop
  endfacet
  facet normal 0.207912 0.978147 -0
    outer loop
      vertex -2.1951 -20.885 3.5
      vertex -4.80896 -20.3294 5
      vertex -2.1951 -20.885 14.5
    endloop
  endfacet
  facet normal 0.207912 0.978148 -8.14215e-007
    outer loop
      vertex -6.48936 -19.9722 3.5
      vertex -4.80896 -20.3294 5
      vertex -2.1951 -20.885 3.5
    endloop
  endfacet
  facet normal 0.207911 0.978148 0
    outer loop
      vertex -4.80896 -20.3294 5
      vertex -6.48936 -19.9722 3.5
      vertex -6.48936 -19.9722 5
    endloop
  endfacet
  facet normal -0 0 1
    outer loop
      vertex -18.9613 -13.7762 14.5
      vertex -15.2013 -14.3294 14.5
      vertex -16.9894 -12.3435 14.5
    endloop
  endfacet
  facet normal 0 0 1
    outer loop
      vertex -15.2013 -14.3294 14.5
      vertex -18.9613 -13.7762 14.5
      vertex -16.4757 -16.5368 14.5
    endloop
  endfacet
  facet normal 0 0 1
    outer loop
      vertex -19.1845 -8.54147 14.5
      vertex -18.9613 -13.7762 14.5
      vertex -16.9894 -12.3435 14.5
    endloop
  endfacet
  facet normal 0 0 1
    outer loop
      vertex -21.4112 -9.53289 14.5
      vertex -19.1845 -8.54147 14.5
      vertex -20.0102 -6 14.5
    endloop
  endfacet
  facet normal 0 0 1
    outer loop
      vertex -19.1845 -8.54147 14.5
      vertex -21.4112 -9.53289 14.5
      vertex -18.9613 -13.7762 14.5
    endloop
  endfacet
  facet normal 0 -0 1
    outer loop
      vertex -21.4112 -9.53289 14.5
      vertex -20.0102 -6 14.5
      vertex -22.5591 -6 14.5
    endloop
  endfacet
  facet normal 0 0 1
    outer loop
      vertex -18.9613 13.7762 14.5
      vertex -15.2013 14.3294 14.5
      vertex -16.4757 16.5368 14.5
    endloop
  endfacet
  facet normal 0 0 1
    outer loop
      vertex -15.2013 14.3294 14.5
      vertex -18.9613 13.7762 14.5
      vertex -16.9894 12.3435 14.5
    endloop
  endfacet
  facet normal 0 0 1
    outer loop
      vertex -18.9613 13.7762 14.5
      vertex -19.1845 8.54147 14.5
      vertex -16.9894 12.3435 14.5
    endloop
  endfacet
  facet normal -0 0 1
    outer loop
      vertex -21.4112 9.53289 14.5
      vertex -19.1845 8.54147 14.5
      vertex -18.9613 13.7762 14.5
    endloop
  endfacet
  facet normal 0 0 1
    outer loop
      vertex -19.1845 8.54147 14.5
      vertex -21.4112 9.53289 14.5
      vertex -20.0102 6 14.5
    endloop
  endfacet
  facet normal 0 0 1
    outer loop
      vertex -20.0102 6 14.5
      vertex -21.4112 9.53289 14.5
      vertex -22.5591 6 14.5
    endloop
  endfacet
  facet normal 0 0 1
    outer loop
      vertex 2.44988 23.3091 14.5
      vertex 4.80896 20.3294 14.5
      vertex 6.08341 22.5368 14.5
    endloop
  endfacet
  facet normal 0 0 1
    outer loop
      vertex 2.44988 23.3091 14.5
      vertex 2.1951 20.885 14.5
      vertex 4.80896 20.3294 14.5
    endloop
  endfacet
  facet normal 0 0 1
    outer loop
      vertex 2.44988 23.3091 14.5
      vertex -2.1951 20.885 14.5
      vertex 2.1951 20.885 14.5
    endloop
  endfacet
  facet normal -0 0 1
    outer loop
      vertex -2.44988 23.3091 14.5
      vertex -2.1951 20.885 14.5
      vertex 2.44988 23.3091 14.5
    endloop
  endfacet
  facet normal 0 0 1
    outer loop
      vertex -2.44988 23.3091 14.5
      vertex -4.80896 20.3294 14.5
      vertex -2.1951 20.885 14.5
    endloop
  endfacet
  facet normal 0 -0 1
    outer loop
      vertex -4.80896 20.3294 14.5
      vertex -2.44988 23.3091 14.5
      vertex -6.08341 22.5368 14.5
    endloop
  endfacet
  facet normal 0 0 1
    outer loop
      vertex 4.80896 -20.3294 14.5
      vertex 2.44988 -23.3091 14.5
      vertex 6.08341 -22.5368 14.5
    endloop
  endfacet
  facet normal -0 0 1
    outer loop
      vertex 2.1951 -20.885 14.5
      vertex 2.44988 -23.3091 14.5
      vertex 4.80896 -20.3294 14.5
    endloop
  endfacet
  facet normal -0 0 1
    outer loop
      vertex -2.1951 -20.885 14.5
      vertex 2.44988 -23.3091 14.5
      vertex 2.1951 -20.885 14.5
    endloop
  endfacet
  facet normal 0 0 1
    outer loop
      vertex -2.1951 -20.885 14.5
      vertex -2.44988 -23.3091 14.5
      vertex 2.44988 -23.3091 14.5
    endloop
  endfacet
  facet normal 0 0 1
    outer loop
      vertex -4.80896 -20.3294 14.5
      vertex -2.44988 -23.3091 14.5
      vertex -2.1951 -20.885 14.5
    endloop
  endfacet
  facet normal 0 0 1
    outer loop
      vertex -2.44988 -23.3091 14.5
      vertex -4.80896 -20.3294 14.5
      vertex -6.08341 -22.5368 14.5
    endloop
  endfacet
  facet normal -0 0 1
    outer loop
      vertex 20.0102 -6 14.5
      vertex 21.4112 -9.53289 14.5
      vertex 22.5591 -6 14.5
    endloop
  endfacet
  facet normal -0 0 1
    outer loop
      vertex 19.1845 -8.54147 14.5
      vertex 21.4112 -9.53289 14.5
      vertex 20.0102 -6 14.5
    endloop
  endfacet
  facet normal 0 0 1
    outer loop
      vertex 19.1845 -8.54147 14.5
      vertex 18.9613 -13.7762 14.5
      vertex 21.4112 -9.53289 14.5
    endloop
  endfacet
  facet normal -0 0 1
    outer loop
      vertex 16.9894 -12.3435 14.5
      vertex 18.9613 -13.7762 14.5
      vertex 19.1845 -8.54147 14.5
    endloop
  endfacet
  facet normal 0 0 1
    outer loop
      vertex 15.2013 -14.3294 14.5
      vertex 18.9613 -13.7762 14.5
      vertex 16.9894 -12.3435 14.5
    endloop
  endfacet
  facet normal 0 0 1
    outer loop
      vertex 18.9613 -13.7762 14.5
      vertex 15.2013 -14.3294 14.5
      vertex 16.4757 -16.5368 14.5
    endloop
  endfacet
  facet normal 0 0 1
    outer loop
      vertex 21.4112 9.53289 14.5
      vertex 20.0102 6 14.5
      vertex 22.5591 6 14.5
    endloop
  endfacet
  facet normal 0 0 1
    outer loop
      vertex 21.4112 9.53289 14.5
      vertex 19.1845 8.54147 14.5
      vertex 20.0102 6 14.5
    endloop
  endfacet
  facet normal 0 0 1
    outer loop
      vertex 18.9613 13.7762 14.5
      vertex 19.1845 8.54147 14.5
      vertex 21.4112 9.53289 14.5
    endloop
  endfacet
  facet normal 0 0 1
    outer loop
      vertex 18.9613 13.7762 14.5
      vertex 16.9894 12.3435 14.5
      vertex 19.1845 8.54147 14.5
    endloop
  endfacet
  facet normal -0 0 1
    outer loop
      vertex 15.2013 14.3294 14.5
      vertex 18.9613 13.7762 14.5
      vertex 16.4757 16.5368 14.5
    endloop
  endfacet
  facet normal 0 0 1
    outer loop
      vertex 18.9613 13.7762 14.5
      vertex 15.2013 14.3294 14.5
      vertex 16.9894 12.3435 14.5
    endloop
  endfacet
  facet normal 1 0 0
    outer loop
      vertex 23 4.75718 5
      vertex 23 -4.75718 5
      vertex 23 4.75718 3.5
    endloop
  endfacet
  facet normal 1 -0 0
    outer loop
      vertex 23 4.75718 3.5
      vertex 23 5 2
      vertex 23 5 3.5
    endloop
  endfacet
  facet normal 1 0 0
    outer loop
      vertex 23 -4.75718 3.5
      vertex 23 4.75718 3.5
      vertex 23 -4.75718 5
    endloop
  endfacet
  facet normal 1 0 0
    outer loop
      vertex 23 4.75718 3.5
      vertex 23 -4.75718 3.5
      vertex 23 5 2
    endloop
  endfacet
  facet normal 1 0 0
    outer loop
      vertex 23 -5 2
      vertex 23 -4.75718 3.5
      vertex 23 -5 3.5
    endloop
  endfacet
  facet normal 1 0 0
    outer loop
      vertex 23 -4.75718 3.5
      vertex 23 -5 2
      vertex 23 5 2
    endloop
  endfacet
  facet normal 0 0 1
    outer loop
      vertex 23 5 2
      vertex 26.6 0 2
      vertex 26.2529 3.30283 2
    endloop
  endfacet
  facet normal -0 0 1
    outer loop
      vertex 23 5 2
      vertex 26.2529 3.30283 2
      vertex 26.0745 5 2
    endloop
  endfacet
  facet normal 0 0 1
    outer loop
      vertex 23 -5 2
      vertex 26.6 0 2
      vertex 23 5 2
    endloop
  endfacet
  facet normal 0 0 1
    outer loop
      vertex 26.6 0 2
      vertex 23 -5 2
      vertex 26.2529 -3.30283 2
    endloop
  endfacet
  facet normal 0 0 1
    outer loop
      vertex 26.2529 -3.30283 2
      vertex 23 -5 2
      vertex 26.0745 -5 2
    endloop
  endfacet
  facet normal 0 1 -0
    outer loop
      vertex 26.8966 -5 3.02771
      vertex 23 -5 3.5
      vertex 27.2745 -5 3.5
    endloop
  endfacet
  facet normal 0 1 -0
    outer loop
      vertex 26.0745 -5 2
      vertex 23 -5 3.5
      vertex 26.8966 -5 3.02771
    endloop
  endfacet
  facet normal 0 1 0
    outer loop
      vertex 23 -5 3.5
      vertex 26.0745 -5 2
      vertex 23 -5 2
    endloop
  endfacet
  facet normal 0 -1 0
    outer loop
      vertex 23 5 3.5
      vertex 26.8966 5 3.02771
      vertex 27.2745 5 3.5
    endloop
  endfacet
  facet normal 0 -1 0
    outer loop
      vertex 26.0745 5 2
      vertex 23 5 3.5
      vertex 23 5 2
    endloop
  endfacet
  facet normal 0 -1 0
    outer loop
      vertex 23 5 3.5
      vertex 26.0745 5 2
      vertex 26.8966 5 3.02771
    endloop
  endfacet
endsolid OpenSCAD_Model
